%FSLAX45Y45*%
G04 Gerber Fmt 4.5, Leading zero omitted, Abs format (unit mm)*
G04 Created by KiCad (PCBNEW (5.0.2)-1) date 07.02.2020 11:46:58*
%MOMM*%
%LPD*%
G01*
G04 APERTURE LIST*
%ADD10C,0.150000*%
%ADD11C,0.200000*%
%ADD12C,0.300000*%
G04 APERTURE END LIST*
D10*
X1397000Y-1397000D02*
G75*
G02X1524000Y-1270000I127000J0D01*
G01*
X19177000Y-1270000D02*
G75*
G02X19304000Y-1397000I0J-127000D01*
G01*
X19304000Y-19373000D02*
G75*
G02X19177000Y-19500000I-127000J0D01*
G01*
X1524000Y-19500000D02*
G75*
G02X1397000Y-19373000I0J127000D01*
G01*
X1524000Y-1270000D02*
X19177000Y-1270000D01*
X1397000Y-19373000D02*
X1397000Y-1397000D01*
X19177000Y-19500000D02*
X1524000Y-19500000D01*
X19304000Y-1397000D02*
X19304000Y-19372000D01*
D11*
X13915970Y-7389430D02*
X13955970Y-7429430D01*
X13955970Y-7389430D02*
X13915970Y-7429430D01*
X10104500Y-7060000D02*
G75*
G03X10104500Y-7060000I-25000J0D01*
G01*
X10181385Y-6874384D02*
G75*
G03X10181385Y-6874384I-25000J0D01*
G01*
X10181385Y-7245615D02*
G75*
G03X10181385Y-7245615I-25000J0D01*
G01*
X10367000Y-6797500D02*
G75*
G03X10367000Y-6797500I-25000J0D01*
G01*
X10367000Y-7322500D02*
G75*
G03X10367000Y-7322500I-25000J0D01*
G01*
X10552616Y-6874384D02*
G75*
G03X10552616Y-6874384I-25000J0D01*
G01*
X10552616Y-7245615D02*
G75*
G03X10552616Y-7245615I-25000J0D01*
G01*
X10629500Y-7060000D02*
G75*
G03X10629500Y-7060000I-25000J0D01*
G01*
X10104500Y-13060000D02*
G75*
G03X10104500Y-13060000I-25000J0D01*
G01*
X10181385Y-12874384D02*
G75*
G03X10181385Y-12874384I-25000J0D01*
G01*
X10181385Y-13245615D02*
G75*
G03X10181385Y-13245615I-25000J0D01*
G01*
X10367000Y-12797500D02*
G75*
G03X10367000Y-12797500I-25000J0D01*
G01*
X10367000Y-13322500D02*
G75*
G03X10367000Y-13322500I-25000J0D01*
G01*
X10552616Y-12874384D02*
G75*
G03X10552616Y-12874384I-25000J0D01*
G01*
X10552616Y-13245615D02*
G75*
G03X10552616Y-13245615I-25000J0D01*
G01*
X10629500Y-13060000D02*
G75*
G03X10629500Y-13060000I-25000J0D01*
G01*
X2377500Y-18970000D02*
X2377500Y-19030000D01*
X2347500Y-19000000D02*
X2407500Y-19000000D01*
X2471958Y-18741958D02*
X2471958Y-18801958D01*
X2441958Y-18771958D02*
X2501958Y-18771958D01*
X2471958Y-19198042D02*
X2471958Y-19258042D01*
X2441958Y-19228042D02*
X2501958Y-19228042D01*
X2700000Y-18647500D02*
X2700000Y-18707500D01*
X2670000Y-18677500D02*
X2730000Y-18677500D01*
X2700000Y-19292500D02*
X2700000Y-19352500D01*
X2670000Y-19322500D02*
X2730000Y-19322500D01*
X2928042Y-18741958D02*
X2928042Y-18801958D01*
X2898042Y-18771958D02*
X2958042Y-18771958D01*
X2928042Y-19198042D02*
X2928042Y-19258042D01*
X2898042Y-19228042D02*
X2958042Y-19228042D01*
X3022500Y-18970000D02*
X3022500Y-19030000D01*
X2992500Y-19000000D02*
X3052500Y-19000000D01*
X2377500Y-16070000D02*
X2377500Y-16130000D01*
X2347500Y-16100000D02*
X2407500Y-16100000D01*
X2471958Y-15841958D02*
X2471958Y-15901958D01*
X2441958Y-15871958D02*
X2501958Y-15871958D01*
X2471958Y-16298042D02*
X2471958Y-16358042D01*
X2441958Y-16328042D02*
X2501958Y-16328042D01*
X2700000Y-15747500D02*
X2700000Y-15807500D01*
X2670000Y-15777500D02*
X2730000Y-15777500D01*
X2700000Y-16392500D02*
X2700000Y-16452500D01*
X2670000Y-16422500D02*
X2730000Y-16422500D01*
X2928042Y-15841958D02*
X2928042Y-15901958D01*
X2898042Y-15871958D02*
X2958042Y-15871958D01*
X2928042Y-16298042D02*
X2928042Y-16358042D01*
X2898042Y-16328042D02*
X2958042Y-16328042D01*
X3022500Y-16070000D02*
X3022500Y-16130000D01*
X2992500Y-16100000D02*
X3052500Y-16100000D01*
X17877500Y-16070000D02*
X17877500Y-16130000D01*
X17847500Y-16100000D02*
X17907500Y-16100000D01*
X17971958Y-15841958D02*
X17971958Y-15901958D01*
X17941958Y-15871958D02*
X18001958Y-15871958D01*
X17971958Y-16298042D02*
X17971958Y-16358042D01*
X17941958Y-16328042D02*
X18001958Y-16328042D01*
X18200000Y-15747500D02*
X18200000Y-15807500D01*
X18170000Y-15777500D02*
X18230000Y-15777500D01*
X18200000Y-16392500D02*
X18200000Y-16452500D01*
X18170000Y-16422500D02*
X18230000Y-16422500D01*
X18428042Y-15841958D02*
X18428042Y-15901958D01*
X18398042Y-15871958D02*
X18458042Y-15871958D01*
X18428042Y-16298042D02*
X18428042Y-16358042D01*
X18398042Y-16328042D02*
X18458042Y-16328042D01*
X18522500Y-16070000D02*
X18522500Y-16130000D01*
X18492500Y-16100000D02*
X18552500Y-16100000D01*
X17877500Y-18970000D02*
X17877500Y-19030000D01*
X17847500Y-19000000D02*
X17907500Y-19000000D01*
X17971958Y-18741958D02*
X17971958Y-18801958D01*
X17941958Y-18771958D02*
X18001958Y-18771958D01*
X17971958Y-19198042D02*
X17971958Y-19258042D01*
X17941958Y-19228042D02*
X18001958Y-19228042D01*
X18200000Y-18647500D02*
X18200000Y-18707500D01*
X18170000Y-18677500D02*
X18230000Y-18677500D01*
X18200000Y-19292500D02*
X18200000Y-19352500D01*
X18170000Y-19322500D02*
X18230000Y-19322500D01*
X18428042Y-18741958D02*
X18428042Y-18801958D01*
X18398042Y-18771958D02*
X18458042Y-18771958D01*
X18428042Y-19198042D02*
X18428042Y-19258042D01*
X18398042Y-19228042D02*
X18458042Y-19228042D01*
X18522500Y-18970000D02*
X18522500Y-19030000D01*
X18492500Y-19000000D02*
X18552500Y-19000000D01*
X17992041Y-2291941D02*
X17992041Y-2238059D01*
X17938159Y-2238059D01*
X17938159Y-2291941D01*
X17992041Y-2291941D01*
X17992041Y-2545941D02*
X17992041Y-2492059D01*
X17938159Y-2492059D01*
X17938159Y-2545941D01*
X17992041Y-2545941D01*
X17992041Y-2799941D02*
X17992041Y-2746059D01*
X17938159Y-2746059D01*
X17938159Y-2799941D01*
X17992041Y-2799941D01*
X17992041Y-3053941D02*
X17992041Y-3000059D01*
X17938159Y-3000059D01*
X17938159Y-3053941D01*
X17992041Y-3053941D01*
X17992041Y-4577941D02*
X17992041Y-4524059D01*
X17938159Y-4524059D01*
X17938159Y-4577941D01*
X17992041Y-4577941D01*
X17992041Y-4831941D02*
X17992041Y-4778059D01*
X17938159Y-4778059D01*
X17938159Y-4831941D01*
X17992041Y-4831941D01*
X17992041Y-5085941D02*
X17992041Y-5032059D01*
X17938159Y-5032059D01*
X17938159Y-5085941D01*
X17992041Y-5085941D01*
X17992041Y-5339941D02*
X17992041Y-5286059D01*
X17938159Y-5286059D01*
X17938159Y-5339941D01*
X17992041Y-5339941D01*
X18246041Y-3307941D02*
X18246041Y-3254059D01*
X18192159Y-3254059D01*
X18192159Y-3307941D01*
X18246041Y-3307941D01*
X18246041Y-3561941D02*
X18246041Y-3508059D01*
X18192159Y-3508059D01*
X18192159Y-3561941D01*
X18246041Y-3561941D01*
X18246041Y-3815941D02*
X18246041Y-3762059D01*
X18192159Y-3762059D01*
X18192159Y-3815941D01*
X18246041Y-3815941D01*
X18246041Y-4069941D02*
X18246041Y-4016059D01*
X18192159Y-4016059D01*
X18192159Y-4069941D01*
X18246041Y-4069941D01*
X18246041Y-4323941D02*
X18246041Y-4270059D01*
X18192159Y-4270059D01*
X18192159Y-4323941D01*
X18246041Y-4323941D01*
X11402041Y-2289941D02*
X11402041Y-2236059D01*
X11348159Y-2236059D01*
X11348159Y-2289941D01*
X11402041Y-2289941D01*
X11402041Y-2543941D02*
X11402041Y-2490059D01*
X11348159Y-2490059D01*
X11348159Y-2543941D01*
X11402041Y-2543941D01*
X11402041Y-2797941D02*
X11402041Y-2744059D01*
X11348159Y-2744059D01*
X11348159Y-2797941D01*
X11402041Y-2797941D01*
X11402041Y-3051941D02*
X11402041Y-2998059D01*
X11348159Y-2998059D01*
X11348159Y-3051941D01*
X11402041Y-3051941D01*
X11402041Y-4575941D02*
X11402041Y-4522059D01*
X11348159Y-4522059D01*
X11348159Y-4575941D01*
X11402041Y-4575941D01*
X11402041Y-4829941D02*
X11402041Y-4776059D01*
X11348159Y-4776059D01*
X11348159Y-4829941D01*
X11402041Y-4829941D01*
X11402041Y-5083941D02*
X11402041Y-5030059D01*
X11348159Y-5030059D01*
X11348159Y-5083941D01*
X11402041Y-5083941D01*
X11402041Y-5337941D02*
X11402041Y-5284059D01*
X11348159Y-5284059D01*
X11348159Y-5337941D01*
X11402041Y-5337941D01*
X11656041Y-3305941D02*
X11656041Y-3252059D01*
X11602159Y-3252059D01*
X11602159Y-3305941D01*
X11656041Y-3305941D01*
X11656041Y-3559941D02*
X11656041Y-3506059D01*
X11602159Y-3506059D01*
X11602159Y-3559941D01*
X11656041Y-3559941D01*
X11656041Y-3813941D02*
X11656041Y-3760059D01*
X11602159Y-3760059D01*
X11602159Y-3813941D01*
X11656041Y-3813941D01*
X11656041Y-4067941D02*
X11656041Y-4014059D01*
X11602159Y-4014059D01*
X11602159Y-4067941D01*
X11656041Y-4067941D01*
X11656041Y-4321941D02*
X11656041Y-4268059D01*
X11602159Y-4268059D01*
X11602159Y-4321941D01*
X11656041Y-4321941D01*
X8402041Y-15069941D02*
X8402041Y-15016059D01*
X8348159Y-15016059D01*
X8348159Y-15069941D01*
X8402041Y-15069941D01*
X8402041Y-15323941D02*
X8402041Y-15270059D01*
X8348159Y-15270059D01*
X8348159Y-15323941D01*
X8402041Y-15323941D01*
X8402041Y-15577941D02*
X8402041Y-15524059D01*
X8348159Y-15524059D01*
X8348159Y-15577941D01*
X8402041Y-15577941D01*
X8402041Y-15831941D02*
X8402041Y-15778059D01*
X8348159Y-15778059D01*
X8348159Y-15831941D01*
X8402041Y-15831941D01*
X8402041Y-17355941D02*
X8402041Y-17302059D01*
X8348159Y-17302059D01*
X8348159Y-17355941D01*
X8402041Y-17355941D01*
X8402041Y-17609941D02*
X8402041Y-17556059D01*
X8348159Y-17556059D01*
X8348159Y-17609941D01*
X8402041Y-17609941D01*
X8402041Y-17863941D02*
X8402041Y-17810059D01*
X8348159Y-17810059D01*
X8348159Y-17863941D01*
X8402041Y-17863941D01*
X8402041Y-18117941D02*
X8402041Y-18064059D01*
X8348159Y-18064059D01*
X8348159Y-18117941D01*
X8402041Y-18117941D01*
X8656041Y-16085941D02*
X8656041Y-16032059D01*
X8602159Y-16032059D01*
X8602159Y-16085941D01*
X8656041Y-16085941D01*
X8656041Y-16339941D02*
X8656041Y-16286059D01*
X8602159Y-16286059D01*
X8602159Y-16339941D01*
X8656041Y-16339941D01*
X8656041Y-16593941D02*
X8656041Y-16540059D01*
X8602159Y-16540059D01*
X8602159Y-16593941D01*
X8656041Y-16593941D01*
X8656041Y-16847941D02*
X8656041Y-16794059D01*
X8602159Y-16794059D01*
X8602159Y-16847941D01*
X8656041Y-16847941D01*
X8656041Y-17101941D02*
X8656041Y-17048059D01*
X8602159Y-17048059D01*
X8602159Y-17101941D01*
X8656041Y-17101941D01*
X14795500Y-17953400D02*
X14835500Y-17913400D01*
X14795500Y-17873400D01*
X14755500Y-17913400D01*
X14795500Y-17953400D01*
X15049500Y-17953400D02*
X15089500Y-17913400D01*
X15049500Y-17873400D01*
X15009500Y-17913400D01*
X15049500Y-17953400D01*
X16160800Y-17953400D02*
X16200800Y-17913400D01*
X16160800Y-17873400D01*
X16120800Y-17913400D01*
X16160800Y-17953400D01*
X16414800Y-17953400D02*
X16454800Y-17913400D01*
X16414800Y-17873400D01*
X16374800Y-17913400D01*
X16414800Y-17953400D01*
X13436600Y-17953400D02*
X13476600Y-17913400D01*
X13436600Y-17873400D01*
X13396600Y-17913400D01*
X13436600Y-17953400D01*
X13690600Y-17953400D02*
X13730600Y-17913400D01*
X13690600Y-17873400D01*
X13650600Y-17913400D01*
X13690600Y-17953400D01*
X14759800Y-18613600D02*
X14844800Y-18698600D01*
X14844800Y-18613600D02*
X14759800Y-18698600D01*
X14844800Y-18656100D02*
G75*
G03X14844800Y-18656100I-42500J0D01*
G01*
X15009800Y-18613600D02*
X15094800Y-18698600D01*
X15094800Y-18613600D02*
X15009800Y-18698600D01*
X15094800Y-18656100D02*
G75*
G03X15094800Y-18656100I-42500J0D01*
G01*
X16124600Y-18613800D02*
X16209600Y-18698800D01*
X16209600Y-18613800D02*
X16124600Y-18698800D01*
X16209600Y-18656300D02*
G75*
G03X16209600Y-18656300I-42500J0D01*
G01*
X16374600Y-18613800D02*
X16459600Y-18698800D01*
X16459600Y-18613800D02*
X16374600Y-18698800D01*
X16459600Y-18656300D02*
G75*
G03X16459600Y-18656300I-42500J0D01*
G01*
X13406800Y-18613800D02*
X13491800Y-18698800D01*
X13491800Y-18613800D02*
X13406800Y-18698800D01*
X13491800Y-18656300D02*
G75*
G03X13491800Y-18656300I-42500J0D01*
G01*
X13656800Y-18613800D02*
X13741800Y-18698800D01*
X13741800Y-18613800D02*
X13656800Y-18698800D01*
X13741800Y-18656300D02*
G75*
G03X13741800Y-18656300I-42500J0D01*
G01*
X18696600Y-6002900D02*
X18806600Y-6112900D01*
X18806600Y-6002900D02*
X18696600Y-6112900D01*
X18751600Y-6002900D02*
X18751600Y-6112900D01*
X18696600Y-6057900D02*
X18806600Y-6057900D01*
X18696600Y-7018900D02*
X18806600Y-7128900D01*
X18806600Y-7018900D02*
X18696600Y-7128900D01*
X18751600Y-7018900D02*
X18751600Y-7128900D01*
X18696600Y-7073900D02*
X18806600Y-7073900D01*
X10530400Y-13883200D02*
X10640400Y-13993200D01*
X10640400Y-13883200D02*
X10530400Y-13993200D01*
X10585400Y-13883200D02*
X10585400Y-13993200D01*
X10530400Y-13938200D02*
X10640400Y-13938200D01*
X11546400Y-13883200D02*
X11656400Y-13993200D01*
X11656400Y-13883200D02*
X11546400Y-13993200D01*
X11601400Y-13883200D02*
X11601400Y-13993200D01*
X11546400Y-13938200D02*
X11656400Y-13938200D01*
X12238600Y-1881750D02*
X12348600Y-1991750D01*
X12348600Y-1881750D02*
X12238600Y-1991750D01*
X12293600Y-1881750D02*
X12293600Y-1991750D01*
X12238600Y-1936750D02*
X12348600Y-1936750D01*
X13254600Y-1881750D02*
X13364600Y-1991750D01*
X13364600Y-1881750D02*
X13254600Y-1991750D01*
X13309600Y-1881750D02*
X13309600Y-1991750D01*
X13254600Y-1936750D02*
X13364600Y-1936750D01*
X5680300Y-5896300D02*
X5805700Y-6021700D01*
X5805700Y-5896300D02*
X5680300Y-6021700D01*
X5787336Y-6003336D02*
X5787336Y-5914664D01*
X5698664Y-5914664D01*
X5698664Y-6003336D01*
X5787336Y-6003336D01*
X6355300Y-5896300D02*
X6480700Y-6021700D01*
X6480700Y-5896300D02*
X6355300Y-6021700D01*
X6462336Y-6003336D02*
X6462336Y-5914664D01*
X6373664Y-5914664D01*
X6373664Y-6003336D01*
X6462336Y-6003336D01*
X7674300Y-7870300D02*
X7799700Y-7995700D01*
X7799700Y-7870300D02*
X7674300Y-7995700D01*
X7781336Y-7977336D02*
X7781336Y-7888664D01*
X7692664Y-7888664D01*
X7692664Y-7977336D01*
X7781336Y-7977336D01*
X7674300Y-8545300D02*
X7799700Y-8670700D01*
X7799700Y-8545300D02*
X7674300Y-8670700D01*
X7781336Y-8652336D02*
X7781336Y-8563664D01*
X7692664Y-8563664D01*
X7692664Y-8652336D01*
X7781336Y-8652336D01*
X3618000Y-4253000D02*
X3748000Y-4383000D01*
X3748000Y-4253000D02*
X3618000Y-4383000D01*
X3683000Y-4383000D02*
X3748000Y-4318000D01*
X3683000Y-4253000D01*
X3618000Y-4318000D01*
X3683000Y-4383000D01*
X4126000Y-3491000D02*
X4256000Y-3621000D01*
X4256000Y-3491000D02*
X4126000Y-3621000D01*
X4191000Y-3621000D02*
X4256000Y-3556000D01*
X4191000Y-3491000D01*
X4126000Y-3556000D01*
X4191000Y-3621000D01*
X4634000Y-4253000D02*
X4764000Y-4383000D01*
X4764000Y-4253000D02*
X4634000Y-4383000D01*
X4699000Y-4383000D02*
X4764000Y-4318000D01*
X4699000Y-4253000D01*
X4634000Y-4318000D01*
X4699000Y-4383000D01*
X10718100Y-14479200D02*
X10718100Y-14629200D01*
X10643100Y-14554200D02*
X10793100Y-14554200D01*
X10793100Y-14554200D02*
G75*
G03X10793100Y-14554200I-75000J0D01*
G01*
X10718100Y-15979200D02*
X10718100Y-16129200D01*
X10643100Y-16054200D02*
X10793100Y-16054200D01*
X10793100Y-16054200D02*
G75*
G03X10793100Y-16054200I-75000J0D01*
G01*
X10718100Y-16479200D02*
X10718100Y-16629200D01*
X10643100Y-16554200D02*
X10793100Y-16554200D01*
X10793100Y-16554200D02*
G75*
G03X10793100Y-16554200I-75000J0D01*
G01*
X10718100Y-16979200D02*
X10718100Y-17129200D01*
X10643100Y-17054200D02*
X10793100Y-17054200D01*
X10793100Y-17054200D02*
G75*
G03X10793100Y-17054200I-75000J0D01*
G01*
X11468100Y-14479200D02*
X11468100Y-14629200D01*
X11393100Y-14554200D02*
X11543100Y-14554200D01*
X11543100Y-14554200D02*
G75*
G03X11543100Y-14554200I-75000J0D01*
G01*
X11468100Y-15979200D02*
X11468100Y-16129200D01*
X11393100Y-16054200D02*
X11543100Y-16054200D01*
X11543100Y-16054200D02*
G75*
G03X11543100Y-16054200I-75000J0D01*
G01*
X11468100Y-16479200D02*
X11468100Y-16629200D01*
X11393100Y-16554200D02*
X11543100Y-16554200D01*
X11543100Y-16554200D02*
G75*
G03X11543100Y-16554200I-75000J0D01*
G01*
X11468100Y-16979200D02*
X11468100Y-17129200D01*
X11393100Y-17054200D02*
X11543100Y-17054200D01*
X11543100Y-17054200D02*
G75*
G03X11543100Y-17054200I-75000J0D01*
G01*
X12432600Y-2592000D02*
X12432600Y-2742000D01*
X12357600Y-2667000D02*
X12507600Y-2667000D01*
X12507600Y-2667000D02*
G75*
G03X12507600Y-2667000I-75000J0D01*
G01*
X12432600Y-4092000D02*
X12432600Y-4242000D01*
X12357600Y-4167000D02*
X12507600Y-4167000D01*
X12507600Y-4167000D02*
G75*
G03X12507600Y-4167000I-75000J0D01*
G01*
X12432600Y-4592000D02*
X12432600Y-4742000D01*
X12357600Y-4667000D02*
X12507600Y-4667000D01*
X12507600Y-4667000D02*
G75*
G03X12507600Y-4667000I-75000J0D01*
G01*
X12432600Y-5092000D02*
X12432600Y-5242000D01*
X12357600Y-5167000D02*
X12507600Y-5167000D01*
X12507600Y-5167000D02*
G75*
G03X12507600Y-5167000I-75000J0D01*
G01*
X13182600Y-2592000D02*
X13182600Y-2742000D01*
X13107600Y-2667000D02*
X13257600Y-2667000D01*
X13257600Y-2667000D02*
G75*
G03X13257600Y-2667000I-75000J0D01*
G01*
X13182600Y-4092000D02*
X13182600Y-4242000D01*
X13107600Y-4167000D02*
X13257600Y-4167000D01*
X13257600Y-4167000D02*
G75*
G03X13257600Y-4167000I-75000J0D01*
G01*
X13182600Y-4592000D02*
X13182600Y-4742000D01*
X13107600Y-4667000D02*
X13257600Y-4667000D01*
X13257600Y-4667000D02*
G75*
G03X13257600Y-4667000I-75000J0D01*
G01*
X13182600Y-5092000D02*
X13182600Y-5242000D01*
X13107600Y-5167000D02*
X13257600Y-5167000D01*
X13257600Y-5167000D02*
G75*
G03X13257600Y-5167000I-75000J0D01*
G01*
X17233200Y-7011600D02*
X17233200Y-7161600D01*
X17158200Y-7086600D02*
X17308200Y-7086600D01*
X17308200Y-7086600D02*
G75*
G03X17308200Y-7086600I-75000J0D01*
G01*
X17233200Y-8511600D02*
X17233200Y-8661600D01*
X17158200Y-8586600D02*
X17308200Y-8586600D01*
X17308200Y-8586600D02*
G75*
G03X17308200Y-8586600I-75000J0D01*
G01*
X17233200Y-9011600D02*
X17233200Y-9161600D01*
X17158200Y-9086600D02*
X17308200Y-9086600D01*
X17308200Y-9086600D02*
G75*
G03X17308200Y-9086600I-75000J0D01*
G01*
X17233200Y-9511600D02*
X17233200Y-9661600D01*
X17158200Y-9586600D02*
X17308200Y-9586600D01*
X17308200Y-9586600D02*
G75*
G03X17308200Y-9586600I-75000J0D01*
G01*
X17983200Y-7011600D02*
X17983200Y-7161600D01*
X17908200Y-7086600D02*
X18058200Y-7086600D01*
X18058200Y-7086600D02*
G75*
G03X18058200Y-7086600I-75000J0D01*
G01*
X17983200Y-8511600D02*
X17983200Y-8661600D01*
X17908200Y-8586600D02*
X18058200Y-8586600D01*
X18058200Y-8586600D02*
G75*
G03X18058200Y-8586600I-75000J0D01*
G01*
X17983200Y-9011600D02*
X17983200Y-9161600D01*
X17908200Y-9086600D02*
X18058200Y-9086600D01*
X18058200Y-9086600D02*
G75*
G03X18058200Y-9086600I-75000J0D01*
G01*
X17983200Y-9511600D02*
X17983200Y-9661600D01*
X17908200Y-9586600D02*
X18058200Y-9586600D01*
X18058200Y-9586600D02*
G75*
G03X18058200Y-9586600I-75000J0D01*
G01*
X9740319Y-14153569D02*
X9740319Y-14040431D01*
X9627181Y-14040431D01*
X9627181Y-14153569D01*
X9740319Y-14153569D01*
X9763750Y-14097000D02*
G75*
G03X9763750Y-14097000I-80000J0D01*
G01*
X9740319Y-15677569D02*
X9740319Y-15564431D01*
X9627181Y-15564431D01*
X9627181Y-15677569D01*
X9740319Y-15677569D01*
X9763750Y-15621000D02*
G75*
G03X9763750Y-15621000I-80000J0D01*
G01*
X16712569Y-14616369D02*
X16712569Y-14503231D01*
X16599431Y-14503231D01*
X16599431Y-14616369D01*
X16712569Y-14616369D01*
X16736000Y-14559800D02*
G75*
G03X16736000Y-14559800I-80000J0D01*
G01*
X16712569Y-14966369D02*
X16712569Y-14853231D01*
X16599431Y-14853231D01*
X16599431Y-14966369D01*
X16712569Y-14966369D01*
X16736000Y-14909800D02*
G75*
G03X16736000Y-14909800I-80000J0D01*
G01*
X16725369Y-11993769D02*
X16725369Y-11880631D01*
X16612231Y-11880631D01*
X16612231Y-11993769D01*
X16725369Y-11993769D01*
X16748800Y-11937200D02*
G75*
G03X16748800Y-11937200I-80000J0D01*
G01*
X16725369Y-12343769D02*
X16725369Y-12230631D01*
X16612231Y-12230631D01*
X16612231Y-12343769D01*
X16725369Y-12343769D01*
X16748800Y-12287200D02*
G75*
G03X16748800Y-12287200I-80000J0D01*
G01*
X10648369Y-6381169D02*
X10648369Y-6268031D01*
X10535231Y-6268031D01*
X10535231Y-6381169D01*
X10648369Y-6381169D01*
X10671800Y-6324600D02*
G75*
G03X10671800Y-6324600I-80000J0D01*
G01*
X12172369Y-6381169D02*
X12172369Y-6268031D01*
X12059231Y-6268031D01*
X12059231Y-6381169D01*
X12172369Y-6381169D01*
X12195800Y-6324600D02*
G75*
G03X12195800Y-6324600I-80000J0D01*
G01*
X12794669Y-5854119D02*
X12794669Y-5740981D01*
X12681531Y-5740981D01*
X12681531Y-5854119D01*
X12794669Y-5854119D01*
X12818100Y-5797550D02*
G75*
G03X12818100Y-5797550I-80000J0D01*
G01*
X14318669Y-5854119D02*
X14318669Y-5740981D01*
X14205531Y-5740981D01*
X14205531Y-5854119D01*
X14318669Y-5854119D01*
X14342100Y-5797550D02*
G75*
G03X14342100Y-5797550I-80000J0D01*
G01*
X16712569Y-13270169D02*
X16712569Y-13157031D01*
X16599431Y-13157031D01*
X16599431Y-13270169D01*
X16712569Y-13270169D01*
X16736000Y-13213600D02*
G75*
G03X16736000Y-13213600I-80000J0D01*
G01*
X16712569Y-13620169D02*
X16712569Y-13507031D01*
X16599431Y-13507031D01*
X16599431Y-13620169D01*
X16712569Y-13620169D01*
X16736000Y-13563600D02*
G75*
G03X16736000Y-13563600I-80000J0D01*
G01*
X2023569Y-4088819D02*
X2023569Y-3975681D01*
X1910431Y-3975681D01*
X1910431Y-4088819D01*
X2023569Y-4088819D01*
X2047000Y-4032250D02*
G75*
G03X2047000Y-4032250I-80000J0D01*
G01*
X2373569Y-4088819D02*
X2373569Y-3975681D01*
X2260431Y-3975681D01*
X2260431Y-4088819D01*
X2373569Y-4088819D01*
X2397000Y-4032250D02*
G75*
G03X2397000Y-4032250I-80000J0D01*
G01*
X2723569Y-4088819D02*
X2723569Y-3975681D01*
X2610431Y-3975681D01*
X2610431Y-4088819D01*
X2723569Y-4088819D01*
X2747000Y-4032250D02*
G75*
G03X2747000Y-4032250I-80000J0D01*
G01*
X6767769Y-4076119D02*
X6767769Y-3962981D01*
X6654631Y-3962981D01*
X6654631Y-4076119D01*
X6767769Y-4076119D01*
X6791200Y-4019550D02*
G75*
G03X6791200Y-4019550I-80000J0D01*
G01*
X7117769Y-4076119D02*
X7117769Y-3962981D01*
X7004631Y-3962981D01*
X7004631Y-4076119D01*
X7117769Y-4076119D01*
X7141200Y-4019550D02*
G75*
G03X7141200Y-4019550I-80000J0D01*
G01*
X9727619Y-16274469D02*
X9727619Y-16161331D01*
X9614481Y-16161331D01*
X9614481Y-16274469D01*
X9727619Y-16274469D01*
X9751050Y-16217900D02*
G75*
G03X9751050Y-16217900I-80000J0D01*
G01*
X9727619Y-17798469D02*
X9727619Y-17685331D01*
X9614481Y-17685331D01*
X9614481Y-17798469D01*
X9727619Y-17798469D01*
X9751050Y-17741900D02*
G75*
G03X9751050Y-17741900I-80000J0D01*
G01*
X16572969Y-9651419D02*
X16572969Y-9538281D01*
X16459831Y-9538281D01*
X16459831Y-9651419D01*
X16572969Y-9651419D01*
X16596400Y-9594850D02*
G75*
G03X16596400Y-9594850I-80000J0D01*
G01*
X16572969Y-11175419D02*
X16572969Y-11062281D01*
X16459831Y-11062281D01*
X16459831Y-11175419D01*
X16572969Y-11175419D01*
X16596400Y-11118850D02*
G75*
G03X16596400Y-11118850I-80000J0D01*
G01*
X16528469Y-7124119D02*
X16528469Y-7010981D01*
X16415331Y-7010981D01*
X16415331Y-7124119D01*
X16528469Y-7124119D01*
X16551900Y-7067550D02*
G75*
G03X16551900Y-7067550I-80000J0D01*
G01*
X16528469Y-8648119D02*
X16528469Y-8534981D01*
X16415331Y-8534981D01*
X16415331Y-8648119D01*
X16528469Y-8648119D01*
X16551900Y-8591550D02*
G75*
G03X16551900Y-8591550I-80000J0D01*
G01*
X18220000Y-2501000D02*
X18329000Y-2392000D01*
X18220000Y-2283000D01*
X18111000Y-2392000D01*
X18220000Y-2501000D01*
X18329000Y-2392000D02*
G75*
G03X18329000Y-2392000I-109000J0D01*
G01*
X18220000Y-3009000D02*
X18329000Y-2900000D01*
X18220000Y-2791000D01*
X18111000Y-2900000D01*
X18220000Y-3009000D01*
X18329000Y-2900000D02*
G75*
G03X18329000Y-2900000I-109000J0D01*
G01*
X18233100Y-4787000D02*
X18342100Y-4678000D01*
X18233100Y-4569000D01*
X18124100Y-4678000D01*
X18233100Y-4787000D01*
X18342100Y-4678000D02*
G75*
G03X18342100Y-4678000I-109000J0D01*
G01*
X18233100Y-5295000D02*
X18342100Y-5186000D01*
X18233100Y-5077000D01*
X18124100Y-5186000D01*
X18233100Y-5295000D01*
X18342100Y-5186000D02*
G75*
G03X18342100Y-5186000I-109000J0D01*
G01*
X11630000Y-2499000D02*
X11739000Y-2390000D01*
X11630000Y-2281000D01*
X11521000Y-2390000D01*
X11630000Y-2499000D01*
X11739000Y-2390000D02*
G75*
G03X11739000Y-2390000I-109000J0D01*
G01*
X11630000Y-3007000D02*
X11739000Y-2898000D01*
X11630000Y-2789000D01*
X11521000Y-2898000D01*
X11630000Y-3007000D01*
X11739000Y-2898000D02*
G75*
G03X11739000Y-2898000I-109000J0D01*
G01*
X11643100Y-4785000D02*
X11752100Y-4676000D01*
X11643100Y-4567000D01*
X11534100Y-4676000D01*
X11643100Y-4785000D01*
X11752100Y-4676000D02*
G75*
G03X11752100Y-4676000I-109000J0D01*
G01*
X11643100Y-5293000D02*
X11752100Y-5184000D01*
X11643100Y-5075000D01*
X11534100Y-5184000D01*
X11643100Y-5293000D01*
X11752100Y-5184000D02*
G75*
G03X11752100Y-5184000I-109000J0D01*
G01*
X8630000Y-15279000D02*
X8739000Y-15170000D01*
X8630000Y-15061000D01*
X8521000Y-15170000D01*
X8630000Y-15279000D01*
X8739000Y-15170000D02*
G75*
G03X8739000Y-15170000I-109000J0D01*
G01*
X8630000Y-15787000D02*
X8739000Y-15678000D01*
X8630000Y-15569000D01*
X8521000Y-15678000D01*
X8630000Y-15787000D01*
X8739000Y-15678000D02*
G75*
G03X8739000Y-15678000I-109000J0D01*
G01*
X8643100Y-17565000D02*
X8752100Y-17456000D01*
X8643100Y-17347000D01*
X8534100Y-17456000D01*
X8643100Y-17565000D01*
X8752100Y-17456000D02*
G75*
G03X8752100Y-17456000I-109000J0D01*
G01*
X8643100Y-18073000D02*
X8752100Y-17964000D01*
X8643100Y-17855000D01*
X8534100Y-17964000D01*
X8643100Y-18073000D01*
X8752100Y-17964000D02*
G75*
G03X8752100Y-17964000I-109000J0D01*
G01*
X2293000Y-13446300D02*
X2293000Y-13671700D01*
X2180300Y-13559000D02*
X2405700Y-13559000D01*
X2372692Y-13638692D02*
X2372692Y-13479308D01*
X2213308Y-13479308D01*
X2213308Y-13638692D01*
X2372692Y-13638692D01*
X2843000Y-13446300D02*
X2843000Y-13671700D01*
X2730300Y-13559000D02*
X2955700Y-13559000D01*
X2922692Y-13638692D02*
X2922692Y-13479308D01*
X2763308Y-13479308D01*
X2763308Y-13638692D01*
X2922692Y-13638692D01*
X15337000Y-11395300D02*
X15337000Y-11620700D01*
X15224300Y-11508000D02*
X15449700Y-11508000D01*
X15416692Y-11587692D02*
X15416692Y-11428308D01*
X15257308Y-11428308D01*
X15257308Y-11587692D01*
X15416692Y-11587692D01*
X15337000Y-11945300D02*
X15337000Y-12170700D01*
X15224300Y-12058000D02*
X15449700Y-12058000D01*
X15416692Y-12137692D02*
X15416692Y-11978308D01*
X15257308Y-11978308D01*
X15257308Y-12137692D01*
X15416692Y-12137692D01*
X4191000Y-2156000D02*
X4191000Y-2416000D01*
X4061000Y-2286000D02*
X4321000Y-2286000D01*
X4191000Y-2416000D02*
X4321000Y-2286000D01*
X4191000Y-2156000D01*
X4061000Y-2286000D01*
X4191000Y-2416000D01*
X10342000Y-7235000D02*
X10517000Y-7060000D01*
X10342000Y-6885000D01*
X10167000Y-7060000D01*
X10342000Y-7235000D01*
X10465745Y-7183745D02*
X10465745Y-6936255D01*
X10218255Y-6936255D01*
X10218255Y-7183745D01*
X10465745Y-7183745D01*
X10342000Y-13235000D02*
X10517000Y-13060000D01*
X10342000Y-12885000D01*
X10167000Y-13060000D01*
X10342000Y-13235000D01*
X10465745Y-13183745D02*
X10465745Y-12936255D01*
X10218255Y-12936255D01*
X10218255Y-13183745D01*
X10465745Y-13183745D01*
X2485000Y-18785000D02*
X2915000Y-19215000D01*
X2915000Y-18785000D02*
X2485000Y-19215000D01*
X2700000Y-18785000D02*
X2700000Y-19215000D01*
X2485000Y-19000000D02*
X2915000Y-19000000D01*
X2915000Y-19000000D02*
G75*
G03X2915000Y-19000000I-215000J0D01*
G01*
X2485000Y-15885000D02*
X2915000Y-16315000D01*
X2915000Y-15885000D02*
X2485000Y-16315000D01*
X2700000Y-15885000D02*
X2700000Y-16315000D01*
X2485000Y-16100000D02*
X2915000Y-16100000D01*
X2915000Y-16100000D02*
G75*
G03X2915000Y-16100000I-215000J0D01*
G01*
X17985000Y-15885000D02*
X18415000Y-16315000D01*
X18415000Y-15885000D02*
X17985000Y-16315000D01*
X18200000Y-15885000D02*
X18200000Y-16315000D01*
X17985000Y-16100000D02*
X18415000Y-16100000D01*
X18415000Y-16100000D02*
G75*
G03X18415000Y-16100000I-215000J0D01*
G01*
X17985000Y-18785000D02*
X18415000Y-19215000D01*
X18415000Y-18785000D02*
X17985000Y-19215000D01*
X18200000Y-18785000D02*
X18200000Y-19215000D01*
X17985000Y-19000000D02*
X18415000Y-19000000D01*
X18415000Y-19000000D02*
G75*
G03X18415000Y-19000000I-215000J0D01*
G01*
D12*
X1675928Y-19973214D02*
X1675928Y-19673214D01*
X1747357Y-19673214D01*
X1790214Y-19687500D01*
X1818786Y-19716072D01*
X1833071Y-19744643D01*
X1847357Y-19801786D01*
X1847357Y-19844643D01*
X1833071Y-19901786D01*
X1818786Y-19930357D01*
X1790214Y-19958929D01*
X1747357Y-19973214D01*
X1675928Y-19973214D01*
X1975928Y-19973214D02*
X1975928Y-19773214D01*
X1975928Y-19830357D02*
X1990214Y-19801786D01*
X2004500Y-19787500D01*
X2033071Y-19773214D01*
X2061643Y-19773214D01*
X2161643Y-19973214D02*
X2161643Y-19773214D01*
X2161643Y-19673214D02*
X2147357Y-19687500D01*
X2161643Y-19701786D01*
X2175928Y-19687500D01*
X2161643Y-19673214D01*
X2161643Y-19701786D01*
X2347357Y-19973214D02*
X2318786Y-19958929D01*
X2304500Y-19930357D01*
X2304500Y-19673214D01*
X2504500Y-19973214D02*
X2475928Y-19958929D01*
X2461643Y-19930357D01*
X2461643Y-19673214D01*
X2847357Y-19973214D02*
X2847357Y-19673214D01*
X2947357Y-19887500D01*
X3047357Y-19673214D01*
X3047357Y-19973214D01*
X3318786Y-19973214D02*
X3318786Y-19816072D01*
X3304500Y-19787500D01*
X3275928Y-19773214D01*
X3218786Y-19773214D01*
X3190214Y-19787500D01*
X3318786Y-19958929D02*
X3290214Y-19973214D01*
X3218786Y-19973214D01*
X3190214Y-19958929D01*
X3175928Y-19930357D01*
X3175928Y-19901786D01*
X3190214Y-19873214D01*
X3218786Y-19858929D01*
X3290214Y-19858929D01*
X3318786Y-19844643D01*
X3461643Y-19773214D02*
X3461643Y-20073214D01*
X3461643Y-19787500D02*
X3490214Y-19773214D01*
X3547357Y-19773214D01*
X3575928Y-19787500D01*
X3590214Y-19801786D01*
X3604500Y-19830357D01*
X3604500Y-19916072D01*
X3590214Y-19944643D01*
X3575928Y-19958929D01*
X3547357Y-19973214D01*
X3490214Y-19973214D01*
X3461643Y-19958929D01*
X3733071Y-19944643D02*
X3747357Y-19958929D01*
X3733071Y-19973214D01*
X3718786Y-19958929D01*
X3733071Y-19944643D01*
X3733071Y-19973214D01*
X3733071Y-19787500D02*
X3747357Y-19801786D01*
X3733071Y-19816072D01*
X3718786Y-19801786D01*
X3733071Y-19787500D01*
X3733071Y-19816072D01*
X1349500Y-20447500D02*
X1389500Y-20487500D01*
X1389500Y-20447500D02*
X1349500Y-20487500D01*
X1733071Y-20303214D02*
X1761643Y-20303214D01*
X1790214Y-20317500D01*
X1804500Y-20331786D01*
X1818786Y-20360357D01*
X1833071Y-20417500D01*
X1833071Y-20488929D01*
X1818786Y-20546072D01*
X1804500Y-20574643D01*
X1790214Y-20588929D01*
X1761643Y-20603214D01*
X1733071Y-20603214D01*
X1704500Y-20588929D01*
X1690214Y-20574643D01*
X1675928Y-20546072D01*
X1661643Y-20488929D01*
X1661643Y-20417500D01*
X1675928Y-20360357D01*
X1690214Y-20331786D01*
X1704500Y-20317500D01*
X1733071Y-20303214D01*
X1961643Y-20574643D02*
X1975928Y-20588929D01*
X1961643Y-20603214D01*
X1947357Y-20588929D01*
X1961643Y-20574643D01*
X1961643Y-20603214D01*
X2233071Y-20403214D02*
X2233071Y-20603214D01*
X2161643Y-20288929D02*
X2090214Y-20503214D01*
X2275928Y-20503214D01*
X2447357Y-20303214D02*
X2475928Y-20303214D01*
X2504500Y-20317500D01*
X2518786Y-20331786D01*
X2533071Y-20360357D01*
X2547357Y-20417500D01*
X2547357Y-20488929D01*
X2533071Y-20546072D01*
X2518786Y-20574643D01*
X2504500Y-20588929D01*
X2475928Y-20603214D01*
X2447357Y-20603214D01*
X2418786Y-20588929D01*
X2404500Y-20574643D01*
X2390214Y-20546072D01*
X2375928Y-20488929D01*
X2375928Y-20417500D01*
X2390214Y-20360357D01*
X2404500Y-20331786D01*
X2418786Y-20317500D01*
X2447357Y-20303214D01*
X2675928Y-20603214D02*
X2675928Y-20403214D01*
X2675928Y-20431786D02*
X2690214Y-20417500D01*
X2718786Y-20403214D01*
X2761643Y-20403214D01*
X2790214Y-20417500D01*
X2804500Y-20446072D01*
X2804500Y-20603214D01*
X2804500Y-20446072D02*
X2818786Y-20417500D01*
X2847357Y-20403214D01*
X2890214Y-20403214D01*
X2918786Y-20417500D01*
X2933071Y-20446072D01*
X2933071Y-20603214D01*
X3075928Y-20603214D02*
X3075928Y-20403214D01*
X3075928Y-20431786D02*
X3090214Y-20417500D01*
X3118786Y-20403214D01*
X3161643Y-20403214D01*
X3190214Y-20417500D01*
X3204500Y-20446072D01*
X3204500Y-20603214D01*
X3204500Y-20446072D02*
X3218786Y-20417500D01*
X3247357Y-20403214D01*
X3290214Y-20403214D01*
X3318786Y-20417500D01*
X3333071Y-20446072D01*
X3333071Y-20603214D01*
X3918786Y-20288929D02*
X3661643Y-20674643D01*
X4304500Y-20303214D02*
X4333071Y-20303214D01*
X4361643Y-20317500D01*
X4375928Y-20331786D01*
X4390214Y-20360357D01*
X4404500Y-20417500D01*
X4404500Y-20488929D01*
X4390214Y-20546072D01*
X4375928Y-20574643D01*
X4361643Y-20588929D01*
X4333071Y-20603214D01*
X4304500Y-20603214D01*
X4275928Y-20588929D01*
X4261643Y-20574643D01*
X4247357Y-20546072D01*
X4233071Y-20488929D01*
X4233071Y-20417500D01*
X4247357Y-20360357D01*
X4261643Y-20331786D01*
X4275928Y-20317500D01*
X4304500Y-20303214D01*
X4533071Y-20574643D02*
X4547357Y-20588929D01*
X4533071Y-20603214D01*
X4518786Y-20588929D01*
X4533071Y-20574643D01*
X4533071Y-20603214D01*
X4733071Y-20303214D02*
X4761643Y-20303214D01*
X4790214Y-20317500D01*
X4804500Y-20331786D01*
X4818786Y-20360357D01*
X4833071Y-20417500D01*
X4833071Y-20488929D01*
X4818786Y-20546072D01*
X4804500Y-20574643D01*
X4790214Y-20588929D01*
X4761643Y-20603214D01*
X4733071Y-20603214D01*
X4704500Y-20588929D01*
X4690214Y-20574643D01*
X4675928Y-20546072D01*
X4661643Y-20488929D01*
X4661643Y-20417500D01*
X4675928Y-20360357D01*
X4690214Y-20331786D01*
X4704500Y-20317500D01*
X4733071Y-20303214D01*
X5118786Y-20603214D02*
X4947357Y-20603214D01*
X5033071Y-20603214D02*
X5033071Y-20303214D01*
X5004500Y-20346072D01*
X4975928Y-20374643D01*
X4947357Y-20388929D01*
X5375928Y-20303214D02*
X5318786Y-20303214D01*
X5290214Y-20317500D01*
X5275928Y-20331786D01*
X5247357Y-20374643D01*
X5233071Y-20431786D01*
X5233071Y-20546072D01*
X5247357Y-20574643D01*
X5261643Y-20588929D01*
X5290214Y-20603214D01*
X5347357Y-20603214D01*
X5375928Y-20588929D01*
X5390214Y-20574643D01*
X5404500Y-20546072D01*
X5404500Y-20474643D01*
X5390214Y-20446072D01*
X5375928Y-20431786D01*
X5347357Y-20417500D01*
X5290214Y-20417500D01*
X5261643Y-20431786D01*
X5247357Y-20446072D01*
X5233071Y-20474643D01*
X5518786Y-20303214D02*
X5518786Y-20360357D01*
X5633071Y-20303214D02*
X5633071Y-20360357D01*
X6075928Y-20717500D02*
X6061643Y-20703214D01*
X6033071Y-20660357D01*
X6018786Y-20631786D01*
X6004500Y-20588929D01*
X5990214Y-20517500D01*
X5990214Y-20460357D01*
X6004500Y-20388929D01*
X6018786Y-20346072D01*
X6033071Y-20317500D01*
X6061643Y-20274643D01*
X6075928Y-20260357D01*
X6347357Y-20603214D02*
X6175928Y-20603214D01*
X6261643Y-20603214D02*
X6261643Y-20303214D01*
X6233071Y-20346072D01*
X6204500Y-20374643D01*
X6175928Y-20388929D01*
X6704500Y-20603214D02*
X6704500Y-20303214D01*
X6833071Y-20603214D02*
X6833071Y-20446072D01*
X6818786Y-20417500D01*
X6790214Y-20403214D01*
X6747357Y-20403214D01*
X6718786Y-20417500D01*
X6704500Y-20431786D01*
X7018786Y-20603214D02*
X6990214Y-20588929D01*
X6975928Y-20574643D01*
X6961643Y-20546072D01*
X6961643Y-20460357D01*
X6975928Y-20431786D01*
X6990214Y-20417500D01*
X7018786Y-20403214D01*
X7061643Y-20403214D01*
X7090214Y-20417500D01*
X7104500Y-20431786D01*
X7118786Y-20460357D01*
X7118786Y-20546072D01*
X7104500Y-20574643D01*
X7090214Y-20588929D01*
X7061643Y-20603214D01*
X7018786Y-20603214D01*
X7290214Y-20603214D02*
X7261643Y-20588929D01*
X7247357Y-20560357D01*
X7247357Y-20303214D01*
X7518786Y-20588929D02*
X7490214Y-20603214D01*
X7433071Y-20603214D01*
X7404500Y-20588929D01*
X7390214Y-20560357D01*
X7390214Y-20446072D01*
X7404500Y-20417500D01*
X7433071Y-20403214D01*
X7490214Y-20403214D01*
X7518786Y-20417500D01*
X7533071Y-20446072D01*
X7533071Y-20474643D01*
X7390214Y-20503214D01*
X7633071Y-20717500D02*
X7647357Y-20703214D01*
X7675928Y-20660357D01*
X7690214Y-20631786D01*
X7704500Y-20588929D01*
X7718786Y-20517500D01*
X7718786Y-20460357D01*
X7704500Y-20388929D01*
X7690214Y-20346072D01*
X7675928Y-20317500D01*
X7647357Y-20274643D01*
X7633071Y-20260357D01*
X1389500Y-20863500D02*
G75*
G03X1389500Y-20863500I-25000J0D01*
G01*
X1733071Y-20699214D02*
X1761643Y-20699214D01*
X1790214Y-20713500D01*
X1804500Y-20727786D01*
X1818786Y-20756357D01*
X1833071Y-20813500D01*
X1833071Y-20884929D01*
X1818786Y-20942072D01*
X1804500Y-20970643D01*
X1790214Y-20984929D01*
X1761643Y-20999214D01*
X1733071Y-20999214D01*
X1704500Y-20984929D01*
X1690214Y-20970643D01*
X1675928Y-20942072D01*
X1661643Y-20884929D01*
X1661643Y-20813500D01*
X1675928Y-20756357D01*
X1690214Y-20727786D01*
X1704500Y-20713500D01*
X1733071Y-20699214D01*
X1961643Y-20970643D02*
X1975928Y-20984929D01*
X1961643Y-20999214D01*
X1947357Y-20984929D01*
X1961643Y-20970643D01*
X1961643Y-20999214D01*
X2247357Y-20699214D02*
X2104500Y-20699214D01*
X2090214Y-20842072D01*
X2104500Y-20827786D01*
X2133071Y-20813500D01*
X2204500Y-20813500D01*
X2233071Y-20827786D01*
X2247357Y-20842072D01*
X2261643Y-20870643D01*
X2261643Y-20942072D01*
X2247357Y-20970643D01*
X2233071Y-20984929D01*
X2204500Y-20999214D01*
X2133071Y-20999214D01*
X2104500Y-20984929D01*
X2090214Y-20970643D01*
X2447357Y-20699214D02*
X2475928Y-20699214D01*
X2504500Y-20713500D01*
X2518786Y-20727786D01*
X2533071Y-20756357D01*
X2547357Y-20813500D01*
X2547357Y-20884929D01*
X2533071Y-20942072D01*
X2518786Y-20970643D01*
X2504500Y-20984929D01*
X2475928Y-20999214D01*
X2447357Y-20999214D01*
X2418786Y-20984929D01*
X2404500Y-20970643D01*
X2390214Y-20942072D01*
X2375928Y-20884929D01*
X2375928Y-20813500D01*
X2390214Y-20756357D01*
X2404500Y-20727786D01*
X2418786Y-20713500D01*
X2447357Y-20699214D01*
X2675928Y-20999214D02*
X2675928Y-20799214D01*
X2675928Y-20827786D02*
X2690214Y-20813500D01*
X2718786Y-20799214D01*
X2761643Y-20799214D01*
X2790214Y-20813500D01*
X2804500Y-20842072D01*
X2804500Y-20999214D01*
X2804500Y-20842072D02*
X2818786Y-20813500D01*
X2847357Y-20799214D01*
X2890214Y-20799214D01*
X2918786Y-20813500D01*
X2933071Y-20842072D01*
X2933071Y-20999214D01*
X3075928Y-20999214D02*
X3075928Y-20799214D01*
X3075928Y-20827786D02*
X3090214Y-20813500D01*
X3118786Y-20799214D01*
X3161643Y-20799214D01*
X3190214Y-20813500D01*
X3204500Y-20842072D01*
X3204500Y-20999214D01*
X3204500Y-20842072D02*
X3218786Y-20813500D01*
X3247357Y-20799214D01*
X3290214Y-20799214D01*
X3318786Y-20813500D01*
X3333071Y-20842072D01*
X3333071Y-20999214D01*
X3918786Y-20684929D02*
X3661643Y-21070643D01*
X4304500Y-20699214D02*
X4333071Y-20699214D01*
X4361643Y-20713500D01*
X4375928Y-20727786D01*
X4390214Y-20756357D01*
X4404500Y-20813500D01*
X4404500Y-20884929D01*
X4390214Y-20942072D01*
X4375928Y-20970643D01*
X4361643Y-20984929D01*
X4333071Y-20999214D01*
X4304500Y-20999214D01*
X4275928Y-20984929D01*
X4261643Y-20970643D01*
X4247357Y-20942072D01*
X4233071Y-20884929D01*
X4233071Y-20813500D01*
X4247357Y-20756357D01*
X4261643Y-20727786D01*
X4275928Y-20713500D01*
X4304500Y-20699214D01*
X4533071Y-20970643D02*
X4547357Y-20984929D01*
X4533071Y-20999214D01*
X4518786Y-20984929D01*
X4533071Y-20970643D01*
X4533071Y-20999214D01*
X4733071Y-20699214D02*
X4761643Y-20699214D01*
X4790214Y-20713500D01*
X4804500Y-20727786D01*
X4818786Y-20756357D01*
X4833071Y-20813500D01*
X4833071Y-20884929D01*
X4818786Y-20942072D01*
X4804500Y-20970643D01*
X4790214Y-20984929D01*
X4761643Y-20999214D01*
X4733071Y-20999214D01*
X4704500Y-20984929D01*
X4690214Y-20970643D01*
X4675928Y-20942072D01*
X4661643Y-20884929D01*
X4661643Y-20813500D01*
X4675928Y-20756357D01*
X4690214Y-20727786D01*
X4704500Y-20713500D01*
X4733071Y-20699214D01*
X4947357Y-20727786D02*
X4961643Y-20713500D01*
X4990214Y-20699214D01*
X5061643Y-20699214D01*
X5090214Y-20713500D01*
X5104500Y-20727786D01*
X5118786Y-20756357D01*
X5118786Y-20784929D01*
X5104500Y-20827786D01*
X4933071Y-20999214D01*
X5118786Y-20999214D01*
X5304500Y-20699214D02*
X5333071Y-20699214D01*
X5361643Y-20713500D01*
X5375928Y-20727786D01*
X5390214Y-20756357D01*
X5404500Y-20813500D01*
X5404500Y-20884929D01*
X5390214Y-20942072D01*
X5375928Y-20970643D01*
X5361643Y-20984929D01*
X5333071Y-20999214D01*
X5304500Y-20999214D01*
X5275928Y-20984929D01*
X5261643Y-20970643D01*
X5247357Y-20942072D01*
X5233071Y-20884929D01*
X5233071Y-20813500D01*
X5247357Y-20756357D01*
X5261643Y-20727786D01*
X5275928Y-20713500D01*
X5304500Y-20699214D01*
X5518786Y-20699214D02*
X5518786Y-20756357D01*
X5633071Y-20699214D02*
X5633071Y-20756357D01*
X6075928Y-21113500D02*
X6061643Y-21099214D01*
X6033071Y-21056357D01*
X6018786Y-21027786D01*
X6004500Y-20984929D01*
X5990214Y-20913500D01*
X5990214Y-20856357D01*
X6004500Y-20784929D01*
X6018786Y-20742072D01*
X6033071Y-20713500D01*
X6061643Y-20670643D01*
X6075928Y-20656357D01*
X6347357Y-20999214D02*
X6175928Y-20999214D01*
X6261643Y-20999214D02*
X6261643Y-20699214D01*
X6233071Y-20742072D01*
X6204500Y-20770643D01*
X6175928Y-20784929D01*
X6604500Y-20699214D02*
X6547357Y-20699214D01*
X6518786Y-20713500D01*
X6504500Y-20727786D01*
X6475928Y-20770643D01*
X6461643Y-20827786D01*
X6461643Y-20942072D01*
X6475928Y-20970643D01*
X6490214Y-20984929D01*
X6518786Y-20999214D01*
X6575928Y-20999214D01*
X6604500Y-20984929D01*
X6618786Y-20970643D01*
X6633071Y-20942072D01*
X6633071Y-20870643D01*
X6618786Y-20842072D01*
X6604500Y-20827786D01*
X6575928Y-20813500D01*
X6518786Y-20813500D01*
X6490214Y-20827786D01*
X6475928Y-20842072D01*
X6461643Y-20870643D01*
X6990214Y-20999214D02*
X6990214Y-20699214D01*
X7118786Y-20999214D02*
X7118786Y-20842072D01*
X7104500Y-20813500D01*
X7075928Y-20799214D01*
X7033071Y-20799214D01*
X7004500Y-20813500D01*
X6990214Y-20827786D01*
X7304500Y-20999214D02*
X7275928Y-20984929D01*
X7261643Y-20970643D01*
X7247357Y-20942072D01*
X7247357Y-20856357D01*
X7261643Y-20827786D01*
X7275928Y-20813500D01*
X7304500Y-20799214D01*
X7347357Y-20799214D01*
X7375928Y-20813500D01*
X7390214Y-20827786D01*
X7404500Y-20856357D01*
X7404500Y-20942072D01*
X7390214Y-20970643D01*
X7375928Y-20984929D01*
X7347357Y-20999214D01*
X7304500Y-20999214D01*
X7575928Y-20999214D02*
X7547357Y-20984929D01*
X7533071Y-20956357D01*
X7533071Y-20699214D01*
X7804500Y-20984929D02*
X7775928Y-20999214D01*
X7718786Y-20999214D01*
X7690214Y-20984929D01*
X7675928Y-20956357D01*
X7675928Y-20842072D01*
X7690214Y-20813500D01*
X7718786Y-20799214D01*
X7775928Y-20799214D01*
X7804500Y-20813500D01*
X7818786Y-20842072D01*
X7818786Y-20870643D01*
X7675928Y-20899214D01*
X7933071Y-20984929D02*
X7961643Y-20999214D01*
X8018786Y-20999214D01*
X8047357Y-20984929D01*
X8061643Y-20956357D01*
X8061643Y-20942072D01*
X8047357Y-20913500D01*
X8018786Y-20899214D01*
X7975928Y-20899214D01*
X7947357Y-20884929D01*
X7933071Y-20856357D01*
X7933071Y-20842072D01*
X7947357Y-20813500D01*
X7975928Y-20799214D01*
X8018786Y-20799214D01*
X8047357Y-20813500D01*
X8161643Y-21113500D02*
X8175928Y-21099214D01*
X8204500Y-21056357D01*
X8218786Y-21027786D01*
X8233071Y-20984929D01*
X8247357Y-20913500D01*
X8247357Y-20856357D01*
X8233071Y-20784929D01*
X8218786Y-20742072D01*
X8204500Y-20713500D01*
X8175928Y-20670643D01*
X8161643Y-20656357D01*
X1359500Y-21229500D02*
X1359500Y-21289500D01*
X1329500Y-21259500D02*
X1389500Y-21259500D01*
X1733071Y-21095214D02*
X1761643Y-21095214D01*
X1790214Y-21109500D01*
X1804500Y-21123786D01*
X1818786Y-21152357D01*
X1833071Y-21209500D01*
X1833071Y-21280929D01*
X1818786Y-21338072D01*
X1804500Y-21366643D01*
X1790214Y-21380929D01*
X1761643Y-21395214D01*
X1733071Y-21395214D01*
X1704500Y-21380929D01*
X1690214Y-21366643D01*
X1675928Y-21338072D01*
X1661643Y-21280929D01*
X1661643Y-21209500D01*
X1675928Y-21152357D01*
X1690214Y-21123786D01*
X1704500Y-21109500D01*
X1733071Y-21095214D01*
X1961643Y-21366643D02*
X1975928Y-21380929D01*
X1961643Y-21395214D01*
X1947357Y-21380929D01*
X1961643Y-21366643D01*
X1961643Y-21395214D01*
X2233071Y-21095214D02*
X2175928Y-21095214D01*
X2147357Y-21109500D01*
X2133071Y-21123786D01*
X2104500Y-21166643D01*
X2090214Y-21223786D01*
X2090214Y-21338072D01*
X2104500Y-21366643D01*
X2118786Y-21380929D01*
X2147357Y-21395214D01*
X2204500Y-21395214D01*
X2233071Y-21380929D01*
X2247357Y-21366643D01*
X2261643Y-21338072D01*
X2261643Y-21266643D01*
X2247357Y-21238072D01*
X2233071Y-21223786D01*
X2204500Y-21209500D01*
X2147357Y-21209500D01*
X2118786Y-21223786D01*
X2104500Y-21238072D01*
X2090214Y-21266643D01*
X2447357Y-21095214D02*
X2475928Y-21095214D01*
X2504500Y-21109500D01*
X2518786Y-21123786D01*
X2533071Y-21152357D01*
X2547357Y-21209500D01*
X2547357Y-21280929D01*
X2533071Y-21338072D01*
X2518786Y-21366643D01*
X2504500Y-21380929D01*
X2475928Y-21395214D01*
X2447357Y-21395214D01*
X2418786Y-21380929D01*
X2404500Y-21366643D01*
X2390214Y-21338072D01*
X2375928Y-21280929D01*
X2375928Y-21209500D01*
X2390214Y-21152357D01*
X2404500Y-21123786D01*
X2418786Y-21109500D01*
X2447357Y-21095214D01*
X2675928Y-21395214D02*
X2675928Y-21195214D01*
X2675928Y-21223786D02*
X2690214Y-21209500D01*
X2718786Y-21195214D01*
X2761643Y-21195214D01*
X2790214Y-21209500D01*
X2804500Y-21238072D01*
X2804500Y-21395214D01*
X2804500Y-21238072D02*
X2818786Y-21209500D01*
X2847357Y-21195214D01*
X2890214Y-21195214D01*
X2918786Y-21209500D01*
X2933071Y-21238072D01*
X2933071Y-21395214D01*
X3075928Y-21395214D02*
X3075928Y-21195214D01*
X3075928Y-21223786D02*
X3090214Y-21209500D01*
X3118786Y-21195214D01*
X3161643Y-21195214D01*
X3190214Y-21209500D01*
X3204500Y-21238072D01*
X3204500Y-21395214D01*
X3204500Y-21238072D02*
X3218786Y-21209500D01*
X3247357Y-21195214D01*
X3290214Y-21195214D01*
X3318786Y-21209500D01*
X3333071Y-21238072D01*
X3333071Y-21395214D01*
X3918786Y-21080929D02*
X3661643Y-21466643D01*
X4304500Y-21095214D02*
X4333071Y-21095214D01*
X4361643Y-21109500D01*
X4375928Y-21123786D01*
X4390214Y-21152357D01*
X4404500Y-21209500D01*
X4404500Y-21280929D01*
X4390214Y-21338072D01*
X4375928Y-21366643D01*
X4361643Y-21380929D01*
X4333071Y-21395214D01*
X4304500Y-21395214D01*
X4275928Y-21380929D01*
X4261643Y-21366643D01*
X4247357Y-21338072D01*
X4233071Y-21280929D01*
X4233071Y-21209500D01*
X4247357Y-21152357D01*
X4261643Y-21123786D01*
X4275928Y-21109500D01*
X4304500Y-21095214D01*
X4533071Y-21366643D02*
X4547357Y-21380929D01*
X4533071Y-21395214D01*
X4518786Y-21380929D01*
X4533071Y-21366643D01*
X4533071Y-21395214D01*
X4733071Y-21095214D02*
X4761643Y-21095214D01*
X4790214Y-21109500D01*
X4804500Y-21123786D01*
X4818786Y-21152357D01*
X4833071Y-21209500D01*
X4833071Y-21280929D01*
X4818786Y-21338072D01*
X4804500Y-21366643D01*
X4790214Y-21380929D01*
X4761643Y-21395214D01*
X4733071Y-21395214D01*
X4704500Y-21380929D01*
X4690214Y-21366643D01*
X4675928Y-21338072D01*
X4661643Y-21280929D01*
X4661643Y-21209500D01*
X4675928Y-21152357D01*
X4690214Y-21123786D01*
X4704500Y-21109500D01*
X4733071Y-21095214D01*
X4947357Y-21123786D02*
X4961643Y-21109500D01*
X4990214Y-21095214D01*
X5061643Y-21095214D01*
X5090214Y-21109500D01*
X5104500Y-21123786D01*
X5118786Y-21152357D01*
X5118786Y-21180929D01*
X5104500Y-21223786D01*
X4933071Y-21395214D01*
X5118786Y-21395214D01*
X5375928Y-21195214D02*
X5375928Y-21395214D01*
X5304500Y-21080929D02*
X5233071Y-21295214D01*
X5418786Y-21295214D01*
X5518786Y-21095214D02*
X5518786Y-21152357D01*
X5633071Y-21095214D02*
X5633071Y-21152357D01*
X6075928Y-21509500D02*
X6061643Y-21495214D01*
X6033071Y-21452357D01*
X6018786Y-21423786D01*
X6004500Y-21380929D01*
X5990214Y-21309500D01*
X5990214Y-21252357D01*
X6004500Y-21180929D01*
X6018786Y-21138072D01*
X6033071Y-21109500D01*
X6061643Y-21066643D01*
X6075928Y-21052357D01*
X6161643Y-21095214D02*
X6347357Y-21095214D01*
X6247357Y-21209500D01*
X6290214Y-21209500D01*
X6318786Y-21223786D01*
X6333071Y-21238072D01*
X6347357Y-21266643D01*
X6347357Y-21338072D01*
X6333071Y-21366643D01*
X6318786Y-21380929D01*
X6290214Y-21395214D01*
X6204500Y-21395214D01*
X6175928Y-21380929D01*
X6161643Y-21366643D01*
X6461643Y-21123786D02*
X6475928Y-21109500D01*
X6504500Y-21095214D01*
X6575928Y-21095214D01*
X6604500Y-21109500D01*
X6618786Y-21123786D01*
X6633071Y-21152357D01*
X6633071Y-21180929D01*
X6618786Y-21223786D01*
X6447357Y-21395214D01*
X6633071Y-21395214D01*
X6990214Y-21395214D02*
X6990214Y-21095214D01*
X7118786Y-21395214D02*
X7118786Y-21238072D01*
X7104500Y-21209500D01*
X7075928Y-21195214D01*
X7033071Y-21195214D01*
X7004500Y-21209500D01*
X6990214Y-21223786D01*
X7304500Y-21395214D02*
X7275928Y-21380929D01*
X7261643Y-21366643D01*
X7247357Y-21338072D01*
X7247357Y-21252357D01*
X7261643Y-21223786D01*
X7275928Y-21209500D01*
X7304500Y-21195214D01*
X7347357Y-21195214D01*
X7375928Y-21209500D01*
X7390214Y-21223786D01*
X7404500Y-21252357D01*
X7404500Y-21338072D01*
X7390214Y-21366643D01*
X7375928Y-21380929D01*
X7347357Y-21395214D01*
X7304500Y-21395214D01*
X7575928Y-21395214D02*
X7547357Y-21380929D01*
X7533071Y-21352357D01*
X7533071Y-21095214D01*
X7804500Y-21380929D02*
X7775928Y-21395214D01*
X7718786Y-21395214D01*
X7690214Y-21380929D01*
X7675928Y-21352357D01*
X7675928Y-21238072D01*
X7690214Y-21209500D01*
X7718786Y-21195214D01*
X7775928Y-21195214D01*
X7804500Y-21209500D01*
X7818786Y-21238072D01*
X7818786Y-21266643D01*
X7675928Y-21295214D01*
X7933071Y-21380929D02*
X7961643Y-21395214D01*
X8018786Y-21395214D01*
X8047357Y-21380929D01*
X8061643Y-21352357D01*
X8061643Y-21338072D01*
X8047357Y-21309500D01*
X8018786Y-21295214D01*
X7975928Y-21295214D01*
X7947357Y-21280929D01*
X7933071Y-21252357D01*
X7933071Y-21238072D01*
X7947357Y-21209500D01*
X7975928Y-21195214D01*
X8018786Y-21195214D01*
X8047357Y-21209500D01*
X8161643Y-21509500D02*
X8175928Y-21495214D01*
X8204500Y-21452357D01*
X8218786Y-21423786D01*
X8233071Y-21380929D01*
X8247357Y-21309500D01*
X8247357Y-21252357D01*
X8233071Y-21180929D01*
X8218786Y-21138072D01*
X8204500Y-21109500D01*
X8175928Y-21066643D01*
X8161643Y-21052357D01*
X1378341Y-21682441D02*
X1378341Y-21628559D01*
X1324459Y-21628559D01*
X1324459Y-21682441D01*
X1378341Y-21682441D01*
X1733071Y-21491214D02*
X1761643Y-21491214D01*
X1790214Y-21505500D01*
X1804500Y-21519786D01*
X1818786Y-21548357D01*
X1833071Y-21605500D01*
X1833071Y-21676929D01*
X1818786Y-21734072D01*
X1804500Y-21762643D01*
X1790214Y-21776929D01*
X1761643Y-21791214D01*
X1733071Y-21791214D01*
X1704500Y-21776929D01*
X1690214Y-21762643D01*
X1675928Y-21734072D01*
X1661643Y-21676929D01*
X1661643Y-21605500D01*
X1675928Y-21548357D01*
X1690214Y-21519786D01*
X1704500Y-21505500D01*
X1733071Y-21491214D01*
X1961643Y-21762643D02*
X1975928Y-21776929D01*
X1961643Y-21791214D01*
X1947357Y-21776929D01*
X1961643Y-21762643D01*
X1961643Y-21791214D01*
X2075928Y-21491214D02*
X2275928Y-21491214D01*
X2147357Y-21791214D01*
X2518786Y-21491214D02*
X2461643Y-21491214D01*
X2433071Y-21505500D01*
X2418786Y-21519786D01*
X2390214Y-21562643D01*
X2375928Y-21619786D01*
X2375928Y-21734072D01*
X2390214Y-21762643D01*
X2404500Y-21776929D01*
X2433071Y-21791214D01*
X2490214Y-21791214D01*
X2518786Y-21776929D01*
X2533071Y-21762643D01*
X2547357Y-21734072D01*
X2547357Y-21662643D01*
X2533071Y-21634072D01*
X2518786Y-21619786D01*
X2490214Y-21605500D01*
X2433071Y-21605500D01*
X2404500Y-21619786D01*
X2390214Y-21634072D01*
X2375928Y-21662643D01*
X2675928Y-21791214D02*
X2675928Y-21591214D01*
X2675928Y-21619786D02*
X2690214Y-21605500D01*
X2718786Y-21591214D01*
X2761643Y-21591214D01*
X2790214Y-21605500D01*
X2804500Y-21634072D01*
X2804500Y-21791214D01*
X2804500Y-21634072D02*
X2818786Y-21605500D01*
X2847357Y-21591214D01*
X2890214Y-21591214D01*
X2918786Y-21605500D01*
X2933071Y-21634072D01*
X2933071Y-21791214D01*
X3075928Y-21791214D02*
X3075928Y-21591214D01*
X3075928Y-21619786D02*
X3090214Y-21605500D01*
X3118786Y-21591214D01*
X3161643Y-21591214D01*
X3190214Y-21605500D01*
X3204500Y-21634072D01*
X3204500Y-21791214D01*
X3204500Y-21634072D02*
X3218786Y-21605500D01*
X3247357Y-21591214D01*
X3290214Y-21591214D01*
X3318786Y-21605500D01*
X3333071Y-21634072D01*
X3333071Y-21791214D01*
X3918786Y-21476929D02*
X3661643Y-21862643D01*
X4304500Y-21491214D02*
X4333071Y-21491214D01*
X4361643Y-21505500D01*
X4375928Y-21519786D01*
X4390214Y-21548357D01*
X4404500Y-21605500D01*
X4404500Y-21676929D01*
X4390214Y-21734072D01*
X4375928Y-21762643D01*
X4361643Y-21776929D01*
X4333071Y-21791214D01*
X4304500Y-21791214D01*
X4275928Y-21776929D01*
X4261643Y-21762643D01*
X4247357Y-21734072D01*
X4233071Y-21676929D01*
X4233071Y-21605500D01*
X4247357Y-21548357D01*
X4261643Y-21519786D01*
X4275928Y-21505500D01*
X4304500Y-21491214D01*
X4533071Y-21762643D02*
X4547357Y-21776929D01*
X4533071Y-21791214D01*
X4518786Y-21776929D01*
X4533071Y-21762643D01*
X4533071Y-21791214D01*
X4733071Y-21491214D02*
X4761643Y-21491214D01*
X4790214Y-21505500D01*
X4804500Y-21519786D01*
X4818786Y-21548357D01*
X4833071Y-21605500D01*
X4833071Y-21676929D01*
X4818786Y-21734072D01*
X4804500Y-21762643D01*
X4790214Y-21776929D01*
X4761643Y-21791214D01*
X4733071Y-21791214D01*
X4704500Y-21776929D01*
X4690214Y-21762643D01*
X4675928Y-21734072D01*
X4661643Y-21676929D01*
X4661643Y-21605500D01*
X4675928Y-21548357D01*
X4690214Y-21519786D01*
X4704500Y-21505500D01*
X4733071Y-21491214D01*
X4933071Y-21491214D02*
X5118786Y-21491214D01*
X5018786Y-21605500D01*
X5061643Y-21605500D01*
X5090214Y-21619786D01*
X5104500Y-21634072D01*
X5118786Y-21662643D01*
X5118786Y-21734072D01*
X5104500Y-21762643D01*
X5090214Y-21776929D01*
X5061643Y-21791214D01*
X4975928Y-21791214D01*
X4947357Y-21776929D01*
X4933071Y-21762643D01*
X5304500Y-21491214D02*
X5333071Y-21491214D01*
X5361643Y-21505500D01*
X5375928Y-21519786D01*
X5390214Y-21548357D01*
X5404500Y-21605500D01*
X5404500Y-21676929D01*
X5390214Y-21734072D01*
X5375928Y-21762643D01*
X5361643Y-21776929D01*
X5333071Y-21791214D01*
X5304500Y-21791214D01*
X5275928Y-21776929D01*
X5261643Y-21762643D01*
X5247357Y-21734072D01*
X5233071Y-21676929D01*
X5233071Y-21605500D01*
X5247357Y-21548357D01*
X5261643Y-21519786D01*
X5275928Y-21505500D01*
X5304500Y-21491214D01*
X5518786Y-21491214D02*
X5518786Y-21548357D01*
X5633071Y-21491214D02*
X5633071Y-21548357D01*
X6075928Y-21905500D02*
X6061643Y-21891214D01*
X6033071Y-21848357D01*
X6018786Y-21819786D01*
X6004500Y-21776929D01*
X5990214Y-21705500D01*
X5990214Y-21648357D01*
X6004500Y-21576929D01*
X6018786Y-21534072D01*
X6033071Y-21505500D01*
X6061643Y-21462643D01*
X6075928Y-21448357D01*
X6161643Y-21491214D02*
X6347357Y-21491214D01*
X6247357Y-21605500D01*
X6290214Y-21605500D01*
X6318786Y-21619786D01*
X6333071Y-21634072D01*
X6347357Y-21662643D01*
X6347357Y-21734072D01*
X6333071Y-21762643D01*
X6318786Y-21776929D01*
X6290214Y-21791214D01*
X6204500Y-21791214D01*
X6175928Y-21776929D01*
X6161643Y-21762643D01*
X6490214Y-21791214D02*
X6547357Y-21791214D01*
X6575928Y-21776929D01*
X6590214Y-21762643D01*
X6618786Y-21719786D01*
X6633071Y-21662643D01*
X6633071Y-21548357D01*
X6618786Y-21519786D01*
X6604500Y-21505500D01*
X6575928Y-21491214D01*
X6518786Y-21491214D01*
X6490214Y-21505500D01*
X6475928Y-21519786D01*
X6461643Y-21548357D01*
X6461643Y-21619786D01*
X6475928Y-21648357D01*
X6490214Y-21662643D01*
X6518786Y-21676929D01*
X6575928Y-21676929D01*
X6604500Y-21662643D01*
X6618786Y-21648357D01*
X6633071Y-21619786D01*
X6990214Y-21791214D02*
X6990214Y-21491214D01*
X7118786Y-21791214D02*
X7118786Y-21634072D01*
X7104500Y-21605500D01*
X7075928Y-21591214D01*
X7033071Y-21591214D01*
X7004500Y-21605500D01*
X6990214Y-21619786D01*
X7304500Y-21791214D02*
X7275928Y-21776929D01*
X7261643Y-21762643D01*
X7247357Y-21734072D01*
X7247357Y-21648357D01*
X7261643Y-21619786D01*
X7275928Y-21605500D01*
X7304500Y-21591214D01*
X7347357Y-21591214D01*
X7375928Y-21605500D01*
X7390214Y-21619786D01*
X7404500Y-21648357D01*
X7404500Y-21734072D01*
X7390214Y-21762643D01*
X7375928Y-21776929D01*
X7347357Y-21791214D01*
X7304500Y-21791214D01*
X7575928Y-21791214D02*
X7547357Y-21776929D01*
X7533071Y-21748357D01*
X7533071Y-21491214D01*
X7804500Y-21776929D02*
X7775928Y-21791214D01*
X7718786Y-21791214D01*
X7690214Y-21776929D01*
X7675928Y-21748357D01*
X7675928Y-21634072D01*
X7690214Y-21605500D01*
X7718786Y-21591214D01*
X7775928Y-21591214D01*
X7804500Y-21605500D01*
X7818786Y-21634072D01*
X7818786Y-21662643D01*
X7675928Y-21691214D01*
X7933071Y-21776929D02*
X7961643Y-21791214D01*
X8018786Y-21791214D01*
X8047357Y-21776929D01*
X8061643Y-21748357D01*
X8061643Y-21734072D01*
X8047357Y-21705500D01*
X8018786Y-21691214D01*
X7975928Y-21691214D01*
X7947357Y-21676929D01*
X7933071Y-21648357D01*
X7933071Y-21634072D01*
X7947357Y-21605500D01*
X7975928Y-21591214D01*
X8018786Y-21591214D01*
X8047357Y-21605500D01*
X8161643Y-21905500D02*
X8175928Y-21891214D01*
X8204500Y-21848357D01*
X8218786Y-21819786D01*
X8233071Y-21776929D01*
X8247357Y-21705500D01*
X8247357Y-21648357D01*
X8233071Y-21576929D01*
X8218786Y-21534072D01*
X8204500Y-21505500D01*
X8175928Y-21462643D01*
X8161643Y-21448357D01*
X1349500Y-22091500D02*
X1389500Y-22051500D01*
X1349500Y-22011500D01*
X1309500Y-22051500D01*
X1349500Y-22091500D01*
X1733071Y-21887214D02*
X1761643Y-21887214D01*
X1790214Y-21901500D01*
X1804500Y-21915786D01*
X1818786Y-21944357D01*
X1833071Y-22001500D01*
X1833071Y-22072929D01*
X1818786Y-22130072D01*
X1804500Y-22158643D01*
X1790214Y-22172929D01*
X1761643Y-22187214D01*
X1733071Y-22187214D01*
X1704500Y-22172929D01*
X1690214Y-22158643D01*
X1675928Y-22130072D01*
X1661643Y-22072929D01*
X1661643Y-22001500D01*
X1675928Y-21944357D01*
X1690214Y-21915786D01*
X1704500Y-21901500D01*
X1733071Y-21887214D01*
X1961643Y-22158643D02*
X1975928Y-22172929D01*
X1961643Y-22187214D01*
X1947357Y-22172929D01*
X1961643Y-22158643D01*
X1961643Y-22187214D01*
X2147357Y-22015786D02*
X2118786Y-22001500D01*
X2104500Y-21987214D01*
X2090214Y-21958643D01*
X2090214Y-21944357D01*
X2104500Y-21915786D01*
X2118786Y-21901500D01*
X2147357Y-21887214D01*
X2204500Y-21887214D01*
X2233071Y-21901500D01*
X2247357Y-21915786D01*
X2261643Y-21944357D01*
X2261643Y-21958643D01*
X2247357Y-21987214D01*
X2233071Y-22001500D01*
X2204500Y-22015786D01*
X2147357Y-22015786D01*
X2118786Y-22030072D01*
X2104500Y-22044357D01*
X2090214Y-22072929D01*
X2090214Y-22130072D01*
X2104500Y-22158643D01*
X2118786Y-22172929D01*
X2147357Y-22187214D01*
X2204500Y-22187214D01*
X2233071Y-22172929D01*
X2247357Y-22158643D01*
X2261643Y-22130072D01*
X2261643Y-22072929D01*
X2247357Y-22044357D01*
X2233071Y-22030072D01*
X2204500Y-22015786D01*
X2447357Y-21887214D02*
X2475928Y-21887214D01*
X2504500Y-21901500D01*
X2518786Y-21915786D01*
X2533071Y-21944357D01*
X2547357Y-22001500D01*
X2547357Y-22072929D01*
X2533071Y-22130072D01*
X2518786Y-22158643D01*
X2504500Y-22172929D01*
X2475928Y-22187214D01*
X2447357Y-22187214D01*
X2418786Y-22172929D01*
X2404500Y-22158643D01*
X2390214Y-22130072D01*
X2375928Y-22072929D01*
X2375928Y-22001500D01*
X2390214Y-21944357D01*
X2404500Y-21915786D01*
X2418786Y-21901500D01*
X2447357Y-21887214D01*
X2675928Y-22187214D02*
X2675928Y-21987214D01*
X2675928Y-22015786D02*
X2690214Y-22001500D01*
X2718786Y-21987214D01*
X2761643Y-21987214D01*
X2790214Y-22001500D01*
X2804500Y-22030072D01*
X2804500Y-22187214D01*
X2804500Y-22030072D02*
X2818786Y-22001500D01*
X2847357Y-21987214D01*
X2890214Y-21987214D01*
X2918786Y-22001500D01*
X2933071Y-22030072D01*
X2933071Y-22187214D01*
X3075928Y-22187214D02*
X3075928Y-21987214D01*
X3075928Y-22015786D02*
X3090214Y-22001500D01*
X3118786Y-21987214D01*
X3161643Y-21987214D01*
X3190214Y-22001500D01*
X3204500Y-22030072D01*
X3204500Y-22187214D01*
X3204500Y-22030072D02*
X3218786Y-22001500D01*
X3247357Y-21987214D01*
X3290214Y-21987214D01*
X3318786Y-22001500D01*
X3333071Y-22030072D01*
X3333071Y-22187214D01*
X3918786Y-21872929D02*
X3661643Y-22258643D01*
X4304500Y-21887214D02*
X4333071Y-21887214D01*
X4361643Y-21901500D01*
X4375928Y-21915786D01*
X4390214Y-21944357D01*
X4404500Y-22001500D01*
X4404500Y-22072929D01*
X4390214Y-22130072D01*
X4375928Y-22158643D01*
X4361643Y-22172929D01*
X4333071Y-22187214D01*
X4304500Y-22187214D01*
X4275928Y-22172929D01*
X4261643Y-22158643D01*
X4247357Y-22130072D01*
X4233071Y-22072929D01*
X4233071Y-22001500D01*
X4247357Y-21944357D01*
X4261643Y-21915786D01*
X4275928Y-21901500D01*
X4304500Y-21887214D01*
X4533071Y-22158643D02*
X4547357Y-22172929D01*
X4533071Y-22187214D01*
X4518786Y-22172929D01*
X4533071Y-22158643D01*
X4533071Y-22187214D01*
X4733071Y-21887214D02*
X4761643Y-21887214D01*
X4790214Y-21901500D01*
X4804500Y-21915786D01*
X4818786Y-21944357D01*
X4833071Y-22001500D01*
X4833071Y-22072929D01*
X4818786Y-22130072D01*
X4804500Y-22158643D01*
X4790214Y-22172929D01*
X4761643Y-22187214D01*
X4733071Y-22187214D01*
X4704500Y-22172929D01*
X4690214Y-22158643D01*
X4675928Y-22130072D01*
X4661643Y-22072929D01*
X4661643Y-22001500D01*
X4675928Y-21944357D01*
X4690214Y-21915786D01*
X4704500Y-21901500D01*
X4733071Y-21887214D01*
X4933071Y-21887214D02*
X5118786Y-21887214D01*
X5018786Y-22001500D01*
X5061643Y-22001500D01*
X5090214Y-22015786D01*
X5104500Y-22030072D01*
X5118786Y-22058643D01*
X5118786Y-22130072D01*
X5104500Y-22158643D01*
X5090214Y-22172929D01*
X5061643Y-22187214D01*
X4975928Y-22187214D01*
X4947357Y-22172929D01*
X4933071Y-22158643D01*
X5404500Y-22187214D02*
X5233071Y-22187214D01*
X5318786Y-22187214D02*
X5318786Y-21887214D01*
X5290214Y-21930072D01*
X5261643Y-21958643D01*
X5233071Y-21972929D01*
X5518786Y-21887214D02*
X5518786Y-21944357D01*
X5633071Y-21887214D02*
X5633071Y-21944357D01*
X6075928Y-22301500D02*
X6061643Y-22287214D01*
X6033071Y-22244357D01*
X6018786Y-22215786D01*
X6004500Y-22172929D01*
X5990214Y-22101500D01*
X5990214Y-22044357D01*
X6004500Y-21972929D01*
X6018786Y-21930072D01*
X6033071Y-21901500D01*
X6061643Y-21858643D01*
X6075928Y-21844357D01*
X6318786Y-21887214D02*
X6261643Y-21887214D01*
X6233071Y-21901500D01*
X6218786Y-21915786D01*
X6190214Y-21958643D01*
X6175928Y-22015786D01*
X6175928Y-22130072D01*
X6190214Y-22158643D01*
X6204500Y-22172929D01*
X6233071Y-22187214D01*
X6290214Y-22187214D01*
X6318786Y-22172929D01*
X6333071Y-22158643D01*
X6347357Y-22130072D01*
X6347357Y-22058643D01*
X6333071Y-22030072D01*
X6318786Y-22015786D01*
X6290214Y-22001500D01*
X6233071Y-22001500D01*
X6204500Y-22015786D01*
X6190214Y-22030072D01*
X6175928Y-22058643D01*
X6704500Y-22187214D02*
X6704500Y-21887214D01*
X6833071Y-22187214D02*
X6833071Y-22030072D01*
X6818786Y-22001500D01*
X6790214Y-21987214D01*
X6747357Y-21987214D01*
X6718786Y-22001500D01*
X6704500Y-22015786D01*
X7018786Y-22187214D02*
X6990214Y-22172929D01*
X6975928Y-22158643D01*
X6961643Y-22130072D01*
X6961643Y-22044357D01*
X6975928Y-22015786D01*
X6990214Y-22001500D01*
X7018786Y-21987214D01*
X7061643Y-21987214D01*
X7090214Y-22001500D01*
X7104500Y-22015786D01*
X7118786Y-22044357D01*
X7118786Y-22130072D01*
X7104500Y-22158643D01*
X7090214Y-22172929D01*
X7061643Y-22187214D01*
X7018786Y-22187214D01*
X7290214Y-22187214D02*
X7261643Y-22172929D01*
X7247357Y-22144357D01*
X7247357Y-21887214D01*
X7518786Y-22172929D02*
X7490214Y-22187214D01*
X7433071Y-22187214D01*
X7404500Y-22172929D01*
X7390214Y-22144357D01*
X7390214Y-22030072D01*
X7404500Y-22001500D01*
X7433071Y-21987214D01*
X7490214Y-21987214D01*
X7518786Y-22001500D01*
X7533071Y-22030072D01*
X7533071Y-22058643D01*
X7390214Y-22087214D01*
X7647357Y-22172929D02*
X7675928Y-22187214D01*
X7733071Y-22187214D01*
X7761643Y-22172929D01*
X7775928Y-22144357D01*
X7775928Y-22130072D01*
X7761643Y-22101500D01*
X7733071Y-22087214D01*
X7690214Y-22087214D01*
X7661643Y-22072929D01*
X7647357Y-22044357D01*
X7647357Y-22030072D01*
X7661643Y-22001500D01*
X7690214Y-21987214D01*
X7733071Y-21987214D01*
X7761643Y-22001500D01*
X7875928Y-22301500D02*
X7890214Y-22287214D01*
X7918786Y-22244357D01*
X7933071Y-22215786D01*
X7947357Y-22172929D01*
X7961643Y-22101500D01*
X7961643Y-22044357D01*
X7947357Y-21972929D01*
X7933071Y-21930072D01*
X7918786Y-21901500D01*
X7890214Y-21858643D01*
X7875928Y-21844357D01*
X1304500Y-22405000D02*
X1389500Y-22490000D01*
X1389500Y-22405000D02*
X1304500Y-22490000D01*
X1389500Y-22447500D02*
G75*
G03X1389500Y-22447500I-42500J0D01*
G01*
X1733071Y-22283214D02*
X1761643Y-22283214D01*
X1790214Y-22297500D01*
X1804500Y-22311786D01*
X1818786Y-22340357D01*
X1833071Y-22397500D01*
X1833071Y-22468929D01*
X1818786Y-22526071D01*
X1804500Y-22554643D01*
X1790214Y-22568929D01*
X1761643Y-22583214D01*
X1733071Y-22583214D01*
X1704500Y-22568929D01*
X1690214Y-22554643D01*
X1675928Y-22526071D01*
X1661643Y-22468929D01*
X1661643Y-22397500D01*
X1675928Y-22340357D01*
X1690214Y-22311786D01*
X1704500Y-22297500D01*
X1733071Y-22283214D01*
X1961643Y-22554643D02*
X1975928Y-22568929D01*
X1961643Y-22583214D01*
X1947357Y-22568929D01*
X1961643Y-22554643D01*
X1961643Y-22583214D01*
X2147357Y-22411786D02*
X2118786Y-22397500D01*
X2104500Y-22383214D01*
X2090214Y-22354643D01*
X2090214Y-22340357D01*
X2104500Y-22311786D01*
X2118786Y-22297500D01*
X2147357Y-22283214D01*
X2204500Y-22283214D01*
X2233071Y-22297500D01*
X2247357Y-22311786D01*
X2261643Y-22340357D01*
X2261643Y-22354643D01*
X2247357Y-22383214D01*
X2233071Y-22397500D01*
X2204500Y-22411786D01*
X2147357Y-22411786D01*
X2118786Y-22426071D01*
X2104500Y-22440357D01*
X2090214Y-22468929D01*
X2090214Y-22526071D01*
X2104500Y-22554643D01*
X2118786Y-22568929D01*
X2147357Y-22583214D01*
X2204500Y-22583214D01*
X2233071Y-22568929D01*
X2247357Y-22554643D01*
X2261643Y-22526071D01*
X2261643Y-22468929D01*
X2247357Y-22440357D01*
X2233071Y-22426071D01*
X2204500Y-22411786D01*
X2533071Y-22283214D02*
X2390214Y-22283214D01*
X2375928Y-22426071D01*
X2390214Y-22411786D01*
X2418786Y-22397500D01*
X2490214Y-22397500D01*
X2518786Y-22411786D01*
X2533071Y-22426071D01*
X2547357Y-22454643D01*
X2547357Y-22526071D01*
X2533071Y-22554643D01*
X2518786Y-22568929D01*
X2490214Y-22583214D01*
X2418786Y-22583214D01*
X2390214Y-22568929D01*
X2375928Y-22554643D01*
X2675928Y-22583214D02*
X2675928Y-22383214D01*
X2675928Y-22411786D02*
X2690214Y-22397500D01*
X2718786Y-22383214D01*
X2761643Y-22383214D01*
X2790214Y-22397500D01*
X2804500Y-22426071D01*
X2804500Y-22583214D01*
X2804500Y-22426071D02*
X2818786Y-22397500D01*
X2847357Y-22383214D01*
X2890214Y-22383214D01*
X2918786Y-22397500D01*
X2933071Y-22426071D01*
X2933071Y-22583214D01*
X3075928Y-22583214D02*
X3075928Y-22383214D01*
X3075928Y-22411786D02*
X3090214Y-22397500D01*
X3118786Y-22383214D01*
X3161643Y-22383214D01*
X3190214Y-22397500D01*
X3204500Y-22426071D01*
X3204500Y-22583214D01*
X3204500Y-22426071D02*
X3218786Y-22397500D01*
X3247357Y-22383214D01*
X3290214Y-22383214D01*
X3318786Y-22397500D01*
X3333071Y-22426071D01*
X3333071Y-22583214D01*
X3918786Y-22268929D02*
X3661643Y-22654643D01*
X4304500Y-22283214D02*
X4333071Y-22283214D01*
X4361643Y-22297500D01*
X4375928Y-22311786D01*
X4390214Y-22340357D01*
X4404500Y-22397500D01*
X4404500Y-22468929D01*
X4390214Y-22526071D01*
X4375928Y-22554643D01*
X4361643Y-22568929D01*
X4333071Y-22583214D01*
X4304500Y-22583214D01*
X4275928Y-22568929D01*
X4261643Y-22554643D01*
X4247357Y-22526071D01*
X4233071Y-22468929D01*
X4233071Y-22397500D01*
X4247357Y-22340357D01*
X4261643Y-22311786D01*
X4275928Y-22297500D01*
X4304500Y-22283214D01*
X4533071Y-22554643D02*
X4547357Y-22568929D01*
X4533071Y-22583214D01*
X4518786Y-22568929D01*
X4533071Y-22554643D01*
X4533071Y-22583214D01*
X4733071Y-22283214D02*
X4761643Y-22283214D01*
X4790214Y-22297500D01*
X4804500Y-22311786D01*
X4818786Y-22340357D01*
X4833071Y-22397500D01*
X4833071Y-22468929D01*
X4818786Y-22526071D01*
X4804500Y-22554643D01*
X4790214Y-22568929D01*
X4761643Y-22583214D01*
X4733071Y-22583214D01*
X4704500Y-22568929D01*
X4690214Y-22554643D01*
X4675928Y-22526071D01*
X4661643Y-22468929D01*
X4661643Y-22397500D01*
X4675928Y-22340357D01*
X4690214Y-22311786D01*
X4704500Y-22297500D01*
X4733071Y-22283214D01*
X4933071Y-22283214D02*
X5118786Y-22283214D01*
X5018786Y-22397500D01*
X5061643Y-22397500D01*
X5090214Y-22411786D01*
X5104500Y-22426071D01*
X5118786Y-22454643D01*
X5118786Y-22526071D01*
X5104500Y-22554643D01*
X5090214Y-22568929D01*
X5061643Y-22583214D01*
X4975928Y-22583214D01*
X4947357Y-22568929D01*
X4933071Y-22554643D01*
X5218786Y-22283214D02*
X5404500Y-22283214D01*
X5304500Y-22397500D01*
X5347357Y-22397500D01*
X5375928Y-22411786D01*
X5390214Y-22426071D01*
X5404500Y-22454643D01*
X5404500Y-22526071D01*
X5390214Y-22554643D01*
X5375928Y-22568929D01*
X5347357Y-22583214D01*
X5261643Y-22583214D01*
X5233071Y-22568929D01*
X5218786Y-22554643D01*
X5518786Y-22283214D02*
X5518786Y-22340357D01*
X5633071Y-22283214D02*
X5633071Y-22340357D01*
X6075928Y-22697500D02*
X6061643Y-22683214D01*
X6033071Y-22640357D01*
X6018786Y-22611786D01*
X6004500Y-22568929D01*
X5990214Y-22497500D01*
X5990214Y-22440357D01*
X6004500Y-22368929D01*
X6018786Y-22326072D01*
X6033071Y-22297500D01*
X6061643Y-22254643D01*
X6075928Y-22240357D01*
X6318786Y-22283214D02*
X6261643Y-22283214D01*
X6233071Y-22297500D01*
X6218786Y-22311786D01*
X6190214Y-22354643D01*
X6175928Y-22411786D01*
X6175928Y-22526071D01*
X6190214Y-22554643D01*
X6204500Y-22568929D01*
X6233071Y-22583214D01*
X6290214Y-22583214D01*
X6318786Y-22568929D01*
X6333071Y-22554643D01*
X6347357Y-22526071D01*
X6347357Y-22454643D01*
X6333071Y-22426071D01*
X6318786Y-22411786D01*
X6290214Y-22397500D01*
X6233071Y-22397500D01*
X6204500Y-22411786D01*
X6190214Y-22426071D01*
X6175928Y-22454643D01*
X6704500Y-22583214D02*
X6704500Y-22283214D01*
X6833071Y-22583214D02*
X6833071Y-22426071D01*
X6818786Y-22397500D01*
X6790214Y-22383214D01*
X6747357Y-22383214D01*
X6718786Y-22397500D01*
X6704500Y-22411786D01*
X7018786Y-22583214D02*
X6990214Y-22568929D01*
X6975928Y-22554643D01*
X6961643Y-22526071D01*
X6961643Y-22440357D01*
X6975928Y-22411786D01*
X6990214Y-22397500D01*
X7018786Y-22383214D01*
X7061643Y-22383214D01*
X7090214Y-22397500D01*
X7104500Y-22411786D01*
X7118786Y-22440357D01*
X7118786Y-22526071D01*
X7104500Y-22554643D01*
X7090214Y-22568929D01*
X7061643Y-22583214D01*
X7018786Y-22583214D01*
X7290214Y-22583214D02*
X7261643Y-22568929D01*
X7247357Y-22540357D01*
X7247357Y-22283214D01*
X7518786Y-22568929D02*
X7490214Y-22583214D01*
X7433071Y-22583214D01*
X7404500Y-22568929D01*
X7390214Y-22540357D01*
X7390214Y-22426071D01*
X7404500Y-22397500D01*
X7433071Y-22383214D01*
X7490214Y-22383214D01*
X7518786Y-22397500D01*
X7533071Y-22426071D01*
X7533071Y-22454643D01*
X7390214Y-22483214D01*
X7647357Y-22568929D02*
X7675928Y-22583214D01*
X7733071Y-22583214D01*
X7761643Y-22568929D01*
X7775928Y-22540357D01*
X7775928Y-22526071D01*
X7761643Y-22497500D01*
X7733071Y-22483214D01*
X7690214Y-22483214D01*
X7661643Y-22468929D01*
X7647357Y-22440357D01*
X7647357Y-22426071D01*
X7661643Y-22397500D01*
X7690214Y-22383214D01*
X7733071Y-22383214D01*
X7761643Y-22397500D01*
X7875928Y-22697500D02*
X7890214Y-22683214D01*
X7918786Y-22640357D01*
X7933071Y-22611786D01*
X7947357Y-22568929D01*
X7961643Y-22497500D01*
X7961643Y-22440357D01*
X7947357Y-22368929D01*
X7933071Y-22326072D01*
X7918786Y-22297500D01*
X7890214Y-22254643D01*
X7875928Y-22240357D01*
X1279500Y-22788500D02*
X1389500Y-22898500D01*
X1389500Y-22788500D02*
X1279500Y-22898500D01*
X1334500Y-22788500D02*
X1334500Y-22898500D01*
X1279500Y-22843500D02*
X1389500Y-22843500D01*
X1833071Y-22979214D02*
X1661643Y-22979214D01*
X1747357Y-22979214D02*
X1747357Y-22679214D01*
X1718786Y-22722071D01*
X1690214Y-22750643D01*
X1661643Y-22764929D01*
X1961643Y-22950643D02*
X1975928Y-22964929D01*
X1961643Y-22979214D01*
X1947357Y-22964929D01*
X1961643Y-22950643D01*
X1961643Y-22979214D01*
X2261643Y-22979214D02*
X2090214Y-22979214D01*
X2175928Y-22979214D02*
X2175928Y-22679214D01*
X2147357Y-22722071D01*
X2118786Y-22750643D01*
X2090214Y-22764929D01*
X2447357Y-22679214D02*
X2475928Y-22679214D01*
X2504500Y-22693500D01*
X2518786Y-22707786D01*
X2533071Y-22736357D01*
X2547357Y-22793500D01*
X2547357Y-22864929D01*
X2533071Y-22922071D01*
X2518786Y-22950643D01*
X2504500Y-22964929D01*
X2475928Y-22979214D01*
X2447357Y-22979214D01*
X2418786Y-22964929D01*
X2404500Y-22950643D01*
X2390214Y-22922071D01*
X2375928Y-22864929D01*
X2375928Y-22793500D01*
X2390214Y-22736357D01*
X2404500Y-22707786D01*
X2418786Y-22693500D01*
X2447357Y-22679214D01*
X2675928Y-22979214D02*
X2675928Y-22779214D01*
X2675928Y-22807786D02*
X2690214Y-22793500D01*
X2718786Y-22779214D01*
X2761643Y-22779214D01*
X2790214Y-22793500D01*
X2804500Y-22822071D01*
X2804500Y-22979214D01*
X2804500Y-22822071D02*
X2818786Y-22793500D01*
X2847357Y-22779214D01*
X2890214Y-22779214D01*
X2918786Y-22793500D01*
X2933071Y-22822071D01*
X2933071Y-22979214D01*
X3075928Y-22979214D02*
X3075928Y-22779214D01*
X3075928Y-22807786D02*
X3090214Y-22793500D01*
X3118786Y-22779214D01*
X3161643Y-22779214D01*
X3190214Y-22793500D01*
X3204500Y-22822071D01*
X3204500Y-22979214D01*
X3204500Y-22822071D02*
X3218786Y-22793500D01*
X3247357Y-22779214D01*
X3290214Y-22779214D01*
X3318786Y-22793500D01*
X3333071Y-22822071D01*
X3333071Y-22979214D01*
X3918786Y-22664929D02*
X3661643Y-23050643D01*
X4304500Y-22679214D02*
X4333071Y-22679214D01*
X4361643Y-22693500D01*
X4375928Y-22707786D01*
X4390214Y-22736357D01*
X4404500Y-22793500D01*
X4404500Y-22864929D01*
X4390214Y-22922071D01*
X4375928Y-22950643D01*
X4361643Y-22964929D01*
X4333071Y-22979214D01*
X4304500Y-22979214D01*
X4275928Y-22964929D01*
X4261643Y-22950643D01*
X4247357Y-22922071D01*
X4233071Y-22864929D01*
X4233071Y-22793500D01*
X4247357Y-22736357D01*
X4261643Y-22707786D01*
X4275928Y-22693500D01*
X4304500Y-22679214D01*
X4533071Y-22950643D02*
X4547357Y-22964929D01*
X4533071Y-22979214D01*
X4518786Y-22964929D01*
X4533071Y-22950643D01*
X4533071Y-22979214D01*
X4733071Y-22679214D02*
X4761643Y-22679214D01*
X4790214Y-22693500D01*
X4804500Y-22707786D01*
X4818786Y-22736357D01*
X4833071Y-22793500D01*
X4833071Y-22864929D01*
X4818786Y-22922071D01*
X4804500Y-22950643D01*
X4790214Y-22964929D01*
X4761643Y-22979214D01*
X4733071Y-22979214D01*
X4704500Y-22964929D01*
X4690214Y-22950643D01*
X4675928Y-22922071D01*
X4661643Y-22864929D01*
X4661643Y-22793500D01*
X4675928Y-22736357D01*
X4690214Y-22707786D01*
X4704500Y-22693500D01*
X4733071Y-22679214D01*
X5090214Y-22779214D02*
X5090214Y-22979214D01*
X5018786Y-22664929D02*
X4947357Y-22879214D01*
X5133071Y-22879214D01*
X5218786Y-22679214D02*
X5404500Y-22679214D01*
X5304500Y-22793500D01*
X5347357Y-22793500D01*
X5375928Y-22807786D01*
X5390214Y-22822071D01*
X5404500Y-22850643D01*
X5404500Y-22922071D01*
X5390214Y-22950643D01*
X5375928Y-22964929D01*
X5347357Y-22979214D01*
X5261643Y-22979214D01*
X5233071Y-22964929D01*
X5218786Y-22950643D01*
X5518786Y-22679214D02*
X5518786Y-22736357D01*
X5633071Y-22679214D02*
X5633071Y-22736357D01*
X6075928Y-23093500D02*
X6061643Y-23079214D01*
X6033071Y-23036357D01*
X6018786Y-23007786D01*
X6004500Y-22964929D01*
X5990214Y-22893500D01*
X5990214Y-22836357D01*
X6004500Y-22764929D01*
X6018786Y-22722071D01*
X6033071Y-22693500D01*
X6061643Y-22650643D01*
X6075928Y-22636357D01*
X6318786Y-22679214D02*
X6261643Y-22679214D01*
X6233071Y-22693500D01*
X6218786Y-22707786D01*
X6190214Y-22750643D01*
X6175928Y-22807786D01*
X6175928Y-22922071D01*
X6190214Y-22950643D01*
X6204500Y-22964929D01*
X6233071Y-22979214D01*
X6290214Y-22979214D01*
X6318786Y-22964929D01*
X6333071Y-22950643D01*
X6347357Y-22922071D01*
X6347357Y-22850643D01*
X6333071Y-22822071D01*
X6318786Y-22807786D01*
X6290214Y-22793500D01*
X6233071Y-22793500D01*
X6204500Y-22807786D01*
X6190214Y-22822071D01*
X6175928Y-22850643D01*
X6704500Y-22979214D02*
X6704500Y-22679214D01*
X6833071Y-22979214D02*
X6833071Y-22822071D01*
X6818786Y-22793500D01*
X6790214Y-22779214D01*
X6747357Y-22779214D01*
X6718786Y-22793500D01*
X6704500Y-22807786D01*
X7018786Y-22979214D02*
X6990214Y-22964929D01*
X6975928Y-22950643D01*
X6961643Y-22922071D01*
X6961643Y-22836357D01*
X6975928Y-22807786D01*
X6990214Y-22793500D01*
X7018786Y-22779214D01*
X7061643Y-22779214D01*
X7090214Y-22793500D01*
X7104500Y-22807786D01*
X7118786Y-22836357D01*
X7118786Y-22922071D01*
X7104500Y-22950643D01*
X7090214Y-22964929D01*
X7061643Y-22979214D01*
X7018786Y-22979214D01*
X7290214Y-22979214D02*
X7261643Y-22964929D01*
X7247357Y-22936357D01*
X7247357Y-22679214D01*
X7518786Y-22964929D02*
X7490214Y-22979214D01*
X7433071Y-22979214D01*
X7404500Y-22964929D01*
X7390214Y-22936357D01*
X7390214Y-22822071D01*
X7404500Y-22793500D01*
X7433071Y-22779214D01*
X7490214Y-22779214D01*
X7518786Y-22793500D01*
X7533071Y-22822071D01*
X7533071Y-22850643D01*
X7390214Y-22879214D01*
X7647357Y-22964929D02*
X7675928Y-22979214D01*
X7733071Y-22979214D01*
X7761643Y-22964929D01*
X7775928Y-22936357D01*
X7775928Y-22922071D01*
X7761643Y-22893500D01*
X7733071Y-22879214D01*
X7690214Y-22879214D01*
X7661643Y-22864929D01*
X7647357Y-22836357D01*
X7647357Y-22822071D01*
X7661643Y-22793500D01*
X7690214Y-22779214D01*
X7733071Y-22779214D01*
X7761643Y-22793500D01*
X7875928Y-23093500D02*
X7890214Y-23079214D01*
X7918786Y-23036357D01*
X7933071Y-23007786D01*
X7947357Y-22964929D01*
X7961643Y-22893500D01*
X7961643Y-22836357D01*
X7947357Y-22764929D01*
X7933071Y-22722071D01*
X7918786Y-22693500D01*
X7890214Y-22650643D01*
X7875928Y-22636357D01*
X1264100Y-23176800D02*
X1389500Y-23302200D01*
X1389500Y-23176800D02*
X1264100Y-23302200D01*
X1371136Y-23283836D02*
X1371136Y-23195164D01*
X1282464Y-23195164D01*
X1282464Y-23283836D01*
X1371136Y-23283836D01*
X1833071Y-23375214D02*
X1661643Y-23375214D01*
X1747357Y-23375214D02*
X1747357Y-23075214D01*
X1718786Y-23118071D01*
X1690214Y-23146643D01*
X1661643Y-23160929D01*
X1961643Y-23346643D02*
X1975928Y-23360929D01*
X1961643Y-23375214D01*
X1947357Y-23360929D01*
X1961643Y-23346643D01*
X1961643Y-23375214D01*
X2090214Y-23103786D02*
X2104500Y-23089500D01*
X2133071Y-23075214D01*
X2204500Y-23075214D01*
X2233071Y-23089500D01*
X2247357Y-23103786D01*
X2261643Y-23132357D01*
X2261643Y-23160929D01*
X2247357Y-23203786D01*
X2075928Y-23375214D01*
X2261643Y-23375214D01*
X2533071Y-23075214D02*
X2390214Y-23075214D01*
X2375928Y-23218071D01*
X2390214Y-23203786D01*
X2418786Y-23189500D01*
X2490214Y-23189500D01*
X2518786Y-23203786D01*
X2533071Y-23218071D01*
X2547357Y-23246643D01*
X2547357Y-23318071D01*
X2533071Y-23346643D01*
X2518786Y-23360929D01*
X2490214Y-23375214D01*
X2418786Y-23375214D01*
X2390214Y-23360929D01*
X2375928Y-23346643D01*
X2675928Y-23375214D02*
X2675928Y-23175214D01*
X2675928Y-23203786D02*
X2690214Y-23189500D01*
X2718786Y-23175214D01*
X2761643Y-23175214D01*
X2790214Y-23189500D01*
X2804500Y-23218071D01*
X2804500Y-23375214D01*
X2804500Y-23218071D02*
X2818786Y-23189500D01*
X2847357Y-23175214D01*
X2890214Y-23175214D01*
X2918786Y-23189500D01*
X2933071Y-23218071D01*
X2933071Y-23375214D01*
X3075928Y-23375214D02*
X3075928Y-23175214D01*
X3075928Y-23203786D02*
X3090214Y-23189500D01*
X3118786Y-23175214D01*
X3161643Y-23175214D01*
X3190214Y-23189500D01*
X3204500Y-23218071D01*
X3204500Y-23375214D01*
X3204500Y-23218071D02*
X3218786Y-23189500D01*
X3247357Y-23175214D01*
X3290214Y-23175214D01*
X3318786Y-23189500D01*
X3333071Y-23218071D01*
X3333071Y-23375214D01*
X3918786Y-23060929D02*
X3661643Y-23446643D01*
X4304500Y-23075214D02*
X4333071Y-23075214D01*
X4361643Y-23089500D01*
X4375928Y-23103786D01*
X4390214Y-23132357D01*
X4404500Y-23189500D01*
X4404500Y-23260929D01*
X4390214Y-23318071D01*
X4375928Y-23346643D01*
X4361643Y-23360929D01*
X4333071Y-23375214D01*
X4304500Y-23375214D01*
X4275928Y-23360929D01*
X4261643Y-23346643D01*
X4247357Y-23318071D01*
X4233071Y-23260929D01*
X4233071Y-23189500D01*
X4247357Y-23132357D01*
X4261643Y-23103786D01*
X4275928Y-23089500D01*
X4304500Y-23075214D01*
X4533071Y-23346643D02*
X4547357Y-23360929D01*
X4533071Y-23375214D01*
X4518786Y-23360929D01*
X4533071Y-23346643D01*
X4533071Y-23375214D01*
X4733071Y-23075214D02*
X4761643Y-23075214D01*
X4790214Y-23089500D01*
X4804500Y-23103786D01*
X4818786Y-23132357D01*
X4833071Y-23189500D01*
X4833071Y-23260929D01*
X4818786Y-23318071D01*
X4804500Y-23346643D01*
X4790214Y-23360929D01*
X4761643Y-23375214D01*
X4733071Y-23375214D01*
X4704500Y-23360929D01*
X4690214Y-23346643D01*
X4675928Y-23318071D01*
X4661643Y-23260929D01*
X4661643Y-23189500D01*
X4675928Y-23132357D01*
X4690214Y-23103786D01*
X4704500Y-23089500D01*
X4733071Y-23075214D01*
X5090214Y-23175214D02*
X5090214Y-23375214D01*
X5018786Y-23060929D02*
X4947357Y-23275214D01*
X5133071Y-23275214D01*
X5261643Y-23375214D02*
X5318786Y-23375214D01*
X5347357Y-23360929D01*
X5361643Y-23346643D01*
X5390214Y-23303786D01*
X5404500Y-23246643D01*
X5404500Y-23132357D01*
X5390214Y-23103786D01*
X5375928Y-23089500D01*
X5347357Y-23075214D01*
X5290214Y-23075214D01*
X5261643Y-23089500D01*
X5247357Y-23103786D01*
X5233071Y-23132357D01*
X5233071Y-23203786D01*
X5247357Y-23232357D01*
X5261643Y-23246643D01*
X5290214Y-23260929D01*
X5347357Y-23260929D01*
X5375928Y-23246643D01*
X5390214Y-23232357D01*
X5404500Y-23203786D01*
X5518786Y-23075214D02*
X5518786Y-23132357D01*
X5633071Y-23075214D02*
X5633071Y-23132357D01*
X6075928Y-23489500D02*
X6061643Y-23475214D01*
X6033071Y-23432357D01*
X6018786Y-23403786D01*
X6004500Y-23360929D01*
X5990214Y-23289500D01*
X5990214Y-23232357D01*
X6004500Y-23160929D01*
X6018786Y-23118071D01*
X6033071Y-23089500D01*
X6061643Y-23046643D01*
X6075928Y-23032357D01*
X6318786Y-23175214D02*
X6318786Y-23375214D01*
X6247357Y-23060929D02*
X6175928Y-23275214D01*
X6361643Y-23275214D01*
X6704500Y-23375214D02*
X6704500Y-23075214D01*
X6833071Y-23375214D02*
X6833071Y-23218071D01*
X6818786Y-23189500D01*
X6790214Y-23175214D01*
X6747357Y-23175214D01*
X6718786Y-23189500D01*
X6704500Y-23203786D01*
X7018786Y-23375214D02*
X6990214Y-23360929D01*
X6975928Y-23346643D01*
X6961643Y-23318071D01*
X6961643Y-23232357D01*
X6975928Y-23203786D01*
X6990214Y-23189500D01*
X7018786Y-23175214D01*
X7061643Y-23175214D01*
X7090214Y-23189500D01*
X7104500Y-23203786D01*
X7118786Y-23232357D01*
X7118786Y-23318071D01*
X7104500Y-23346643D01*
X7090214Y-23360929D01*
X7061643Y-23375214D01*
X7018786Y-23375214D01*
X7290214Y-23375214D02*
X7261643Y-23360929D01*
X7247357Y-23332357D01*
X7247357Y-23075214D01*
X7518786Y-23360929D02*
X7490214Y-23375214D01*
X7433071Y-23375214D01*
X7404500Y-23360929D01*
X7390214Y-23332357D01*
X7390214Y-23218071D01*
X7404500Y-23189500D01*
X7433071Y-23175214D01*
X7490214Y-23175214D01*
X7518786Y-23189500D01*
X7533071Y-23218071D01*
X7533071Y-23246643D01*
X7390214Y-23275214D01*
X7647357Y-23360929D02*
X7675928Y-23375214D01*
X7733071Y-23375214D01*
X7761643Y-23360929D01*
X7775928Y-23332357D01*
X7775928Y-23318071D01*
X7761643Y-23289500D01*
X7733071Y-23275214D01*
X7690214Y-23275214D01*
X7661643Y-23260929D01*
X7647357Y-23232357D01*
X7647357Y-23218071D01*
X7661643Y-23189500D01*
X7690214Y-23175214D01*
X7733071Y-23175214D01*
X7761643Y-23189500D01*
X7875928Y-23489500D02*
X7890214Y-23475214D01*
X7918786Y-23432357D01*
X7933071Y-23403786D01*
X7947357Y-23360929D01*
X7961643Y-23289500D01*
X7961643Y-23232357D01*
X7947357Y-23160929D01*
X7933071Y-23118071D01*
X7918786Y-23089500D01*
X7890214Y-23046643D01*
X7875928Y-23032357D01*
X1259500Y-23570500D02*
X1389500Y-23700500D01*
X1389500Y-23570500D02*
X1259500Y-23700500D01*
X1324500Y-23700500D02*
X1389500Y-23635500D01*
X1324500Y-23570500D01*
X1259500Y-23635500D01*
X1324500Y-23700500D01*
X1833071Y-23771214D02*
X1661643Y-23771214D01*
X1747357Y-23771214D02*
X1747357Y-23471214D01*
X1718786Y-23514071D01*
X1690214Y-23542643D01*
X1661643Y-23556929D01*
X1961643Y-23742643D02*
X1975928Y-23756929D01*
X1961643Y-23771214D01*
X1947357Y-23756929D01*
X1961643Y-23742643D01*
X1961643Y-23771214D01*
X2075928Y-23471214D02*
X2261643Y-23471214D01*
X2161643Y-23585500D01*
X2204500Y-23585500D01*
X2233071Y-23599786D01*
X2247357Y-23614071D01*
X2261643Y-23642643D01*
X2261643Y-23714071D01*
X2247357Y-23742643D01*
X2233071Y-23756929D01*
X2204500Y-23771214D01*
X2118786Y-23771214D01*
X2090214Y-23756929D01*
X2075928Y-23742643D01*
X2447357Y-23471214D02*
X2475928Y-23471214D01*
X2504500Y-23485500D01*
X2518786Y-23499786D01*
X2533071Y-23528357D01*
X2547357Y-23585500D01*
X2547357Y-23656929D01*
X2533071Y-23714071D01*
X2518786Y-23742643D01*
X2504500Y-23756929D01*
X2475928Y-23771214D01*
X2447357Y-23771214D01*
X2418786Y-23756929D01*
X2404500Y-23742643D01*
X2390214Y-23714071D01*
X2375928Y-23656929D01*
X2375928Y-23585500D01*
X2390214Y-23528357D01*
X2404500Y-23499786D01*
X2418786Y-23485500D01*
X2447357Y-23471214D01*
X2675928Y-23771214D02*
X2675928Y-23571214D01*
X2675928Y-23599786D02*
X2690214Y-23585500D01*
X2718786Y-23571214D01*
X2761643Y-23571214D01*
X2790214Y-23585500D01*
X2804500Y-23614071D01*
X2804500Y-23771214D01*
X2804500Y-23614071D02*
X2818786Y-23585500D01*
X2847357Y-23571214D01*
X2890214Y-23571214D01*
X2918786Y-23585500D01*
X2933071Y-23614071D01*
X2933071Y-23771214D01*
X3075928Y-23771214D02*
X3075928Y-23571214D01*
X3075928Y-23599786D02*
X3090214Y-23585500D01*
X3118786Y-23571214D01*
X3161643Y-23571214D01*
X3190214Y-23585500D01*
X3204500Y-23614071D01*
X3204500Y-23771214D01*
X3204500Y-23614071D02*
X3218786Y-23585500D01*
X3247357Y-23571214D01*
X3290214Y-23571214D01*
X3318786Y-23585500D01*
X3333071Y-23614071D01*
X3333071Y-23771214D01*
X3918786Y-23456929D02*
X3661643Y-23842643D01*
X4304500Y-23471214D02*
X4333071Y-23471214D01*
X4361643Y-23485500D01*
X4375928Y-23499786D01*
X4390214Y-23528357D01*
X4404500Y-23585500D01*
X4404500Y-23656929D01*
X4390214Y-23714071D01*
X4375928Y-23742643D01*
X4361643Y-23756929D01*
X4333071Y-23771214D01*
X4304500Y-23771214D01*
X4275928Y-23756929D01*
X4261643Y-23742643D01*
X4247357Y-23714071D01*
X4233071Y-23656929D01*
X4233071Y-23585500D01*
X4247357Y-23528357D01*
X4261643Y-23499786D01*
X4275928Y-23485500D01*
X4304500Y-23471214D01*
X4533071Y-23742643D02*
X4547357Y-23756929D01*
X4533071Y-23771214D01*
X4518786Y-23756929D01*
X4533071Y-23742643D01*
X4533071Y-23771214D01*
X4733071Y-23471214D02*
X4761643Y-23471214D01*
X4790214Y-23485500D01*
X4804500Y-23499786D01*
X4818786Y-23528357D01*
X4833071Y-23585500D01*
X4833071Y-23656929D01*
X4818786Y-23714071D01*
X4804500Y-23742643D01*
X4790214Y-23756929D01*
X4761643Y-23771214D01*
X4733071Y-23771214D01*
X4704500Y-23756929D01*
X4690214Y-23742643D01*
X4675928Y-23714071D01*
X4661643Y-23656929D01*
X4661643Y-23585500D01*
X4675928Y-23528357D01*
X4690214Y-23499786D01*
X4704500Y-23485500D01*
X4733071Y-23471214D01*
X5104500Y-23471214D02*
X4961643Y-23471214D01*
X4947357Y-23614071D01*
X4961643Y-23599786D01*
X4990214Y-23585500D01*
X5061643Y-23585500D01*
X5090214Y-23599786D01*
X5104500Y-23614071D01*
X5118786Y-23642643D01*
X5118786Y-23714071D01*
X5104500Y-23742643D01*
X5090214Y-23756929D01*
X5061643Y-23771214D01*
X4990214Y-23771214D01*
X4961643Y-23756929D01*
X4947357Y-23742643D01*
X5404500Y-23771214D02*
X5233071Y-23771214D01*
X5318786Y-23771214D02*
X5318786Y-23471214D01*
X5290214Y-23514071D01*
X5261643Y-23542643D01*
X5233071Y-23556929D01*
X5518786Y-23471214D02*
X5518786Y-23528357D01*
X5633071Y-23471214D02*
X5633071Y-23528357D01*
X6075928Y-23885500D02*
X6061643Y-23871214D01*
X6033071Y-23828357D01*
X6018786Y-23799786D01*
X6004500Y-23756929D01*
X5990214Y-23685500D01*
X5990214Y-23628357D01*
X6004500Y-23556929D01*
X6018786Y-23514071D01*
X6033071Y-23485500D01*
X6061643Y-23442643D01*
X6075928Y-23428357D01*
X6161643Y-23471214D02*
X6347357Y-23471214D01*
X6247357Y-23585500D01*
X6290214Y-23585500D01*
X6318786Y-23599786D01*
X6333071Y-23614071D01*
X6347357Y-23642643D01*
X6347357Y-23714071D01*
X6333071Y-23742643D01*
X6318786Y-23756929D01*
X6290214Y-23771214D01*
X6204500Y-23771214D01*
X6175928Y-23756929D01*
X6161643Y-23742643D01*
X6704500Y-23771214D02*
X6704500Y-23471214D01*
X6833071Y-23771214D02*
X6833071Y-23614071D01*
X6818786Y-23585500D01*
X6790214Y-23571214D01*
X6747357Y-23571214D01*
X6718786Y-23585500D01*
X6704500Y-23599786D01*
X7018786Y-23771214D02*
X6990214Y-23756929D01*
X6975928Y-23742643D01*
X6961643Y-23714071D01*
X6961643Y-23628357D01*
X6975928Y-23599786D01*
X6990214Y-23585500D01*
X7018786Y-23571214D01*
X7061643Y-23571214D01*
X7090214Y-23585500D01*
X7104500Y-23599786D01*
X7118786Y-23628357D01*
X7118786Y-23714071D01*
X7104500Y-23742643D01*
X7090214Y-23756929D01*
X7061643Y-23771214D01*
X7018786Y-23771214D01*
X7290214Y-23771214D02*
X7261643Y-23756929D01*
X7247357Y-23728357D01*
X7247357Y-23471214D01*
X7518786Y-23756929D02*
X7490214Y-23771214D01*
X7433071Y-23771214D01*
X7404500Y-23756929D01*
X7390214Y-23728357D01*
X7390214Y-23614071D01*
X7404500Y-23585500D01*
X7433071Y-23571214D01*
X7490214Y-23571214D01*
X7518786Y-23585500D01*
X7533071Y-23614071D01*
X7533071Y-23642643D01*
X7390214Y-23671214D01*
X7647357Y-23756929D02*
X7675928Y-23771214D01*
X7733071Y-23771214D01*
X7761643Y-23756929D01*
X7775928Y-23728357D01*
X7775928Y-23714071D01*
X7761643Y-23685500D01*
X7733071Y-23671214D01*
X7690214Y-23671214D01*
X7661643Y-23656929D01*
X7647357Y-23628357D01*
X7647357Y-23614071D01*
X7661643Y-23585500D01*
X7690214Y-23571214D01*
X7733071Y-23571214D01*
X7761643Y-23585500D01*
X7875928Y-23885500D02*
X7890214Y-23871214D01*
X7918786Y-23828357D01*
X7933071Y-23799786D01*
X7947357Y-23756929D01*
X7961643Y-23685500D01*
X7961643Y-23628357D01*
X7947357Y-23556929D01*
X7933071Y-23514071D01*
X7918786Y-23485500D01*
X7890214Y-23442643D01*
X7875928Y-23428357D01*
X1314500Y-23956500D02*
X1314500Y-24106500D01*
X1239500Y-24031500D02*
X1389500Y-24031500D01*
X1389500Y-24031500D02*
G75*
G03X1389500Y-24031500I-75000J0D01*
G01*
X1833071Y-24167214D02*
X1661643Y-24167214D01*
X1747357Y-24167214D02*
X1747357Y-23867214D01*
X1718786Y-23910071D01*
X1690214Y-23938643D01*
X1661643Y-23952929D01*
X1961643Y-24138643D02*
X1975928Y-24152929D01*
X1961643Y-24167214D01*
X1947357Y-24152929D01*
X1961643Y-24138643D01*
X1961643Y-24167214D01*
X2247357Y-23867214D02*
X2104500Y-23867214D01*
X2090214Y-24010071D01*
X2104500Y-23995786D01*
X2133071Y-23981500D01*
X2204500Y-23981500D01*
X2233071Y-23995786D01*
X2247357Y-24010071D01*
X2261643Y-24038643D01*
X2261643Y-24110071D01*
X2247357Y-24138643D01*
X2233071Y-24152929D01*
X2204500Y-24167214D01*
X2133071Y-24167214D01*
X2104500Y-24152929D01*
X2090214Y-24138643D01*
X2447357Y-23867214D02*
X2475928Y-23867214D01*
X2504500Y-23881500D01*
X2518786Y-23895786D01*
X2533071Y-23924357D01*
X2547357Y-23981500D01*
X2547357Y-24052929D01*
X2533071Y-24110071D01*
X2518786Y-24138643D01*
X2504500Y-24152929D01*
X2475928Y-24167214D01*
X2447357Y-24167214D01*
X2418786Y-24152929D01*
X2404500Y-24138643D01*
X2390214Y-24110071D01*
X2375928Y-24052929D01*
X2375928Y-23981500D01*
X2390214Y-23924357D01*
X2404500Y-23895786D01*
X2418786Y-23881500D01*
X2447357Y-23867214D01*
X2675928Y-24167214D02*
X2675928Y-23967214D01*
X2675928Y-23995786D02*
X2690214Y-23981500D01*
X2718786Y-23967214D01*
X2761643Y-23967214D01*
X2790214Y-23981500D01*
X2804500Y-24010071D01*
X2804500Y-24167214D01*
X2804500Y-24010071D02*
X2818786Y-23981500D01*
X2847357Y-23967214D01*
X2890214Y-23967214D01*
X2918786Y-23981500D01*
X2933071Y-24010071D01*
X2933071Y-24167214D01*
X3075928Y-24167214D02*
X3075928Y-23967214D01*
X3075928Y-23995786D02*
X3090214Y-23981500D01*
X3118786Y-23967214D01*
X3161643Y-23967214D01*
X3190214Y-23981500D01*
X3204500Y-24010071D01*
X3204500Y-24167214D01*
X3204500Y-24010071D02*
X3218786Y-23981500D01*
X3247357Y-23967214D01*
X3290214Y-23967214D01*
X3318786Y-23981500D01*
X3333071Y-24010071D01*
X3333071Y-24167214D01*
X3918786Y-23852929D02*
X3661643Y-24238643D01*
X4304500Y-23867214D02*
X4333071Y-23867214D01*
X4361643Y-23881500D01*
X4375928Y-23895786D01*
X4390214Y-23924357D01*
X4404500Y-23981500D01*
X4404500Y-24052929D01*
X4390214Y-24110071D01*
X4375928Y-24138643D01*
X4361643Y-24152929D01*
X4333071Y-24167214D01*
X4304500Y-24167214D01*
X4275928Y-24152929D01*
X4261643Y-24138643D01*
X4247357Y-24110071D01*
X4233071Y-24052929D01*
X4233071Y-23981500D01*
X4247357Y-23924357D01*
X4261643Y-23895786D01*
X4275928Y-23881500D01*
X4304500Y-23867214D01*
X4533071Y-24138643D02*
X4547357Y-24152929D01*
X4533071Y-24167214D01*
X4518786Y-24152929D01*
X4533071Y-24138643D01*
X4533071Y-24167214D01*
X4733071Y-23867214D02*
X4761643Y-23867214D01*
X4790214Y-23881500D01*
X4804500Y-23895786D01*
X4818786Y-23924357D01*
X4833071Y-23981500D01*
X4833071Y-24052929D01*
X4818786Y-24110071D01*
X4804500Y-24138643D01*
X4790214Y-24152929D01*
X4761643Y-24167214D01*
X4733071Y-24167214D01*
X4704500Y-24152929D01*
X4690214Y-24138643D01*
X4675928Y-24110071D01*
X4661643Y-24052929D01*
X4661643Y-23981500D01*
X4675928Y-23924357D01*
X4690214Y-23895786D01*
X4704500Y-23881500D01*
X4733071Y-23867214D01*
X5104500Y-23867214D02*
X4961643Y-23867214D01*
X4947357Y-24010071D01*
X4961643Y-23995786D01*
X4990214Y-23981500D01*
X5061643Y-23981500D01*
X5090214Y-23995786D01*
X5104500Y-24010071D01*
X5118786Y-24038643D01*
X5118786Y-24110071D01*
X5104500Y-24138643D01*
X5090214Y-24152929D01*
X5061643Y-24167214D01*
X4990214Y-24167214D01*
X4961643Y-24152929D01*
X4947357Y-24138643D01*
X5261643Y-24167214D02*
X5318786Y-24167214D01*
X5347357Y-24152929D01*
X5361643Y-24138643D01*
X5390214Y-24095786D01*
X5404500Y-24038643D01*
X5404500Y-23924357D01*
X5390214Y-23895786D01*
X5375928Y-23881500D01*
X5347357Y-23867214D01*
X5290214Y-23867214D01*
X5261643Y-23881500D01*
X5247357Y-23895786D01*
X5233071Y-23924357D01*
X5233071Y-23995786D01*
X5247357Y-24024357D01*
X5261643Y-24038643D01*
X5290214Y-24052929D01*
X5347357Y-24052929D01*
X5375928Y-24038643D01*
X5390214Y-24024357D01*
X5404500Y-23995786D01*
X5518786Y-23867214D02*
X5518786Y-23924357D01*
X5633071Y-23867214D02*
X5633071Y-23924357D01*
X6075928Y-24281500D02*
X6061643Y-24267214D01*
X6033071Y-24224357D01*
X6018786Y-24195786D01*
X6004500Y-24152929D01*
X5990214Y-24081500D01*
X5990214Y-24024357D01*
X6004500Y-23952929D01*
X6018786Y-23910071D01*
X6033071Y-23881500D01*
X6061643Y-23838643D01*
X6075928Y-23824357D01*
X6175928Y-23895786D02*
X6190214Y-23881500D01*
X6218786Y-23867214D01*
X6290214Y-23867214D01*
X6318786Y-23881500D01*
X6333071Y-23895786D01*
X6347357Y-23924357D01*
X6347357Y-23952929D01*
X6333071Y-23995786D01*
X6161643Y-24167214D01*
X6347357Y-24167214D01*
X6604500Y-23967214D02*
X6604500Y-24167214D01*
X6533071Y-23852929D02*
X6461643Y-24067214D01*
X6647357Y-24067214D01*
X6990214Y-24167214D02*
X6990214Y-23867214D01*
X7118786Y-24167214D02*
X7118786Y-24010071D01*
X7104500Y-23981500D01*
X7075928Y-23967214D01*
X7033071Y-23967214D01*
X7004500Y-23981500D01*
X6990214Y-23995786D01*
X7304500Y-24167214D02*
X7275928Y-24152929D01*
X7261643Y-24138643D01*
X7247357Y-24110071D01*
X7247357Y-24024357D01*
X7261643Y-23995786D01*
X7275928Y-23981500D01*
X7304500Y-23967214D01*
X7347357Y-23967214D01*
X7375928Y-23981500D01*
X7390214Y-23995786D01*
X7404500Y-24024357D01*
X7404500Y-24110071D01*
X7390214Y-24138643D01*
X7375928Y-24152929D01*
X7347357Y-24167214D01*
X7304500Y-24167214D01*
X7575928Y-24167214D02*
X7547357Y-24152929D01*
X7533071Y-24124357D01*
X7533071Y-23867214D01*
X7804500Y-24152929D02*
X7775928Y-24167214D01*
X7718786Y-24167214D01*
X7690214Y-24152929D01*
X7675928Y-24124357D01*
X7675928Y-24010071D01*
X7690214Y-23981500D01*
X7718786Y-23967214D01*
X7775928Y-23967214D01*
X7804500Y-23981500D01*
X7818786Y-24010071D01*
X7818786Y-24038643D01*
X7675928Y-24067214D01*
X7933071Y-24152929D02*
X7961643Y-24167214D01*
X8018786Y-24167214D01*
X8047357Y-24152929D01*
X8061643Y-24124357D01*
X8061643Y-24110071D01*
X8047357Y-24081500D01*
X8018786Y-24067214D01*
X7975928Y-24067214D01*
X7947357Y-24052929D01*
X7933071Y-24024357D01*
X7933071Y-24010071D01*
X7947357Y-23981500D01*
X7975928Y-23967214D01*
X8018786Y-23967214D01*
X8047357Y-23981500D01*
X8161643Y-24281500D02*
X8175928Y-24267214D01*
X8204500Y-24224357D01*
X8218786Y-24195786D01*
X8233071Y-24152929D01*
X8247357Y-24081500D01*
X8247357Y-24024357D01*
X8233071Y-23952929D01*
X8218786Y-23910071D01*
X8204500Y-23881500D01*
X8175928Y-23838643D01*
X8161643Y-23824357D01*
X1366069Y-24484069D02*
X1366069Y-24370931D01*
X1252931Y-24370931D01*
X1252931Y-24484069D01*
X1366069Y-24484069D01*
X1389500Y-24427500D02*
G75*
G03X1389500Y-24427500I-80000J0D01*
G01*
X1833071Y-24563214D02*
X1661643Y-24563214D01*
X1747357Y-24563214D02*
X1747357Y-24263214D01*
X1718786Y-24306071D01*
X1690214Y-24334643D01*
X1661643Y-24348929D01*
X1961643Y-24534643D02*
X1975928Y-24548929D01*
X1961643Y-24563214D01*
X1947357Y-24548929D01*
X1961643Y-24534643D01*
X1961643Y-24563214D01*
X2233071Y-24263214D02*
X2175928Y-24263214D01*
X2147357Y-24277500D01*
X2133071Y-24291786D01*
X2104500Y-24334643D01*
X2090214Y-24391786D01*
X2090214Y-24506071D01*
X2104500Y-24534643D01*
X2118786Y-24548929D01*
X2147357Y-24563214D01*
X2204500Y-24563214D01*
X2233071Y-24548929D01*
X2247357Y-24534643D01*
X2261643Y-24506071D01*
X2261643Y-24434643D01*
X2247357Y-24406071D01*
X2233071Y-24391786D01*
X2204500Y-24377500D01*
X2147357Y-24377500D01*
X2118786Y-24391786D01*
X2104500Y-24406071D01*
X2090214Y-24434643D01*
X2447357Y-24263214D02*
X2475928Y-24263214D01*
X2504500Y-24277500D01*
X2518786Y-24291786D01*
X2533071Y-24320357D01*
X2547357Y-24377500D01*
X2547357Y-24448929D01*
X2533071Y-24506071D01*
X2518786Y-24534643D01*
X2504500Y-24548929D01*
X2475928Y-24563214D01*
X2447357Y-24563214D01*
X2418786Y-24548929D01*
X2404500Y-24534643D01*
X2390214Y-24506071D01*
X2375928Y-24448929D01*
X2375928Y-24377500D01*
X2390214Y-24320357D01*
X2404500Y-24291786D01*
X2418786Y-24277500D01*
X2447357Y-24263214D01*
X2675928Y-24563214D02*
X2675928Y-24363214D01*
X2675928Y-24391786D02*
X2690214Y-24377500D01*
X2718786Y-24363214D01*
X2761643Y-24363214D01*
X2790214Y-24377500D01*
X2804500Y-24406071D01*
X2804500Y-24563214D01*
X2804500Y-24406071D02*
X2818786Y-24377500D01*
X2847357Y-24363214D01*
X2890214Y-24363214D01*
X2918786Y-24377500D01*
X2933071Y-24406071D01*
X2933071Y-24563214D01*
X3075928Y-24563214D02*
X3075928Y-24363214D01*
X3075928Y-24391786D02*
X3090214Y-24377500D01*
X3118786Y-24363214D01*
X3161643Y-24363214D01*
X3190214Y-24377500D01*
X3204500Y-24406071D01*
X3204500Y-24563214D01*
X3204500Y-24406071D02*
X3218786Y-24377500D01*
X3247357Y-24363214D01*
X3290214Y-24363214D01*
X3318786Y-24377500D01*
X3333071Y-24406071D01*
X3333071Y-24563214D01*
X3918786Y-24248929D02*
X3661643Y-24634643D01*
X4304500Y-24263214D02*
X4333071Y-24263214D01*
X4361643Y-24277500D01*
X4375928Y-24291786D01*
X4390214Y-24320357D01*
X4404500Y-24377500D01*
X4404500Y-24448929D01*
X4390214Y-24506071D01*
X4375928Y-24534643D01*
X4361643Y-24548929D01*
X4333071Y-24563214D01*
X4304500Y-24563214D01*
X4275928Y-24548929D01*
X4261643Y-24534643D01*
X4247357Y-24506071D01*
X4233071Y-24448929D01*
X4233071Y-24377500D01*
X4247357Y-24320357D01*
X4261643Y-24291786D01*
X4275928Y-24277500D01*
X4304500Y-24263214D01*
X4533071Y-24534643D02*
X4547357Y-24548929D01*
X4533071Y-24563214D01*
X4518786Y-24548929D01*
X4533071Y-24534643D01*
X4533071Y-24563214D01*
X4733071Y-24263214D02*
X4761643Y-24263214D01*
X4790214Y-24277500D01*
X4804500Y-24291786D01*
X4818786Y-24320357D01*
X4833071Y-24377500D01*
X4833071Y-24448929D01*
X4818786Y-24506071D01*
X4804500Y-24534643D01*
X4790214Y-24548929D01*
X4761643Y-24563214D01*
X4733071Y-24563214D01*
X4704500Y-24548929D01*
X4690214Y-24534643D01*
X4675928Y-24506071D01*
X4661643Y-24448929D01*
X4661643Y-24377500D01*
X4675928Y-24320357D01*
X4690214Y-24291786D01*
X4704500Y-24277500D01*
X4733071Y-24263214D01*
X5090214Y-24263214D02*
X5033071Y-24263214D01*
X5004500Y-24277500D01*
X4990214Y-24291786D01*
X4961643Y-24334643D01*
X4947357Y-24391786D01*
X4947357Y-24506071D01*
X4961643Y-24534643D01*
X4975928Y-24548929D01*
X5004500Y-24563214D01*
X5061643Y-24563214D01*
X5090214Y-24548929D01*
X5104500Y-24534643D01*
X5118786Y-24506071D01*
X5118786Y-24434643D01*
X5104500Y-24406071D01*
X5090214Y-24391786D01*
X5061643Y-24377500D01*
X5004500Y-24377500D01*
X4975928Y-24391786D01*
X4961643Y-24406071D01*
X4947357Y-24434643D01*
X5218786Y-24263214D02*
X5404500Y-24263214D01*
X5304500Y-24377500D01*
X5347357Y-24377500D01*
X5375928Y-24391786D01*
X5390214Y-24406071D01*
X5404500Y-24434643D01*
X5404500Y-24506071D01*
X5390214Y-24534643D01*
X5375928Y-24548929D01*
X5347357Y-24563214D01*
X5261643Y-24563214D01*
X5233071Y-24548929D01*
X5218786Y-24534643D01*
X5518786Y-24263214D02*
X5518786Y-24320357D01*
X5633071Y-24263214D02*
X5633071Y-24320357D01*
X6075928Y-24677500D02*
X6061643Y-24663214D01*
X6033071Y-24620357D01*
X6018786Y-24591786D01*
X6004500Y-24548929D01*
X5990214Y-24477500D01*
X5990214Y-24420357D01*
X6004500Y-24348929D01*
X6018786Y-24306071D01*
X6033071Y-24277500D01*
X6061643Y-24234643D01*
X6075928Y-24220357D01*
X6175928Y-24291786D02*
X6190214Y-24277500D01*
X6218786Y-24263214D01*
X6290214Y-24263214D01*
X6318786Y-24277500D01*
X6333071Y-24291786D01*
X6347357Y-24320357D01*
X6347357Y-24348929D01*
X6333071Y-24391786D01*
X6161643Y-24563214D01*
X6347357Y-24563214D01*
X6447357Y-24263214D02*
X6633071Y-24263214D01*
X6533071Y-24377500D01*
X6575928Y-24377500D01*
X6604500Y-24391786D01*
X6618786Y-24406071D01*
X6633071Y-24434643D01*
X6633071Y-24506071D01*
X6618786Y-24534643D01*
X6604500Y-24548929D01*
X6575928Y-24563214D01*
X6490214Y-24563214D01*
X6461643Y-24548929D01*
X6447357Y-24534643D01*
X6990214Y-24563214D02*
X6990214Y-24263214D01*
X7118786Y-24563214D02*
X7118786Y-24406071D01*
X7104500Y-24377500D01*
X7075928Y-24363214D01*
X7033071Y-24363214D01*
X7004500Y-24377500D01*
X6990214Y-24391786D01*
X7304500Y-24563214D02*
X7275928Y-24548929D01*
X7261643Y-24534643D01*
X7247357Y-24506071D01*
X7247357Y-24420357D01*
X7261643Y-24391786D01*
X7275928Y-24377500D01*
X7304500Y-24363214D01*
X7347357Y-24363214D01*
X7375928Y-24377500D01*
X7390214Y-24391786D01*
X7404500Y-24420357D01*
X7404500Y-24506071D01*
X7390214Y-24534643D01*
X7375928Y-24548929D01*
X7347357Y-24563214D01*
X7304500Y-24563214D01*
X7575928Y-24563214D02*
X7547357Y-24548929D01*
X7533071Y-24520357D01*
X7533071Y-24263214D01*
X7804500Y-24548929D02*
X7775928Y-24563214D01*
X7718786Y-24563214D01*
X7690214Y-24548929D01*
X7675928Y-24520357D01*
X7675928Y-24406071D01*
X7690214Y-24377500D01*
X7718786Y-24363214D01*
X7775928Y-24363214D01*
X7804500Y-24377500D01*
X7818786Y-24406071D01*
X7818786Y-24434643D01*
X7675928Y-24463214D01*
X7933071Y-24548929D02*
X7961643Y-24563214D01*
X8018786Y-24563214D01*
X8047357Y-24548929D01*
X8061643Y-24520357D01*
X8061643Y-24506071D01*
X8047357Y-24477500D01*
X8018786Y-24463214D01*
X7975928Y-24463214D01*
X7947357Y-24448929D01*
X7933071Y-24420357D01*
X7933071Y-24406071D01*
X7947357Y-24377500D01*
X7975928Y-24363214D01*
X8018786Y-24363214D01*
X8047357Y-24377500D01*
X8161643Y-24677500D02*
X8175928Y-24663214D01*
X8204500Y-24620357D01*
X8218786Y-24591786D01*
X8233071Y-24548929D01*
X8247357Y-24477500D01*
X8247357Y-24420357D01*
X8233071Y-24348929D01*
X8218786Y-24306071D01*
X8204500Y-24277500D01*
X8175928Y-24234643D01*
X8161643Y-24220357D01*
X1280500Y-24932500D02*
X1389500Y-24823500D01*
X1280500Y-24714500D01*
X1171500Y-24823500D01*
X1280500Y-24932500D01*
X1389500Y-24823500D02*
G75*
G03X1389500Y-24823500I-109000J0D01*
G01*
X1661643Y-24687786D02*
X1675928Y-24673500D01*
X1704500Y-24659214D01*
X1775928Y-24659214D01*
X1804500Y-24673500D01*
X1818786Y-24687786D01*
X1833071Y-24716357D01*
X1833071Y-24744929D01*
X1818786Y-24787786D01*
X1647357Y-24959214D01*
X1833071Y-24959214D01*
X1961643Y-24930643D02*
X1975928Y-24944929D01*
X1961643Y-24959214D01*
X1947357Y-24944929D01*
X1961643Y-24930643D01*
X1961643Y-24959214D01*
X2261643Y-24959214D02*
X2090214Y-24959214D01*
X2175928Y-24959214D02*
X2175928Y-24659214D01*
X2147357Y-24702071D01*
X2118786Y-24730643D01*
X2090214Y-24744929D01*
X2433071Y-24787786D02*
X2404500Y-24773500D01*
X2390214Y-24759214D01*
X2375928Y-24730643D01*
X2375928Y-24716357D01*
X2390214Y-24687786D01*
X2404500Y-24673500D01*
X2433071Y-24659214D01*
X2490214Y-24659214D01*
X2518786Y-24673500D01*
X2533071Y-24687786D01*
X2547357Y-24716357D01*
X2547357Y-24730643D01*
X2533071Y-24759214D01*
X2518786Y-24773500D01*
X2490214Y-24787786D01*
X2433071Y-24787786D01*
X2404500Y-24802071D01*
X2390214Y-24816357D01*
X2375928Y-24844929D01*
X2375928Y-24902071D01*
X2390214Y-24930643D01*
X2404500Y-24944929D01*
X2433071Y-24959214D01*
X2490214Y-24959214D01*
X2518786Y-24944929D01*
X2533071Y-24930643D01*
X2547357Y-24902071D01*
X2547357Y-24844929D01*
X2533071Y-24816357D01*
X2518786Y-24802071D01*
X2490214Y-24787786D01*
X2675928Y-24959214D02*
X2675928Y-24759214D01*
X2675928Y-24787786D02*
X2690214Y-24773500D01*
X2718786Y-24759214D01*
X2761643Y-24759214D01*
X2790214Y-24773500D01*
X2804500Y-24802071D01*
X2804500Y-24959214D01*
X2804500Y-24802071D02*
X2818786Y-24773500D01*
X2847357Y-24759214D01*
X2890214Y-24759214D01*
X2918786Y-24773500D01*
X2933071Y-24802071D01*
X2933071Y-24959214D01*
X3075928Y-24959214D02*
X3075928Y-24759214D01*
X3075928Y-24787786D02*
X3090214Y-24773500D01*
X3118786Y-24759214D01*
X3161643Y-24759214D01*
X3190214Y-24773500D01*
X3204500Y-24802071D01*
X3204500Y-24959214D01*
X3204500Y-24802071D02*
X3218786Y-24773500D01*
X3247357Y-24759214D01*
X3290214Y-24759214D01*
X3318786Y-24773500D01*
X3333071Y-24802071D01*
X3333071Y-24959214D01*
X3918786Y-24644929D02*
X3661643Y-25030643D01*
X4304500Y-24659214D02*
X4333071Y-24659214D01*
X4361643Y-24673500D01*
X4375928Y-24687786D01*
X4390214Y-24716357D01*
X4404500Y-24773500D01*
X4404500Y-24844929D01*
X4390214Y-24902071D01*
X4375928Y-24930643D01*
X4361643Y-24944929D01*
X4333071Y-24959214D01*
X4304500Y-24959214D01*
X4275928Y-24944929D01*
X4261643Y-24930643D01*
X4247357Y-24902071D01*
X4233071Y-24844929D01*
X4233071Y-24773500D01*
X4247357Y-24716357D01*
X4261643Y-24687786D01*
X4275928Y-24673500D01*
X4304500Y-24659214D01*
X4533071Y-24930643D02*
X4547357Y-24944929D01*
X4533071Y-24959214D01*
X4518786Y-24944929D01*
X4533071Y-24930643D01*
X4533071Y-24959214D01*
X4733071Y-24659214D02*
X4761643Y-24659214D01*
X4790214Y-24673500D01*
X4804500Y-24687786D01*
X4818786Y-24716357D01*
X4833071Y-24773500D01*
X4833071Y-24844929D01*
X4818786Y-24902071D01*
X4804500Y-24930643D01*
X4790214Y-24944929D01*
X4761643Y-24959214D01*
X4733071Y-24959214D01*
X4704500Y-24944929D01*
X4690214Y-24930643D01*
X4675928Y-24902071D01*
X4661643Y-24844929D01*
X4661643Y-24773500D01*
X4675928Y-24716357D01*
X4690214Y-24687786D01*
X4704500Y-24673500D01*
X4733071Y-24659214D01*
X5004500Y-24787786D02*
X4975928Y-24773500D01*
X4961643Y-24759214D01*
X4947357Y-24730643D01*
X4947357Y-24716357D01*
X4961643Y-24687786D01*
X4975928Y-24673500D01*
X5004500Y-24659214D01*
X5061643Y-24659214D01*
X5090214Y-24673500D01*
X5104500Y-24687786D01*
X5118786Y-24716357D01*
X5118786Y-24730643D01*
X5104500Y-24759214D01*
X5090214Y-24773500D01*
X5061643Y-24787786D01*
X5004500Y-24787786D01*
X4975928Y-24802071D01*
X4961643Y-24816357D01*
X4947357Y-24844929D01*
X4947357Y-24902071D01*
X4961643Y-24930643D01*
X4975928Y-24944929D01*
X5004500Y-24959214D01*
X5061643Y-24959214D01*
X5090214Y-24944929D01*
X5104500Y-24930643D01*
X5118786Y-24902071D01*
X5118786Y-24844929D01*
X5104500Y-24816357D01*
X5090214Y-24802071D01*
X5061643Y-24787786D01*
X5375928Y-24659214D02*
X5318786Y-24659214D01*
X5290214Y-24673500D01*
X5275928Y-24687786D01*
X5247357Y-24730643D01*
X5233071Y-24787786D01*
X5233071Y-24902071D01*
X5247357Y-24930643D01*
X5261643Y-24944929D01*
X5290214Y-24959214D01*
X5347357Y-24959214D01*
X5375928Y-24944929D01*
X5390214Y-24930643D01*
X5404500Y-24902071D01*
X5404500Y-24830643D01*
X5390214Y-24802071D01*
X5375928Y-24787786D01*
X5347357Y-24773500D01*
X5290214Y-24773500D01*
X5261643Y-24787786D01*
X5247357Y-24802071D01*
X5233071Y-24830643D01*
X5518786Y-24659214D02*
X5518786Y-24716357D01*
X5633071Y-24659214D02*
X5633071Y-24716357D01*
X6075928Y-25073500D02*
X6061643Y-25059214D01*
X6033071Y-25016357D01*
X6018786Y-24987786D01*
X6004500Y-24944929D01*
X5990214Y-24873500D01*
X5990214Y-24816357D01*
X6004500Y-24744929D01*
X6018786Y-24702071D01*
X6033071Y-24673500D01*
X6061643Y-24630643D01*
X6075928Y-24616357D01*
X6347357Y-24959214D02*
X6175928Y-24959214D01*
X6261643Y-24959214D02*
X6261643Y-24659214D01*
X6233071Y-24702071D01*
X6204500Y-24730643D01*
X6175928Y-24744929D01*
X6461643Y-24687786D02*
X6475928Y-24673500D01*
X6504500Y-24659214D01*
X6575928Y-24659214D01*
X6604500Y-24673500D01*
X6618786Y-24687786D01*
X6633071Y-24716357D01*
X6633071Y-24744929D01*
X6618786Y-24787786D01*
X6447357Y-24959214D01*
X6633071Y-24959214D01*
X6990214Y-24959214D02*
X6990214Y-24659214D01*
X7118786Y-24959214D02*
X7118786Y-24802071D01*
X7104500Y-24773500D01*
X7075928Y-24759214D01*
X7033071Y-24759214D01*
X7004500Y-24773500D01*
X6990214Y-24787786D01*
X7304500Y-24959214D02*
X7275928Y-24944929D01*
X7261643Y-24930643D01*
X7247357Y-24902071D01*
X7247357Y-24816357D01*
X7261643Y-24787786D01*
X7275928Y-24773500D01*
X7304500Y-24759214D01*
X7347357Y-24759214D01*
X7375928Y-24773500D01*
X7390214Y-24787786D01*
X7404500Y-24816357D01*
X7404500Y-24902071D01*
X7390214Y-24930643D01*
X7375928Y-24944929D01*
X7347357Y-24959214D01*
X7304500Y-24959214D01*
X7575928Y-24959214D02*
X7547357Y-24944929D01*
X7533071Y-24916357D01*
X7533071Y-24659214D01*
X7804500Y-24944929D02*
X7775928Y-24959214D01*
X7718786Y-24959214D01*
X7690214Y-24944929D01*
X7675928Y-24916357D01*
X7675928Y-24802071D01*
X7690214Y-24773500D01*
X7718786Y-24759214D01*
X7775928Y-24759214D01*
X7804500Y-24773500D01*
X7818786Y-24802071D01*
X7818786Y-24830643D01*
X7675928Y-24859214D01*
X7933071Y-24944929D02*
X7961643Y-24959214D01*
X8018786Y-24959214D01*
X8047357Y-24944929D01*
X8061643Y-24916357D01*
X8061643Y-24902071D01*
X8047357Y-24873500D01*
X8018786Y-24859214D01*
X7975928Y-24859214D01*
X7947357Y-24844929D01*
X7933071Y-24816357D01*
X7933071Y-24802071D01*
X7947357Y-24773500D01*
X7975928Y-24759214D01*
X8018786Y-24759214D01*
X8047357Y-24773500D01*
X8161643Y-25073500D02*
X8175928Y-25059214D01*
X8204500Y-25016357D01*
X8218786Y-24987786D01*
X8233071Y-24944929D01*
X8247357Y-24873500D01*
X8247357Y-24816357D01*
X8233071Y-24744929D01*
X8218786Y-24702071D01*
X8204500Y-24673500D01*
X8175928Y-24630643D01*
X8161643Y-24616357D01*
X1276800Y-25106800D02*
X1276800Y-25332200D01*
X1164100Y-25219500D02*
X1389500Y-25219500D01*
X1356492Y-25299192D02*
X1356492Y-25139808D01*
X1197108Y-25139808D01*
X1197108Y-25299192D01*
X1356492Y-25299192D01*
X1661643Y-25083786D02*
X1675928Y-25069500D01*
X1704500Y-25055214D01*
X1775928Y-25055214D01*
X1804500Y-25069500D01*
X1818786Y-25083786D01*
X1833071Y-25112357D01*
X1833071Y-25140929D01*
X1818786Y-25183786D01*
X1647357Y-25355214D01*
X1833071Y-25355214D01*
X1961643Y-25326643D02*
X1975928Y-25340929D01*
X1961643Y-25355214D01*
X1947357Y-25340929D01*
X1961643Y-25326643D01*
X1961643Y-25355214D01*
X2090214Y-25083786D02*
X2104500Y-25069500D01*
X2133071Y-25055214D01*
X2204500Y-25055214D01*
X2233071Y-25069500D01*
X2247357Y-25083786D01*
X2261643Y-25112357D01*
X2261643Y-25140929D01*
X2247357Y-25183786D01*
X2075928Y-25355214D01*
X2261643Y-25355214D01*
X2533071Y-25055214D02*
X2390214Y-25055214D01*
X2375928Y-25198071D01*
X2390214Y-25183786D01*
X2418786Y-25169500D01*
X2490214Y-25169500D01*
X2518786Y-25183786D01*
X2533071Y-25198071D01*
X2547357Y-25226643D01*
X2547357Y-25298071D01*
X2533071Y-25326643D01*
X2518786Y-25340929D01*
X2490214Y-25355214D01*
X2418786Y-25355214D01*
X2390214Y-25340929D01*
X2375928Y-25326643D01*
X2675928Y-25355214D02*
X2675928Y-25155214D01*
X2675928Y-25183786D02*
X2690214Y-25169500D01*
X2718786Y-25155214D01*
X2761643Y-25155214D01*
X2790214Y-25169500D01*
X2804500Y-25198071D01*
X2804500Y-25355214D01*
X2804500Y-25198071D02*
X2818786Y-25169500D01*
X2847357Y-25155214D01*
X2890214Y-25155214D01*
X2918786Y-25169500D01*
X2933071Y-25198071D01*
X2933071Y-25355214D01*
X3075928Y-25355214D02*
X3075928Y-25155214D01*
X3075928Y-25183786D02*
X3090214Y-25169500D01*
X3118786Y-25155214D01*
X3161643Y-25155214D01*
X3190214Y-25169500D01*
X3204500Y-25198071D01*
X3204500Y-25355214D01*
X3204500Y-25198071D02*
X3218786Y-25169500D01*
X3247357Y-25155214D01*
X3290214Y-25155214D01*
X3318786Y-25169500D01*
X3333071Y-25198071D01*
X3333071Y-25355214D01*
X3918786Y-25040929D02*
X3661643Y-25426643D01*
X4304500Y-25055214D02*
X4333071Y-25055214D01*
X4361643Y-25069500D01*
X4375928Y-25083786D01*
X4390214Y-25112357D01*
X4404500Y-25169500D01*
X4404500Y-25240929D01*
X4390214Y-25298071D01*
X4375928Y-25326643D01*
X4361643Y-25340929D01*
X4333071Y-25355214D01*
X4304500Y-25355214D01*
X4275928Y-25340929D01*
X4261643Y-25326643D01*
X4247357Y-25298071D01*
X4233071Y-25240929D01*
X4233071Y-25169500D01*
X4247357Y-25112357D01*
X4261643Y-25083786D01*
X4275928Y-25069500D01*
X4304500Y-25055214D01*
X4533071Y-25326643D02*
X4547357Y-25340929D01*
X4533071Y-25355214D01*
X4518786Y-25340929D01*
X4533071Y-25326643D01*
X4533071Y-25355214D01*
X4733071Y-25055214D02*
X4761643Y-25055214D01*
X4790214Y-25069500D01*
X4804500Y-25083786D01*
X4818786Y-25112357D01*
X4833071Y-25169500D01*
X4833071Y-25240929D01*
X4818786Y-25298071D01*
X4804500Y-25326643D01*
X4790214Y-25340929D01*
X4761643Y-25355214D01*
X4733071Y-25355214D01*
X4704500Y-25340929D01*
X4690214Y-25326643D01*
X4675928Y-25298071D01*
X4661643Y-25240929D01*
X4661643Y-25169500D01*
X4675928Y-25112357D01*
X4690214Y-25083786D01*
X4704500Y-25069500D01*
X4733071Y-25055214D01*
X5004500Y-25183786D02*
X4975928Y-25169500D01*
X4961643Y-25155214D01*
X4947357Y-25126643D01*
X4947357Y-25112357D01*
X4961643Y-25083786D01*
X4975928Y-25069500D01*
X5004500Y-25055214D01*
X5061643Y-25055214D01*
X5090214Y-25069500D01*
X5104500Y-25083786D01*
X5118786Y-25112357D01*
X5118786Y-25126643D01*
X5104500Y-25155214D01*
X5090214Y-25169500D01*
X5061643Y-25183786D01*
X5004500Y-25183786D01*
X4975928Y-25198071D01*
X4961643Y-25212357D01*
X4947357Y-25240929D01*
X4947357Y-25298071D01*
X4961643Y-25326643D01*
X4975928Y-25340929D01*
X5004500Y-25355214D01*
X5061643Y-25355214D01*
X5090214Y-25340929D01*
X5104500Y-25326643D01*
X5118786Y-25298071D01*
X5118786Y-25240929D01*
X5104500Y-25212357D01*
X5090214Y-25198071D01*
X5061643Y-25183786D01*
X5261643Y-25355214D02*
X5318786Y-25355214D01*
X5347357Y-25340929D01*
X5361643Y-25326643D01*
X5390214Y-25283786D01*
X5404500Y-25226643D01*
X5404500Y-25112357D01*
X5390214Y-25083786D01*
X5375928Y-25069500D01*
X5347357Y-25055214D01*
X5290214Y-25055214D01*
X5261643Y-25069500D01*
X5247357Y-25083786D01*
X5233071Y-25112357D01*
X5233071Y-25183786D01*
X5247357Y-25212357D01*
X5261643Y-25226643D01*
X5290214Y-25240929D01*
X5347357Y-25240929D01*
X5375928Y-25226643D01*
X5390214Y-25212357D01*
X5404500Y-25183786D01*
X5518786Y-25055214D02*
X5518786Y-25112357D01*
X5633071Y-25055214D02*
X5633071Y-25112357D01*
X6075928Y-25469500D02*
X6061643Y-25455214D01*
X6033071Y-25412357D01*
X6018786Y-25383786D01*
X6004500Y-25340929D01*
X5990214Y-25269500D01*
X5990214Y-25212357D01*
X6004500Y-25140929D01*
X6018786Y-25098071D01*
X6033071Y-25069500D01*
X6061643Y-25026643D01*
X6075928Y-25012357D01*
X6318786Y-25155214D02*
X6318786Y-25355214D01*
X6247357Y-25040929D02*
X6175928Y-25255214D01*
X6361643Y-25255214D01*
X6704500Y-25355214D02*
X6704500Y-25055214D01*
X6833071Y-25355214D02*
X6833071Y-25198071D01*
X6818786Y-25169500D01*
X6790214Y-25155214D01*
X6747357Y-25155214D01*
X6718786Y-25169500D01*
X6704500Y-25183786D01*
X7018786Y-25355214D02*
X6990214Y-25340929D01*
X6975928Y-25326643D01*
X6961643Y-25298071D01*
X6961643Y-25212357D01*
X6975928Y-25183786D01*
X6990214Y-25169500D01*
X7018786Y-25155214D01*
X7061643Y-25155214D01*
X7090214Y-25169500D01*
X7104500Y-25183786D01*
X7118786Y-25212357D01*
X7118786Y-25298071D01*
X7104500Y-25326643D01*
X7090214Y-25340929D01*
X7061643Y-25355214D01*
X7018786Y-25355214D01*
X7290214Y-25355214D02*
X7261643Y-25340929D01*
X7247357Y-25312357D01*
X7247357Y-25055214D01*
X7518786Y-25340929D02*
X7490214Y-25355214D01*
X7433071Y-25355214D01*
X7404500Y-25340929D01*
X7390214Y-25312357D01*
X7390214Y-25198071D01*
X7404500Y-25169500D01*
X7433071Y-25155214D01*
X7490214Y-25155214D01*
X7518786Y-25169500D01*
X7533071Y-25198071D01*
X7533071Y-25226643D01*
X7390214Y-25255214D01*
X7647357Y-25340929D02*
X7675928Y-25355214D01*
X7733071Y-25355214D01*
X7761643Y-25340929D01*
X7775928Y-25312357D01*
X7775928Y-25298071D01*
X7761643Y-25269500D01*
X7733071Y-25255214D01*
X7690214Y-25255214D01*
X7661643Y-25240929D01*
X7647357Y-25212357D01*
X7647357Y-25198071D01*
X7661643Y-25169500D01*
X7690214Y-25155214D01*
X7733071Y-25155214D01*
X7761643Y-25169500D01*
X7875928Y-25469500D02*
X7890214Y-25455214D01*
X7918786Y-25412357D01*
X7933071Y-25383786D01*
X7947357Y-25340929D01*
X7961643Y-25269500D01*
X7961643Y-25212357D01*
X7947357Y-25140929D01*
X7933071Y-25098071D01*
X7918786Y-25069500D01*
X7890214Y-25026643D01*
X7875928Y-25012357D01*
X1259500Y-25485500D02*
X1259500Y-25745500D01*
X1129500Y-25615500D02*
X1389500Y-25615500D01*
X1259500Y-25745500D02*
X1389500Y-25615500D01*
X1259500Y-25485500D01*
X1129500Y-25615500D01*
X1259500Y-25745500D01*
X1661643Y-25479786D02*
X1675928Y-25465500D01*
X1704500Y-25451214D01*
X1775928Y-25451214D01*
X1804500Y-25465500D01*
X1818786Y-25479786D01*
X1833071Y-25508357D01*
X1833071Y-25536929D01*
X1818786Y-25579786D01*
X1647357Y-25751214D01*
X1833071Y-25751214D01*
X1961643Y-25722643D02*
X1975928Y-25736929D01*
X1961643Y-25751214D01*
X1947357Y-25736929D01*
X1961643Y-25722643D01*
X1961643Y-25751214D01*
X2233071Y-25451214D02*
X2175928Y-25451214D01*
X2147357Y-25465500D01*
X2133071Y-25479786D01*
X2104500Y-25522643D01*
X2090214Y-25579786D01*
X2090214Y-25694071D01*
X2104500Y-25722643D01*
X2118786Y-25736929D01*
X2147357Y-25751214D01*
X2204500Y-25751214D01*
X2233071Y-25736929D01*
X2247357Y-25722643D01*
X2261643Y-25694071D01*
X2261643Y-25622643D01*
X2247357Y-25594071D01*
X2233071Y-25579786D01*
X2204500Y-25565500D01*
X2147357Y-25565500D01*
X2118786Y-25579786D01*
X2104500Y-25594071D01*
X2090214Y-25622643D01*
X2447357Y-25451214D02*
X2475928Y-25451214D01*
X2504500Y-25465500D01*
X2518786Y-25479786D01*
X2533071Y-25508357D01*
X2547357Y-25565500D01*
X2547357Y-25636929D01*
X2533071Y-25694071D01*
X2518786Y-25722643D01*
X2504500Y-25736929D01*
X2475928Y-25751214D01*
X2447357Y-25751214D01*
X2418786Y-25736929D01*
X2404500Y-25722643D01*
X2390214Y-25694071D01*
X2375928Y-25636929D01*
X2375928Y-25565500D01*
X2390214Y-25508357D01*
X2404500Y-25479786D01*
X2418786Y-25465500D01*
X2447357Y-25451214D01*
X2675928Y-25751214D02*
X2675928Y-25551214D01*
X2675928Y-25579786D02*
X2690214Y-25565500D01*
X2718786Y-25551214D01*
X2761643Y-25551214D01*
X2790214Y-25565500D01*
X2804500Y-25594071D01*
X2804500Y-25751214D01*
X2804500Y-25594071D02*
X2818786Y-25565500D01*
X2847357Y-25551214D01*
X2890214Y-25551214D01*
X2918786Y-25565500D01*
X2933071Y-25594071D01*
X2933071Y-25751214D01*
X3075928Y-25751214D02*
X3075928Y-25551214D01*
X3075928Y-25579786D02*
X3090214Y-25565500D01*
X3118786Y-25551214D01*
X3161643Y-25551214D01*
X3190214Y-25565500D01*
X3204500Y-25594071D01*
X3204500Y-25751214D01*
X3204500Y-25594071D02*
X3218786Y-25565500D01*
X3247357Y-25551214D01*
X3290214Y-25551214D01*
X3318786Y-25565500D01*
X3333071Y-25594071D01*
X3333071Y-25751214D01*
X3918786Y-25436929D02*
X3661643Y-25822643D01*
X4304500Y-25451214D02*
X4333071Y-25451214D01*
X4361643Y-25465500D01*
X4375928Y-25479786D01*
X4390214Y-25508357D01*
X4404500Y-25565500D01*
X4404500Y-25636929D01*
X4390214Y-25694071D01*
X4375928Y-25722643D01*
X4361643Y-25736929D01*
X4333071Y-25751214D01*
X4304500Y-25751214D01*
X4275928Y-25736929D01*
X4261643Y-25722643D01*
X4247357Y-25694071D01*
X4233071Y-25636929D01*
X4233071Y-25565500D01*
X4247357Y-25508357D01*
X4261643Y-25479786D01*
X4275928Y-25465500D01*
X4304500Y-25451214D01*
X4533071Y-25722643D02*
X4547357Y-25736929D01*
X4533071Y-25751214D01*
X4518786Y-25736929D01*
X4533071Y-25722643D01*
X4533071Y-25751214D01*
X4833071Y-25751214D02*
X4661643Y-25751214D01*
X4747357Y-25751214D02*
X4747357Y-25451214D01*
X4718786Y-25494071D01*
X4690214Y-25522643D01*
X4661643Y-25536929D01*
X5018786Y-25451214D02*
X5047357Y-25451214D01*
X5075928Y-25465500D01*
X5090214Y-25479786D01*
X5104500Y-25508357D01*
X5118786Y-25565500D01*
X5118786Y-25636929D01*
X5104500Y-25694071D01*
X5090214Y-25722643D01*
X5075928Y-25736929D01*
X5047357Y-25751214D01*
X5018786Y-25751214D01*
X4990214Y-25736929D01*
X4975928Y-25722643D01*
X4961643Y-25694071D01*
X4947357Y-25636929D01*
X4947357Y-25565500D01*
X4961643Y-25508357D01*
X4975928Y-25479786D01*
X4990214Y-25465500D01*
X5018786Y-25451214D01*
X5233071Y-25479786D02*
X5247357Y-25465500D01*
X5275928Y-25451214D01*
X5347357Y-25451214D01*
X5375928Y-25465500D01*
X5390214Y-25479786D01*
X5404500Y-25508357D01*
X5404500Y-25536929D01*
X5390214Y-25579786D01*
X5218786Y-25751214D01*
X5404500Y-25751214D01*
X5518786Y-25451214D02*
X5518786Y-25508357D01*
X5633071Y-25451214D02*
X5633071Y-25508357D01*
X6075928Y-25865500D02*
X6061643Y-25851214D01*
X6033071Y-25808357D01*
X6018786Y-25779786D01*
X6004500Y-25736929D01*
X5990214Y-25665500D01*
X5990214Y-25608357D01*
X6004500Y-25536929D01*
X6018786Y-25494071D01*
X6033071Y-25465500D01*
X6061643Y-25422643D01*
X6075928Y-25408357D01*
X6347357Y-25751214D02*
X6175928Y-25751214D01*
X6261643Y-25751214D02*
X6261643Y-25451214D01*
X6233071Y-25494071D01*
X6204500Y-25522643D01*
X6175928Y-25536929D01*
X6704500Y-25751214D02*
X6704500Y-25451214D01*
X6833071Y-25751214D02*
X6833071Y-25594071D01*
X6818786Y-25565500D01*
X6790214Y-25551214D01*
X6747357Y-25551214D01*
X6718786Y-25565500D01*
X6704500Y-25579786D01*
X7018786Y-25751214D02*
X6990214Y-25736929D01*
X6975928Y-25722643D01*
X6961643Y-25694071D01*
X6961643Y-25608357D01*
X6975928Y-25579786D01*
X6990214Y-25565500D01*
X7018786Y-25551214D01*
X7061643Y-25551214D01*
X7090214Y-25565500D01*
X7104500Y-25579786D01*
X7118786Y-25608357D01*
X7118786Y-25694071D01*
X7104500Y-25722643D01*
X7090214Y-25736929D01*
X7061643Y-25751214D01*
X7018786Y-25751214D01*
X7290214Y-25751214D02*
X7261643Y-25736929D01*
X7247357Y-25708357D01*
X7247357Y-25451214D01*
X7518786Y-25736929D02*
X7490214Y-25751214D01*
X7433071Y-25751214D01*
X7404500Y-25736929D01*
X7390214Y-25708357D01*
X7390214Y-25594071D01*
X7404500Y-25565500D01*
X7433071Y-25551214D01*
X7490214Y-25551214D01*
X7518786Y-25565500D01*
X7533071Y-25594071D01*
X7533071Y-25622643D01*
X7390214Y-25651214D01*
X7633071Y-25865500D02*
X7647357Y-25851214D01*
X7675928Y-25808357D01*
X7690214Y-25779786D01*
X7704500Y-25736929D01*
X7718786Y-25665500D01*
X7718786Y-25608357D01*
X7704500Y-25536929D01*
X7690214Y-25494071D01*
X7675928Y-25465500D01*
X7647357Y-25422643D01*
X7633071Y-25408357D01*
X1214500Y-26186500D02*
X1389500Y-26011500D01*
X1214500Y-25836500D01*
X1039500Y-26011500D01*
X1214500Y-26186500D01*
X1338245Y-26135245D02*
X1338245Y-25887755D01*
X1090755Y-25887755D01*
X1090755Y-26135245D01*
X1338245Y-26135245D01*
X1647357Y-25847214D02*
X1833071Y-25847214D01*
X1733071Y-25961500D01*
X1775928Y-25961500D01*
X1804500Y-25975786D01*
X1818786Y-25990071D01*
X1833071Y-26018643D01*
X1833071Y-26090071D01*
X1818786Y-26118643D01*
X1804500Y-26132929D01*
X1775928Y-26147214D01*
X1690214Y-26147214D01*
X1661643Y-26132929D01*
X1647357Y-26118643D01*
X1961643Y-26118643D02*
X1975928Y-26132929D01*
X1961643Y-26147214D01*
X1947357Y-26132929D01*
X1961643Y-26118643D01*
X1961643Y-26147214D01*
X2247357Y-25847214D02*
X2104500Y-25847214D01*
X2090214Y-25990071D01*
X2104500Y-25975786D01*
X2133071Y-25961500D01*
X2204500Y-25961500D01*
X2233071Y-25975786D01*
X2247357Y-25990071D01*
X2261643Y-26018643D01*
X2261643Y-26090071D01*
X2247357Y-26118643D01*
X2233071Y-26132929D01*
X2204500Y-26147214D01*
X2133071Y-26147214D01*
X2104500Y-26132929D01*
X2090214Y-26118643D01*
X2447357Y-25847214D02*
X2475928Y-25847214D01*
X2504500Y-25861500D01*
X2518786Y-25875786D01*
X2533071Y-25904357D01*
X2547357Y-25961500D01*
X2547357Y-26032929D01*
X2533071Y-26090071D01*
X2518786Y-26118643D01*
X2504500Y-26132929D01*
X2475928Y-26147214D01*
X2447357Y-26147214D01*
X2418786Y-26132929D01*
X2404500Y-26118643D01*
X2390214Y-26090071D01*
X2375928Y-26032929D01*
X2375928Y-25961500D01*
X2390214Y-25904357D01*
X2404500Y-25875786D01*
X2418786Y-25861500D01*
X2447357Y-25847214D01*
X2675928Y-26147214D02*
X2675928Y-25947214D01*
X2675928Y-25975786D02*
X2690214Y-25961500D01*
X2718786Y-25947214D01*
X2761643Y-25947214D01*
X2790214Y-25961500D01*
X2804500Y-25990071D01*
X2804500Y-26147214D01*
X2804500Y-25990071D02*
X2818786Y-25961500D01*
X2847357Y-25947214D01*
X2890214Y-25947214D01*
X2918786Y-25961500D01*
X2933071Y-25990071D01*
X2933071Y-26147214D01*
X3075928Y-26147214D02*
X3075928Y-25947214D01*
X3075928Y-25975786D02*
X3090214Y-25961500D01*
X3118786Y-25947214D01*
X3161643Y-25947214D01*
X3190214Y-25961500D01*
X3204500Y-25990071D01*
X3204500Y-26147214D01*
X3204500Y-25990071D02*
X3218786Y-25961500D01*
X3247357Y-25947214D01*
X3290214Y-25947214D01*
X3318786Y-25961500D01*
X3333071Y-25990071D01*
X3333071Y-26147214D01*
X3918786Y-25832929D02*
X3661643Y-26218643D01*
X4304500Y-25847214D02*
X4333071Y-25847214D01*
X4361643Y-25861500D01*
X4375928Y-25875786D01*
X4390214Y-25904357D01*
X4404500Y-25961500D01*
X4404500Y-26032929D01*
X4390214Y-26090071D01*
X4375928Y-26118643D01*
X4361643Y-26132929D01*
X4333071Y-26147214D01*
X4304500Y-26147214D01*
X4275928Y-26132929D01*
X4261643Y-26118643D01*
X4247357Y-26090071D01*
X4233071Y-26032929D01*
X4233071Y-25961500D01*
X4247357Y-25904357D01*
X4261643Y-25875786D01*
X4275928Y-25861500D01*
X4304500Y-25847214D01*
X4533071Y-26118643D02*
X4547357Y-26132929D01*
X4533071Y-26147214D01*
X4518786Y-26132929D01*
X4533071Y-26118643D01*
X4533071Y-26147214D01*
X4833071Y-26147214D02*
X4661643Y-26147214D01*
X4747357Y-26147214D02*
X4747357Y-25847214D01*
X4718786Y-25890071D01*
X4690214Y-25918643D01*
X4661643Y-25932929D01*
X4933071Y-25847214D02*
X5118786Y-25847214D01*
X5018786Y-25961500D01*
X5061643Y-25961500D01*
X5090214Y-25975786D01*
X5104500Y-25990071D01*
X5118786Y-26018643D01*
X5118786Y-26090071D01*
X5104500Y-26118643D01*
X5090214Y-26132929D01*
X5061643Y-26147214D01*
X4975928Y-26147214D01*
X4947357Y-26132929D01*
X4933071Y-26118643D01*
X5290214Y-25975786D02*
X5261643Y-25961500D01*
X5247357Y-25947214D01*
X5233071Y-25918643D01*
X5233071Y-25904357D01*
X5247357Y-25875786D01*
X5261643Y-25861500D01*
X5290214Y-25847214D01*
X5347357Y-25847214D01*
X5375928Y-25861500D01*
X5390214Y-25875786D01*
X5404500Y-25904357D01*
X5404500Y-25918643D01*
X5390214Y-25947214D01*
X5375928Y-25961500D01*
X5347357Y-25975786D01*
X5290214Y-25975786D01*
X5261643Y-25990071D01*
X5247357Y-26004357D01*
X5233071Y-26032929D01*
X5233071Y-26090071D01*
X5247357Y-26118643D01*
X5261643Y-26132929D01*
X5290214Y-26147214D01*
X5347357Y-26147214D01*
X5375928Y-26132929D01*
X5390214Y-26118643D01*
X5404500Y-26090071D01*
X5404500Y-26032929D01*
X5390214Y-26004357D01*
X5375928Y-25990071D01*
X5347357Y-25975786D01*
X5518786Y-25847214D02*
X5518786Y-25904357D01*
X5633071Y-25847214D02*
X5633071Y-25904357D01*
X6075928Y-26261500D02*
X6061643Y-26247214D01*
X6033071Y-26204357D01*
X6018786Y-26175786D01*
X6004500Y-26132929D01*
X5990214Y-26061500D01*
X5990214Y-26004357D01*
X6004500Y-25932929D01*
X6018786Y-25890071D01*
X6033071Y-25861500D01*
X6061643Y-25818643D01*
X6075928Y-25804357D01*
X6175928Y-25875786D02*
X6190214Y-25861500D01*
X6218786Y-25847214D01*
X6290214Y-25847214D01*
X6318786Y-25861500D01*
X6333071Y-25875786D01*
X6347357Y-25904357D01*
X6347357Y-25932929D01*
X6333071Y-25975786D01*
X6161643Y-26147214D01*
X6347357Y-26147214D01*
X6704500Y-26147214D02*
X6704500Y-25847214D01*
X6833071Y-26147214D02*
X6833071Y-25990071D01*
X6818786Y-25961500D01*
X6790214Y-25947214D01*
X6747357Y-25947214D01*
X6718786Y-25961500D01*
X6704500Y-25975786D01*
X7018786Y-26147214D02*
X6990214Y-26132929D01*
X6975928Y-26118643D01*
X6961643Y-26090071D01*
X6961643Y-26004357D01*
X6975928Y-25975786D01*
X6990214Y-25961500D01*
X7018786Y-25947214D01*
X7061643Y-25947214D01*
X7090214Y-25961500D01*
X7104500Y-25975786D01*
X7118786Y-26004357D01*
X7118786Y-26090071D01*
X7104500Y-26118643D01*
X7090214Y-26132929D01*
X7061643Y-26147214D01*
X7018786Y-26147214D01*
X7290214Y-26147214D02*
X7261643Y-26132929D01*
X7247357Y-26104357D01*
X7247357Y-25847214D01*
X7518786Y-26132929D02*
X7490214Y-26147214D01*
X7433071Y-26147214D01*
X7404500Y-26132929D01*
X7390214Y-26104357D01*
X7390214Y-25990071D01*
X7404500Y-25961500D01*
X7433071Y-25947214D01*
X7490214Y-25947214D01*
X7518786Y-25961500D01*
X7533071Y-25990071D01*
X7533071Y-26018643D01*
X7390214Y-26047214D01*
X7647357Y-26132929D02*
X7675928Y-26147214D01*
X7733071Y-26147214D01*
X7761643Y-26132929D01*
X7775928Y-26104357D01*
X7775928Y-26090071D01*
X7761643Y-26061500D01*
X7733071Y-26047214D01*
X7690214Y-26047214D01*
X7661643Y-26032929D01*
X7647357Y-26004357D01*
X7647357Y-25990071D01*
X7661643Y-25961500D01*
X7690214Y-25947214D01*
X7733071Y-25947214D01*
X7761643Y-25961500D01*
X7875928Y-26261500D02*
X7890214Y-26247214D01*
X7918786Y-26204357D01*
X7933071Y-26175786D01*
X7947357Y-26132929D01*
X7961643Y-26061500D01*
X7961643Y-26004357D01*
X7947357Y-25932929D01*
X7933071Y-25890071D01*
X7918786Y-25861500D01*
X7890214Y-25818643D01*
X7875928Y-25804357D01*
X959500Y-26276500D02*
X1389500Y-26706500D01*
X1389500Y-26276500D02*
X959500Y-26706500D01*
X1174500Y-26276500D02*
X1174500Y-26706500D01*
X959500Y-26491500D02*
X1389500Y-26491500D01*
X1389500Y-26491500D02*
G75*
G03X1389500Y-26491500I-215000J0D01*
G01*
X1804500Y-26427214D02*
X1804500Y-26627214D01*
X1733071Y-26312929D02*
X1661643Y-26527214D01*
X1847357Y-26527214D01*
X1961643Y-26598643D02*
X1975928Y-26612929D01*
X1961643Y-26627214D01*
X1947357Y-26612929D01*
X1961643Y-26598643D01*
X1961643Y-26627214D01*
X2075928Y-26327214D02*
X2261643Y-26327214D01*
X2161643Y-26441500D01*
X2204500Y-26441500D01*
X2233071Y-26455786D01*
X2247357Y-26470071D01*
X2261643Y-26498643D01*
X2261643Y-26570071D01*
X2247357Y-26598643D01*
X2233071Y-26612929D01*
X2204500Y-26627214D01*
X2118786Y-26627214D01*
X2090214Y-26612929D01*
X2075928Y-26598643D01*
X2447357Y-26327214D02*
X2475928Y-26327214D01*
X2504500Y-26341500D01*
X2518786Y-26355786D01*
X2533071Y-26384357D01*
X2547357Y-26441500D01*
X2547357Y-26512929D01*
X2533071Y-26570071D01*
X2518786Y-26598643D01*
X2504500Y-26612929D01*
X2475928Y-26627214D01*
X2447357Y-26627214D01*
X2418786Y-26612929D01*
X2404500Y-26598643D01*
X2390214Y-26570071D01*
X2375928Y-26512929D01*
X2375928Y-26441500D01*
X2390214Y-26384357D01*
X2404500Y-26355786D01*
X2418786Y-26341500D01*
X2447357Y-26327214D01*
X2675928Y-26627214D02*
X2675928Y-26427214D01*
X2675928Y-26455786D02*
X2690214Y-26441500D01*
X2718786Y-26427214D01*
X2761643Y-26427214D01*
X2790214Y-26441500D01*
X2804500Y-26470071D01*
X2804500Y-26627214D01*
X2804500Y-26470071D02*
X2818786Y-26441500D01*
X2847357Y-26427214D01*
X2890214Y-26427214D01*
X2918786Y-26441500D01*
X2933071Y-26470071D01*
X2933071Y-26627214D01*
X3075928Y-26627214D02*
X3075928Y-26427214D01*
X3075928Y-26455786D02*
X3090214Y-26441500D01*
X3118786Y-26427214D01*
X3161643Y-26427214D01*
X3190214Y-26441500D01*
X3204500Y-26470071D01*
X3204500Y-26627214D01*
X3204500Y-26470071D02*
X3218786Y-26441500D01*
X3247357Y-26427214D01*
X3290214Y-26427214D01*
X3318786Y-26441500D01*
X3333071Y-26470071D01*
X3333071Y-26627214D01*
X3918786Y-26312929D02*
X3661643Y-26698643D01*
X4304500Y-26327214D02*
X4333071Y-26327214D01*
X4361643Y-26341500D01*
X4375928Y-26355786D01*
X4390214Y-26384357D01*
X4404500Y-26441500D01*
X4404500Y-26512929D01*
X4390214Y-26570071D01*
X4375928Y-26598643D01*
X4361643Y-26612929D01*
X4333071Y-26627214D01*
X4304500Y-26627214D01*
X4275928Y-26612929D01*
X4261643Y-26598643D01*
X4247357Y-26570071D01*
X4233071Y-26512929D01*
X4233071Y-26441500D01*
X4247357Y-26384357D01*
X4261643Y-26355786D01*
X4275928Y-26341500D01*
X4304500Y-26327214D01*
X4533071Y-26598643D02*
X4547357Y-26612929D01*
X4533071Y-26627214D01*
X4518786Y-26612929D01*
X4533071Y-26598643D01*
X4533071Y-26627214D01*
X4833071Y-26627214D02*
X4661643Y-26627214D01*
X4747357Y-26627214D02*
X4747357Y-26327214D01*
X4718786Y-26370071D01*
X4690214Y-26398643D01*
X4661643Y-26412929D01*
X5090214Y-26327214D02*
X5033071Y-26327214D01*
X5004500Y-26341500D01*
X4990214Y-26355786D01*
X4961643Y-26398643D01*
X4947357Y-26455786D01*
X4947357Y-26570071D01*
X4961643Y-26598643D01*
X4975928Y-26612929D01*
X5004500Y-26627214D01*
X5061643Y-26627214D01*
X5090214Y-26612929D01*
X5104500Y-26598643D01*
X5118786Y-26570071D01*
X5118786Y-26498643D01*
X5104500Y-26470071D01*
X5090214Y-26455786D01*
X5061643Y-26441500D01*
X5004500Y-26441500D01*
X4975928Y-26455786D01*
X4961643Y-26470071D01*
X4947357Y-26498643D01*
X5261643Y-26627214D02*
X5318786Y-26627214D01*
X5347357Y-26612929D01*
X5361643Y-26598643D01*
X5390214Y-26555786D01*
X5404500Y-26498643D01*
X5404500Y-26384357D01*
X5390214Y-26355786D01*
X5375928Y-26341500D01*
X5347357Y-26327214D01*
X5290214Y-26327214D01*
X5261643Y-26341500D01*
X5247357Y-26355786D01*
X5233071Y-26384357D01*
X5233071Y-26455786D01*
X5247357Y-26484357D01*
X5261643Y-26498643D01*
X5290214Y-26512929D01*
X5347357Y-26512929D01*
X5375928Y-26498643D01*
X5390214Y-26484357D01*
X5404500Y-26455786D01*
X5518786Y-26327214D02*
X5518786Y-26384357D01*
X5633071Y-26327214D02*
X5633071Y-26384357D01*
X6075928Y-26741500D02*
X6061643Y-26727214D01*
X6033071Y-26684357D01*
X6018786Y-26655786D01*
X6004500Y-26612929D01*
X5990214Y-26541500D01*
X5990214Y-26484357D01*
X6004500Y-26412929D01*
X6018786Y-26370071D01*
X6033071Y-26341500D01*
X6061643Y-26298643D01*
X6075928Y-26284357D01*
X6318786Y-26427214D02*
X6318786Y-26627214D01*
X6247357Y-26312929D02*
X6175928Y-26527214D01*
X6361643Y-26527214D01*
X6704500Y-26627214D02*
X6704500Y-26327214D01*
X6833071Y-26627214D02*
X6833071Y-26470071D01*
X6818786Y-26441500D01*
X6790214Y-26427214D01*
X6747357Y-26427214D01*
X6718786Y-26441500D01*
X6704500Y-26455786D01*
X7018786Y-26627214D02*
X6990214Y-26612929D01*
X6975928Y-26598643D01*
X6961643Y-26570071D01*
X6961643Y-26484357D01*
X6975928Y-26455786D01*
X6990214Y-26441500D01*
X7018786Y-26427214D01*
X7061643Y-26427214D01*
X7090214Y-26441500D01*
X7104500Y-26455786D01*
X7118786Y-26484357D01*
X7118786Y-26570071D01*
X7104500Y-26598643D01*
X7090214Y-26612929D01*
X7061643Y-26627214D01*
X7018786Y-26627214D01*
X7290214Y-26627214D02*
X7261643Y-26612929D01*
X7247357Y-26584357D01*
X7247357Y-26327214D01*
X7518786Y-26612929D02*
X7490214Y-26627214D01*
X7433071Y-26627214D01*
X7404500Y-26612929D01*
X7390214Y-26584357D01*
X7390214Y-26470071D01*
X7404500Y-26441500D01*
X7433071Y-26427214D01*
X7490214Y-26427214D01*
X7518786Y-26441500D01*
X7533071Y-26470071D01*
X7533071Y-26498643D01*
X7390214Y-26527214D01*
X7647357Y-26612929D02*
X7675928Y-26627214D01*
X7733071Y-26627214D01*
X7761643Y-26612929D01*
X7775928Y-26584357D01*
X7775928Y-26570071D01*
X7761643Y-26541500D01*
X7733071Y-26527214D01*
X7690214Y-26527214D01*
X7661643Y-26512929D01*
X7647357Y-26484357D01*
X7647357Y-26470071D01*
X7661643Y-26441500D01*
X7690214Y-26427214D01*
X7733071Y-26427214D01*
X7761643Y-26441500D01*
X7875928Y-26741500D02*
X7890214Y-26727214D01*
X7918786Y-26684357D01*
X7933071Y-26655786D01*
X7947357Y-26612929D01*
X7961643Y-26541500D01*
X7961643Y-26484357D01*
X7947357Y-26412929D01*
X7933071Y-26370071D01*
X7918786Y-26341500D01*
X7890214Y-26298643D01*
X7875928Y-26284357D01*
M02*
