%FSLAX45Y45*%
G04 Gerber Fmt 4.5, Leading zero omitted, Abs format (unit mm)*
G04 Created by KiCad (PCBNEW (5.0.2)-1) date 07.02.2020 11:46:58*
%MOMM*%
%LPD*%
G01*
G04 APERTURE LIST*
%ADD10C,0.150000*%
%ADD11C,0.200000*%
%ADD12C,0.300000*%
G04 APERTURE END LIST*
D10*
X1397000Y-1397000D02*
G75*
G02X1524000Y-1270000I127000J0D01*
G01*
X19177000Y-1270000D02*
G75*
G02X19304000Y-1397000I0J-127000D01*
G01*
X19304000Y-19373000D02*
G75*
G02X19177000Y-19500000I-127000J0D01*
G01*
X1524000Y-19500000D02*
G75*
G02X1397000Y-19373000I0J127000D01*
G01*
X1524000Y-1270000D02*
X19177000Y-1270000D01*
X1397000Y-19373000D02*
X1397000Y-1397000D01*
X19177000Y-19500000D02*
X1524000Y-19500000D01*
X19304000Y-1397000D02*
X19304000Y-19372000D01*
D11*
D12*
X1675928Y-19973214D02*
X1675928Y-19673214D01*
X1747357Y-19673214D01*
X1790214Y-19687500D01*
X1818786Y-19716072D01*
X1833071Y-19744643D01*
X1847357Y-19801786D01*
X1847357Y-19844643D01*
X1833071Y-19901786D01*
X1818786Y-19930357D01*
X1790214Y-19958929D01*
X1747357Y-19973214D01*
X1675928Y-19973214D01*
X1975928Y-19973214D02*
X1975928Y-19773214D01*
X1975928Y-19830357D02*
X1990214Y-19801786D01*
X2004500Y-19787500D01*
X2033071Y-19773214D01*
X2061643Y-19773214D01*
X2161643Y-19973214D02*
X2161643Y-19773214D01*
X2161643Y-19673214D02*
X2147357Y-19687500D01*
X2161643Y-19701786D01*
X2175928Y-19687500D01*
X2161643Y-19673214D01*
X2161643Y-19701786D01*
X2347357Y-19973214D02*
X2318786Y-19958929D01*
X2304500Y-19930357D01*
X2304500Y-19673214D01*
X2504500Y-19973214D02*
X2475928Y-19958929D01*
X2461643Y-19930357D01*
X2461643Y-19673214D01*
X2847357Y-19973214D02*
X2847357Y-19673214D01*
X2947357Y-19887500D01*
X3047357Y-19673214D01*
X3047357Y-19973214D01*
X3318786Y-19973214D02*
X3318786Y-19816072D01*
X3304500Y-19787500D01*
X3275928Y-19773214D01*
X3218786Y-19773214D01*
X3190214Y-19787500D01*
X3318786Y-19958929D02*
X3290214Y-19973214D01*
X3218786Y-19973214D01*
X3190214Y-19958929D01*
X3175928Y-19930357D01*
X3175928Y-19901786D01*
X3190214Y-19873214D01*
X3218786Y-19858929D01*
X3290214Y-19858929D01*
X3318786Y-19844643D01*
X3461643Y-19773214D02*
X3461643Y-20073214D01*
X3461643Y-19787500D02*
X3490214Y-19773214D01*
X3547357Y-19773214D01*
X3575928Y-19787500D01*
X3590214Y-19801786D01*
X3604500Y-19830357D01*
X3604500Y-19916072D01*
X3590214Y-19944643D01*
X3575928Y-19958929D01*
X3547357Y-19973214D01*
X3490214Y-19973214D01*
X3461643Y-19958929D01*
X3733071Y-19944643D02*
X3747357Y-19958929D01*
X3733071Y-19973214D01*
X3718786Y-19958929D01*
X3733071Y-19944643D01*
X3733071Y-19973214D01*
X3733071Y-19787500D02*
X3747357Y-19801786D01*
X3733071Y-19816072D01*
X3718786Y-19801786D01*
X3733071Y-19787500D01*
X3733071Y-19816072D01*
M02*
