G04 #@! TF.GenerationSoftware,KiCad,Pcbnew,(5.0.2)-1*
G04 #@! TF.CreationDate,2020-02-07T11:46:54+01:00*
G04 #@! TF.ProjectId,HB-WW-UB V2,48422d57-572d-4554-9220-56322e6b6963,V1.0.0*
G04 #@! TF.SameCoordinates,Original*
G04 #@! TF.FileFunction,Legend,Top*
G04 #@! TF.FilePolarity,Positive*
%FSLAX46Y46*%
G04 Gerber Fmt 4.6, Leading zero omitted, Abs format (unit mm)*
G04 Created by KiCad (PCBNEW (5.0.2)-1) date 07.02.2020 11:46:54*
%MOMM*%
%LPD*%
G01*
G04 APERTURE LIST*
%ADD10C,0.200000*%
%ADD11C,0.300000*%
%ADD12C,0.120000*%
%ADD13C,0.127000*%
%ADD14C,0.400000*%
%ADD15C,0.150000*%
%ADD16C,0.050000*%
G04 APERTURE END LIST*
D10*
X181197000Y-150019000D02*
G75*
G03X181197000Y-150019000I-2000000J0D01*
G01*
X181197000Y-144399000D02*
G75*
G03X181197000Y-144399000I-2000000J0D01*
G01*
D11*
X178435095Y-150002857D02*
X179958904Y-150002857D01*
X179197000Y-150764761D02*
X179197000Y-149240952D01*
X179212857Y-145160904D02*
X179212857Y-143637095D01*
X189837142Y-152014428D02*
X189908571Y-151800142D01*
X189908571Y-151443000D01*
X189837142Y-151300142D01*
X189765714Y-151228714D01*
X189622857Y-151157285D01*
X189480000Y-151157285D01*
X189337142Y-151228714D01*
X189265714Y-151300142D01*
X189194285Y-151443000D01*
X189122857Y-151728714D01*
X189051428Y-151871571D01*
X188980000Y-151943000D01*
X188837142Y-152014428D01*
X188694285Y-152014428D01*
X188551428Y-151943000D01*
X188480000Y-151871571D01*
X188408571Y-151728714D01*
X188408571Y-151371571D01*
X188480000Y-151157285D01*
X189837142Y-149943000D02*
X189908571Y-150085857D01*
X189908571Y-150371571D01*
X189837142Y-150514428D01*
X189694285Y-150585857D01*
X189122857Y-150585857D01*
X188980000Y-150514428D01*
X188908571Y-150371571D01*
X188908571Y-150085857D01*
X188980000Y-149943000D01*
X189122857Y-149871571D01*
X189265714Y-149871571D01*
X189408571Y-150585857D01*
X188908571Y-149228714D02*
X189908571Y-149228714D01*
X189051428Y-149228714D02*
X188980000Y-149157285D01*
X188908571Y-149014428D01*
X188908571Y-148800142D01*
X188980000Y-148657285D01*
X189122857Y-148585857D01*
X189908571Y-148585857D01*
X189837142Y-147943000D02*
X189908571Y-147800142D01*
X189908571Y-147514428D01*
X189837142Y-147371571D01*
X189694285Y-147300142D01*
X189622857Y-147300142D01*
X189480000Y-147371571D01*
X189408571Y-147514428D01*
X189408571Y-147728714D01*
X189337142Y-147871571D01*
X189194285Y-147943000D01*
X189122857Y-147943000D01*
X188980000Y-147871571D01*
X188908571Y-147728714D01*
X188908571Y-147514428D01*
X188980000Y-147371571D01*
X189908571Y-146443000D02*
X189837142Y-146585857D01*
X189765714Y-146657285D01*
X189622857Y-146728714D01*
X189194285Y-146728714D01*
X189051428Y-146657285D01*
X188980000Y-146585857D01*
X188908571Y-146443000D01*
X188908571Y-146228714D01*
X188980000Y-146085857D01*
X189051428Y-146014428D01*
X189194285Y-145943000D01*
X189622857Y-145943000D01*
X189765714Y-146014428D01*
X189837142Y-146085857D01*
X189908571Y-146228714D01*
X189908571Y-146443000D01*
X189908571Y-145300142D02*
X188908571Y-145300142D01*
X189194285Y-145300142D02*
X189051428Y-145228714D01*
X188980000Y-145157285D01*
X188908571Y-145014428D01*
X188908571Y-144871571D01*
X189837142Y-143800142D02*
X189908571Y-143943000D01*
X189908571Y-144228714D01*
X189837142Y-144371571D01*
X189694285Y-144443000D01*
X189122857Y-144443000D01*
X188980000Y-144371571D01*
X188908571Y-144228714D01*
X188908571Y-143943000D01*
X188980000Y-143800142D01*
X189122857Y-143728714D01*
X189265714Y-143728714D01*
X189408571Y-144443000D01*
X188908571Y-143085857D02*
X189908571Y-143085857D01*
X189051428Y-143085857D02*
X188980000Y-143014428D01*
X188908571Y-142871571D01*
X188908571Y-142657285D01*
X188980000Y-142514428D01*
X189122857Y-142443000D01*
X189908571Y-142443000D01*
X189908571Y-125062714D02*
X188908571Y-125062714D01*
X188408571Y-125062714D02*
X188480000Y-125134142D01*
X188551428Y-125062714D01*
X188480000Y-124991285D01*
X188408571Y-125062714D01*
X188551428Y-125062714D01*
X189908571Y-124134142D02*
X189837142Y-124277000D01*
X189765714Y-124348428D01*
X189622857Y-124419857D01*
X189194285Y-124419857D01*
X189051428Y-124348428D01*
X188980000Y-124277000D01*
X188908571Y-124134142D01*
X188908571Y-123919857D01*
X188980000Y-123777000D01*
X189051428Y-123705571D01*
X189194285Y-123634142D01*
X189622857Y-123634142D01*
X189765714Y-123705571D01*
X189837142Y-123777000D01*
X189908571Y-123919857D01*
X189908571Y-124134142D01*
X189122857Y-122491285D02*
X189194285Y-122277000D01*
X189265714Y-122205571D01*
X189408571Y-122134142D01*
X189622857Y-122134142D01*
X189765714Y-122205571D01*
X189837142Y-122277000D01*
X189908571Y-122419857D01*
X189908571Y-122991285D01*
X188408571Y-122991285D01*
X188408571Y-122491285D01*
X188480000Y-122348428D01*
X188551428Y-122277000D01*
X188694285Y-122205571D01*
X188837142Y-122205571D01*
X188980000Y-122277000D01*
X189051428Y-122348428D01*
X189122857Y-122491285D01*
X189122857Y-122991285D01*
X189908571Y-121491285D02*
X188908571Y-121491285D01*
X189194285Y-121491285D02*
X189051428Y-121419857D01*
X188980000Y-121348428D01*
X188908571Y-121205571D01*
X188908571Y-121062714D01*
X189908571Y-120348428D02*
X189837142Y-120491285D01*
X189765714Y-120562714D01*
X189622857Y-120634142D01*
X189194285Y-120634142D01*
X189051428Y-120562714D01*
X188980000Y-120491285D01*
X188908571Y-120348428D01*
X188908571Y-120134142D01*
X188980000Y-119991285D01*
X189051428Y-119919857D01*
X189194285Y-119848428D01*
X189622857Y-119848428D01*
X189765714Y-119919857D01*
X189837142Y-119991285D01*
X189908571Y-120134142D01*
X189908571Y-120348428D01*
X189908571Y-119205571D02*
X188408571Y-119205571D01*
X189337142Y-119062714D02*
X189908571Y-118634142D01*
X188908571Y-118634142D02*
X189480000Y-119205571D01*
X189837142Y-117419857D02*
X189908571Y-117562714D01*
X189908571Y-117848428D01*
X189837142Y-117991285D01*
X189694285Y-118062714D01*
X189122857Y-118062714D01*
X188980000Y-117991285D01*
X188908571Y-117848428D01*
X188908571Y-117562714D01*
X188980000Y-117419857D01*
X189122857Y-117348428D01*
X189265714Y-117348428D01*
X189408571Y-118062714D01*
X189908571Y-116705571D02*
X188908571Y-116705571D01*
X189194285Y-116705571D02*
X189051428Y-116634142D01*
X188980000Y-116562714D01*
X188908571Y-116419857D01*
X188908571Y-116277000D01*
X178435095Y-136540857D02*
X179958904Y-136540857D01*
X179197000Y-137302761D02*
X179197000Y-135778952D01*
X179212857Y-131698904D02*
X179212857Y-130175095D01*
D10*
X181197000Y-130937000D02*
G75*
G03X181197000Y-130937000I-2000000J0D01*
G01*
X181197000Y-136557000D02*
G75*
G03X181197000Y-136557000I-2000000J0D01*
G01*
D11*
X187220714Y-134675428D02*
X187292142Y-134746857D01*
X187363571Y-134961142D01*
X187363571Y-135104000D01*
X187292142Y-135318285D01*
X187149285Y-135461142D01*
X187006428Y-135532571D01*
X186720714Y-135604000D01*
X186506428Y-135604000D01*
X186220714Y-135532571D01*
X186077857Y-135461142D01*
X185935000Y-135318285D01*
X185863571Y-135104000D01*
X185863571Y-134961142D01*
X185935000Y-134746857D01*
X186006428Y-134675428D01*
X187220714Y-133175428D02*
X187292142Y-133246857D01*
X187363571Y-133461142D01*
X187363571Y-133604000D01*
X187292142Y-133818285D01*
X187149285Y-133961142D01*
X187006428Y-134032571D01*
X186720714Y-134104000D01*
X186506428Y-134104000D01*
X186220714Y-134032571D01*
X186077857Y-133961142D01*
X185935000Y-133818285D01*
X185863571Y-133604000D01*
X185863571Y-133461142D01*
X185935000Y-133246857D01*
X186006428Y-133175428D01*
X185863571Y-132532571D02*
X187077857Y-132532571D01*
X187220714Y-132461142D01*
X187292142Y-132389714D01*
X187363571Y-132246857D01*
X187363571Y-131961142D01*
X187292142Y-131818285D01*
X187220714Y-131746857D01*
X187077857Y-131675428D01*
X185863571Y-131675428D01*
X189842142Y-138425428D02*
X189913571Y-138211142D01*
X189913571Y-137854000D01*
X189842142Y-137711142D01*
X189770714Y-137639714D01*
X189627857Y-137568285D01*
X189485000Y-137568285D01*
X189342142Y-137639714D01*
X189270714Y-137711142D01*
X189199285Y-137854000D01*
X189127857Y-138139714D01*
X189056428Y-138282571D01*
X188985000Y-138354000D01*
X188842142Y-138425428D01*
X188699285Y-138425428D01*
X188556428Y-138354000D01*
X188485000Y-138282571D01*
X188413571Y-138139714D01*
X188413571Y-137782571D01*
X188485000Y-137568285D01*
X189842142Y-136354000D02*
X189913571Y-136496857D01*
X189913571Y-136782571D01*
X189842142Y-136925428D01*
X189699285Y-136996857D01*
X189127857Y-136996857D01*
X188985000Y-136925428D01*
X188913571Y-136782571D01*
X188913571Y-136496857D01*
X188985000Y-136354000D01*
X189127857Y-136282571D01*
X189270714Y-136282571D01*
X189413571Y-136996857D01*
X188913571Y-135639714D02*
X189913571Y-135639714D01*
X189056428Y-135639714D02*
X188985000Y-135568285D01*
X188913571Y-135425428D01*
X188913571Y-135211142D01*
X188985000Y-135068285D01*
X189127857Y-134996857D01*
X189913571Y-134996857D01*
X189842142Y-134354000D02*
X189913571Y-134211142D01*
X189913571Y-133925428D01*
X189842142Y-133782571D01*
X189699285Y-133711142D01*
X189627857Y-133711142D01*
X189485000Y-133782571D01*
X189413571Y-133925428D01*
X189413571Y-134139714D01*
X189342142Y-134282571D01*
X189199285Y-134354000D01*
X189127857Y-134354000D01*
X188985000Y-134282571D01*
X188913571Y-134139714D01*
X188913571Y-133925428D01*
X188985000Y-133782571D01*
X189913571Y-132854000D02*
X189842142Y-132996857D01*
X189770714Y-133068285D01*
X189627857Y-133139714D01*
X189199285Y-133139714D01*
X189056428Y-133068285D01*
X188985000Y-132996857D01*
X188913571Y-132854000D01*
X188913571Y-132639714D01*
X188985000Y-132496857D01*
X189056428Y-132425428D01*
X189199285Y-132354000D01*
X189627857Y-132354000D01*
X189770714Y-132425428D01*
X189842142Y-132496857D01*
X189913571Y-132639714D01*
X189913571Y-132854000D01*
X189913571Y-131711142D02*
X188913571Y-131711142D01*
X189199285Y-131711142D02*
X189056428Y-131639714D01*
X188985000Y-131568285D01*
X188913571Y-131425428D01*
X188913571Y-131282571D01*
X189842142Y-130211142D02*
X189913571Y-130354000D01*
X189913571Y-130639714D01*
X189842142Y-130782571D01*
X189699285Y-130854000D01*
X189127857Y-130854000D01*
X188985000Y-130782571D01*
X188913571Y-130639714D01*
X188913571Y-130354000D01*
X188985000Y-130211142D01*
X189127857Y-130139714D01*
X189270714Y-130139714D01*
X189413571Y-130854000D01*
X188913571Y-129496857D02*
X189913571Y-129496857D01*
X189056428Y-129496857D02*
X188985000Y-129425428D01*
X188913571Y-129282571D01*
X188913571Y-129068285D01*
X188985000Y-128925428D01*
X189127857Y-128854000D01*
X189913571Y-128854000D01*
X158064000Y-192956571D02*
X157206857Y-192956571D01*
X157635428Y-192956571D02*
X157635428Y-191456571D01*
X157492571Y-191670857D01*
X157349714Y-191813714D01*
X157206857Y-191885142D01*
X158635428Y-191599428D02*
X158706857Y-191528000D01*
X158849714Y-191456571D01*
X159206857Y-191456571D01*
X159349714Y-191528000D01*
X159421142Y-191599428D01*
X159492571Y-191742285D01*
X159492571Y-191885142D01*
X159421142Y-192099428D01*
X158564000Y-192956571D01*
X159492571Y-192956571D01*
X159921142Y-191456571D02*
X160421142Y-192956571D01*
X160921142Y-191456571D01*
X163064000Y-192170857D02*
X163278285Y-192242285D01*
X163349714Y-192313714D01*
X163421142Y-192456571D01*
X163421142Y-192670857D01*
X163349714Y-192813714D01*
X163278285Y-192885142D01*
X163135428Y-192956571D01*
X162564000Y-192956571D01*
X162564000Y-191456571D01*
X163064000Y-191456571D01*
X163206857Y-191528000D01*
X163278285Y-191599428D01*
X163349714Y-191742285D01*
X163349714Y-191885142D01*
X163278285Y-192028000D01*
X163206857Y-192099428D01*
X163064000Y-192170857D01*
X162564000Y-192170857D01*
X164278285Y-192956571D02*
X164135428Y-192885142D01*
X164064000Y-192813714D01*
X163992571Y-192670857D01*
X163992571Y-192242285D01*
X164064000Y-192099428D01*
X164135428Y-192028000D01*
X164278285Y-191956571D01*
X164492571Y-191956571D01*
X164635428Y-192028000D01*
X164706857Y-192099428D01*
X164778285Y-192242285D01*
X164778285Y-192670857D01*
X164706857Y-192813714D01*
X164635428Y-192885142D01*
X164492571Y-192956571D01*
X164278285Y-192956571D01*
X166064000Y-192956571D02*
X166064000Y-192170857D01*
X165992571Y-192028000D01*
X165849714Y-191956571D01*
X165564000Y-191956571D01*
X165421142Y-192028000D01*
X166064000Y-192885142D02*
X165921142Y-192956571D01*
X165564000Y-192956571D01*
X165421142Y-192885142D01*
X165349714Y-192742285D01*
X165349714Y-192599428D01*
X165421142Y-192456571D01*
X165564000Y-192385142D01*
X165921142Y-192385142D01*
X166064000Y-192313714D01*
X166778285Y-192956571D02*
X166778285Y-191956571D01*
X166778285Y-192242285D02*
X166849714Y-192099428D01*
X166921142Y-192028000D01*
X167064000Y-191956571D01*
X167206857Y-191956571D01*
X168349714Y-192956571D02*
X168349714Y-191456571D01*
X168349714Y-192885142D02*
X168206857Y-192956571D01*
X167921142Y-192956571D01*
X167778285Y-192885142D01*
X167706857Y-192813714D01*
X167635428Y-192670857D01*
X167635428Y-192242285D01*
X167706857Y-192099428D01*
X167778285Y-192028000D01*
X167921142Y-191956571D01*
X168206857Y-191956571D01*
X168349714Y-192028000D01*
X145244857Y-191456571D02*
X144530571Y-191456571D01*
X144459142Y-192170857D01*
X144530571Y-192099428D01*
X144673428Y-192028000D01*
X145030571Y-192028000D01*
X145173428Y-192099428D01*
X145244857Y-192170857D01*
X145316285Y-192313714D01*
X145316285Y-192670857D01*
X145244857Y-192813714D01*
X145173428Y-192885142D01*
X145030571Y-192956571D01*
X144673428Y-192956571D01*
X144530571Y-192885142D01*
X144459142Y-192813714D01*
X145744857Y-191456571D02*
X146244857Y-192956571D01*
X146744857Y-191456571D01*
X148387714Y-192956571D02*
X148387714Y-191956571D01*
X148387714Y-191456571D02*
X148316285Y-191528000D01*
X148387714Y-191599428D01*
X148459142Y-191528000D01*
X148387714Y-191456571D01*
X148387714Y-191599428D01*
X149102000Y-191956571D02*
X149102000Y-192956571D01*
X149102000Y-192099428D02*
X149173428Y-192028000D01*
X149316285Y-191956571D01*
X149530571Y-191956571D01*
X149673428Y-192028000D01*
X149744857Y-192170857D01*
X149744857Y-192956571D01*
X150244857Y-191956571D02*
X150816285Y-191956571D01*
X150459142Y-191456571D02*
X150459142Y-192742285D01*
X150530571Y-192885142D01*
X150673428Y-192956571D01*
X150816285Y-192956571D01*
X151887714Y-192885142D02*
X151744857Y-192956571D01*
X151459142Y-192956571D01*
X151316285Y-192885142D01*
X151244857Y-192742285D01*
X151244857Y-192170857D01*
X151316285Y-192028000D01*
X151459142Y-191956571D01*
X151744857Y-191956571D01*
X151887714Y-192028000D01*
X151959142Y-192170857D01*
X151959142Y-192313714D01*
X151244857Y-192456571D01*
X152602000Y-192956571D02*
X152602000Y-191956571D01*
X152602000Y-192242285D02*
X152673428Y-192099428D01*
X152744857Y-192028000D01*
X152887714Y-191956571D01*
X153030571Y-191956571D01*
X153530571Y-191956571D02*
X153530571Y-192956571D01*
X153530571Y-192099428D02*
X153602000Y-192028000D01*
X153744857Y-191956571D01*
X153959142Y-191956571D01*
X154102000Y-192028000D01*
X154173428Y-192170857D01*
X154173428Y-192956571D01*
X131394000Y-192956571D02*
X130536857Y-192956571D01*
X130965428Y-192956571D02*
X130965428Y-191456571D01*
X130822571Y-191670857D01*
X130679714Y-191813714D01*
X130536857Y-191885142D01*
X131965428Y-191599428D02*
X132036857Y-191528000D01*
X132179714Y-191456571D01*
X132536857Y-191456571D01*
X132679714Y-191528000D01*
X132751142Y-191599428D01*
X132822571Y-191742285D01*
X132822571Y-191885142D01*
X132751142Y-192099428D01*
X131894000Y-192956571D01*
X132822571Y-192956571D01*
X133251142Y-191456571D02*
X133751142Y-192956571D01*
X134251142Y-191456571D01*
X135894000Y-192956571D02*
X135894000Y-191956571D01*
X135894000Y-191456571D02*
X135822571Y-191528000D01*
X135894000Y-191599428D01*
X135965428Y-191528000D01*
X135894000Y-191456571D01*
X135894000Y-191599428D01*
X136608285Y-191956571D02*
X136608285Y-192956571D01*
X136608285Y-192099428D02*
X136679714Y-192028000D01*
X136822571Y-191956571D01*
X137036857Y-191956571D01*
X137179714Y-192028000D01*
X137251142Y-192170857D01*
X137251142Y-192956571D01*
X137751142Y-191956571D02*
X138322571Y-191956571D01*
X137965428Y-191456571D02*
X137965428Y-192742285D01*
X138036857Y-192885142D01*
X138179714Y-192956571D01*
X138322571Y-192956571D01*
X139394000Y-192885142D02*
X139251142Y-192956571D01*
X138965428Y-192956571D01*
X138822571Y-192885142D01*
X138751142Y-192742285D01*
X138751142Y-192170857D01*
X138822571Y-192028000D01*
X138965428Y-191956571D01*
X139251142Y-191956571D01*
X139394000Y-192028000D01*
X139465428Y-192170857D01*
X139465428Y-192313714D01*
X138751142Y-192456571D01*
X140108285Y-192956571D02*
X140108285Y-191956571D01*
X140108285Y-192242285D02*
X140179714Y-192099428D01*
X140251142Y-192028000D01*
X140394000Y-191956571D01*
X140536857Y-191956571D01*
X141036857Y-191956571D02*
X141036857Y-192956571D01*
X141036857Y-192099428D02*
X141108285Y-192028000D01*
X141251142Y-191956571D01*
X141465428Y-191956571D01*
X141608285Y-192028000D01*
X141679714Y-192170857D01*
X141679714Y-192956571D01*
D10*
X181197000Y-118110000D02*
G75*
G03X181197000Y-118110000I-2000000J0D01*
G01*
X181197000Y-123730000D02*
G75*
G03X181197000Y-123730000I-2000000J0D01*
G01*
D11*
X179212857Y-118871904D02*
X179212857Y-117348095D01*
X178435095Y-123713857D02*
X179958904Y-123713857D01*
X179197000Y-124475761D02*
X179197000Y-122951952D01*
X155876761Y-152589047D02*
X157876761Y-151922380D01*
X155876761Y-151255714D01*
X157686285Y-149446190D02*
X157781523Y-149541428D01*
X157876761Y-149827142D01*
X157876761Y-150017619D01*
X157781523Y-150303333D01*
X157591047Y-150493809D01*
X157400571Y-150589047D01*
X157019619Y-150684285D01*
X156733904Y-150684285D01*
X156352952Y-150589047D01*
X156162476Y-150493809D01*
X155972000Y-150303333D01*
X155876761Y-150017619D01*
X155876761Y-149827142D01*
X155972000Y-149541428D01*
X156067238Y-149446190D01*
X157686285Y-147446190D02*
X157781523Y-147541428D01*
X157876761Y-147827142D01*
X157876761Y-148017619D01*
X157781523Y-148303333D01*
X157591047Y-148493809D01*
X157400571Y-148589047D01*
X157019619Y-148684285D01*
X156733904Y-148684285D01*
X156352952Y-148589047D01*
X156162476Y-148493809D01*
X155972000Y-148303333D01*
X155876761Y-148017619D01*
X155876761Y-147827142D01*
X155972000Y-147541428D01*
X156067238Y-147446190D01*
X157114857Y-145065238D02*
X157114857Y-143541428D01*
X157305333Y-141160476D02*
X157305333Y-140208095D01*
X157876761Y-141350952D02*
X155876761Y-140684285D01*
X157876761Y-140017619D01*
X156543428Y-138493809D02*
X157876761Y-138493809D01*
X156543428Y-139350952D02*
X157591047Y-139350952D01*
X157781523Y-139255714D01*
X157876761Y-139065238D01*
X157876761Y-138779523D01*
X157781523Y-138589047D01*
X157686285Y-138493809D01*
X157781523Y-137636666D02*
X157876761Y-137446190D01*
X157876761Y-137065238D01*
X157781523Y-136874761D01*
X157591047Y-136779523D01*
X157495809Y-136779523D01*
X157305333Y-136874761D01*
X157210095Y-137065238D01*
X157210095Y-137350952D01*
X157114857Y-137541428D01*
X156924380Y-137636666D01*
X156829142Y-137636666D01*
X156638666Y-137541428D01*
X156543428Y-137350952D01*
X156543428Y-137065238D01*
X156638666Y-136874761D01*
X156543428Y-135065238D02*
X158162476Y-135065238D01*
X158352952Y-135160476D01*
X158448190Y-135255714D01*
X158543428Y-135446190D01*
X158543428Y-135731904D01*
X158448190Y-135922380D01*
X157781523Y-135065238D02*
X157876761Y-135255714D01*
X157876761Y-135636666D01*
X157781523Y-135827142D01*
X157686285Y-135922380D01*
X157495809Y-136017619D01*
X156924380Y-136017619D01*
X156733904Y-135922380D01*
X156638666Y-135827142D01*
X156543428Y-135636666D01*
X156543428Y-135255714D01*
X156638666Y-135065238D01*
X157876761Y-133255714D02*
X156829142Y-133255714D01*
X156638666Y-133350952D01*
X156543428Y-133541428D01*
X156543428Y-133922380D01*
X156638666Y-134112857D01*
X157781523Y-133255714D02*
X157876761Y-133446190D01*
X157876761Y-133922380D01*
X157781523Y-134112857D01*
X157591047Y-134208095D01*
X157400571Y-134208095D01*
X157210095Y-134112857D01*
X157114857Y-133922380D01*
X157114857Y-133446190D01*
X157019619Y-133255714D01*
X156543428Y-132303333D02*
X157876761Y-132303333D01*
X156733904Y-132303333D02*
X156638666Y-132208095D01*
X156543428Y-132017619D01*
X156543428Y-131731904D01*
X156638666Y-131541428D01*
X156829142Y-131446190D01*
X157876761Y-131446190D01*
X156543428Y-129636666D02*
X158162476Y-129636666D01*
X158352952Y-129731904D01*
X158448190Y-129827142D01*
X158543428Y-130017619D01*
X158543428Y-130303333D01*
X158448190Y-130493809D01*
X157781523Y-129636666D02*
X157876761Y-129827142D01*
X157876761Y-130208095D01*
X157781523Y-130398571D01*
X157686285Y-130493809D01*
X157495809Y-130589047D01*
X156924380Y-130589047D01*
X156733904Y-130493809D01*
X156638666Y-130398571D01*
X156543428Y-130208095D01*
X156543428Y-129827142D01*
X156638666Y-129636666D01*
D10*
X161290000Y-114300000D02*
X163830000Y-114300000D01*
X161290000Y-128016000D02*
X161290000Y-114300000D01*
X152400000Y-128016000D02*
X161290000Y-128016000D01*
X152400000Y-153670000D02*
X152400000Y-128016000D01*
X190500000Y-153670000D02*
X152400000Y-153670000D01*
X190500000Y-114300000D02*
X190500000Y-153670000D01*
X163830000Y-114300000D02*
X190500000Y-114300000D01*
D11*
X54166666Y-19859761D02*
X54833333Y-21859761D01*
X55500000Y-19859761D01*
X57309523Y-21669285D02*
X57214285Y-21764523D01*
X56928571Y-21859761D01*
X56738095Y-21859761D01*
X56452380Y-21764523D01*
X56261904Y-21574047D01*
X56166666Y-21383571D01*
X56071428Y-21002619D01*
X56071428Y-20716904D01*
X56166666Y-20335952D01*
X56261904Y-20145476D01*
X56452380Y-19955000D01*
X56738095Y-19859761D01*
X56928571Y-19859761D01*
X57214285Y-19955000D01*
X57309523Y-20050238D01*
X59309523Y-21669285D02*
X59214285Y-21764523D01*
X58928571Y-21859761D01*
X58738095Y-21859761D01*
X58452380Y-21764523D01*
X58261904Y-21574047D01*
X58166666Y-21383571D01*
X58071428Y-21002619D01*
X58071428Y-20716904D01*
X58166666Y-20335952D01*
X58261904Y-20145476D01*
X58452380Y-19955000D01*
X58738095Y-19859761D01*
X58928571Y-19859761D01*
X59214285Y-19955000D01*
X59309523Y-20050238D01*
X61690476Y-20812142D02*
X62357142Y-20812142D01*
X62642857Y-21859761D02*
X61690476Y-21859761D01*
X61690476Y-19859761D01*
X62642857Y-19859761D01*
X63500000Y-21859761D02*
X63500000Y-20526428D01*
X63500000Y-19859761D02*
X63404761Y-19955000D01*
X63500000Y-20050238D01*
X63595238Y-19955000D01*
X63500000Y-19859761D01*
X63500000Y-20050238D01*
X64452380Y-20526428D02*
X64452380Y-21859761D01*
X64452380Y-20716904D02*
X64547619Y-20621666D01*
X64738095Y-20526428D01*
X65023809Y-20526428D01*
X65214285Y-20621666D01*
X65309523Y-20812142D01*
X65309523Y-21859761D01*
X67119047Y-20526428D02*
X67119047Y-22145476D01*
X67023809Y-22335952D01*
X66928571Y-22431190D01*
X66738095Y-22526428D01*
X66452380Y-22526428D01*
X66261904Y-22431190D01*
X67119047Y-21764523D02*
X66928571Y-21859761D01*
X66547619Y-21859761D01*
X66357142Y-21764523D01*
X66261904Y-21669285D01*
X66166666Y-21478809D01*
X66166666Y-20907380D01*
X66261904Y-20716904D01*
X66357142Y-20621666D01*
X66547619Y-20526428D01*
X66928571Y-20526428D01*
X67119047Y-20621666D01*
X68928571Y-21859761D02*
X68928571Y-20812142D01*
X68833333Y-20621666D01*
X68642857Y-20526428D01*
X68261904Y-20526428D01*
X68071428Y-20621666D01*
X68928571Y-21764523D02*
X68738095Y-21859761D01*
X68261904Y-21859761D01*
X68071428Y-21764523D01*
X67976190Y-21574047D01*
X67976190Y-21383571D01*
X68071428Y-21193095D01*
X68261904Y-21097857D01*
X68738095Y-21097857D01*
X68928571Y-21002619D01*
X69880952Y-20526428D02*
X69880952Y-21859761D01*
X69880952Y-20716904D02*
X69976190Y-20621666D01*
X70166666Y-20526428D01*
X70452380Y-20526428D01*
X70642857Y-20621666D01*
X70738095Y-20812142D01*
X70738095Y-21859761D01*
X72547619Y-20526428D02*
X72547619Y-22145476D01*
X72452380Y-22335952D01*
X72357142Y-22431190D01*
X72166666Y-22526428D01*
X71880952Y-22526428D01*
X71690476Y-22431190D01*
X72547619Y-21764523D02*
X72357142Y-21859761D01*
X71976190Y-21859761D01*
X71785714Y-21764523D01*
X71690476Y-21669285D01*
X71595238Y-21478809D01*
X71595238Y-20907380D01*
X71690476Y-20716904D01*
X71785714Y-20621666D01*
X71976190Y-20526428D01*
X72357142Y-20526428D01*
X72547619Y-20621666D01*
D10*
X76200000Y-15240000D02*
X15240000Y-15240000D01*
X76200000Y-48260000D02*
X76200000Y-15240000D01*
X15240000Y-48260000D02*
X76200000Y-48260000D01*
X15240000Y-15240000D02*
X15240000Y-48260000D01*
D11*
X23369285Y-174033571D02*
X23369285Y-172533571D01*
X23369285Y-173247857D02*
X24226428Y-173247857D01*
X24226428Y-174033571D02*
X24226428Y-172533571D01*
X25440714Y-173247857D02*
X25655000Y-173319285D01*
X25726428Y-173390714D01*
X25797857Y-173533571D01*
X25797857Y-173747857D01*
X25726428Y-173890714D01*
X25655000Y-173962142D01*
X25512142Y-174033571D01*
X24940714Y-174033571D01*
X24940714Y-172533571D01*
X25440714Y-172533571D01*
X25583571Y-172605000D01*
X25655000Y-172676428D01*
X25726428Y-172819285D01*
X25726428Y-172962142D01*
X25655000Y-173105000D01*
X25583571Y-173176428D01*
X25440714Y-173247857D01*
X24940714Y-173247857D01*
X26440714Y-173462142D02*
X27583571Y-173462142D01*
X28155000Y-172533571D02*
X28512142Y-174033571D01*
X28797857Y-172962142D01*
X29083571Y-174033571D01*
X29440714Y-172533571D01*
X29869285Y-172533571D02*
X30226428Y-174033571D01*
X30512142Y-172962142D01*
X30797857Y-174033571D01*
X31155000Y-172533571D01*
X31726428Y-173462142D02*
X32869285Y-173462142D01*
X33583571Y-172533571D02*
X33583571Y-173747857D01*
X33655000Y-173890714D01*
X33726428Y-173962142D01*
X33869285Y-174033571D01*
X34155000Y-174033571D01*
X34297857Y-173962142D01*
X34369285Y-173890714D01*
X34440714Y-173747857D01*
X34440714Y-172533571D01*
X35655000Y-173247857D02*
X35869285Y-173319285D01*
X35940714Y-173390714D01*
X36012142Y-173533571D01*
X36012142Y-173747857D01*
X35940714Y-173890714D01*
X35869285Y-173962142D01*
X35726428Y-174033571D01*
X35155000Y-174033571D01*
X35155000Y-172533571D01*
X35655000Y-172533571D01*
X35797857Y-172605000D01*
X35869285Y-172676428D01*
X35940714Y-172819285D01*
X35940714Y-172962142D01*
X35869285Y-173105000D01*
X35797857Y-173176428D01*
X35655000Y-173247857D01*
X35155000Y-173247857D01*
X38226428Y-174605000D02*
X38155000Y-174533571D01*
X38012142Y-174319285D01*
X37940714Y-174176428D01*
X37869285Y-173962142D01*
X37797857Y-173605000D01*
X37797857Y-173319285D01*
X37869285Y-172962142D01*
X37940714Y-172747857D01*
X38012142Y-172605000D01*
X38155000Y-172390714D01*
X38226428Y-172319285D01*
X38583571Y-172533571D02*
X39083571Y-174033571D01*
X39583571Y-172533571D01*
X39940714Y-172533571D02*
X40869285Y-172533571D01*
X40369285Y-173105000D01*
X40583571Y-173105000D01*
X40726428Y-173176428D01*
X40797857Y-173247857D01*
X40869285Y-173390714D01*
X40869285Y-173747857D01*
X40797857Y-173890714D01*
X40726428Y-173962142D01*
X40583571Y-174033571D01*
X40155000Y-174033571D01*
X40012142Y-173962142D01*
X39940714Y-173890714D01*
X41512142Y-173890714D02*
X41583571Y-173962142D01*
X41512142Y-174033571D01*
X41440714Y-173962142D01*
X41512142Y-173890714D01*
X41512142Y-174033571D01*
X42512142Y-172533571D02*
X42655000Y-172533571D01*
X42797857Y-172605000D01*
X42869285Y-172676428D01*
X42940714Y-172819285D01*
X43012142Y-173105000D01*
X43012142Y-173462142D01*
X42940714Y-173747857D01*
X42869285Y-173890714D01*
X42797857Y-173962142D01*
X42655000Y-174033571D01*
X42512142Y-174033571D01*
X42369285Y-173962142D01*
X42297857Y-173890714D01*
X42226428Y-173747857D01*
X42155000Y-173462142D01*
X42155000Y-173105000D01*
X42226428Y-172819285D01*
X42297857Y-172676428D01*
X42369285Y-172605000D01*
X42512142Y-172533571D01*
X43512142Y-174605000D02*
X43583571Y-174533571D01*
X43726428Y-174319285D01*
X43797857Y-174176428D01*
X43869285Y-173962142D01*
X43940714Y-173605000D01*
X43940714Y-173319285D01*
X43869285Y-172962142D01*
X43797857Y-172747857D01*
X43726428Y-172605000D01*
X43583571Y-172390714D01*
X43512142Y-172319285D01*
D12*
G04 #@! TO.C,D11*
X131556000Y-55255500D02*
X131556000Y-60695500D01*
X131796000Y-55255500D02*
X131796000Y-60695500D01*
X131676000Y-55255500D02*
X131676000Y-60695500D01*
X140781000Y-57975500D02*
X139871000Y-57975500D01*
X129221000Y-57975500D02*
X130131000Y-57975500D01*
X139871000Y-55255500D02*
X130131000Y-55255500D01*
X139871000Y-60695500D02*
X139871000Y-55255500D01*
X130131000Y-60695500D02*
X139871000Y-60695500D01*
X130131000Y-55255500D02*
X130131000Y-60695500D01*
G04 #@! TO.C,D12*
X118408000Y-65966000D02*
X118408000Y-60526000D01*
X118408000Y-60526000D02*
X108668000Y-60526000D01*
X108668000Y-60526000D02*
X108668000Y-65966000D01*
X108668000Y-65966000D02*
X118408000Y-65966000D01*
X119318000Y-63246000D02*
X118408000Y-63246000D01*
X107758000Y-63246000D02*
X108668000Y-63246000D01*
X116863000Y-65966000D02*
X116863000Y-60526000D01*
X116743000Y-65966000D02*
X116743000Y-60526000D01*
X116983000Y-65966000D02*
X116983000Y-60526000D01*
G04 #@! TO.C,D1*
X131933000Y-183353000D02*
X131933000Y-188473000D01*
X131933000Y-188473000D02*
X138553000Y-188473000D01*
X138553000Y-188473000D02*
X139553000Y-187473000D01*
X139553000Y-187473000D02*
X139553000Y-183353000D01*
X139553000Y-183353000D02*
X131933000Y-183353000D01*
X131633000Y-186363000D02*
X131633000Y-188773000D01*
X131633000Y-188773000D02*
X134043000Y-188773000D01*
G04 #@! TO.C,D2*
X145463000Y-183351000D02*
X145463000Y-188471000D01*
X145463000Y-188471000D02*
X152083000Y-188471000D01*
X152083000Y-188471000D02*
X153083000Y-187471000D01*
X153083000Y-187471000D02*
X153083000Y-183351000D01*
X153083000Y-183351000D02*
X145463000Y-183351000D01*
X145163000Y-186361000D02*
X145163000Y-188771000D01*
X145163000Y-188771000D02*
X147573000Y-188771000D01*
G04 #@! TO.C,D3*
X158811000Y-188773000D02*
X161221000Y-188773000D01*
X158811000Y-186363000D02*
X158811000Y-188773000D01*
X166731000Y-183353000D02*
X159111000Y-183353000D01*
X166731000Y-187473000D02*
X166731000Y-183353000D01*
X165731000Y-188473000D02*
X166731000Y-187473000D01*
X159111000Y-188473000D02*
X165731000Y-188473000D01*
X159111000Y-183353000D02*
X159111000Y-188473000D01*
G04 #@! TO.C,D10*
X130736000Y-20837500D02*
X130736000Y-17897500D01*
X130736000Y-17897500D02*
X125296000Y-17897500D01*
X125296000Y-17897500D02*
X125296000Y-20837500D01*
X125296000Y-20837500D02*
X130736000Y-20837500D01*
X131756000Y-19367500D02*
X130736000Y-19367500D01*
X124276000Y-19367500D02*
X125296000Y-19367500D01*
X129836000Y-20837500D02*
X129836000Y-17897500D01*
X129716000Y-20837500D02*
X129716000Y-17897500D01*
X129956000Y-20837500D02*
X129956000Y-17897500D01*
G04 #@! TO.C,D20*
X186046000Y-68379000D02*
X188986000Y-68379000D01*
X188986000Y-68379000D02*
X188986000Y-62939000D01*
X188986000Y-62939000D02*
X186046000Y-62939000D01*
X186046000Y-62939000D02*
X186046000Y-68379000D01*
X187516000Y-69399000D02*
X187516000Y-68379000D01*
X187516000Y-61919000D02*
X187516000Y-62939000D01*
X186046000Y-67479000D02*
X188986000Y-67479000D01*
X186046000Y-67359000D02*
X188986000Y-67359000D01*
X186046000Y-67599000D02*
X188986000Y-67599000D01*
G04 #@! TO.C,D21*
X167884000Y-100123500D02*
X162444000Y-100123500D01*
X167884000Y-100363500D02*
X162444000Y-100363500D01*
X167884000Y-100243500D02*
X162444000Y-100243500D01*
X165164000Y-109348500D02*
X165164000Y-108438500D01*
X165164000Y-97788500D02*
X165164000Y-98698500D01*
X167884000Y-108438500D02*
X167884000Y-98698500D01*
X162444000Y-108438500D02*
X167884000Y-108438500D01*
X162444000Y-98698500D02*
X162444000Y-108438500D01*
X167884000Y-98698500D02*
X162444000Y-98698500D01*
G04 #@! TO.C,D22*
X161999000Y-83165500D02*
X167439000Y-83165500D01*
X167439000Y-83165500D02*
X167439000Y-73425500D01*
X167439000Y-73425500D02*
X161999000Y-73425500D01*
X161999000Y-73425500D02*
X161999000Y-83165500D01*
X164719000Y-84075500D02*
X164719000Y-83165500D01*
X164719000Y-72515500D02*
X164719000Y-73425500D01*
X161999000Y-81620500D02*
X167439000Y-81620500D01*
X161999000Y-81500500D02*
X167439000Y-81500500D01*
X161999000Y-81740500D02*
X167439000Y-81740500D01*
G04 #@! TO.C,D30*
X112874000Y-140852000D02*
X112874000Y-137912000D01*
X112634000Y-140852000D02*
X112634000Y-137912000D01*
X112754000Y-140852000D02*
X112754000Y-137912000D01*
X107194000Y-139382000D02*
X108214000Y-139382000D01*
X114674000Y-139382000D02*
X113654000Y-139382000D01*
X108214000Y-140852000D02*
X113654000Y-140852000D01*
X108214000Y-137912000D02*
X108214000Y-140852000D01*
X113654000Y-137912000D02*
X108214000Y-137912000D01*
X113654000Y-140852000D02*
X113654000Y-137912000D01*
G04 #@! TO.C,D31*
X99430500Y-164929000D02*
X93990500Y-164929000D01*
X93990500Y-164929000D02*
X93990500Y-174669000D01*
X93990500Y-174669000D02*
X99430500Y-174669000D01*
X99430500Y-174669000D02*
X99430500Y-164929000D01*
X96710500Y-164019000D02*
X96710500Y-164929000D01*
X96710500Y-175579000D02*
X96710500Y-174669000D01*
X99430500Y-166474000D02*
X93990500Y-166474000D01*
X99430500Y-166594000D02*
X93990500Y-166594000D01*
X99430500Y-166354000D02*
X93990500Y-166354000D01*
G04 #@! TO.C,D32*
X94117500Y-152035000D02*
X99557500Y-152035000D01*
X94117500Y-151795000D02*
X99557500Y-151795000D01*
X94117500Y-151915000D02*
X99557500Y-151915000D01*
X96837500Y-142810000D02*
X96837500Y-143720000D01*
X96837500Y-154370000D02*
X96837500Y-153460000D01*
X94117500Y-143720000D02*
X94117500Y-153460000D01*
X99557500Y-143720000D02*
X94117500Y-143720000D01*
X99557500Y-153460000D02*
X99557500Y-143720000D01*
X94117500Y-153460000D02*
X99557500Y-153460000D01*
G04 #@! TO.C,F1*
X32310000Y-13540000D02*
X51510000Y-13540000D01*
X32310000Y-17740000D02*
X32310000Y-13540000D01*
X51510000Y-17740000D02*
X32310000Y-17740000D01*
X33260000Y-45340000D02*
X33260000Y-17740000D01*
X50560000Y-45340000D02*
X33260000Y-45340000D01*
X50560000Y-45340000D02*
X50560000Y-17740000D01*
X51510000Y-17740000D02*
X51510000Y-13540000D01*
G04 #@! TO.C,J1*
X27930000Y-41432500D02*
X29580000Y-41432500D01*
X29580000Y-41432500D02*
X29580000Y-30912500D01*
X29580000Y-30912500D02*
X16460000Y-30912500D01*
X16460000Y-30912500D02*
X16460000Y-41432500D01*
X16460000Y-41432500D02*
X18410000Y-41432500D01*
X25410000Y-41432500D02*
X24430000Y-41432500D01*
X21910000Y-41432500D02*
X20930000Y-41432500D01*
X29880000Y-39322500D02*
X29880000Y-41732500D01*
X29880000Y-41732500D02*
X27930000Y-41732500D01*
G04 #@! TO.C,J2*
X71872000Y-41305500D02*
X73522000Y-41305500D01*
X73522000Y-41305500D02*
X73522000Y-30785500D01*
X73522000Y-30785500D02*
X63902000Y-30785500D01*
X63902000Y-30785500D02*
X63902000Y-41305500D01*
X63902000Y-41305500D02*
X65852000Y-41305500D01*
X69352000Y-41305500D02*
X68372000Y-41305500D01*
X73822000Y-39195500D02*
X73822000Y-41605500D01*
X73822000Y-41605500D02*
X71872000Y-41605500D01*
G04 #@! TO.C,J3*
X165150000Y-152308000D02*
X165150000Y-150358000D01*
X167560000Y-152308000D02*
X165150000Y-152308000D01*
X165450000Y-147838000D02*
X165450000Y-146858000D01*
X165450000Y-142388000D02*
X165450000Y-144338000D01*
X175970000Y-142388000D02*
X165450000Y-142388000D01*
X175970000Y-152008000D02*
X175970000Y-142388000D01*
X165450000Y-152008000D02*
X175970000Y-152008000D01*
X165450000Y-150358000D02*
X165450000Y-152008000D01*
G04 #@! TO.C,J4*
X165450000Y-136896000D02*
X165450000Y-138546000D01*
X165450000Y-138546000D02*
X175970000Y-138546000D01*
X175970000Y-138546000D02*
X175970000Y-128926000D01*
X175970000Y-128926000D02*
X165450000Y-128926000D01*
X165450000Y-128926000D02*
X165450000Y-130876000D01*
X165450000Y-134376000D02*
X165450000Y-133396000D01*
X167560000Y-138846000D02*
X165150000Y-138846000D01*
X165150000Y-138846000D02*
X165150000Y-136896000D01*
G04 #@! TO.C,J5*
X165278000Y-126082000D02*
X165278000Y-124132000D01*
X167688000Y-126082000D02*
X165278000Y-126082000D01*
X165578000Y-121612000D02*
X165578000Y-120632000D01*
X165578000Y-116162000D02*
X165578000Y-118112000D01*
X176098000Y-116162000D02*
X165578000Y-116162000D01*
X176098000Y-125782000D02*
X176098000Y-116162000D01*
X165578000Y-125782000D02*
X176098000Y-125782000D01*
X165578000Y-124132000D02*
X165578000Y-125782000D01*
G04 #@! TO.C,K10*
X132226000Y-23370000D02*
X134626000Y-23370000D01*
X134626000Y-25770000D02*
X134626000Y-23370000D01*
X121726000Y-23570000D02*
X134426000Y-23570000D01*
X121726000Y-52770000D02*
X121726000Y-23570000D01*
X122926000Y-52770000D02*
X121726000Y-52770000D01*
X130426000Y-52770000D02*
X125726000Y-52770000D01*
X134426000Y-52770000D02*
X133226000Y-52770000D01*
X134426000Y-23570000D02*
X134426000Y-52770000D01*
X129286000Y-29210000D02*
X128016000Y-31750000D01*
X125476000Y-30480000D02*
X124206000Y-30480000D01*
X124206000Y-30480000D02*
X124206000Y-29210000D01*
X131826000Y-29210000D02*
X131826000Y-30480000D01*
X131826000Y-30480000D02*
X130556000Y-30480000D01*
X130556000Y-30480000D02*
X130556000Y-31750000D01*
X130556000Y-31750000D02*
X125476000Y-31750000D01*
X125476000Y-31750000D02*
X125476000Y-29210000D01*
X125476000Y-29210000D02*
X130556000Y-29210000D01*
X130556000Y-29210000D02*
X130556000Y-30480000D01*
G04 #@! TO.C,K20*
X178562000Y-73406000D02*
X178562000Y-74676000D01*
X173482000Y-73406000D02*
X178562000Y-73406000D01*
X173482000Y-75946000D02*
X173482000Y-73406000D01*
X178562000Y-75946000D02*
X173482000Y-75946000D01*
X178562000Y-74676000D02*
X178562000Y-75946000D01*
X179832000Y-74676000D02*
X178562000Y-74676000D01*
X179832000Y-73406000D02*
X179832000Y-74676000D01*
X172212000Y-74676000D02*
X172212000Y-73406000D01*
X173482000Y-74676000D02*
X172212000Y-74676000D01*
X177292000Y-73406000D02*
X176022000Y-75946000D01*
X182432000Y-67766000D02*
X182432000Y-96966000D01*
X182432000Y-96966000D02*
X181232000Y-96966000D01*
X178432000Y-96966000D02*
X173732000Y-96966000D01*
X170932000Y-96966000D02*
X169732000Y-96966000D01*
X169732000Y-96966000D02*
X169732000Y-67766000D01*
X169732000Y-67766000D02*
X182432000Y-67766000D01*
X182632000Y-69966000D02*
X182632000Y-67566000D01*
X180232000Y-67566000D02*
X182632000Y-67566000D01*
G04 #@! TO.C,K30*
X115081000Y-142242000D02*
X117481000Y-142242000D01*
X117481000Y-144642000D02*
X117481000Y-142242000D01*
X104581000Y-142442000D02*
X117281000Y-142442000D01*
X104581000Y-171642000D02*
X104581000Y-142442000D01*
X105781000Y-171642000D02*
X104581000Y-171642000D01*
X113281000Y-171642000D02*
X108581000Y-171642000D01*
X117281000Y-171642000D02*
X116081000Y-171642000D01*
X117281000Y-142442000D02*
X117281000Y-171642000D01*
X112141000Y-148082000D02*
X110871000Y-150622000D01*
X108331000Y-149352000D02*
X107061000Y-149352000D01*
X107061000Y-149352000D02*
X107061000Y-148082000D01*
X114681000Y-148082000D02*
X114681000Y-149352000D01*
X114681000Y-149352000D02*
X113411000Y-149352000D01*
X113411000Y-149352000D02*
X113411000Y-150622000D01*
X113411000Y-150622000D02*
X108331000Y-150622000D01*
X108331000Y-150622000D02*
X108331000Y-148082000D01*
X108331000Y-148082000D02*
X113411000Y-148082000D01*
X113411000Y-148082000D02*
X113411000Y-149352000D01*
G04 #@! TO.C,R1*
X135736000Y-179134000D02*
G75*
G03X135736000Y-179134000I-1370000J0D01*
G01*
X135736000Y-179134000D02*
X135806000Y-179134000D01*
G04 #@! TO.C,R2*
X149325000Y-179134000D02*
G75*
G03X149325000Y-179134000I-1370000J0D01*
G01*
X149325000Y-179134000D02*
X149395000Y-179134000D01*
G04 #@! TO.C,R3*
X162978000Y-179134000D02*
X163048000Y-179134000D01*
X162978000Y-179134000D02*
G75*
G03X162978000Y-179134000I-1370000J0D01*
G01*
D13*
G04 #@! TO.C,PS1*
X69180000Y-141290000D02*
X17180000Y-141290000D01*
X17180000Y-141290000D02*
X17180000Y-54290000D01*
X69180000Y-54290000D02*
X69180000Y-141290000D01*
X17180000Y-54290000D02*
X69180000Y-54290000D01*
D14*
X64380000Y-53100000D02*
G75*
G03X64380000Y-53100000I-200000J0D01*
G01*
G04 #@! TO.C,PS2*
X71080000Y-79330000D02*
G75*
G03X71080000Y-79330000I-200000J0D01*
G01*
D13*
X72070000Y-126330000D02*
X72070000Y-74330000D01*
X72070000Y-74330000D02*
X159070000Y-74330000D01*
X159070000Y-126330000D02*
X72070000Y-126330000D01*
X159070000Y-74330000D02*
X159070000Y-126330000D01*
D15*
G04 #@! TO.C,U10*
X118831000Y-37870000D02*
X118831000Y-59470000D01*
X118831000Y-37870000D02*
X118831000Y-16270000D01*
X118831000Y-16270000D02*
X87031000Y-16270000D01*
X118831000Y-59470000D02*
X87031000Y-59470000D01*
X87031000Y-59470000D02*
X87031000Y-16270000D01*
G04 #@! TO.C,U20*
X184731000Y-37890000D02*
X184731000Y-59490000D01*
X184731000Y-37890000D02*
X184731000Y-16290000D01*
X184731000Y-16290000D02*
X152931000Y-16290000D01*
X184731000Y-59490000D02*
X152931000Y-59490000D01*
X152931000Y-59490000D02*
X152931000Y-16290000D01*
G04 #@! TO.C,U30*
X88831000Y-165670000D02*
X88831000Y-187270000D01*
X88831000Y-165670000D02*
X88831000Y-144070000D01*
X88831000Y-144070000D02*
X57031000Y-144070000D01*
X88831000Y-187270000D02*
X57031000Y-187270000D01*
X57031000Y-187270000D02*
X57031000Y-144070000D01*
G04 #@! TO.C,D11*
X134675714Y-58237380D02*
X134675714Y-57237380D01*
X134913809Y-57237380D01*
X135056666Y-57285000D01*
X135151904Y-57380238D01*
X135199523Y-57475476D01*
X135247142Y-57665952D01*
X135247142Y-57808809D01*
X135199523Y-57999285D01*
X135151904Y-58094523D01*
X135056666Y-58189761D01*
X134913809Y-58237380D01*
X134675714Y-58237380D01*
X136199523Y-58237380D02*
X135628095Y-58237380D01*
X135913809Y-58237380D02*
X135913809Y-57237380D01*
X135818571Y-57380238D01*
X135723333Y-57475476D01*
X135628095Y-57523095D01*
X137151904Y-58237380D02*
X136580476Y-58237380D01*
X136866190Y-58237380D02*
X136866190Y-57237380D01*
X136770952Y-57380238D01*
X136675714Y-57475476D01*
X136580476Y-57523095D01*
X132858142Y-62147880D02*
X132286714Y-62147880D01*
X132572428Y-62147880D02*
X132572428Y-61147880D01*
X132477190Y-61290738D01*
X132381952Y-61385976D01*
X132286714Y-61433595D01*
X133286714Y-62147880D02*
X133286714Y-61147880D01*
X133858142Y-62147880D01*
X133858142Y-61147880D01*
X134810523Y-61147880D02*
X134334333Y-61147880D01*
X134286714Y-61624071D01*
X134334333Y-61576452D01*
X134429571Y-61528833D01*
X134667666Y-61528833D01*
X134762904Y-61576452D01*
X134810523Y-61624071D01*
X134858142Y-61719309D01*
X134858142Y-61957404D01*
X134810523Y-62052642D01*
X134762904Y-62100261D01*
X134667666Y-62147880D01*
X134429571Y-62147880D01*
X134334333Y-62100261D01*
X134286714Y-62052642D01*
X135429571Y-61576452D02*
X135334333Y-61528833D01*
X135286714Y-61481214D01*
X135239095Y-61385976D01*
X135239095Y-61338357D01*
X135286714Y-61243119D01*
X135334333Y-61195500D01*
X135429571Y-61147880D01*
X135620047Y-61147880D01*
X135715285Y-61195500D01*
X135762904Y-61243119D01*
X135810523Y-61338357D01*
X135810523Y-61385976D01*
X135762904Y-61481214D01*
X135715285Y-61528833D01*
X135620047Y-61576452D01*
X135429571Y-61576452D01*
X135334333Y-61624071D01*
X135286714Y-61671690D01*
X135239095Y-61766928D01*
X135239095Y-61957404D01*
X135286714Y-62052642D01*
X135334333Y-62100261D01*
X135429571Y-62147880D01*
X135620047Y-62147880D01*
X135715285Y-62100261D01*
X135762904Y-62052642D01*
X135810523Y-61957404D01*
X135810523Y-61766928D01*
X135762904Y-61671690D01*
X135715285Y-61624071D01*
X135620047Y-61576452D01*
X136191476Y-61243119D02*
X136239095Y-61195500D01*
X136334333Y-61147880D01*
X136572428Y-61147880D01*
X136667666Y-61195500D01*
X136715285Y-61243119D01*
X136762904Y-61338357D01*
X136762904Y-61433595D01*
X136715285Y-61576452D01*
X136143857Y-62147880D01*
X136762904Y-62147880D01*
X137381952Y-61147880D02*
X137477190Y-61147880D01*
X137572428Y-61195500D01*
X137620047Y-61243119D01*
X137667666Y-61338357D01*
X137715285Y-61528833D01*
X137715285Y-61766928D01*
X137667666Y-61957404D01*
X137620047Y-62052642D01*
X137572428Y-62100261D01*
X137477190Y-62147880D01*
X137381952Y-62147880D01*
X137286714Y-62100261D01*
X137239095Y-62052642D01*
X137191476Y-61957404D01*
X137143857Y-61766928D01*
X137143857Y-61528833D01*
X137191476Y-61338357D01*
X137239095Y-61243119D01*
X137286714Y-61195500D01*
X137381952Y-61147880D01*
X130548095Y-58237380D02*
X130548095Y-57237380D01*
X131119523Y-58237380D02*
X130690952Y-57665952D01*
X131119523Y-57237380D02*
X130548095Y-57808809D01*
G04 #@! TO.C,D12*
X111751714Y-63825380D02*
X111751714Y-62825380D01*
X111989809Y-62825380D01*
X112132666Y-62873000D01*
X112227904Y-62968238D01*
X112275523Y-63063476D01*
X112323142Y-63253952D01*
X112323142Y-63396809D01*
X112275523Y-63587285D01*
X112227904Y-63682523D01*
X112132666Y-63777761D01*
X111989809Y-63825380D01*
X111751714Y-63825380D01*
X113275523Y-63825380D02*
X112704095Y-63825380D01*
X112989809Y-63825380D02*
X112989809Y-62825380D01*
X112894571Y-62968238D01*
X112799333Y-63063476D01*
X112704095Y-63111095D01*
X113656476Y-62920619D02*
X113704095Y-62873000D01*
X113799333Y-62825380D01*
X114037428Y-62825380D01*
X114132666Y-62873000D01*
X114180285Y-62920619D01*
X114227904Y-63015857D01*
X114227904Y-63111095D01*
X114180285Y-63253952D01*
X113608857Y-63825380D01*
X114227904Y-63825380D01*
X110569142Y-67381380D02*
X109997714Y-67381380D01*
X110283428Y-67381380D02*
X110283428Y-66381380D01*
X110188190Y-66524238D01*
X110092952Y-66619476D01*
X109997714Y-66667095D01*
X110997714Y-67381380D02*
X110997714Y-66381380D01*
X111569142Y-67381380D01*
X111569142Y-66381380D01*
X112521523Y-66381380D02*
X112045333Y-66381380D01*
X111997714Y-66857571D01*
X112045333Y-66809952D01*
X112140571Y-66762333D01*
X112378666Y-66762333D01*
X112473904Y-66809952D01*
X112521523Y-66857571D01*
X112569142Y-66952809D01*
X112569142Y-67190904D01*
X112521523Y-67286142D01*
X112473904Y-67333761D01*
X112378666Y-67381380D01*
X112140571Y-67381380D01*
X112045333Y-67333761D01*
X111997714Y-67286142D01*
X113140571Y-66809952D02*
X113045333Y-66762333D01*
X112997714Y-66714714D01*
X112950095Y-66619476D01*
X112950095Y-66571857D01*
X112997714Y-66476619D01*
X113045333Y-66429000D01*
X113140571Y-66381380D01*
X113331047Y-66381380D01*
X113426285Y-66429000D01*
X113473904Y-66476619D01*
X113521523Y-66571857D01*
X113521523Y-66619476D01*
X113473904Y-66714714D01*
X113426285Y-66762333D01*
X113331047Y-66809952D01*
X113140571Y-66809952D01*
X113045333Y-66857571D01*
X112997714Y-66905190D01*
X112950095Y-67000428D01*
X112950095Y-67190904D01*
X112997714Y-67286142D01*
X113045333Y-67333761D01*
X113140571Y-67381380D01*
X113331047Y-67381380D01*
X113426285Y-67333761D01*
X113473904Y-67286142D01*
X113521523Y-67190904D01*
X113521523Y-67000428D01*
X113473904Y-66905190D01*
X113426285Y-66857571D01*
X113331047Y-66809952D01*
X113902476Y-66476619D02*
X113950095Y-66429000D01*
X114045333Y-66381380D01*
X114283428Y-66381380D01*
X114378666Y-66429000D01*
X114426285Y-66476619D01*
X114473904Y-66571857D01*
X114473904Y-66667095D01*
X114426285Y-66809952D01*
X113854857Y-67381380D01*
X114473904Y-67381380D01*
X115092952Y-66381380D02*
X115188190Y-66381380D01*
X115283428Y-66429000D01*
X115331047Y-66476619D01*
X115378666Y-66571857D01*
X115426285Y-66762333D01*
X115426285Y-67000428D01*
X115378666Y-67190904D01*
X115331047Y-67286142D01*
X115283428Y-67333761D01*
X115188190Y-67381380D01*
X115092952Y-67381380D01*
X114997714Y-67333761D01*
X114950095Y-67286142D01*
X114902476Y-67190904D01*
X114854857Y-67000428D01*
X114854857Y-66762333D01*
X114902476Y-66571857D01*
X114950095Y-66476619D01*
X114997714Y-66429000D01*
X115092952Y-66381380D01*
X117530095Y-63825380D02*
X117530095Y-62825380D01*
X118101523Y-63825380D02*
X117672952Y-63253952D01*
X118101523Y-62825380D02*
X117530095Y-63396809D01*
G04 #@! TO.C,Copy02*
D12*
X23230000Y-176672142D02*
X23480000Y-177572142D01*
X23730000Y-176672142D01*
X24265714Y-177529285D02*
X24194285Y-177572142D01*
X24051428Y-177572142D01*
X23980000Y-177529285D01*
X23944285Y-177443571D01*
X23944285Y-177100714D01*
X23980000Y-177015000D01*
X24051428Y-176972142D01*
X24194285Y-176972142D01*
X24265714Y-177015000D01*
X24301428Y-177100714D01*
X24301428Y-177186428D01*
X23944285Y-177272142D01*
X24622857Y-177572142D02*
X24622857Y-176972142D01*
X24622857Y-177143571D02*
X24658571Y-177057857D01*
X24694285Y-177015000D01*
X24765714Y-176972142D01*
X24837142Y-176972142D01*
X25051428Y-177529285D02*
X25122857Y-177572142D01*
X25265714Y-177572142D01*
X25337142Y-177529285D01*
X25372857Y-177443571D01*
X25372857Y-177400714D01*
X25337142Y-177315000D01*
X25265714Y-177272142D01*
X25158571Y-177272142D01*
X25087142Y-177229285D01*
X25051428Y-177143571D01*
X25051428Y-177100714D01*
X25087142Y-177015000D01*
X25158571Y-176972142D01*
X25265714Y-176972142D01*
X25337142Y-177015000D01*
X25694285Y-177572142D02*
X25694285Y-176972142D01*
X25694285Y-176672142D02*
X25658571Y-176715000D01*
X25694285Y-176757857D01*
X25730000Y-176715000D01*
X25694285Y-176672142D01*
X25694285Y-176757857D01*
X26158571Y-177572142D02*
X26087142Y-177529285D01*
X26051428Y-177486428D01*
X26015714Y-177400714D01*
X26015714Y-177143571D01*
X26051428Y-177057857D01*
X26087142Y-177015000D01*
X26158571Y-176972142D01*
X26265714Y-176972142D01*
X26337142Y-177015000D01*
X26372857Y-177057857D01*
X26408571Y-177143571D01*
X26408571Y-177400714D01*
X26372857Y-177486428D01*
X26337142Y-177529285D01*
X26265714Y-177572142D01*
X26158571Y-177572142D01*
X26730000Y-176972142D02*
X26730000Y-177572142D01*
X26730000Y-177057857D02*
X26765714Y-177015000D01*
X26837142Y-176972142D01*
X26944285Y-176972142D01*
X27015714Y-177015000D01*
X27051428Y-177100714D01*
X27051428Y-177572142D01*
X27908571Y-176672142D02*
X28372857Y-176672142D01*
X28122857Y-177015000D01*
X28230000Y-177015000D01*
X28301428Y-177057857D01*
X28337142Y-177100714D01*
X28372857Y-177186428D01*
X28372857Y-177400714D01*
X28337142Y-177486428D01*
X28301428Y-177529285D01*
X28230000Y-177572142D01*
X28015714Y-177572142D01*
X27944285Y-177529285D01*
X27908571Y-177486428D01*
X28694285Y-177486428D02*
X28730000Y-177529285D01*
X28694285Y-177572142D01*
X28658571Y-177529285D01*
X28694285Y-177486428D01*
X28694285Y-177572142D01*
X29194285Y-176672142D02*
X29265714Y-176672142D01*
X29337142Y-176715000D01*
X29372857Y-176757857D01*
X29408571Y-176843571D01*
X29444285Y-177015000D01*
X29444285Y-177229285D01*
X29408571Y-177400714D01*
X29372857Y-177486428D01*
X29337142Y-177529285D01*
X29265714Y-177572142D01*
X29194285Y-177572142D01*
X29122857Y-177529285D01*
X29087142Y-177486428D01*
X29051428Y-177400714D01*
X29015714Y-177229285D01*
X29015714Y-177015000D01*
X29051428Y-176843571D01*
X29087142Y-176757857D01*
X29122857Y-176715000D01*
X29194285Y-176672142D01*
X29765714Y-177486428D02*
X29801428Y-177529285D01*
X29765714Y-177572142D01*
X29730000Y-177529285D01*
X29765714Y-177486428D01*
X29765714Y-177572142D01*
X30515714Y-177572142D02*
X30087142Y-177572142D01*
X30301428Y-177572142D02*
X30301428Y-176672142D01*
X30230000Y-176800714D01*
X30158571Y-176886428D01*
X30087142Y-176929285D01*
X31408571Y-177229285D02*
X31980000Y-177229285D01*
X33051428Y-176672142D02*
X33122857Y-176672142D01*
X33194285Y-176715000D01*
X33230000Y-176757857D01*
X33265714Y-176843571D01*
X33301428Y-177015000D01*
X33301428Y-177229285D01*
X33265714Y-177400714D01*
X33230000Y-177486428D01*
X33194285Y-177529285D01*
X33122857Y-177572142D01*
X33051428Y-177572142D01*
X32980000Y-177529285D01*
X32944285Y-177486428D01*
X32908571Y-177400714D01*
X32872857Y-177229285D01*
X32872857Y-177015000D01*
X32908571Y-176843571D01*
X32944285Y-176757857D01*
X32980000Y-176715000D01*
X33051428Y-176672142D01*
X33587142Y-176757857D02*
X33622857Y-176715000D01*
X33694285Y-176672142D01*
X33872857Y-176672142D01*
X33944285Y-176715000D01*
X33980000Y-176757857D01*
X34015714Y-176843571D01*
X34015714Y-176929285D01*
X33980000Y-177057857D01*
X33551428Y-177572142D01*
X34015714Y-177572142D01*
X34872857Y-176629285D02*
X34230000Y-177786428D01*
X35087142Y-176757857D02*
X35122857Y-176715000D01*
X35194285Y-176672142D01*
X35372857Y-176672142D01*
X35444285Y-176715000D01*
X35480000Y-176757857D01*
X35515714Y-176843571D01*
X35515714Y-176929285D01*
X35480000Y-177057857D01*
X35051428Y-177572142D01*
X35515714Y-177572142D01*
X35980000Y-176672142D02*
X36051428Y-176672142D01*
X36122857Y-176715000D01*
X36158571Y-176757857D01*
X36194285Y-176843571D01*
X36230000Y-177015000D01*
X36230000Y-177229285D01*
X36194285Y-177400714D01*
X36158571Y-177486428D01*
X36122857Y-177529285D01*
X36051428Y-177572142D01*
X35980000Y-177572142D01*
X35908571Y-177529285D01*
X35872857Y-177486428D01*
X35837142Y-177400714D01*
X35801428Y-177229285D01*
X35801428Y-177015000D01*
X35837142Y-176843571D01*
X35872857Y-176757857D01*
X35908571Y-176715000D01*
X35980000Y-176672142D01*
X36515714Y-176757857D02*
X36551428Y-176715000D01*
X36622857Y-176672142D01*
X36801428Y-176672142D01*
X36872857Y-176715000D01*
X36908571Y-176757857D01*
X36944285Y-176843571D01*
X36944285Y-176929285D01*
X36908571Y-177057857D01*
X36480000Y-177572142D01*
X36944285Y-177572142D01*
X37408571Y-176672142D02*
X37480000Y-176672142D01*
X37551428Y-176715000D01*
X37587142Y-176757857D01*
X37622857Y-176843571D01*
X37658571Y-177015000D01*
X37658571Y-177229285D01*
X37622857Y-177400714D01*
X37587142Y-177486428D01*
X37551428Y-177529285D01*
X37480000Y-177572142D01*
X37408571Y-177572142D01*
X37337142Y-177529285D01*
X37301428Y-177486428D01*
X37265714Y-177400714D01*
X37230000Y-177229285D01*
X37230000Y-177015000D01*
X37265714Y-176843571D01*
X37301428Y-176757857D01*
X37337142Y-176715000D01*
X37408571Y-176672142D01*
D15*
X23825000Y-174981428D02*
X23753571Y-174938571D01*
X23610714Y-174938571D01*
X23539285Y-174981428D01*
X23467857Y-175067142D01*
X23432142Y-175152857D01*
X23432142Y-175324285D01*
X23467857Y-175410000D01*
X23539285Y-175495714D01*
X23610714Y-175538571D01*
X23753571Y-175538571D01*
X23825000Y-175495714D01*
X23682142Y-174638571D02*
X23503571Y-174681428D01*
X23325000Y-174810000D01*
X23217857Y-175024285D01*
X23182142Y-175238571D01*
X23217857Y-175452857D01*
X23325000Y-175667142D01*
X23503571Y-175795714D01*
X23682142Y-175838571D01*
X23860714Y-175795714D01*
X24039285Y-175667142D01*
X24146428Y-175452857D01*
X24182142Y-175238571D01*
X24146428Y-175024285D01*
X24039285Y-174810000D01*
X23860714Y-174681428D01*
X23682142Y-174638571D01*
X25039285Y-175624285D02*
X25146428Y-175667142D01*
X25325000Y-175667142D01*
X25396428Y-175624285D01*
X25432142Y-175581428D01*
X25467857Y-175495714D01*
X25467857Y-175410000D01*
X25432142Y-175324285D01*
X25396428Y-175281428D01*
X25325000Y-175238571D01*
X25182142Y-175195714D01*
X25110714Y-175152857D01*
X25075000Y-175110000D01*
X25039285Y-175024285D01*
X25039285Y-174938571D01*
X25075000Y-174852857D01*
X25110714Y-174810000D01*
X25182142Y-174767142D01*
X25360714Y-174767142D01*
X25467857Y-174810000D01*
X25789285Y-175667142D02*
X25789285Y-175067142D01*
X25789285Y-174767142D02*
X25753571Y-174810000D01*
X25789285Y-174852857D01*
X25825000Y-174810000D01*
X25789285Y-174767142D01*
X25789285Y-174852857D01*
X26253571Y-175667142D02*
X26182142Y-175624285D01*
X26146428Y-175538571D01*
X26146428Y-174767142D01*
X26467857Y-175067142D02*
X26646428Y-175667142D01*
X26825000Y-175067142D01*
X27110714Y-175667142D02*
X27110714Y-175067142D01*
X27110714Y-174767142D02*
X27075000Y-174810000D01*
X27110714Y-174852857D01*
X27146428Y-174810000D01*
X27110714Y-174767142D01*
X27110714Y-174852857D01*
X27575000Y-175667142D02*
X27503571Y-175624285D01*
X27467857Y-175581428D01*
X27432142Y-175495714D01*
X27432142Y-175238571D01*
X27467857Y-175152857D01*
X27503571Y-175110000D01*
X27575000Y-175067142D01*
X27682142Y-175067142D01*
X27753571Y-175110000D01*
X27789285Y-175152857D01*
X27825000Y-175238571D01*
X27825000Y-175495714D01*
X27789285Y-175581428D01*
X27753571Y-175624285D01*
X27682142Y-175667142D01*
X27575000Y-175667142D01*
X28682142Y-175624285D02*
X28789285Y-175667142D01*
X28967857Y-175667142D01*
X29039285Y-175624285D01*
X29075000Y-175581428D01*
X29110714Y-175495714D01*
X29110714Y-175410000D01*
X29075000Y-175324285D01*
X29039285Y-175281428D01*
X28967857Y-175238571D01*
X28825000Y-175195714D01*
X28753571Y-175152857D01*
X28717857Y-175110000D01*
X28682142Y-175024285D01*
X28682142Y-174938571D01*
X28717857Y-174852857D01*
X28753571Y-174810000D01*
X28825000Y-174767142D01*
X29003571Y-174767142D01*
X29110714Y-174810000D01*
X29325000Y-175067142D02*
X29610714Y-175067142D01*
X29432142Y-174767142D02*
X29432142Y-175538571D01*
X29467857Y-175624285D01*
X29539285Y-175667142D01*
X29610714Y-175667142D01*
X30146428Y-175624285D02*
X30075000Y-175667142D01*
X29932142Y-175667142D01*
X29860714Y-175624285D01*
X29825000Y-175538571D01*
X29825000Y-175195714D01*
X29860714Y-175110000D01*
X29932142Y-175067142D01*
X30075000Y-175067142D01*
X30146428Y-175110000D01*
X30182142Y-175195714D01*
X30182142Y-175281428D01*
X29825000Y-175367142D01*
X30503571Y-175667142D02*
X30503571Y-175067142D01*
X30503571Y-175238571D02*
X30539285Y-175152857D01*
X30575000Y-175110000D01*
X30646428Y-175067142D01*
X30717857Y-175067142D01*
X30967857Y-175067142D02*
X30967857Y-175667142D01*
X30967857Y-175152857D02*
X31003571Y-175110000D01*
X31075000Y-175067142D01*
X31182142Y-175067142D01*
X31253571Y-175110000D01*
X31289285Y-175195714D01*
X31289285Y-175667142D01*
X31646428Y-175667142D02*
X31646428Y-175067142D01*
X31646428Y-174767142D02*
X31610714Y-174810000D01*
X31646428Y-174852857D01*
X31682142Y-174810000D01*
X31646428Y-174767142D01*
X31646428Y-174852857D01*
X31896428Y-175067142D02*
X32182142Y-175067142D01*
X32003571Y-174767142D02*
X32003571Y-175538571D01*
X32039285Y-175624285D01*
X32110714Y-175667142D01*
X32182142Y-175667142D01*
X32360714Y-175067142D02*
X32753571Y-175067142D01*
X32360714Y-175667142D01*
X32753571Y-175667142D01*
X33039285Y-175667142D02*
X33039285Y-174767142D01*
X33110714Y-175324285D02*
X33325000Y-175667142D01*
X33325000Y-175067142D02*
X33039285Y-175410000D01*
X33932142Y-175624285D02*
X33860714Y-175667142D01*
X33717857Y-175667142D01*
X33646428Y-175624285D01*
X33610714Y-175538571D01*
X33610714Y-175195714D01*
X33646428Y-175110000D01*
X33717857Y-175067142D01*
X33860714Y-175067142D01*
X33932142Y-175110000D01*
X33967857Y-175195714D01*
X33967857Y-175281428D01*
X33610714Y-175367142D01*
G04 #@! TO.C,D1*
X135004904Y-184602380D02*
X135004904Y-183602380D01*
X135243000Y-183602380D01*
X135385857Y-183650000D01*
X135481095Y-183745238D01*
X135528714Y-183840476D01*
X135576333Y-184030952D01*
X135576333Y-184173809D01*
X135528714Y-184364285D01*
X135481095Y-184459523D01*
X135385857Y-184554761D01*
X135243000Y-184602380D01*
X135004904Y-184602380D01*
X136528714Y-184602380D02*
X135957285Y-184602380D01*
X136243000Y-184602380D02*
X136243000Y-183602380D01*
X136147761Y-183745238D01*
X136052523Y-183840476D01*
X135957285Y-183888095D01*
X135100142Y-190952380D02*
X134623952Y-190952380D01*
X134623952Y-189952380D01*
X135433476Y-190428571D02*
X135766809Y-190428571D01*
X135909666Y-190952380D02*
X135433476Y-190952380D01*
X135433476Y-189952380D01*
X135909666Y-189952380D01*
X136338238Y-190952380D02*
X136338238Y-189952380D01*
X136576333Y-189952380D01*
X136719190Y-190000000D01*
X136814428Y-190095238D01*
X136862047Y-190190476D01*
X136909666Y-190380952D01*
X136909666Y-190523809D01*
X136862047Y-190714285D01*
X136814428Y-190809523D01*
X136719190Y-190904761D01*
X136576333Y-190952380D01*
X136338238Y-190952380D01*
G04 #@! TO.C,D2*
X148534904Y-184602380D02*
X148534904Y-183602380D01*
X148773000Y-183602380D01*
X148915857Y-183650000D01*
X149011095Y-183745238D01*
X149058714Y-183840476D01*
X149106333Y-184030952D01*
X149106333Y-184173809D01*
X149058714Y-184364285D01*
X149011095Y-184459523D01*
X148915857Y-184554761D01*
X148773000Y-184602380D01*
X148534904Y-184602380D01*
X149487285Y-183697619D02*
X149534904Y-183650000D01*
X149630142Y-183602380D01*
X149868238Y-183602380D01*
X149963476Y-183650000D01*
X150011095Y-183697619D01*
X150058714Y-183792857D01*
X150058714Y-183888095D01*
X150011095Y-184030952D01*
X149439666Y-184602380D01*
X150058714Y-184602380D01*
X148582142Y-190952380D02*
X148105952Y-190952380D01*
X148105952Y-189952380D01*
X148915476Y-190428571D02*
X149248809Y-190428571D01*
X149391666Y-190952380D02*
X148915476Y-190952380D01*
X148915476Y-189952380D01*
X149391666Y-189952380D01*
X149820238Y-190952380D02*
X149820238Y-189952380D01*
X150058333Y-189952380D01*
X150201190Y-190000000D01*
X150296428Y-190095238D01*
X150344047Y-190190476D01*
X150391666Y-190380952D01*
X150391666Y-190523809D01*
X150344047Y-190714285D01*
X150296428Y-190809523D01*
X150201190Y-190904761D01*
X150058333Y-190952380D01*
X149820238Y-190952380D01*
G04 #@! TO.C,D3*
X162182904Y-184602380D02*
X162182904Y-183602380D01*
X162421000Y-183602380D01*
X162563857Y-183650000D01*
X162659095Y-183745238D01*
X162706714Y-183840476D01*
X162754333Y-184030952D01*
X162754333Y-184173809D01*
X162706714Y-184364285D01*
X162659095Y-184459523D01*
X162563857Y-184554761D01*
X162421000Y-184602380D01*
X162182904Y-184602380D01*
X163087666Y-183602380D02*
X163706714Y-183602380D01*
X163373380Y-183983333D01*
X163516238Y-183983333D01*
X163611476Y-184030952D01*
X163659095Y-184078571D01*
X163706714Y-184173809D01*
X163706714Y-184411904D01*
X163659095Y-184507142D01*
X163611476Y-184554761D01*
X163516238Y-184602380D01*
X163230523Y-184602380D01*
X163135285Y-184554761D01*
X163087666Y-184507142D01*
X162278142Y-190952380D02*
X161801952Y-190952380D01*
X161801952Y-189952380D01*
X162611476Y-190428571D02*
X162944809Y-190428571D01*
X163087666Y-190952380D02*
X162611476Y-190952380D01*
X162611476Y-189952380D01*
X163087666Y-189952380D01*
X163516238Y-190952380D02*
X163516238Y-189952380D01*
X163754333Y-189952380D01*
X163897190Y-190000000D01*
X163992428Y-190095238D01*
X164040047Y-190190476D01*
X164087666Y-190380952D01*
X164087666Y-190523809D01*
X164040047Y-190714285D01*
X163992428Y-190809523D01*
X163897190Y-190904761D01*
X163754333Y-190952380D01*
X163516238Y-190952380D01*
G04 #@! TO.C,D10*
X126420714Y-19502380D02*
X126420714Y-18502380D01*
X126658809Y-18502380D01*
X126801666Y-18550000D01*
X126896904Y-18645238D01*
X126944523Y-18740476D01*
X126992142Y-18930952D01*
X126992142Y-19073809D01*
X126944523Y-19264285D01*
X126896904Y-19359523D01*
X126801666Y-19454761D01*
X126658809Y-19502380D01*
X126420714Y-19502380D01*
X127944523Y-19502380D02*
X127373095Y-19502380D01*
X127658809Y-19502380D02*
X127658809Y-18502380D01*
X127563571Y-18645238D01*
X127468333Y-18740476D01*
X127373095Y-18788095D01*
X128563571Y-18502380D02*
X128658809Y-18502380D01*
X128754047Y-18550000D01*
X128801666Y-18597619D01*
X128849285Y-18692857D01*
X128896904Y-18883333D01*
X128896904Y-19121428D01*
X128849285Y-19311904D01*
X128801666Y-19407142D01*
X128754047Y-19454761D01*
X128658809Y-19502380D01*
X128563571Y-19502380D01*
X128468333Y-19454761D01*
X128420714Y-19407142D01*
X128373095Y-19311904D01*
X128325476Y-19121428D01*
X128325476Y-18883333D01*
X128373095Y-18692857D01*
X128420714Y-18597619D01*
X128468333Y-18550000D01*
X128563571Y-18502380D01*
X125873142Y-17349880D02*
X125301714Y-17349880D01*
X125587428Y-17349880D02*
X125587428Y-16349880D01*
X125492190Y-16492738D01*
X125396952Y-16587976D01*
X125301714Y-16635595D01*
X126301714Y-17349880D02*
X126301714Y-16349880D01*
X126873142Y-17349880D01*
X126873142Y-16349880D01*
X127777904Y-16683214D02*
X127777904Y-17349880D01*
X127539809Y-16302261D02*
X127301714Y-17016547D01*
X127920761Y-17016547D01*
X128492190Y-16349880D02*
X128587428Y-16349880D01*
X128682666Y-16397500D01*
X128730285Y-16445119D01*
X128777904Y-16540357D01*
X128825523Y-16730833D01*
X128825523Y-16968928D01*
X128777904Y-17159404D01*
X128730285Y-17254642D01*
X128682666Y-17302261D01*
X128587428Y-17349880D01*
X128492190Y-17349880D01*
X128396952Y-17302261D01*
X128349333Y-17254642D01*
X128301714Y-17159404D01*
X128254095Y-16968928D01*
X128254095Y-16730833D01*
X128301714Y-16540357D01*
X128349333Y-16445119D01*
X128396952Y-16397500D01*
X128492190Y-16349880D01*
X129444571Y-16349880D02*
X129539809Y-16349880D01*
X129635047Y-16397500D01*
X129682666Y-16445119D01*
X129730285Y-16540357D01*
X129777904Y-16730833D01*
X129777904Y-16968928D01*
X129730285Y-17159404D01*
X129682666Y-17254642D01*
X129635047Y-17302261D01*
X129539809Y-17349880D01*
X129444571Y-17349880D01*
X129349333Y-17302261D01*
X129301714Y-17254642D01*
X129254095Y-17159404D01*
X129206476Y-16968928D01*
X129206476Y-16730833D01*
X129254095Y-16540357D01*
X129301714Y-16445119D01*
X129349333Y-16397500D01*
X129444571Y-16349880D01*
X130111238Y-16349880D02*
X130777904Y-16349880D01*
X130349333Y-17349880D01*
X132834095Y-21919880D02*
X132834095Y-20919880D01*
X133405523Y-21919880D02*
X132976952Y-21348452D01*
X133405523Y-20919880D02*
X132834095Y-21491309D01*
G04 #@! TO.C,D20*
X187904380Y-66492285D02*
X186904380Y-66492285D01*
X186904380Y-66254190D01*
X186952000Y-66111333D01*
X187047238Y-66016095D01*
X187142476Y-65968476D01*
X187332952Y-65920857D01*
X187475809Y-65920857D01*
X187666285Y-65968476D01*
X187761523Y-66016095D01*
X187856761Y-66111333D01*
X187904380Y-66254190D01*
X187904380Y-66492285D01*
X186999619Y-65539904D02*
X186952000Y-65492285D01*
X186904380Y-65397047D01*
X186904380Y-65158952D01*
X186952000Y-65063714D01*
X186999619Y-65016095D01*
X187094857Y-64968476D01*
X187190095Y-64968476D01*
X187332952Y-65016095D01*
X187904380Y-65587523D01*
X187904380Y-64968476D01*
X186904380Y-64349428D02*
X186904380Y-64254190D01*
X186952000Y-64158952D01*
X186999619Y-64111333D01*
X187094857Y-64063714D01*
X187285333Y-64016095D01*
X187523428Y-64016095D01*
X187713904Y-64063714D01*
X187809142Y-64111333D01*
X187856761Y-64158952D01*
X187904380Y-64254190D01*
X187904380Y-64349428D01*
X187856761Y-64444666D01*
X187809142Y-64492285D01*
X187713904Y-64539904D01*
X187523428Y-64587523D01*
X187285333Y-64587523D01*
X187094857Y-64539904D01*
X186999619Y-64492285D01*
X186952000Y-64444666D01*
X186904380Y-64349428D01*
X190438380Y-67801857D02*
X190438380Y-68373285D01*
X190438380Y-68087571D02*
X189438380Y-68087571D01*
X189581238Y-68182809D01*
X189676476Y-68278047D01*
X189724095Y-68373285D01*
X190438380Y-67373285D02*
X189438380Y-67373285D01*
X190438380Y-66801857D01*
X189438380Y-66801857D01*
X189771714Y-65897095D02*
X190438380Y-65897095D01*
X189390761Y-66135190D02*
X190105047Y-66373285D01*
X190105047Y-65754238D01*
X189438380Y-65182809D02*
X189438380Y-65087571D01*
X189486000Y-64992333D01*
X189533619Y-64944714D01*
X189628857Y-64897095D01*
X189819333Y-64849476D01*
X190057428Y-64849476D01*
X190247904Y-64897095D01*
X190343142Y-64944714D01*
X190390761Y-64992333D01*
X190438380Y-65087571D01*
X190438380Y-65182809D01*
X190390761Y-65278047D01*
X190343142Y-65325666D01*
X190247904Y-65373285D01*
X190057428Y-65420904D01*
X189819333Y-65420904D01*
X189628857Y-65373285D01*
X189533619Y-65325666D01*
X189486000Y-65278047D01*
X189438380Y-65182809D01*
X189438380Y-64230428D02*
X189438380Y-64135190D01*
X189486000Y-64039952D01*
X189533619Y-63992333D01*
X189628857Y-63944714D01*
X189819333Y-63897095D01*
X190057428Y-63897095D01*
X190247904Y-63944714D01*
X190343142Y-63992333D01*
X190390761Y-64039952D01*
X190438380Y-64135190D01*
X190438380Y-64230428D01*
X190390761Y-64325666D01*
X190343142Y-64373285D01*
X190247904Y-64420904D01*
X190057428Y-64468523D01*
X189819333Y-64468523D01*
X189628857Y-64420904D01*
X189533619Y-64373285D01*
X189486000Y-64325666D01*
X189438380Y-64230428D01*
X189438380Y-63563761D02*
X189438380Y-62897095D01*
X190438380Y-63325666D01*
X187904380Y-68079904D02*
X186904380Y-68079904D01*
X187904380Y-67508476D02*
X187332952Y-67937047D01*
X186904380Y-67508476D02*
X187475809Y-68079904D01*
G04 #@! TO.C,D21*
X165552380Y-105608285D02*
X164552380Y-105608285D01*
X164552380Y-105370190D01*
X164600000Y-105227333D01*
X164695238Y-105132095D01*
X164790476Y-105084476D01*
X164980952Y-105036857D01*
X165123809Y-105036857D01*
X165314285Y-105084476D01*
X165409523Y-105132095D01*
X165504761Y-105227333D01*
X165552380Y-105370190D01*
X165552380Y-105608285D01*
X164647619Y-104655904D02*
X164600000Y-104608285D01*
X164552380Y-104513047D01*
X164552380Y-104274952D01*
X164600000Y-104179714D01*
X164647619Y-104132095D01*
X164742857Y-104084476D01*
X164838095Y-104084476D01*
X164980952Y-104132095D01*
X165552380Y-104703523D01*
X165552380Y-104084476D01*
X165552380Y-103132095D02*
X165552380Y-103703523D01*
X165552380Y-103417809D02*
X164552380Y-103417809D01*
X164695238Y-103513047D01*
X164790476Y-103608285D01*
X164838095Y-103703523D01*
X161896380Y-105711357D02*
X161896380Y-106282785D01*
X161896380Y-105997071D02*
X160896380Y-105997071D01*
X161039238Y-106092309D01*
X161134476Y-106187547D01*
X161182095Y-106282785D01*
X161896380Y-105282785D02*
X160896380Y-105282785D01*
X161896380Y-104711357D01*
X160896380Y-104711357D01*
X160896380Y-103758976D02*
X160896380Y-104235166D01*
X161372571Y-104282785D01*
X161324952Y-104235166D01*
X161277333Y-104139928D01*
X161277333Y-103901833D01*
X161324952Y-103806595D01*
X161372571Y-103758976D01*
X161467809Y-103711357D01*
X161705904Y-103711357D01*
X161801142Y-103758976D01*
X161848761Y-103806595D01*
X161896380Y-103901833D01*
X161896380Y-104139928D01*
X161848761Y-104235166D01*
X161801142Y-104282785D01*
X161324952Y-103139928D02*
X161277333Y-103235166D01*
X161229714Y-103282785D01*
X161134476Y-103330404D01*
X161086857Y-103330404D01*
X160991619Y-103282785D01*
X160944000Y-103235166D01*
X160896380Y-103139928D01*
X160896380Y-102949452D01*
X160944000Y-102854214D01*
X160991619Y-102806595D01*
X161086857Y-102758976D01*
X161134476Y-102758976D01*
X161229714Y-102806595D01*
X161277333Y-102854214D01*
X161324952Y-102949452D01*
X161324952Y-103139928D01*
X161372571Y-103235166D01*
X161420190Y-103282785D01*
X161515428Y-103330404D01*
X161705904Y-103330404D01*
X161801142Y-103282785D01*
X161848761Y-103235166D01*
X161896380Y-103139928D01*
X161896380Y-102949452D01*
X161848761Y-102854214D01*
X161801142Y-102806595D01*
X161705904Y-102758976D01*
X161515428Y-102758976D01*
X161420190Y-102806595D01*
X161372571Y-102854214D01*
X161324952Y-102949452D01*
X160991619Y-102378023D02*
X160944000Y-102330404D01*
X160896380Y-102235166D01*
X160896380Y-101997071D01*
X160944000Y-101901833D01*
X160991619Y-101854214D01*
X161086857Y-101806595D01*
X161182095Y-101806595D01*
X161324952Y-101854214D01*
X161896380Y-102425642D01*
X161896380Y-101806595D01*
X160896380Y-101187547D02*
X160896380Y-101092309D01*
X160944000Y-100997071D01*
X160991619Y-100949452D01*
X161086857Y-100901833D01*
X161277333Y-100854214D01*
X161515428Y-100854214D01*
X161705904Y-100901833D01*
X161801142Y-100949452D01*
X161848761Y-100997071D01*
X161896380Y-101092309D01*
X161896380Y-101187547D01*
X161848761Y-101282785D01*
X161801142Y-101330404D01*
X161705904Y-101378023D01*
X161515428Y-101425642D01*
X161277333Y-101425642D01*
X161086857Y-101378023D01*
X160991619Y-101330404D01*
X160944000Y-101282785D01*
X160896380Y-101187547D01*
X165806380Y-99829904D02*
X164806380Y-99829904D01*
X165806380Y-99258476D02*
X165234952Y-99687047D01*
X164806380Y-99258476D02*
X165377809Y-99829904D01*
G04 #@! TO.C,D22*
X165298380Y-78938285D02*
X164298380Y-78938285D01*
X164298380Y-78700190D01*
X164346000Y-78557333D01*
X164441238Y-78462095D01*
X164536476Y-78414476D01*
X164726952Y-78366857D01*
X164869809Y-78366857D01*
X165060285Y-78414476D01*
X165155523Y-78462095D01*
X165250761Y-78557333D01*
X165298380Y-78700190D01*
X165298380Y-78938285D01*
X164393619Y-77985904D02*
X164346000Y-77938285D01*
X164298380Y-77843047D01*
X164298380Y-77604952D01*
X164346000Y-77509714D01*
X164393619Y-77462095D01*
X164488857Y-77414476D01*
X164584095Y-77414476D01*
X164726952Y-77462095D01*
X165298380Y-78033523D01*
X165298380Y-77414476D01*
X164393619Y-77033523D02*
X164346000Y-76985904D01*
X164298380Y-76890666D01*
X164298380Y-76652571D01*
X164346000Y-76557333D01*
X164393619Y-76509714D01*
X164488857Y-76462095D01*
X164584095Y-76462095D01*
X164726952Y-76509714D01*
X165298380Y-77081142D01*
X165298380Y-76462095D01*
X168891380Y-73897857D02*
X168891380Y-74469285D01*
X168891380Y-74183571D02*
X167891380Y-74183571D01*
X168034238Y-74278809D01*
X168129476Y-74374047D01*
X168177095Y-74469285D01*
X168891380Y-73469285D02*
X167891380Y-73469285D01*
X168891380Y-72897857D01*
X167891380Y-72897857D01*
X167891380Y-71945476D02*
X167891380Y-72421666D01*
X168367571Y-72469285D01*
X168319952Y-72421666D01*
X168272333Y-72326428D01*
X168272333Y-72088333D01*
X168319952Y-71993095D01*
X168367571Y-71945476D01*
X168462809Y-71897857D01*
X168700904Y-71897857D01*
X168796142Y-71945476D01*
X168843761Y-71993095D01*
X168891380Y-72088333D01*
X168891380Y-72326428D01*
X168843761Y-72421666D01*
X168796142Y-72469285D01*
X168319952Y-71326428D02*
X168272333Y-71421666D01*
X168224714Y-71469285D01*
X168129476Y-71516904D01*
X168081857Y-71516904D01*
X167986619Y-71469285D01*
X167939000Y-71421666D01*
X167891380Y-71326428D01*
X167891380Y-71135952D01*
X167939000Y-71040714D01*
X167986619Y-70993095D01*
X168081857Y-70945476D01*
X168129476Y-70945476D01*
X168224714Y-70993095D01*
X168272333Y-71040714D01*
X168319952Y-71135952D01*
X168319952Y-71326428D01*
X168367571Y-71421666D01*
X168415190Y-71469285D01*
X168510428Y-71516904D01*
X168700904Y-71516904D01*
X168796142Y-71469285D01*
X168843761Y-71421666D01*
X168891380Y-71326428D01*
X168891380Y-71135952D01*
X168843761Y-71040714D01*
X168796142Y-70993095D01*
X168700904Y-70945476D01*
X168510428Y-70945476D01*
X168415190Y-70993095D01*
X168367571Y-71040714D01*
X168319952Y-71135952D01*
X167986619Y-70564523D02*
X167939000Y-70516904D01*
X167891380Y-70421666D01*
X167891380Y-70183571D01*
X167939000Y-70088333D01*
X167986619Y-70040714D01*
X168081857Y-69993095D01*
X168177095Y-69993095D01*
X168319952Y-70040714D01*
X168891380Y-70612142D01*
X168891380Y-69993095D01*
X167891380Y-69374047D02*
X167891380Y-69278809D01*
X167939000Y-69183571D01*
X167986619Y-69135952D01*
X168081857Y-69088333D01*
X168272333Y-69040714D01*
X168510428Y-69040714D01*
X168700904Y-69088333D01*
X168796142Y-69135952D01*
X168843761Y-69183571D01*
X168891380Y-69278809D01*
X168891380Y-69374047D01*
X168843761Y-69469285D01*
X168796142Y-69516904D01*
X168700904Y-69564523D01*
X168510428Y-69612142D01*
X168272333Y-69612142D01*
X168081857Y-69564523D01*
X167986619Y-69516904D01*
X167939000Y-69469285D01*
X167891380Y-69374047D01*
X165044380Y-82557904D02*
X164044380Y-82557904D01*
X165044380Y-81986476D02*
X164472952Y-82415047D01*
X164044380Y-81986476D02*
X164615809Y-82557904D01*
G04 #@! TO.C,D30*
X109275714Y-139898380D02*
X109275714Y-138898380D01*
X109513809Y-138898380D01*
X109656666Y-138946000D01*
X109751904Y-139041238D01*
X109799523Y-139136476D01*
X109847142Y-139326952D01*
X109847142Y-139469809D01*
X109799523Y-139660285D01*
X109751904Y-139755523D01*
X109656666Y-139850761D01*
X109513809Y-139898380D01*
X109275714Y-139898380D01*
X110180476Y-138898380D02*
X110799523Y-138898380D01*
X110466190Y-139279333D01*
X110609047Y-139279333D01*
X110704285Y-139326952D01*
X110751904Y-139374571D01*
X110799523Y-139469809D01*
X110799523Y-139707904D01*
X110751904Y-139803142D01*
X110704285Y-139850761D01*
X110609047Y-139898380D01*
X110323333Y-139898380D01*
X110228095Y-139850761D01*
X110180476Y-139803142D01*
X111418571Y-138898380D02*
X111513809Y-138898380D01*
X111609047Y-138946000D01*
X111656666Y-138993619D01*
X111704285Y-139088857D01*
X111751904Y-139279333D01*
X111751904Y-139517428D01*
X111704285Y-139707904D01*
X111656666Y-139803142D01*
X111609047Y-139850761D01*
X111513809Y-139898380D01*
X111418571Y-139898380D01*
X111323333Y-139850761D01*
X111275714Y-139803142D01*
X111228095Y-139707904D01*
X111180476Y-139517428D01*
X111180476Y-139279333D01*
X111228095Y-139088857D01*
X111275714Y-138993619D01*
X111323333Y-138946000D01*
X111418571Y-138898380D01*
X108791142Y-137364380D02*
X108219714Y-137364380D01*
X108505428Y-137364380D02*
X108505428Y-136364380D01*
X108410190Y-136507238D01*
X108314952Y-136602476D01*
X108219714Y-136650095D01*
X109219714Y-137364380D02*
X109219714Y-136364380D01*
X109791142Y-137364380D01*
X109791142Y-136364380D01*
X110695904Y-136697714D02*
X110695904Y-137364380D01*
X110457809Y-136316761D02*
X110219714Y-137031047D01*
X110838761Y-137031047D01*
X111410190Y-136364380D02*
X111505428Y-136364380D01*
X111600666Y-136412000D01*
X111648285Y-136459619D01*
X111695904Y-136554857D01*
X111743523Y-136745333D01*
X111743523Y-136983428D01*
X111695904Y-137173904D01*
X111648285Y-137269142D01*
X111600666Y-137316761D01*
X111505428Y-137364380D01*
X111410190Y-137364380D01*
X111314952Y-137316761D01*
X111267333Y-137269142D01*
X111219714Y-137173904D01*
X111172095Y-136983428D01*
X111172095Y-136745333D01*
X111219714Y-136554857D01*
X111267333Y-136459619D01*
X111314952Y-136412000D01*
X111410190Y-136364380D01*
X112362571Y-136364380D02*
X112457809Y-136364380D01*
X112553047Y-136412000D01*
X112600666Y-136459619D01*
X112648285Y-136554857D01*
X112695904Y-136745333D01*
X112695904Y-136983428D01*
X112648285Y-137173904D01*
X112600666Y-137269142D01*
X112553047Y-137316761D01*
X112457809Y-137364380D01*
X112362571Y-137364380D01*
X112267333Y-137316761D01*
X112219714Y-137269142D01*
X112172095Y-137173904D01*
X112124476Y-136983428D01*
X112124476Y-136745333D01*
X112172095Y-136554857D01*
X112219714Y-136459619D01*
X112267333Y-136412000D01*
X112362571Y-136364380D01*
X113029238Y-136364380D02*
X113695904Y-136364380D01*
X113267333Y-137364380D01*
X113022095Y-139898380D02*
X113022095Y-138898380D01*
X113593523Y-139898380D02*
X113164952Y-139326952D01*
X113593523Y-138898380D02*
X113022095Y-139469809D01*
G04 #@! TO.C,D31*
X97226380Y-171648285D02*
X96226380Y-171648285D01*
X96226380Y-171410190D01*
X96274000Y-171267333D01*
X96369238Y-171172095D01*
X96464476Y-171124476D01*
X96654952Y-171076857D01*
X96797809Y-171076857D01*
X96988285Y-171124476D01*
X97083523Y-171172095D01*
X97178761Y-171267333D01*
X97226380Y-171410190D01*
X97226380Y-171648285D01*
X96226380Y-170743523D02*
X96226380Y-170124476D01*
X96607333Y-170457809D01*
X96607333Y-170314952D01*
X96654952Y-170219714D01*
X96702571Y-170172095D01*
X96797809Y-170124476D01*
X97035904Y-170124476D01*
X97131142Y-170172095D01*
X97178761Y-170219714D01*
X97226380Y-170314952D01*
X97226380Y-170600666D01*
X97178761Y-170695904D01*
X97131142Y-170743523D01*
X97226380Y-169172095D02*
X97226380Y-169743523D01*
X97226380Y-169457809D02*
X96226380Y-169457809D01*
X96369238Y-169553047D01*
X96464476Y-169648285D01*
X96512095Y-169743523D01*
X93442880Y-171941857D02*
X93442880Y-172513285D01*
X93442880Y-172227571D02*
X92442880Y-172227571D01*
X92585738Y-172322809D01*
X92680976Y-172418047D01*
X92728595Y-172513285D01*
X93442880Y-171513285D02*
X92442880Y-171513285D01*
X93442880Y-170941857D01*
X92442880Y-170941857D01*
X92442880Y-169989476D02*
X92442880Y-170465666D01*
X92919071Y-170513285D01*
X92871452Y-170465666D01*
X92823833Y-170370428D01*
X92823833Y-170132333D01*
X92871452Y-170037095D01*
X92919071Y-169989476D01*
X93014309Y-169941857D01*
X93252404Y-169941857D01*
X93347642Y-169989476D01*
X93395261Y-170037095D01*
X93442880Y-170132333D01*
X93442880Y-170370428D01*
X93395261Y-170465666D01*
X93347642Y-170513285D01*
X92871452Y-169370428D02*
X92823833Y-169465666D01*
X92776214Y-169513285D01*
X92680976Y-169560904D01*
X92633357Y-169560904D01*
X92538119Y-169513285D01*
X92490500Y-169465666D01*
X92442880Y-169370428D01*
X92442880Y-169179952D01*
X92490500Y-169084714D01*
X92538119Y-169037095D01*
X92633357Y-168989476D01*
X92680976Y-168989476D01*
X92776214Y-169037095D01*
X92823833Y-169084714D01*
X92871452Y-169179952D01*
X92871452Y-169370428D01*
X92919071Y-169465666D01*
X92966690Y-169513285D01*
X93061928Y-169560904D01*
X93252404Y-169560904D01*
X93347642Y-169513285D01*
X93395261Y-169465666D01*
X93442880Y-169370428D01*
X93442880Y-169179952D01*
X93395261Y-169084714D01*
X93347642Y-169037095D01*
X93252404Y-168989476D01*
X93061928Y-168989476D01*
X92966690Y-169037095D01*
X92919071Y-169084714D01*
X92871452Y-169179952D01*
X92538119Y-168608523D02*
X92490500Y-168560904D01*
X92442880Y-168465666D01*
X92442880Y-168227571D01*
X92490500Y-168132333D01*
X92538119Y-168084714D01*
X92633357Y-168037095D01*
X92728595Y-168037095D01*
X92871452Y-168084714D01*
X93442880Y-168656142D01*
X93442880Y-168037095D01*
X92442880Y-167418047D02*
X92442880Y-167322809D01*
X92490500Y-167227571D01*
X92538119Y-167179952D01*
X92633357Y-167132333D01*
X92823833Y-167084714D01*
X93061928Y-167084714D01*
X93252404Y-167132333D01*
X93347642Y-167179952D01*
X93395261Y-167227571D01*
X93442880Y-167322809D01*
X93442880Y-167418047D01*
X93395261Y-167513285D01*
X93347642Y-167560904D01*
X93252404Y-167608523D01*
X93061928Y-167656142D01*
X92823833Y-167656142D01*
X92633357Y-167608523D01*
X92538119Y-167560904D01*
X92490500Y-167513285D01*
X92442880Y-167418047D01*
X97226380Y-165869904D02*
X96226380Y-165869904D01*
X97226380Y-165298476D02*
X96654952Y-165727047D01*
X96226380Y-165298476D02*
X96797809Y-165869904D01*
G04 #@! TO.C,D32*
X97480380Y-149042285D02*
X96480380Y-149042285D01*
X96480380Y-148804190D01*
X96528000Y-148661333D01*
X96623238Y-148566095D01*
X96718476Y-148518476D01*
X96908952Y-148470857D01*
X97051809Y-148470857D01*
X97242285Y-148518476D01*
X97337523Y-148566095D01*
X97432761Y-148661333D01*
X97480380Y-148804190D01*
X97480380Y-149042285D01*
X96480380Y-148137523D02*
X96480380Y-147518476D01*
X96861333Y-147851809D01*
X96861333Y-147708952D01*
X96908952Y-147613714D01*
X96956571Y-147566095D01*
X97051809Y-147518476D01*
X97289904Y-147518476D01*
X97385142Y-147566095D01*
X97432761Y-147613714D01*
X97480380Y-147708952D01*
X97480380Y-147994666D01*
X97432761Y-148089904D01*
X97385142Y-148137523D01*
X96575619Y-147137523D02*
X96528000Y-147089904D01*
X96480380Y-146994666D01*
X96480380Y-146756571D01*
X96528000Y-146661333D01*
X96575619Y-146613714D01*
X96670857Y-146566095D01*
X96766095Y-146566095D01*
X96908952Y-146613714D01*
X97480380Y-147185142D01*
X97480380Y-146566095D01*
X93416380Y-150224857D02*
X93416380Y-150796285D01*
X93416380Y-150510571D02*
X92416380Y-150510571D01*
X92559238Y-150605809D01*
X92654476Y-150701047D01*
X92702095Y-150796285D01*
X93416380Y-149796285D02*
X92416380Y-149796285D01*
X93416380Y-149224857D01*
X92416380Y-149224857D01*
X92416380Y-148272476D02*
X92416380Y-148748666D01*
X92892571Y-148796285D01*
X92844952Y-148748666D01*
X92797333Y-148653428D01*
X92797333Y-148415333D01*
X92844952Y-148320095D01*
X92892571Y-148272476D01*
X92987809Y-148224857D01*
X93225904Y-148224857D01*
X93321142Y-148272476D01*
X93368761Y-148320095D01*
X93416380Y-148415333D01*
X93416380Y-148653428D01*
X93368761Y-148748666D01*
X93321142Y-148796285D01*
X92844952Y-147653428D02*
X92797333Y-147748666D01*
X92749714Y-147796285D01*
X92654476Y-147843904D01*
X92606857Y-147843904D01*
X92511619Y-147796285D01*
X92464000Y-147748666D01*
X92416380Y-147653428D01*
X92416380Y-147462952D01*
X92464000Y-147367714D01*
X92511619Y-147320095D01*
X92606857Y-147272476D01*
X92654476Y-147272476D01*
X92749714Y-147320095D01*
X92797333Y-147367714D01*
X92844952Y-147462952D01*
X92844952Y-147653428D01*
X92892571Y-147748666D01*
X92940190Y-147796285D01*
X93035428Y-147843904D01*
X93225904Y-147843904D01*
X93321142Y-147796285D01*
X93368761Y-147748666D01*
X93416380Y-147653428D01*
X93416380Y-147462952D01*
X93368761Y-147367714D01*
X93321142Y-147320095D01*
X93225904Y-147272476D01*
X93035428Y-147272476D01*
X92940190Y-147320095D01*
X92892571Y-147367714D01*
X92844952Y-147462952D01*
X92511619Y-146891523D02*
X92464000Y-146843904D01*
X92416380Y-146748666D01*
X92416380Y-146510571D01*
X92464000Y-146415333D01*
X92511619Y-146367714D01*
X92606857Y-146320095D01*
X92702095Y-146320095D01*
X92844952Y-146367714D01*
X93416380Y-146939142D01*
X93416380Y-146320095D01*
X92416380Y-145701047D02*
X92416380Y-145605809D01*
X92464000Y-145510571D01*
X92511619Y-145462952D01*
X92606857Y-145415333D01*
X92797333Y-145367714D01*
X93035428Y-145367714D01*
X93225904Y-145415333D01*
X93321142Y-145462952D01*
X93368761Y-145510571D01*
X93416380Y-145605809D01*
X93416380Y-145701047D01*
X93368761Y-145796285D01*
X93321142Y-145843904D01*
X93225904Y-145891523D01*
X93035428Y-145939142D01*
X92797333Y-145939142D01*
X92606857Y-145891523D01*
X92511619Y-145843904D01*
X92464000Y-145796285D01*
X92416380Y-145701047D01*
X97226380Y-152915904D02*
X96226380Y-152915904D01*
X97226380Y-152344476D02*
X96654952Y-152773047D01*
X96226380Y-152344476D02*
X96797809Y-152915904D01*
G04 #@! TO.C,F1*
X41838571Y-29543333D02*
X41838571Y-29876666D01*
X42362380Y-29876666D02*
X41362380Y-29876666D01*
X41362380Y-29400476D01*
X42362380Y-28495714D02*
X42362380Y-29067142D01*
X42362380Y-28781428D02*
X41362380Y-28781428D01*
X41505238Y-28876666D01*
X41600476Y-28971904D01*
X41648095Y-29067142D01*
X36592571Y-46918571D02*
X36259238Y-46918571D01*
X36259238Y-47442380D02*
X36259238Y-46442380D01*
X36735428Y-46442380D01*
X37544952Y-46775714D02*
X37544952Y-47442380D01*
X37116380Y-46775714D02*
X37116380Y-47299523D01*
X37164000Y-47394761D01*
X37259238Y-47442380D01*
X37402095Y-47442380D01*
X37497333Y-47394761D01*
X37544952Y-47347142D01*
X37973523Y-47394761D02*
X38068761Y-47442380D01*
X38259238Y-47442380D01*
X38354476Y-47394761D01*
X38402095Y-47299523D01*
X38402095Y-47251904D01*
X38354476Y-47156666D01*
X38259238Y-47109047D01*
X38116380Y-47109047D01*
X38021142Y-47061428D01*
X37973523Y-46966190D01*
X37973523Y-46918571D01*
X38021142Y-46823333D01*
X38116380Y-46775714D01*
X38259238Y-46775714D01*
X38354476Y-46823333D01*
X39211619Y-47394761D02*
X39116380Y-47442380D01*
X38925904Y-47442380D01*
X38830666Y-47394761D01*
X38783047Y-47299523D01*
X38783047Y-46918571D01*
X38830666Y-46823333D01*
X38925904Y-46775714D01*
X39116380Y-46775714D01*
X39211619Y-46823333D01*
X39259238Y-46918571D01*
X39259238Y-47013809D01*
X38783047Y-47109047D01*
X40878285Y-46442380D02*
X40687809Y-46442380D01*
X40592571Y-46490000D01*
X40544952Y-46537619D01*
X40449714Y-46680476D01*
X40402095Y-46870952D01*
X40402095Y-47251904D01*
X40449714Y-47347142D01*
X40497333Y-47394761D01*
X40592571Y-47442380D01*
X40783047Y-47442380D01*
X40878285Y-47394761D01*
X40925904Y-47347142D01*
X40973523Y-47251904D01*
X40973523Y-47013809D01*
X40925904Y-46918571D01*
X40878285Y-46870952D01*
X40783047Y-46823333D01*
X40592571Y-46823333D01*
X40497333Y-46870952D01*
X40449714Y-46918571D01*
X40402095Y-47013809D01*
X41354476Y-47156666D02*
X41830666Y-47156666D01*
X41259238Y-47442380D02*
X41592571Y-46442380D01*
X41925904Y-47442380D01*
X43735428Y-46394761D02*
X42878285Y-47680476D01*
X44783047Y-46537619D02*
X44830666Y-46490000D01*
X44925904Y-46442380D01*
X45164000Y-46442380D01*
X45259238Y-46490000D01*
X45306857Y-46537619D01*
X45354476Y-46632857D01*
X45354476Y-46728095D01*
X45306857Y-46870952D01*
X44735428Y-47442380D01*
X45354476Y-47442380D01*
X45687809Y-46442380D02*
X46306857Y-46442380D01*
X45973523Y-46823333D01*
X46116380Y-46823333D01*
X46211619Y-46870952D01*
X46259238Y-46918571D01*
X46306857Y-47013809D01*
X46306857Y-47251904D01*
X46259238Y-47347142D01*
X46211619Y-47394761D01*
X46116380Y-47442380D01*
X45830666Y-47442380D01*
X45735428Y-47394761D01*
X45687809Y-47347142D01*
X46925904Y-46442380D02*
X47021142Y-46442380D01*
X47116380Y-46490000D01*
X47164000Y-46537619D01*
X47211619Y-46632857D01*
X47259238Y-46823333D01*
X47259238Y-47061428D01*
X47211619Y-47251904D01*
X47164000Y-47347142D01*
X47116380Y-47394761D01*
X47021142Y-47442380D01*
X46925904Y-47442380D01*
X46830666Y-47394761D01*
X46783047Y-47347142D01*
X46735428Y-47251904D01*
X46687809Y-47061428D01*
X46687809Y-46823333D01*
X46735428Y-46632857D01*
X46783047Y-46537619D01*
X46830666Y-46490000D01*
X46925904Y-46442380D01*
X47544952Y-46442380D02*
X47878285Y-47442380D01*
X48211619Y-46442380D01*
G04 #@! TO.C,J1*
X22526666Y-35012380D02*
X22526666Y-35726666D01*
X22479047Y-35869523D01*
X22383809Y-35964761D01*
X22240952Y-36012380D01*
X22145714Y-36012380D01*
X23526666Y-36012380D02*
X22955238Y-36012380D01*
X23240952Y-36012380D02*
X23240952Y-35012380D01*
X23145714Y-35155238D01*
X23050476Y-35250476D01*
X22955238Y-35298095D01*
X15805714Y-29662380D02*
X15805714Y-28662380D01*
X16377142Y-29662380D01*
X16377142Y-28662380D01*
X17234285Y-29614761D02*
X17139047Y-29662380D01*
X16948571Y-29662380D01*
X16853333Y-29614761D01*
X16805714Y-29519523D01*
X16805714Y-29138571D01*
X16853333Y-29043333D01*
X16948571Y-28995714D01*
X17139047Y-28995714D01*
X17234285Y-29043333D01*
X17281904Y-29138571D01*
X17281904Y-29233809D01*
X16805714Y-29329047D01*
X17567619Y-28995714D02*
X17948571Y-28995714D01*
X17710476Y-28662380D02*
X17710476Y-29519523D01*
X17758095Y-29614761D01*
X17853333Y-29662380D01*
X17948571Y-29662380D01*
X18186666Y-28995714D02*
X18710476Y-28995714D01*
X18186666Y-29662380D01*
X18710476Y-29662380D01*
X19043809Y-29614761D02*
X19139047Y-29662380D01*
X19329523Y-29662380D01*
X19424761Y-29614761D01*
X19472380Y-29519523D01*
X19472380Y-29471904D01*
X19424761Y-29376666D01*
X19329523Y-29329047D01*
X19186666Y-29329047D01*
X19091428Y-29281428D01*
X19043809Y-29186190D01*
X19043809Y-29138571D01*
X19091428Y-29043333D01*
X19186666Y-28995714D01*
X19329523Y-28995714D01*
X19424761Y-29043333D01*
X19900952Y-28995714D02*
X19900952Y-29995714D01*
X19900952Y-29043333D02*
X19996190Y-28995714D01*
X20186666Y-28995714D01*
X20281904Y-29043333D01*
X20329523Y-29090952D01*
X20377142Y-29186190D01*
X20377142Y-29471904D01*
X20329523Y-29567142D01*
X20281904Y-29614761D01*
X20186666Y-29662380D01*
X19996190Y-29662380D01*
X19900952Y-29614761D01*
X21234285Y-29662380D02*
X21234285Y-29138571D01*
X21186666Y-29043333D01*
X21091428Y-28995714D01*
X20900952Y-28995714D01*
X20805714Y-29043333D01*
X21234285Y-29614761D02*
X21139047Y-29662380D01*
X20900952Y-29662380D01*
X20805714Y-29614761D01*
X20758095Y-29519523D01*
X20758095Y-29424285D01*
X20805714Y-29329047D01*
X20900952Y-29281428D01*
X21139047Y-29281428D01*
X21234285Y-29233809D01*
X21710476Y-28995714D02*
X21710476Y-29662380D01*
X21710476Y-29090952D02*
X21758095Y-29043333D01*
X21853333Y-28995714D01*
X21996190Y-28995714D01*
X22091428Y-29043333D01*
X22139047Y-29138571D01*
X22139047Y-29662380D01*
X22615238Y-28995714D02*
X22615238Y-29662380D01*
X22615238Y-29090952D02*
X22662857Y-29043333D01*
X22758095Y-28995714D01*
X22900952Y-28995714D01*
X22996190Y-29043333D01*
X23043809Y-29138571D01*
X23043809Y-29662380D01*
X23948571Y-28995714D02*
X23948571Y-29662380D01*
X23519999Y-28995714D02*
X23519999Y-29519523D01*
X23567619Y-29614761D01*
X23662857Y-29662380D01*
X23805714Y-29662380D01*
X23900952Y-29614761D01*
X23948571Y-29567142D01*
X24424761Y-28995714D02*
X24424761Y-29662380D01*
X24424761Y-29090952D02*
X24472380Y-29043333D01*
X24567619Y-28995714D01*
X24710476Y-28995714D01*
X24805714Y-29043333D01*
X24853333Y-29138571D01*
X24853333Y-29662380D01*
X25758095Y-28995714D02*
X25758095Y-29805238D01*
X25710476Y-29900476D01*
X25662857Y-29948095D01*
X25567619Y-29995714D01*
X25424761Y-29995714D01*
X25329523Y-29948095D01*
X25758095Y-29614761D02*
X25662857Y-29662380D01*
X25472380Y-29662380D01*
X25377142Y-29614761D01*
X25329523Y-29567142D01*
X25281904Y-29471904D01*
X25281904Y-29186190D01*
X25329523Y-29090952D01*
X25377142Y-29043333D01*
X25472380Y-28995714D01*
X25662857Y-28995714D01*
X25758095Y-29043333D01*
X26948571Y-28757619D02*
X26996190Y-28710000D01*
X27091428Y-28662380D01*
X27329523Y-28662380D01*
X27424761Y-28710000D01*
X27472380Y-28757619D01*
X27519999Y-28852857D01*
X27519999Y-28948095D01*
X27472380Y-29090952D01*
X26900952Y-29662380D01*
X27519999Y-29662380D01*
X27853333Y-28662380D02*
X28472380Y-28662380D01*
X28139047Y-29043333D01*
X28281904Y-29043333D01*
X28377142Y-29090952D01*
X28424761Y-29138571D01*
X28472380Y-29233809D01*
X28472380Y-29471904D01*
X28424761Y-29567142D01*
X28377142Y-29614761D01*
X28281904Y-29662380D01*
X27996190Y-29662380D01*
X27900952Y-29614761D01*
X27853333Y-29567142D01*
X29091428Y-28662380D02*
X29186666Y-28662380D01*
X29281904Y-28710000D01*
X29329523Y-28757619D01*
X29377142Y-28852857D01*
X29424761Y-29043333D01*
X29424761Y-29281428D01*
X29377142Y-29471904D01*
X29329523Y-29567142D01*
X29281904Y-29614761D01*
X29186666Y-29662380D01*
X29091428Y-29662380D01*
X28996190Y-29614761D01*
X28948571Y-29567142D01*
X28900952Y-29471904D01*
X28853333Y-29281428D01*
X28853333Y-29043333D01*
X28900952Y-28852857D01*
X28948571Y-28757619D01*
X28996190Y-28710000D01*
X29091428Y-28662380D01*
X29710476Y-28662380D02*
X30043809Y-29662380D01*
X30377142Y-28662380D01*
G04 #@! TO.C,J2*
X68246666Y-35012380D02*
X68246666Y-35726666D01*
X68199047Y-35869523D01*
X68103809Y-35964761D01*
X67960952Y-36012380D01*
X67865714Y-36012380D01*
X68675238Y-35107619D02*
X68722857Y-35060000D01*
X68818095Y-35012380D01*
X69056190Y-35012380D01*
X69151428Y-35060000D01*
X69199047Y-35107619D01*
X69246666Y-35202857D01*
X69246666Y-35298095D01*
X69199047Y-35440952D01*
X68627619Y-36012380D01*
X69246666Y-36012380D01*
X58936904Y-29662380D02*
X58365476Y-29662380D01*
X58651190Y-29662380D02*
X58651190Y-28662380D01*
X58555952Y-28805238D01*
X58460714Y-28900476D01*
X58365476Y-28948095D01*
X59317857Y-28757619D02*
X59365476Y-28710000D01*
X59460714Y-28662380D01*
X59698809Y-28662380D01*
X59794047Y-28710000D01*
X59841666Y-28757619D01*
X59889285Y-28852857D01*
X59889285Y-28948095D01*
X59841666Y-29090952D01*
X59270238Y-29662380D01*
X59889285Y-29662380D01*
X60175000Y-28662380D02*
X60508333Y-29662380D01*
X60841666Y-28662380D01*
X61936904Y-29281428D02*
X62698809Y-29281428D01*
X64270238Y-29138571D02*
X64413095Y-29186190D01*
X64460714Y-29233809D01*
X64508333Y-29329047D01*
X64508333Y-29471904D01*
X64460714Y-29567142D01*
X64413095Y-29614761D01*
X64317857Y-29662380D01*
X63936904Y-29662380D01*
X63936904Y-28662380D01*
X64270238Y-28662380D01*
X64365476Y-28710000D01*
X64413095Y-28757619D01*
X64460714Y-28852857D01*
X64460714Y-28948095D01*
X64413095Y-29043333D01*
X64365476Y-29090952D01*
X64270238Y-29138571D01*
X63936904Y-29138571D01*
X65079761Y-29662380D02*
X64984523Y-29614761D01*
X64936904Y-29567142D01*
X64889285Y-29471904D01*
X64889285Y-29186190D01*
X64936904Y-29090952D01*
X64984523Y-29043333D01*
X65079761Y-28995714D01*
X65222619Y-28995714D01*
X65317857Y-29043333D01*
X65365476Y-29090952D01*
X65413095Y-29186190D01*
X65413095Y-29471904D01*
X65365476Y-29567142D01*
X65317857Y-29614761D01*
X65222619Y-29662380D01*
X65079761Y-29662380D01*
X66270238Y-29662380D02*
X66270238Y-29138571D01*
X66222619Y-29043333D01*
X66127380Y-28995714D01*
X65936904Y-28995714D01*
X65841666Y-29043333D01*
X66270238Y-29614761D02*
X66175000Y-29662380D01*
X65936904Y-29662380D01*
X65841666Y-29614761D01*
X65794047Y-29519523D01*
X65794047Y-29424285D01*
X65841666Y-29329047D01*
X65936904Y-29281428D01*
X66175000Y-29281428D01*
X66270238Y-29233809D01*
X66746428Y-29662380D02*
X66746428Y-28995714D01*
X66746428Y-29186190D02*
X66794047Y-29090952D01*
X66841666Y-29043333D01*
X66936904Y-28995714D01*
X67032142Y-28995714D01*
X67794047Y-29662380D02*
X67794047Y-28662380D01*
X67794047Y-29614761D02*
X67698809Y-29662380D01*
X67508333Y-29662380D01*
X67413095Y-29614761D01*
X67365476Y-29567142D01*
X67317857Y-29471904D01*
X67317857Y-29186190D01*
X67365476Y-29090952D01*
X67413095Y-29043333D01*
X67508333Y-28995714D01*
X67698809Y-28995714D01*
X67794047Y-29043333D01*
X68222619Y-29614761D02*
X68317857Y-29662380D01*
X68508333Y-29662380D01*
X68603571Y-29614761D01*
X68651190Y-29519523D01*
X68651190Y-29471904D01*
X68603571Y-29376666D01*
X68508333Y-29329047D01*
X68365476Y-29329047D01*
X68270238Y-29281428D01*
X68222619Y-29186190D01*
X68222619Y-29138571D01*
X68270238Y-29043333D01*
X68365476Y-28995714D01*
X68508333Y-28995714D01*
X68603571Y-29043333D01*
X69079761Y-28995714D02*
X69079761Y-29995714D01*
X69079761Y-29043333D02*
X69175000Y-28995714D01*
X69365476Y-28995714D01*
X69460714Y-29043333D01*
X69508333Y-29090952D01*
X69555952Y-29186190D01*
X69555952Y-29471904D01*
X69508333Y-29567142D01*
X69460714Y-29614761D01*
X69365476Y-29662380D01*
X69175000Y-29662380D01*
X69079761Y-29614761D01*
X70413095Y-29662380D02*
X70413095Y-29138571D01*
X70365476Y-29043333D01*
X70270238Y-28995714D01*
X70079761Y-28995714D01*
X69984523Y-29043333D01*
X70413095Y-29614761D02*
X70317857Y-29662380D01*
X70079761Y-29662380D01*
X69984523Y-29614761D01*
X69936904Y-29519523D01*
X69936904Y-29424285D01*
X69984523Y-29329047D01*
X70079761Y-29281428D01*
X70317857Y-29281428D01*
X70413095Y-29233809D01*
X70889285Y-28995714D02*
X70889285Y-29662380D01*
X70889285Y-29090952D02*
X70936904Y-29043333D01*
X71032142Y-28995714D01*
X71175000Y-28995714D01*
X71270238Y-29043333D01*
X71317857Y-29138571D01*
X71317857Y-29662380D01*
X71794047Y-28995714D02*
X71794047Y-29662380D01*
X71794047Y-29090952D02*
X71841666Y-29043333D01*
X71936904Y-28995714D01*
X72079761Y-28995714D01*
X72175000Y-29043333D01*
X72222619Y-29138571D01*
X72222619Y-29662380D01*
X73127380Y-28995714D02*
X73127380Y-29662380D01*
X72698809Y-28995714D02*
X72698809Y-29519523D01*
X72746428Y-29614761D01*
X72841666Y-29662380D01*
X72984523Y-29662380D01*
X73079761Y-29614761D01*
X73127380Y-29567142D01*
X73603571Y-28995714D02*
X73603571Y-29662380D01*
X73603571Y-29090952D02*
X73651190Y-29043333D01*
X73746428Y-28995714D01*
X73889285Y-28995714D01*
X73984523Y-29043333D01*
X74032142Y-29138571D01*
X74032142Y-29662380D01*
X74936904Y-28995714D02*
X74936904Y-29805238D01*
X74889285Y-29900476D01*
X74841666Y-29948095D01*
X74746428Y-29995714D01*
X74603571Y-29995714D01*
X74508333Y-29948095D01*
X74936904Y-29614761D02*
X74841666Y-29662380D01*
X74651190Y-29662380D01*
X74555952Y-29614761D01*
X74508333Y-29567142D01*
X74460714Y-29471904D01*
X74460714Y-29186190D01*
X74508333Y-29090952D01*
X74555952Y-29043333D01*
X74651190Y-28995714D01*
X74841666Y-28995714D01*
X74936904Y-29043333D01*
G04 #@! TO.C,J3*
X171156380Y-147531333D02*
X171870666Y-147531333D01*
X172013523Y-147578952D01*
X172108761Y-147674190D01*
X172156380Y-147817047D01*
X172156380Y-147912285D01*
X171156380Y-147150380D02*
X171156380Y-146531333D01*
X171537333Y-146864666D01*
X171537333Y-146721809D01*
X171584952Y-146626571D01*
X171632571Y-146578952D01*
X171727809Y-146531333D01*
X171965904Y-146531333D01*
X172061142Y-146578952D01*
X172108761Y-146626571D01*
X172156380Y-146721809D01*
X172156380Y-147007523D01*
X172108761Y-147102761D01*
X172061142Y-147150380D01*
D11*
X187622571Y-148248571D02*
X187622571Y-149105714D01*
X187622571Y-148677142D02*
X186122571Y-148677142D01*
X186336857Y-148820000D01*
X186479714Y-148962857D01*
X186551142Y-149105714D01*
X186265428Y-147677142D02*
X186194000Y-147605714D01*
X186122571Y-147462857D01*
X186122571Y-147105714D01*
X186194000Y-146962857D01*
X186265428Y-146891428D01*
X186408285Y-146820000D01*
X186551142Y-146820000D01*
X186765428Y-146891428D01*
X187622571Y-147748571D01*
X187622571Y-146820000D01*
X186122571Y-146391428D02*
X187622571Y-145891428D01*
X186122571Y-145391428D01*
G04 #@! TO.C,J4*
D15*
X170902380Y-133937333D02*
X171616666Y-133937333D01*
X171759523Y-133984952D01*
X171854761Y-134080190D01*
X171902380Y-134223047D01*
X171902380Y-134318285D01*
X171235714Y-133032571D02*
X171902380Y-133032571D01*
X170854761Y-133270666D02*
X171569047Y-133508761D01*
X171569047Y-132889714D01*
D11*
X182947571Y-134016714D02*
X182947571Y-134731000D01*
X183661857Y-134802428D01*
X183590428Y-134731000D01*
X183519000Y-134588142D01*
X183519000Y-134231000D01*
X183590428Y-134088142D01*
X183661857Y-134016714D01*
X183804714Y-133945285D01*
X184161857Y-133945285D01*
X184304714Y-134016714D01*
X184376142Y-134088142D01*
X184447571Y-134231000D01*
X184447571Y-134588142D01*
X184376142Y-134731000D01*
X184304714Y-134802428D01*
X182947571Y-133516714D02*
X184447571Y-133016714D01*
X182947571Y-132516714D01*
G04 #@! TO.C,J5*
D15*
X170902380Y-121237333D02*
X171616666Y-121237333D01*
X171759523Y-121284952D01*
X171854761Y-121380190D01*
X171902380Y-121523047D01*
X171902380Y-121618285D01*
X170902380Y-120284952D02*
X170902380Y-120761142D01*
X171378571Y-120808761D01*
X171330952Y-120761142D01*
X171283333Y-120665904D01*
X171283333Y-120427809D01*
X171330952Y-120332571D01*
X171378571Y-120284952D01*
X171473809Y-120237333D01*
X171711904Y-120237333D01*
X171807142Y-120284952D01*
X171854761Y-120332571D01*
X171902380Y-120427809D01*
X171902380Y-120665904D01*
X171854761Y-120761142D01*
X171807142Y-120808761D01*
D11*
X185995571Y-121062714D02*
X185995571Y-121777000D01*
X186709857Y-121848428D01*
X186638428Y-121777000D01*
X186567000Y-121634142D01*
X186567000Y-121277000D01*
X186638428Y-121134142D01*
X186709857Y-121062714D01*
X186852714Y-120991285D01*
X187209857Y-120991285D01*
X187352714Y-121062714D01*
X187424142Y-121134142D01*
X187495571Y-121277000D01*
X187495571Y-121634142D01*
X187424142Y-121777000D01*
X187352714Y-121848428D01*
X185995571Y-120562714D02*
X187495571Y-120062714D01*
X185995571Y-119562714D01*
G04 #@! TO.C,K10*
D15*
X128722380Y-39949285D02*
X127722380Y-39949285D01*
X128722380Y-39377857D02*
X128150952Y-39806428D01*
X127722380Y-39377857D02*
X128293809Y-39949285D01*
X128722380Y-38425476D02*
X128722380Y-38996904D01*
X128722380Y-38711190D02*
X127722380Y-38711190D01*
X127865238Y-38806428D01*
X127960476Y-38901666D01*
X128008095Y-38996904D01*
X127722380Y-37806428D02*
X127722380Y-37711190D01*
X127770000Y-37615952D01*
X127817619Y-37568333D01*
X127912857Y-37520714D01*
X128103333Y-37473095D01*
X128341428Y-37473095D01*
X128531904Y-37520714D01*
X128627142Y-37568333D01*
X128674761Y-37615952D01*
X128722380Y-37711190D01*
X128722380Y-37806428D01*
X128674761Y-37901666D01*
X128627142Y-37949285D01*
X128531904Y-37996904D01*
X128341428Y-38044523D01*
X128103333Y-38044523D01*
X127912857Y-37996904D01*
X127817619Y-37949285D01*
X127770000Y-37901666D01*
X127722380Y-37806428D01*
X136326571Y-44227047D02*
X136326571Y-44560380D01*
X136850380Y-44560380D02*
X135850380Y-44560380D01*
X135850380Y-44084190D01*
X136850380Y-43703238D02*
X135850380Y-43703238D01*
X136850380Y-43227047D02*
X135850380Y-43227047D01*
X136850380Y-42655619D01*
X135850380Y-42655619D01*
X136183714Y-40988952D02*
X136850380Y-40988952D01*
X135802761Y-41227047D02*
X136517047Y-41465142D01*
X136517047Y-40846095D01*
X135850380Y-40274666D02*
X135850380Y-40179428D01*
X135898000Y-40084190D01*
X135945619Y-40036571D01*
X136040857Y-39988952D01*
X136231333Y-39941333D01*
X136469428Y-39941333D01*
X136659904Y-39988952D01*
X136755142Y-40036571D01*
X136802761Y-40084190D01*
X136850380Y-40179428D01*
X136850380Y-40274666D01*
X136802761Y-40369904D01*
X136755142Y-40417523D01*
X136659904Y-40465142D01*
X136469428Y-40512761D01*
X136231333Y-40512761D01*
X136040857Y-40465142D01*
X135945619Y-40417523D01*
X135898000Y-40369904D01*
X135850380Y-40274666D01*
X136755142Y-39512761D02*
X136802761Y-39465142D01*
X136850380Y-39512761D01*
X136802761Y-39560380D01*
X136755142Y-39512761D01*
X136850380Y-39512761D01*
X135850380Y-38560380D02*
X135850380Y-39036571D01*
X136326571Y-39084190D01*
X136278952Y-39036571D01*
X136231333Y-38941333D01*
X136231333Y-38703238D01*
X136278952Y-38608000D01*
X136326571Y-38560380D01*
X136421809Y-38512761D01*
X136659904Y-38512761D01*
X136755142Y-38560380D01*
X136802761Y-38608000D01*
X136850380Y-38703238D01*
X136850380Y-38941333D01*
X136802761Y-39036571D01*
X136755142Y-39084190D01*
X135945619Y-38131809D02*
X135898000Y-38084190D01*
X135850380Y-37988952D01*
X135850380Y-37750857D01*
X135898000Y-37655619D01*
X135945619Y-37608000D01*
X136040857Y-37560380D01*
X136136095Y-37560380D01*
X136278952Y-37608000D01*
X136850380Y-38179428D01*
X136850380Y-37560380D01*
X136755142Y-37131809D02*
X136802761Y-37084190D01*
X136850380Y-37131809D01*
X136802761Y-37179428D01*
X136755142Y-37131809D01*
X136850380Y-37131809D01*
X136850380Y-36608000D02*
X136850380Y-36417523D01*
X136802761Y-36322285D01*
X136755142Y-36274666D01*
X136612285Y-36179428D01*
X136421809Y-36131809D01*
X136040857Y-36131809D01*
X135945619Y-36179428D01*
X135898000Y-36227047D01*
X135850380Y-36322285D01*
X135850380Y-36512761D01*
X135898000Y-36608000D01*
X135945619Y-36655619D01*
X136040857Y-36703238D01*
X136278952Y-36703238D01*
X136374190Y-36655619D01*
X136421809Y-36608000D01*
X136469428Y-36512761D01*
X136469428Y-36322285D01*
X136421809Y-36227047D01*
X136374190Y-36179428D01*
X136278952Y-36131809D01*
X136850380Y-34417523D02*
X136850380Y-34988952D01*
X136850380Y-34703238D02*
X135850380Y-34703238D01*
X135993238Y-34798476D01*
X136088476Y-34893714D01*
X136136095Y-34988952D01*
X135945619Y-34036571D02*
X135898000Y-33988952D01*
X135850380Y-33893714D01*
X135850380Y-33655619D01*
X135898000Y-33560380D01*
X135945619Y-33512761D01*
X136040857Y-33465142D01*
X136136095Y-33465142D01*
X136278952Y-33512761D01*
X136850380Y-34084190D01*
X136850380Y-33465142D01*
X135850380Y-33179428D02*
X136850380Y-32846095D01*
X135850380Y-32512761D01*
G04 #@! TO.C,K20*
X176474380Y-84018285D02*
X175474380Y-84018285D01*
X176474380Y-83446857D02*
X175902952Y-83875428D01*
X175474380Y-83446857D02*
X176045809Y-84018285D01*
X175569619Y-83065904D02*
X175522000Y-83018285D01*
X175474380Y-82923047D01*
X175474380Y-82684952D01*
X175522000Y-82589714D01*
X175569619Y-82542095D01*
X175664857Y-82494476D01*
X175760095Y-82494476D01*
X175902952Y-82542095D01*
X176474380Y-83113523D01*
X176474380Y-82494476D01*
X175474380Y-81875428D02*
X175474380Y-81780190D01*
X175522000Y-81684952D01*
X175569619Y-81637333D01*
X175664857Y-81589714D01*
X175855333Y-81542095D01*
X176093428Y-81542095D01*
X176283904Y-81589714D01*
X176379142Y-81637333D01*
X176426761Y-81684952D01*
X176474380Y-81780190D01*
X176474380Y-81875428D01*
X176426761Y-81970666D01*
X176379142Y-82018285D01*
X176283904Y-82065904D01*
X176093428Y-82113523D01*
X175855333Y-82113523D01*
X175664857Y-82065904D01*
X175569619Y-82018285D01*
X175522000Y-81970666D01*
X175474380Y-81875428D01*
X184078571Y-88708857D02*
X184078571Y-89042190D01*
X184602380Y-89042190D02*
X183602380Y-89042190D01*
X183602380Y-88566000D01*
X184602380Y-88185047D02*
X183602380Y-88185047D01*
X184602380Y-87708857D02*
X183602380Y-87708857D01*
X184602380Y-87137428D01*
X183602380Y-87137428D01*
X183935714Y-85470761D02*
X184602380Y-85470761D01*
X183554761Y-85708857D02*
X184269047Y-85946952D01*
X184269047Y-85327904D01*
X183602380Y-84756476D02*
X183602380Y-84661238D01*
X183650000Y-84566000D01*
X183697619Y-84518380D01*
X183792857Y-84470761D01*
X183983333Y-84423142D01*
X184221428Y-84423142D01*
X184411904Y-84470761D01*
X184507142Y-84518380D01*
X184554761Y-84566000D01*
X184602380Y-84661238D01*
X184602380Y-84756476D01*
X184554761Y-84851714D01*
X184507142Y-84899333D01*
X184411904Y-84946952D01*
X184221428Y-84994571D01*
X183983333Y-84994571D01*
X183792857Y-84946952D01*
X183697619Y-84899333D01*
X183650000Y-84851714D01*
X183602380Y-84756476D01*
X184507142Y-83994571D02*
X184554761Y-83946952D01*
X184602380Y-83994571D01*
X184554761Y-84042190D01*
X184507142Y-83994571D01*
X184602380Y-83994571D01*
X183602380Y-83042190D02*
X183602380Y-83518380D01*
X184078571Y-83566000D01*
X184030952Y-83518380D01*
X183983333Y-83423142D01*
X183983333Y-83185047D01*
X184030952Y-83089809D01*
X184078571Y-83042190D01*
X184173809Y-82994571D01*
X184411904Y-82994571D01*
X184507142Y-83042190D01*
X184554761Y-83089809D01*
X184602380Y-83185047D01*
X184602380Y-83423142D01*
X184554761Y-83518380D01*
X184507142Y-83566000D01*
X183697619Y-82613619D02*
X183650000Y-82566000D01*
X183602380Y-82470761D01*
X183602380Y-82232666D01*
X183650000Y-82137428D01*
X183697619Y-82089809D01*
X183792857Y-82042190D01*
X183888095Y-82042190D01*
X184030952Y-82089809D01*
X184602380Y-82661238D01*
X184602380Y-82042190D01*
X184507142Y-81613619D02*
X184554761Y-81566000D01*
X184602380Y-81613619D01*
X184554761Y-81661238D01*
X184507142Y-81613619D01*
X184602380Y-81613619D01*
X183602380Y-81232666D02*
X183602380Y-80566000D01*
X184602380Y-80994571D01*
X183602380Y-78946952D02*
X183602380Y-79423142D01*
X184078571Y-79470761D01*
X184030952Y-79423142D01*
X183983333Y-79327904D01*
X183983333Y-79089809D01*
X184030952Y-78994571D01*
X184078571Y-78946952D01*
X184173809Y-78899333D01*
X184411904Y-78899333D01*
X184507142Y-78946952D01*
X184554761Y-78994571D01*
X184602380Y-79089809D01*
X184602380Y-79327904D01*
X184554761Y-79423142D01*
X184507142Y-79470761D01*
X183602380Y-78613619D02*
X184602380Y-78280285D01*
X183602380Y-77946952D01*
G04 #@! TO.C,K30*
X111450380Y-158948285D02*
X110450380Y-158948285D01*
X111450380Y-158376857D02*
X110878952Y-158805428D01*
X110450380Y-158376857D02*
X111021809Y-158948285D01*
X110450380Y-158043523D02*
X110450380Y-157424476D01*
X110831333Y-157757809D01*
X110831333Y-157614952D01*
X110878952Y-157519714D01*
X110926571Y-157472095D01*
X111021809Y-157424476D01*
X111259904Y-157424476D01*
X111355142Y-157472095D01*
X111402761Y-157519714D01*
X111450380Y-157614952D01*
X111450380Y-157900666D01*
X111402761Y-157995904D01*
X111355142Y-158043523D01*
X110450380Y-156805428D02*
X110450380Y-156710190D01*
X110498000Y-156614952D01*
X110545619Y-156567333D01*
X110640857Y-156519714D01*
X110831333Y-156472095D01*
X111069428Y-156472095D01*
X111259904Y-156519714D01*
X111355142Y-156567333D01*
X111402761Y-156614952D01*
X111450380Y-156710190D01*
X111450380Y-156805428D01*
X111402761Y-156900666D01*
X111355142Y-156948285D01*
X111259904Y-156995904D01*
X111069428Y-157043523D01*
X110831333Y-157043523D01*
X110640857Y-156995904D01*
X110545619Y-156948285D01*
X110498000Y-156900666D01*
X110450380Y-156805428D01*
X103179571Y-162876857D02*
X103179571Y-163210190D01*
X103703380Y-163210190D02*
X102703380Y-163210190D01*
X102703380Y-162734000D01*
X103703380Y-162353047D02*
X102703380Y-162353047D01*
X103703380Y-161876857D02*
X102703380Y-161876857D01*
X103703380Y-161305428D01*
X102703380Y-161305428D01*
X103036714Y-159638761D02*
X103703380Y-159638761D01*
X102655761Y-159876857D02*
X103370047Y-160114952D01*
X103370047Y-159495904D01*
X102703380Y-158924476D02*
X102703380Y-158829238D01*
X102751000Y-158734000D01*
X102798619Y-158686380D01*
X102893857Y-158638761D01*
X103084333Y-158591142D01*
X103322428Y-158591142D01*
X103512904Y-158638761D01*
X103608142Y-158686380D01*
X103655761Y-158734000D01*
X103703380Y-158829238D01*
X103703380Y-158924476D01*
X103655761Y-159019714D01*
X103608142Y-159067333D01*
X103512904Y-159114952D01*
X103322428Y-159162571D01*
X103084333Y-159162571D01*
X102893857Y-159114952D01*
X102798619Y-159067333D01*
X102751000Y-159019714D01*
X102703380Y-158924476D01*
X103608142Y-158162571D02*
X103655761Y-158114952D01*
X103703380Y-158162571D01*
X103655761Y-158210190D01*
X103608142Y-158162571D01*
X103703380Y-158162571D01*
X102703380Y-157210190D02*
X102703380Y-157686380D01*
X103179571Y-157734000D01*
X103131952Y-157686380D01*
X103084333Y-157591142D01*
X103084333Y-157353047D01*
X103131952Y-157257809D01*
X103179571Y-157210190D01*
X103274809Y-157162571D01*
X103512904Y-157162571D01*
X103608142Y-157210190D01*
X103655761Y-157257809D01*
X103703380Y-157353047D01*
X103703380Y-157591142D01*
X103655761Y-157686380D01*
X103608142Y-157734000D01*
X102798619Y-156781619D02*
X102751000Y-156734000D01*
X102703380Y-156638761D01*
X102703380Y-156400666D01*
X102751000Y-156305428D01*
X102798619Y-156257809D01*
X102893857Y-156210190D01*
X102989095Y-156210190D01*
X103131952Y-156257809D01*
X103703380Y-156829238D01*
X103703380Y-156210190D01*
X103608142Y-155781619D02*
X103655761Y-155734000D01*
X103703380Y-155781619D01*
X103655761Y-155829238D01*
X103608142Y-155781619D01*
X103703380Y-155781619D01*
X102703380Y-155400666D02*
X102703380Y-154734000D01*
X103703380Y-155162571D01*
X102703380Y-153114952D02*
X102703380Y-153591142D01*
X103179571Y-153638761D01*
X103131952Y-153591142D01*
X103084333Y-153495904D01*
X103084333Y-153257809D01*
X103131952Y-153162571D01*
X103179571Y-153114952D01*
X103274809Y-153067333D01*
X103512904Y-153067333D01*
X103608142Y-153114952D01*
X103655761Y-153162571D01*
X103703380Y-153257809D01*
X103703380Y-153495904D01*
X103655761Y-153591142D01*
X103608142Y-153638761D01*
X102703380Y-152781619D02*
X103703380Y-152448285D01*
X102703380Y-152114952D01*
G04 #@! TO.C,R1*
X135469333Y-177216380D02*
X135136000Y-176740190D01*
X134897904Y-177216380D02*
X134897904Y-176216380D01*
X135278857Y-176216380D01*
X135374095Y-176264000D01*
X135421714Y-176311619D01*
X135469333Y-176406857D01*
X135469333Y-176549714D01*
X135421714Y-176644952D01*
X135374095Y-176692571D01*
X135278857Y-176740190D01*
X134897904Y-176740190D01*
X136421714Y-177216380D02*
X135850285Y-177216380D01*
X136136000Y-177216380D02*
X136136000Y-176216380D01*
X136040761Y-176359238D01*
X135945523Y-176454476D01*
X135850285Y-176502095D01*
G04 #@! TO.C,R2*
X149058333Y-177216380D02*
X148725000Y-176740190D01*
X148486904Y-177216380D02*
X148486904Y-176216380D01*
X148867857Y-176216380D01*
X148963095Y-176264000D01*
X149010714Y-176311619D01*
X149058333Y-176406857D01*
X149058333Y-176549714D01*
X149010714Y-176644952D01*
X148963095Y-176692571D01*
X148867857Y-176740190D01*
X148486904Y-176740190D01*
X149439285Y-176311619D02*
X149486904Y-176264000D01*
X149582142Y-176216380D01*
X149820238Y-176216380D01*
X149915476Y-176264000D01*
X149963095Y-176311619D01*
X150010714Y-176406857D01*
X150010714Y-176502095D01*
X149963095Y-176644952D01*
X149391666Y-177216380D01*
X150010714Y-177216380D01*
G04 #@! TO.C,R3*
X162711333Y-177216380D02*
X162378000Y-176740190D01*
X162139904Y-177216380D02*
X162139904Y-176216380D01*
X162520857Y-176216380D01*
X162616095Y-176264000D01*
X162663714Y-176311619D01*
X162711333Y-176406857D01*
X162711333Y-176549714D01*
X162663714Y-176644952D01*
X162616095Y-176692571D01*
X162520857Y-176740190D01*
X162139904Y-176740190D01*
X163044666Y-176216380D02*
X163663714Y-176216380D01*
X163330380Y-176597333D01*
X163473238Y-176597333D01*
X163568476Y-176644952D01*
X163616095Y-176692571D01*
X163663714Y-176787809D01*
X163663714Y-177025904D01*
X163616095Y-177121142D01*
X163568476Y-177168761D01*
X163473238Y-177216380D01*
X163187523Y-177216380D01*
X163092285Y-177168761D01*
X163044666Y-177121142D01*
G04 #@! TO.C,PS1*
D16*
X44394399Y-99004334D02*
X43394359Y-99004334D01*
X43394359Y-98623366D01*
X43441980Y-98528124D01*
X43489600Y-98480503D01*
X43584842Y-98432882D01*
X43727705Y-98432882D01*
X43822947Y-98480503D01*
X43870568Y-98528124D01*
X43918189Y-98623366D01*
X43918189Y-99004334D01*
X44346778Y-98051915D02*
X44394399Y-97909052D01*
X44394399Y-97670947D01*
X44346778Y-97575705D01*
X44299157Y-97528084D01*
X44203915Y-97480463D01*
X44108673Y-97480463D01*
X44013431Y-97528084D01*
X43965810Y-97575705D01*
X43918189Y-97670947D01*
X43870568Y-97861431D01*
X43822947Y-97956673D01*
X43775326Y-98004294D01*
X43680084Y-98051915D01*
X43584842Y-98051915D01*
X43489600Y-98004294D01*
X43441980Y-97956673D01*
X43394359Y-97861431D01*
X43394359Y-97623326D01*
X43441980Y-97480463D01*
X44394399Y-96528044D02*
X44394399Y-97099496D01*
X44394399Y-96813770D02*
X43394359Y-96813770D01*
X43537221Y-96909012D01*
X43632463Y-97004254D01*
X43680084Y-97099496D01*
X16619021Y-61317692D02*
X15618711Y-61317692D01*
X16619021Y-60269748D02*
X16142683Y-60603185D01*
X16619021Y-60841354D02*
X15618711Y-60841354D01*
X15618711Y-60460283D01*
X15666345Y-60365015D01*
X15713978Y-60317382D01*
X15809246Y-60269748D01*
X15952147Y-60269748D01*
X16047415Y-60317382D01*
X16095049Y-60365015D01*
X16142683Y-60460283D01*
X16142683Y-60841354D01*
X16619021Y-59841044D02*
X15618711Y-59841044D01*
X16333218Y-59507607D01*
X15618711Y-59174170D01*
X16619021Y-59174170D01*
X16237950Y-58697832D02*
X16237950Y-57935691D01*
X15618711Y-57030649D02*
X15618711Y-57221184D01*
X15666345Y-57316452D01*
X15713978Y-57364085D01*
X15856880Y-57459353D01*
X16047415Y-57506987D01*
X16428485Y-57506987D01*
X16523753Y-57459353D01*
X16571387Y-57411719D01*
X16619021Y-57316452D01*
X16619021Y-57125916D01*
X16571387Y-57030649D01*
X16523753Y-56983015D01*
X16428485Y-56935381D01*
X16190316Y-56935381D01*
X16095049Y-56983015D01*
X16047415Y-57030649D01*
X15999781Y-57125916D01*
X15999781Y-57316452D01*
X16047415Y-57411719D01*
X16095049Y-57459353D01*
X16190316Y-57506987D01*
X15618711Y-56316142D02*
X15618711Y-56220874D01*
X15666345Y-56125606D01*
X15713978Y-56077973D01*
X15809246Y-56030339D01*
X15999781Y-55982705D01*
X16237950Y-55982705D01*
X16428485Y-56030339D01*
X16523753Y-56077973D01*
X16571387Y-56125606D01*
X16619021Y-56220874D01*
X16619021Y-56316142D01*
X16571387Y-56411409D01*
X16523753Y-56459043D01*
X16428485Y-56506677D01*
X16237950Y-56554311D01*
X15999781Y-56554311D01*
X15809246Y-56506677D01*
X15713978Y-56459043D01*
X15666345Y-56411409D01*
X15618711Y-56316142D01*
X16237950Y-55554001D02*
X16237950Y-54791860D01*
X16619021Y-53791550D02*
X16619021Y-54363155D01*
X16619021Y-54077353D02*
X15618711Y-54077353D01*
X15761612Y-54172620D01*
X15856880Y-54267888D01*
X15904514Y-54363155D01*
X15713978Y-53410479D02*
X15666345Y-53362845D01*
X15618711Y-53267578D01*
X15618711Y-53029409D01*
X15666345Y-52934141D01*
X15713978Y-52886507D01*
X15809246Y-52838874D01*
X15904514Y-52838874D01*
X16047415Y-52886507D01*
X16619021Y-53458113D01*
X16619021Y-52838874D01*
G04 #@! TO.C,PS2*
X114101665Y-100782399D02*
X114101665Y-99782359D01*
X114482633Y-99782359D01*
X114577875Y-99829980D01*
X114625496Y-99877600D01*
X114673117Y-99972842D01*
X114673117Y-100115705D01*
X114625496Y-100210947D01*
X114577875Y-100258568D01*
X114482633Y-100306189D01*
X114101665Y-100306189D01*
X115054084Y-100734778D02*
X115196947Y-100782399D01*
X115435052Y-100782399D01*
X115530294Y-100734778D01*
X115577915Y-100687157D01*
X115625536Y-100591915D01*
X115625536Y-100496673D01*
X115577915Y-100401431D01*
X115530294Y-100353810D01*
X115435052Y-100306189D01*
X115244568Y-100258568D01*
X115149326Y-100210947D01*
X115101705Y-100163326D01*
X115054084Y-100068084D01*
X115054084Y-99972842D01*
X115101705Y-99877600D01*
X115149326Y-99829980D01*
X115244568Y-99782359D01*
X115482673Y-99782359D01*
X115625536Y-99829980D01*
X116006503Y-99877600D02*
X116054124Y-99829980D01*
X116149366Y-99782359D01*
X116387471Y-99782359D01*
X116482713Y-99829980D01*
X116530334Y-99877600D01*
X116577955Y-99972842D01*
X116577955Y-100068084D01*
X116530334Y-100210947D01*
X115958882Y-100782399D01*
X116577955Y-100782399D01*
X72206745Y-128214521D02*
X72206745Y-127214211D01*
X73254689Y-128214521D02*
X72921253Y-127738183D01*
X72683084Y-128214521D02*
X72683084Y-127214211D01*
X73064154Y-127214211D01*
X73159422Y-127261845D01*
X73207055Y-127309478D01*
X73254689Y-127404746D01*
X73254689Y-127547647D01*
X73207055Y-127642915D01*
X73159422Y-127690549D01*
X73064154Y-127738183D01*
X72683084Y-127738183D01*
X73683394Y-128214521D02*
X73683394Y-127214211D01*
X74016830Y-127928718D01*
X74350267Y-127214211D01*
X74350267Y-128214521D01*
X74826605Y-127833450D02*
X75588746Y-127833450D01*
X76493788Y-127214211D02*
X76303253Y-127214211D01*
X76207985Y-127261845D01*
X76160352Y-127309478D01*
X76065084Y-127452380D01*
X76017450Y-127642915D01*
X76017450Y-128023985D01*
X76065084Y-128119253D01*
X76112718Y-128166887D01*
X76207985Y-128214521D01*
X76398521Y-128214521D01*
X76493788Y-128166887D01*
X76541422Y-128119253D01*
X76589056Y-128023985D01*
X76589056Y-127785816D01*
X76541422Y-127690549D01*
X76493788Y-127642915D01*
X76398521Y-127595281D01*
X76207985Y-127595281D01*
X76112718Y-127642915D01*
X76065084Y-127690549D01*
X76017450Y-127785816D01*
X77208295Y-127214211D02*
X77303563Y-127214211D01*
X77398831Y-127261845D01*
X77446465Y-127309478D01*
X77494098Y-127404746D01*
X77541732Y-127595281D01*
X77541732Y-127833450D01*
X77494098Y-128023985D01*
X77446465Y-128119253D01*
X77398831Y-128166887D01*
X77303563Y-128214521D01*
X77208295Y-128214521D01*
X77113028Y-128166887D01*
X77065394Y-128119253D01*
X77017760Y-128023985D01*
X76970126Y-127833450D01*
X76970126Y-127595281D01*
X77017760Y-127404746D01*
X77065394Y-127309478D01*
X77113028Y-127261845D01*
X77208295Y-127214211D01*
X77970436Y-127833450D02*
X78732577Y-127833450D01*
X79685254Y-127214211D02*
X79208915Y-127214211D01*
X79161282Y-127690549D01*
X79208915Y-127642915D01*
X79304183Y-127595281D01*
X79542352Y-127595281D01*
X79637620Y-127642915D01*
X79685254Y-127690549D01*
X79732887Y-127785816D01*
X79732887Y-128023985D01*
X79685254Y-128119253D01*
X79637620Y-128166887D01*
X79542352Y-128214521D01*
X79304183Y-128214521D01*
X79208915Y-128166887D01*
X79161282Y-128119253D01*
G04 #@! TO.C,U10*
D15*
X102957380Y-39338095D02*
X103766904Y-39338095D01*
X103862142Y-39290476D01*
X103909761Y-39242857D01*
X103957380Y-39147619D01*
X103957380Y-38957142D01*
X103909761Y-38861904D01*
X103862142Y-38814285D01*
X103766904Y-38766666D01*
X102957380Y-38766666D01*
X103957380Y-37766666D02*
X103957380Y-38338095D01*
X103957380Y-38052380D02*
X102957380Y-38052380D01*
X103100238Y-38147619D01*
X103195476Y-38242857D01*
X103243095Y-38338095D01*
X102957380Y-37147619D02*
X102957380Y-37052380D01*
X103005000Y-36957142D01*
X103052619Y-36909523D01*
X103147857Y-36861904D01*
X103338333Y-36814285D01*
X103576428Y-36814285D01*
X103766904Y-36861904D01*
X103862142Y-36909523D01*
X103909761Y-36957142D01*
X103957380Y-37052380D01*
X103957380Y-37147619D01*
X103909761Y-37242857D01*
X103862142Y-37290476D01*
X103766904Y-37338095D01*
X103576428Y-37385714D01*
X103338333Y-37385714D01*
X103147857Y-37338095D01*
X103052619Y-37290476D01*
X103005000Y-37242857D01*
X102957380Y-37147619D01*
X86177380Y-42452380D02*
X85177380Y-42452380D01*
X85177380Y-42214285D01*
X85225000Y-42071428D01*
X85320238Y-41976190D01*
X85415476Y-41928571D01*
X85605952Y-41880952D01*
X85748809Y-41880952D01*
X85939285Y-41928571D01*
X86034523Y-41976190D01*
X86129761Y-42071428D01*
X86177380Y-42214285D01*
X86177380Y-42452380D01*
X85272619Y-41500000D02*
X85225000Y-41452380D01*
X85177380Y-41357142D01*
X85177380Y-41119047D01*
X85225000Y-41023809D01*
X85272619Y-40976190D01*
X85367857Y-40928571D01*
X85463095Y-40928571D01*
X85605952Y-40976190D01*
X86177380Y-41547619D01*
X86177380Y-40928571D01*
X85510714Y-40071428D02*
X86177380Y-40071428D01*
X85129761Y-40309523D02*
X85844047Y-40547619D01*
X85844047Y-39928571D01*
X85177380Y-39690476D02*
X86177380Y-39357142D01*
X85177380Y-39023809D01*
X86177380Y-38166666D02*
X86177380Y-38738095D01*
X86177380Y-38452380D02*
X85177380Y-38452380D01*
X85320238Y-38547619D01*
X85415476Y-38642857D01*
X85463095Y-38738095D01*
X85177380Y-37261904D02*
X85177380Y-37738095D01*
X85653571Y-37785714D01*
X85605952Y-37738095D01*
X85558333Y-37642857D01*
X85558333Y-37404761D01*
X85605952Y-37309523D01*
X85653571Y-37261904D01*
X85748809Y-37214285D01*
X85986904Y-37214285D01*
X86082142Y-37261904D01*
X86129761Y-37309523D01*
X86177380Y-37404761D01*
X86177380Y-37642857D01*
X86129761Y-37738095D01*
X86082142Y-37785714D01*
X85177380Y-36595238D02*
X85177380Y-36500000D01*
X85225000Y-36404761D01*
X85272619Y-36357142D01*
X85367857Y-36309523D01*
X85558333Y-36261904D01*
X85796428Y-36261904D01*
X85986904Y-36309523D01*
X86082142Y-36357142D01*
X86129761Y-36404761D01*
X86177380Y-36500000D01*
X86177380Y-36595238D01*
X86129761Y-36690476D01*
X86082142Y-36738095D01*
X85986904Y-36785714D01*
X85796428Y-36833333D01*
X85558333Y-36833333D01*
X85367857Y-36785714D01*
X85272619Y-36738095D01*
X85225000Y-36690476D01*
X85177380Y-36595238D01*
X85653571Y-35500000D02*
X85653571Y-35833333D01*
X86177380Y-35833333D02*
X85177380Y-35833333D01*
X85177380Y-35357142D01*
X86177380Y-34452380D02*
X86177380Y-35023809D01*
X86177380Y-34738095D02*
X85177380Y-34738095D01*
X85320238Y-34833333D01*
X85415476Y-34928571D01*
X85463095Y-35023809D01*
X85272619Y-34071428D02*
X85225000Y-34023809D01*
X85177380Y-33928571D01*
X85177380Y-33690476D01*
X85225000Y-33595238D01*
X85272619Y-33547619D01*
X85367857Y-33500000D01*
X85463095Y-33500000D01*
X85605952Y-33547619D01*
X86177380Y-34119047D01*
X86177380Y-33500000D01*
G04 #@! TO.C,U20*
X167727380Y-39338095D02*
X168536904Y-39338095D01*
X168632142Y-39290476D01*
X168679761Y-39242857D01*
X168727380Y-39147619D01*
X168727380Y-38957142D01*
X168679761Y-38861904D01*
X168632142Y-38814285D01*
X168536904Y-38766666D01*
X167727380Y-38766666D01*
X167822619Y-38338095D02*
X167775000Y-38290476D01*
X167727380Y-38195238D01*
X167727380Y-37957142D01*
X167775000Y-37861904D01*
X167822619Y-37814285D01*
X167917857Y-37766666D01*
X168013095Y-37766666D01*
X168155952Y-37814285D01*
X168727380Y-38385714D01*
X168727380Y-37766666D01*
X167727380Y-37147619D02*
X167727380Y-37052380D01*
X167775000Y-36957142D01*
X167822619Y-36909523D01*
X167917857Y-36861904D01*
X168108333Y-36814285D01*
X168346428Y-36814285D01*
X168536904Y-36861904D01*
X168632142Y-36909523D01*
X168679761Y-36957142D01*
X168727380Y-37052380D01*
X168727380Y-37147619D01*
X168679761Y-37242857D01*
X168632142Y-37290476D01*
X168536904Y-37338095D01*
X168346428Y-37385714D01*
X168108333Y-37385714D01*
X167917857Y-37338095D01*
X167822619Y-37290476D01*
X167775000Y-37242857D01*
X167727380Y-37147619D01*
X152217380Y-41441190D02*
X151217380Y-41441190D01*
X151217380Y-41203095D01*
X151265000Y-41060238D01*
X151360238Y-40965000D01*
X151455476Y-40917380D01*
X151645952Y-40869761D01*
X151788809Y-40869761D01*
X151979285Y-40917380D01*
X152074523Y-40965000D01*
X152169761Y-41060238D01*
X152217380Y-41203095D01*
X152217380Y-41441190D01*
X151312619Y-40488809D02*
X151265000Y-40441190D01*
X151217380Y-40345952D01*
X151217380Y-40107857D01*
X151265000Y-40012619D01*
X151312619Y-39965000D01*
X151407857Y-39917380D01*
X151503095Y-39917380D01*
X151645952Y-39965000D01*
X152217380Y-40536428D01*
X152217380Y-39917380D01*
X151550714Y-39060238D02*
X152217380Y-39060238D01*
X151169761Y-39298333D02*
X151884047Y-39536428D01*
X151884047Y-38917380D01*
X151217380Y-38679285D02*
X152217380Y-38345952D01*
X151217380Y-38012619D01*
X152217380Y-37155476D02*
X152217380Y-37726904D01*
X152217380Y-37441190D02*
X151217380Y-37441190D01*
X151360238Y-37536428D01*
X151455476Y-37631666D01*
X151503095Y-37726904D01*
X151217380Y-36250714D02*
X151217380Y-36726904D01*
X151693571Y-36774523D01*
X151645952Y-36726904D01*
X151598333Y-36631666D01*
X151598333Y-36393571D01*
X151645952Y-36298333D01*
X151693571Y-36250714D01*
X151788809Y-36203095D01*
X152026904Y-36203095D01*
X152122142Y-36250714D01*
X152169761Y-36298333D01*
X152217380Y-36393571D01*
X152217380Y-36631666D01*
X152169761Y-36726904D01*
X152122142Y-36774523D01*
X151217380Y-35584047D02*
X151217380Y-35488809D01*
X151265000Y-35393571D01*
X151312619Y-35345952D01*
X151407857Y-35298333D01*
X151598333Y-35250714D01*
X151836428Y-35250714D01*
X152026904Y-35298333D01*
X152122142Y-35345952D01*
X152169761Y-35393571D01*
X152217380Y-35488809D01*
X152217380Y-35584047D01*
X152169761Y-35679285D01*
X152122142Y-35726904D01*
X152026904Y-35774523D01*
X151836428Y-35822142D01*
X151598333Y-35822142D01*
X151407857Y-35774523D01*
X151312619Y-35726904D01*
X151265000Y-35679285D01*
X151217380Y-35584047D01*
X151693571Y-34488809D02*
X151693571Y-34822142D01*
X152217380Y-34822142D02*
X151217380Y-34822142D01*
X151217380Y-34345952D01*
X151217380Y-33488809D02*
X151217380Y-33965000D01*
X151693571Y-34012619D01*
X151645952Y-33965000D01*
X151598333Y-33869761D01*
X151598333Y-33631666D01*
X151645952Y-33536428D01*
X151693571Y-33488809D01*
X151788809Y-33441190D01*
X152026904Y-33441190D01*
X152122142Y-33488809D01*
X152169761Y-33536428D01*
X152217380Y-33631666D01*
X152217380Y-33869761D01*
X152169761Y-33965000D01*
X152122142Y-34012619D01*
G04 #@! TO.C,U30*
X71842380Y-166592095D02*
X72651904Y-166592095D01*
X72747142Y-166544476D01*
X72794761Y-166496857D01*
X72842380Y-166401619D01*
X72842380Y-166211142D01*
X72794761Y-166115904D01*
X72747142Y-166068285D01*
X72651904Y-166020666D01*
X71842380Y-166020666D01*
X71842380Y-165639714D02*
X71842380Y-165020666D01*
X72223333Y-165354000D01*
X72223333Y-165211142D01*
X72270952Y-165115904D01*
X72318571Y-165068285D01*
X72413809Y-165020666D01*
X72651904Y-165020666D01*
X72747142Y-165068285D01*
X72794761Y-165115904D01*
X72842380Y-165211142D01*
X72842380Y-165496857D01*
X72794761Y-165592095D01*
X72747142Y-165639714D01*
X71842380Y-164401619D02*
X71842380Y-164306380D01*
X71890000Y-164211142D01*
X71937619Y-164163523D01*
X72032857Y-164115904D01*
X72223333Y-164068285D01*
X72461428Y-164068285D01*
X72651904Y-164115904D01*
X72747142Y-164163523D01*
X72794761Y-164211142D01*
X72842380Y-164306380D01*
X72842380Y-164401619D01*
X72794761Y-164496857D01*
X72747142Y-164544476D01*
X72651904Y-164592095D01*
X72461428Y-164639714D01*
X72223333Y-164639714D01*
X72032857Y-164592095D01*
X71937619Y-164544476D01*
X71890000Y-164496857D01*
X71842380Y-164401619D01*
X55763380Y-169646190D02*
X54763380Y-169646190D01*
X54763380Y-169408095D01*
X54811000Y-169265238D01*
X54906238Y-169170000D01*
X55001476Y-169122380D01*
X55191952Y-169074761D01*
X55334809Y-169074761D01*
X55525285Y-169122380D01*
X55620523Y-169170000D01*
X55715761Y-169265238D01*
X55763380Y-169408095D01*
X55763380Y-169646190D01*
X54858619Y-168693809D02*
X54811000Y-168646190D01*
X54763380Y-168550952D01*
X54763380Y-168312857D01*
X54811000Y-168217619D01*
X54858619Y-168170000D01*
X54953857Y-168122380D01*
X55049095Y-168122380D01*
X55191952Y-168170000D01*
X55763380Y-168741428D01*
X55763380Y-168122380D01*
X55096714Y-167265238D02*
X55763380Y-167265238D01*
X54715761Y-167503333D02*
X55430047Y-167741428D01*
X55430047Y-167122380D01*
X54763380Y-166884285D02*
X55763380Y-166550952D01*
X54763380Y-166217619D01*
X55763380Y-165360476D02*
X55763380Y-165931904D01*
X55763380Y-165646190D02*
X54763380Y-165646190D01*
X54906238Y-165741428D01*
X55001476Y-165836666D01*
X55049095Y-165931904D01*
X54763380Y-164455714D02*
X54763380Y-164931904D01*
X55239571Y-164979523D01*
X55191952Y-164931904D01*
X55144333Y-164836666D01*
X55144333Y-164598571D01*
X55191952Y-164503333D01*
X55239571Y-164455714D01*
X55334809Y-164408095D01*
X55572904Y-164408095D01*
X55668142Y-164455714D01*
X55715761Y-164503333D01*
X55763380Y-164598571D01*
X55763380Y-164836666D01*
X55715761Y-164931904D01*
X55668142Y-164979523D01*
X54763380Y-163789047D02*
X54763380Y-163693809D01*
X54811000Y-163598571D01*
X54858619Y-163550952D01*
X54953857Y-163503333D01*
X55144333Y-163455714D01*
X55382428Y-163455714D01*
X55572904Y-163503333D01*
X55668142Y-163550952D01*
X55715761Y-163598571D01*
X55763380Y-163693809D01*
X55763380Y-163789047D01*
X55715761Y-163884285D01*
X55668142Y-163931904D01*
X55572904Y-163979523D01*
X55382428Y-164027142D01*
X55144333Y-164027142D01*
X54953857Y-163979523D01*
X54858619Y-163931904D01*
X54811000Y-163884285D01*
X54763380Y-163789047D01*
X55239571Y-162693809D02*
X55239571Y-163027142D01*
X55763380Y-163027142D02*
X54763380Y-163027142D01*
X54763380Y-162550952D01*
X54763380Y-161693809D02*
X54763380Y-162170000D01*
X55239571Y-162217619D01*
X55191952Y-162170000D01*
X55144333Y-162074761D01*
X55144333Y-161836666D01*
X55191952Y-161741428D01*
X55239571Y-161693809D01*
X55334809Y-161646190D01*
X55572904Y-161646190D01*
X55668142Y-161693809D01*
X55715761Y-161741428D01*
X55763380Y-161836666D01*
X55763380Y-162074761D01*
X55715761Y-162170000D01*
X55668142Y-162217619D01*
G04 #@! TD*
M02*
