M48
;DRILL file {KiCad (5.0.2)-1} date 07.02.2020 11:46:57
;FORMAT={-:-/ absolute / inch / decimal}
FMAT,2
INCH,TZ
T1C0.0157
T2C0.0197
T3C0.0236
T4C0.0300
T5C0.0315
T6C0.0335
T7C0.0433
T8C0.0494
T9C0.0512
T10C0.0591
T11C0.0630
T12C0.0858
T13C0.0887
T14C0.1024
T15C0.1378
T16C0.1693
%
G90
G05
T1
X5.4866Y-2.9171
T2
X3.9683Y-2.7795
X3.9986Y-2.7065
X3.9986Y-2.8526
X4.0717Y-2.6762
X4.0717Y-2.8829
X4.1447Y-2.7065
X4.1447Y-2.8526
X4.175Y-2.7795
X3.9683Y-5.1417
X3.9986Y-5.0687
X3.9986Y-5.2148
X4.0717Y-5.0384
X4.0717Y-5.2451
X4.1447Y-5.0687
X4.1447Y-5.2148
X4.175Y-5.1417
T3
X0.936Y-7.4803
X0.9732Y-7.3905
X0.9732Y-7.5701
X1.063Y-7.3533
X1.063Y-7.6073
X1.1528Y-7.3905
X1.1528Y-7.5701
X1.19Y-7.4803
X0.936Y-6.3386
X0.9732Y-6.2488
X0.9732Y-6.4284
X1.063Y-6.2116
X1.063Y-6.4656
X1.1528Y-6.2488
X1.1528Y-6.4284
X1.19Y-6.3386
X7.0384Y-6.3386
X7.0756Y-6.2488
X7.0756Y-6.4284
X7.1654Y-6.2116
X7.1654Y-6.4656
X7.2551Y-6.2488
X7.2551Y-6.4284
X7.2923Y-6.3386
X7.0384Y-7.4803
X7.0756Y-7.3905
X7.0756Y-7.5701
X7.1654Y-7.3533
X7.1654Y-7.6073
X7.2551Y-7.3905
X7.2551Y-7.5701
X7.2923Y-7.4803
T4
X7.0729Y-0.8917
X7.0729Y-0.9917
X7.0729Y-1.0917
X7.0729Y-1.1917
X7.0729Y-1.7917
X7.0729Y-1.8917
X7.0729Y-1.9917
X7.0729Y-2.0917
X7.1729Y-1.2917
X7.1729Y-1.3917
X7.1729Y-1.4917
X7.1729Y-1.5917
X7.1729Y-1.6917
X4.4784Y-0.8909
X4.4784Y-0.9909
X4.4784Y-1.0909
X4.4784Y-1.1909
X4.4784Y-1.7909
X4.4784Y-1.8909
X4.4784Y-1.9909
X4.4784Y-2.0909
X4.5784Y-1.2909
X4.5784Y-1.3909
X4.5784Y-1.4909
X4.5784Y-1.5909
X4.5784Y-1.6909
X3.2973Y-5.9224
X3.2973Y-6.0224
X3.2973Y-6.1224
X3.2973Y-6.2224
X3.2973Y-6.8224
X3.2973Y-6.9224
X3.2973Y-7.0224
X3.2973Y-7.1224
X3.3973Y-6.3224
X3.3973Y-6.4224
X3.3973Y-6.5224
X3.3973Y-6.6224
X3.3973Y-6.7224
T5
X5.825Y-7.0525
X5.925Y-7.0525
X6.3625Y-7.0525
X6.4625Y-7.0525
X5.29Y-7.0525
X5.39Y-7.0525
T6
X5.8277Y-7.3449
X5.9261Y-7.3449
X6.365Y-7.345
X6.4634Y-7.345
X5.295Y-7.345
X5.3934Y-7.345
T7
X7.3825Y-2.385
X7.3825Y-2.785
X4.1675Y-5.4875
X4.5675Y-5.4875
X4.84Y-0.7625
X5.24Y-0.7625
T8
X2.261Y-2.3461
X2.5268Y-2.3461
X3.0461Y-3.1232
X3.0461Y-3.389
T9
X1.45Y-1.7
X1.65Y-1.4
X1.85Y-1.7
T10
X4.2197Y-5.73
X4.2197Y-6.3206
X4.2197Y-6.5174
X4.2197Y-6.7143
X4.515Y-5.73
X4.515Y-6.3206
X4.515Y-6.5174
X4.515Y-6.7143
X4.8947Y-1.05
X4.8947Y-1.6406
X4.8947Y-1.8374
X4.8947Y-2.0343
X5.19Y-1.05
X5.19Y-1.6406
X5.19Y-1.8374
X5.19Y-2.0343
X6.7847Y-2.79
X6.7847Y-3.3806
X6.7847Y-3.5774
X6.7847Y-3.7743
X7.08Y-2.79
X7.08Y-3.3806
X7.08Y-3.5774
X7.08Y-3.7743
T11
X3.8125Y-5.55
X3.8125Y-6.15
X6.5575Y-5.7322
X6.5575Y-5.87
X6.5625Y-4.6997
X6.5625Y-4.8375
X4.17Y-2.49
X4.77Y-2.49
X5.015Y-2.2825
X5.615Y-2.2825
X6.5575Y-5.2022
X6.5575Y-5.34
X0.7744Y-1.5875
X0.9122Y-1.5875
X1.05Y-1.5875
X2.6422Y-1.5825
X2.78Y-1.5825
X3.8075Y-6.385
X3.8075Y-6.985
X6.5025Y-3.7775
X6.5025Y-4.3775
X6.485Y-2.7825
X6.485Y-3.3825
T12
X7.1732Y-0.9417
X7.1732Y-1.1417
X7.1784Y-1.8417
X7.1784Y-2.0417
X4.5787Y-0.9409
X4.5787Y-1.1409
X4.5839Y-1.8409
X4.5839Y-2.0409
X3.3976Y-5.9724
X3.3976Y-6.1724
X3.4028Y-6.8724
X3.4028Y-7.0724
T13
X0.9028Y-5.3382
X1.1193Y-5.3382
X6.0382Y-4.5307
X6.0382Y-4.7472
T14
X1.65Y-0.9
T15
X4.0717Y-2.7795
X4.0717Y-5.1417
T16
X1.063Y-7.4803
X1.063Y-6.3386
X7.1654Y-6.3386
X7.1654Y-7.4803
T0
M30
