G04 #@! TF.GenerationSoftware,KiCad,Pcbnew,(5.0.2)-1*
G04 #@! TF.CreationDate,2020-02-07T11:46:54+01:00*
G04 #@! TF.ProjectId,HB-WW-UB V2,48422d57-572d-4554-9220-56322e6b6963,V1.0.0*
G04 #@! TF.SameCoordinates,Original*
G04 #@! TF.FileFunction,Soldermask,Top*
G04 #@! TF.FilePolarity,Negative*
%FSLAX46Y46*%
G04 Gerber Fmt 4.6, Leading zero omitted, Abs format (unit mm)*
G04 Created by KiCad (PCBNEW (5.0.2)-1) date 07.02.2020 11:46:54*
%MOMM*%
%LPD*%
G01*
G04 APERTURE LIST*
%ADD10C,0.100000*%
G04 APERTURE END LIST*
D10*
G36*
X182513468Y-185665894D02*
X183269140Y-185816206D01*
X184060972Y-186144193D01*
X184773601Y-186620357D01*
X185379643Y-187226399D01*
X185855807Y-187939028D01*
X186183794Y-188730860D01*
X186351000Y-189571464D01*
X186351000Y-190428536D01*
X186183794Y-191269140D01*
X185855807Y-192060972D01*
X185379643Y-192773601D01*
X184773601Y-193379643D01*
X184060972Y-193855807D01*
X183269140Y-194183794D01*
X182548156Y-194327206D01*
X182428537Y-194351000D01*
X181571463Y-194351000D01*
X181451844Y-194327206D01*
X180730860Y-194183794D01*
X179939028Y-193855807D01*
X179226399Y-193379643D01*
X178620357Y-192773601D01*
X178144193Y-192060972D01*
X177816206Y-191269140D01*
X177649000Y-190428536D01*
X177649000Y-189571464D01*
X177816206Y-188730860D01*
X178144193Y-187939028D01*
X178620357Y-187226399D01*
X179226399Y-186620357D01*
X179939028Y-186144193D01*
X180730860Y-185816206D01*
X181486532Y-185665894D01*
X181571463Y-185649000D01*
X182428537Y-185649000D01*
X182513468Y-185665894D01*
X182513468Y-185665894D01*
G37*
G36*
X27513468Y-185665894D02*
X28269140Y-185816206D01*
X29060972Y-186144193D01*
X29773601Y-186620357D01*
X30379643Y-187226399D01*
X30855807Y-187939028D01*
X31183794Y-188730860D01*
X31351000Y-189571464D01*
X31351000Y-190428536D01*
X31183794Y-191269140D01*
X30855807Y-192060972D01*
X30379643Y-192773601D01*
X29773601Y-193379643D01*
X29060972Y-193855807D01*
X28269140Y-194183794D01*
X27548156Y-194327206D01*
X27428537Y-194351000D01*
X26571463Y-194351000D01*
X26451844Y-194327206D01*
X25730860Y-194183794D01*
X24939028Y-193855807D01*
X24226399Y-193379643D01*
X23620357Y-192773601D01*
X23144193Y-192060972D01*
X22816206Y-191269140D01*
X22649000Y-190428536D01*
X22649000Y-189571464D01*
X22816206Y-188730860D01*
X23144193Y-187939028D01*
X23620357Y-187226399D01*
X24226399Y-186620357D01*
X24939028Y-186144193D01*
X25730860Y-185816206D01*
X26486532Y-185665894D01*
X26571463Y-185649000D01*
X27428537Y-185649000D01*
X27513468Y-185665894D01*
X27513468Y-185665894D01*
G37*
G36*
X164347626Y-185600037D02*
X164460852Y-185634384D01*
X164517466Y-185651557D01*
X164673989Y-185735221D01*
X164811186Y-185847814D01*
X164894448Y-185949271D01*
X164923778Y-185985009D01*
X164923779Y-185985011D01*
X165007443Y-186141533D01*
X165008250Y-186144193D01*
X165058963Y-186311373D01*
X165072000Y-186443742D01*
X165072000Y-186682257D01*
X165058963Y-186814626D01*
X165056015Y-186824344D01*
X165007443Y-186984466D01*
X164948698Y-187094369D01*
X164923778Y-187140991D01*
X164904770Y-187164152D01*
X164811186Y-187278186D01*
X164718688Y-187354096D01*
X164673991Y-187390778D01*
X164673989Y-187390779D01*
X164517467Y-187474443D01*
X164483327Y-187484799D01*
X164347627Y-187525963D01*
X164171000Y-187543359D01*
X163994374Y-187525963D01*
X163858674Y-187484799D01*
X163824534Y-187474443D01*
X163668012Y-187390779D01*
X163668010Y-187390778D01*
X163607827Y-187341387D01*
X163530814Y-187278185D01*
X163437230Y-187164152D01*
X163418222Y-187140991D01*
X163349441Y-187012312D01*
X163334557Y-186984467D01*
X163285985Y-186824344D01*
X163283037Y-186814627D01*
X163270000Y-186682258D01*
X163270000Y-186443743D01*
X163283037Y-186311374D01*
X163333750Y-186144194D01*
X163334557Y-186141534D01*
X163418221Y-185985011D01*
X163530814Y-185847814D01*
X163632271Y-185764552D01*
X163668009Y-185735222D01*
X163685913Y-185725652D01*
X163824533Y-185651557D01*
X163881147Y-185634384D01*
X163994373Y-185600037D01*
X164171000Y-185582641D01*
X164347626Y-185600037D01*
X164347626Y-185600037D01*
G37*
G36*
X137169626Y-185600037D02*
X137282852Y-185634384D01*
X137339466Y-185651557D01*
X137495989Y-185735221D01*
X137633186Y-185847814D01*
X137716448Y-185949271D01*
X137745778Y-185985009D01*
X137745779Y-185985011D01*
X137829443Y-186141533D01*
X137830250Y-186144193D01*
X137880963Y-186311373D01*
X137894000Y-186443742D01*
X137894000Y-186682257D01*
X137880963Y-186814626D01*
X137878015Y-186824344D01*
X137829443Y-186984466D01*
X137770698Y-187094369D01*
X137745778Y-187140991D01*
X137726770Y-187164152D01*
X137633186Y-187278186D01*
X137540688Y-187354096D01*
X137495991Y-187390778D01*
X137495989Y-187390779D01*
X137339467Y-187474443D01*
X137305327Y-187484799D01*
X137169627Y-187525963D01*
X136993000Y-187543359D01*
X136816374Y-187525963D01*
X136680674Y-187484799D01*
X136646534Y-187474443D01*
X136490012Y-187390779D01*
X136490010Y-187390778D01*
X136429827Y-187341387D01*
X136352814Y-187278185D01*
X136259230Y-187164152D01*
X136240222Y-187140991D01*
X136171441Y-187012312D01*
X136156557Y-186984467D01*
X136107985Y-186824344D01*
X136105037Y-186814627D01*
X136092000Y-186682258D01*
X136092000Y-186443743D01*
X136105037Y-186311374D01*
X136155750Y-186144194D01*
X136156557Y-186141534D01*
X136240221Y-185985011D01*
X136352814Y-185847814D01*
X136454271Y-185764552D01*
X136490009Y-185735222D01*
X136507913Y-185725652D01*
X136646533Y-185651557D01*
X136703147Y-185634384D01*
X136816373Y-185600037D01*
X136993000Y-185582641D01*
X137169626Y-185600037D01*
X137169626Y-185600037D01*
G37*
G36*
X150699626Y-185598037D02*
X150810470Y-185631661D01*
X150869466Y-185649557D01*
X151025989Y-185733221D01*
X151163186Y-185845814D01*
X151246448Y-185947271D01*
X151275778Y-185983009D01*
X151275779Y-185983011D01*
X151359443Y-186139533D01*
X151360857Y-186144194D01*
X151410963Y-186309373D01*
X151424000Y-186441742D01*
X151424000Y-186680257D01*
X151410963Y-186812626D01*
X151407408Y-186824344D01*
X151359443Y-186982466D01*
X151299629Y-187094369D01*
X151275778Y-187138991D01*
X151255129Y-187164152D01*
X151163186Y-187276186D01*
X151068251Y-187354096D01*
X151025991Y-187388778D01*
X151025989Y-187388779D01*
X150869467Y-187472443D01*
X150837074Y-187482269D01*
X150699627Y-187523963D01*
X150523000Y-187541359D01*
X150346374Y-187523963D01*
X150208927Y-187482269D01*
X150176534Y-187472443D01*
X150020012Y-187388779D01*
X150020010Y-187388778D01*
X149959827Y-187339387D01*
X149882814Y-187276185D01*
X149814217Y-187192599D01*
X149770222Y-187138991D01*
X149702510Y-187012312D01*
X149686557Y-186982467D01*
X149667953Y-186921136D01*
X149635037Y-186812627D01*
X149622000Y-186680258D01*
X149622000Y-186441743D01*
X149635037Y-186309374D01*
X149669384Y-186196148D01*
X149686557Y-186139534D01*
X149770221Y-185983011D01*
X149882814Y-185845814D01*
X149984271Y-185762552D01*
X150020009Y-185733222D01*
X150073231Y-185704774D01*
X150176533Y-185649557D01*
X150235529Y-185631661D01*
X150346373Y-185598037D01*
X150523000Y-185580641D01*
X150699626Y-185598037D01*
X150699626Y-185598037D01*
G37*
G36*
X162429600Y-185590989D02*
X162462649Y-185601014D01*
X162493106Y-185617294D01*
X162519799Y-185639201D01*
X162541706Y-185665894D01*
X162557986Y-185696351D01*
X162568011Y-185729400D01*
X162572000Y-185769904D01*
X162572000Y-187356096D01*
X162568011Y-187396600D01*
X162557986Y-187429649D01*
X162541706Y-187460106D01*
X162519799Y-187486799D01*
X162493106Y-187508706D01*
X162462649Y-187524986D01*
X162429600Y-187535011D01*
X162389096Y-187539000D01*
X160952904Y-187539000D01*
X160912400Y-187535011D01*
X160879351Y-187524986D01*
X160848894Y-187508706D01*
X160822201Y-187486799D01*
X160800294Y-187460106D01*
X160784014Y-187429649D01*
X160773989Y-187396600D01*
X160770000Y-187356096D01*
X160770000Y-185769904D01*
X160773989Y-185729400D01*
X160784014Y-185696351D01*
X160800294Y-185665894D01*
X160822201Y-185639201D01*
X160848894Y-185617294D01*
X160879351Y-185601014D01*
X160912400Y-185590989D01*
X160952904Y-185587000D01*
X162389096Y-185587000D01*
X162429600Y-185590989D01*
X162429600Y-185590989D01*
G37*
G36*
X135251600Y-185590989D02*
X135284649Y-185601014D01*
X135315106Y-185617294D01*
X135341799Y-185639201D01*
X135363706Y-185665894D01*
X135379986Y-185696351D01*
X135390011Y-185729400D01*
X135394000Y-185769904D01*
X135394000Y-187356096D01*
X135390011Y-187396600D01*
X135379986Y-187429649D01*
X135363706Y-187460106D01*
X135341799Y-187486799D01*
X135315106Y-187508706D01*
X135284649Y-187524986D01*
X135251600Y-187535011D01*
X135211096Y-187539000D01*
X133774904Y-187539000D01*
X133734400Y-187535011D01*
X133701351Y-187524986D01*
X133670894Y-187508706D01*
X133644201Y-187486799D01*
X133622294Y-187460106D01*
X133606014Y-187429649D01*
X133595989Y-187396600D01*
X133592000Y-187356096D01*
X133592000Y-185769904D01*
X133595989Y-185729400D01*
X133606014Y-185696351D01*
X133622294Y-185665894D01*
X133644201Y-185639201D01*
X133670894Y-185617294D01*
X133701351Y-185601014D01*
X133734400Y-185590989D01*
X133774904Y-185587000D01*
X135211096Y-185587000D01*
X135251600Y-185590989D01*
X135251600Y-185590989D01*
G37*
G36*
X148781600Y-185588989D02*
X148814649Y-185599014D01*
X148845106Y-185615294D01*
X148871799Y-185637201D01*
X148893706Y-185663894D01*
X148909986Y-185694351D01*
X148920011Y-185727400D01*
X148924000Y-185767904D01*
X148924000Y-187354096D01*
X148920011Y-187394600D01*
X148909986Y-187427649D01*
X148893706Y-187458106D01*
X148871799Y-187484799D01*
X148845106Y-187506706D01*
X148814649Y-187522986D01*
X148781600Y-187533011D01*
X148741096Y-187537000D01*
X147304904Y-187537000D01*
X147264400Y-187533011D01*
X147231351Y-187522986D01*
X147200894Y-187506706D01*
X147174201Y-187484799D01*
X147152294Y-187458106D01*
X147136014Y-187427649D01*
X147125989Y-187394600D01*
X147122000Y-187354096D01*
X147122000Y-185767904D01*
X147125989Y-185727400D01*
X147136014Y-185694351D01*
X147152294Y-185663894D01*
X147174201Y-185637201D01*
X147200894Y-185615294D01*
X147231351Y-185599014D01*
X147264400Y-185588989D01*
X147304904Y-185585000D01*
X148741096Y-185585000D01*
X148781600Y-185588989D01*
X148781600Y-185588989D01*
G37*
G36*
X83988142Y-180128242D02*
X84136102Y-180189530D01*
X84269258Y-180278502D01*
X84382498Y-180391742D01*
X84471470Y-180524898D01*
X84532758Y-180672858D01*
X84564000Y-180829925D01*
X84564000Y-180990075D01*
X84532758Y-181147142D01*
X84471470Y-181295102D01*
X84382498Y-181428258D01*
X84269258Y-181541498D01*
X84136102Y-181630470D01*
X83988142Y-181691758D01*
X83831075Y-181723000D01*
X83670925Y-181723000D01*
X83513858Y-181691758D01*
X83365898Y-181630470D01*
X83232742Y-181541498D01*
X83119502Y-181428258D01*
X83030530Y-181295102D01*
X82969242Y-181147142D01*
X82938000Y-180990075D01*
X82938000Y-180829925D01*
X82969242Y-180672858D01*
X83030530Y-180524898D01*
X83119502Y-180391742D01*
X83232742Y-180278502D01*
X83365898Y-180189530D01*
X83513858Y-180128242D01*
X83670925Y-180097000D01*
X83831075Y-180097000D01*
X83988142Y-180128242D01*
X83988142Y-180128242D01*
G37*
G36*
X86728755Y-177972040D02*
X86925122Y-178011099D01*
X87233410Y-178138796D01*
X87510862Y-178324184D01*
X87746816Y-178560138D01*
X87932204Y-178837590D01*
X88059901Y-179145878D01*
X88098960Y-179342245D01*
X88125000Y-179473154D01*
X88125000Y-179806846D01*
X88098960Y-179937755D01*
X88059901Y-180134122D01*
X87932204Y-180442410D01*
X87746816Y-180719862D01*
X87510862Y-180955816D01*
X87233410Y-181141204D01*
X86925122Y-181268901D01*
X86728755Y-181307960D01*
X86597846Y-181334000D01*
X86264154Y-181334000D01*
X86133245Y-181307960D01*
X85936878Y-181268901D01*
X85628590Y-181141204D01*
X85351138Y-180955816D01*
X85115184Y-180719862D01*
X84929796Y-180442410D01*
X84802099Y-180134122D01*
X84763040Y-179937755D01*
X84737000Y-179806846D01*
X84737000Y-179473154D01*
X84763040Y-179342245D01*
X84802099Y-179145878D01*
X84929796Y-178837590D01*
X85115184Y-178560138D01*
X85351138Y-178324184D01*
X85628590Y-178138796D01*
X85936878Y-178011099D01*
X86133245Y-177972040D01*
X86264154Y-177946000D01*
X86597846Y-177946000D01*
X86728755Y-177972040D01*
X86728755Y-177972040D01*
G37*
G36*
X164314821Y-178295313D02*
X164314824Y-178295314D01*
X164314825Y-178295314D01*
X164475239Y-178343975D01*
X164475241Y-178343976D01*
X164475244Y-178343977D01*
X164623078Y-178422995D01*
X164752659Y-178529341D01*
X164859005Y-178658922D01*
X164938023Y-178806756D01*
X164938024Y-178806759D01*
X164938025Y-178806761D01*
X164986686Y-178967175D01*
X164986687Y-178967179D01*
X165003117Y-179134000D01*
X164986687Y-179300821D01*
X164986686Y-179300824D01*
X164986686Y-179300825D01*
X164961993Y-179382228D01*
X164938023Y-179461244D01*
X164859005Y-179609078D01*
X164752659Y-179738659D01*
X164623078Y-179845005D01*
X164475244Y-179924023D01*
X164475241Y-179924024D01*
X164475239Y-179924025D01*
X164314825Y-179972686D01*
X164314824Y-179972686D01*
X164314821Y-179972687D01*
X164189804Y-179985000D01*
X164106196Y-179985000D01*
X163981179Y-179972687D01*
X163981176Y-179972686D01*
X163981175Y-179972686D01*
X163820761Y-179924025D01*
X163820759Y-179924024D01*
X163820756Y-179924023D01*
X163672922Y-179845005D01*
X163543341Y-179738659D01*
X163436995Y-179609078D01*
X163357977Y-179461244D01*
X163334008Y-179382228D01*
X163309314Y-179300825D01*
X163309314Y-179300824D01*
X163309313Y-179300821D01*
X163292883Y-179134000D01*
X163309313Y-178967179D01*
X163309314Y-178967175D01*
X163357975Y-178806761D01*
X163357976Y-178806759D01*
X163357977Y-178806756D01*
X163436995Y-178658922D01*
X163543341Y-178529341D01*
X163672922Y-178422995D01*
X163820756Y-178343977D01*
X163820759Y-178343976D01*
X163820761Y-178343975D01*
X163981175Y-178295314D01*
X163981176Y-178295314D01*
X163981179Y-178295313D01*
X164106196Y-178283000D01*
X164189804Y-178283000D01*
X164314821Y-178295313D01*
X164314821Y-178295313D01*
G37*
G36*
X134614228Y-178315703D02*
X134769100Y-178379853D01*
X134908481Y-178472985D01*
X135027015Y-178591519D01*
X135120147Y-178730900D01*
X135184297Y-178885772D01*
X135217000Y-179050184D01*
X135217000Y-179217816D01*
X135184297Y-179382228D01*
X135120147Y-179537100D01*
X135027015Y-179676481D01*
X134908481Y-179795015D01*
X134769100Y-179888147D01*
X134614228Y-179952297D01*
X134449816Y-179985000D01*
X134282184Y-179985000D01*
X134117772Y-179952297D01*
X133962900Y-179888147D01*
X133823519Y-179795015D01*
X133704985Y-179676481D01*
X133611853Y-179537100D01*
X133547703Y-179382228D01*
X133515000Y-179217816D01*
X133515000Y-179050184D01*
X133547703Y-178885772D01*
X133611853Y-178730900D01*
X133704985Y-178591519D01*
X133823519Y-178472985D01*
X133962900Y-178379853D01*
X134117772Y-178315703D01*
X134282184Y-178283000D01*
X134449816Y-178283000D01*
X134614228Y-178315703D01*
X134614228Y-178315703D01*
G37*
G36*
X137072821Y-178295313D02*
X137072824Y-178295314D01*
X137072825Y-178295314D01*
X137233239Y-178343975D01*
X137233241Y-178343976D01*
X137233244Y-178343977D01*
X137381078Y-178422995D01*
X137510659Y-178529341D01*
X137617005Y-178658922D01*
X137696023Y-178806756D01*
X137696024Y-178806759D01*
X137696025Y-178806761D01*
X137744686Y-178967175D01*
X137744687Y-178967179D01*
X137761117Y-179134000D01*
X137744687Y-179300821D01*
X137744686Y-179300824D01*
X137744686Y-179300825D01*
X137719993Y-179382228D01*
X137696023Y-179461244D01*
X137617005Y-179609078D01*
X137510659Y-179738659D01*
X137381078Y-179845005D01*
X137233244Y-179924023D01*
X137233241Y-179924024D01*
X137233239Y-179924025D01*
X137072825Y-179972686D01*
X137072824Y-179972686D01*
X137072821Y-179972687D01*
X136947804Y-179985000D01*
X136864196Y-179985000D01*
X136739179Y-179972687D01*
X136739176Y-179972686D01*
X136739175Y-179972686D01*
X136578761Y-179924025D01*
X136578759Y-179924024D01*
X136578756Y-179924023D01*
X136430922Y-179845005D01*
X136301341Y-179738659D01*
X136194995Y-179609078D01*
X136115977Y-179461244D01*
X136092008Y-179382228D01*
X136067314Y-179300825D01*
X136067314Y-179300824D01*
X136067313Y-179300821D01*
X136050883Y-179134000D01*
X136067313Y-178967179D01*
X136067314Y-178967175D01*
X136115975Y-178806761D01*
X136115976Y-178806759D01*
X136115977Y-178806756D01*
X136194995Y-178658922D01*
X136301341Y-178529341D01*
X136430922Y-178422995D01*
X136578756Y-178343977D01*
X136578759Y-178343976D01*
X136578761Y-178343975D01*
X136739175Y-178295314D01*
X136739176Y-178295314D01*
X136739179Y-178295313D01*
X136864196Y-178283000D01*
X136947804Y-178283000D01*
X137072821Y-178295313D01*
X137072821Y-178295313D01*
G37*
G36*
X148203228Y-178315703D02*
X148358100Y-178379853D01*
X148497481Y-178472985D01*
X148616015Y-178591519D01*
X148709147Y-178730900D01*
X148773297Y-178885772D01*
X148806000Y-179050184D01*
X148806000Y-179217816D01*
X148773297Y-179382228D01*
X148709147Y-179537100D01*
X148616015Y-179676481D01*
X148497481Y-179795015D01*
X148358100Y-179888147D01*
X148203228Y-179952297D01*
X148038816Y-179985000D01*
X147871184Y-179985000D01*
X147706772Y-179952297D01*
X147551900Y-179888147D01*
X147412519Y-179795015D01*
X147293985Y-179676481D01*
X147200853Y-179537100D01*
X147136703Y-179382228D01*
X147104000Y-179217816D01*
X147104000Y-179050184D01*
X147136703Y-178885772D01*
X147200853Y-178730900D01*
X147293985Y-178591519D01*
X147412519Y-178472985D01*
X147551900Y-178379853D01*
X147706772Y-178315703D01*
X147871184Y-178283000D01*
X148038816Y-178283000D01*
X148203228Y-178315703D01*
X148203228Y-178315703D01*
G37*
G36*
X150661821Y-178295313D02*
X150661824Y-178295314D01*
X150661825Y-178295314D01*
X150822239Y-178343975D01*
X150822241Y-178343976D01*
X150822244Y-178343977D01*
X150970078Y-178422995D01*
X151099659Y-178529341D01*
X151206005Y-178658922D01*
X151285023Y-178806756D01*
X151285024Y-178806759D01*
X151285025Y-178806761D01*
X151333686Y-178967175D01*
X151333687Y-178967179D01*
X151350117Y-179134000D01*
X151333687Y-179300821D01*
X151333686Y-179300824D01*
X151333686Y-179300825D01*
X151308993Y-179382228D01*
X151285023Y-179461244D01*
X151206005Y-179609078D01*
X151099659Y-179738659D01*
X150970078Y-179845005D01*
X150822244Y-179924023D01*
X150822241Y-179924024D01*
X150822239Y-179924025D01*
X150661825Y-179972686D01*
X150661824Y-179972686D01*
X150661821Y-179972687D01*
X150536804Y-179985000D01*
X150453196Y-179985000D01*
X150328179Y-179972687D01*
X150328176Y-179972686D01*
X150328175Y-179972686D01*
X150167761Y-179924025D01*
X150167759Y-179924024D01*
X150167756Y-179924023D01*
X150019922Y-179845005D01*
X149890341Y-179738659D01*
X149783995Y-179609078D01*
X149704977Y-179461244D01*
X149681008Y-179382228D01*
X149656314Y-179300825D01*
X149656314Y-179300824D01*
X149656313Y-179300821D01*
X149639883Y-179134000D01*
X149656313Y-178967179D01*
X149656314Y-178967175D01*
X149704975Y-178806761D01*
X149704976Y-178806759D01*
X149704977Y-178806756D01*
X149783995Y-178658922D01*
X149890341Y-178529341D01*
X150019922Y-178422995D01*
X150167756Y-178343977D01*
X150167759Y-178343976D01*
X150167761Y-178343975D01*
X150328175Y-178295314D01*
X150328176Y-178295314D01*
X150328179Y-178295313D01*
X150453196Y-178283000D01*
X150536804Y-178283000D01*
X150661821Y-178295313D01*
X150661821Y-178295313D01*
G37*
G36*
X161856228Y-178315703D02*
X162011100Y-178379853D01*
X162150481Y-178472985D01*
X162269015Y-178591519D01*
X162362147Y-178730900D01*
X162426297Y-178885772D01*
X162459000Y-179050184D01*
X162459000Y-179217816D01*
X162426297Y-179382228D01*
X162362147Y-179537100D01*
X162269015Y-179676481D01*
X162150481Y-179795015D01*
X162011100Y-179888147D01*
X161856228Y-179952297D01*
X161691816Y-179985000D01*
X161524184Y-179985000D01*
X161359772Y-179952297D01*
X161204900Y-179888147D01*
X161065519Y-179795015D01*
X160946985Y-179676481D01*
X160853853Y-179537100D01*
X160789703Y-179382228D01*
X160757000Y-179217816D01*
X160757000Y-179050184D01*
X160789703Y-178885772D01*
X160853853Y-178730900D01*
X160946985Y-178591519D01*
X161065519Y-178472985D01*
X161204900Y-178379853D01*
X161359772Y-178315703D01*
X161524184Y-178283000D01*
X161691816Y-178283000D01*
X161856228Y-178315703D01*
X161856228Y-178315703D01*
G37*
G36*
X83988142Y-177588242D02*
X84136102Y-177649530D01*
X84269258Y-177738502D01*
X84382498Y-177851742D01*
X84471470Y-177984898D01*
X84532758Y-178132858D01*
X84564000Y-178289925D01*
X84564000Y-178450075D01*
X84532758Y-178607142D01*
X84471470Y-178755102D01*
X84382498Y-178888258D01*
X84269258Y-179001498D01*
X84136102Y-179090470D01*
X83988142Y-179151758D01*
X83831075Y-179183000D01*
X83670925Y-179183000D01*
X83513858Y-179151758D01*
X83365898Y-179090470D01*
X83232742Y-179001498D01*
X83119502Y-178888258D01*
X83030530Y-178755102D01*
X82969242Y-178607142D01*
X82938000Y-178450075D01*
X82938000Y-178289925D01*
X82969242Y-178132858D01*
X83030530Y-177984898D01*
X83119502Y-177851742D01*
X83232742Y-177738502D01*
X83365898Y-177649530D01*
X83513858Y-177588242D01*
X83670925Y-177557000D01*
X83831075Y-177557000D01*
X83988142Y-177588242D01*
X83988142Y-177588242D01*
G37*
G36*
X97034154Y-175791888D02*
X97345365Y-175886294D01*
X97632186Y-176039603D01*
X97883582Y-176245918D01*
X98089897Y-176497314D01*
X98243206Y-176784135D01*
X98337612Y-177095346D01*
X98369488Y-177419000D01*
X98337612Y-177742654D01*
X98243206Y-178053865D01*
X98089897Y-178340686D01*
X97883582Y-178592082D01*
X97632186Y-178798397D01*
X97345365Y-178951706D01*
X97034154Y-179046112D01*
X96791607Y-179070000D01*
X96629393Y-179070000D01*
X96386846Y-179046112D01*
X96075635Y-178951706D01*
X95788814Y-178798397D01*
X95537418Y-178592082D01*
X95331103Y-178340686D01*
X95177794Y-178053865D01*
X95083388Y-177742654D01*
X95051512Y-177419000D01*
X95083388Y-177095346D01*
X95177794Y-176784135D01*
X95331103Y-176497314D01*
X95537418Y-176245918D01*
X95788814Y-176039603D01*
X96075635Y-175886294D01*
X96386846Y-175791888D01*
X96629393Y-175768000D01*
X96791607Y-175768000D01*
X97034154Y-175791888D01*
X97034154Y-175791888D01*
G37*
G36*
X83988142Y-175048242D02*
X84136102Y-175109530D01*
X84269258Y-175198502D01*
X84382498Y-175311742D01*
X84471470Y-175444898D01*
X84532758Y-175592858D01*
X84564000Y-175749925D01*
X84564000Y-175910075D01*
X84532758Y-176067142D01*
X84471470Y-176215102D01*
X84382498Y-176348258D01*
X84269258Y-176461498D01*
X84136102Y-176550470D01*
X83988142Y-176611758D01*
X83831075Y-176643000D01*
X83670925Y-176643000D01*
X83513858Y-176611758D01*
X83365898Y-176550470D01*
X83232742Y-176461498D01*
X83119502Y-176348258D01*
X83030530Y-176215102D01*
X82969242Y-176067142D01*
X82938000Y-175910075D01*
X82938000Y-175749925D01*
X82969242Y-175592858D01*
X83030530Y-175444898D01*
X83119502Y-175311742D01*
X83232742Y-175198502D01*
X83365898Y-175109530D01*
X83513858Y-175048242D01*
X83670925Y-175017000D01*
X83831075Y-175017000D01*
X83988142Y-175048242D01*
X83988142Y-175048242D01*
G37*
G36*
X86728755Y-172892040D02*
X86925122Y-172931099D01*
X87233410Y-173058796D01*
X87510862Y-173244184D01*
X87746816Y-173480138D01*
X87932204Y-173757590D01*
X88059901Y-174065878D01*
X88125000Y-174393156D01*
X88125000Y-174726844D01*
X88059901Y-175054122D01*
X87932204Y-175362410D01*
X87746816Y-175639862D01*
X87510862Y-175875816D01*
X87233410Y-176061204D01*
X86925122Y-176188901D01*
X86728755Y-176227960D01*
X86597846Y-176254000D01*
X86264154Y-176254000D01*
X86133245Y-176227960D01*
X85936878Y-176188901D01*
X85628590Y-176061204D01*
X85351138Y-175875816D01*
X85115184Y-175639862D01*
X84929796Y-175362410D01*
X84802099Y-175054122D01*
X84737000Y-174726844D01*
X84737000Y-174393156D01*
X84802099Y-174065878D01*
X84929796Y-173757590D01*
X85115184Y-173480138D01*
X85351138Y-173244184D01*
X85628590Y-173058796D01*
X85936878Y-172931099D01*
X86133245Y-172892040D01*
X86264154Y-172866000D01*
X86597846Y-172866000D01*
X86728755Y-172892040D01*
X86728755Y-172892040D01*
G37*
G36*
X83988142Y-172508242D02*
X84136102Y-172569530D01*
X84269258Y-172658502D01*
X84382498Y-172771742D01*
X84471470Y-172904898D01*
X84532758Y-173052858D01*
X84564000Y-173209925D01*
X84564000Y-173370075D01*
X84532758Y-173527142D01*
X84471470Y-173675102D01*
X84382498Y-173808258D01*
X84269258Y-173921498D01*
X84136102Y-174010470D01*
X83988142Y-174071758D01*
X83831075Y-174103000D01*
X83670925Y-174103000D01*
X83513858Y-174071758D01*
X83365898Y-174010470D01*
X83232742Y-173921498D01*
X83119502Y-173808258D01*
X83030530Y-173675102D01*
X82969242Y-173527142D01*
X82938000Y-173370075D01*
X82938000Y-173209925D01*
X82969242Y-173052858D01*
X83030530Y-172904898D01*
X83119502Y-172771742D01*
X83232742Y-172658502D01*
X83365898Y-172569530D01*
X83513858Y-172508242D01*
X83670925Y-172477000D01*
X83831075Y-172477000D01*
X83988142Y-172508242D01*
X83988142Y-172508242D01*
G37*
G36*
X107494635Y-169023000D02*
X107633410Y-169050604D01*
X107915674Y-169167521D01*
X108169705Y-169337259D01*
X108385741Y-169553295D01*
X108555479Y-169807326D01*
X108647518Y-170029529D01*
X108672396Y-170089591D01*
X108732000Y-170389238D01*
X108732000Y-170694762D01*
X108705084Y-170830075D01*
X108672396Y-170994410D01*
X108555479Y-171276674D01*
X108385741Y-171530705D01*
X108169705Y-171746741D01*
X107915674Y-171916479D01*
X107633410Y-172033396D01*
X107533527Y-172053264D01*
X107333762Y-172093000D01*
X107028238Y-172093000D01*
X106828473Y-172053264D01*
X106728590Y-172033396D01*
X106446326Y-171916479D01*
X106192295Y-171746741D01*
X105976259Y-171530705D01*
X105806521Y-171276674D01*
X105689604Y-170994410D01*
X105656916Y-170830075D01*
X105630000Y-170694762D01*
X105630000Y-170389238D01*
X105689604Y-170089591D01*
X105714482Y-170029529D01*
X105806521Y-169807326D01*
X105976259Y-169553295D01*
X106192295Y-169337259D01*
X106446326Y-169167521D01*
X106728590Y-169050604D01*
X106867365Y-169023000D01*
X107028238Y-168991000D01*
X107333762Y-168991000D01*
X107494635Y-169023000D01*
X107494635Y-169023000D01*
G37*
G36*
X114994635Y-169023000D02*
X115133410Y-169050604D01*
X115415674Y-169167521D01*
X115669705Y-169337259D01*
X115885741Y-169553295D01*
X116055479Y-169807326D01*
X116147518Y-170029529D01*
X116172396Y-170089591D01*
X116232000Y-170389238D01*
X116232000Y-170694762D01*
X116205084Y-170830075D01*
X116172396Y-170994410D01*
X116055479Y-171276674D01*
X115885741Y-171530705D01*
X115669705Y-171746741D01*
X115415674Y-171916479D01*
X115133410Y-172033396D01*
X115033527Y-172053264D01*
X114833762Y-172093000D01*
X114528238Y-172093000D01*
X114328473Y-172053264D01*
X114228590Y-172033396D01*
X113946326Y-171916479D01*
X113692295Y-171746741D01*
X113476259Y-171530705D01*
X113306521Y-171276674D01*
X113189604Y-170994410D01*
X113156916Y-170830075D01*
X113130000Y-170694762D01*
X113130000Y-170389238D01*
X113189604Y-170089591D01*
X113214482Y-170029529D01*
X113306521Y-169807326D01*
X113476259Y-169553295D01*
X113692295Y-169337259D01*
X113946326Y-169167521D01*
X114228590Y-169050604D01*
X114367365Y-169023000D01*
X114528238Y-168991000D01*
X114833762Y-168991000D01*
X114994635Y-169023000D01*
X114994635Y-169023000D01*
G37*
G36*
X86528142Y-169968242D02*
X86676102Y-170029530D01*
X86809258Y-170118502D01*
X86922498Y-170231742D01*
X87011470Y-170364898D01*
X87072758Y-170512858D01*
X87104000Y-170669925D01*
X87104000Y-170830075D01*
X87072758Y-170987142D01*
X87011470Y-171135102D01*
X86922498Y-171268258D01*
X86809258Y-171381498D01*
X86676102Y-171470470D01*
X86528142Y-171531758D01*
X86371075Y-171563000D01*
X86210925Y-171563000D01*
X86053858Y-171531758D01*
X85905898Y-171470470D01*
X85772742Y-171381498D01*
X85659502Y-171268258D01*
X85570530Y-171135102D01*
X85509242Y-170987142D01*
X85478000Y-170830075D01*
X85478000Y-170669925D01*
X85509242Y-170512858D01*
X85570530Y-170364898D01*
X85659502Y-170231742D01*
X85772742Y-170118502D01*
X85905898Y-170029530D01*
X86053858Y-169968242D01*
X86210925Y-169937000D01*
X86371075Y-169937000D01*
X86528142Y-169968242D01*
X86528142Y-169968242D01*
G37*
G36*
X86528142Y-167428242D02*
X86676102Y-167489530D01*
X86809258Y-167578502D01*
X86922498Y-167691742D01*
X87011470Y-167824898D01*
X87072758Y-167972858D01*
X87104000Y-168129925D01*
X87104000Y-168290075D01*
X87072758Y-168447142D01*
X87011470Y-168595102D01*
X86922498Y-168728258D01*
X86809258Y-168841498D01*
X86676102Y-168930470D01*
X86528142Y-168991758D01*
X86371075Y-169023000D01*
X86210925Y-169023000D01*
X86053858Y-168991758D01*
X85905898Y-168930470D01*
X85772742Y-168841498D01*
X85659502Y-168728258D01*
X85570530Y-168595102D01*
X85509242Y-168447142D01*
X85478000Y-168290075D01*
X85478000Y-168129925D01*
X85509242Y-167972858D01*
X85570530Y-167824898D01*
X85659502Y-167691742D01*
X85772742Y-167578502D01*
X85905898Y-167489530D01*
X86053858Y-167428242D01*
X86210925Y-167397000D01*
X86371075Y-167397000D01*
X86528142Y-167428242D01*
X86528142Y-167428242D01*
G37*
G36*
X115033527Y-164030736D02*
X115133410Y-164050604D01*
X115415674Y-164167521D01*
X115669705Y-164337259D01*
X115885741Y-164553295D01*
X116055479Y-164807326D01*
X116172396Y-165089590D01*
X116172396Y-165089591D01*
X116232000Y-165389238D01*
X116232000Y-165694762D01*
X116220997Y-165750075D01*
X116172396Y-165994410D01*
X116055479Y-166276674D01*
X115885741Y-166530705D01*
X115669705Y-166746741D01*
X115415674Y-166916479D01*
X115133410Y-167033396D01*
X115033527Y-167053264D01*
X114833762Y-167093000D01*
X114528238Y-167093000D01*
X114328473Y-167053264D01*
X114228590Y-167033396D01*
X113946326Y-166916479D01*
X113692295Y-166746741D01*
X113476259Y-166530705D01*
X113306521Y-166276674D01*
X113189604Y-165994410D01*
X113141003Y-165750075D01*
X113130000Y-165694762D01*
X113130000Y-165389238D01*
X113189604Y-165089591D01*
X113189604Y-165089590D01*
X113306521Y-164807326D01*
X113476259Y-164553295D01*
X113692295Y-164337259D01*
X113946326Y-164167521D01*
X114228590Y-164050604D01*
X114328473Y-164030736D01*
X114528238Y-163991000D01*
X114833762Y-163991000D01*
X115033527Y-164030736D01*
X115033527Y-164030736D01*
G37*
G36*
X107533527Y-164030736D02*
X107633410Y-164050604D01*
X107915674Y-164167521D01*
X108169705Y-164337259D01*
X108385741Y-164553295D01*
X108555479Y-164807326D01*
X108672396Y-165089590D01*
X108672396Y-165089591D01*
X108732000Y-165389238D01*
X108732000Y-165694762D01*
X108720997Y-165750075D01*
X108672396Y-165994410D01*
X108555479Y-166276674D01*
X108385741Y-166530705D01*
X108169705Y-166746741D01*
X107915674Y-166916479D01*
X107633410Y-167033396D01*
X107533527Y-167053264D01*
X107333762Y-167093000D01*
X107028238Y-167093000D01*
X106828473Y-167053264D01*
X106728590Y-167033396D01*
X106446326Y-166916479D01*
X106192295Y-166746741D01*
X105976259Y-166530705D01*
X105806521Y-166276674D01*
X105689604Y-165994410D01*
X105641003Y-165750075D01*
X105630000Y-165694762D01*
X105630000Y-165389238D01*
X105689604Y-165089591D01*
X105689604Y-165089590D01*
X105806521Y-164807326D01*
X105976259Y-164553295D01*
X106192295Y-164337259D01*
X106446326Y-164167521D01*
X106728590Y-164050604D01*
X106828473Y-164030736D01*
X107028238Y-163991000D01*
X107333762Y-163991000D01*
X107533527Y-164030736D01*
X107533527Y-164030736D01*
G37*
G36*
X86528142Y-164888242D02*
X86676102Y-164949530D01*
X86743130Y-164994317D01*
X86809257Y-165038501D01*
X86922499Y-165151743D01*
X86966683Y-165217870D01*
X87011470Y-165284898D01*
X87072758Y-165432858D01*
X87104000Y-165589925D01*
X87104000Y-165750075D01*
X87072758Y-165907142D01*
X87011470Y-166055102D01*
X86922498Y-166188258D01*
X86809258Y-166301498D01*
X86676102Y-166390470D01*
X86528142Y-166451758D01*
X86371075Y-166483000D01*
X86210925Y-166483000D01*
X86053858Y-166451758D01*
X85905898Y-166390470D01*
X85772742Y-166301498D01*
X85659502Y-166188258D01*
X85570530Y-166055102D01*
X85509242Y-165907142D01*
X85478000Y-165750075D01*
X85478000Y-165589925D01*
X85509242Y-165432858D01*
X85570530Y-165284898D01*
X85615317Y-165217870D01*
X85659501Y-165151743D01*
X85772743Y-165038501D01*
X85838870Y-164994317D01*
X85905898Y-164949530D01*
X86053858Y-164888242D01*
X86210925Y-164857000D01*
X86371075Y-164857000D01*
X86528142Y-164888242D01*
X86528142Y-164888242D01*
G37*
G36*
X27548156Y-156672794D02*
X28269140Y-156816206D01*
X29060972Y-157144193D01*
X29773601Y-157620357D01*
X30379643Y-158226399D01*
X30855807Y-158939028D01*
X31183794Y-159730860D01*
X31351000Y-160571464D01*
X31351000Y-161428536D01*
X31183794Y-162269140D01*
X30855807Y-163060972D01*
X30379643Y-163773601D01*
X29773601Y-164379643D01*
X29060972Y-164855807D01*
X28269140Y-165183794D01*
X27548156Y-165327206D01*
X27428537Y-165351000D01*
X26571463Y-165351000D01*
X26451844Y-165327206D01*
X25730860Y-165183794D01*
X24939028Y-164855807D01*
X24226399Y-164379643D01*
X23620357Y-163773601D01*
X23144193Y-163060972D01*
X22816206Y-162269140D01*
X22649000Y-161428536D01*
X22649000Y-160571464D01*
X22816206Y-159730860D01*
X23144193Y-158939028D01*
X23620357Y-158226399D01*
X24226399Y-157620357D01*
X24939028Y-157144193D01*
X25730860Y-156816206D01*
X26451844Y-156672794D01*
X26571463Y-156649000D01*
X27428537Y-156649000D01*
X27548156Y-156672794D01*
X27548156Y-156672794D01*
G37*
G36*
X182548156Y-156672794D02*
X183269140Y-156816206D01*
X184060972Y-157144193D01*
X184773601Y-157620357D01*
X185379643Y-158226399D01*
X185855807Y-158939028D01*
X186183794Y-159730860D01*
X186351000Y-160571464D01*
X186351000Y-161428536D01*
X186183794Y-162269140D01*
X185855807Y-163060972D01*
X185379643Y-163773601D01*
X184773601Y-164379643D01*
X184060972Y-164855807D01*
X183269140Y-165183794D01*
X182548156Y-165327206D01*
X182428537Y-165351000D01*
X181571463Y-165351000D01*
X181451844Y-165327206D01*
X180730860Y-165183794D01*
X179939028Y-164855807D01*
X179226399Y-164379643D01*
X178620357Y-163773601D01*
X178144193Y-163060972D01*
X177816206Y-162269140D01*
X177649000Y-161428536D01*
X177649000Y-160571464D01*
X177816206Y-159730860D01*
X178144193Y-158939028D01*
X178620357Y-158226399D01*
X179226399Y-157620357D01*
X179939028Y-157144193D01*
X180730860Y-156816206D01*
X181451844Y-156672794D01*
X181571463Y-156649000D01*
X182428537Y-156649000D01*
X182548156Y-156672794D01*
X182548156Y-156672794D01*
G37*
G36*
X86528142Y-162348242D02*
X86676102Y-162409530D01*
X86809258Y-162498502D01*
X86922498Y-162611742D01*
X87011470Y-162744898D01*
X87072758Y-162892858D01*
X87104000Y-163049925D01*
X87104000Y-163210075D01*
X87072758Y-163367142D01*
X87048148Y-163426555D01*
X87011471Y-163515100D01*
X86922499Y-163648257D01*
X86809257Y-163761499D01*
X86779444Y-163781419D01*
X86676102Y-163850470D01*
X86528142Y-163911758D01*
X86371075Y-163943000D01*
X86210925Y-163943000D01*
X86053858Y-163911758D01*
X85905898Y-163850470D01*
X85802556Y-163781419D01*
X85772743Y-163761499D01*
X85659501Y-163648257D01*
X85570529Y-163515100D01*
X85533852Y-163426555D01*
X85509242Y-163367142D01*
X85478000Y-163210075D01*
X85478000Y-163049925D01*
X85509242Y-162892858D01*
X85570530Y-162744898D01*
X85659502Y-162611742D01*
X85772742Y-162498502D01*
X85905898Y-162409530D01*
X86053858Y-162348242D01*
X86210925Y-162317000D01*
X86371075Y-162317000D01*
X86528142Y-162348242D01*
X86528142Y-162348242D01*
G37*
G36*
X98361500Y-163830000D02*
X95059500Y-163830000D01*
X95059500Y-160528000D01*
X98361500Y-160528000D01*
X98361500Y-163830000D01*
X98361500Y-163830000D01*
G37*
G36*
X115033527Y-159030736D02*
X115133410Y-159050604D01*
X115415674Y-159167521D01*
X115669705Y-159337259D01*
X115885741Y-159553295D01*
X116055479Y-159807326D01*
X116172396Y-160089590D01*
X116172396Y-160089591D01*
X116232000Y-160389238D01*
X116232000Y-160694762D01*
X116200352Y-160853864D01*
X116172396Y-160994410D01*
X116055479Y-161276674D01*
X115885741Y-161530705D01*
X115669705Y-161746741D01*
X115415674Y-161916479D01*
X115133410Y-162033396D01*
X115033527Y-162053264D01*
X114833762Y-162093000D01*
X114528238Y-162093000D01*
X114328473Y-162053264D01*
X114228590Y-162033396D01*
X113946326Y-161916479D01*
X113692295Y-161746741D01*
X113476259Y-161530705D01*
X113306521Y-161276674D01*
X113189604Y-160994410D01*
X113161648Y-160853864D01*
X113130000Y-160694762D01*
X113130000Y-160389238D01*
X113189604Y-160089591D01*
X113189604Y-160089590D01*
X113306521Y-159807326D01*
X113476259Y-159553295D01*
X113692295Y-159337259D01*
X113946326Y-159167521D01*
X114228590Y-159050604D01*
X114328473Y-159030736D01*
X114528238Y-158991000D01*
X114833762Y-158991000D01*
X115033527Y-159030736D01*
X115033527Y-159030736D01*
G37*
G36*
X107533527Y-159030736D02*
X107633410Y-159050604D01*
X107915674Y-159167521D01*
X108169705Y-159337259D01*
X108385741Y-159553295D01*
X108555479Y-159807326D01*
X108672396Y-160089590D01*
X108672396Y-160089591D01*
X108732000Y-160389238D01*
X108732000Y-160694762D01*
X108700352Y-160853864D01*
X108672396Y-160994410D01*
X108555479Y-161276674D01*
X108385741Y-161530705D01*
X108169705Y-161746741D01*
X107915674Y-161916479D01*
X107633410Y-162033396D01*
X107533527Y-162053264D01*
X107333762Y-162093000D01*
X107028238Y-162093000D01*
X106828473Y-162053264D01*
X106728590Y-162033396D01*
X106446326Y-161916479D01*
X106192295Y-161746741D01*
X105976259Y-161530705D01*
X105806521Y-161276674D01*
X105689604Y-160994410D01*
X105661648Y-160853864D01*
X105630000Y-160694762D01*
X105630000Y-160389238D01*
X105689604Y-160089591D01*
X105689604Y-160089590D01*
X105806521Y-159807326D01*
X105976259Y-159553295D01*
X106192295Y-159337259D01*
X106446326Y-159167521D01*
X106728590Y-159050604D01*
X106828473Y-159030736D01*
X107028238Y-158991000D01*
X107333762Y-158991000D01*
X107533527Y-159030736D01*
X107533527Y-159030736D01*
G37*
G36*
X86528142Y-159808242D02*
X86676102Y-159869530D01*
X86743130Y-159914317D01*
X86809257Y-159958501D01*
X86922499Y-160071743D01*
X86966683Y-160137870D01*
X87011470Y-160204898D01*
X87072758Y-160352858D01*
X87104000Y-160509925D01*
X87104000Y-160670075D01*
X87072758Y-160827142D01*
X87011470Y-160975102D01*
X86922498Y-161108258D01*
X86809258Y-161221498D01*
X86676102Y-161310470D01*
X86528142Y-161371758D01*
X86371075Y-161403000D01*
X86210925Y-161403000D01*
X86053858Y-161371758D01*
X85905898Y-161310470D01*
X85772742Y-161221498D01*
X85659502Y-161108258D01*
X85570530Y-160975102D01*
X85509242Y-160827142D01*
X85478000Y-160670075D01*
X85478000Y-160509925D01*
X85509242Y-160352858D01*
X85570530Y-160204898D01*
X85615317Y-160137870D01*
X85659501Y-160071743D01*
X85772743Y-159958501D01*
X85838870Y-159914317D01*
X85905898Y-159869530D01*
X86053858Y-159808242D01*
X86210925Y-159777000D01*
X86371075Y-159777000D01*
X86528142Y-159808242D01*
X86528142Y-159808242D01*
G37*
G36*
X83988142Y-157268242D02*
X84136102Y-157329530D01*
X84269258Y-157418502D01*
X84382498Y-157531742D01*
X84471470Y-157664898D01*
X84532758Y-157812858D01*
X84564000Y-157969925D01*
X84564000Y-158130075D01*
X84532758Y-158287142D01*
X84471470Y-158435102D01*
X84382498Y-158568258D01*
X84269258Y-158681498D01*
X84136102Y-158770470D01*
X83988142Y-158831758D01*
X83831075Y-158863000D01*
X83670925Y-158863000D01*
X83513858Y-158831758D01*
X83365898Y-158770470D01*
X83232742Y-158681498D01*
X83119502Y-158568258D01*
X83030530Y-158435102D01*
X82969242Y-158287142D01*
X82938000Y-158130075D01*
X82938000Y-157969925D01*
X82969242Y-157812858D01*
X83030530Y-157664898D01*
X83119502Y-157531742D01*
X83232742Y-157418502D01*
X83365898Y-157329530D01*
X83513858Y-157268242D01*
X83670925Y-157237000D01*
X83831075Y-157237000D01*
X83988142Y-157268242D01*
X83988142Y-157268242D01*
G37*
G36*
X86597755Y-155112040D02*
X86794122Y-155151099D01*
X87102410Y-155278796D01*
X87379862Y-155464184D01*
X87615816Y-155700138D01*
X87801204Y-155977590D01*
X87928901Y-156285878D01*
X87994000Y-156613156D01*
X87994000Y-156946844D01*
X87928901Y-157274122D01*
X87801204Y-157582410D01*
X87615816Y-157859862D01*
X87379862Y-158095816D01*
X87102410Y-158281204D01*
X86794122Y-158408901D01*
X86597755Y-158447960D01*
X86466846Y-158474000D01*
X86133154Y-158474000D01*
X86002245Y-158447960D01*
X85805878Y-158408901D01*
X85497590Y-158281204D01*
X85220138Y-158095816D01*
X84984184Y-157859862D01*
X84798796Y-157582410D01*
X84671099Y-157274122D01*
X84606000Y-156946844D01*
X84606000Y-156613156D01*
X84671099Y-156285878D01*
X84798796Y-155977590D01*
X84984184Y-155700138D01*
X85220138Y-155464184D01*
X85497590Y-155278796D01*
X85805878Y-155151099D01*
X86002245Y-155112040D01*
X86133154Y-155086000D01*
X86466846Y-155086000D01*
X86597755Y-155112040D01*
X86597755Y-155112040D01*
G37*
G36*
X98488500Y-157861000D02*
X95186500Y-157861000D01*
X95186500Y-154559000D01*
X98488500Y-154559000D01*
X98488500Y-157861000D01*
X98488500Y-157861000D01*
G37*
G36*
X83988142Y-154728242D02*
X84136102Y-154789530D01*
X84269258Y-154878502D01*
X84382498Y-154991742D01*
X84471470Y-155124898D01*
X84532758Y-155272858D01*
X84564000Y-155429925D01*
X84564000Y-155590075D01*
X84532758Y-155747142D01*
X84471470Y-155895102D01*
X84382498Y-156028258D01*
X84269258Y-156141498D01*
X84136102Y-156230470D01*
X83988142Y-156291758D01*
X83831075Y-156323000D01*
X83670925Y-156323000D01*
X83513858Y-156291758D01*
X83365898Y-156230470D01*
X83232742Y-156141498D01*
X83119502Y-156028258D01*
X83030530Y-155895102D01*
X82969242Y-155747142D01*
X82938000Y-155590075D01*
X82938000Y-155429925D01*
X82969242Y-155272858D01*
X83030530Y-155124898D01*
X83119502Y-154991742D01*
X83232742Y-154878502D01*
X83365898Y-154789530D01*
X83513858Y-154728242D01*
X83670925Y-154697000D01*
X83831075Y-154697000D01*
X83988142Y-154728242D01*
X83988142Y-154728242D01*
G37*
G36*
X83988142Y-152188242D02*
X84136102Y-152249530D01*
X84269258Y-152338502D01*
X84382498Y-152451742D01*
X84471470Y-152584898D01*
X84532758Y-152732858D01*
X84564000Y-152889925D01*
X84564000Y-153050075D01*
X84532758Y-153207142D01*
X84471470Y-153355102D01*
X84382498Y-153488258D01*
X84269258Y-153601498D01*
X84136102Y-153690470D01*
X83988142Y-153751758D01*
X83831075Y-153783000D01*
X83670925Y-153783000D01*
X83513858Y-153751758D01*
X83365898Y-153690470D01*
X83232742Y-153601498D01*
X83119502Y-153488258D01*
X83030530Y-153355102D01*
X82969242Y-153207142D01*
X82938000Y-153050075D01*
X82938000Y-152889925D01*
X82969242Y-152732858D01*
X83030530Y-152584898D01*
X83119502Y-152451742D01*
X83232742Y-152338502D01*
X83365898Y-152249530D01*
X83513858Y-152188242D01*
X83670925Y-152157000D01*
X83831075Y-152157000D01*
X83988142Y-152188242D01*
X83988142Y-152188242D01*
G37*
G36*
X86597755Y-150032040D02*
X86794122Y-150071099D01*
X87102410Y-150198796D01*
X87379862Y-150384184D01*
X87615816Y-150620138D01*
X87801204Y-150897590D01*
X87928901Y-151205878D01*
X87994000Y-151533156D01*
X87994000Y-151866844D01*
X87928901Y-152194122D01*
X87801204Y-152502410D01*
X87615816Y-152779862D01*
X87379862Y-153015816D01*
X87102410Y-153201204D01*
X86794122Y-153328901D01*
X86597755Y-153367960D01*
X86466846Y-153394000D01*
X86133154Y-153394000D01*
X86002245Y-153367960D01*
X85805878Y-153328901D01*
X85497590Y-153201204D01*
X85220138Y-153015816D01*
X84984184Y-152779862D01*
X84798796Y-152502410D01*
X84671099Y-152194122D01*
X84606000Y-151866844D01*
X84606000Y-151533156D01*
X84671099Y-151205878D01*
X84798796Y-150897590D01*
X84984184Y-150620138D01*
X85220138Y-150384184D01*
X85497590Y-150198796D01*
X85805878Y-150071099D01*
X86002245Y-150032040D01*
X86133154Y-150006000D01*
X86466846Y-150006000D01*
X86597755Y-150032040D01*
X86597755Y-150032040D01*
G37*
G36*
X83988142Y-149648242D02*
X84136102Y-149709530D01*
X84269258Y-149798502D01*
X84382498Y-149911742D01*
X84471470Y-150044898D01*
X84532758Y-150192858D01*
X84564000Y-150349925D01*
X84564000Y-150510075D01*
X84532758Y-150667142D01*
X84471470Y-150815102D01*
X84382498Y-150948258D01*
X84269258Y-151061498D01*
X84136102Y-151150470D01*
X83988142Y-151211758D01*
X83831075Y-151243000D01*
X83670925Y-151243000D01*
X83513858Y-151211758D01*
X83365898Y-151150470D01*
X83232742Y-151061498D01*
X83119502Y-150948258D01*
X83030530Y-150815102D01*
X82969242Y-150667142D01*
X82938000Y-150510075D01*
X82938000Y-150349925D01*
X82969242Y-150192858D01*
X83030530Y-150044898D01*
X83119502Y-149911742D01*
X83232742Y-149798502D01*
X83365898Y-149709530D01*
X83513858Y-149648242D01*
X83670925Y-149617000D01*
X83831075Y-149617000D01*
X83988142Y-149648242D01*
X83988142Y-149648242D01*
G37*
G36*
X167774851Y-148050840D02*
X167806443Y-148060423D01*
X167835557Y-148075985D01*
X167861073Y-148096927D01*
X167882015Y-148122443D01*
X167897577Y-148151557D01*
X167907160Y-148183149D01*
X167911000Y-148222140D01*
X167911000Y-149973860D01*
X167907160Y-150012851D01*
X167897577Y-150044443D01*
X167882015Y-150073557D01*
X167861073Y-150099073D01*
X167835557Y-150120015D01*
X167806443Y-150135577D01*
X167774851Y-150145160D01*
X167735860Y-150149000D01*
X165384140Y-150149000D01*
X165345149Y-150145160D01*
X165313557Y-150135577D01*
X165284443Y-150120015D01*
X165258927Y-150099073D01*
X165237985Y-150073557D01*
X165222423Y-150044443D01*
X165212840Y-150012851D01*
X165209000Y-149973860D01*
X165209000Y-148222140D01*
X165212840Y-148183149D01*
X165222423Y-148151557D01*
X165237985Y-148122443D01*
X165258927Y-148096927D01*
X165284443Y-148075985D01*
X165313557Y-148060423D01*
X165345149Y-148050840D01*
X165384140Y-148047000D01*
X167735860Y-148047000D01*
X167774851Y-148050840D01*
X167774851Y-148050840D01*
G37*
G36*
X107533527Y-144030736D02*
X107633410Y-144050604D01*
X107915674Y-144167521D01*
X108169705Y-144337259D01*
X108385741Y-144553295D01*
X108555479Y-144807326D01*
X108639955Y-145011271D01*
X108672396Y-145089591D01*
X108732000Y-145389238D01*
X108732000Y-145694762D01*
X108692264Y-145894527D01*
X108672396Y-145994410D01*
X108555479Y-146276674D01*
X108385741Y-146530705D01*
X108169705Y-146746741D01*
X107915674Y-146916479D01*
X107633410Y-147033396D01*
X107533527Y-147053264D01*
X107333762Y-147093000D01*
X107028238Y-147093000D01*
X106828473Y-147053264D01*
X106728590Y-147033396D01*
X106446326Y-146916479D01*
X106192295Y-146746741D01*
X105976259Y-146530705D01*
X105806521Y-146276674D01*
X105689604Y-145994410D01*
X105669736Y-145894527D01*
X105630000Y-145694762D01*
X105630000Y-145389238D01*
X105689604Y-145089591D01*
X105722045Y-145011271D01*
X105806521Y-144807326D01*
X105976259Y-144553295D01*
X106192295Y-144337259D01*
X106446326Y-144167521D01*
X106728590Y-144050604D01*
X106828473Y-144030736D01*
X107028238Y-143991000D01*
X107333762Y-143991000D01*
X107533527Y-144030736D01*
X107533527Y-144030736D01*
G37*
G36*
X116232000Y-147093000D02*
X113130000Y-147093000D01*
X113130000Y-143991000D01*
X116232000Y-143991000D01*
X116232000Y-147093000D01*
X116232000Y-147093000D01*
G37*
G36*
X166942510Y-144550041D02*
X167066032Y-144562207D01*
X167264146Y-144622305D01*
X167446729Y-144719897D01*
X167606765Y-144851235D01*
X167738103Y-145011271D01*
X167835695Y-145193854D01*
X167895793Y-145391968D01*
X167916085Y-145598000D01*
X167895793Y-145804032D01*
X167835695Y-146002146D01*
X167738103Y-146184729D01*
X167606765Y-146344765D01*
X167446729Y-146476103D01*
X167264146Y-146573695D01*
X167066032Y-146633793D01*
X166942510Y-146645959D01*
X166911631Y-146649000D01*
X166208369Y-146649000D01*
X166177490Y-146645959D01*
X166053968Y-146633793D01*
X165855854Y-146573695D01*
X165673271Y-146476103D01*
X165513235Y-146344765D01*
X165381897Y-146184729D01*
X165284305Y-146002146D01*
X165224207Y-145804032D01*
X165203915Y-145598000D01*
X165224207Y-145391968D01*
X165284305Y-145193854D01*
X165381897Y-145011271D01*
X165513235Y-144851235D01*
X165673271Y-144719897D01*
X165855854Y-144622305D01*
X166053968Y-144562207D01*
X166177490Y-144550041D01*
X166208369Y-144547000D01*
X166911631Y-144547000D01*
X166942510Y-144550041D01*
X166942510Y-144550041D01*
G37*
G36*
X97161154Y-139342888D02*
X97472365Y-139437294D01*
X97759186Y-139590603D01*
X98010582Y-139796918D01*
X98216897Y-140048314D01*
X98370206Y-140335135D01*
X98464612Y-140646346D01*
X98496488Y-140970000D01*
X98464612Y-141293654D01*
X98370206Y-141604865D01*
X98216897Y-141891686D01*
X98010582Y-142143082D01*
X97759186Y-142349397D01*
X97472365Y-142502706D01*
X97161154Y-142597112D01*
X96918607Y-142621000D01*
X96756393Y-142621000D01*
X96513846Y-142597112D01*
X96202635Y-142502706D01*
X95915814Y-142349397D01*
X95664418Y-142143082D01*
X95458103Y-141891686D01*
X95304794Y-141604865D01*
X95210388Y-141293654D01*
X95178512Y-140970000D01*
X95210388Y-140646346D01*
X95304794Y-140335135D01*
X95458103Y-140048314D01*
X95664418Y-139796918D01*
X95915814Y-139590603D01*
X96202635Y-139437294D01*
X96513846Y-139342888D01*
X96756393Y-139319000D01*
X96918607Y-139319000D01*
X97161154Y-139342888D01*
X97161154Y-139342888D01*
G37*
G36*
X105978180Y-138237662D02*
X106079635Y-138247654D01*
X106296600Y-138313470D01*
X106296602Y-138313471D01*
X106296605Y-138313472D01*
X106496556Y-138420347D01*
X106671818Y-138564182D01*
X106815653Y-138739444D01*
X106922528Y-138939395D01*
X106922529Y-138939398D01*
X106922530Y-138939400D01*
X106988346Y-139156365D01*
X107010569Y-139382000D01*
X106988346Y-139607635D01*
X106930927Y-139796918D01*
X106922528Y-139824605D01*
X106815653Y-140024556D01*
X106671818Y-140199818D01*
X106496556Y-140343653D01*
X106296605Y-140450528D01*
X106296602Y-140450529D01*
X106296600Y-140450530D01*
X106079635Y-140516346D01*
X105978180Y-140526338D01*
X105910545Y-140533000D01*
X105797455Y-140533000D01*
X105729820Y-140526338D01*
X105628365Y-140516346D01*
X105411400Y-140450530D01*
X105411398Y-140450529D01*
X105411395Y-140450528D01*
X105211444Y-140343653D01*
X105036182Y-140199818D01*
X104892347Y-140024556D01*
X104785472Y-139824605D01*
X104777073Y-139796918D01*
X104719654Y-139607635D01*
X104697431Y-139382000D01*
X104719654Y-139156365D01*
X104785470Y-138939400D01*
X104785471Y-138939398D01*
X104785472Y-138939395D01*
X104892347Y-138739444D01*
X105036182Y-138564182D01*
X105211444Y-138420347D01*
X105411395Y-138313472D01*
X105411398Y-138313471D01*
X105411400Y-138313470D01*
X105628365Y-138247654D01*
X105729820Y-138237662D01*
X105797455Y-138231000D01*
X105910545Y-138231000D01*
X105978180Y-138237662D01*
X105978180Y-138237662D01*
G37*
G36*
X117165000Y-140533000D02*
X114863000Y-140533000D01*
X114863000Y-138231000D01*
X117165000Y-138231000D01*
X117165000Y-140533000D01*
X117165000Y-140533000D01*
G37*
G36*
X28921787Y-133968791D02*
X29228619Y-134095885D01*
X29228621Y-134095886D01*
X29501086Y-134277942D01*
X29504765Y-134280400D01*
X29739600Y-134515235D01*
X29739602Y-134515238D01*
X29903241Y-134760140D01*
X29924115Y-134791381D01*
X30051209Y-135098213D01*
X30116000Y-135423942D01*
X30116000Y-135756058D01*
X30051209Y-136081787D01*
X29924115Y-136388619D01*
X29924114Y-136388621D01*
X29758103Y-136637073D01*
X29739600Y-136664765D01*
X29504765Y-136899600D01*
X29504762Y-136899602D01*
X29228621Y-137084114D01*
X29228620Y-137084115D01*
X29228619Y-137084115D01*
X28921787Y-137211209D01*
X28596058Y-137276000D01*
X28263942Y-137276000D01*
X27938213Y-137211209D01*
X27631381Y-137084115D01*
X27631380Y-137084115D01*
X27631379Y-137084114D01*
X27355238Y-136899602D01*
X27355235Y-136899600D01*
X27120400Y-136664765D01*
X27101897Y-136637073D01*
X26935886Y-136388621D01*
X26935885Y-136388619D01*
X26808791Y-136081787D01*
X26744000Y-135756058D01*
X26744000Y-135423942D01*
X26808791Y-135098213D01*
X26935885Y-134791381D01*
X26956760Y-134760140D01*
X27120398Y-134515238D01*
X27120400Y-134515235D01*
X27355235Y-134280400D01*
X27358914Y-134277942D01*
X27631379Y-134095886D01*
X27631381Y-134095885D01*
X27938213Y-133968791D01*
X28263942Y-133904000D01*
X28596058Y-133904000D01*
X28921787Y-133968791D01*
X28921787Y-133968791D01*
G37*
G36*
X23421787Y-133968791D02*
X23728619Y-134095885D01*
X23728621Y-134095886D01*
X24001086Y-134277942D01*
X24004765Y-134280400D01*
X24239600Y-134515235D01*
X24239602Y-134515238D01*
X24403241Y-134760140D01*
X24424115Y-134791381D01*
X24551209Y-135098213D01*
X24616000Y-135423942D01*
X24616000Y-135756058D01*
X24551209Y-136081787D01*
X24424115Y-136388619D01*
X24424114Y-136388621D01*
X24258103Y-136637073D01*
X24239600Y-136664765D01*
X24004765Y-136899600D01*
X24004762Y-136899602D01*
X23728621Y-137084114D01*
X23728620Y-137084115D01*
X23728619Y-137084115D01*
X23421787Y-137211209D01*
X23096058Y-137276000D01*
X22763942Y-137276000D01*
X22438213Y-137211209D01*
X22131381Y-137084115D01*
X22131380Y-137084115D01*
X22131379Y-137084114D01*
X21855238Y-136899602D01*
X21855235Y-136899600D01*
X21620400Y-136664765D01*
X21601897Y-136637073D01*
X21435886Y-136388621D01*
X21435885Y-136388619D01*
X21308791Y-136081787D01*
X21244000Y-135756058D01*
X21244000Y-135423942D01*
X21308791Y-135098213D01*
X21435885Y-134791381D01*
X21456760Y-134760140D01*
X21620398Y-134515238D01*
X21620400Y-134515235D01*
X21855235Y-134280400D01*
X21858914Y-134277942D01*
X22131379Y-134095886D01*
X22131381Y-134095885D01*
X22438213Y-133968791D01*
X22763942Y-133904000D01*
X23096058Y-133904000D01*
X23421787Y-133968791D01*
X23421787Y-133968791D01*
G37*
G36*
X167774851Y-134588840D02*
X167806443Y-134598423D01*
X167835557Y-134613985D01*
X167861073Y-134634927D01*
X167882015Y-134660443D01*
X167897577Y-134689557D01*
X167907160Y-134721149D01*
X167911000Y-134760140D01*
X167911000Y-136511860D01*
X167907160Y-136550851D01*
X167897577Y-136582443D01*
X167882015Y-136611557D01*
X167861073Y-136637073D01*
X167835557Y-136658015D01*
X167806443Y-136673577D01*
X167774851Y-136683160D01*
X167735860Y-136687000D01*
X165384140Y-136687000D01*
X165345149Y-136683160D01*
X165313557Y-136673577D01*
X165284443Y-136658015D01*
X165258927Y-136637073D01*
X165237985Y-136611557D01*
X165222423Y-136582443D01*
X165212840Y-136550851D01*
X165209000Y-136511860D01*
X165209000Y-134760140D01*
X165212840Y-134721149D01*
X165222423Y-134689557D01*
X165237985Y-134660443D01*
X165258927Y-134634927D01*
X165284443Y-134613985D01*
X165313557Y-134598423D01*
X165345149Y-134588840D01*
X165384140Y-134585000D01*
X167735860Y-134585000D01*
X167774851Y-134588840D01*
X167774851Y-134588840D01*
G37*
G36*
X104455786Y-127185462D02*
X104455788Y-127185463D01*
X104455789Y-127185463D01*
X105102029Y-127453144D01*
X105563323Y-127761371D01*
X105683634Y-127841760D01*
X106178240Y-128336366D01*
X106178242Y-128336369D01*
X106566856Y-128917971D01*
X106834537Y-129564211D01*
X106834538Y-129564214D01*
X106971000Y-130250256D01*
X106971000Y-130949744D01*
X106851747Y-131549271D01*
X106834537Y-131635789D01*
X106566856Y-132282029D01*
X106226551Y-132791332D01*
X106178240Y-132863634D01*
X105683634Y-133358240D01*
X105683631Y-133358242D01*
X105102029Y-133746856D01*
X104455789Y-134014537D01*
X104455788Y-134014537D01*
X104455786Y-134014538D01*
X103769744Y-134151000D01*
X103070256Y-134151000D01*
X102384214Y-134014538D01*
X102384212Y-134014537D01*
X102384211Y-134014537D01*
X101737971Y-133746856D01*
X101156369Y-133358242D01*
X101156366Y-133358240D01*
X100661760Y-132863634D01*
X100613449Y-132791332D01*
X100273144Y-132282029D01*
X100005463Y-131635789D01*
X99988254Y-131549271D01*
X99869000Y-130949744D01*
X99869000Y-130250256D01*
X100005462Y-129564214D01*
X100005463Y-129564211D01*
X100273144Y-128917971D01*
X100661758Y-128336369D01*
X100661760Y-128336366D01*
X101156366Y-127841760D01*
X101276677Y-127761371D01*
X101737971Y-127453144D01*
X102384211Y-127185463D01*
X102384212Y-127185463D01*
X102384214Y-127185462D01*
X103070256Y-127049000D01*
X103769744Y-127049000D01*
X104455786Y-127185462D01*
X104455786Y-127185462D01*
G37*
G36*
X166942510Y-131088041D02*
X167066032Y-131100207D01*
X167264146Y-131160305D01*
X167446729Y-131257897D01*
X167606765Y-131389235D01*
X167738103Y-131549271D01*
X167835695Y-131731854D01*
X167895793Y-131929968D01*
X167916085Y-132136000D01*
X167895793Y-132342032D01*
X167835695Y-132540146D01*
X167738103Y-132722729D01*
X167606765Y-132882765D01*
X167446729Y-133014103D01*
X167264146Y-133111695D01*
X167066032Y-133171793D01*
X166942510Y-133183959D01*
X166911631Y-133187000D01*
X166208369Y-133187000D01*
X166177490Y-133183959D01*
X166053968Y-133171793D01*
X165855854Y-133111695D01*
X165673271Y-133014103D01*
X165513235Y-132882765D01*
X165381897Y-132722729D01*
X165284305Y-132540146D01*
X165224207Y-132342032D01*
X165203915Y-132136000D01*
X165224207Y-131929968D01*
X165284305Y-131731854D01*
X165381897Y-131549271D01*
X165513235Y-131389235D01*
X165673271Y-131257897D01*
X165855854Y-131160305D01*
X166053968Y-131100207D01*
X166177490Y-131088041D01*
X166208369Y-131085000D01*
X166911631Y-131085000D01*
X166942510Y-131088041D01*
X166942510Y-131088041D01*
G37*
G36*
X167902851Y-121824840D02*
X167934443Y-121834423D01*
X167963557Y-121849985D01*
X167989073Y-121870927D01*
X168010015Y-121896443D01*
X168025577Y-121925557D01*
X168035160Y-121957149D01*
X168039000Y-121996140D01*
X168039000Y-123747860D01*
X168035160Y-123786851D01*
X168025577Y-123818443D01*
X168010015Y-123847557D01*
X167989073Y-123873073D01*
X167963557Y-123894015D01*
X167934443Y-123909577D01*
X167902851Y-123919160D01*
X167863860Y-123923000D01*
X165512140Y-123923000D01*
X165473149Y-123919160D01*
X165441557Y-123909577D01*
X165412443Y-123894015D01*
X165386927Y-123873073D01*
X165365985Y-123847557D01*
X165350423Y-123818443D01*
X165340840Y-123786851D01*
X165337000Y-123747860D01*
X165337000Y-121996140D01*
X165340840Y-121957149D01*
X165350423Y-121925557D01*
X165365985Y-121896443D01*
X165386927Y-121870927D01*
X165412443Y-121849985D01*
X165441557Y-121834423D01*
X165473149Y-121824840D01*
X165512140Y-121821000D01*
X167863860Y-121821000D01*
X167902851Y-121824840D01*
X167902851Y-121824840D01*
G37*
G36*
X153861787Y-118958791D02*
X154168619Y-119085885D01*
X154168621Y-119085886D01*
X154288472Y-119165968D01*
X154444765Y-119270400D01*
X154679600Y-119505235D01*
X154679602Y-119505238D01*
X154860619Y-119776148D01*
X154864115Y-119781381D01*
X154991209Y-120088213D01*
X155056000Y-120413942D01*
X155056000Y-120746058D01*
X154991209Y-121071787D01*
X154864115Y-121378619D01*
X154679600Y-121654765D01*
X154444765Y-121889600D01*
X154444762Y-121889602D01*
X154168621Y-122074114D01*
X154168620Y-122074115D01*
X154168619Y-122074115D01*
X153861787Y-122201209D01*
X153536058Y-122266000D01*
X153203942Y-122266000D01*
X152878213Y-122201209D01*
X152571381Y-122074115D01*
X152571380Y-122074115D01*
X152571379Y-122074114D01*
X152295238Y-121889602D01*
X152295235Y-121889600D01*
X152060400Y-121654765D01*
X151875885Y-121378619D01*
X151748791Y-121071787D01*
X151684000Y-120746058D01*
X151684000Y-120413942D01*
X151748791Y-120088213D01*
X151875885Y-119781381D01*
X151879382Y-119776148D01*
X152060398Y-119505238D01*
X152060400Y-119505235D01*
X152295235Y-119270400D01*
X152451528Y-119165968D01*
X152571379Y-119085886D01*
X152571381Y-119085885D01*
X152878213Y-118958791D01*
X153203942Y-118894000D01*
X153536058Y-118894000D01*
X153861787Y-118958791D01*
X153861787Y-118958791D01*
G37*
G36*
X167070510Y-118324041D02*
X167194032Y-118336207D01*
X167392146Y-118396305D01*
X167574729Y-118493897D01*
X167734765Y-118625235D01*
X167866103Y-118785271D01*
X167963695Y-118967854D01*
X168023793Y-119165968D01*
X168044085Y-119372000D01*
X168023793Y-119578032D01*
X167963695Y-119776146D01*
X167866103Y-119958729D01*
X167734765Y-120118765D01*
X167574729Y-120250103D01*
X167392146Y-120347695D01*
X167194032Y-120407793D01*
X167070510Y-120419959D01*
X167039631Y-120423000D01*
X166336369Y-120423000D01*
X166305490Y-120419959D01*
X166181968Y-120407793D01*
X165983854Y-120347695D01*
X165801271Y-120250103D01*
X165641235Y-120118765D01*
X165509897Y-119958729D01*
X165412305Y-119776146D01*
X165352207Y-119578032D01*
X165331915Y-119372000D01*
X165352207Y-119165968D01*
X165412305Y-118967854D01*
X165509897Y-118785271D01*
X165641235Y-118625235D01*
X165801271Y-118493897D01*
X165983854Y-118396305D01*
X166181968Y-118336207D01*
X166305490Y-118324041D01*
X166336369Y-118321000D01*
X167039631Y-118321000D01*
X167070510Y-118324041D01*
X167070510Y-118324041D01*
G37*
G36*
X153861787Y-113458791D02*
X154168619Y-113585885D01*
X154168621Y-113585886D01*
X154441086Y-113767942D01*
X154444765Y-113770400D01*
X154679600Y-114005235D01*
X154864115Y-114281381D01*
X154991209Y-114588213D01*
X155056000Y-114913942D01*
X155056000Y-115246058D01*
X154991209Y-115571787D01*
X154864115Y-115878619D01*
X154679600Y-116154765D01*
X154444765Y-116389600D01*
X154444762Y-116389602D01*
X154168621Y-116574114D01*
X154168620Y-116574115D01*
X154168619Y-116574115D01*
X153861787Y-116701209D01*
X153536058Y-116766000D01*
X153203942Y-116766000D01*
X152878213Y-116701209D01*
X152571381Y-116574115D01*
X152571380Y-116574115D01*
X152571379Y-116574114D01*
X152295238Y-116389602D01*
X152295235Y-116389600D01*
X152060400Y-116154765D01*
X151875885Y-115878619D01*
X151748791Y-115571787D01*
X151684000Y-115246058D01*
X151684000Y-114913942D01*
X151748791Y-114588213D01*
X151875885Y-114281381D01*
X152060400Y-114005235D01*
X152295235Y-113770400D01*
X152298914Y-113767942D01*
X152571379Y-113585886D01*
X152571381Y-113585885D01*
X152878213Y-113458791D01*
X153203942Y-113394000D01*
X153536058Y-113394000D01*
X153861787Y-113458791D01*
X153861787Y-113458791D01*
G37*
G36*
X165487654Y-109561388D02*
X165798865Y-109655794D01*
X166085686Y-109809103D01*
X166337082Y-110015418D01*
X166543397Y-110266814D01*
X166696706Y-110553635D01*
X166791112Y-110864846D01*
X166822988Y-111188500D01*
X166791112Y-111512154D01*
X166696706Y-111823365D01*
X166543397Y-112110186D01*
X166337082Y-112361582D01*
X166085686Y-112567897D01*
X165798865Y-112721206D01*
X165487654Y-112815612D01*
X165245107Y-112839500D01*
X165082893Y-112839500D01*
X164840346Y-112815612D01*
X164529135Y-112721206D01*
X164242314Y-112567897D01*
X163990918Y-112361582D01*
X163784603Y-112110186D01*
X163631294Y-111823365D01*
X163536888Y-111512154D01*
X163505012Y-111188500D01*
X163536888Y-110864846D01*
X163631294Y-110553635D01*
X163784603Y-110266814D01*
X163990918Y-110015418D01*
X164242314Y-109809103D01*
X164529135Y-109655794D01*
X164840346Y-109561388D01*
X165082893Y-109537500D01*
X165245107Y-109537500D01*
X165487654Y-109561388D01*
X165487654Y-109561388D01*
G37*
G36*
X166815000Y-97599500D02*
X163513000Y-97599500D01*
X163513000Y-94297500D01*
X166815000Y-94297500D01*
X166815000Y-97599500D01*
X166815000Y-97599500D01*
G37*
G36*
X180184527Y-94354736D02*
X180284410Y-94374604D01*
X180566674Y-94491521D01*
X180820705Y-94661259D01*
X181036741Y-94877295D01*
X181206479Y-95131326D01*
X181323396Y-95413590D01*
X181383000Y-95713240D01*
X181383000Y-96018760D01*
X181323396Y-96318410D01*
X181206479Y-96600674D01*
X181036741Y-96854705D01*
X180820705Y-97070741D01*
X180566674Y-97240479D01*
X180284410Y-97357396D01*
X180184527Y-97377264D01*
X179984762Y-97417000D01*
X179679238Y-97417000D01*
X179479473Y-97377264D01*
X179379590Y-97357396D01*
X179097326Y-97240479D01*
X178843295Y-97070741D01*
X178627259Y-96854705D01*
X178457521Y-96600674D01*
X178340604Y-96318410D01*
X178281000Y-96018760D01*
X178281000Y-95713240D01*
X178340604Y-95413590D01*
X178457521Y-95131326D01*
X178627259Y-94877295D01*
X178843295Y-94661259D01*
X179097326Y-94491521D01*
X179379590Y-94374604D01*
X179479473Y-94354736D01*
X179679238Y-94315000D01*
X179984762Y-94315000D01*
X180184527Y-94354736D01*
X180184527Y-94354736D01*
G37*
G36*
X172684527Y-94354736D02*
X172784410Y-94374604D01*
X173066674Y-94491521D01*
X173320705Y-94661259D01*
X173536741Y-94877295D01*
X173706479Y-95131326D01*
X173823396Y-95413590D01*
X173883000Y-95713240D01*
X173883000Y-96018760D01*
X173823396Y-96318410D01*
X173706479Y-96600674D01*
X173536741Y-96854705D01*
X173320705Y-97070741D01*
X173066674Y-97240479D01*
X172784410Y-97357396D01*
X172684527Y-97377264D01*
X172484762Y-97417000D01*
X172179238Y-97417000D01*
X171979473Y-97377264D01*
X171879590Y-97357396D01*
X171597326Y-97240479D01*
X171343295Y-97070741D01*
X171127259Y-96854705D01*
X170957521Y-96600674D01*
X170840604Y-96318410D01*
X170781000Y-96018760D01*
X170781000Y-95713240D01*
X170840604Y-95413590D01*
X170957521Y-95131326D01*
X171127259Y-94877295D01*
X171343295Y-94661259D01*
X171597326Y-94491521D01*
X171879590Y-94374604D01*
X171979473Y-94354736D01*
X172179238Y-94315000D01*
X172484762Y-94315000D01*
X172684527Y-94354736D01*
X172684527Y-94354736D01*
G37*
G36*
X180184527Y-89354736D02*
X180284410Y-89374604D01*
X180566674Y-89491521D01*
X180820705Y-89661259D01*
X181036741Y-89877295D01*
X181206479Y-90131326D01*
X181323396Y-90413590D01*
X181383000Y-90713240D01*
X181383000Y-91018760D01*
X181323396Y-91318410D01*
X181206479Y-91600674D01*
X181036741Y-91854705D01*
X180820705Y-92070741D01*
X180566674Y-92240479D01*
X180284410Y-92357396D01*
X180184527Y-92377264D01*
X179984762Y-92417000D01*
X179679238Y-92417000D01*
X179479473Y-92377264D01*
X179379590Y-92357396D01*
X179097326Y-92240479D01*
X178843295Y-92070741D01*
X178627259Y-91854705D01*
X178457521Y-91600674D01*
X178340604Y-91318410D01*
X178281000Y-91018760D01*
X178281000Y-90713240D01*
X178340604Y-90413590D01*
X178457521Y-90131326D01*
X178627259Y-89877295D01*
X178843295Y-89661259D01*
X179097326Y-89491521D01*
X179379590Y-89374604D01*
X179479473Y-89354736D01*
X179679238Y-89315000D01*
X179984762Y-89315000D01*
X180184527Y-89354736D01*
X180184527Y-89354736D01*
G37*
G36*
X172684527Y-89354736D02*
X172784410Y-89374604D01*
X173066674Y-89491521D01*
X173320705Y-89661259D01*
X173536741Y-89877295D01*
X173706479Y-90131326D01*
X173823396Y-90413590D01*
X173883000Y-90713240D01*
X173883000Y-91018760D01*
X173823396Y-91318410D01*
X173706479Y-91600674D01*
X173536741Y-91854705D01*
X173320705Y-92070741D01*
X173066674Y-92240479D01*
X172784410Y-92357396D01*
X172684527Y-92377264D01*
X172484762Y-92417000D01*
X172179238Y-92417000D01*
X171979473Y-92377264D01*
X171879590Y-92357396D01*
X171597326Y-92240479D01*
X171343295Y-92070741D01*
X171127259Y-91854705D01*
X170957521Y-91600674D01*
X170840604Y-91318410D01*
X170781000Y-91018760D01*
X170781000Y-90713240D01*
X170840604Y-90413590D01*
X170957521Y-90131326D01*
X171127259Y-89877295D01*
X171343295Y-89661259D01*
X171597326Y-89491521D01*
X171879590Y-89374604D01*
X171979473Y-89354736D01*
X172179238Y-89315000D01*
X172484762Y-89315000D01*
X172684527Y-89354736D01*
X172684527Y-89354736D01*
G37*
G36*
X166370000Y-87566500D02*
X163068000Y-87566500D01*
X163068000Y-84264500D01*
X166370000Y-84264500D01*
X166370000Y-87566500D01*
X166370000Y-87566500D01*
G37*
G36*
X172684527Y-84354736D02*
X172784410Y-84374604D01*
X173066674Y-84491521D01*
X173320705Y-84661259D01*
X173536741Y-84877295D01*
X173706479Y-85131326D01*
X173823396Y-85413590D01*
X173883000Y-85713240D01*
X173883000Y-86018760D01*
X173823396Y-86318410D01*
X173706479Y-86600674D01*
X173536741Y-86854705D01*
X173320705Y-87070741D01*
X173066674Y-87240479D01*
X172784410Y-87357396D01*
X172684527Y-87377264D01*
X172484762Y-87417000D01*
X172179238Y-87417000D01*
X171979473Y-87377264D01*
X171879590Y-87357396D01*
X171597326Y-87240479D01*
X171343295Y-87070741D01*
X171127259Y-86854705D01*
X170957521Y-86600674D01*
X170840604Y-86318410D01*
X170781000Y-86018760D01*
X170781000Y-85713240D01*
X170840604Y-85413590D01*
X170957521Y-85131326D01*
X171127259Y-84877295D01*
X171343295Y-84661259D01*
X171597326Y-84491521D01*
X171879590Y-84374604D01*
X171979473Y-84354736D01*
X172179238Y-84315000D01*
X172484762Y-84315000D01*
X172684527Y-84354736D01*
X172684527Y-84354736D01*
G37*
G36*
X180184527Y-84354736D02*
X180284410Y-84374604D01*
X180566674Y-84491521D01*
X180820705Y-84661259D01*
X181036741Y-84877295D01*
X181206479Y-85131326D01*
X181323396Y-85413590D01*
X181383000Y-85713240D01*
X181383000Y-86018760D01*
X181323396Y-86318410D01*
X181206479Y-86600674D01*
X181036741Y-86854705D01*
X180820705Y-87070741D01*
X180566674Y-87240479D01*
X180284410Y-87357396D01*
X180184527Y-87377264D01*
X179984762Y-87417000D01*
X179679238Y-87417000D01*
X179479473Y-87377264D01*
X179379590Y-87357396D01*
X179097326Y-87240479D01*
X178843295Y-87070741D01*
X178627259Y-86854705D01*
X178457521Y-86600674D01*
X178340604Y-86318410D01*
X178281000Y-86018760D01*
X178281000Y-85713240D01*
X178340604Y-85413590D01*
X178457521Y-85131326D01*
X178627259Y-84877295D01*
X178843295Y-84661259D01*
X179097326Y-84491521D01*
X179379590Y-84374604D01*
X179479473Y-84354736D01*
X179679238Y-84315000D01*
X179984762Y-84315000D01*
X180184527Y-84354736D01*
X180184527Y-84354736D01*
G37*
G36*
X77659210Y-85126603D02*
X77839651Y-85201344D01*
X78000950Y-85309121D01*
X78002047Y-85309854D01*
X78140146Y-85447953D01*
X78140148Y-85447956D01*
X78248656Y-85610349D01*
X78323397Y-85790790D01*
X78361500Y-85982346D01*
X78361500Y-86177654D01*
X78323397Y-86369210D01*
X78248656Y-86549651D01*
X78214563Y-86600674D01*
X78140146Y-86712047D01*
X78002047Y-86850146D01*
X78002044Y-86850148D01*
X77839651Y-86958656D01*
X77659210Y-87033397D01*
X77467654Y-87071500D01*
X77272346Y-87071500D01*
X77080790Y-87033397D01*
X76900349Y-86958656D01*
X76737956Y-86850148D01*
X76737953Y-86850146D01*
X76599854Y-86712047D01*
X76525437Y-86600674D01*
X76491344Y-86549651D01*
X76416603Y-86369210D01*
X76378500Y-86177654D01*
X76378500Y-85982346D01*
X76416603Y-85790790D01*
X76491344Y-85610349D01*
X76599852Y-85447956D01*
X76599854Y-85447953D01*
X76737953Y-85309854D01*
X76739050Y-85309121D01*
X76900349Y-85201344D01*
X77080790Y-85126603D01*
X77272346Y-85088500D01*
X77467654Y-85088500D01*
X77659210Y-85126603D01*
X77659210Y-85126603D01*
G37*
G36*
X78361500Y-80321500D02*
X76378500Y-80321500D01*
X76378500Y-78338500D01*
X78361500Y-78338500D01*
X78361500Y-80321500D01*
X78361500Y-80321500D01*
G37*
G36*
X104455786Y-67185462D02*
X104455788Y-67185463D01*
X104455789Y-67185463D01*
X105102029Y-67453144D01*
X105563323Y-67761371D01*
X105683634Y-67841760D01*
X106178240Y-68336366D01*
X106178242Y-68336369D01*
X106566856Y-68917971D01*
X106834537Y-69564211D01*
X106834538Y-69564214D01*
X106971000Y-70250256D01*
X106971000Y-70949744D01*
X106841523Y-71600672D01*
X106834537Y-71635789D01*
X106566856Y-72282029D01*
X106226551Y-72791332D01*
X106178240Y-72863634D01*
X105683634Y-73358240D01*
X105683631Y-73358242D01*
X105102029Y-73746856D01*
X104455789Y-74014537D01*
X104455788Y-74014537D01*
X104455786Y-74014538D01*
X103769744Y-74151000D01*
X103070256Y-74151000D01*
X102384214Y-74014538D01*
X102384212Y-74014537D01*
X102384211Y-74014537D01*
X101737971Y-73746856D01*
X101156369Y-73358242D01*
X101156366Y-73358240D01*
X100661760Y-72863634D01*
X100613449Y-72791332D01*
X100273144Y-72282029D01*
X100005463Y-71635789D01*
X99998478Y-71600672D01*
X99869000Y-70949744D01*
X99869000Y-70250256D01*
X100005462Y-69564214D01*
X100005463Y-69564211D01*
X100273144Y-68917971D01*
X100661758Y-68336369D01*
X100661760Y-68336366D01*
X101156366Y-67841760D01*
X101276677Y-67761371D01*
X101737971Y-67453144D01*
X102384211Y-67185463D01*
X102384212Y-67185463D01*
X102384214Y-67185462D01*
X103070256Y-67049000D01*
X103769744Y-67049000D01*
X104455786Y-67185462D01*
X104455786Y-67185462D01*
G37*
G36*
X181383000Y-72417000D02*
X178281000Y-72417000D01*
X178281000Y-69315000D01*
X181383000Y-69315000D01*
X181383000Y-72417000D01*
X181383000Y-72417000D01*
G37*
G36*
X172684527Y-69354736D02*
X172784410Y-69374604D01*
X173066674Y-69491521D01*
X173320705Y-69661259D01*
X173536741Y-69877295D01*
X173706479Y-70131326D01*
X173823396Y-70413590D01*
X173883000Y-70713240D01*
X173883000Y-71018760D01*
X173823396Y-71318410D01*
X173706479Y-71600674D01*
X173536741Y-71854705D01*
X173320705Y-72070741D01*
X173066674Y-72240479D01*
X172784410Y-72357396D01*
X172684527Y-72377264D01*
X172484762Y-72417000D01*
X172179238Y-72417000D01*
X171979473Y-72377264D01*
X171879590Y-72357396D01*
X171597326Y-72240479D01*
X171343295Y-72070741D01*
X171127259Y-71854705D01*
X170957521Y-71600674D01*
X170840604Y-71318410D01*
X170781000Y-71018760D01*
X170781000Y-70713240D01*
X170840604Y-70413590D01*
X170957521Y-70131326D01*
X171127259Y-69877295D01*
X171343295Y-69661259D01*
X171597326Y-69491521D01*
X171879590Y-69374604D01*
X171979473Y-69354736D01*
X172179238Y-69315000D01*
X172484762Y-69315000D01*
X172684527Y-69354736D01*
X172684527Y-69354736D01*
G37*
G36*
X165042654Y-69048388D02*
X165353865Y-69142794D01*
X165640686Y-69296103D01*
X165892082Y-69502418D01*
X166098397Y-69753814D01*
X166251706Y-70040635D01*
X166346112Y-70351846D01*
X166377988Y-70675500D01*
X166346112Y-70999154D01*
X166251706Y-71310365D01*
X166098397Y-71597186D01*
X165892082Y-71848582D01*
X165640686Y-72054897D01*
X165353865Y-72208206D01*
X165042654Y-72302612D01*
X164800107Y-72326500D01*
X164637893Y-72326500D01*
X164395346Y-72302612D01*
X164084135Y-72208206D01*
X163797314Y-72054897D01*
X163545918Y-71848582D01*
X163339603Y-71597186D01*
X163186294Y-71310365D01*
X163091888Y-70999154D01*
X163060012Y-70675500D01*
X163091888Y-70351846D01*
X163186294Y-70040635D01*
X163339603Y-69753814D01*
X163545918Y-69502418D01*
X163797314Y-69296103D01*
X164084135Y-69142794D01*
X164395346Y-69048388D01*
X164637893Y-69024500D01*
X164800107Y-69024500D01*
X165042654Y-69048388D01*
X165042654Y-69048388D01*
G37*
G36*
X188667000Y-71890000D02*
X186365000Y-71890000D01*
X186365000Y-69588000D01*
X188667000Y-69588000D01*
X188667000Y-71890000D01*
X188667000Y-71890000D01*
G37*
G36*
X122809000Y-64897000D02*
X119507000Y-64897000D01*
X119507000Y-61595000D01*
X122809000Y-61595000D01*
X122809000Y-64897000D01*
X122809000Y-64897000D01*
G37*
G36*
X106241654Y-61618888D02*
X106552865Y-61713294D01*
X106839686Y-61866603D01*
X107091082Y-62072918D01*
X107297397Y-62324314D01*
X107450706Y-62611135D01*
X107545112Y-62922346D01*
X107576988Y-63246000D01*
X107545112Y-63569654D01*
X107450706Y-63880865D01*
X107297397Y-64167686D01*
X107091082Y-64419082D01*
X106839686Y-64625397D01*
X106552865Y-64778706D01*
X106241654Y-64873112D01*
X105999107Y-64897000D01*
X105836893Y-64897000D01*
X105594346Y-64873112D01*
X105283135Y-64778706D01*
X104996314Y-64625397D01*
X104744918Y-64419082D01*
X104538603Y-64167686D01*
X104385294Y-63880865D01*
X104290888Y-63569654D01*
X104259012Y-63246000D01*
X104290888Y-62922346D01*
X104385294Y-62611135D01*
X104538603Y-62324314D01*
X104744918Y-62072918D01*
X104996314Y-61866603D01*
X105283135Y-61713294D01*
X105594346Y-61618888D01*
X105836893Y-61595000D01*
X105999107Y-61595000D01*
X106241654Y-61618888D01*
X106241654Y-61618888D01*
G37*
G36*
X187640180Y-59434662D02*
X187741635Y-59444654D01*
X187958600Y-59510470D01*
X187958602Y-59510471D01*
X187958605Y-59510472D01*
X188158556Y-59617347D01*
X188333818Y-59761182D01*
X188477653Y-59936444D01*
X188584528Y-60136395D01*
X188584529Y-60136398D01*
X188584530Y-60136400D01*
X188650346Y-60353365D01*
X188672569Y-60579000D01*
X188650346Y-60804635D01*
X188584530Y-61021600D01*
X188584528Y-61021605D01*
X188477653Y-61221556D01*
X188333818Y-61396818D01*
X188158556Y-61540653D01*
X187958605Y-61647528D01*
X187958602Y-61647529D01*
X187958600Y-61647530D01*
X187741635Y-61713346D01*
X187640180Y-61723338D01*
X187572545Y-61730000D01*
X187459455Y-61730000D01*
X187391820Y-61723338D01*
X187290365Y-61713346D01*
X187073400Y-61647530D01*
X187073398Y-61647529D01*
X187073395Y-61647528D01*
X186873444Y-61540653D01*
X186698182Y-61396818D01*
X186554347Y-61221556D01*
X186447472Y-61021605D01*
X186447470Y-61021600D01*
X186381654Y-60804635D01*
X186359431Y-60579000D01*
X186381654Y-60353365D01*
X186447470Y-60136400D01*
X186447471Y-60136398D01*
X186447472Y-60136395D01*
X186554347Y-59936444D01*
X186698182Y-59761182D01*
X186873444Y-59617347D01*
X187073395Y-59510472D01*
X187073398Y-59510471D01*
X187073400Y-59510470D01*
X187290365Y-59444654D01*
X187391820Y-59434662D01*
X187459455Y-59428000D01*
X187572545Y-59428000D01*
X187640180Y-59434662D01*
X187640180Y-59434662D01*
G37*
G36*
X65171500Y-60581500D02*
X63188500Y-60581500D01*
X63188500Y-58598500D01*
X65171500Y-58598500D01*
X65171500Y-60581500D01*
X65171500Y-60581500D01*
G37*
G36*
X57719210Y-58636603D02*
X57899651Y-58711344D01*
X58060950Y-58819121D01*
X58062047Y-58819854D01*
X58200146Y-58957953D01*
X58200148Y-58957956D01*
X58308656Y-59120349D01*
X58383397Y-59300790D01*
X58421500Y-59492346D01*
X58421500Y-59687654D01*
X58383397Y-59879210D01*
X58308656Y-60059651D01*
X58200879Y-60220950D01*
X58200146Y-60222047D01*
X58062047Y-60360146D01*
X58062044Y-60360148D01*
X57899651Y-60468656D01*
X57719210Y-60543397D01*
X57527654Y-60581500D01*
X57332346Y-60581500D01*
X57140790Y-60543397D01*
X56960349Y-60468656D01*
X56797956Y-60360148D01*
X56797953Y-60360146D01*
X56659854Y-60222047D01*
X56659121Y-60220950D01*
X56551344Y-60059651D01*
X56476603Y-59879210D01*
X56438500Y-59687654D01*
X56438500Y-59492346D01*
X56476603Y-59300790D01*
X56551344Y-59120349D01*
X56659852Y-58957956D01*
X56659854Y-58957953D01*
X56797953Y-58819854D01*
X56799050Y-58819121D01*
X56960349Y-58711344D01*
X57140790Y-58636603D01*
X57332346Y-58598500D01*
X57527654Y-58598500D01*
X57719210Y-58636603D01*
X57719210Y-58636603D01*
G37*
G36*
X129032000Y-59626500D02*
X125730000Y-59626500D01*
X125730000Y-56324500D01*
X129032000Y-56324500D01*
X129032000Y-59626500D01*
X129032000Y-59626500D01*
G37*
G36*
X142944654Y-56348388D02*
X143255865Y-56442794D01*
X143542686Y-56596103D01*
X143794082Y-56802418D01*
X144000397Y-57053814D01*
X144153706Y-57340635D01*
X144248112Y-57651846D01*
X144279988Y-57975500D01*
X144248112Y-58299154D01*
X144157305Y-58598500D01*
X144153705Y-58610367D01*
X144099732Y-58711344D01*
X144000397Y-58897186D01*
X143794082Y-59148582D01*
X143542686Y-59354897D01*
X143255865Y-59508206D01*
X142944654Y-59602612D01*
X142702107Y-59626500D01*
X142539893Y-59626500D01*
X142297346Y-59602612D01*
X141986135Y-59508206D01*
X141699314Y-59354897D01*
X141447918Y-59148582D01*
X141241603Y-58897186D01*
X141142268Y-58711344D01*
X141088295Y-58610367D01*
X141084695Y-58598500D01*
X140993888Y-58299154D01*
X140962012Y-57975500D01*
X140993888Y-57651846D01*
X141088294Y-57340635D01*
X141241603Y-57053814D01*
X141447918Y-56802418D01*
X141699314Y-56596103D01*
X141986135Y-56442794D01*
X142297346Y-56348388D01*
X142539893Y-56324500D01*
X142702107Y-56324500D01*
X142944654Y-56348388D01*
X142944654Y-56348388D01*
G37*
G36*
X179888142Y-52348242D02*
X180036102Y-52409530D01*
X180103130Y-52454317D01*
X180139325Y-52478501D01*
X180169258Y-52498502D01*
X180282498Y-52611742D01*
X180371470Y-52744898D01*
X180432758Y-52892858D01*
X180464000Y-53049925D01*
X180464000Y-53210075D01*
X180432758Y-53367142D01*
X180371470Y-53515102D01*
X180282498Y-53648258D01*
X180169258Y-53761498D01*
X180036102Y-53850470D01*
X179888142Y-53911758D01*
X179731075Y-53943000D01*
X179570925Y-53943000D01*
X179413858Y-53911758D01*
X179265898Y-53850470D01*
X179132742Y-53761498D01*
X179019502Y-53648258D01*
X178930530Y-53515102D01*
X178869242Y-53367142D01*
X178838000Y-53210075D01*
X178838000Y-53049925D01*
X178869242Y-52892858D01*
X178930530Y-52744898D01*
X179019502Y-52611742D01*
X179132742Y-52498502D01*
X179162676Y-52478501D01*
X179198870Y-52454317D01*
X179265898Y-52409530D01*
X179413858Y-52348242D01*
X179570925Y-52317000D01*
X179731075Y-52317000D01*
X179888142Y-52348242D01*
X179888142Y-52348242D01*
G37*
G36*
X113988142Y-52328242D02*
X114136102Y-52389530D01*
X114269258Y-52478502D01*
X114382498Y-52591742D01*
X114471470Y-52724898D01*
X114532758Y-52872858D01*
X114564000Y-53029925D01*
X114564000Y-53190075D01*
X114532758Y-53347142D01*
X114524473Y-53367143D01*
X114471471Y-53495100D01*
X114382499Y-53628257D01*
X114269257Y-53741499D01*
X114203130Y-53785683D01*
X114136102Y-53830470D01*
X113988142Y-53891758D01*
X113831075Y-53923000D01*
X113670925Y-53923000D01*
X113513858Y-53891758D01*
X113365898Y-53830470D01*
X113298870Y-53785683D01*
X113232743Y-53741499D01*
X113119501Y-53628257D01*
X113030529Y-53495100D01*
X112977527Y-53367143D01*
X112969242Y-53347142D01*
X112938000Y-53190075D01*
X112938000Y-53029925D01*
X112969242Y-52872858D01*
X113030530Y-52724898D01*
X113119502Y-52591742D01*
X113232742Y-52478502D01*
X113365898Y-52389530D01*
X113513858Y-52328242D01*
X113670925Y-52297000D01*
X113831075Y-52297000D01*
X113988142Y-52328242D01*
X113988142Y-52328242D01*
G37*
G36*
X182592852Y-50184898D02*
X182825122Y-50231099D01*
X183133410Y-50358796D01*
X183410862Y-50544184D01*
X183646816Y-50780138D01*
X183832204Y-51057590D01*
X183959901Y-51365878D01*
X183990008Y-51517238D01*
X184021022Y-51673154D01*
X184025000Y-51693156D01*
X184025000Y-52026844D01*
X183959901Y-52354122D01*
X183832204Y-52662410D01*
X183646816Y-52939862D01*
X183410862Y-53175816D01*
X183133410Y-53361204D01*
X182825122Y-53488901D01*
X182628755Y-53527960D01*
X182497846Y-53554000D01*
X182164154Y-53554000D01*
X182033245Y-53527960D01*
X181836878Y-53488901D01*
X181528590Y-53361204D01*
X181251138Y-53175816D01*
X181015184Y-52939862D01*
X180829796Y-52662410D01*
X180702099Y-52354122D01*
X180637000Y-52026844D01*
X180637000Y-51693156D01*
X180640979Y-51673154D01*
X180671992Y-51517238D01*
X180702099Y-51365878D01*
X180829796Y-51057590D01*
X181015184Y-50780138D01*
X181251138Y-50544184D01*
X181528590Y-50358796D01*
X181836878Y-50231099D01*
X182069148Y-50184898D01*
X182164154Y-50166000D01*
X182497846Y-50166000D01*
X182592852Y-50184898D01*
X182592852Y-50184898D01*
G37*
G36*
X116698392Y-50166000D02*
X116925122Y-50211099D01*
X117233410Y-50338796D01*
X117510862Y-50524184D01*
X117746816Y-50760138D01*
X117932204Y-51037590D01*
X118059901Y-51345878D01*
X118071263Y-51403000D01*
X118125000Y-51673154D01*
X118125000Y-52006846D01*
X118102013Y-52122409D01*
X118059901Y-52334122D01*
X117932204Y-52642410D01*
X117746816Y-52919862D01*
X117510862Y-53155816D01*
X117233410Y-53341204D01*
X116925122Y-53468901D01*
X116728755Y-53507960D01*
X116597846Y-53534000D01*
X116264154Y-53534000D01*
X116133245Y-53507960D01*
X115936878Y-53468901D01*
X115628590Y-53341204D01*
X115351138Y-53155816D01*
X115115184Y-52919862D01*
X114929796Y-52642410D01*
X114802099Y-52334122D01*
X114759987Y-52122409D01*
X114737000Y-52006846D01*
X114737000Y-51673154D01*
X114790737Y-51403000D01*
X114802099Y-51345878D01*
X114929796Y-51037590D01*
X115115184Y-50760138D01*
X115351138Y-50524184D01*
X115628590Y-50338796D01*
X115936878Y-50211099D01*
X116163608Y-50166000D01*
X116264154Y-50146000D01*
X116597846Y-50146000D01*
X116698392Y-50166000D01*
X116698392Y-50166000D01*
G37*
G36*
X124678527Y-50158736D02*
X124778410Y-50178604D01*
X125060674Y-50295521D01*
X125314705Y-50465259D01*
X125530741Y-50681295D01*
X125700479Y-50935326D01*
X125817396Y-51217590D01*
X125831893Y-51290470D01*
X125877000Y-51517238D01*
X125877000Y-51822762D01*
X125840383Y-52006846D01*
X125817396Y-52122410D01*
X125700479Y-52404674D01*
X125530741Y-52658705D01*
X125314705Y-52874741D01*
X125060674Y-53044479D01*
X124778410Y-53161396D01*
X124678527Y-53181264D01*
X124478762Y-53221000D01*
X124173238Y-53221000D01*
X123973473Y-53181264D01*
X123873590Y-53161396D01*
X123591326Y-53044479D01*
X123337295Y-52874741D01*
X123121259Y-52658705D01*
X122951521Y-52404674D01*
X122834604Y-52122410D01*
X122811617Y-52006846D01*
X122775000Y-51822762D01*
X122775000Y-51517238D01*
X122820107Y-51290470D01*
X122834604Y-51217590D01*
X122951521Y-50935326D01*
X123121259Y-50681295D01*
X123337295Y-50465259D01*
X123591326Y-50295521D01*
X123873590Y-50178604D01*
X123973473Y-50158736D01*
X124173238Y-50119000D01*
X124478762Y-50119000D01*
X124678527Y-50158736D01*
X124678527Y-50158736D01*
G37*
G36*
X132178527Y-50158736D02*
X132278410Y-50178604D01*
X132560674Y-50295521D01*
X132814705Y-50465259D01*
X133030741Y-50681295D01*
X133200479Y-50935326D01*
X133317396Y-51217590D01*
X133331893Y-51290470D01*
X133377000Y-51517238D01*
X133377000Y-51822762D01*
X133340383Y-52006846D01*
X133317396Y-52122410D01*
X133200479Y-52404674D01*
X133030741Y-52658705D01*
X132814705Y-52874741D01*
X132560674Y-53044479D01*
X132278410Y-53161396D01*
X132178527Y-53181264D01*
X131978762Y-53221000D01*
X131673238Y-53221000D01*
X131473473Y-53181264D01*
X131373590Y-53161396D01*
X131091326Y-53044479D01*
X130837295Y-52874741D01*
X130621259Y-52658705D01*
X130451521Y-52404674D01*
X130334604Y-52122410D01*
X130311617Y-52006846D01*
X130275000Y-51822762D01*
X130275000Y-51517238D01*
X130320107Y-51290470D01*
X130334604Y-51217590D01*
X130451521Y-50935326D01*
X130621259Y-50681295D01*
X130837295Y-50465259D01*
X131091326Y-50295521D01*
X131373590Y-50178604D01*
X131473473Y-50158736D01*
X131673238Y-50119000D01*
X131978762Y-50119000D01*
X132178527Y-50158736D01*
X132178527Y-50158736D01*
G37*
G36*
X179888142Y-49808242D02*
X180036102Y-49869530D01*
X180103130Y-49914317D01*
X180139325Y-49938501D01*
X180169258Y-49958502D01*
X180282498Y-50071742D01*
X180371470Y-50204898D01*
X180432758Y-50352858D01*
X180464000Y-50509925D01*
X180464000Y-50670075D01*
X180432758Y-50827142D01*
X180371470Y-50975102D01*
X180282498Y-51108258D01*
X180169258Y-51221498D01*
X180036102Y-51310470D01*
X179888142Y-51371758D01*
X179731075Y-51403000D01*
X179570925Y-51403000D01*
X179413858Y-51371758D01*
X179265898Y-51310470D01*
X179132742Y-51221498D01*
X179019502Y-51108258D01*
X178930530Y-50975102D01*
X178869242Y-50827142D01*
X178838000Y-50670075D01*
X178838000Y-50509925D01*
X178869242Y-50352858D01*
X178930530Y-50204898D01*
X179019502Y-50071742D01*
X179132742Y-49958502D01*
X179162676Y-49938501D01*
X179198870Y-49914317D01*
X179265898Y-49869530D01*
X179413858Y-49808242D01*
X179570925Y-49777000D01*
X179731075Y-49777000D01*
X179888142Y-49808242D01*
X179888142Y-49808242D01*
G37*
G36*
X113988142Y-49788242D02*
X114136102Y-49849530D01*
X114269258Y-49938502D01*
X114382498Y-50051742D01*
X114471470Y-50184898D01*
X114532758Y-50332858D01*
X114564000Y-50489925D01*
X114564000Y-50650075D01*
X114532758Y-50807142D01*
X114524473Y-50827143D01*
X114471471Y-50955100D01*
X114382499Y-51088257D01*
X114269257Y-51201499D01*
X114203130Y-51245683D01*
X114136102Y-51290470D01*
X113988142Y-51351758D01*
X113831075Y-51383000D01*
X113670925Y-51383000D01*
X113513858Y-51351758D01*
X113365898Y-51290470D01*
X113298870Y-51245683D01*
X113232743Y-51201499D01*
X113119501Y-51088257D01*
X113030529Y-50955100D01*
X112977527Y-50827143D01*
X112969242Y-50807142D01*
X112938000Y-50650075D01*
X112938000Y-50489925D01*
X112969242Y-50332858D01*
X113030530Y-50184898D01*
X113119502Y-50051742D01*
X113232742Y-49938502D01*
X113365898Y-49849530D01*
X113513858Y-49788242D01*
X113670925Y-49757000D01*
X113831075Y-49757000D01*
X113988142Y-49788242D01*
X113988142Y-49788242D01*
G37*
G36*
X179888142Y-47268242D02*
X180036102Y-47329530D01*
X180103130Y-47374317D01*
X180139325Y-47398501D01*
X180169258Y-47418502D01*
X180282498Y-47531742D01*
X180371470Y-47664898D01*
X180432758Y-47812858D01*
X180464000Y-47969925D01*
X180464000Y-48130075D01*
X180432758Y-48287142D01*
X180371470Y-48435102D01*
X180282498Y-48568258D01*
X180169258Y-48681498D01*
X180036102Y-48770470D01*
X179888142Y-48831758D01*
X179731075Y-48863000D01*
X179570925Y-48863000D01*
X179413858Y-48831758D01*
X179265898Y-48770470D01*
X179132742Y-48681498D01*
X179019502Y-48568258D01*
X178930530Y-48435102D01*
X178869242Y-48287142D01*
X178838000Y-48130075D01*
X178838000Y-47969925D01*
X178869242Y-47812858D01*
X178930530Y-47664898D01*
X179019502Y-47531742D01*
X179132742Y-47418502D01*
X179162676Y-47398501D01*
X179198870Y-47374317D01*
X179265898Y-47329530D01*
X179413858Y-47268242D01*
X179570925Y-47237000D01*
X179731075Y-47237000D01*
X179888142Y-47268242D01*
X179888142Y-47268242D01*
G37*
G36*
X113988142Y-47248242D02*
X114136102Y-47309530D01*
X114269258Y-47398502D01*
X114382498Y-47511742D01*
X114471470Y-47644898D01*
X114532758Y-47792858D01*
X114564000Y-47949925D01*
X114564000Y-48110075D01*
X114532758Y-48267142D01*
X114524473Y-48287143D01*
X114471471Y-48415100D01*
X114382499Y-48548257D01*
X114269257Y-48661499D01*
X114203130Y-48705683D01*
X114136102Y-48750470D01*
X113988142Y-48811758D01*
X113831075Y-48843000D01*
X113670925Y-48843000D01*
X113513858Y-48811758D01*
X113365898Y-48750470D01*
X113298870Y-48705683D01*
X113232743Y-48661499D01*
X113119501Y-48548257D01*
X113030529Y-48415100D01*
X112977527Y-48287143D01*
X112969242Y-48267142D01*
X112938000Y-48110075D01*
X112938000Y-47949925D01*
X112969242Y-47792858D01*
X113030530Y-47644898D01*
X113119502Y-47511742D01*
X113232742Y-47398502D01*
X113365898Y-47309530D01*
X113513858Y-47248242D01*
X113670925Y-47217000D01*
X113831075Y-47217000D01*
X113988142Y-47248242D01*
X113988142Y-47248242D01*
G37*
G36*
X182592852Y-45104898D02*
X182825122Y-45151099D01*
X183133410Y-45278796D01*
X183410862Y-45464184D01*
X183646816Y-45700138D01*
X183832204Y-45977590D01*
X183959901Y-46285878D01*
X183998960Y-46482245D01*
X184021022Y-46593154D01*
X184025000Y-46613156D01*
X184025000Y-46946844D01*
X183959901Y-47274122D01*
X183832204Y-47582410D01*
X183646816Y-47859862D01*
X183410862Y-48095816D01*
X183133410Y-48281204D01*
X182825122Y-48408901D01*
X182628755Y-48447960D01*
X182497846Y-48474000D01*
X182164154Y-48474000D01*
X182033245Y-48447960D01*
X181836878Y-48408901D01*
X181528590Y-48281204D01*
X181251138Y-48095816D01*
X181015184Y-47859862D01*
X180829796Y-47582410D01*
X180702099Y-47274122D01*
X180637000Y-46946844D01*
X180637000Y-46613156D01*
X180640979Y-46593154D01*
X180663040Y-46482245D01*
X180702099Y-46285878D01*
X180829796Y-45977590D01*
X181015184Y-45700138D01*
X181251138Y-45464184D01*
X181528590Y-45278796D01*
X181836878Y-45151099D01*
X182069148Y-45104898D01*
X182164154Y-45086000D01*
X182497846Y-45086000D01*
X182592852Y-45104898D01*
X182592852Y-45104898D01*
G37*
G36*
X116698392Y-45086000D02*
X116925122Y-45131099D01*
X117233410Y-45258796D01*
X117510862Y-45444184D01*
X117746816Y-45680138D01*
X117932204Y-45957590D01*
X118059901Y-46265878D01*
X118071263Y-46323000D01*
X118125000Y-46593154D01*
X118125000Y-46926846D01*
X118098960Y-47057755D01*
X118059901Y-47254122D01*
X117932204Y-47562410D01*
X117746816Y-47839862D01*
X117510862Y-48075816D01*
X117233410Y-48261204D01*
X116925122Y-48388901D01*
X116728755Y-48427960D01*
X116597846Y-48454000D01*
X116264154Y-48454000D01*
X116133245Y-48427960D01*
X115936878Y-48388901D01*
X115628590Y-48261204D01*
X115351138Y-48075816D01*
X115115184Y-47839862D01*
X114929796Y-47562410D01*
X114802099Y-47254122D01*
X114763040Y-47057755D01*
X114737000Y-46926846D01*
X114737000Y-46593154D01*
X114790737Y-46323000D01*
X114802099Y-46265878D01*
X114929796Y-45957590D01*
X115115184Y-45680138D01*
X115351138Y-45444184D01*
X115628590Y-45258796D01*
X115936878Y-45131099D01*
X116163608Y-45086000D01*
X116264154Y-45066000D01*
X116597846Y-45066000D01*
X116698392Y-45086000D01*
X116698392Y-45086000D01*
G37*
G36*
X132140133Y-45151099D02*
X132278410Y-45178604D01*
X132560674Y-45295521D01*
X132814705Y-45465259D01*
X133030741Y-45681295D01*
X133200479Y-45935326D01*
X133314447Y-46210471D01*
X133317396Y-46217591D01*
X133377000Y-46517238D01*
X133377000Y-46822762D01*
X133356296Y-46926846D01*
X133317396Y-47122410D01*
X133200479Y-47404674D01*
X133030741Y-47658705D01*
X132814705Y-47874741D01*
X132560674Y-48044479D01*
X132278410Y-48161396D01*
X132178527Y-48181264D01*
X131978762Y-48221000D01*
X131673238Y-48221000D01*
X131473473Y-48181264D01*
X131373590Y-48161396D01*
X131091326Y-48044479D01*
X130837295Y-47874741D01*
X130621259Y-47658705D01*
X130451521Y-47404674D01*
X130334604Y-47122410D01*
X130295704Y-46926846D01*
X130275000Y-46822762D01*
X130275000Y-46517238D01*
X130334604Y-46217591D01*
X130337553Y-46210471D01*
X130451521Y-45935326D01*
X130621259Y-45681295D01*
X130837295Y-45465259D01*
X131091326Y-45295521D01*
X131373590Y-45178604D01*
X131511867Y-45151099D01*
X131673238Y-45119000D01*
X131978762Y-45119000D01*
X132140133Y-45151099D01*
X132140133Y-45151099D01*
G37*
G36*
X124640133Y-45151099D02*
X124778410Y-45178604D01*
X125060674Y-45295521D01*
X125314705Y-45465259D01*
X125530741Y-45681295D01*
X125700479Y-45935326D01*
X125814447Y-46210471D01*
X125817396Y-46217591D01*
X125877000Y-46517238D01*
X125877000Y-46822762D01*
X125856296Y-46926846D01*
X125817396Y-47122410D01*
X125700479Y-47404674D01*
X125530741Y-47658705D01*
X125314705Y-47874741D01*
X125060674Y-48044479D01*
X124778410Y-48161396D01*
X124678527Y-48181264D01*
X124478762Y-48221000D01*
X124173238Y-48221000D01*
X123973473Y-48181264D01*
X123873590Y-48161396D01*
X123591326Y-48044479D01*
X123337295Y-47874741D01*
X123121259Y-47658705D01*
X122951521Y-47404674D01*
X122834604Y-47122410D01*
X122795704Y-46926846D01*
X122775000Y-46822762D01*
X122775000Y-46517238D01*
X122834604Y-46217591D01*
X122837553Y-46210471D01*
X122951521Y-45935326D01*
X123121259Y-45681295D01*
X123337295Y-45465259D01*
X123591326Y-45295521D01*
X123873590Y-45178604D01*
X124011867Y-45151099D01*
X124173238Y-45119000D01*
X124478762Y-45119000D01*
X124640133Y-45151099D01*
X124640133Y-45151099D01*
G37*
G36*
X179888142Y-44728242D02*
X180036102Y-44789530D01*
X180103130Y-44834317D01*
X180169257Y-44878501D01*
X180282499Y-44991743D01*
X180371471Y-45124900D01*
X180376807Y-45137782D01*
X180432758Y-45272858D01*
X180464000Y-45429925D01*
X180464000Y-45590075D01*
X180432758Y-45747142D01*
X180371470Y-45895102D01*
X180282498Y-46028258D01*
X180169258Y-46141498D01*
X180036102Y-46230470D01*
X179888142Y-46291758D01*
X179731075Y-46323000D01*
X179570925Y-46323000D01*
X179413858Y-46291758D01*
X179265898Y-46230470D01*
X179132742Y-46141498D01*
X179019502Y-46028258D01*
X178930530Y-45895102D01*
X178869242Y-45747142D01*
X178838000Y-45590075D01*
X178838000Y-45429925D01*
X178869242Y-45272858D01*
X178925193Y-45137782D01*
X178930529Y-45124900D01*
X179019501Y-44991743D01*
X179132743Y-44878501D01*
X179198870Y-44834317D01*
X179265898Y-44789530D01*
X179413858Y-44728242D01*
X179570925Y-44697000D01*
X179731075Y-44697000D01*
X179888142Y-44728242D01*
X179888142Y-44728242D01*
G37*
G36*
X113988142Y-44708242D02*
X114136102Y-44769530D01*
X114166034Y-44789530D01*
X114263115Y-44854397D01*
X114269258Y-44858502D01*
X114382498Y-44971742D01*
X114471470Y-45104898D01*
X114532758Y-45252858D01*
X114564000Y-45409925D01*
X114564000Y-45570075D01*
X114532758Y-45727142D01*
X114524473Y-45747143D01*
X114471471Y-45875100D01*
X114382499Y-46008257D01*
X114269257Y-46121499D01*
X114203130Y-46165683D01*
X114136102Y-46210470D01*
X113988142Y-46271758D01*
X113831075Y-46303000D01*
X113670925Y-46303000D01*
X113513858Y-46271758D01*
X113365898Y-46210470D01*
X113298870Y-46165683D01*
X113232743Y-46121499D01*
X113119501Y-46008257D01*
X113030529Y-45875100D01*
X112977527Y-45747143D01*
X112969242Y-45727142D01*
X112938000Y-45570075D01*
X112938000Y-45409925D01*
X112969242Y-45252858D01*
X113030530Y-45104898D01*
X113119502Y-44971742D01*
X113232742Y-44858502D01*
X113238886Y-44854397D01*
X113335966Y-44789530D01*
X113365898Y-44769530D01*
X113513858Y-44708242D01*
X113670925Y-44677000D01*
X113831075Y-44677000D01*
X113988142Y-44708242D01*
X113988142Y-44708242D01*
G37*
G36*
X47245039Y-41147825D02*
X47490279Y-41222218D01*
X47490281Y-41222219D01*
X47716295Y-41343026D01*
X47914396Y-41505603D01*
X47990271Y-41598057D01*
X48076975Y-41703706D01*
X48197782Y-41929720D01*
X48272175Y-42174960D01*
X48291000Y-42366095D01*
X48291000Y-43993905D01*
X48272175Y-44185040D01*
X48197782Y-44430280D01*
X48197781Y-44430282D01*
X48076974Y-44656296D01*
X47914397Y-44854397D01*
X47716296Y-45016974D01*
X47716294Y-45016975D01*
X47490280Y-45137782D01*
X47245040Y-45212175D01*
X46990000Y-45237294D01*
X46734961Y-45212175D01*
X46489721Y-45137782D01*
X46263707Y-45016975D01*
X46263705Y-45016974D01*
X46065604Y-44854397D01*
X45903027Y-44656296D01*
X45782218Y-44430278D01*
X45707825Y-44185042D01*
X45689000Y-43993906D01*
X45689000Y-42366095D01*
X45700481Y-42249529D01*
X45707825Y-42174961D01*
X45782218Y-41929721D01*
X45903025Y-41703707D01*
X45903026Y-41703705D01*
X46065603Y-41505604D01*
X46263705Y-41343026D01*
X46263704Y-41343026D01*
X46263706Y-41343025D01*
X46489720Y-41222218D01*
X46734960Y-41147825D01*
X46990000Y-41122706D01*
X47245039Y-41147825D01*
X47245039Y-41147825D01*
G37*
G36*
X37085039Y-41147825D02*
X37330279Y-41222218D01*
X37330281Y-41222219D01*
X37556295Y-41343026D01*
X37754396Y-41505603D01*
X37830271Y-41598057D01*
X37916975Y-41703706D01*
X38037782Y-41929720D01*
X38112175Y-42174960D01*
X38131000Y-42366095D01*
X38131000Y-43993905D01*
X38112175Y-44185040D01*
X38037782Y-44430280D01*
X38037781Y-44430282D01*
X37916974Y-44656296D01*
X37754397Y-44854397D01*
X37556296Y-45016974D01*
X37556294Y-45016975D01*
X37330280Y-45137782D01*
X37085040Y-45212175D01*
X36830000Y-45237294D01*
X36574961Y-45212175D01*
X36329721Y-45137782D01*
X36103707Y-45016975D01*
X36103705Y-45016974D01*
X35905604Y-44854397D01*
X35743027Y-44656296D01*
X35622218Y-44430278D01*
X35547825Y-44185042D01*
X35529000Y-43993906D01*
X35529000Y-42366095D01*
X35540481Y-42249529D01*
X35547825Y-42174961D01*
X35622218Y-41929721D01*
X35743025Y-41703707D01*
X35743026Y-41703705D01*
X35905603Y-41505604D01*
X36103705Y-41343026D01*
X36103704Y-41343026D01*
X36103706Y-41343025D01*
X36329720Y-41222218D01*
X36574960Y-41147825D01*
X36830000Y-41122706D01*
X37085039Y-41147825D01*
X37085039Y-41147825D01*
G37*
G36*
X182428142Y-42188242D02*
X182576102Y-42249530D01*
X182643130Y-42294317D01*
X182679325Y-42318501D01*
X182709258Y-42338502D01*
X182822498Y-42451742D01*
X182911470Y-42584898D01*
X182972758Y-42732858D01*
X183004000Y-42889925D01*
X183004000Y-43050075D01*
X182972758Y-43207142D01*
X182911470Y-43355102D01*
X182822498Y-43488258D01*
X182709258Y-43601498D01*
X182576102Y-43690470D01*
X182428142Y-43751758D01*
X182271075Y-43783000D01*
X182110925Y-43783000D01*
X181953858Y-43751758D01*
X181805898Y-43690470D01*
X181672742Y-43601498D01*
X181559502Y-43488258D01*
X181470530Y-43355102D01*
X181409242Y-43207142D01*
X181378000Y-43050075D01*
X181378000Y-42889925D01*
X181409242Y-42732858D01*
X181470530Y-42584898D01*
X181559502Y-42451742D01*
X181672742Y-42338502D01*
X181702676Y-42318501D01*
X181738870Y-42294317D01*
X181805898Y-42249530D01*
X181953858Y-42188242D01*
X182110925Y-42157000D01*
X182271075Y-42157000D01*
X182428142Y-42188242D01*
X182428142Y-42188242D01*
G37*
G36*
X116528142Y-42168242D02*
X116676102Y-42229530D01*
X116809258Y-42318502D01*
X116922498Y-42431742D01*
X117011470Y-42564898D01*
X117072758Y-42712858D01*
X117104000Y-42869925D01*
X117104000Y-43030075D01*
X117072758Y-43187142D01*
X117064473Y-43207143D01*
X117011471Y-43335100D01*
X116922499Y-43468257D01*
X116809257Y-43581499D01*
X116743130Y-43625683D01*
X116676102Y-43670470D01*
X116528142Y-43731758D01*
X116371075Y-43763000D01*
X116210925Y-43763000D01*
X116053858Y-43731758D01*
X115905898Y-43670470D01*
X115838870Y-43625683D01*
X115772743Y-43581499D01*
X115659501Y-43468257D01*
X115570529Y-43335100D01*
X115517527Y-43207143D01*
X115509242Y-43187142D01*
X115478000Y-43030075D01*
X115478000Y-42869925D01*
X115509242Y-42712858D01*
X115570530Y-42564898D01*
X115659502Y-42431742D01*
X115772742Y-42318502D01*
X115905898Y-42229530D01*
X116053858Y-42168242D01*
X116210925Y-42137000D01*
X116371075Y-42137000D01*
X116528142Y-42168242D01*
X116528142Y-42168242D01*
G37*
G36*
X124678527Y-40158736D02*
X124778410Y-40178604D01*
X125060674Y-40295521D01*
X125314705Y-40465259D01*
X125530741Y-40681295D01*
X125700479Y-40935326D01*
X125817396Y-41217590D01*
X125822304Y-41242265D01*
X125877000Y-41517238D01*
X125877000Y-41822762D01*
X125855724Y-41929721D01*
X125817396Y-42122410D01*
X125700479Y-42404674D01*
X125530741Y-42658705D01*
X125314705Y-42874741D01*
X125060674Y-43044479D01*
X124778410Y-43161396D01*
X124678527Y-43181264D01*
X124478762Y-43221000D01*
X124173238Y-43221000D01*
X123973473Y-43181264D01*
X123873590Y-43161396D01*
X123591326Y-43044479D01*
X123337295Y-42874741D01*
X123121259Y-42658705D01*
X122951521Y-42404674D01*
X122834604Y-42122410D01*
X122796276Y-41929721D01*
X122775000Y-41822762D01*
X122775000Y-41517238D01*
X122829696Y-41242265D01*
X122834604Y-41217590D01*
X122951521Y-40935326D01*
X123121259Y-40681295D01*
X123337295Y-40465259D01*
X123591326Y-40295521D01*
X123873590Y-40178604D01*
X123973473Y-40158736D01*
X124173238Y-40119000D01*
X124478762Y-40119000D01*
X124678527Y-40158736D01*
X124678527Y-40158736D01*
G37*
G36*
X132178527Y-40158736D02*
X132278410Y-40178604D01*
X132560674Y-40295521D01*
X132814705Y-40465259D01*
X133030741Y-40681295D01*
X133200479Y-40935326D01*
X133317396Y-41217590D01*
X133322304Y-41242265D01*
X133377000Y-41517238D01*
X133377000Y-41822762D01*
X133355724Y-41929721D01*
X133317396Y-42122410D01*
X133200479Y-42404674D01*
X133030741Y-42658705D01*
X132814705Y-42874741D01*
X132560674Y-43044479D01*
X132278410Y-43161396D01*
X132178527Y-43181264D01*
X131978762Y-43221000D01*
X131673238Y-43221000D01*
X131473473Y-43181264D01*
X131373590Y-43161396D01*
X131091326Y-43044479D01*
X130837295Y-42874741D01*
X130621259Y-42658705D01*
X130451521Y-42404674D01*
X130334604Y-42122410D01*
X130296276Y-41929721D01*
X130275000Y-41822762D01*
X130275000Y-41517238D01*
X130329696Y-41242265D01*
X130334604Y-41217590D01*
X130451521Y-40935326D01*
X130621259Y-40681295D01*
X130837295Y-40465259D01*
X131091326Y-40295521D01*
X131373590Y-40178604D01*
X131473473Y-40158736D01*
X131673238Y-40119000D01*
X131978762Y-40119000D01*
X132178527Y-40158736D01*
X132178527Y-40158736D01*
G37*
G36*
X19876032Y-38986707D02*
X20074146Y-39046805D01*
X20256729Y-39144397D01*
X20416765Y-39275735D01*
X20548103Y-39435771D01*
X20577811Y-39491352D01*
X20645695Y-39618353D01*
X20667286Y-39689529D01*
X20705793Y-39816469D01*
X20721000Y-39970871D01*
X20721000Y-40674130D01*
X20705793Y-40828532D01*
X20645695Y-41026646D01*
X20548103Y-41209229D01*
X20520388Y-41243000D01*
X20416768Y-41369262D01*
X20416766Y-41369263D01*
X20416765Y-41369265D01*
X20256729Y-41500603D01*
X20074145Y-41598195D01*
X19876031Y-41658293D01*
X19670000Y-41678585D01*
X19463968Y-41658293D01*
X19265854Y-41598195D01*
X19083271Y-41500603D01*
X19019257Y-41448068D01*
X18923238Y-41369268D01*
X18923237Y-41369266D01*
X18923235Y-41369265D01*
X18791897Y-41209229D01*
X18694305Y-41026645D01*
X18634207Y-40828531D01*
X18619000Y-40674129D01*
X18619000Y-39970870D01*
X18634207Y-39816468D01*
X18691306Y-39628242D01*
X18694306Y-39618352D01*
X18791899Y-39435769D01*
X18923236Y-39275735D01*
X18973786Y-39234250D01*
X19083272Y-39144397D01*
X19265855Y-39046805D01*
X19463969Y-38986707D01*
X19670000Y-38966415D01*
X19876032Y-38986707D01*
X19876032Y-38986707D01*
G37*
G36*
X23376032Y-38986707D02*
X23574146Y-39046805D01*
X23756729Y-39144397D01*
X23916765Y-39275735D01*
X24048103Y-39435771D01*
X24077811Y-39491352D01*
X24145695Y-39618353D01*
X24167286Y-39689529D01*
X24205793Y-39816469D01*
X24221000Y-39970871D01*
X24221000Y-40674130D01*
X24205793Y-40828532D01*
X24145695Y-41026646D01*
X24048103Y-41209229D01*
X24020388Y-41243000D01*
X23916768Y-41369262D01*
X23916766Y-41369263D01*
X23916765Y-41369265D01*
X23756729Y-41500603D01*
X23574145Y-41598195D01*
X23376031Y-41658293D01*
X23170000Y-41678585D01*
X22963968Y-41658293D01*
X22765854Y-41598195D01*
X22583271Y-41500603D01*
X22519257Y-41448068D01*
X22423238Y-41369268D01*
X22423237Y-41369266D01*
X22423235Y-41369265D01*
X22291897Y-41209229D01*
X22194305Y-41026645D01*
X22134207Y-40828531D01*
X22119000Y-40674129D01*
X22119000Y-39970870D01*
X22134207Y-39816468D01*
X22191306Y-39628242D01*
X22194306Y-39618352D01*
X22291899Y-39435769D01*
X22423236Y-39275735D01*
X22473786Y-39234250D01*
X22583272Y-39144397D01*
X22765855Y-39046805D01*
X22963969Y-38986707D01*
X23170000Y-38966415D01*
X23376032Y-38986707D01*
X23376032Y-38986707D01*
G37*
G36*
X27584851Y-38975340D02*
X27616443Y-38984923D01*
X27645557Y-39000485D01*
X27671073Y-39021427D01*
X27692015Y-39046943D01*
X27707577Y-39076057D01*
X27717160Y-39107649D01*
X27721000Y-39146640D01*
X27721000Y-41498360D01*
X27717160Y-41537351D01*
X27707577Y-41568943D01*
X27692015Y-41598057D01*
X27671073Y-41623573D01*
X27645557Y-41644515D01*
X27616443Y-41660077D01*
X27584851Y-41669660D01*
X27545860Y-41673500D01*
X25794140Y-41673500D01*
X25755149Y-41669660D01*
X25723557Y-41660077D01*
X25694443Y-41644515D01*
X25668927Y-41623573D01*
X25647985Y-41598057D01*
X25632423Y-41568943D01*
X25622840Y-41537351D01*
X25619000Y-41498360D01*
X25619000Y-39146640D01*
X25622840Y-39107649D01*
X25632423Y-39076057D01*
X25647985Y-39046943D01*
X25668927Y-39021427D01*
X25694443Y-39000485D01*
X25723557Y-38984923D01*
X25755149Y-38975340D01*
X25794140Y-38971500D01*
X27545860Y-38971500D01*
X27584851Y-38975340D01*
X27584851Y-38975340D01*
G37*
G36*
X67318032Y-38859707D02*
X67516146Y-38919805D01*
X67698729Y-39017397D01*
X67858765Y-39148735D01*
X67990103Y-39308771D01*
X68035531Y-39393761D01*
X68087695Y-39491353D01*
X68117744Y-39590412D01*
X68147793Y-39689469D01*
X68147793Y-39689471D01*
X68160302Y-39816472D01*
X68163000Y-39843871D01*
X68163000Y-40547130D01*
X68147793Y-40701532D01*
X68087695Y-40899646D01*
X67990103Y-41082229D01*
X67990101Y-41082231D01*
X67858768Y-41242262D01*
X67858766Y-41242263D01*
X67858765Y-41242265D01*
X67698729Y-41373603D01*
X67516145Y-41471195D01*
X67318031Y-41531293D01*
X67112000Y-41551585D01*
X66905968Y-41531293D01*
X66707854Y-41471195D01*
X66525271Y-41373603D01*
X66461257Y-41321068D01*
X66365238Y-41242268D01*
X66365237Y-41242266D01*
X66365235Y-41242265D01*
X66233897Y-41082229D01*
X66136305Y-40899645D01*
X66076207Y-40701531D01*
X66061000Y-40547129D01*
X66061000Y-39843870D01*
X66076207Y-39689468D01*
X66116273Y-39557392D01*
X66136306Y-39491352D01*
X66233899Y-39308769D01*
X66365236Y-39148735D01*
X66383556Y-39133700D01*
X66525272Y-39017397D01*
X66707855Y-38919805D01*
X66905969Y-38859707D01*
X67112000Y-38839415D01*
X67318032Y-38859707D01*
X67318032Y-38859707D01*
G37*
G36*
X71526851Y-38848340D02*
X71558443Y-38857923D01*
X71587557Y-38873485D01*
X71613073Y-38894427D01*
X71634015Y-38919943D01*
X71649577Y-38949057D01*
X71659160Y-38980649D01*
X71663000Y-39019640D01*
X71663000Y-41371360D01*
X71659160Y-41410351D01*
X71649577Y-41441943D01*
X71634015Y-41471057D01*
X71613073Y-41496573D01*
X71587557Y-41517515D01*
X71558443Y-41533077D01*
X71526851Y-41542660D01*
X71487860Y-41546500D01*
X69736140Y-41546500D01*
X69697149Y-41542660D01*
X69665557Y-41533077D01*
X69636443Y-41517515D01*
X69610927Y-41496573D01*
X69589985Y-41471057D01*
X69574423Y-41441943D01*
X69564840Y-41410351D01*
X69561000Y-41371360D01*
X69561000Y-39019640D01*
X69564840Y-38980649D01*
X69574423Y-38949057D01*
X69589985Y-38919943D01*
X69610927Y-38894427D01*
X69636443Y-38873485D01*
X69665557Y-38857923D01*
X69697149Y-38848340D01*
X69736140Y-38844500D01*
X71487860Y-38844500D01*
X71526851Y-38848340D01*
X71526851Y-38848340D01*
G37*
G36*
X182428142Y-39648242D02*
X182576102Y-39709530D01*
X182643130Y-39754317D01*
X182679325Y-39778501D01*
X182709258Y-39798502D01*
X182822498Y-39911742D01*
X182911470Y-40044898D01*
X182972758Y-40192858D01*
X183004000Y-40349925D01*
X183004000Y-40510075D01*
X182972758Y-40667142D01*
X182911470Y-40815102D01*
X182822498Y-40948258D01*
X182709258Y-41061498D01*
X182576102Y-41150470D01*
X182428142Y-41211758D01*
X182271075Y-41243000D01*
X182110925Y-41243000D01*
X181953858Y-41211758D01*
X181805898Y-41150470D01*
X181672742Y-41061498D01*
X181559502Y-40948258D01*
X181470530Y-40815102D01*
X181409242Y-40667142D01*
X181378000Y-40510075D01*
X181378000Y-40349925D01*
X181409242Y-40192858D01*
X181470530Y-40044898D01*
X181559502Y-39911742D01*
X181672742Y-39798502D01*
X181702676Y-39778501D01*
X181738870Y-39754317D01*
X181805898Y-39709530D01*
X181953858Y-39648242D01*
X182110925Y-39617000D01*
X182271075Y-39617000D01*
X182428142Y-39648242D01*
X182428142Y-39648242D01*
G37*
G36*
X116528142Y-39628242D02*
X116642583Y-39675646D01*
X116675953Y-39689468D01*
X116676102Y-39689530D01*
X116809258Y-39778502D01*
X116922498Y-39891742D01*
X117011470Y-40024898D01*
X117072758Y-40172858D01*
X117104000Y-40329925D01*
X117104000Y-40490075D01*
X117072758Y-40647142D01*
X117025354Y-40761583D01*
X117011471Y-40795100D01*
X116922499Y-40928257D01*
X116809257Y-41041499D01*
X116748303Y-41082227D01*
X116676102Y-41130470D01*
X116528142Y-41191758D01*
X116371075Y-41223000D01*
X116210925Y-41223000D01*
X116053858Y-41191758D01*
X115905898Y-41130470D01*
X115833697Y-41082227D01*
X115772743Y-41041499D01*
X115659501Y-40928257D01*
X115570529Y-40795100D01*
X115556646Y-40761583D01*
X115509242Y-40647142D01*
X115478000Y-40490075D01*
X115478000Y-40329925D01*
X115509242Y-40172858D01*
X115570530Y-40024898D01*
X115659502Y-39891742D01*
X115772742Y-39778502D01*
X115905898Y-39689530D01*
X115906048Y-39689468D01*
X115939417Y-39675646D01*
X116053858Y-39628242D01*
X116210925Y-39597000D01*
X116371075Y-39597000D01*
X116528142Y-39628242D01*
X116528142Y-39628242D01*
G37*
G36*
X182428142Y-37108242D02*
X182576102Y-37169530D01*
X182643130Y-37214317D01*
X182679325Y-37238501D01*
X182709258Y-37258502D01*
X182822498Y-37371742D01*
X182911470Y-37504898D01*
X182972758Y-37652858D01*
X183004000Y-37809925D01*
X183004000Y-37970075D01*
X182972758Y-38127142D01*
X182911470Y-38275102D01*
X182822498Y-38408258D01*
X182709258Y-38521498D01*
X182576102Y-38610470D01*
X182428142Y-38671758D01*
X182271075Y-38703000D01*
X182110925Y-38703000D01*
X181953858Y-38671758D01*
X181805898Y-38610470D01*
X181672742Y-38521498D01*
X181559502Y-38408258D01*
X181470530Y-38275102D01*
X181409242Y-38127142D01*
X181378000Y-37970075D01*
X181378000Y-37809925D01*
X181409242Y-37652858D01*
X181470530Y-37504898D01*
X181559502Y-37371742D01*
X181672742Y-37258502D01*
X181702676Y-37238501D01*
X181738870Y-37214317D01*
X181805898Y-37169530D01*
X181953858Y-37108242D01*
X182110925Y-37077000D01*
X182271075Y-37077000D01*
X182428142Y-37108242D01*
X182428142Y-37108242D01*
G37*
G36*
X116528142Y-37088242D02*
X116676102Y-37149530D01*
X116809258Y-37238502D01*
X116922498Y-37351742D01*
X117011470Y-37484898D01*
X117072758Y-37632858D01*
X117104000Y-37789925D01*
X117104000Y-37950075D01*
X117072758Y-38107142D01*
X117064473Y-38127143D01*
X117011471Y-38255100D01*
X116922499Y-38388257D01*
X116809257Y-38501499D01*
X116743130Y-38545683D01*
X116676102Y-38590470D01*
X116528142Y-38651758D01*
X116371075Y-38683000D01*
X116210925Y-38683000D01*
X116053858Y-38651758D01*
X115905898Y-38590470D01*
X115838870Y-38545683D01*
X115772743Y-38501499D01*
X115659501Y-38388257D01*
X115570529Y-38255100D01*
X115517527Y-38127143D01*
X115509242Y-38107142D01*
X115478000Y-37950075D01*
X115478000Y-37789925D01*
X115509242Y-37632858D01*
X115570530Y-37484898D01*
X115659502Y-37351742D01*
X115772742Y-37238502D01*
X115905898Y-37149530D01*
X116053858Y-37088242D01*
X116210925Y-37057000D01*
X116371075Y-37057000D01*
X116528142Y-37088242D01*
X116528142Y-37088242D01*
G37*
G36*
X43211000Y-37611000D02*
X40609000Y-37611000D01*
X40609000Y-33509000D01*
X43211000Y-33509000D01*
X43211000Y-37611000D01*
X43211000Y-37611000D01*
G37*
G36*
X182428142Y-34568242D02*
X182576102Y-34629530D01*
X182643130Y-34674317D01*
X182679325Y-34698501D01*
X182709258Y-34718502D01*
X182822498Y-34831742D01*
X182911470Y-34964898D01*
X182972758Y-35112858D01*
X183004000Y-35269925D01*
X183004000Y-35430075D01*
X182972758Y-35587142D01*
X182911470Y-35735102D01*
X182822498Y-35868258D01*
X182709258Y-35981498D01*
X182576102Y-36070470D01*
X182428142Y-36131758D01*
X182271075Y-36163000D01*
X182110925Y-36163000D01*
X181953858Y-36131758D01*
X181805898Y-36070470D01*
X181672742Y-35981498D01*
X181559502Y-35868258D01*
X181470530Y-35735102D01*
X181409242Y-35587142D01*
X181378000Y-35430075D01*
X181378000Y-35269925D01*
X181409242Y-35112858D01*
X181470530Y-34964898D01*
X181559502Y-34831742D01*
X181672742Y-34718502D01*
X181702676Y-34698501D01*
X181738870Y-34674317D01*
X181805898Y-34629530D01*
X181953858Y-34568242D01*
X182110925Y-34537000D01*
X182271075Y-34537000D01*
X182428142Y-34568242D01*
X182428142Y-34568242D01*
G37*
G36*
X116528142Y-34548242D02*
X116676102Y-34609530D01*
X116809258Y-34698502D01*
X116922498Y-34811742D01*
X117011470Y-34944898D01*
X117072758Y-35092858D01*
X117104000Y-35249925D01*
X117104000Y-35410075D01*
X117072758Y-35567142D01*
X117064473Y-35587143D01*
X117011471Y-35715100D01*
X116922499Y-35848257D01*
X116809257Y-35961499D01*
X116743130Y-36005683D01*
X116676102Y-36050470D01*
X116528142Y-36111758D01*
X116371075Y-36143000D01*
X116210925Y-36143000D01*
X116053858Y-36111758D01*
X115905898Y-36050470D01*
X115838870Y-36005683D01*
X115772743Y-35961499D01*
X115659501Y-35848257D01*
X115570529Y-35715100D01*
X115517527Y-35587143D01*
X115509242Y-35567142D01*
X115478000Y-35410075D01*
X115478000Y-35249925D01*
X115509242Y-35092858D01*
X115570530Y-34944898D01*
X115659502Y-34811742D01*
X115772742Y-34698502D01*
X115905898Y-34609530D01*
X116053858Y-34548242D01*
X116210925Y-34517000D01*
X116371075Y-34517000D01*
X116528142Y-34548242D01*
X116528142Y-34548242D01*
G37*
G36*
X182428142Y-32028242D02*
X182576102Y-32089530D01*
X182643130Y-32134317D01*
X182679325Y-32158501D01*
X182709258Y-32178502D01*
X182822498Y-32291742D01*
X182911470Y-32424898D01*
X182972758Y-32572858D01*
X183004000Y-32729925D01*
X183004000Y-32890075D01*
X182972758Y-33047142D01*
X182911470Y-33195102D01*
X182822498Y-33328258D01*
X182709258Y-33441498D01*
X182576102Y-33530470D01*
X182428142Y-33591758D01*
X182271075Y-33623000D01*
X182110925Y-33623000D01*
X181953858Y-33591758D01*
X181805898Y-33530470D01*
X181672742Y-33441498D01*
X181559502Y-33328258D01*
X181470530Y-33195102D01*
X181409242Y-33047142D01*
X181378000Y-32890075D01*
X181378000Y-32729925D01*
X181409242Y-32572858D01*
X181470530Y-32424898D01*
X181559502Y-32291742D01*
X181672742Y-32178502D01*
X181702676Y-32158501D01*
X181738870Y-32134317D01*
X181805898Y-32089530D01*
X181953858Y-32028242D01*
X182110925Y-31997000D01*
X182271075Y-31997000D01*
X182428142Y-32028242D01*
X182428142Y-32028242D01*
G37*
G36*
X116528142Y-32008242D02*
X116676102Y-32069530D01*
X116809258Y-32158502D01*
X116922498Y-32271742D01*
X117011470Y-32404898D01*
X117072758Y-32552858D01*
X117104000Y-32709925D01*
X117104000Y-32870075D01*
X117072758Y-33027142D01*
X117064473Y-33047143D01*
X117011471Y-33175100D01*
X116922499Y-33308257D01*
X116809257Y-33421499D01*
X116743130Y-33465683D01*
X116676102Y-33510470D01*
X116528142Y-33571758D01*
X116371075Y-33603000D01*
X116210925Y-33603000D01*
X116053858Y-33571758D01*
X115905898Y-33510470D01*
X115838870Y-33465683D01*
X115772743Y-33421499D01*
X115659501Y-33308257D01*
X115570529Y-33175100D01*
X115517527Y-33047143D01*
X115509242Y-33027142D01*
X115478000Y-32870075D01*
X115478000Y-32709925D01*
X115509242Y-32552858D01*
X115570530Y-32404898D01*
X115659502Y-32271742D01*
X115772742Y-32158502D01*
X115905898Y-32069530D01*
X116053858Y-32008242D01*
X116210925Y-31977000D01*
X116371075Y-31977000D01*
X116528142Y-32008242D01*
X116528142Y-32008242D01*
G37*
G36*
X179888142Y-29488242D02*
X180036102Y-29549530D01*
X180103130Y-29594317D01*
X180139325Y-29618501D01*
X180169258Y-29638502D01*
X180282498Y-29751742D01*
X180371470Y-29884898D01*
X180432758Y-30032858D01*
X180464000Y-30189925D01*
X180464000Y-30350075D01*
X180432758Y-30507142D01*
X180371470Y-30655102D01*
X180282498Y-30788258D01*
X180169258Y-30901498D01*
X180036102Y-30990470D01*
X179888142Y-31051758D01*
X179731075Y-31083000D01*
X179570925Y-31083000D01*
X179413858Y-31051758D01*
X179265898Y-30990470D01*
X179132742Y-30901498D01*
X179019502Y-30788258D01*
X178930530Y-30655102D01*
X178869242Y-30507142D01*
X178838000Y-30350075D01*
X178838000Y-30189925D01*
X178869242Y-30032858D01*
X178930530Y-29884898D01*
X179019502Y-29751742D01*
X179132742Y-29638502D01*
X179162676Y-29618501D01*
X179198870Y-29594317D01*
X179265898Y-29549530D01*
X179413858Y-29488242D01*
X179570925Y-29457000D01*
X179731075Y-29457000D01*
X179888142Y-29488242D01*
X179888142Y-29488242D01*
G37*
G36*
X113988142Y-29468242D02*
X114136102Y-29529530D01*
X114269258Y-29618502D01*
X114382498Y-29731742D01*
X114471470Y-29864898D01*
X114532758Y-30012858D01*
X114564000Y-30169925D01*
X114564000Y-30330075D01*
X114532758Y-30487142D01*
X114524473Y-30507143D01*
X114471471Y-30635100D01*
X114382499Y-30768257D01*
X114269257Y-30881499D01*
X114203130Y-30925683D01*
X114136102Y-30970470D01*
X113988142Y-31031758D01*
X113831075Y-31063000D01*
X113670925Y-31063000D01*
X113513858Y-31031758D01*
X113365898Y-30970470D01*
X113298870Y-30925683D01*
X113232743Y-30881499D01*
X113119501Y-30768257D01*
X113030529Y-30635100D01*
X112977527Y-30507143D01*
X112969242Y-30487142D01*
X112938000Y-30330075D01*
X112938000Y-30169925D01*
X112969242Y-30012858D01*
X113030530Y-29864898D01*
X113119502Y-29731742D01*
X113232742Y-29618502D01*
X113365898Y-29529530D01*
X113513858Y-29468242D01*
X113670925Y-29437000D01*
X113831075Y-29437000D01*
X113988142Y-29468242D01*
X113988142Y-29468242D01*
G37*
G36*
X182461852Y-27324898D02*
X182694122Y-27371099D01*
X183002410Y-27498796D01*
X183279862Y-27684184D01*
X183515816Y-27920138D01*
X183701204Y-28197590D01*
X183828901Y-28505878D01*
X183867960Y-28702245D01*
X183890022Y-28813154D01*
X183894000Y-28833156D01*
X183894000Y-29166844D01*
X183828901Y-29494122D01*
X183701204Y-29802410D01*
X183515816Y-30079862D01*
X183279862Y-30315816D01*
X183002410Y-30501204D01*
X182694122Y-30628901D01*
X182497755Y-30667960D01*
X182366846Y-30694000D01*
X182033154Y-30694000D01*
X181902245Y-30667960D01*
X181705878Y-30628901D01*
X181397590Y-30501204D01*
X181120138Y-30315816D01*
X180884184Y-30079862D01*
X180698796Y-29802410D01*
X180571099Y-29494122D01*
X180506000Y-29166844D01*
X180506000Y-28833156D01*
X180509979Y-28813154D01*
X180532040Y-28702245D01*
X180571099Y-28505878D01*
X180698796Y-28197590D01*
X180884184Y-27920138D01*
X181120138Y-27684184D01*
X181397590Y-27498796D01*
X181705878Y-27371099D01*
X181938148Y-27324898D01*
X182033154Y-27306000D01*
X182366846Y-27306000D01*
X182461852Y-27324898D01*
X182461852Y-27324898D01*
G37*
G36*
X116567392Y-27306000D02*
X116794122Y-27351099D01*
X117102410Y-27478796D01*
X117379862Y-27664184D01*
X117615816Y-27900138D01*
X117801204Y-28177590D01*
X117928901Y-28485878D01*
X117940263Y-28543000D01*
X117994000Y-28813154D01*
X117994000Y-29146846D01*
X117967960Y-29277755D01*
X117928901Y-29474122D01*
X117801204Y-29782410D01*
X117615816Y-30059862D01*
X117379862Y-30295816D01*
X117102410Y-30481204D01*
X116794122Y-30608901D01*
X116597755Y-30647960D01*
X116466846Y-30674000D01*
X116133154Y-30674000D01*
X116002245Y-30647960D01*
X115805878Y-30608901D01*
X115497590Y-30481204D01*
X115220138Y-30295816D01*
X114984184Y-30059862D01*
X114798796Y-29782410D01*
X114671099Y-29474122D01*
X114632040Y-29277755D01*
X114606000Y-29146846D01*
X114606000Y-28813154D01*
X114659737Y-28543000D01*
X114671099Y-28485878D01*
X114798796Y-28177590D01*
X114984184Y-27900138D01*
X115220138Y-27664184D01*
X115497590Y-27478796D01*
X115805878Y-27351099D01*
X116032608Y-27306000D01*
X116133154Y-27286000D01*
X116466846Y-27286000D01*
X116567392Y-27306000D01*
X116567392Y-27306000D01*
G37*
G36*
X179888142Y-26948242D02*
X180036102Y-27009530D01*
X180103130Y-27054317D01*
X180139325Y-27078501D01*
X180169258Y-27098502D01*
X180282498Y-27211742D01*
X180371470Y-27344898D01*
X180432758Y-27492858D01*
X180464000Y-27649925D01*
X180464000Y-27810075D01*
X180432758Y-27967142D01*
X180371470Y-28115102D01*
X180282498Y-28248258D01*
X180169258Y-28361498D01*
X180036102Y-28450470D01*
X179888142Y-28511758D01*
X179731075Y-28543000D01*
X179570925Y-28543000D01*
X179413858Y-28511758D01*
X179265898Y-28450470D01*
X179132742Y-28361498D01*
X179019502Y-28248258D01*
X178930530Y-28115102D01*
X178869242Y-27967142D01*
X178838000Y-27810075D01*
X178838000Y-27649925D01*
X178869242Y-27492858D01*
X178930530Y-27344898D01*
X179019502Y-27211742D01*
X179132742Y-27098502D01*
X179162676Y-27078501D01*
X179198870Y-27054317D01*
X179265898Y-27009530D01*
X179413858Y-26948242D01*
X179570925Y-26917000D01*
X179731075Y-26917000D01*
X179888142Y-26948242D01*
X179888142Y-26948242D01*
G37*
G36*
X113988142Y-26928242D02*
X114136102Y-26989530D01*
X114269258Y-27078502D01*
X114382498Y-27191742D01*
X114471470Y-27324898D01*
X114532758Y-27472858D01*
X114564000Y-27629925D01*
X114564000Y-27790075D01*
X114532758Y-27947142D01*
X114524473Y-27967143D01*
X114471471Y-28095100D01*
X114382499Y-28228257D01*
X114269257Y-28341499D01*
X114203130Y-28385683D01*
X114136102Y-28430470D01*
X113988142Y-28491758D01*
X113831075Y-28523000D01*
X113670925Y-28523000D01*
X113513858Y-28491758D01*
X113365898Y-28430470D01*
X113298870Y-28385683D01*
X113232743Y-28341499D01*
X113119501Y-28228257D01*
X113030529Y-28095100D01*
X112977527Y-27967143D01*
X112969242Y-27947142D01*
X112938000Y-27790075D01*
X112938000Y-27629925D01*
X112969242Y-27472858D01*
X113030530Y-27324898D01*
X113119502Y-27191742D01*
X113232742Y-27078502D01*
X113365898Y-26989530D01*
X113513858Y-26928242D01*
X113670925Y-26897000D01*
X113831075Y-26897000D01*
X113988142Y-26928242D01*
X113988142Y-26928242D01*
G37*
G36*
X133377000Y-28221000D02*
X130275000Y-28221000D01*
X130275000Y-25119000D01*
X133377000Y-25119000D01*
X133377000Y-28221000D01*
X133377000Y-28221000D01*
G37*
G36*
X124678527Y-25158736D02*
X124778410Y-25178604D01*
X125060674Y-25295521D01*
X125314705Y-25465259D01*
X125530741Y-25681295D01*
X125700479Y-25935326D01*
X125728510Y-26003000D01*
X125817396Y-26217591D01*
X125877000Y-26517238D01*
X125877000Y-26822762D01*
X125839849Y-27009529D01*
X125817396Y-27122410D01*
X125700479Y-27404674D01*
X125530741Y-27658705D01*
X125314705Y-27874741D01*
X125060674Y-28044479D01*
X124778410Y-28161396D01*
X124696997Y-28177590D01*
X124478762Y-28221000D01*
X124173238Y-28221000D01*
X123955003Y-28177590D01*
X123873590Y-28161396D01*
X123591326Y-28044479D01*
X123337295Y-27874741D01*
X123121259Y-27658705D01*
X122951521Y-27404674D01*
X122834604Y-27122410D01*
X122812151Y-27009529D01*
X122775000Y-26822762D01*
X122775000Y-26517238D01*
X122834604Y-26217591D01*
X122923490Y-26003000D01*
X122951521Y-25935326D01*
X123121259Y-25681295D01*
X123337295Y-25465259D01*
X123591326Y-25295521D01*
X123873590Y-25178604D01*
X123973473Y-25158736D01*
X124173238Y-25119000D01*
X124478762Y-25119000D01*
X124678527Y-25158736D01*
X124678527Y-25158736D01*
G37*
G36*
X179888142Y-24408242D02*
X180036102Y-24469530D01*
X180103130Y-24514317D01*
X180139325Y-24538501D01*
X180169258Y-24558502D01*
X180282498Y-24671742D01*
X180371470Y-24804898D01*
X180432758Y-24952858D01*
X180464000Y-25109925D01*
X180464000Y-25270075D01*
X180432758Y-25427142D01*
X180416969Y-25465259D01*
X180371471Y-25575100D01*
X180300516Y-25681293D01*
X180282498Y-25708258D01*
X180169258Y-25821498D01*
X180036102Y-25910470D01*
X179888142Y-25971758D01*
X179731075Y-26003000D01*
X179570925Y-26003000D01*
X179413858Y-25971758D01*
X179265898Y-25910470D01*
X179132742Y-25821498D01*
X179019502Y-25708258D01*
X179001485Y-25681293D01*
X178930529Y-25575100D01*
X178885031Y-25465259D01*
X178869242Y-25427142D01*
X178838000Y-25270075D01*
X178838000Y-25109925D01*
X178869242Y-24952858D01*
X178930530Y-24804898D01*
X179019502Y-24671742D01*
X179132742Y-24558502D01*
X179162676Y-24538501D01*
X179198870Y-24514317D01*
X179265898Y-24469530D01*
X179413858Y-24408242D01*
X179570925Y-24377000D01*
X179731075Y-24377000D01*
X179888142Y-24408242D01*
X179888142Y-24408242D01*
G37*
G36*
X113988142Y-24388242D02*
X114136102Y-24449530D01*
X114269258Y-24538502D01*
X114382498Y-24651742D01*
X114471470Y-24784898D01*
X114532758Y-24932858D01*
X114564000Y-25089925D01*
X114564000Y-25250075D01*
X114532758Y-25407142D01*
X114485354Y-25521583D01*
X114471471Y-25555100D01*
X114382499Y-25688257D01*
X114269257Y-25801499D01*
X114203130Y-25845683D01*
X114136102Y-25890470D01*
X113988142Y-25951758D01*
X113831075Y-25983000D01*
X113670925Y-25983000D01*
X113513858Y-25951758D01*
X113365898Y-25890470D01*
X113298870Y-25845683D01*
X113232743Y-25801499D01*
X113119501Y-25688257D01*
X113030529Y-25555100D01*
X113016646Y-25521583D01*
X112969242Y-25407142D01*
X112938000Y-25250075D01*
X112938000Y-25089925D01*
X112969242Y-24932858D01*
X113030530Y-24784898D01*
X113119502Y-24651742D01*
X113232742Y-24538502D01*
X113365898Y-24449530D01*
X113513858Y-24388242D01*
X113670925Y-24357000D01*
X113831075Y-24357000D01*
X113988142Y-24388242D01*
X113988142Y-24388242D01*
G37*
G36*
X182461852Y-22244898D02*
X182694122Y-22291099D01*
X183002410Y-22418796D01*
X183279862Y-22604184D01*
X183515816Y-22840138D01*
X183701204Y-23117590D01*
X183828901Y-23425878D01*
X183867960Y-23622245D01*
X183890022Y-23733154D01*
X183894000Y-23753156D01*
X183894000Y-24086844D01*
X183828901Y-24414122D01*
X183701204Y-24722410D01*
X183515816Y-24999862D01*
X183279862Y-25235816D01*
X183002410Y-25421204D01*
X182694122Y-25548901D01*
X182497755Y-25587960D01*
X182366846Y-25614000D01*
X182033154Y-25614000D01*
X181902245Y-25587960D01*
X181705878Y-25548901D01*
X181397590Y-25421204D01*
X181120138Y-25235816D01*
X180884184Y-24999862D01*
X180698796Y-24722410D01*
X180571099Y-24414122D01*
X180506000Y-24086844D01*
X180506000Y-23753156D01*
X180509979Y-23733154D01*
X180532040Y-23622245D01*
X180571099Y-23425878D01*
X180698796Y-23117590D01*
X180884184Y-22840138D01*
X181120138Y-22604184D01*
X181397590Y-22418796D01*
X181705878Y-22291099D01*
X181938148Y-22244898D01*
X182033154Y-22226000D01*
X182366846Y-22226000D01*
X182461852Y-22244898D01*
X182461852Y-22244898D01*
G37*
G36*
X116567392Y-22226000D02*
X116794122Y-22271099D01*
X117102410Y-22398796D01*
X117379862Y-22584184D01*
X117615816Y-22820138D01*
X117801204Y-23097590D01*
X117928901Y-23405878D01*
X117967960Y-23602245D01*
X117994000Y-23733154D01*
X117994000Y-24066846D01*
X117975653Y-24159082D01*
X117928901Y-24394122D01*
X117801204Y-24702410D01*
X117615816Y-24979862D01*
X117379862Y-25215816D01*
X117102410Y-25401204D01*
X116794122Y-25528901D01*
X116597755Y-25567960D01*
X116466846Y-25594000D01*
X116133154Y-25594000D01*
X116002245Y-25567960D01*
X115805878Y-25528901D01*
X115497590Y-25401204D01*
X115220138Y-25215816D01*
X114984184Y-24979862D01*
X114798796Y-24702410D01*
X114671099Y-24394122D01*
X114624347Y-24159082D01*
X114606000Y-24066846D01*
X114606000Y-23733154D01*
X114632040Y-23602245D01*
X114671099Y-23405878D01*
X114798796Y-23097590D01*
X114984184Y-22820138D01*
X115220138Y-22584184D01*
X115497590Y-22398796D01*
X115805878Y-22271099D01*
X116032608Y-22226000D01*
X116133154Y-22206000D01*
X116466846Y-22206000D01*
X116567392Y-22226000D01*
X116567392Y-22226000D01*
G37*
G36*
X42173567Y-21534959D02*
X42304072Y-21560918D01*
X42549939Y-21662759D01*
X42770464Y-21810110D01*
X42771215Y-21810612D01*
X42959388Y-21998785D01*
X42959390Y-21998788D01*
X43107241Y-22220061D01*
X43209082Y-22465928D01*
X43209082Y-22465929D01*
X43261000Y-22726937D01*
X43261000Y-22993063D01*
X43256616Y-23015102D01*
X43209082Y-23254072D01*
X43107241Y-23499939D01*
X42959890Y-23720464D01*
X42959388Y-23721215D01*
X42771215Y-23909388D01*
X42771212Y-23909390D01*
X42549939Y-24057241D01*
X42304072Y-24159082D01*
X42173567Y-24185041D01*
X42043063Y-24211000D01*
X41776937Y-24211000D01*
X41646433Y-24185041D01*
X41515928Y-24159082D01*
X41270061Y-24057241D01*
X41048788Y-23909390D01*
X41048785Y-23909388D01*
X40860612Y-23721215D01*
X40860110Y-23720464D01*
X40712759Y-23499939D01*
X40610918Y-23254072D01*
X40563384Y-23015102D01*
X40559000Y-22993063D01*
X40559000Y-22726937D01*
X40610918Y-22465929D01*
X40610918Y-22465928D01*
X40712759Y-22220061D01*
X40860610Y-21998788D01*
X40860612Y-21998785D01*
X41048785Y-21810612D01*
X41049536Y-21810110D01*
X41270061Y-21662759D01*
X41515928Y-21560918D01*
X41646433Y-21534959D01*
X41776937Y-21509000D01*
X42043063Y-21509000D01*
X42173567Y-21534959D01*
X42173567Y-21534959D01*
G37*
G36*
X179888142Y-21868242D02*
X180036102Y-21929530D01*
X180103130Y-21974317D01*
X180139750Y-21998785D01*
X180169258Y-22018502D01*
X180282498Y-22131742D01*
X180371470Y-22264898D01*
X180432758Y-22412858D01*
X180464000Y-22569925D01*
X180464000Y-22730075D01*
X180432758Y-22887142D01*
X180371470Y-23035102D01*
X180282498Y-23168258D01*
X180169258Y-23281498D01*
X180036102Y-23370470D01*
X179888142Y-23431758D01*
X179731075Y-23463000D01*
X179570925Y-23463000D01*
X179413858Y-23431758D01*
X179265898Y-23370470D01*
X179132742Y-23281498D01*
X179019502Y-23168258D01*
X178930530Y-23035102D01*
X178869242Y-22887142D01*
X178838000Y-22730075D01*
X178838000Y-22569925D01*
X178869242Y-22412858D01*
X178930530Y-22264898D01*
X179019502Y-22131742D01*
X179132742Y-22018502D01*
X179162251Y-21998785D01*
X179198870Y-21974317D01*
X179265898Y-21929530D01*
X179413858Y-21868242D01*
X179570925Y-21837000D01*
X179731075Y-21837000D01*
X179888142Y-21868242D01*
X179888142Y-21868242D01*
G37*
G36*
X113988142Y-21848242D02*
X114136102Y-21909530D01*
X114269258Y-21998502D01*
X114382498Y-22111742D01*
X114471470Y-22244898D01*
X114532758Y-22392858D01*
X114564000Y-22549925D01*
X114564000Y-22710075D01*
X114532758Y-22867142D01*
X114524473Y-22887143D01*
X114471471Y-23015100D01*
X114382499Y-23148257D01*
X114269257Y-23261499D01*
X114203130Y-23305683D01*
X114136102Y-23350470D01*
X113988142Y-23411758D01*
X113831075Y-23443000D01*
X113670925Y-23443000D01*
X113513858Y-23411758D01*
X113365898Y-23350470D01*
X113298870Y-23305683D01*
X113232743Y-23261499D01*
X113119501Y-23148257D01*
X113030529Y-23015100D01*
X112977527Y-22887143D01*
X112969242Y-22867142D01*
X112938000Y-22710075D01*
X112938000Y-22549925D01*
X112969242Y-22392858D01*
X113030530Y-22244898D01*
X113119502Y-22111742D01*
X113232742Y-21998502D01*
X113365898Y-21909530D01*
X113513858Y-21848242D01*
X113670925Y-21817000D01*
X113831075Y-21817000D01*
X113988142Y-21848242D01*
X113988142Y-21848242D01*
G37*
G36*
X123060180Y-18223162D02*
X123161635Y-18233154D01*
X123378600Y-18298970D01*
X123378602Y-18298971D01*
X123378605Y-18298972D01*
X123578556Y-18405847D01*
X123753818Y-18549682D01*
X123897653Y-18724944D01*
X124004528Y-18924895D01*
X124004529Y-18924898D01*
X124004530Y-18924900D01*
X124070346Y-19141865D01*
X124092569Y-19367500D01*
X124070346Y-19593135D01*
X124004530Y-19810100D01*
X124004528Y-19810105D01*
X123897653Y-20010056D01*
X123753818Y-20185318D01*
X123578556Y-20329153D01*
X123378605Y-20436028D01*
X123378602Y-20436029D01*
X123378600Y-20436030D01*
X123161635Y-20501846D01*
X123060180Y-20511838D01*
X122992545Y-20518500D01*
X122879455Y-20518500D01*
X122811820Y-20511838D01*
X122710365Y-20501846D01*
X122493400Y-20436030D01*
X122493398Y-20436029D01*
X122493395Y-20436028D01*
X122293444Y-20329153D01*
X122118182Y-20185318D01*
X121974347Y-20010056D01*
X121867472Y-19810105D01*
X121867470Y-19810100D01*
X121801654Y-19593135D01*
X121779431Y-19367500D01*
X121801654Y-19141865D01*
X121867470Y-18924900D01*
X121867471Y-18924898D01*
X121867472Y-18924895D01*
X121974347Y-18724944D01*
X122118182Y-18549682D01*
X122293444Y-18405847D01*
X122493395Y-18298972D01*
X122493398Y-18298971D01*
X122493400Y-18298970D01*
X122710365Y-18233154D01*
X122811820Y-18223162D01*
X122879455Y-18216500D01*
X122992545Y-18216500D01*
X123060180Y-18223162D01*
X123060180Y-18223162D01*
G37*
G36*
X134247000Y-20518500D02*
X131945000Y-20518500D01*
X131945000Y-18216500D01*
X134247000Y-18216500D01*
X134247000Y-20518500D01*
X134247000Y-20518500D01*
G37*
M02*
