G04 #@! TF.GenerationSoftware,KiCad,Pcbnew,(5.0.2)-1*
G04 #@! TF.CreationDate,2020-02-07T11:46:53+01:00*
G04 #@! TF.ProjectId,HB-WW-UB V2,48422d57-572d-4554-9220-56322e6b6963,V1.0.0*
G04 #@! TF.SameCoordinates,Original*
G04 #@! TF.FileFunction,Copper,L1,Top*
G04 #@! TF.FilePolarity,Positive*
%FSLAX46Y46*%
G04 Gerber Fmt 4.6, Leading zero omitted, Abs format (unit mm)*
G04 Created by KiCad (PCBNEW (5.0.2)-1) date 07.02.2020 11:46:53*
%MOMM*%
%LPD*%
G01*
G04 APERTURE LIST*
G04 #@! TA.AperFunction,ComponentPad*
%ADD10O,3.200000X3.200000*%
G04 #@! TD*
G04 #@! TA.AperFunction,ComponentPad*
%ADD11R,3.200000X3.200000*%
G04 #@! TD*
G04 #@! TA.AperFunction,ComponentPad*
%ADD12C,8.600000*%
G04 #@! TD*
G04 #@! TA.AperFunction,ComponentPad*
%ADD13C,0.900000*%
G04 #@! TD*
G04 #@! TA.AperFunction,ComponentPad*
%ADD14C,7.000000*%
G04 #@! TD*
G04 #@! TA.AperFunction,ComponentPad*
%ADD15C,0.800000*%
G04 #@! TD*
G04 #@! TA.AperFunction,Conductor*
%ADD16C,0.100000*%
G04 #@! TD*
G04 #@! TA.AperFunction,ComponentPad*
%ADD17C,1.700000*%
G04 #@! TD*
G04 #@! TA.AperFunction,ComponentPad*
%ADD18O,1.700000X1.850000*%
G04 #@! TD*
G04 #@! TA.AperFunction,ComponentPad*
%ADD19R,2.200000X2.200000*%
G04 #@! TD*
G04 #@! TA.AperFunction,ComponentPad*
%ADD20O,2.200000X2.200000*%
G04 #@! TD*
G04 #@! TA.AperFunction,ComponentPad*
%ADD21R,2.500000X4.000000*%
G04 #@! TD*
G04 #@! TA.AperFunction,ComponentPad*
%ADD22O,2.500000X4.000000*%
G04 #@! TD*
G04 #@! TA.AperFunction,ComponentPad*
%ADD23C,2.600000*%
G04 #@! TD*
G04 #@! TA.AperFunction,ComponentPad*
%ADD24C,2.000000*%
G04 #@! TD*
G04 #@! TA.AperFunction,ComponentPad*
%ADD25O,2.000000X2.600000*%
G04 #@! TD*
G04 #@! TA.AperFunction,ComponentPad*
%ADD26O,2.600000X2.000000*%
G04 #@! TD*
G04 #@! TA.AperFunction,ComponentPad*
%ADD27R,3.000000X3.000000*%
G04 #@! TD*
G04 #@! TA.AperFunction,ComponentPad*
%ADD28C,3.000000*%
G04 #@! TD*
G04 #@! TA.AperFunction,ComponentPad*
%ADD29C,1.600000*%
G04 #@! TD*
G04 #@! TA.AperFunction,ComponentPad*
%ADD30O,1.600000X1.600000*%
G04 #@! TD*
G04 #@! TA.AperFunction,ComponentPad*
%ADD31R,1.881000X1.881000*%
G04 #@! TD*
G04 #@! TA.AperFunction,ComponentPad*
%ADD32C,1.881000*%
G04 #@! TD*
G04 #@! TA.AperFunction,ComponentPad*
%ADD33C,3.270000*%
G04 #@! TD*
G04 #@! TA.AperFunction,ComponentPad*
%ADD34C,1.524000*%
G04 #@! TD*
G04 #@! TA.AperFunction,ComponentPad*
%ADD35C,3.286000*%
G04 #@! TD*
G04 #@! TA.AperFunction,ViaPad*
%ADD36C,0.800000*%
G04 #@! TD*
G04 #@! TA.AperFunction,Conductor*
%ADD37C,0.750000*%
G04 #@! TD*
G04 #@! TA.AperFunction,Conductor*
%ADD38C,3.000000*%
G04 #@! TD*
G04 #@! TA.AperFunction,Conductor*
%ADD39C,2.500000*%
G04 #@! TD*
G04 #@! TA.AperFunction,Conductor*
%ADD40C,1.523800*%
G04 #@! TD*
G04 #@! TA.AperFunction,Conductor*
%ADD41C,1.599800*%
G04 #@! TD*
G04 #@! TA.AperFunction,Conductor*
%ADD42C,0.254000*%
G04 #@! TD*
G04 APERTURE END LIST*
D10*
G04 #@! TO.P,D11,2*
G04 #@! TO.N,/IRM60_12V+*
X142621000Y-57975500D03*
D11*
G04 #@! TO.P,D11,1*
G04 #@! TO.N,Net-(D11-Pad1)*
X127381000Y-57975500D03*
G04 #@! TD*
G04 #@! TO.P,D12,1*
G04 #@! TO.N,Net-(D12-Pad1)*
X121158000Y-63246000D03*
D10*
G04 #@! TO.P,D12,2*
G04 #@! TO.N,Net-(D12-Pad2)*
X105918000Y-63246000D03*
G04 #@! TD*
D12*
G04 #@! TO.P,REF_10,1*
G04 #@! TO.N,N/C*
X27000000Y-161000000D03*
D13*
X30225000Y-161000000D03*
X29280419Y-163280419D03*
X27000000Y-164225000D03*
X24719581Y-163280419D03*
X23775000Y-161000000D03*
X24719581Y-158719581D03*
X27000000Y-157775000D03*
X29280419Y-158719581D03*
G04 #@! TD*
G04 #@! TO.P,REF_11,1*
G04 #@! TO.N,N/C*
X29280419Y-187719581D03*
X27000000Y-186775000D03*
X24719581Y-187719581D03*
X23775000Y-190000000D03*
X24719581Y-192280419D03*
X27000000Y-193225000D03*
X29280419Y-192280419D03*
X30225000Y-190000000D03*
D12*
X27000000Y-190000000D03*
G04 #@! TD*
G04 #@! TO.P,REF_12,1*
G04 #@! TO.N,N/C*
X182000000Y-161000000D03*
D13*
X185225000Y-161000000D03*
X184280419Y-163280419D03*
X182000000Y-164225000D03*
X179719581Y-163280419D03*
X178775000Y-161000000D03*
X179719581Y-158719581D03*
X182000000Y-157775000D03*
X184280419Y-158719581D03*
G04 #@! TD*
D12*
G04 #@! TO.P,REF_09,1*
G04 #@! TO.N,N/C*
X182000000Y-190000000D03*
D13*
X185225000Y-190000000D03*
X184280419Y-192280419D03*
X182000000Y-193225000D03*
X179719581Y-192280419D03*
X178775000Y-190000000D03*
X179719581Y-187719581D03*
X182000000Y-186775000D03*
X184280419Y-187719581D03*
G04 #@! TD*
D14*
G04 #@! TO.P,REF_S2,1*
G04 #@! TO.N,N/C*
X103420000Y-130600000D03*
D15*
X106045000Y-130600000D03*
X105276155Y-132456155D03*
X103420000Y-133225000D03*
X101563845Y-132456155D03*
X100795000Y-130600000D03*
X101563845Y-128743845D03*
X103420000Y-127975000D03*
X105276155Y-128743845D03*
G04 #@! TD*
D14*
G04 #@! TO.P,REF_S1,1*
G04 #@! TO.N,N/C*
X103420000Y-70600000D03*
D15*
X106045000Y-70600000D03*
X105276155Y-72456155D03*
X103420000Y-73225000D03*
X101563845Y-72456155D03*
X100795000Y-70600000D03*
X101563845Y-68743845D03*
X103420000Y-67975000D03*
X105276155Y-68743845D03*
G04 #@! TD*
D16*
G04 #@! TO.N,GND*
G04 #@! TO.C,D1*
G36*
X135117504Y-185639204D02*
X135141773Y-185642804D01*
X135165571Y-185648765D01*
X135188671Y-185657030D01*
X135210849Y-185667520D01*
X135231893Y-185680133D01*
X135251598Y-185694747D01*
X135269777Y-185711223D01*
X135286253Y-185729402D01*
X135300867Y-185749107D01*
X135313480Y-185770151D01*
X135323970Y-185792329D01*
X135332235Y-185815429D01*
X135338196Y-185839227D01*
X135341796Y-185863496D01*
X135343000Y-185888000D01*
X135343000Y-187238000D01*
X135341796Y-187262504D01*
X135338196Y-187286773D01*
X135332235Y-187310571D01*
X135323970Y-187333671D01*
X135313480Y-187355849D01*
X135300867Y-187376893D01*
X135286253Y-187396598D01*
X135269777Y-187414777D01*
X135251598Y-187431253D01*
X135231893Y-187445867D01*
X135210849Y-187458480D01*
X135188671Y-187468970D01*
X135165571Y-187477235D01*
X135141773Y-187483196D01*
X135117504Y-187486796D01*
X135093000Y-187488000D01*
X133893000Y-187488000D01*
X133868496Y-187486796D01*
X133844227Y-187483196D01*
X133820429Y-187477235D01*
X133797329Y-187468970D01*
X133775151Y-187458480D01*
X133754107Y-187445867D01*
X133734402Y-187431253D01*
X133716223Y-187414777D01*
X133699747Y-187396598D01*
X133685133Y-187376893D01*
X133672520Y-187355849D01*
X133662030Y-187333671D01*
X133653765Y-187310571D01*
X133647804Y-187286773D01*
X133644204Y-187262504D01*
X133643000Y-187238000D01*
X133643000Y-185888000D01*
X133644204Y-185863496D01*
X133647804Y-185839227D01*
X133653765Y-185815429D01*
X133662030Y-185792329D01*
X133672520Y-185770151D01*
X133685133Y-185749107D01*
X133699747Y-185729402D01*
X133716223Y-185711223D01*
X133734402Y-185694747D01*
X133754107Y-185680133D01*
X133775151Y-185667520D01*
X133797329Y-185657030D01*
X133820429Y-185648765D01*
X133844227Y-185642804D01*
X133868496Y-185639204D01*
X133893000Y-185638000D01*
X135093000Y-185638000D01*
X135117504Y-185639204D01*
X135117504Y-185639204D01*
G37*
D17*
G04 #@! TD*
G04 #@! TO.P,D1,1*
G04 #@! TO.N,GND*
X134493000Y-186563000D03*
D18*
G04 #@! TO.P,D1,2*
G04 #@! TO.N,Net-(D1-Pad2)*
X136993000Y-186563000D03*
G04 #@! TD*
D16*
G04 #@! TO.N,GND*
G04 #@! TO.C,D2*
G36*
X148647504Y-185637204D02*
X148671773Y-185640804D01*
X148695571Y-185646765D01*
X148718671Y-185655030D01*
X148740849Y-185665520D01*
X148761893Y-185678133D01*
X148781598Y-185692747D01*
X148799777Y-185709223D01*
X148816253Y-185727402D01*
X148830867Y-185747107D01*
X148843480Y-185768151D01*
X148853970Y-185790329D01*
X148862235Y-185813429D01*
X148868196Y-185837227D01*
X148871796Y-185861496D01*
X148873000Y-185886000D01*
X148873000Y-187236000D01*
X148871796Y-187260504D01*
X148868196Y-187284773D01*
X148862235Y-187308571D01*
X148853970Y-187331671D01*
X148843480Y-187353849D01*
X148830867Y-187374893D01*
X148816253Y-187394598D01*
X148799777Y-187412777D01*
X148781598Y-187429253D01*
X148761893Y-187443867D01*
X148740849Y-187456480D01*
X148718671Y-187466970D01*
X148695571Y-187475235D01*
X148671773Y-187481196D01*
X148647504Y-187484796D01*
X148623000Y-187486000D01*
X147423000Y-187486000D01*
X147398496Y-187484796D01*
X147374227Y-187481196D01*
X147350429Y-187475235D01*
X147327329Y-187466970D01*
X147305151Y-187456480D01*
X147284107Y-187443867D01*
X147264402Y-187429253D01*
X147246223Y-187412777D01*
X147229747Y-187394598D01*
X147215133Y-187374893D01*
X147202520Y-187353849D01*
X147192030Y-187331671D01*
X147183765Y-187308571D01*
X147177804Y-187284773D01*
X147174204Y-187260504D01*
X147173000Y-187236000D01*
X147173000Y-185886000D01*
X147174204Y-185861496D01*
X147177804Y-185837227D01*
X147183765Y-185813429D01*
X147192030Y-185790329D01*
X147202520Y-185768151D01*
X147215133Y-185747107D01*
X147229747Y-185727402D01*
X147246223Y-185709223D01*
X147264402Y-185692747D01*
X147284107Y-185678133D01*
X147305151Y-185665520D01*
X147327329Y-185655030D01*
X147350429Y-185646765D01*
X147374227Y-185640804D01*
X147398496Y-185637204D01*
X147423000Y-185636000D01*
X148623000Y-185636000D01*
X148647504Y-185637204D01*
X148647504Y-185637204D01*
G37*
D17*
G04 #@! TD*
G04 #@! TO.P,D2,1*
G04 #@! TO.N,GND*
X148023000Y-186561000D03*
D18*
G04 #@! TO.P,D2,2*
G04 #@! TO.N,Net-(D2-Pad2)*
X150523000Y-186561000D03*
G04 #@! TD*
G04 #@! TO.P,D3,2*
G04 #@! TO.N,Net-(D3-Pad2)*
X164171000Y-186563000D03*
D16*
G04 #@! TD*
G04 #@! TO.N,GND*
G04 #@! TO.C,D3*
G36*
X162295504Y-185639204D02*
X162319773Y-185642804D01*
X162343571Y-185648765D01*
X162366671Y-185657030D01*
X162388849Y-185667520D01*
X162409893Y-185680133D01*
X162429598Y-185694747D01*
X162447777Y-185711223D01*
X162464253Y-185729402D01*
X162478867Y-185749107D01*
X162491480Y-185770151D01*
X162501970Y-185792329D01*
X162510235Y-185815429D01*
X162516196Y-185839227D01*
X162519796Y-185863496D01*
X162521000Y-185888000D01*
X162521000Y-187238000D01*
X162519796Y-187262504D01*
X162516196Y-187286773D01*
X162510235Y-187310571D01*
X162501970Y-187333671D01*
X162491480Y-187355849D01*
X162478867Y-187376893D01*
X162464253Y-187396598D01*
X162447777Y-187414777D01*
X162429598Y-187431253D01*
X162409893Y-187445867D01*
X162388849Y-187458480D01*
X162366671Y-187468970D01*
X162343571Y-187477235D01*
X162319773Y-187483196D01*
X162295504Y-187486796D01*
X162271000Y-187488000D01*
X161071000Y-187488000D01*
X161046496Y-187486796D01*
X161022227Y-187483196D01*
X160998429Y-187477235D01*
X160975329Y-187468970D01*
X160953151Y-187458480D01*
X160932107Y-187445867D01*
X160912402Y-187431253D01*
X160894223Y-187414777D01*
X160877747Y-187396598D01*
X160863133Y-187376893D01*
X160850520Y-187355849D01*
X160840030Y-187333671D01*
X160831765Y-187310571D01*
X160825804Y-187286773D01*
X160822204Y-187262504D01*
X160821000Y-187238000D01*
X160821000Y-185888000D01*
X160822204Y-185863496D01*
X160825804Y-185839227D01*
X160831765Y-185815429D01*
X160840030Y-185792329D01*
X160850520Y-185770151D01*
X160863133Y-185749107D01*
X160877747Y-185729402D01*
X160894223Y-185711223D01*
X160912402Y-185694747D01*
X160932107Y-185680133D01*
X160953151Y-185667520D01*
X160975329Y-185657030D01*
X160998429Y-185648765D01*
X161022227Y-185642804D01*
X161046496Y-185639204D01*
X161071000Y-185638000D01*
X162271000Y-185638000D01*
X162295504Y-185639204D01*
X162295504Y-185639204D01*
G37*
D17*
G04 #@! TO.P,D3,1*
G04 #@! TO.N,GND*
X161671000Y-186563000D03*
G04 #@! TD*
D19*
G04 #@! TO.P,D10,1*
G04 #@! TO.N,/IRM60_12V+*
X133096000Y-19367500D03*
D20*
G04 #@! TO.P,D10,2*
G04 #@! TO.N,GND*
X122936000Y-19367500D03*
G04 #@! TD*
D19*
G04 #@! TO.P,D20,1*
G04 #@! TO.N,/IRM60_12V+*
X187516000Y-70739000D03*
D20*
G04 #@! TO.P,D20,2*
G04 #@! TO.N,GND*
X187516000Y-60579000D03*
G04 #@! TD*
D10*
G04 #@! TO.P,D21,2*
G04 #@! TO.N,/IRM60_05V+*
X165164000Y-111188500D03*
D11*
G04 #@! TO.P,D21,1*
G04 #@! TO.N,Net-(D21-Pad1)*
X165164000Y-95948500D03*
G04 #@! TD*
G04 #@! TO.P,D22,1*
G04 #@! TO.N,Net-(D22-Pad1)*
X164719000Y-85915500D03*
D10*
G04 #@! TO.P,D22,2*
G04 #@! TO.N,Net-(D22-Pad2)*
X164719000Y-70675500D03*
G04 #@! TD*
D20*
G04 #@! TO.P,D30,2*
G04 #@! TO.N,GND*
X105854000Y-139382000D03*
D19*
G04 #@! TO.P,D30,1*
G04 #@! TO.N,/IRM60_12V+*
X116014000Y-139382000D03*
G04 #@! TD*
D11*
G04 #@! TO.P,D31,1*
G04 #@! TO.N,Net-(D31-Pad1)*
X96710500Y-162179000D03*
D10*
G04 #@! TO.P,D31,2*
G04 #@! TO.N,/IRM60_05V+*
X96710500Y-177419000D03*
G04 #@! TD*
G04 #@! TO.P,D32,2*
G04 #@! TO.N,Net-(D32-Pad2)*
X96837500Y-140970000D03*
D11*
G04 #@! TO.P,D32,1*
G04 #@! TO.N,Net-(D32-Pad1)*
X96837500Y-156210000D03*
G04 #@! TD*
D21*
G04 #@! TO.P,F1,1*
G04 #@! TO.N,Net-(F1-Pad1)*
X41910000Y-35560000D03*
D22*
G04 #@! TO.P,F1,2*
G04 #@! TO.N,Net-(F1-Pad2)*
X36830000Y-43180000D03*
X46990000Y-43180000D03*
D23*
G04 #@! TO.P,F1,*
G04 #@! TO.N,*
X41910000Y-22860000D03*
G04 #@! TD*
D16*
G04 #@! TO.N,Net-(F1-Pad1)*
G04 #@! TO.C,J1*
G36*
X27444504Y-39023704D02*
X27468773Y-39027304D01*
X27492571Y-39033265D01*
X27515671Y-39041530D01*
X27537849Y-39052020D01*
X27558893Y-39064633D01*
X27578598Y-39079247D01*
X27596777Y-39095723D01*
X27613253Y-39113902D01*
X27627867Y-39133607D01*
X27640480Y-39154651D01*
X27650970Y-39176829D01*
X27659235Y-39199929D01*
X27665196Y-39223727D01*
X27668796Y-39247996D01*
X27670000Y-39272500D01*
X27670000Y-41372500D01*
X27668796Y-41397004D01*
X27665196Y-41421273D01*
X27659235Y-41445071D01*
X27650970Y-41468171D01*
X27640480Y-41490349D01*
X27627867Y-41511393D01*
X27613253Y-41531098D01*
X27596777Y-41549277D01*
X27578598Y-41565753D01*
X27558893Y-41580367D01*
X27537849Y-41592980D01*
X27515671Y-41603470D01*
X27492571Y-41611735D01*
X27468773Y-41617696D01*
X27444504Y-41621296D01*
X27420000Y-41622500D01*
X25920000Y-41622500D01*
X25895496Y-41621296D01*
X25871227Y-41617696D01*
X25847429Y-41611735D01*
X25824329Y-41603470D01*
X25802151Y-41592980D01*
X25781107Y-41580367D01*
X25761402Y-41565753D01*
X25743223Y-41549277D01*
X25726747Y-41531098D01*
X25712133Y-41511393D01*
X25699520Y-41490349D01*
X25689030Y-41468171D01*
X25680765Y-41445071D01*
X25674804Y-41421273D01*
X25671204Y-41397004D01*
X25670000Y-41372500D01*
X25670000Y-39272500D01*
X25671204Y-39247996D01*
X25674804Y-39223727D01*
X25680765Y-39199929D01*
X25689030Y-39176829D01*
X25699520Y-39154651D01*
X25712133Y-39133607D01*
X25726747Y-39113902D01*
X25743223Y-39095723D01*
X25761402Y-39079247D01*
X25781107Y-39064633D01*
X25802151Y-39052020D01*
X25824329Y-39041530D01*
X25847429Y-39033265D01*
X25871227Y-39027304D01*
X25895496Y-39023704D01*
X25920000Y-39022500D01*
X27420000Y-39022500D01*
X27444504Y-39023704D01*
X27444504Y-39023704D01*
G37*
D24*
G04 #@! TD*
G04 #@! TO.P,J1,1*
G04 #@! TO.N,Net-(F1-Pad1)*
X26670000Y-40322500D03*
D25*
G04 #@! TO.P,J1,2*
G04 #@! TO.N,Net-(J1-Pad2)*
X23170000Y-40322500D03*
G04 #@! TO.P,J1,3*
G04 #@! TO.N,GNDPWR*
X19670000Y-40322500D03*
G04 #@! TD*
D16*
G04 #@! TO.N,GND*
G04 #@! TO.C,J2*
G36*
X71386504Y-38896704D02*
X71410773Y-38900304D01*
X71434571Y-38906265D01*
X71457671Y-38914530D01*
X71479849Y-38925020D01*
X71500893Y-38937633D01*
X71520598Y-38952247D01*
X71538777Y-38968723D01*
X71555253Y-38986902D01*
X71569867Y-39006607D01*
X71582480Y-39027651D01*
X71592970Y-39049829D01*
X71601235Y-39072929D01*
X71607196Y-39096727D01*
X71610796Y-39120996D01*
X71612000Y-39145500D01*
X71612000Y-41245500D01*
X71610796Y-41270004D01*
X71607196Y-41294273D01*
X71601235Y-41318071D01*
X71592970Y-41341171D01*
X71582480Y-41363349D01*
X71569867Y-41384393D01*
X71555253Y-41404098D01*
X71538777Y-41422277D01*
X71520598Y-41438753D01*
X71500893Y-41453367D01*
X71479849Y-41465980D01*
X71457671Y-41476470D01*
X71434571Y-41484735D01*
X71410773Y-41490696D01*
X71386504Y-41494296D01*
X71362000Y-41495500D01*
X69862000Y-41495500D01*
X69837496Y-41494296D01*
X69813227Y-41490696D01*
X69789429Y-41484735D01*
X69766329Y-41476470D01*
X69744151Y-41465980D01*
X69723107Y-41453367D01*
X69703402Y-41438753D01*
X69685223Y-41422277D01*
X69668747Y-41404098D01*
X69654133Y-41384393D01*
X69641520Y-41363349D01*
X69631030Y-41341171D01*
X69622765Y-41318071D01*
X69616804Y-41294273D01*
X69613204Y-41270004D01*
X69612000Y-41245500D01*
X69612000Y-39145500D01*
X69613204Y-39120996D01*
X69616804Y-39096727D01*
X69622765Y-39072929D01*
X69631030Y-39049829D01*
X69641520Y-39027651D01*
X69654133Y-39006607D01*
X69668747Y-38986902D01*
X69685223Y-38968723D01*
X69703402Y-38952247D01*
X69723107Y-38937633D01*
X69744151Y-38925020D01*
X69766329Y-38914530D01*
X69789429Y-38906265D01*
X69813227Y-38900304D01*
X69837496Y-38896704D01*
X69862000Y-38895500D01*
X71362000Y-38895500D01*
X71386504Y-38896704D01*
X71386504Y-38896704D01*
G37*
D24*
G04 #@! TD*
G04 #@! TO.P,J2,1*
G04 #@! TO.N,GND*
X70612000Y-40195500D03*
D25*
G04 #@! TO.P,J2,2*
G04 #@! TO.N,/Board_12V+*
X67112000Y-40195500D03*
G04 #@! TD*
D26*
G04 #@! TO.P,J3,2*
G04 #@! TO.N,GND*
X166560000Y-145598000D03*
D16*
G04 #@! TD*
G04 #@! TO.N,/OUT_Sens_12V+*
G04 #@! TO.C,J3*
G36*
X167634504Y-148099204D02*
X167658773Y-148102804D01*
X167682571Y-148108765D01*
X167705671Y-148117030D01*
X167727849Y-148127520D01*
X167748893Y-148140133D01*
X167768598Y-148154747D01*
X167786777Y-148171223D01*
X167803253Y-148189402D01*
X167817867Y-148209107D01*
X167830480Y-148230151D01*
X167840970Y-148252329D01*
X167849235Y-148275429D01*
X167855196Y-148299227D01*
X167858796Y-148323496D01*
X167860000Y-148348000D01*
X167860000Y-149848000D01*
X167858796Y-149872504D01*
X167855196Y-149896773D01*
X167849235Y-149920571D01*
X167840970Y-149943671D01*
X167830480Y-149965849D01*
X167817867Y-149986893D01*
X167803253Y-150006598D01*
X167786777Y-150024777D01*
X167768598Y-150041253D01*
X167748893Y-150055867D01*
X167727849Y-150068480D01*
X167705671Y-150078970D01*
X167682571Y-150087235D01*
X167658773Y-150093196D01*
X167634504Y-150096796D01*
X167610000Y-150098000D01*
X165510000Y-150098000D01*
X165485496Y-150096796D01*
X165461227Y-150093196D01*
X165437429Y-150087235D01*
X165414329Y-150078970D01*
X165392151Y-150068480D01*
X165371107Y-150055867D01*
X165351402Y-150041253D01*
X165333223Y-150024777D01*
X165316747Y-150006598D01*
X165302133Y-149986893D01*
X165289520Y-149965849D01*
X165279030Y-149943671D01*
X165270765Y-149920571D01*
X165264804Y-149896773D01*
X165261204Y-149872504D01*
X165260000Y-149848000D01*
X165260000Y-148348000D01*
X165261204Y-148323496D01*
X165264804Y-148299227D01*
X165270765Y-148275429D01*
X165279030Y-148252329D01*
X165289520Y-148230151D01*
X165302133Y-148209107D01*
X165316747Y-148189402D01*
X165333223Y-148171223D01*
X165351402Y-148154747D01*
X165371107Y-148140133D01*
X165392151Y-148127520D01*
X165414329Y-148117030D01*
X165437429Y-148108765D01*
X165461227Y-148102804D01*
X165485496Y-148099204D01*
X165510000Y-148098000D01*
X167610000Y-148098000D01*
X167634504Y-148099204D01*
X167634504Y-148099204D01*
G37*
D24*
G04 #@! TO.P,J3,1*
G04 #@! TO.N,/OUT_Sens_12V+*
X166560000Y-149098000D03*
G04 #@! TD*
D16*
G04 #@! TO.N,/Out_CCU_+*
G04 #@! TO.C,J4*
G36*
X167634504Y-134637204D02*
X167658773Y-134640804D01*
X167682571Y-134646765D01*
X167705671Y-134655030D01*
X167727849Y-134665520D01*
X167748893Y-134678133D01*
X167768598Y-134692747D01*
X167786777Y-134709223D01*
X167803253Y-134727402D01*
X167817867Y-134747107D01*
X167830480Y-134768151D01*
X167840970Y-134790329D01*
X167849235Y-134813429D01*
X167855196Y-134837227D01*
X167858796Y-134861496D01*
X167860000Y-134886000D01*
X167860000Y-136386000D01*
X167858796Y-136410504D01*
X167855196Y-136434773D01*
X167849235Y-136458571D01*
X167840970Y-136481671D01*
X167830480Y-136503849D01*
X167817867Y-136524893D01*
X167803253Y-136544598D01*
X167786777Y-136562777D01*
X167768598Y-136579253D01*
X167748893Y-136593867D01*
X167727849Y-136606480D01*
X167705671Y-136616970D01*
X167682571Y-136625235D01*
X167658773Y-136631196D01*
X167634504Y-136634796D01*
X167610000Y-136636000D01*
X165510000Y-136636000D01*
X165485496Y-136634796D01*
X165461227Y-136631196D01*
X165437429Y-136625235D01*
X165414329Y-136616970D01*
X165392151Y-136606480D01*
X165371107Y-136593867D01*
X165351402Y-136579253D01*
X165333223Y-136562777D01*
X165316747Y-136544598D01*
X165302133Y-136524893D01*
X165289520Y-136503849D01*
X165279030Y-136481671D01*
X165270765Y-136458571D01*
X165264804Y-136434773D01*
X165261204Y-136410504D01*
X165260000Y-136386000D01*
X165260000Y-134886000D01*
X165261204Y-134861496D01*
X165264804Y-134837227D01*
X165270765Y-134813429D01*
X165279030Y-134790329D01*
X165289520Y-134768151D01*
X165302133Y-134747107D01*
X165316747Y-134727402D01*
X165333223Y-134709223D01*
X165351402Y-134692747D01*
X165371107Y-134678133D01*
X165392151Y-134665520D01*
X165414329Y-134655030D01*
X165437429Y-134646765D01*
X165461227Y-134640804D01*
X165485496Y-134637204D01*
X165510000Y-134636000D01*
X167610000Y-134636000D01*
X167634504Y-134637204D01*
X167634504Y-134637204D01*
G37*
D24*
G04 #@! TD*
G04 #@! TO.P,J4,1*
G04 #@! TO.N,/Out_CCU_+*
X166560000Y-135636000D03*
D26*
G04 #@! TO.P,J4,2*
G04 #@! TO.N,GND*
X166560000Y-132136000D03*
G04 #@! TD*
G04 #@! TO.P,J5,2*
G04 #@! TO.N,GND*
X166688000Y-119372000D03*
D16*
G04 #@! TD*
G04 #@! TO.N,/Out_ioBroker_+*
G04 #@! TO.C,J5*
G36*
X167762504Y-121873204D02*
X167786773Y-121876804D01*
X167810571Y-121882765D01*
X167833671Y-121891030D01*
X167855849Y-121901520D01*
X167876893Y-121914133D01*
X167896598Y-121928747D01*
X167914777Y-121945223D01*
X167931253Y-121963402D01*
X167945867Y-121983107D01*
X167958480Y-122004151D01*
X167968970Y-122026329D01*
X167977235Y-122049429D01*
X167983196Y-122073227D01*
X167986796Y-122097496D01*
X167988000Y-122122000D01*
X167988000Y-123622000D01*
X167986796Y-123646504D01*
X167983196Y-123670773D01*
X167977235Y-123694571D01*
X167968970Y-123717671D01*
X167958480Y-123739849D01*
X167945867Y-123760893D01*
X167931253Y-123780598D01*
X167914777Y-123798777D01*
X167896598Y-123815253D01*
X167876893Y-123829867D01*
X167855849Y-123842480D01*
X167833671Y-123852970D01*
X167810571Y-123861235D01*
X167786773Y-123867196D01*
X167762504Y-123870796D01*
X167738000Y-123872000D01*
X165638000Y-123872000D01*
X165613496Y-123870796D01*
X165589227Y-123867196D01*
X165565429Y-123861235D01*
X165542329Y-123852970D01*
X165520151Y-123842480D01*
X165499107Y-123829867D01*
X165479402Y-123815253D01*
X165461223Y-123798777D01*
X165444747Y-123780598D01*
X165430133Y-123760893D01*
X165417520Y-123739849D01*
X165407030Y-123717671D01*
X165398765Y-123694571D01*
X165392804Y-123670773D01*
X165389204Y-123646504D01*
X165388000Y-123622000D01*
X165388000Y-122122000D01*
X165389204Y-122097496D01*
X165392804Y-122073227D01*
X165398765Y-122049429D01*
X165407030Y-122026329D01*
X165417520Y-122004151D01*
X165430133Y-121983107D01*
X165444747Y-121963402D01*
X165461223Y-121945223D01*
X165479402Y-121928747D01*
X165499107Y-121914133D01*
X165520151Y-121901520D01*
X165542329Y-121891030D01*
X165565429Y-121882765D01*
X165589227Y-121876804D01*
X165613496Y-121873204D01*
X165638000Y-121872000D01*
X167738000Y-121872000D01*
X167762504Y-121873204D01*
X167762504Y-121873204D01*
G37*
D24*
G04 #@! TO.P,J5,1*
G04 #@! TO.N,/Out_ioBroker_+*
X166688000Y-122872000D03*
G04 #@! TD*
D27*
G04 #@! TO.P,K10,A1*
G04 #@! TO.N,/IRM60_12V+*
X131826000Y-26670000D03*
D28*
G04 #@! TO.P,K10,A2*
G04 #@! TO.N,GND*
X124326000Y-26670000D03*
G04 #@! TO.P,K10,11*
X131826000Y-46670000D03*
G04 #@! TO.P,K10,24*
G04 #@! TO.N,Net-(D11-Pad1)*
X124326000Y-51670000D03*
G04 #@! TO.P,K10,22*
G04 #@! TO.N,Net-(D12-Pad1)*
X124326000Y-41670000D03*
G04 #@! TO.P,K10,12*
G04 #@! TO.N,GND*
X131826000Y-41670000D03*
G04 #@! TO.P,K10,21*
G04 #@! TO.N,/OUT_Sens_12V+*
X124326000Y-46670000D03*
G04 #@! TO.P,K10,14*
G04 #@! TO.N,GND*
X131826000Y-51670000D03*
G04 #@! TD*
G04 #@! TO.P,K20,14*
G04 #@! TO.N,GND*
X179832000Y-95866000D03*
G04 #@! TO.P,K20,21*
G04 #@! TO.N,/Out_CCU_+*
X172332000Y-90866000D03*
G04 #@! TO.P,K20,12*
G04 #@! TO.N,GND*
X179832000Y-85866000D03*
G04 #@! TO.P,K20,22*
G04 #@! TO.N,Net-(D22-Pad1)*
X172332000Y-85866000D03*
G04 #@! TO.P,K20,24*
G04 #@! TO.N,Net-(D21-Pad1)*
X172332000Y-95866000D03*
G04 #@! TO.P,K20,11*
G04 #@! TO.N,GND*
X179832000Y-90866000D03*
G04 #@! TO.P,K20,A2*
X172332000Y-70866000D03*
D27*
G04 #@! TO.P,K20,A1*
G04 #@! TO.N,/IRM60_12V+*
X179832000Y-70866000D03*
G04 #@! TD*
G04 #@! TO.P,K30,A1*
G04 #@! TO.N,/IRM60_12V+*
X114681000Y-145542000D03*
D28*
G04 #@! TO.P,K30,A2*
G04 #@! TO.N,GND*
X107181000Y-145542000D03*
G04 #@! TO.P,K30,11*
X114681000Y-165542000D03*
G04 #@! TO.P,K30,24*
G04 #@! TO.N,Net-(D31-Pad1)*
X107181000Y-170542000D03*
G04 #@! TO.P,K30,22*
G04 #@! TO.N,Net-(D32-Pad1)*
X107181000Y-160542000D03*
G04 #@! TO.P,K30,12*
G04 #@! TO.N,GND*
X114681000Y-160542000D03*
G04 #@! TO.P,K30,21*
G04 #@! TO.N,/Out_ioBroker_+*
X107181000Y-165542000D03*
G04 #@! TO.P,K30,14*
G04 #@! TO.N,GND*
X114681000Y-170542000D03*
G04 #@! TD*
D29*
G04 #@! TO.P,R1,1*
G04 #@! TO.N,/IRM60_12V+*
X134366000Y-179134000D03*
D30*
G04 #@! TO.P,R1,2*
G04 #@! TO.N,Net-(D1-Pad2)*
X136906000Y-179134000D03*
G04 #@! TD*
D29*
G04 #@! TO.P,R2,1*
G04 #@! TO.N,/IRM60_05V+*
X147955000Y-179134000D03*
D30*
G04 #@! TO.P,R2,2*
G04 #@! TO.N,Net-(D2-Pad2)*
X150495000Y-179134000D03*
G04 #@! TD*
G04 #@! TO.P,R3,2*
G04 #@! TO.N,Net-(D3-Pad2)*
X164148000Y-179134000D03*
D29*
G04 #@! TO.P,R3,1*
G04 #@! TO.N,/Board_12V+*
X161608000Y-179134000D03*
G04 #@! TD*
D31*
G04 #@! TO.P,PS1,AC/L*
G04 #@! TO.N,Net-(F1-Pad2)*
X64180000Y-59590000D03*
D32*
G04 #@! TO.P,PS1,AC/N*
G04 #@! TO.N,Net-(J1-Pad2)*
X57430000Y-59590000D03*
D33*
G04 #@! TO.P,PS1,V*
G04 #@! TO.N,GND*
X28430000Y-135590000D03*
G04 #@! TO.P,PS1,+V*
G04 #@! TO.N,/IRM60_12V+*
X22930000Y-135590000D03*
G04 #@! TD*
G04 #@! TO.P,PS2,+V*
G04 #@! TO.N,/IRM60_05V+*
X153370000Y-120580000D03*
G04 #@! TO.P,PS2,V*
G04 #@! TO.N,GND*
X153370000Y-115080000D03*
D32*
G04 #@! TO.P,PS2,AC/N*
G04 #@! TO.N,Net-(J1-Pad2)*
X77370000Y-86080000D03*
D31*
G04 #@! TO.P,PS2,AC/L*
G04 #@! TO.N,Net-(F1-Pad2)*
X77370000Y-79330000D03*
G04 #@! TD*
D34*
G04 #@! TO.P,U10,5*
G04 #@! TO.N,Net-(U10-Pad5)*
X116291000Y-42950000D03*
G04 #@! TO.P,U10,6*
G04 #@! TO.N,Net-(U10-Pad6)*
X116291000Y-40410000D03*
G04 #@! TO.P,U10,7*
G04 #@! TO.N,GND*
X116291000Y-37870000D03*
G04 #@! TO.P,U10,8*
X116291000Y-35330000D03*
G04 #@! TO.P,U10,3*
X113751000Y-30250000D03*
X113751000Y-27710000D03*
G04 #@! TO.P,U10,4*
G04 #@! TO.N,Net-(D12-Pad2)*
X113751000Y-25170000D03*
X113751000Y-22630000D03*
G04 #@! TO.P,U10,2*
G04 #@! TO.N,GND*
X113751000Y-45490000D03*
X113751000Y-48030000D03*
G04 #@! TO.P,U10,1*
G04 #@! TO.N,/Board_12V+*
X113751000Y-50570000D03*
X113751000Y-53110000D03*
D35*
G04 #@! TO.P,U10,4*
G04 #@! TO.N,Net-(D12-Pad2)*
X116300000Y-23900000D03*
G04 #@! TO.P,U10,3*
G04 #@! TO.N,GND*
X116300000Y-28980000D03*
G04 #@! TO.P,U10,2*
X116431000Y-46760000D03*
G04 #@! TO.P,U10,1*
G04 #@! TO.N,/Board_12V+*
X116431000Y-51840000D03*
D34*
G04 #@! TO.P,U10,9*
G04 #@! TO.N,Net-(U10-Pad9)*
X116291000Y-32790000D03*
G04 #@! TD*
G04 #@! TO.P,U20,5*
G04 #@! TO.N,Net-(U20-Pad5)*
X182191000Y-42970000D03*
G04 #@! TO.P,U20,6*
G04 #@! TO.N,Net-(U20-Pad6)*
X182191000Y-40430000D03*
G04 #@! TO.P,U20,7*
G04 #@! TO.N,GND*
X182191000Y-37890000D03*
G04 #@! TO.P,U20,8*
X182191000Y-35350000D03*
G04 #@! TO.P,U20,3*
X179651000Y-30270000D03*
X179651000Y-27730000D03*
G04 #@! TO.P,U20,4*
G04 #@! TO.N,Net-(D22-Pad2)*
X179651000Y-25190000D03*
X179651000Y-22650000D03*
G04 #@! TO.P,U20,2*
G04 #@! TO.N,GND*
X179651000Y-45510000D03*
X179651000Y-48050000D03*
G04 #@! TO.P,U20,1*
G04 #@! TO.N,/Board_12V+*
X179651000Y-50590000D03*
X179651000Y-53130000D03*
D35*
G04 #@! TO.P,U20,4*
G04 #@! TO.N,Net-(D22-Pad2)*
X182200000Y-23920000D03*
G04 #@! TO.P,U20,3*
G04 #@! TO.N,GND*
X182200000Y-29000000D03*
G04 #@! TO.P,U20,2*
X182331000Y-46780000D03*
G04 #@! TO.P,U20,1*
G04 #@! TO.N,/Board_12V+*
X182331000Y-51860000D03*
D34*
G04 #@! TO.P,U20,9*
G04 #@! TO.N,Net-(U20-Pad9)*
X182191000Y-32810000D03*
G04 #@! TD*
G04 #@! TO.P,U30,5*
G04 #@! TO.N,Net-(U30-Pad5)*
X86291000Y-170750000D03*
G04 #@! TO.P,U30,6*
G04 #@! TO.N,Net-(U30-Pad6)*
X86291000Y-168210000D03*
G04 #@! TO.P,U30,7*
G04 #@! TO.N,GND*
X86291000Y-165670000D03*
G04 #@! TO.P,U30,8*
X86291000Y-163130000D03*
G04 #@! TO.P,U30,3*
X83751000Y-158050000D03*
X83751000Y-155510000D03*
G04 #@! TO.P,U30,4*
G04 #@! TO.N,Net-(D32-Pad2)*
X83751000Y-152970000D03*
X83751000Y-150430000D03*
G04 #@! TO.P,U30,2*
G04 #@! TO.N,GND*
X83751000Y-173290000D03*
X83751000Y-175830000D03*
G04 #@! TO.P,U30,1*
G04 #@! TO.N,/Board_12V+*
X83751000Y-178370000D03*
X83751000Y-180910000D03*
D35*
G04 #@! TO.P,U30,4*
G04 #@! TO.N,Net-(D32-Pad2)*
X86300000Y-151700000D03*
G04 #@! TO.P,U30,3*
G04 #@! TO.N,GND*
X86300000Y-156780000D03*
G04 #@! TO.P,U30,2*
X86431000Y-174560000D03*
G04 #@! TO.P,U30,1*
G04 #@! TO.N,/Board_12V+*
X86431000Y-179640000D03*
D34*
G04 #@! TO.P,U30,9*
G04 #@! TO.N,Net-(U30-Pad9)*
X86291000Y-160590000D03*
G04 #@! TD*
D36*
G04 #@! TO.N,/OUT_Sens_12V+*
X139359700Y-74094300D03*
G04 #@! TD*
D37*
G04 #@! TO.N,Net-(D1-Pad2)*
X136906000Y-179134000D02*
X136906000Y-180684000D01*
X136906000Y-180684000D02*
X136993000Y-180771000D01*
X136993000Y-180771000D02*
X136993000Y-186563000D01*
G04 #@! TO.N,Net-(D2-Pad2)*
X150495000Y-179134000D02*
X150495000Y-180684000D01*
X150495000Y-180684000D02*
X150523000Y-180712000D01*
X150523000Y-180712000D02*
X150523000Y-186561000D01*
D38*
G04 #@! TO.N,Net-(F1-Pad2)*
X64180000Y-59590000D02*
X64180000Y-63030800D01*
X77370000Y-79330000D02*
X77370000Y-75889200D01*
X77370000Y-75889200D02*
X64511600Y-63030800D01*
X64511600Y-63030800D02*
X64180000Y-63030800D01*
G04 #@! TO.N,Net-(J1-Pad2)*
X77370000Y-86080000D02*
X57430000Y-66140000D01*
X57430000Y-66140000D02*
X57430000Y-59590000D01*
D37*
G04 #@! TO.N,Net-(D3-Pad2)*
X164148000Y-179134000D02*
X164148000Y-180684000D01*
X164148000Y-180684000D02*
X164171000Y-180707000D01*
X164171000Y-180707000D02*
X164171000Y-186563000D01*
G04 #@! TO.N,GND*
X182465700Y-68185000D02*
X175013000Y-68185000D01*
X175013000Y-68185000D02*
X172332000Y-70866000D01*
X187516000Y-62429000D02*
X182465700Y-67479300D01*
X182465700Y-67479300D02*
X182465700Y-68185000D01*
X179832000Y-85866000D02*
X182465700Y-83232300D01*
X182465700Y-83232300D02*
X182465700Y-68185000D01*
X179651000Y-45510000D02*
X179651000Y-40430000D01*
X179651000Y-40430000D02*
X182191000Y-37890000D01*
X166560000Y-145598000D02*
X164510000Y-145598000D01*
X161671000Y-186563000D02*
X159678100Y-184570100D01*
X159678100Y-184570100D02*
X159678100Y-150429900D01*
X159678100Y-150429900D02*
X164510000Y-145598000D01*
X166688000Y-119372000D02*
X164638000Y-119372000D01*
X166560000Y-132136000D02*
X166560000Y-130386000D01*
X166560000Y-130386000D02*
X164260400Y-128086400D01*
X164260400Y-128086400D02*
X164260400Y-119749600D01*
X164260400Y-119749600D02*
X164638000Y-119372000D01*
X179832000Y-85866000D02*
X179832000Y-90866000D01*
X187516000Y-60579000D02*
X187516000Y-62429000D01*
X182331000Y-46780000D02*
X187516000Y-51965000D01*
X187516000Y-51965000D02*
X187516000Y-60579000D01*
X107181000Y-145542000D02*
X105854000Y-144215000D01*
X105854000Y-144215000D02*
X105854000Y-139382000D01*
X107181000Y-153042000D02*
X107181000Y-145542000D01*
X114681000Y-160542000D02*
X107181000Y-153042000D01*
X86300000Y-156780000D02*
X90038000Y-153042000D01*
X90038000Y-153042000D02*
X107181000Y-153042000D01*
X114681000Y-170542000D02*
X130702000Y-186563000D01*
X130702000Y-186563000D02*
X134493000Y-186563000D01*
X114681000Y-165542000D02*
X114681000Y-170542000D01*
X124326000Y-26670000D02*
X122936000Y-25280000D01*
X122936000Y-25280000D02*
X122936000Y-19367500D01*
X131826000Y-51670000D02*
X131826000Y-46670000D01*
X114681000Y-160542000D02*
X114681000Y-165542000D01*
X179832000Y-90866000D02*
X179832000Y-95866000D01*
X113751000Y-30250000D02*
X113751000Y-32790000D01*
X113751000Y-32790000D02*
X116291000Y-35330000D01*
X116291000Y-35330000D02*
X116291000Y-37870000D01*
X179651000Y-30270000D02*
X179651000Y-32810000D01*
X179651000Y-32810000D02*
X182191000Y-35350000D01*
X182191000Y-35350000D02*
X182191000Y-37890000D01*
X83751000Y-158050000D02*
X83751000Y-160590000D01*
X83751000Y-160590000D02*
X86291000Y-163130000D01*
X86291000Y-163130000D02*
X86291000Y-165670000D01*
X83751000Y-173290000D02*
X83751000Y-168210000D01*
X83751000Y-168210000D02*
X86291000Y-165670000D01*
D39*
G04 #@! TO.N,Net-(D11-Pad1)*
X127381000Y-57975500D02*
X127381000Y-54375200D01*
X124326000Y-51670000D02*
X127031200Y-54375200D01*
X127031200Y-54375200D02*
X127381000Y-54375200D01*
D40*
G04 #@! TO.N,Net-(D12-Pad2)*
X113751000Y-23900000D02*
X113751000Y-22630000D01*
X113751000Y-24931900D02*
X113751000Y-23900000D01*
D39*
X116300000Y-23900000D02*
X113751000Y-23900000D01*
D40*
X113751000Y-25170000D02*
X113751000Y-24931900D01*
D39*
X113751000Y-24931900D02*
X112614500Y-24931900D01*
X112614500Y-24931900D02*
X105918000Y-31628400D01*
X105918000Y-31628400D02*
X105918000Y-63246000D01*
D40*
G04 #@! TO.N,Net-(D22-Pad2)*
X179651000Y-24946000D02*
X179651000Y-25190000D01*
D39*
X179651000Y-24946000D02*
X178528100Y-24946000D01*
X178528100Y-24946000D02*
X164719000Y-38755100D01*
X164719000Y-38755100D02*
X164719000Y-70675500D01*
D40*
G04 #@! TO.N,Net-(D32-Pad2)*
X83751000Y-152970000D02*
X83751000Y-150430000D01*
G04 #@! TO.N,/Board_12V+*
X179651000Y-51860000D02*
X179651000Y-53130000D01*
X179651000Y-50590000D02*
X179651000Y-51860000D01*
D39*
X179651000Y-51860000D02*
X182331000Y-51860000D01*
D40*
X113751000Y-51840000D02*
X113751000Y-53110000D01*
X113751000Y-50570000D02*
X113751000Y-51840000D01*
D39*
X116431000Y-51840000D02*
X113751000Y-51840000D01*
G04 #@! TO.N,/Out_CCU_+*
X172332000Y-90866000D02*
X168831600Y-94366400D01*
X168831600Y-94366400D02*
X168831600Y-108245900D01*
X168831600Y-108245900D02*
X169999900Y-109414200D01*
X169999900Y-109414200D02*
X169999900Y-133279400D01*
X169999900Y-133279400D02*
X167643300Y-135636000D01*
X167643300Y-135636000D02*
X166560000Y-135636000D01*
G04 #@! TO.N,/IRM60_12V+*
X142621000Y-57975500D02*
X142621000Y-61575800D01*
X142621000Y-57975500D02*
X142621000Y-40965300D01*
X142621000Y-40965300D02*
X131826000Y-30170300D01*
X154169100Y-74366300D02*
X154169100Y-73123900D01*
X154169100Y-73123900D02*
X142621000Y-61575800D01*
X154169100Y-74366300D02*
X173816000Y-74366300D01*
X173816000Y-74366300D02*
X176331700Y-71850600D01*
X176331700Y-71850600D02*
X176331700Y-70866000D01*
X131826000Y-26670000D02*
X131826000Y-30170300D01*
X109813400Y-136281700D02*
X109813400Y-118722000D01*
X109813400Y-118722000D02*
X154169100Y-74366300D01*
X179832000Y-70866000D02*
X176331700Y-70866000D01*
X109813400Y-136281700D02*
X112913700Y-139382000D01*
X22930000Y-135590000D02*
X26565400Y-139225400D01*
X26565400Y-139225400D02*
X64712200Y-139225400D01*
X64712200Y-139225400D02*
X67655900Y-136281700D01*
X67655900Y-136281700D02*
X109813400Y-136281700D01*
X116014000Y-139382000D02*
X112913700Y-139382000D01*
X114681000Y-145542000D02*
X114681000Y-149042300D01*
X114681000Y-149042300D02*
X133655700Y-168017000D01*
X133655700Y-168017000D02*
X133655700Y-178423700D01*
X116014000Y-142482300D02*
X114681000Y-143815300D01*
X114681000Y-143815300D02*
X114681000Y-145542000D01*
D41*
X133655700Y-178423700D02*
X134366000Y-179134000D01*
D39*
X116014000Y-139382000D02*
X116014000Y-142482300D01*
X131826000Y-26670000D02*
X131826000Y-23169700D01*
X133096000Y-19367500D02*
X133096000Y-22467800D01*
X131826000Y-23169700D02*
X132527900Y-22467800D01*
X132527900Y-22467800D02*
X133096000Y-22467800D01*
D41*
G04 #@! TO.N,/IRM60_05V+*
X147694600Y-178873600D02*
X147955000Y-179134000D01*
D39*
X153370000Y-120580000D02*
X147694600Y-126255400D01*
X147694600Y-126255400D02*
X147694600Y-178873600D01*
X161563700Y-111188500D02*
X161563700Y-112386300D01*
X161563700Y-112386300D02*
X153370000Y-120580000D01*
X165164000Y-111188500D02*
X161563700Y-111188500D01*
G04 #@! TO.N,/OUT_Sens_12V+*
X124326000Y-46670000D02*
X120808200Y-50187800D01*
X120808200Y-50187800D02*
X120808200Y-53447500D01*
X120808200Y-53447500D02*
X117512800Y-56742900D01*
X117512800Y-56742900D02*
X117512800Y-65665900D01*
X117512800Y-65665900D02*
X125941200Y-74094300D01*
X125941200Y-74094300D02*
X139359700Y-74094300D01*
G04 #@! TD*
D42*
G04 #@! TO.N,GND*
G36*
X191957787Y-13454065D02*
X192122920Y-13549405D01*
X192245488Y-13695477D01*
X192321555Y-13904465D01*
X192330000Y-14000996D01*
X192330001Y-193667875D01*
X192285935Y-193917787D01*
X192190596Y-194082919D01*
X192044524Y-194205488D01*
X191835532Y-194281555D01*
X191739004Y-194290000D01*
X184538800Y-194290000D01*
X184795453Y-194183691D01*
X186183691Y-192795453D01*
X186935000Y-190981632D01*
X186935000Y-189018368D01*
X186183691Y-187204547D01*
X184795453Y-185816309D01*
X182981632Y-185065000D01*
X181018368Y-185065000D01*
X179204547Y-185816309D01*
X177816309Y-187204547D01*
X177065000Y-189018368D01*
X177065000Y-190981632D01*
X177816309Y-192795453D01*
X179204547Y-194183691D01*
X179461200Y-194290000D01*
X29538800Y-194290000D01*
X29795453Y-194183691D01*
X31183691Y-192795453D01*
X31935000Y-190981632D01*
X31935000Y-189018368D01*
X31183691Y-187204547D01*
X30827894Y-186848750D01*
X133008000Y-186848750D01*
X133008000Y-187614310D01*
X133104673Y-187847699D01*
X133283302Y-188026327D01*
X133516691Y-188123000D01*
X134207250Y-188123000D01*
X134366000Y-187964250D01*
X134366000Y-186690000D01*
X133166750Y-186690000D01*
X133008000Y-186848750D01*
X30827894Y-186848750D01*
X29795453Y-185816309D01*
X29060038Y-185511690D01*
X133008000Y-185511690D01*
X133008000Y-186277250D01*
X133166750Y-186436000D01*
X134366000Y-186436000D01*
X134366000Y-185161750D01*
X134207250Y-185003000D01*
X133516691Y-185003000D01*
X133283302Y-185099673D01*
X133104673Y-185278301D01*
X133008000Y-185511690D01*
X29060038Y-185511690D01*
X27981632Y-185065000D01*
X26018368Y-185065000D01*
X24204547Y-185816309D01*
X22816309Y-187204547D01*
X22065000Y-189018368D01*
X22065000Y-190981632D01*
X22816309Y-192795453D01*
X24204547Y-194183691D01*
X24461200Y-194290000D01*
X15302119Y-194290000D01*
X15052213Y-194245935D01*
X14887081Y-194150596D01*
X14764512Y-194004524D01*
X14688445Y-193795532D01*
X14680000Y-193699004D01*
X14680000Y-178043983D01*
X82112000Y-178043983D01*
X82112000Y-178696017D01*
X82361523Y-179298419D01*
X82703104Y-179640000D01*
X82361523Y-179981581D01*
X82112000Y-180583983D01*
X82112000Y-181236017D01*
X82361523Y-181838419D01*
X82822581Y-182299477D01*
X83424983Y-182549000D01*
X84077017Y-182549000D01*
X84679419Y-182299477D01*
X85140477Y-181838419D01*
X85142366Y-181833859D01*
X85929741Y-182160000D01*
X86932259Y-182160000D01*
X87858465Y-181776353D01*
X88567353Y-181067465D01*
X88951000Y-180141259D01*
X88951000Y-179138741D01*
X88567353Y-178212535D01*
X87858465Y-177503647D01*
X87654110Y-177419000D01*
X94184973Y-177419000D01*
X94377217Y-178385477D01*
X94924683Y-179204817D01*
X95744023Y-179752283D01*
X96466538Y-179896000D01*
X96954462Y-179896000D01*
X97676977Y-179752283D01*
X98496317Y-179204817D01*
X99043783Y-178385477D01*
X99236027Y-177419000D01*
X99043783Y-176452523D01*
X98496317Y-175633183D01*
X97676977Y-175085717D01*
X96954462Y-174942000D01*
X96466538Y-174942000D01*
X95744023Y-175085717D01*
X94924683Y-175633183D01*
X94377217Y-176452523D01*
X94184973Y-177419000D01*
X87654110Y-177419000D01*
X86932259Y-177120000D01*
X85929741Y-177120000D01*
X85142366Y-177446141D01*
X85140477Y-177441581D01*
X84679419Y-176980523D01*
X84521518Y-176915118D01*
X84551608Y-176810213D01*
X83751000Y-176009605D01*
X82950392Y-176810213D01*
X82980482Y-176915118D01*
X82822581Y-176980523D01*
X82361523Y-177441581D01*
X82112000Y-178043983D01*
X14680000Y-178043983D01*
X14680000Y-175622302D01*
X82341856Y-175622302D01*
X82369638Y-176177368D01*
X82528603Y-176561143D01*
X82770787Y-176630608D01*
X83571395Y-175830000D01*
X82770787Y-175029392D01*
X82528603Y-175098857D01*
X82341856Y-175622302D01*
X14680000Y-175622302D01*
X14680000Y-174270213D01*
X82950392Y-174270213D01*
X83019857Y-174512397D01*
X83143344Y-174556453D01*
X83019857Y-174607603D01*
X82950392Y-174849787D01*
X83751000Y-175650395D01*
X83765143Y-175636253D01*
X83944748Y-175815858D01*
X83930605Y-175830000D01*
X84731213Y-176630608D01*
X84973397Y-176561143D01*
X85063345Y-176309023D01*
X85170581Y-176510884D01*
X86013096Y-176844723D01*
X86919232Y-176830734D01*
X87691419Y-176510884D01*
X87868653Y-176177259D01*
X86431000Y-174739605D01*
X86416858Y-174753748D01*
X86237253Y-174574143D01*
X86251395Y-174560000D01*
X86610605Y-174560000D01*
X88048259Y-175997653D01*
X88381884Y-175820419D01*
X88715723Y-174977904D01*
X88701734Y-174071768D01*
X88381884Y-173299581D01*
X88048259Y-173122347D01*
X86610605Y-174560000D01*
X86251395Y-174560000D01*
X86237252Y-174545858D01*
X86416858Y-174366252D01*
X86431000Y-174380395D01*
X87868653Y-172942741D01*
X87691419Y-172609116D01*
X86848904Y-172275277D01*
X85942768Y-172289266D01*
X85170581Y-172609116D01*
X85071483Y-172795658D01*
X84973397Y-172558857D01*
X84731213Y-172489392D01*
X83930605Y-173290000D01*
X83944748Y-173304143D01*
X83765143Y-173483748D01*
X83751000Y-173469605D01*
X82950392Y-174270213D01*
X14680000Y-174270213D01*
X14680000Y-173082302D01*
X82341856Y-173082302D01*
X82369638Y-173637368D01*
X82528603Y-174021143D01*
X82770787Y-174090608D01*
X83571395Y-173290000D01*
X82770787Y-172489392D01*
X82528603Y-172558857D01*
X82341856Y-173082302D01*
X14680000Y-173082302D01*
X14680000Y-172309787D01*
X82950392Y-172309787D01*
X83751000Y-173110395D01*
X84551608Y-172309787D01*
X84482143Y-172067603D01*
X83958698Y-171880856D01*
X83403632Y-171908638D01*
X83019857Y-172067603D01*
X82950392Y-172309787D01*
X14680000Y-172309787D01*
X14680000Y-167932119D01*
X84894000Y-167932119D01*
X84894000Y-168487881D01*
X85106680Y-169001337D01*
X85499663Y-169394320D01*
X85706513Y-169480000D01*
X85499663Y-169565680D01*
X85106680Y-169958663D01*
X84894000Y-170472119D01*
X84894000Y-171027881D01*
X85106680Y-171541337D01*
X85499663Y-171934320D01*
X86013119Y-172147000D01*
X86568881Y-172147000D01*
X87082337Y-171934320D01*
X87475320Y-171541337D01*
X87688000Y-171027881D01*
X87688000Y-170472119D01*
X87521100Y-170069185D01*
X104804000Y-170069185D01*
X104804000Y-171014815D01*
X105165877Y-171888462D01*
X105834538Y-172557123D01*
X106708185Y-172919000D01*
X107653815Y-172919000D01*
X108527462Y-172557123D01*
X109028615Y-172055970D01*
X113346635Y-172055970D01*
X113506418Y-172374739D01*
X114297187Y-172684723D01*
X115146387Y-172668497D01*
X115855582Y-172374739D01*
X116015365Y-172055970D01*
X114681000Y-170721605D01*
X113346635Y-172055970D01*
X109028615Y-172055970D01*
X109196123Y-171888462D01*
X109558000Y-171014815D01*
X109558000Y-170158187D01*
X112538277Y-170158187D01*
X112554503Y-171007387D01*
X112848261Y-171716582D01*
X113167030Y-171876365D01*
X114501395Y-170542000D01*
X114860605Y-170542000D01*
X116194970Y-171876365D01*
X116513739Y-171716582D01*
X116823723Y-170925813D01*
X116807497Y-170076613D01*
X116513739Y-169367418D01*
X116194970Y-169207635D01*
X114860605Y-170542000D01*
X114501395Y-170542000D01*
X113167030Y-169207635D01*
X112848261Y-169367418D01*
X112538277Y-170158187D01*
X109558000Y-170158187D01*
X109558000Y-170069185D01*
X109196123Y-169195538D01*
X109028615Y-169028030D01*
X113346635Y-169028030D01*
X114681000Y-170362395D01*
X116015365Y-169028030D01*
X115855582Y-168709261D01*
X115064813Y-168399277D01*
X114215613Y-168415503D01*
X113506418Y-168709261D01*
X113346635Y-169028030D01*
X109028615Y-169028030D01*
X108527462Y-168526877D01*
X107653815Y-168165000D01*
X106708185Y-168165000D01*
X105834538Y-168526877D01*
X105165877Y-169195538D01*
X104804000Y-170069185D01*
X87521100Y-170069185D01*
X87475320Y-169958663D01*
X87082337Y-169565680D01*
X86875487Y-169480000D01*
X87082337Y-169394320D01*
X87475320Y-169001337D01*
X87688000Y-168487881D01*
X87688000Y-167932119D01*
X87475320Y-167418663D01*
X87082337Y-167025680D01*
X86891353Y-166946572D01*
X87022143Y-166892397D01*
X87091608Y-166650213D01*
X86291000Y-165849605D01*
X85490392Y-166650213D01*
X85559857Y-166892397D01*
X85700393Y-166942535D01*
X85499663Y-167025680D01*
X85106680Y-167418663D01*
X84894000Y-167932119D01*
X14680000Y-167932119D01*
X14680000Y-160018368D01*
X22065000Y-160018368D01*
X22065000Y-161981632D01*
X22816309Y-163795453D01*
X24204547Y-165183691D01*
X26018368Y-165935000D01*
X27981632Y-165935000D01*
X29122826Y-165462302D01*
X84881856Y-165462302D01*
X84909638Y-166017368D01*
X85068603Y-166401143D01*
X85310787Y-166470608D01*
X86111395Y-165670000D01*
X86470605Y-165670000D01*
X87271213Y-166470608D01*
X87513397Y-166401143D01*
X87700144Y-165877698D01*
X87672362Y-165322632D01*
X87567381Y-165069185D01*
X104804000Y-165069185D01*
X104804000Y-166014815D01*
X105165877Y-166888462D01*
X105834538Y-167557123D01*
X106708185Y-167919000D01*
X107653815Y-167919000D01*
X108527462Y-167557123D01*
X109028615Y-167055970D01*
X113346635Y-167055970D01*
X113506418Y-167374739D01*
X114297187Y-167684723D01*
X115146387Y-167668497D01*
X115855582Y-167374739D01*
X116015365Y-167055970D01*
X114681000Y-165721605D01*
X113346635Y-167055970D01*
X109028615Y-167055970D01*
X109196123Y-166888462D01*
X109558000Y-166014815D01*
X109558000Y-165158187D01*
X112538277Y-165158187D01*
X112554503Y-166007387D01*
X112848261Y-166716582D01*
X113167030Y-166876365D01*
X114501395Y-165542000D01*
X114860605Y-165542000D01*
X116194970Y-166876365D01*
X116513739Y-166716582D01*
X116823723Y-165925813D01*
X116807497Y-165076613D01*
X116513739Y-164367418D01*
X116194970Y-164207635D01*
X114860605Y-165542000D01*
X114501395Y-165542000D01*
X113167030Y-164207635D01*
X112848261Y-164367418D01*
X112538277Y-165158187D01*
X109558000Y-165158187D01*
X109558000Y-165069185D01*
X109196123Y-164195538D01*
X109028615Y-164028030D01*
X113346635Y-164028030D01*
X114681000Y-165362395D01*
X116015365Y-164028030D01*
X115855582Y-163709261D01*
X115064813Y-163399277D01*
X114215613Y-163415503D01*
X113506418Y-163709261D01*
X113346635Y-164028030D01*
X109028615Y-164028030D01*
X108527462Y-163526877D01*
X107653815Y-163165000D01*
X106708185Y-163165000D01*
X105834538Y-163526877D01*
X105165877Y-164195538D01*
X104804000Y-165069185D01*
X87567381Y-165069185D01*
X87513397Y-164938857D01*
X87271213Y-164869392D01*
X86470605Y-165670000D01*
X86111395Y-165670000D01*
X85310787Y-164869392D01*
X85068603Y-164938857D01*
X84881856Y-165462302D01*
X29122826Y-165462302D01*
X29795453Y-165183691D01*
X30868931Y-164110213D01*
X85490392Y-164110213D01*
X85559857Y-164352397D01*
X85683344Y-164396453D01*
X85559857Y-164447603D01*
X85490392Y-164689787D01*
X86291000Y-165490395D01*
X87091608Y-164689787D01*
X87022143Y-164447603D01*
X86898656Y-164403547D01*
X87022143Y-164352397D01*
X87091608Y-164110213D01*
X86291000Y-163309605D01*
X85490392Y-164110213D01*
X30868931Y-164110213D01*
X31183691Y-163795453D01*
X31545361Y-162922302D01*
X84881856Y-162922302D01*
X84909638Y-163477368D01*
X85068603Y-163861143D01*
X85310787Y-163930608D01*
X86111395Y-163130000D01*
X86470605Y-163130000D01*
X87271213Y-163930608D01*
X87513397Y-163861143D01*
X87700144Y-163337698D01*
X87672362Y-162782632D01*
X87513397Y-162398857D01*
X87271213Y-162329392D01*
X86470605Y-163130000D01*
X86111395Y-163130000D01*
X85310787Y-162329392D01*
X85068603Y-162398857D01*
X84881856Y-162922302D01*
X31545361Y-162922302D01*
X31935000Y-161981632D01*
X31935000Y-160312119D01*
X84894000Y-160312119D01*
X84894000Y-160867881D01*
X85106680Y-161381337D01*
X85499663Y-161774320D01*
X85690647Y-161853428D01*
X85559857Y-161907603D01*
X85490392Y-162149787D01*
X86291000Y-162950395D01*
X87091608Y-162149787D01*
X87022143Y-161907603D01*
X86881607Y-161857465D01*
X87082337Y-161774320D01*
X87475320Y-161381337D01*
X87688000Y-160867881D01*
X87688000Y-160579000D01*
X94216319Y-160579000D01*
X94216319Y-163779000D01*
X94284384Y-164121188D01*
X94478219Y-164411281D01*
X94768312Y-164605116D01*
X95110500Y-164673181D01*
X98310500Y-164673181D01*
X98652688Y-164605116D01*
X98942781Y-164411281D01*
X99136616Y-164121188D01*
X99204681Y-163779000D01*
X99204681Y-160579000D01*
X99136616Y-160236812D01*
X99024611Y-160069185D01*
X104804000Y-160069185D01*
X104804000Y-161014815D01*
X105165877Y-161888462D01*
X105834538Y-162557123D01*
X106708185Y-162919000D01*
X107653815Y-162919000D01*
X108527462Y-162557123D01*
X109028615Y-162055970D01*
X113346635Y-162055970D01*
X113506418Y-162374739D01*
X114297187Y-162684723D01*
X115146387Y-162668497D01*
X115855582Y-162374739D01*
X116015365Y-162055970D01*
X114681000Y-160721605D01*
X113346635Y-162055970D01*
X109028615Y-162055970D01*
X109196123Y-161888462D01*
X109558000Y-161014815D01*
X109558000Y-160158187D01*
X112538277Y-160158187D01*
X112554503Y-161007387D01*
X112848261Y-161716582D01*
X113167030Y-161876365D01*
X114501395Y-160542000D01*
X114860605Y-160542000D01*
X116194970Y-161876365D01*
X116513739Y-161716582D01*
X116823723Y-160925813D01*
X116807497Y-160076613D01*
X116513739Y-159367418D01*
X116194970Y-159207635D01*
X114860605Y-160542000D01*
X114501395Y-160542000D01*
X113167030Y-159207635D01*
X112848261Y-159367418D01*
X112538277Y-160158187D01*
X109558000Y-160158187D01*
X109558000Y-160069185D01*
X109196123Y-159195538D01*
X109028615Y-159028030D01*
X113346635Y-159028030D01*
X114681000Y-160362395D01*
X116015365Y-159028030D01*
X115855582Y-158709261D01*
X115064813Y-158399277D01*
X114215613Y-158415503D01*
X113506418Y-158709261D01*
X113346635Y-159028030D01*
X109028615Y-159028030D01*
X108527462Y-158526877D01*
X107653815Y-158165000D01*
X106708185Y-158165000D01*
X105834538Y-158526877D01*
X105165877Y-159195538D01*
X104804000Y-160069185D01*
X99024611Y-160069185D01*
X98942781Y-159946719D01*
X98652688Y-159752884D01*
X98310500Y-159684819D01*
X95110500Y-159684819D01*
X94768312Y-159752884D01*
X94478219Y-159946719D01*
X94284384Y-160236812D01*
X94216319Y-160579000D01*
X87688000Y-160579000D01*
X87688000Y-160312119D01*
X87475320Y-159798663D01*
X87082337Y-159405680D01*
X86568881Y-159193000D01*
X86013119Y-159193000D01*
X85499663Y-159405680D01*
X85106680Y-159798663D01*
X84894000Y-160312119D01*
X31935000Y-160312119D01*
X31935000Y-160018368D01*
X31525693Y-159030213D01*
X82950392Y-159030213D01*
X83019857Y-159272397D01*
X83543302Y-159459144D01*
X84098368Y-159431362D01*
X84482143Y-159272397D01*
X84551608Y-159030213D01*
X83751000Y-158229605D01*
X82950392Y-159030213D01*
X31525693Y-159030213D01*
X31183691Y-158204547D01*
X30821446Y-157842302D01*
X82341856Y-157842302D01*
X82369638Y-158397368D01*
X82528603Y-158781143D01*
X82770787Y-158850608D01*
X83571395Y-158050000D01*
X82770787Y-157249392D01*
X82528603Y-157318857D01*
X82341856Y-157842302D01*
X30821446Y-157842302D01*
X29795453Y-156816309D01*
X29008188Y-156490213D01*
X82950392Y-156490213D01*
X83019857Y-156732397D01*
X83143344Y-156776453D01*
X83019857Y-156827603D01*
X82950392Y-157069787D01*
X83751000Y-157870395D01*
X83765143Y-157856253D01*
X83944748Y-158035858D01*
X83930605Y-158050000D01*
X84731213Y-158850608D01*
X84973397Y-158781143D01*
X85010714Y-158676545D01*
X85039581Y-158730884D01*
X85882096Y-159064723D01*
X86788232Y-159050734D01*
X87560419Y-158730884D01*
X87737653Y-158397259D01*
X86300000Y-156959605D01*
X86285858Y-156973748D01*
X86106252Y-156794142D01*
X86120395Y-156780000D01*
X86479605Y-156780000D01*
X87917259Y-158217653D01*
X88250884Y-158040419D01*
X88584723Y-157197904D01*
X88570734Y-156291768D01*
X88250884Y-155519581D01*
X87917259Y-155342347D01*
X86479605Y-156780000D01*
X86120395Y-156780000D01*
X86106252Y-156765858D01*
X86285858Y-156586252D01*
X86300000Y-156600395D01*
X87737653Y-155162741D01*
X87560419Y-154829116D01*
X87007433Y-154610000D01*
X94343319Y-154610000D01*
X94343319Y-157810000D01*
X94411384Y-158152188D01*
X94605219Y-158442281D01*
X94895312Y-158636116D01*
X95237500Y-158704181D01*
X98437500Y-158704181D01*
X98779688Y-158636116D01*
X99069781Y-158442281D01*
X99263616Y-158152188D01*
X99331681Y-157810000D01*
X99331681Y-154610000D01*
X99263616Y-154267812D01*
X99069781Y-153977719D01*
X98779688Y-153783884D01*
X98437500Y-153715819D01*
X95237500Y-153715819D01*
X94895312Y-153783884D01*
X94605219Y-153977719D01*
X94411384Y-154267812D01*
X94343319Y-154610000D01*
X87007433Y-154610000D01*
X86717904Y-154495277D01*
X85811768Y-154509266D01*
X85039581Y-154829116D01*
X85014090Y-154877099D01*
X84973397Y-154778857D01*
X84731213Y-154709392D01*
X83930605Y-155510000D01*
X83944748Y-155524143D01*
X83765143Y-155703748D01*
X83751000Y-155689605D01*
X82950392Y-156490213D01*
X29008188Y-156490213D01*
X27981632Y-156065000D01*
X26018368Y-156065000D01*
X24204547Y-156816309D01*
X22816309Y-158204547D01*
X22065000Y-160018368D01*
X14680000Y-160018368D01*
X14680000Y-155302302D01*
X82341856Y-155302302D01*
X82369638Y-155857368D01*
X82528603Y-156241143D01*
X82770787Y-156310608D01*
X83571395Y-155510000D01*
X82770787Y-154709392D01*
X82528603Y-154778857D01*
X82341856Y-155302302D01*
X14680000Y-155302302D01*
X14680000Y-150103983D01*
X82112000Y-150103983D01*
X82112000Y-150756017D01*
X82112101Y-150756260D01*
X82112100Y-152643741D01*
X82112000Y-152643983D01*
X82112000Y-153296017D01*
X82175184Y-153448557D01*
X82207191Y-153609466D01*
X82298338Y-153745878D01*
X82361523Y-153898419D01*
X82478273Y-154015169D01*
X82569420Y-154151580D01*
X82705831Y-154242727D01*
X82822581Y-154359477D01*
X82975120Y-154422661D01*
X82980154Y-154426024D01*
X82950392Y-154529787D01*
X83751000Y-155330395D01*
X84551608Y-154529787D01*
X84521846Y-154426024D01*
X84526878Y-154422662D01*
X84679419Y-154359477D01*
X84796169Y-154242727D01*
X84932580Y-154151580D01*
X85023727Y-154015169D01*
X85105886Y-153933010D01*
X85798741Y-154220000D01*
X86801259Y-154220000D01*
X87727465Y-153836353D01*
X88436353Y-153127465D01*
X88820000Y-152201259D01*
X88820000Y-151198741D01*
X88436353Y-150272535D01*
X87727465Y-149563647D01*
X86801259Y-149180000D01*
X85798741Y-149180000D01*
X85105886Y-149466990D01*
X85023727Y-149384831D01*
X84932580Y-149248420D01*
X84796169Y-149157273D01*
X84679419Y-149040523D01*
X84526880Y-148977339D01*
X84390467Y-148886191D01*
X84229556Y-148854184D01*
X84077017Y-148791000D01*
X83911910Y-148791000D01*
X83751000Y-148758993D01*
X83590090Y-148791000D01*
X83424983Y-148791000D01*
X83272443Y-148854184D01*
X83111534Y-148886191D01*
X82975123Y-148977338D01*
X82822581Y-149040523D01*
X82705829Y-149157275D01*
X82569421Y-149248420D01*
X82478276Y-149384828D01*
X82361523Y-149501581D01*
X82298337Y-149654124D01*
X82207192Y-149790533D01*
X82175186Y-149951439D01*
X82112000Y-150103983D01*
X14680000Y-150103983D01*
X14680000Y-147055970D01*
X105846635Y-147055970D01*
X106006418Y-147374739D01*
X106797187Y-147684723D01*
X107646387Y-147668497D01*
X108355582Y-147374739D01*
X108515365Y-147055970D01*
X107181000Y-145721605D01*
X105846635Y-147055970D01*
X14680000Y-147055970D01*
X14680000Y-145158187D01*
X105038277Y-145158187D01*
X105054503Y-146007387D01*
X105348261Y-146716582D01*
X105667030Y-146876365D01*
X107001395Y-145542000D01*
X107360605Y-145542000D01*
X108694970Y-146876365D01*
X109013739Y-146716582D01*
X109323723Y-145925813D01*
X109307497Y-145076613D01*
X109013739Y-144367418D01*
X108694970Y-144207635D01*
X107360605Y-145542000D01*
X107001395Y-145542000D01*
X105667030Y-144207635D01*
X105348261Y-144367418D01*
X105038277Y-145158187D01*
X14680000Y-145158187D01*
X14680000Y-144028030D01*
X105846635Y-144028030D01*
X107181000Y-145362395D01*
X108515365Y-144028030D01*
X108355582Y-143709261D01*
X107564813Y-143399277D01*
X106715613Y-143415503D01*
X106006418Y-143709261D01*
X105846635Y-144028030D01*
X14680000Y-144028030D01*
X14680000Y-135090332D01*
X20418000Y-135090332D01*
X20418000Y-136089668D01*
X20800429Y-137012934D01*
X21507066Y-137719571D01*
X22430332Y-138102000D01*
X22433968Y-138102000D01*
X24913255Y-140581288D01*
X25031919Y-140758881D01*
X25209512Y-140877545D01*
X25209514Y-140877547D01*
X25499311Y-141071183D01*
X25735486Y-141228990D01*
X26355911Y-141352400D01*
X26355915Y-141352400D01*
X26565400Y-141394069D01*
X26774884Y-141352400D01*
X64502716Y-141352400D01*
X64712200Y-141394069D01*
X64921684Y-141352400D01*
X64921689Y-141352400D01*
X65542114Y-141228990D01*
X65929719Y-140970000D01*
X94311973Y-140970000D01*
X94504217Y-141936477D01*
X95051683Y-142755817D01*
X95871023Y-143303283D01*
X96593538Y-143447000D01*
X97081462Y-143447000D01*
X97803977Y-143303283D01*
X98623317Y-142755817D01*
X99170783Y-141936477D01*
X99363027Y-140970000D01*
X99170783Y-140003523D01*
X99020175Y-139778122D01*
X104164825Y-139778122D01*
X104379466Y-140296332D01*
X104841608Y-140791012D01*
X105457877Y-141071183D01*
X105727000Y-140953604D01*
X105727000Y-139509000D01*
X105981000Y-139509000D01*
X105981000Y-140953604D01*
X106250123Y-141071183D01*
X106866392Y-140791012D01*
X107328534Y-140296332D01*
X107543175Y-139778122D01*
X107425125Y-139509000D01*
X105981000Y-139509000D01*
X105727000Y-139509000D01*
X104282875Y-139509000D01*
X104164825Y-139778122D01*
X99020175Y-139778122D01*
X98623317Y-139184183D01*
X97803977Y-138636717D01*
X97081462Y-138493000D01*
X96593538Y-138493000D01*
X95871023Y-138636717D01*
X95051683Y-139184183D01*
X94504217Y-140003523D01*
X94311973Y-140970000D01*
X65929719Y-140970000D01*
X66245681Y-140758881D01*
X66364347Y-140581285D01*
X68536932Y-138408700D01*
X104434555Y-138408700D01*
X104379466Y-138467668D01*
X104164825Y-138985878D01*
X104282875Y-139255000D01*
X105727000Y-139255000D01*
X105727000Y-139235000D01*
X105981000Y-139235000D01*
X105981000Y-139255000D01*
X107425125Y-139255000D01*
X107543175Y-138985878D01*
X107328534Y-138467668D01*
X107273445Y-138408700D01*
X108932368Y-138408700D01*
X111261553Y-140737885D01*
X111380219Y-140915481D01*
X112083786Y-141385590D01*
X112704211Y-141509000D01*
X112704215Y-141509000D01*
X112913699Y-141550669D01*
X113123184Y-141509000D01*
X113887000Y-141509000D01*
X113887000Y-141601269D01*
X113325116Y-142163153D01*
X113147519Y-142281819D01*
X112677410Y-142985387D01*
X112599794Y-143375592D01*
X112548719Y-143409719D01*
X112354884Y-143699812D01*
X112286819Y-144042000D01*
X112286819Y-147042000D01*
X112354884Y-147384188D01*
X112548719Y-147674281D01*
X112554000Y-147677810D01*
X112554000Y-148832816D01*
X112512331Y-149042300D01*
X112554000Y-149251784D01*
X112554000Y-149251789D01*
X112616033Y-149563647D01*
X112677411Y-149872214D01*
X113028853Y-150398185D01*
X113028856Y-150398188D01*
X113147520Y-150575781D01*
X113325113Y-150694445D01*
X131528700Y-168898033D01*
X131528701Y-178633189D01*
X131652111Y-179253614D01*
X132122220Y-179957181D01*
X132825787Y-180427290D01*
X133402337Y-180541973D01*
X133416056Y-180555692D01*
X133572119Y-180620335D01*
X133711706Y-180713605D01*
X133876361Y-180746357D01*
X134032424Y-180811000D01*
X134201348Y-180811000D01*
X134366000Y-180843751D01*
X134530652Y-180811000D01*
X134699576Y-180811000D01*
X134855640Y-180746356D01*
X135020293Y-180713605D01*
X135159880Y-180620336D01*
X135315944Y-180555692D01*
X135435390Y-180436246D01*
X135574977Y-180342977D01*
X135668246Y-180203390D01*
X135787692Y-180083944D01*
X135798094Y-180058832D01*
X135871423Y-180168577D01*
X135896001Y-180184999D01*
X135896001Y-180584525D01*
X135876214Y-180684000D01*
X135896001Y-180783476D01*
X135914642Y-180877190D01*
X135954602Y-181078082D01*
X135983000Y-181120583D01*
X135983001Y-185376866D01*
X135935344Y-185408709D01*
X135881327Y-185278301D01*
X135702698Y-185099673D01*
X135469309Y-185003000D01*
X134778750Y-185003000D01*
X134620000Y-185161750D01*
X134620000Y-186436000D01*
X134640000Y-186436000D01*
X134640000Y-186690000D01*
X134620000Y-186690000D01*
X134620000Y-187964250D01*
X134778750Y-188123000D01*
X135469309Y-188123000D01*
X135702698Y-188026327D01*
X135881327Y-187847699D01*
X135935344Y-187717291D01*
X136413583Y-188036839D01*
X136993000Y-188152092D01*
X137572418Y-188036839D01*
X138063625Y-187708625D01*
X138391839Y-187217417D01*
X138465569Y-186846750D01*
X146538000Y-186846750D01*
X146538000Y-187612310D01*
X146634673Y-187845699D01*
X146813302Y-188024327D01*
X147046691Y-188121000D01*
X147737250Y-188121000D01*
X147896000Y-187962250D01*
X147896000Y-186688000D01*
X146696750Y-186688000D01*
X146538000Y-186846750D01*
X138465569Y-186846750D01*
X138478000Y-186784255D01*
X138478000Y-186341744D01*
X138391839Y-185908582D01*
X138125308Y-185509690D01*
X146538000Y-185509690D01*
X146538000Y-186275250D01*
X146696750Y-186434000D01*
X147896000Y-186434000D01*
X147896000Y-185159750D01*
X147737250Y-185001000D01*
X147046691Y-185001000D01*
X146813302Y-185097673D01*
X146634673Y-185276301D01*
X146538000Y-185509690D01*
X138125308Y-185509690D01*
X138063625Y-185417375D01*
X138003000Y-185376867D01*
X138003000Y-180870472D01*
X138022786Y-180771000D01*
X138003000Y-180671528D01*
X138003000Y-180671524D01*
X137944399Y-180376918D01*
X137916000Y-180334416D01*
X137916000Y-180184999D01*
X137940577Y-180168577D01*
X138257740Y-179693909D01*
X138369113Y-179134000D01*
X138257740Y-178574091D01*
X137940577Y-178099423D01*
X137465909Y-177782260D01*
X137047333Y-177699000D01*
X136764667Y-177699000D01*
X136346091Y-177782260D01*
X135871423Y-178099423D01*
X135798094Y-178209168D01*
X135787692Y-178184056D01*
X135782700Y-178179064D01*
X135782700Y-168226484D01*
X135824369Y-168016999D01*
X135782700Y-167807515D01*
X135782700Y-167807511D01*
X135659290Y-167187086D01*
X135451673Y-166876365D01*
X135307847Y-166661114D01*
X135307845Y-166661112D01*
X135189181Y-166483519D01*
X135011588Y-166364856D01*
X116808000Y-148161268D01*
X116808000Y-147677810D01*
X116813281Y-147674281D01*
X117007116Y-147384188D01*
X117075181Y-147042000D01*
X117075181Y-144429150D01*
X117369883Y-144134449D01*
X117547481Y-144015781D01*
X117841182Y-143576227D01*
X118017590Y-143312215D01*
X118128264Y-142755817D01*
X118141000Y-142691789D01*
X118141000Y-142691786D01*
X118182669Y-142482300D01*
X118141000Y-142272814D01*
X118141000Y-139591489D01*
X118182670Y-139382000D01*
X118017590Y-138552086D01*
X118008181Y-138538004D01*
X118008181Y-138282000D01*
X117940116Y-137939812D01*
X117746281Y-137649719D01*
X117456188Y-137455884D01*
X117114000Y-137387819D01*
X116857996Y-137387819D01*
X116843914Y-137378410D01*
X116223489Y-137255000D01*
X116014000Y-137213330D01*
X115804511Y-137255000D01*
X113794732Y-137255000D01*
X111940400Y-135400668D01*
X111940400Y-126255400D01*
X145525931Y-126255400D01*
X145567600Y-126464884D01*
X145567601Y-179083089D01*
X145691011Y-179703514D01*
X146161120Y-180407081D01*
X146864687Y-180877190D01*
X147694600Y-181042270D01*
X148524514Y-180877190D01*
X149228081Y-180407081D01*
X149423934Y-180113967D01*
X149460423Y-180168577D01*
X149485001Y-180184999D01*
X149485001Y-180584525D01*
X149465214Y-180684000D01*
X149485001Y-180783476D01*
X149503642Y-180877190D01*
X149513000Y-180924236D01*
X149513001Y-185374866D01*
X149465344Y-185406709D01*
X149411327Y-185276301D01*
X149232698Y-185097673D01*
X148999309Y-185001000D01*
X148308750Y-185001000D01*
X148150000Y-185159750D01*
X148150000Y-186434000D01*
X148170000Y-186434000D01*
X148170000Y-186688000D01*
X148150000Y-186688000D01*
X148150000Y-187962250D01*
X148308750Y-188121000D01*
X148999309Y-188121000D01*
X149232698Y-188024327D01*
X149411327Y-187845699D01*
X149465344Y-187715291D01*
X149943583Y-188034839D01*
X150523000Y-188150092D01*
X151102418Y-188034839D01*
X151593625Y-187706625D01*
X151921839Y-187215417D01*
X151994773Y-186848750D01*
X160186000Y-186848750D01*
X160186000Y-187614310D01*
X160282673Y-187847699D01*
X160461302Y-188026327D01*
X160694691Y-188123000D01*
X161385250Y-188123000D01*
X161544000Y-187964250D01*
X161544000Y-186690000D01*
X160344750Y-186690000D01*
X160186000Y-186848750D01*
X151994773Y-186848750D01*
X152008000Y-186782255D01*
X152008000Y-186339744D01*
X151921839Y-185906582D01*
X151657981Y-185511690D01*
X160186000Y-185511690D01*
X160186000Y-186277250D01*
X160344750Y-186436000D01*
X161544000Y-186436000D01*
X161544000Y-185161750D01*
X161385250Y-185003000D01*
X160694691Y-185003000D01*
X160461302Y-185099673D01*
X160282673Y-185278301D01*
X160186000Y-185511690D01*
X151657981Y-185511690D01*
X151593625Y-185415375D01*
X151533000Y-185374867D01*
X151533000Y-180811471D01*
X151552786Y-180712000D01*
X151533000Y-180612529D01*
X151533000Y-180612524D01*
X151505000Y-180471759D01*
X151505000Y-180184999D01*
X151529577Y-180168577D01*
X151846740Y-179693909D01*
X151958113Y-179134000D01*
X151891761Y-178800424D01*
X159931000Y-178800424D01*
X159931000Y-179467576D01*
X160186308Y-180083944D01*
X160658056Y-180555692D01*
X161274424Y-180811000D01*
X161941576Y-180811000D01*
X162557944Y-180555692D01*
X163029692Y-180083944D01*
X163040094Y-180058832D01*
X163113423Y-180168577D01*
X163138001Y-180184999D01*
X163138001Y-180584525D01*
X163118214Y-180684000D01*
X163138001Y-180783476D01*
X163156642Y-180877190D01*
X163161000Y-180899099D01*
X163161001Y-185376866D01*
X163113344Y-185408709D01*
X163059327Y-185278301D01*
X162880698Y-185099673D01*
X162647309Y-185003000D01*
X161956750Y-185003000D01*
X161798000Y-185161750D01*
X161798000Y-186436000D01*
X161818000Y-186436000D01*
X161818000Y-186690000D01*
X161798000Y-186690000D01*
X161798000Y-187964250D01*
X161956750Y-188123000D01*
X162647309Y-188123000D01*
X162880698Y-188026327D01*
X163059327Y-187847699D01*
X163113344Y-187717291D01*
X163591583Y-188036839D01*
X164171000Y-188152092D01*
X164750418Y-188036839D01*
X165241625Y-187708625D01*
X165569839Y-187217417D01*
X165656000Y-186784255D01*
X165656000Y-186341744D01*
X165569839Y-185908582D01*
X165241625Y-185417375D01*
X165181000Y-185376867D01*
X165181000Y-180806471D01*
X165200786Y-180707000D01*
X165181000Y-180607529D01*
X165181000Y-180607524D01*
X165158000Y-180491896D01*
X165158000Y-180184999D01*
X165182577Y-180168577D01*
X165499740Y-179693909D01*
X165611113Y-179134000D01*
X165499740Y-178574091D01*
X165182577Y-178099423D01*
X164707909Y-177782260D01*
X164289333Y-177699000D01*
X164006667Y-177699000D01*
X163588091Y-177782260D01*
X163113423Y-178099423D01*
X163040094Y-178209168D01*
X163029692Y-178184056D01*
X162557944Y-177712308D01*
X161941576Y-177457000D01*
X161274424Y-177457000D01*
X160658056Y-177712308D01*
X160186308Y-178184056D01*
X159931000Y-178800424D01*
X151891761Y-178800424D01*
X151846740Y-178574091D01*
X151529577Y-178099423D01*
X151054909Y-177782260D01*
X150636333Y-177699000D01*
X150353667Y-177699000D01*
X149935091Y-177782260D01*
X149821600Y-177858092D01*
X149821600Y-160018368D01*
X177065000Y-160018368D01*
X177065000Y-161981632D01*
X177816309Y-163795453D01*
X179204547Y-165183691D01*
X181018368Y-165935000D01*
X182981632Y-165935000D01*
X184795453Y-165183691D01*
X186183691Y-163795453D01*
X186935000Y-161981632D01*
X186935000Y-160018368D01*
X186183691Y-158204547D01*
X184795453Y-156816309D01*
X182981632Y-156065000D01*
X181018368Y-156065000D01*
X179204547Y-156816309D01*
X177816309Y-158204547D01*
X177065000Y-160018368D01*
X149821600Y-160018368D01*
X149821600Y-148348000D01*
X164365819Y-148348000D01*
X164365819Y-149848000D01*
X164452915Y-150285859D01*
X164700942Y-150657058D01*
X165072141Y-150905085D01*
X165510000Y-150992181D01*
X167610000Y-150992181D01*
X168047859Y-150905085D01*
X168419058Y-150657058D01*
X168667085Y-150285859D01*
X168754181Y-149848000D01*
X168754181Y-148348000D01*
X168667085Y-147910141D01*
X168419058Y-147538942D01*
X168047859Y-147290915D01*
X167610000Y-147203819D01*
X167090873Y-147203819D01*
X167603020Y-147059942D01*
X168105922Y-146664317D01*
X168419144Y-146106355D01*
X168450124Y-145978434D01*
X168330777Y-145725000D01*
X166687000Y-145725000D01*
X166687000Y-145745000D01*
X166433000Y-145745000D01*
X166433000Y-145725000D01*
X164789223Y-145725000D01*
X164669876Y-145978434D01*
X164700856Y-146106355D01*
X165014078Y-146664317D01*
X165516980Y-147059942D01*
X166029127Y-147203819D01*
X165510000Y-147203819D01*
X165072141Y-147290915D01*
X164700942Y-147538942D01*
X164452915Y-147910141D01*
X164365819Y-148348000D01*
X149821600Y-148348000D01*
X149821600Y-145217566D01*
X164669876Y-145217566D01*
X164789223Y-145471000D01*
X166433000Y-145471000D01*
X166433000Y-143963000D01*
X166687000Y-143963000D01*
X166687000Y-145471000D01*
X168330777Y-145471000D01*
X168450124Y-145217566D01*
X168419144Y-145089645D01*
X168105922Y-144531683D01*
X167603020Y-144136058D01*
X166987000Y-143963000D01*
X166687000Y-143963000D01*
X166433000Y-143963000D01*
X166133000Y-143963000D01*
X165516980Y-144136058D01*
X165014078Y-144531683D01*
X164700856Y-145089645D01*
X164669876Y-145217566D01*
X149821600Y-145217566D01*
X149821600Y-131755566D01*
X164669876Y-131755566D01*
X164789223Y-132009000D01*
X166433000Y-132009000D01*
X166433000Y-130501000D01*
X166133000Y-130501000D01*
X165516980Y-130674058D01*
X165014078Y-131069683D01*
X164700856Y-131627645D01*
X164669876Y-131755566D01*
X149821600Y-131755566D01*
X149821600Y-127136432D01*
X153866032Y-123092000D01*
X153869668Y-123092000D01*
X154792934Y-122709571D01*
X155499571Y-122002934D01*
X155882000Y-121079668D01*
X155882000Y-121076032D01*
X157966466Y-118991566D01*
X164797876Y-118991566D01*
X164917223Y-119245000D01*
X166561000Y-119245000D01*
X166561000Y-117737000D01*
X166261000Y-117737000D01*
X165644980Y-117910058D01*
X165142078Y-118305683D01*
X164828856Y-118863645D01*
X164797876Y-118991566D01*
X157966466Y-118991566D01*
X162919585Y-114038447D01*
X163097181Y-113919781D01*
X163267086Y-113665500D01*
X163500950Y-113315500D01*
X163888799Y-113315500D01*
X164197523Y-113521783D01*
X164920038Y-113665500D01*
X165407962Y-113665500D01*
X166130477Y-113521783D01*
X166949817Y-112974317D01*
X167497283Y-112154977D01*
X167689527Y-111188500D01*
X167497283Y-110222023D01*
X166949817Y-109402683D01*
X166130477Y-108855217D01*
X165407962Y-108711500D01*
X164920038Y-108711500D01*
X164197523Y-108855217D01*
X163888799Y-109061500D01*
X161773189Y-109061500D01*
X161563700Y-109019830D01*
X160733786Y-109184910D01*
X160030219Y-109655019D01*
X159560110Y-110358586D01*
X159395030Y-111188500D01*
X159436700Y-111397989D01*
X159436700Y-111505268D01*
X155643690Y-115298278D01*
X155632666Y-114593046D01*
X155314275Y-113824382D01*
X154981481Y-113648124D01*
X153549605Y-115080000D01*
X153563748Y-115094143D01*
X153384143Y-115273748D01*
X153370000Y-115259605D01*
X151938124Y-116691481D01*
X152114382Y-117024275D01*
X152954002Y-117356781D01*
X153595210Y-117346758D01*
X152873968Y-118068000D01*
X152870332Y-118068000D01*
X151947066Y-118450429D01*
X151240429Y-119157066D01*
X150858000Y-120080332D01*
X150858000Y-120083968D01*
X146338715Y-124603253D01*
X146161119Y-124721919D01*
X145691010Y-125425487D01*
X145567600Y-126045912D01*
X145567600Y-126045916D01*
X145525931Y-126255400D01*
X111940400Y-126255400D01*
X111940400Y-119603032D01*
X116879430Y-114664002D01*
X151093219Y-114664002D01*
X151107334Y-115566954D01*
X151425725Y-116335618D01*
X151758519Y-116511876D01*
X153190395Y-115080000D01*
X151758519Y-113648124D01*
X151425725Y-113824382D01*
X151093219Y-114664002D01*
X116879430Y-114664002D01*
X118074913Y-113468519D01*
X151938124Y-113468519D01*
X153370000Y-114900395D01*
X154801876Y-113468519D01*
X154625618Y-113135725D01*
X153785998Y-112803219D01*
X152883046Y-112817334D01*
X152114382Y-113135725D01*
X151938124Y-113468519D01*
X118074913Y-113468519D01*
X137194932Y-94348500D01*
X162669819Y-94348500D01*
X162669819Y-97548500D01*
X162737884Y-97890688D01*
X162931719Y-98180781D01*
X163221812Y-98374616D01*
X163564000Y-98442681D01*
X166704600Y-98442681D01*
X166704601Y-108036411D01*
X166662931Y-108245900D01*
X166828011Y-109075814D01*
X167179453Y-109601785D01*
X167179456Y-109601788D01*
X167298120Y-109779381D01*
X167475714Y-109898045D01*
X167872900Y-110295232D01*
X167872900Y-118021673D01*
X167731020Y-117910058D01*
X167115000Y-117737000D01*
X166815000Y-117737000D01*
X166815000Y-119245000D01*
X166835000Y-119245000D01*
X166835000Y-119499000D01*
X166815000Y-119499000D01*
X166815000Y-119519000D01*
X166561000Y-119519000D01*
X166561000Y-119499000D01*
X164917223Y-119499000D01*
X164797876Y-119752434D01*
X164828856Y-119880355D01*
X165142078Y-120438317D01*
X165644980Y-120833942D01*
X166157127Y-120977819D01*
X165638000Y-120977819D01*
X165200141Y-121064915D01*
X164828942Y-121312942D01*
X164580915Y-121684141D01*
X164493819Y-122122000D01*
X164493819Y-123622000D01*
X164580915Y-124059859D01*
X164828942Y-124431058D01*
X165200141Y-124679085D01*
X165638000Y-124766181D01*
X167738000Y-124766181D01*
X167872901Y-124739347D01*
X167872901Y-130886369D01*
X167603020Y-130674058D01*
X166987000Y-130501000D01*
X166687000Y-130501000D01*
X166687000Y-132009000D01*
X166707000Y-132009000D01*
X166707000Y-132263000D01*
X166687000Y-132263000D01*
X166687000Y-132283000D01*
X166433000Y-132283000D01*
X166433000Y-132263000D01*
X164789223Y-132263000D01*
X164669876Y-132516434D01*
X164700856Y-132644355D01*
X165014078Y-133202317D01*
X165516980Y-133597942D01*
X165703324Y-133650292D01*
X165566344Y-133741819D01*
X165510000Y-133741819D01*
X165072141Y-133828915D01*
X164700942Y-134076942D01*
X164452915Y-134448141D01*
X164365819Y-134886000D01*
X164365819Y-136386000D01*
X164452915Y-136823859D01*
X164700942Y-137195058D01*
X165072141Y-137443085D01*
X165510000Y-137530181D01*
X165566344Y-137530181D01*
X165730086Y-137639590D01*
X166350511Y-137763000D01*
X167433816Y-137763000D01*
X167643300Y-137804669D01*
X167852784Y-137763000D01*
X167852789Y-137763000D01*
X168473214Y-137639590D01*
X169176781Y-137169481D01*
X169295447Y-136991885D01*
X171355785Y-134931547D01*
X171533381Y-134812881D01*
X171777093Y-134448141D01*
X172003490Y-134109315D01*
X172059265Y-133828915D01*
X172126900Y-133488889D01*
X172126900Y-133488886D01*
X172168569Y-133279400D01*
X172126900Y-133069914D01*
X172126900Y-109623686D01*
X172168569Y-109414200D01*
X172126900Y-109204712D01*
X172126900Y-109204711D01*
X172003490Y-108584286D01*
X172003490Y-108584285D01*
X171777387Y-108245900D01*
X171533381Y-107880719D01*
X171355783Y-107762052D01*
X170958600Y-107364869D01*
X170958600Y-97854185D01*
X170985538Y-97881123D01*
X171859185Y-98243000D01*
X172804815Y-98243000D01*
X173678462Y-97881123D01*
X174179615Y-97379970D01*
X178497635Y-97379970D01*
X178657418Y-97698739D01*
X179448187Y-98008723D01*
X180297387Y-97992497D01*
X181006582Y-97698739D01*
X181166365Y-97379970D01*
X179832000Y-96045605D01*
X178497635Y-97379970D01*
X174179615Y-97379970D01*
X174347123Y-97212462D01*
X174709000Y-96338815D01*
X174709000Y-95482187D01*
X177689277Y-95482187D01*
X177705503Y-96331387D01*
X177999261Y-97040582D01*
X178318030Y-97200365D01*
X179652395Y-95866000D01*
X180011605Y-95866000D01*
X181345970Y-97200365D01*
X181664739Y-97040582D01*
X181974723Y-96249813D01*
X181958497Y-95400613D01*
X181664739Y-94691418D01*
X181345970Y-94531635D01*
X180011605Y-95866000D01*
X179652395Y-95866000D01*
X178318030Y-94531635D01*
X177999261Y-94691418D01*
X177689277Y-95482187D01*
X174709000Y-95482187D01*
X174709000Y-95393185D01*
X174347123Y-94519538D01*
X174179615Y-94352030D01*
X178497635Y-94352030D01*
X179832000Y-95686395D01*
X181166365Y-94352030D01*
X181006582Y-94033261D01*
X180215813Y-93723277D01*
X179366613Y-93739503D01*
X178657418Y-94033261D01*
X178497635Y-94352030D01*
X174179615Y-94352030D01*
X173678462Y-93850877D01*
X172804815Y-93489000D01*
X172717033Y-93489000D01*
X173074910Y-93131123D01*
X173678462Y-92881123D01*
X174179615Y-92379970D01*
X178497635Y-92379970D01*
X178657418Y-92698739D01*
X179448187Y-93008723D01*
X180297387Y-92992497D01*
X181006582Y-92698739D01*
X181166365Y-92379970D01*
X179832000Y-91045605D01*
X178497635Y-92379970D01*
X174179615Y-92379970D01*
X174347123Y-92212462D01*
X174709000Y-91338815D01*
X174709000Y-90482187D01*
X177689277Y-90482187D01*
X177705503Y-91331387D01*
X177999261Y-92040582D01*
X178318030Y-92200365D01*
X179652395Y-90866000D01*
X180011605Y-90866000D01*
X181345970Y-92200365D01*
X181664739Y-92040582D01*
X181974723Y-91249813D01*
X181958497Y-90400613D01*
X181664739Y-89691418D01*
X181345970Y-89531635D01*
X180011605Y-90866000D01*
X179652395Y-90866000D01*
X178318030Y-89531635D01*
X177999261Y-89691418D01*
X177689277Y-90482187D01*
X174709000Y-90482187D01*
X174709000Y-90393185D01*
X174347123Y-89519538D01*
X174179615Y-89352030D01*
X178497635Y-89352030D01*
X179832000Y-90686395D01*
X181166365Y-89352030D01*
X181006582Y-89033261D01*
X180215813Y-88723277D01*
X179366613Y-88739503D01*
X178657418Y-89033261D01*
X178497635Y-89352030D01*
X174179615Y-89352030D01*
X173678462Y-88850877D01*
X172804815Y-88489000D01*
X171859185Y-88489000D01*
X170985538Y-88850877D01*
X170316877Y-89519538D01*
X170066877Y-90123090D01*
X167475715Y-92714253D01*
X167298119Y-92832919D01*
X166868963Y-93475197D01*
X166764000Y-93454319D01*
X163564000Y-93454319D01*
X163221812Y-93522384D01*
X162931719Y-93716219D01*
X162737884Y-94006312D01*
X162669819Y-94348500D01*
X137194932Y-94348500D01*
X147227932Y-84315500D01*
X162224819Y-84315500D01*
X162224819Y-87515500D01*
X162292884Y-87857688D01*
X162486719Y-88147781D01*
X162776812Y-88341616D01*
X163119000Y-88409681D01*
X166319000Y-88409681D01*
X166661188Y-88341616D01*
X166951281Y-88147781D01*
X167145116Y-87857688D01*
X167213181Y-87515500D01*
X167213181Y-85393185D01*
X169955000Y-85393185D01*
X169955000Y-86338815D01*
X170316877Y-87212462D01*
X170985538Y-87881123D01*
X171859185Y-88243000D01*
X172804815Y-88243000D01*
X173678462Y-87881123D01*
X174179615Y-87379970D01*
X178497635Y-87379970D01*
X178657418Y-87698739D01*
X179448187Y-88008723D01*
X180297387Y-87992497D01*
X181006582Y-87698739D01*
X181166365Y-87379970D01*
X179832000Y-86045605D01*
X178497635Y-87379970D01*
X174179615Y-87379970D01*
X174347123Y-87212462D01*
X174709000Y-86338815D01*
X174709000Y-85482187D01*
X177689277Y-85482187D01*
X177705503Y-86331387D01*
X177999261Y-87040582D01*
X178318030Y-87200365D01*
X179652395Y-85866000D01*
X180011605Y-85866000D01*
X181345970Y-87200365D01*
X181664739Y-87040582D01*
X181974723Y-86249813D01*
X181958497Y-85400613D01*
X181664739Y-84691418D01*
X181345970Y-84531635D01*
X180011605Y-85866000D01*
X179652395Y-85866000D01*
X178318030Y-84531635D01*
X177999261Y-84691418D01*
X177689277Y-85482187D01*
X174709000Y-85482187D01*
X174709000Y-85393185D01*
X174347123Y-84519538D01*
X174179615Y-84352030D01*
X178497635Y-84352030D01*
X179832000Y-85686395D01*
X181166365Y-84352030D01*
X181006582Y-84033261D01*
X180215813Y-83723277D01*
X179366613Y-83739503D01*
X178657418Y-84033261D01*
X178497635Y-84352030D01*
X174179615Y-84352030D01*
X173678462Y-83850877D01*
X172804815Y-83489000D01*
X171859185Y-83489000D01*
X170985538Y-83850877D01*
X170316877Y-84519538D01*
X169955000Y-85393185D01*
X167213181Y-85393185D01*
X167213181Y-84315500D01*
X167145116Y-83973312D01*
X166951281Y-83683219D01*
X166661188Y-83489384D01*
X166319000Y-83421319D01*
X163119000Y-83421319D01*
X162776812Y-83489384D01*
X162486719Y-83683219D01*
X162292884Y-83973312D01*
X162224819Y-84315500D01*
X147227932Y-84315500D01*
X155050132Y-76493300D01*
X173606516Y-76493300D01*
X173816000Y-76534969D01*
X174025484Y-76493300D01*
X174025489Y-76493300D01*
X174645914Y-76369890D01*
X175349481Y-75899781D01*
X175468147Y-75722185D01*
X177687588Y-73502745D01*
X177865181Y-73384081D01*
X177983845Y-73206488D01*
X177983847Y-73206486D01*
X177993022Y-73192755D01*
X178332000Y-73260181D01*
X181332000Y-73260181D01*
X181674188Y-73192116D01*
X181964281Y-72998281D01*
X182158116Y-72708188D01*
X182226181Y-72366000D01*
X182226181Y-69639000D01*
X185521819Y-69639000D01*
X185521819Y-71839000D01*
X185589884Y-72181188D01*
X185783719Y-72471281D01*
X186073812Y-72665116D01*
X186416000Y-72733181D01*
X188616000Y-72733181D01*
X188958188Y-72665116D01*
X189248281Y-72471281D01*
X189442116Y-72181188D01*
X189510181Y-71839000D01*
X189510181Y-69639000D01*
X189442116Y-69296812D01*
X189248281Y-69006719D01*
X188958188Y-68812884D01*
X188616000Y-68744819D01*
X186416000Y-68744819D01*
X186073812Y-68812884D01*
X185783719Y-69006719D01*
X185589884Y-69296812D01*
X185521819Y-69639000D01*
X182226181Y-69639000D01*
X182226181Y-69366000D01*
X182158116Y-69023812D01*
X181964281Y-68733719D01*
X181674188Y-68539884D01*
X181332000Y-68471819D01*
X178332000Y-68471819D01*
X177989812Y-68539884D01*
X177699719Y-68733719D01*
X177696190Y-68739000D01*
X176541189Y-68739000D01*
X176331700Y-68697330D01*
X176122211Y-68739000D01*
X175501786Y-68862410D01*
X174798219Y-69332519D01*
X174328110Y-70036086D01*
X174321425Y-70069692D01*
X174164739Y-69691418D01*
X173845970Y-69531635D01*
X172511605Y-70866000D01*
X172525748Y-70880143D01*
X172346143Y-71059748D01*
X172332000Y-71045605D01*
X172317858Y-71059748D01*
X172138253Y-70880143D01*
X172152395Y-70866000D01*
X170818030Y-69531635D01*
X170499261Y-69691418D01*
X170189277Y-70482187D01*
X170205503Y-71331387D01*
X170499261Y-72040582D01*
X170818028Y-72200364D01*
X170779092Y-72239300D01*
X166653164Y-72239300D01*
X167052283Y-71641977D01*
X167244527Y-70675500D01*
X167052283Y-69709023D01*
X166846000Y-69400299D01*
X166846000Y-69352030D01*
X170997635Y-69352030D01*
X172332000Y-70686395D01*
X173666365Y-69352030D01*
X173506582Y-69033261D01*
X172715813Y-68723277D01*
X171866613Y-68739503D01*
X171157418Y-69033261D01*
X170997635Y-69352030D01*
X166846000Y-69352030D01*
X166846000Y-60975123D01*
X185826817Y-60975123D01*
X186106988Y-61591392D01*
X186601668Y-62053534D01*
X187119878Y-62268175D01*
X187389000Y-62150125D01*
X187389000Y-60706000D01*
X187643000Y-60706000D01*
X187643000Y-62150125D01*
X187912122Y-62268175D01*
X188430332Y-62053534D01*
X188925012Y-61591392D01*
X189205183Y-60975123D01*
X189087604Y-60706000D01*
X187643000Y-60706000D01*
X187389000Y-60706000D01*
X185944396Y-60706000D01*
X185826817Y-60975123D01*
X166846000Y-60975123D01*
X166846000Y-60182877D01*
X185826817Y-60182877D01*
X185944396Y-60452000D01*
X187389000Y-60452000D01*
X187389000Y-59007875D01*
X187643000Y-59007875D01*
X187643000Y-60452000D01*
X189087604Y-60452000D01*
X189205183Y-60182877D01*
X188925012Y-59566608D01*
X188430332Y-59104466D01*
X187912122Y-58889825D01*
X187643000Y-59007875D01*
X187389000Y-59007875D01*
X187119878Y-58889825D01*
X186601668Y-59104466D01*
X186106988Y-59566608D01*
X185826817Y-60182877D01*
X166846000Y-60182877D01*
X166846000Y-51860000D01*
X177482330Y-51860000D01*
X177647410Y-52689914D01*
X178012000Y-53235561D01*
X178012000Y-53456017D01*
X178075185Y-53608559D01*
X178107192Y-53769467D01*
X178198337Y-53905876D01*
X178261523Y-54058419D01*
X178378276Y-54175172D01*
X178469421Y-54311580D01*
X178605829Y-54402725D01*
X178722581Y-54519477D01*
X178875123Y-54582662D01*
X179011534Y-54673809D01*
X179172443Y-54705816D01*
X179324983Y-54769000D01*
X179490090Y-54769000D01*
X179651000Y-54801007D01*
X179811910Y-54769000D01*
X179977017Y-54769000D01*
X180129556Y-54705816D01*
X180290467Y-54673809D01*
X180426880Y-54582661D01*
X180579419Y-54519477D01*
X180696169Y-54402727D01*
X180832580Y-54311580D01*
X180923727Y-54175169D01*
X181040477Y-54058419D01*
X181042366Y-54053859D01*
X181829741Y-54380000D01*
X182832259Y-54380000D01*
X183758465Y-53996353D01*
X184467353Y-53287465D01*
X184851000Y-52361259D01*
X184851000Y-51358741D01*
X184467353Y-50432535D01*
X183758465Y-49723647D01*
X182832259Y-49340000D01*
X181829741Y-49340000D01*
X181042366Y-49666141D01*
X181040477Y-49661581D01*
X180923727Y-49544831D01*
X180832580Y-49408420D01*
X180696169Y-49317273D01*
X180579419Y-49200523D01*
X180426878Y-49137338D01*
X180421846Y-49133976D01*
X180451608Y-49030213D01*
X179651000Y-48229605D01*
X178850392Y-49030213D01*
X178880154Y-49133976D01*
X178875120Y-49137339D01*
X178722581Y-49200523D01*
X178605831Y-49317273D01*
X178469420Y-49408420D01*
X178378273Y-49544831D01*
X178261523Y-49661581D01*
X178198338Y-49814122D01*
X178107191Y-49950534D01*
X178075184Y-50111443D01*
X178012000Y-50263983D01*
X178012000Y-50484439D01*
X177647410Y-51030086D01*
X177482330Y-51860000D01*
X166846000Y-51860000D01*
X166846000Y-47842302D01*
X178241856Y-47842302D01*
X178269638Y-48397368D01*
X178428603Y-48781143D01*
X178670787Y-48850608D01*
X179471395Y-48050000D01*
X178670787Y-47249392D01*
X178428603Y-47318857D01*
X178241856Y-47842302D01*
X166846000Y-47842302D01*
X166846000Y-46490213D01*
X178850392Y-46490213D01*
X178919857Y-46732397D01*
X179043344Y-46776453D01*
X178919857Y-46827603D01*
X178850392Y-47069787D01*
X179651000Y-47870395D01*
X179665143Y-47856253D01*
X179844748Y-48035858D01*
X179830605Y-48050000D01*
X180631213Y-48850608D01*
X180873397Y-48781143D01*
X180963345Y-48529023D01*
X181070581Y-48730884D01*
X181913096Y-49064723D01*
X182819232Y-49050734D01*
X183591419Y-48730884D01*
X183768653Y-48397259D01*
X182331000Y-46959605D01*
X182316858Y-46973748D01*
X182137253Y-46794143D01*
X182151395Y-46780000D01*
X182510605Y-46780000D01*
X183948259Y-48217653D01*
X184281884Y-48040419D01*
X184615723Y-47197904D01*
X184601734Y-46291768D01*
X184281884Y-45519581D01*
X183948259Y-45342347D01*
X182510605Y-46780000D01*
X182151395Y-46780000D01*
X182137252Y-46765858D01*
X182316858Y-46586252D01*
X182331000Y-46600395D01*
X183768653Y-45162741D01*
X183591419Y-44829116D01*
X182748904Y-44495277D01*
X181842768Y-44509266D01*
X181070581Y-44829116D01*
X180971483Y-45015658D01*
X180873397Y-44778857D01*
X180631213Y-44709392D01*
X179830605Y-45510000D01*
X179844748Y-45524143D01*
X179665143Y-45703748D01*
X179651000Y-45689605D01*
X178850392Y-46490213D01*
X166846000Y-46490213D01*
X166846000Y-45302302D01*
X178241856Y-45302302D01*
X178269638Y-45857368D01*
X178428603Y-46241143D01*
X178670787Y-46310608D01*
X179471395Y-45510000D01*
X178670787Y-44709392D01*
X178428603Y-44778857D01*
X178241856Y-45302302D01*
X166846000Y-45302302D01*
X166846000Y-44529787D01*
X178850392Y-44529787D01*
X179651000Y-45330395D01*
X180451608Y-44529787D01*
X180382143Y-44287603D01*
X179858698Y-44100856D01*
X179303632Y-44128638D01*
X178919857Y-44287603D01*
X178850392Y-44529787D01*
X166846000Y-44529787D01*
X166846000Y-40152119D01*
X180794000Y-40152119D01*
X180794000Y-40707881D01*
X181006680Y-41221337D01*
X181399663Y-41614320D01*
X181606513Y-41700000D01*
X181399663Y-41785680D01*
X181006680Y-42178663D01*
X180794000Y-42692119D01*
X180794000Y-43247881D01*
X181006680Y-43761337D01*
X181399663Y-44154320D01*
X181913119Y-44367000D01*
X182468881Y-44367000D01*
X182982337Y-44154320D01*
X183375320Y-43761337D01*
X183588000Y-43247881D01*
X183588000Y-42692119D01*
X183375320Y-42178663D01*
X182982337Y-41785680D01*
X182775487Y-41700000D01*
X182982337Y-41614320D01*
X183375320Y-41221337D01*
X183588000Y-40707881D01*
X183588000Y-40152119D01*
X183375320Y-39638663D01*
X182982337Y-39245680D01*
X182791353Y-39166572D01*
X182922143Y-39112397D01*
X182991608Y-38870213D01*
X182191000Y-38069605D01*
X181390392Y-38870213D01*
X181459857Y-39112397D01*
X181600393Y-39162535D01*
X181399663Y-39245680D01*
X181006680Y-39638663D01*
X180794000Y-40152119D01*
X166846000Y-40152119D01*
X166846000Y-39636132D01*
X168799830Y-37682302D01*
X180781856Y-37682302D01*
X180809638Y-38237368D01*
X180968603Y-38621143D01*
X181210787Y-38690608D01*
X182011395Y-37890000D01*
X182370605Y-37890000D01*
X183171213Y-38690608D01*
X183413397Y-38621143D01*
X183600144Y-38097698D01*
X183572362Y-37542632D01*
X183413397Y-37158857D01*
X183171213Y-37089392D01*
X182370605Y-37890000D01*
X182011395Y-37890000D01*
X181210787Y-37089392D01*
X180968603Y-37158857D01*
X180781856Y-37682302D01*
X168799830Y-37682302D01*
X170151919Y-36330213D01*
X181390392Y-36330213D01*
X181459857Y-36572397D01*
X181583344Y-36616453D01*
X181459857Y-36667603D01*
X181390392Y-36909787D01*
X182191000Y-37710395D01*
X182991608Y-36909787D01*
X182922143Y-36667603D01*
X182798656Y-36623547D01*
X182922143Y-36572397D01*
X182991608Y-36330213D01*
X182191000Y-35529605D01*
X181390392Y-36330213D01*
X170151919Y-36330213D01*
X171339830Y-35142302D01*
X180781856Y-35142302D01*
X180809638Y-35697368D01*
X180968603Y-36081143D01*
X181210787Y-36150608D01*
X182011395Y-35350000D01*
X182370605Y-35350000D01*
X183171213Y-36150608D01*
X183413397Y-36081143D01*
X183600144Y-35557698D01*
X183572362Y-35002632D01*
X183413397Y-34618857D01*
X183171213Y-34549392D01*
X182370605Y-35350000D01*
X182011395Y-35350000D01*
X181210787Y-34549392D01*
X180968603Y-34618857D01*
X180781856Y-35142302D01*
X171339830Y-35142302D01*
X173950013Y-32532119D01*
X180794000Y-32532119D01*
X180794000Y-33087881D01*
X181006680Y-33601337D01*
X181399663Y-33994320D01*
X181590647Y-34073428D01*
X181459857Y-34127603D01*
X181390392Y-34369787D01*
X182191000Y-35170395D01*
X182991608Y-34369787D01*
X182922143Y-34127603D01*
X182781607Y-34077465D01*
X182982337Y-33994320D01*
X183375320Y-33601337D01*
X183588000Y-33087881D01*
X183588000Y-32532119D01*
X183375320Y-32018663D01*
X182982337Y-31625680D01*
X182468881Y-31413000D01*
X181913119Y-31413000D01*
X181399663Y-31625680D01*
X181006680Y-32018663D01*
X180794000Y-32532119D01*
X173950013Y-32532119D01*
X175231919Y-31250213D01*
X178850392Y-31250213D01*
X178919857Y-31492397D01*
X179443302Y-31679144D01*
X179998368Y-31651362D01*
X180382143Y-31492397D01*
X180451608Y-31250213D01*
X179651000Y-30449605D01*
X178850392Y-31250213D01*
X175231919Y-31250213D01*
X176419830Y-30062302D01*
X178241856Y-30062302D01*
X178269638Y-30617368D01*
X178428603Y-31001143D01*
X178670787Y-31070608D01*
X179471395Y-30270000D01*
X178670787Y-29469392D01*
X178428603Y-29538857D01*
X178241856Y-30062302D01*
X176419830Y-30062302D01*
X178309216Y-28172916D01*
X178428603Y-28461143D01*
X178670787Y-28530608D01*
X179471395Y-27730000D01*
X179457253Y-27715858D01*
X179636858Y-27536253D01*
X179651000Y-27550395D01*
X179665143Y-27536253D01*
X179844748Y-27715858D01*
X179830605Y-27730000D01*
X179844748Y-27744143D01*
X179665143Y-27923748D01*
X179651000Y-27909605D01*
X178850392Y-28710213D01*
X178919857Y-28952397D01*
X179043344Y-28996453D01*
X178919857Y-29047603D01*
X178850392Y-29289787D01*
X179651000Y-30090395D01*
X179665143Y-30076253D01*
X179844748Y-30255858D01*
X179830605Y-30270000D01*
X180631213Y-31070608D01*
X180873397Y-31001143D01*
X180910714Y-30896545D01*
X180939581Y-30950884D01*
X181782096Y-31284723D01*
X182688232Y-31270734D01*
X183460419Y-30950884D01*
X183637653Y-30617259D01*
X182200000Y-29179605D01*
X182185858Y-29193748D01*
X182006252Y-29014142D01*
X182020395Y-29000000D01*
X182379605Y-29000000D01*
X183817259Y-30437653D01*
X184150884Y-30260419D01*
X184484723Y-29417904D01*
X184470734Y-28511768D01*
X184150884Y-27739581D01*
X183817259Y-27562347D01*
X182379605Y-29000000D01*
X182020395Y-29000000D01*
X182006252Y-28985858D01*
X182185858Y-28806252D01*
X182200000Y-28820395D01*
X183637653Y-27382741D01*
X183460419Y-27049116D01*
X182617904Y-26715277D01*
X181711768Y-26729266D01*
X180939581Y-27049116D01*
X180914090Y-27097099D01*
X180873397Y-26998857D01*
X180631215Y-26929393D01*
X180746226Y-26814382D01*
X180721008Y-26789164D01*
X181184481Y-26479481D01*
X181316620Y-26281721D01*
X181698741Y-26440000D01*
X182701259Y-26440000D01*
X183627465Y-26056353D01*
X184336353Y-25347465D01*
X184720000Y-24421259D01*
X184720000Y-23418741D01*
X184336353Y-22492535D01*
X183627465Y-21783647D01*
X182701259Y-21400000D01*
X181698741Y-21400000D01*
X181005886Y-21686990D01*
X180579419Y-21260523D01*
X179977017Y-21011000D01*
X179324983Y-21011000D01*
X178722581Y-21260523D01*
X178261523Y-21721581D01*
X178012000Y-22323983D01*
X178012000Y-22879989D01*
X177698186Y-22942410D01*
X176994619Y-23412519D01*
X176875953Y-23590115D01*
X163363115Y-37102953D01*
X163185519Y-37221619D01*
X162715410Y-37925187D01*
X162592000Y-38545612D01*
X162592000Y-38545616D01*
X162550331Y-38755100D01*
X162592000Y-38964584D01*
X162592001Y-69400298D01*
X162385717Y-69709023D01*
X162193473Y-70675500D01*
X162385717Y-71641977D01*
X162784836Y-72239300D01*
X156136151Y-72239300D01*
X155821247Y-71768015D01*
X155821246Y-71768014D01*
X155702581Y-71590419D01*
X155524985Y-71471753D01*
X144748000Y-60694768D01*
X144748000Y-59250701D01*
X144954283Y-58941977D01*
X145146527Y-57975500D01*
X144954283Y-57009023D01*
X144748000Y-56700299D01*
X144748000Y-41174783D01*
X144789669Y-40965299D01*
X144748000Y-40755815D01*
X144748000Y-40755811D01*
X144624590Y-40135386D01*
X144154481Y-39431819D01*
X143976885Y-39313153D01*
X133953000Y-29289268D01*
X133953000Y-28805810D01*
X133958281Y-28802281D01*
X134152116Y-28512188D01*
X134220181Y-28170000D01*
X134220181Y-25170000D01*
X134152116Y-24827812D01*
X133958281Y-24537719D01*
X133953000Y-24534190D01*
X133953000Y-24453292D01*
X134629481Y-24001281D01*
X135099590Y-23297714D01*
X135197617Y-22804900D01*
X135264670Y-22467800D01*
X135223000Y-22258311D01*
X135223000Y-19158011D01*
X135099590Y-18537586D01*
X135090181Y-18523504D01*
X135090181Y-18267500D01*
X135022116Y-17925312D01*
X134828281Y-17635219D01*
X134538188Y-17441384D01*
X134196000Y-17373319D01*
X133939995Y-17373319D01*
X133925913Y-17363910D01*
X133096000Y-17198830D01*
X132266086Y-17363910D01*
X132252004Y-17373319D01*
X131996000Y-17373319D01*
X131653812Y-17441384D01*
X131363719Y-17635219D01*
X131169884Y-17925312D01*
X131101819Y-18267500D01*
X131101819Y-18523505D01*
X131092410Y-18537587D01*
X130969000Y-19158012D01*
X130969000Y-20972361D01*
X130875752Y-21111917D01*
X130470114Y-21517554D01*
X130292520Y-21636219D01*
X130173856Y-21813812D01*
X130173853Y-21813815D01*
X129846334Y-22303983D01*
X129822411Y-22339786D01*
X129699000Y-22960211D01*
X129699000Y-22960216D01*
X129657331Y-23169700D01*
X129699000Y-23379184D01*
X129699000Y-24534190D01*
X129693719Y-24537719D01*
X129499884Y-24827812D01*
X129431819Y-25170000D01*
X129431819Y-28170000D01*
X129499884Y-28512188D01*
X129693719Y-28802281D01*
X129699000Y-28805810D01*
X129699000Y-29960816D01*
X129657331Y-30170300D01*
X129699000Y-30379784D01*
X129699000Y-30379789D01*
X129746258Y-30617368D01*
X129822411Y-31000214D01*
X130173853Y-31526185D01*
X130173856Y-31526188D01*
X130292520Y-31703781D01*
X130470113Y-31822445D01*
X140494001Y-41846333D01*
X140494000Y-56700299D01*
X140287717Y-57009023D01*
X140095473Y-57975500D01*
X140287717Y-58941977D01*
X140494000Y-59250702D01*
X140494001Y-61366311D01*
X140452331Y-61575800D01*
X140617411Y-62405714D01*
X140968853Y-62931685D01*
X140968856Y-62931688D01*
X141087520Y-63109281D01*
X141265113Y-63227945D01*
X151782268Y-73745100D01*
X108457513Y-117069855D01*
X108279920Y-117188519D01*
X108161256Y-117366112D01*
X108161253Y-117366115D01*
X107809811Y-117892086D01*
X107644731Y-118722000D01*
X107686401Y-118931489D01*
X107686400Y-134154700D01*
X105643469Y-134154700D01*
X105762289Y-134105483D01*
X106925483Y-132942289D01*
X107555000Y-131422503D01*
X107555000Y-129777497D01*
X106925483Y-128257711D01*
X105762289Y-127094517D01*
X104242503Y-126465000D01*
X102597497Y-126465000D01*
X101077711Y-127094517D01*
X99914517Y-128257711D01*
X99285000Y-129777497D01*
X99285000Y-131422503D01*
X99914517Y-132942289D01*
X101077711Y-134105483D01*
X101196531Y-134154700D01*
X67865383Y-134154700D01*
X67655899Y-134113031D01*
X67446415Y-134154700D01*
X67446411Y-134154700D01*
X66825986Y-134278110D01*
X66122419Y-134748219D01*
X66003753Y-134925815D01*
X63831168Y-137098400D01*
X30118008Y-137098400D01*
X30041483Y-137021875D01*
X30374275Y-136845618D01*
X30706781Y-136005998D01*
X30692666Y-135103046D01*
X30374275Y-134334382D01*
X30041481Y-134158124D01*
X28609605Y-135590000D01*
X28623748Y-135604143D01*
X28444143Y-135783748D01*
X28430000Y-135769605D01*
X28415858Y-135783748D01*
X28236253Y-135604143D01*
X28250395Y-135590000D01*
X26818519Y-134158124D01*
X26485725Y-134334382D01*
X26153219Y-135174002D01*
X26163242Y-135815210D01*
X25442000Y-135093968D01*
X25442000Y-135090332D01*
X25059571Y-134167066D01*
X24871024Y-133978519D01*
X26998124Y-133978519D01*
X28430000Y-135410395D01*
X29861876Y-133978519D01*
X29685618Y-133645725D01*
X28845998Y-133313219D01*
X27943046Y-133327334D01*
X27174382Y-133645725D01*
X26998124Y-133978519D01*
X24871024Y-133978519D01*
X24352934Y-133460429D01*
X23429668Y-133078000D01*
X22430332Y-133078000D01*
X21507066Y-133460429D01*
X20800429Y-134167066D01*
X20418000Y-135090332D01*
X14680000Y-135090332D01*
X14680000Y-101727000D01*
X95250000Y-101727000D01*
X95298601Y-101717333D01*
X95339803Y-101689803D01*
X95367333Y-101648601D01*
X95377000Y-101600000D01*
X95377000Y-76200000D01*
X95367333Y-76151399D01*
X95339803Y-76110197D01*
X89007103Y-69777497D01*
X99285000Y-69777497D01*
X99285000Y-71422503D01*
X99914517Y-72942289D01*
X101077711Y-74105483D01*
X102597497Y-74735000D01*
X104242503Y-74735000D01*
X105762289Y-74105483D01*
X106925483Y-72942289D01*
X107555000Y-71422503D01*
X107555000Y-69777497D01*
X106925483Y-68257711D01*
X105762289Y-67094517D01*
X104242503Y-66465000D01*
X102597497Y-66465000D01*
X101077711Y-67094517D01*
X99914517Y-68257711D01*
X99285000Y-69777497D01*
X89007103Y-69777497D01*
X82475606Y-63246000D01*
X103392473Y-63246000D01*
X103584717Y-64212477D01*
X104132183Y-65031817D01*
X104951523Y-65579283D01*
X105674038Y-65723000D01*
X106161962Y-65723000D01*
X106884477Y-65579283D01*
X107703817Y-65031817D01*
X108251283Y-64212477D01*
X108443527Y-63246000D01*
X108251283Y-62279523D01*
X108045000Y-61970799D01*
X108045000Y-51840000D01*
X111582330Y-51840000D01*
X111747410Y-52669914D01*
X112112000Y-53215561D01*
X112112000Y-53436017D01*
X112175185Y-53588559D01*
X112207192Y-53749467D01*
X112298337Y-53885876D01*
X112361523Y-54038419D01*
X112478276Y-54155172D01*
X112569421Y-54291580D01*
X112705829Y-54382725D01*
X112822581Y-54499477D01*
X112975123Y-54562662D01*
X113111534Y-54653809D01*
X113272443Y-54685816D01*
X113424983Y-54749000D01*
X113590090Y-54749000D01*
X113751000Y-54781007D01*
X113911910Y-54749000D01*
X114077017Y-54749000D01*
X114229556Y-54685816D01*
X114390467Y-54653809D01*
X114526880Y-54562661D01*
X114679419Y-54499477D01*
X114796169Y-54382727D01*
X114932580Y-54291580D01*
X115023727Y-54155169D01*
X115140477Y-54038419D01*
X115142366Y-54033859D01*
X115929741Y-54360000D01*
X116887668Y-54360000D01*
X116156915Y-55090753D01*
X115979319Y-55209419D01*
X115509210Y-55912987D01*
X115385800Y-56533412D01*
X115385800Y-56533416D01*
X115344131Y-56742900D01*
X115385800Y-56952385D01*
X115385801Y-65456411D01*
X115344131Y-65665900D01*
X115509211Y-66495814D01*
X115860653Y-67021785D01*
X115860656Y-67021788D01*
X115979320Y-67199381D01*
X116156913Y-67318045D01*
X124289053Y-75450185D01*
X124407719Y-75627781D01*
X125111286Y-76097890D01*
X125731711Y-76221300D01*
X125731714Y-76221300D01*
X125941200Y-76262969D01*
X126150686Y-76221300D01*
X139569189Y-76221300D01*
X140189614Y-76097890D01*
X140893181Y-75627781D01*
X141363290Y-74924214D01*
X141528370Y-74094300D01*
X141363290Y-73264386D01*
X140893181Y-72560819D01*
X140189614Y-72090710D01*
X139569189Y-71967300D01*
X126822232Y-71967300D01*
X120595113Y-65740181D01*
X122758000Y-65740181D01*
X123100188Y-65672116D01*
X123390281Y-65478281D01*
X123584116Y-65188188D01*
X123652181Y-64846000D01*
X123652181Y-61646000D01*
X123584116Y-61303812D01*
X123390281Y-61013719D01*
X123100188Y-60819884D01*
X122758000Y-60751819D01*
X119639800Y-60751819D01*
X119639800Y-57623932D01*
X122164085Y-55099647D01*
X122341681Y-54980981D01*
X122811790Y-54277414D01*
X122935200Y-53656989D01*
X122935200Y-53656985D01*
X122937888Y-53643473D01*
X122979538Y-53685123D01*
X123583091Y-53935123D01*
X125254001Y-55606033D01*
X125254001Y-55672872D01*
X125148719Y-55743219D01*
X124954884Y-56033312D01*
X124886819Y-56375500D01*
X124886819Y-59575500D01*
X124954884Y-59917688D01*
X125148719Y-60207781D01*
X125438812Y-60401616D01*
X125781000Y-60469681D01*
X128981000Y-60469681D01*
X129323188Y-60401616D01*
X129613281Y-60207781D01*
X129807116Y-59917688D01*
X129875181Y-59575500D01*
X129875181Y-56375500D01*
X129807116Y-56033312D01*
X129613281Y-55743219D01*
X129508000Y-55672872D01*
X129508000Y-54584689D01*
X129549670Y-54375200D01*
X129384590Y-53545286D01*
X129143167Y-53183970D01*
X130491635Y-53183970D01*
X130651418Y-53502739D01*
X131442187Y-53812723D01*
X132291387Y-53796497D01*
X133000582Y-53502739D01*
X133160365Y-53183970D01*
X131826000Y-51849605D01*
X130491635Y-53183970D01*
X129143167Y-53183970D01*
X128914481Y-52841719D01*
X128210914Y-52371610D01*
X127992122Y-52328090D01*
X126950219Y-51286187D01*
X129683277Y-51286187D01*
X129699503Y-52135387D01*
X129993261Y-52844582D01*
X130312030Y-53004365D01*
X131646395Y-51670000D01*
X132005605Y-51670000D01*
X133339970Y-53004365D01*
X133658739Y-52844582D01*
X133968723Y-52053813D01*
X133952497Y-51204613D01*
X133658739Y-50495418D01*
X133339970Y-50335635D01*
X132005605Y-51670000D01*
X131646395Y-51670000D01*
X130312030Y-50335635D01*
X129993261Y-50495418D01*
X129683277Y-51286187D01*
X126950219Y-51286187D01*
X126591123Y-50927091D01*
X126341123Y-50323538D01*
X126173615Y-50156030D01*
X130491635Y-50156030D01*
X131826000Y-51490395D01*
X133160365Y-50156030D01*
X133000582Y-49837261D01*
X132209813Y-49527277D01*
X131360613Y-49543503D01*
X130651418Y-49837261D01*
X130491635Y-50156030D01*
X126173615Y-50156030D01*
X125672462Y-49654877D01*
X124798815Y-49293000D01*
X124711032Y-49293000D01*
X125068909Y-48935123D01*
X125672462Y-48685123D01*
X126173615Y-48183970D01*
X130491635Y-48183970D01*
X130651418Y-48502739D01*
X131442187Y-48812723D01*
X132291387Y-48796497D01*
X133000582Y-48502739D01*
X133160365Y-48183970D01*
X131826000Y-46849605D01*
X130491635Y-48183970D01*
X126173615Y-48183970D01*
X126341123Y-48016462D01*
X126703000Y-47142815D01*
X126703000Y-46286187D01*
X129683277Y-46286187D01*
X129699503Y-47135387D01*
X129993261Y-47844582D01*
X130312030Y-48004365D01*
X131646395Y-46670000D01*
X132005605Y-46670000D01*
X133339970Y-48004365D01*
X133658739Y-47844582D01*
X133968723Y-47053813D01*
X133952497Y-46204613D01*
X133658739Y-45495418D01*
X133339970Y-45335635D01*
X132005605Y-46670000D01*
X131646395Y-46670000D01*
X130312030Y-45335635D01*
X129993261Y-45495418D01*
X129683277Y-46286187D01*
X126703000Y-46286187D01*
X126703000Y-46197185D01*
X126341123Y-45323538D01*
X126173615Y-45156030D01*
X130491635Y-45156030D01*
X131826000Y-46490395D01*
X133160365Y-45156030D01*
X133000582Y-44837261D01*
X132209813Y-44527277D01*
X131360613Y-44543503D01*
X130651418Y-44837261D01*
X130491635Y-45156030D01*
X126173615Y-45156030D01*
X125672462Y-44654877D01*
X124798815Y-44293000D01*
X123853185Y-44293000D01*
X122979538Y-44654877D01*
X122310877Y-45323538D01*
X122060877Y-45927091D01*
X119452315Y-48535653D01*
X119274719Y-48654319D01*
X119156054Y-48831914D01*
X119156053Y-48831915D01*
X119089847Y-48931000D01*
X118804610Y-49357887D01*
X118681200Y-49978312D01*
X118681200Y-49978316D01*
X118639531Y-50187800D01*
X118681200Y-50397284D01*
X118681200Y-50687386D01*
X118567353Y-50412535D01*
X117858465Y-49703647D01*
X116932259Y-49320000D01*
X115929741Y-49320000D01*
X115142366Y-49646141D01*
X115140477Y-49641581D01*
X115023727Y-49524831D01*
X114932580Y-49388420D01*
X114796169Y-49297273D01*
X114679419Y-49180523D01*
X114526878Y-49117338D01*
X114521846Y-49113976D01*
X114551608Y-49010213D01*
X113751000Y-48209605D01*
X112950392Y-49010213D01*
X112980154Y-49113976D01*
X112975120Y-49117339D01*
X112822581Y-49180523D01*
X112705831Y-49297273D01*
X112569420Y-49388420D01*
X112478273Y-49524831D01*
X112361523Y-49641581D01*
X112298338Y-49794122D01*
X112207191Y-49930534D01*
X112175184Y-50091443D01*
X112112000Y-50243983D01*
X112112000Y-50464439D01*
X111747410Y-51010086D01*
X111582330Y-51840000D01*
X108045000Y-51840000D01*
X108045000Y-47822302D01*
X112341856Y-47822302D01*
X112369638Y-48377368D01*
X112528603Y-48761143D01*
X112770787Y-48830608D01*
X113571395Y-48030000D01*
X112770787Y-47229392D01*
X112528603Y-47298857D01*
X112341856Y-47822302D01*
X108045000Y-47822302D01*
X108045000Y-46470213D01*
X112950392Y-46470213D01*
X113019857Y-46712397D01*
X113143344Y-46756453D01*
X113019857Y-46807603D01*
X112950392Y-47049787D01*
X113751000Y-47850395D01*
X113765143Y-47836253D01*
X113944748Y-48015858D01*
X113930605Y-48030000D01*
X114731213Y-48830608D01*
X114973397Y-48761143D01*
X115063345Y-48509023D01*
X115170581Y-48710884D01*
X116013096Y-49044723D01*
X116919232Y-49030734D01*
X117691419Y-48710884D01*
X117868653Y-48377259D01*
X116431000Y-46939605D01*
X116416858Y-46953748D01*
X116237253Y-46774143D01*
X116251395Y-46760000D01*
X116610605Y-46760000D01*
X118048259Y-48197653D01*
X118381884Y-48020419D01*
X118715723Y-47177904D01*
X118701734Y-46271768D01*
X118381884Y-45499581D01*
X118048259Y-45322347D01*
X116610605Y-46760000D01*
X116251395Y-46760000D01*
X116237252Y-46745858D01*
X116416858Y-46566252D01*
X116431000Y-46580395D01*
X117868653Y-45142741D01*
X117691419Y-44809116D01*
X116848904Y-44475277D01*
X115942768Y-44489266D01*
X115170581Y-44809116D01*
X115071483Y-44995658D01*
X114973397Y-44758857D01*
X114731213Y-44689392D01*
X113930605Y-45490000D01*
X113944748Y-45504143D01*
X113765143Y-45683748D01*
X113751000Y-45669605D01*
X112950392Y-46470213D01*
X108045000Y-46470213D01*
X108045000Y-45282302D01*
X112341856Y-45282302D01*
X112369638Y-45837368D01*
X112528603Y-46221143D01*
X112770787Y-46290608D01*
X113571395Y-45490000D01*
X112770787Y-44689392D01*
X112528603Y-44758857D01*
X112341856Y-45282302D01*
X108045000Y-45282302D01*
X108045000Y-44509787D01*
X112950392Y-44509787D01*
X113751000Y-45310395D01*
X114551608Y-44509787D01*
X114482143Y-44267603D01*
X113958698Y-44080856D01*
X113403632Y-44108638D01*
X113019857Y-44267603D01*
X112950392Y-44509787D01*
X108045000Y-44509787D01*
X108045000Y-40132119D01*
X114894000Y-40132119D01*
X114894000Y-40687881D01*
X115106680Y-41201337D01*
X115499663Y-41594320D01*
X115706513Y-41680000D01*
X115499663Y-41765680D01*
X115106680Y-42158663D01*
X114894000Y-42672119D01*
X114894000Y-43227881D01*
X115106680Y-43741337D01*
X115499663Y-44134320D01*
X116013119Y-44347000D01*
X116568881Y-44347000D01*
X117082337Y-44134320D01*
X117475320Y-43741337D01*
X117688000Y-43227881D01*
X117688000Y-42672119D01*
X117475320Y-42158663D01*
X117082337Y-41765680D01*
X116875487Y-41680000D01*
X117082337Y-41594320D01*
X117475320Y-41201337D01*
X117477039Y-41197185D01*
X121949000Y-41197185D01*
X121949000Y-42142815D01*
X122310877Y-43016462D01*
X122979538Y-43685123D01*
X123853185Y-44047000D01*
X124798815Y-44047000D01*
X125672462Y-43685123D01*
X126173615Y-43183970D01*
X130491635Y-43183970D01*
X130651418Y-43502739D01*
X131442187Y-43812723D01*
X132291387Y-43796497D01*
X133000582Y-43502739D01*
X133160365Y-43183970D01*
X131826000Y-41849605D01*
X130491635Y-43183970D01*
X126173615Y-43183970D01*
X126341123Y-43016462D01*
X126703000Y-42142815D01*
X126703000Y-41286187D01*
X129683277Y-41286187D01*
X129699503Y-42135387D01*
X129993261Y-42844582D01*
X130312030Y-43004365D01*
X131646395Y-41670000D01*
X132005605Y-41670000D01*
X133339970Y-43004365D01*
X133658739Y-42844582D01*
X133968723Y-42053813D01*
X133952497Y-41204613D01*
X133658739Y-40495418D01*
X133339970Y-40335635D01*
X132005605Y-41670000D01*
X131646395Y-41670000D01*
X130312030Y-40335635D01*
X129993261Y-40495418D01*
X129683277Y-41286187D01*
X126703000Y-41286187D01*
X126703000Y-41197185D01*
X126341123Y-40323538D01*
X126173615Y-40156030D01*
X130491635Y-40156030D01*
X131826000Y-41490395D01*
X133160365Y-40156030D01*
X133000582Y-39837261D01*
X132209813Y-39527277D01*
X131360613Y-39543503D01*
X130651418Y-39837261D01*
X130491635Y-40156030D01*
X126173615Y-40156030D01*
X125672462Y-39654877D01*
X124798815Y-39293000D01*
X123853185Y-39293000D01*
X122979538Y-39654877D01*
X122310877Y-40323538D01*
X121949000Y-41197185D01*
X117477039Y-41197185D01*
X117688000Y-40687881D01*
X117688000Y-40132119D01*
X117475320Y-39618663D01*
X117082337Y-39225680D01*
X116891353Y-39146572D01*
X117022143Y-39092397D01*
X117091608Y-38850213D01*
X116291000Y-38049605D01*
X115490392Y-38850213D01*
X115559857Y-39092397D01*
X115700393Y-39142535D01*
X115499663Y-39225680D01*
X115106680Y-39618663D01*
X114894000Y-40132119D01*
X108045000Y-40132119D01*
X108045000Y-37662302D01*
X114881856Y-37662302D01*
X114909638Y-38217368D01*
X115068603Y-38601143D01*
X115310787Y-38670608D01*
X116111395Y-37870000D01*
X116470605Y-37870000D01*
X117271213Y-38670608D01*
X117513397Y-38601143D01*
X117700144Y-38077698D01*
X117672362Y-37522632D01*
X117513397Y-37138857D01*
X117271213Y-37069392D01*
X116470605Y-37870000D01*
X116111395Y-37870000D01*
X115310787Y-37069392D01*
X115068603Y-37138857D01*
X114881856Y-37662302D01*
X108045000Y-37662302D01*
X108045000Y-36310213D01*
X115490392Y-36310213D01*
X115559857Y-36552397D01*
X115683344Y-36596453D01*
X115559857Y-36647603D01*
X115490392Y-36889787D01*
X116291000Y-37690395D01*
X117091608Y-36889787D01*
X117022143Y-36647603D01*
X116898656Y-36603547D01*
X117022143Y-36552397D01*
X117091608Y-36310213D01*
X116291000Y-35509605D01*
X115490392Y-36310213D01*
X108045000Y-36310213D01*
X108045000Y-35122302D01*
X114881856Y-35122302D01*
X114909638Y-35677368D01*
X115068603Y-36061143D01*
X115310787Y-36130608D01*
X116111395Y-35330000D01*
X116470605Y-35330000D01*
X117271213Y-36130608D01*
X117513397Y-36061143D01*
X117700144Y-35537698D01*
X117672362Y-34982632D01*
X117513397Y-34598857D01*
X117271213Y-34529392D01*
X116470605Y-35330000D01*
X116111395Y-35330000D01*
X115310787Y-34529392D01*
X115068603Y-34598857D01*
X114881856Y-35122302D01*
X108045000Y-35122302D01*
X108045000Y-32512119D01*
X114894000Y-32512119D01*
X114894000Y-33067881D01*
X115106680Y-33581337D01*
X115499663Y-33974320D01*
X115690647Y-34053428D01*
X115559857Y-34107603D01*
X115490392Y-34349787D01*
X116291000Y-35150395D01*
X117091608Y-34349787D01*
X117022143Y-34107603D01*
X116881607Y-34057465D01*
X117082337Y-33974320D01*
X117475320Y-33581337D01*
X117688000Y-33067881D01*
X117688000Y-32512119D01*
X117475320Y-31998663D01*
X117082337Y-31605680D01*
X116568881Y-31393000D01*
X116013119Y-31393000D01*
X115499663Y-31605680D01*
X115106680Y-31998663D01*
X114894000Y-32512119D01*
X108045000Y-32512119D01*
X108045000Y-32509432D01*
X109324219Y-31230213D01*
X112950392Y-31230213D01*
X113019857Y-31472397D01*
X113543302Y-31659144D01*
X114098368Y-31631362D01*
X114482143Y-31472397D01*
X114551608Y-31230213D01*
X113751000Y-30429605D01*
X112950392Y-31230213D01*
X109324219Y-31230213D01*
X110512130Y-30042302D01*
X112341856Y-30042302D01*
X112369638Y-30597368D01*
X112528603Y-30981143D01*
X112770787Y-31050608D01*
X113571395Y-30250000D01*
X112770787Y-29449392D01*
X112528603Y-29518857D01*
X112341856Y-30042302D01*
X110512130Y-30042302D01*
X112406960Y-28147472D01*
X112528603Y-28441143D01*
X112770787Y-28510608D01*
X113571395Y-27710000D01*
X113557253Y-27695858D01*
X113736858Y-27516253D01*
X113751000Y-27530395D01*
X113765143Y-27516253D01*
X113944748Y-27695858D01*
X113930605Y-27710000D01*
X113944748Y-27724143D01*
X113765143Y-27903748D01*
X113751000Y-27889605D01*
X112950392Y-28690213D01*
X113019857Y-28932397D01*
X113143344Y-28976453D01*
X113019857Y-29027603D01*
X112950392Y-29269787D01*
X113751000Y-30070395D01*
X113765143Y-30056253D01*
X113944748Y-30235858D01*
X113930605Y-30250000D01*
X114731213Y-31050608D01*
X114973397Y-30981143D01*
X115010714Y-30876545D01*
X115039581Y-30930884D01*
X115882096Y-31264723D01*
X116788232Y-31250734D01*
X117560419Y-30930884D01*
X117737653Y-30597259D01*
X116300000Y-29159605D01*
X116285858Y-29173748D01*
X116106252Y-28994142D01*
X116120395Y-28980000D01*
X116479605Y-28980000D01*
X117917259Y-30417653D01*
X118250884Y-30240419D01*
X118584723Y-29397904D01*
X118570734Y-28491768D01*
X118443241Y-28183970D01*
X122991635Y-28183970D01*
X123151418Y-28502739D01*
X123942187Y-28812723D01*
X124791387Y-28796497D01*
X125500582Y-28502739D01*
X125660365Y-28183970D01*
X124326000Y-26849605D01*
X122991635Y-28183970D01*
X118443241Y-28183970D01*
X118250884Y-27719581D01*
X117917259Y-27542347D01*
X116479605Y-28980000D01*
X116120395Y-28980000D01*
X116106252Y-28965858D01*
X116285858Y-28786252D01*
X116300000Y-28800395D01*
X117737653Y-27362741D01*
X117560419Y-27029116D01*
X116717904Y-26695277D01*
X115811768Y-26709266D01*
X115039581Y-27029116D01*
X115014090Y-27077099D01*
X114973397Y-26978857D01*
X114731215Y-26909393D01*
X114846226Y-26794382D01*
X114824545Y-26772701D01*
X115284481Y-26465381D01*
X115419708Y-26262999D01*
X115798741Y-26420000D01*
X116801259Y-26420000D01*
X117124312Y-26286187D01*
X122183277Y-26286187D01*
X122199503Y-27135387D01*
X122493261Y-27844582D01*
X122812030Y-28004365D01*
X124146395Y-26670000D01*
X124505605Y-26670000D01*
X125839970Y-28004365D01*
X126158739Y-27844582D01*
X126468723Y-27053813D01*
X126452497Y-26204613D01*
X126158739Y-25495418D01*
X125839970Y-25335635D01*
X124505605Y-26670000D01*
X124146395Y-26670000D01*
X122812030Y-25335635D01*
X122493261Y-25495418D01*
X122183277Y-26286187D01*
X117124312Y-26286187D01*
X117727465Y-26036353D01*
X118436353Y-25327465D01*
X118507363Y-25156030D01*
X122991635Y-25156030D01*
X124326000Y-26490395D01*
X125660365Y-25156030D01*
X125500582Y-24837261D01*
X124709813Y-24527277D01*
X123860613Y-24543503D01*
X123151418Y-24837261D01*
X122991635Y-25156030D01*
X118507363Y-25156030D01*
X118820000Y-24401259D01*
X118820000Y-23398741D01*
X118436353Y-22472535D01*
X117727465Y-21763647D01*
X116801259Y-21380000D01*
X115798741Y-21380000D01*
X115105886Y-21666990D01*
X115023727Y-21584831D01*
X114932580Y-21448420D01*
X114796169Y-21357273D01*
X114679419Y-21240523D01*
X114526880Y-21177339D01*
X114390467Y-21086191D01*
X114229556Y-21054184D01*
X114077017Y-20991000D01*
X113911910Y-20991000D01*
X113751000Y-20958993D01*
X113590090Y-20991000D01*
X113424983Y-20991000D01*
X113272443Y-21054184D01*
X113111534Y-21086191D01*
X112975123Y-21177338D01*
X112822581Y-21240523D01*
X112705829Y-21357275D01*
X112569421Y-21448420D01*
X112478276Y-21584828D01*
X112361523Y-21701581D01*
X112298337Y-21854124D01*
X112207192Y-21990533D01*
X112175185Y-22151441D01*
X112112000Y-22303983D01*
X112112000Y-22524439D01*
X111850964Y-22915107D01*
X111784586Y-22928310D01*
X111784584Y-22928311D01*
X111784585Y-22928311D01*
X111258614Y-23279753D01*
X111258612Y-23279755D01*
X111081019Y-23398419D01*
X110962355Y-23576012D01*
X104562115Y-29976253D01*
X104384519Y-30094919D01*
X103914410Y-30798487D01*
X103791000Y-31418912D01*
X103791000Y-31418916D01*
X103749331Y-31628400D01*
X103791000Y-31837884D01*
X103791001Y-61970798D01*
X103584717Y-62279523D01*
X103392473Y-63246000D01*
X82475606Y-63246000D01*
X63627000Y-44397394D01*
X63627000Y-39710634D01*
X65235000Y-39710634D01*
X65235000Y-40680365D01*
X65343905Y-41227868D01*
X65758759Y-41848741D01*
X66379631Y-42263595D01*
X67112000Y-42409272D01*
X67844368Y-42263595D01*
X68465241Y-41848741D01*
X68880095Y-41227869D01*
X68977000Y-40740694D01*
X68977000Y-41621810D01*
X69073673Y-41855199D01*
X69252302Y-42033827D01*
X69485691Y-42130500D01*
X70326250Y-42130500D01*
X70485000Y-41971750D01*
X70485000Y-40322500D01*
X70739000Y-40322500D01*
X70739000Y-41971750D01*
X70897750Y-42130500D01*
X71738309Y-42130500D01*
X71971698Y-42033827D01*
X72150327Y-41855199D01*
X72247000Y-41621810D01*
X72247000Y-40481250D01*
X72088250Y-40322500D01*
X70739000Y-40322500D01*
X70485000Y-40322500D01*
X70465000Y-40322500D01*
X70465000Y-40068500D01*
X70485000Y-40068500D01*
X70485000Y-38419250D01*
X70739000Y-38419250D01*
X70739000Y-40068500D01*
X72088250Y-40068500D01*
X72247000Y-39909750D01*
X72247000Y-38769190D01*
X72150327Y-38535801D01*
X71971698Y-38357173D01*
X71738309Y-38260500D01*
X70897750Y-38260500D01*
X70739000Y-38419250D01*
X70485000Y-38419250D01*
X70326250Y-38260500D01*
X69485691Y-38260500D01*
X69252302Y-38357173D01*
X69073673Y-38535801D01*
X68977000Y-38769190D01*
X68977000Y-39650307D01*
X68880095Y-39163131D01*
X68465241Y-38542259D01*
X67844369Y-38127405D01*
X67112000Y-37981728D01*
X66379632Y-38127405D01*
X65758760Y-38542259D01*
X65343905Y-39163131D01*
X65235000Y-39710634D01*
X63627000Y-39710634D01*
X63627000Y-19763622D01*
X121246825Y-19763622D01*
X121461466Y-20281832D01*
X121923608Y-20776512D01*
X122539877Y-21056683D01*
X122809000Y-20939104D01*
X122809000Y-19494500D01*
X123063000Y-19494500D01*
X123063000Y-20939104D01*
X123332123Y-21056683D01*
X123948392Y-20776512D01*
X124410534Y-20281832D01*
X124625175Y-19763622D01*
X124507125Y-19494500D01*
X123063000Y-19494500D01*
X122809000Y-19494500D01*
X121364875Y-19494500D01*
X121246825Y-19763622D01*
X63627000Y-19763622D01*
X63627000Y-18971378D01*
X121246825Y-18971378D01*
X121364875Y-19240500D01*
X122809000Y-19240500D01*
X122809000Y-17795896D01*
X123063000Y-17795896D01*
X123063000Y-19240500D01*
X124507125Y-19240500D01*
X124625175Y-18971378D01*
X124410534Y-18453168D01*
X123948392Y-17958488D01*
X123332123Y-17678317D01*
X123063000Y-17795896D01*
X122809000Y-17795896D01*
X122539877Y-17678317D01*
X121923608Y-17958488D01*
X121461466Y-18453168D01*
X121246825Y-18971378D01*
X63627000Y-18971378D01*
X63627000Y-13410000D01*
X191707881Y-13410000D01*
X191957787Y-13454065D01*
X191957787Y-13454065D01*
G37*
X191957787Y-13454065D02*
X192122920Y-13549405D01*
X192245488Y-13695477D01*
X192321555Y-13904465D01*
X192330000Y-14000996D01*
X192330001Y-193667875D01*
X192285935Y-193917787D01*
X192190596Y-194082919D01*
X192044524Y-194205488D01*
X191835532Y-194281555D01*
X191739004Y-194290000D01*
X184538800Y-194290000D01*
X184795453Y-194183691D01*
X186183691Y-192795453D01*
X186935000Y-190981632D01*
X186935000Y-189018368D01*
X186183691Y-187204547D01*
X184795453Y-185816309D01*
X182981632Y-185065000D01*
X181018368Y-185065000D01*
X179204547Y-185816309D01*
X177816309Y-187204547D01*
X177065000Y-189018368D01*
X177065000Y-190981632D01*
X177816309Y-192795453D01*
X179204547Y-194183691D01*
X179461200Y-194290000D01*
X29538800Y-194290000D01*
X29795453Y-194183691D01*
X31183691Y-192795453D01*
X31935000Y-190981632D01*
X31935000Y-189018368D01*
X31183691Y-187204547D01*
X30827894Y-186848750D01*
X133008000Y-186848750D01*
X133008000Y-187614310D01*
X133104673Y-187847699D01*
X133283302Y-188026327D01*
X133516691Y-188123000D01*
X134207250Y-188123000D01*
X134366000Y-187964250D01*
X134366000Y-186690000D01*
X133166750Y-186690000D01*
X133008000Y-186848750D01*
X30827894Y-186848750D01*
X29795453Y-185816309D01*
X29060038Y-185511690D01*
X133008000Y-185511690D01*
X133008000Y-186277250D01*
X133166750Y-186436000D01*
X134366000Y-186436000D01*
X134366000Y-185161750D01*
X134207250Y-185003000D01*
X133516691Y-185003000D01*
X133283302Y-185099673D01*
X133104673Y-185278301D01*
X133008000Y-185511690D01*
X29060038Y-185511690D01*
X27981632Y-185065000D01*
X26018368Y-185065000D01*
X24204547Y-185816309D01*
X22816309Y-187204547D01*
X22065000Y-189018368D01*
X22065000Y-190981632D01*
X22816309Y-192795453D01*
X24204547Y-194183691D01*
X24461200Y-194290000D01*
X15302119Y-194290000D01*
X15052213Y-194245935D01*
X14887081Y-194150596D01*
X14764512Y-194004524D01*
X14688445Y-193795532D01*
X14680000Y-193699004D01*
X14680000Y-178043983D01*
X82112000Y-178043983D01*
X82112000Y-178696017D01*
X82361523Y-179298419D01*
X82703104Y-179640000D01*
X82361523Y-179981581D01*
X82112000Y-180583983D01*
X82112000Y-181236017D01*
X82361523Y-181838419D01*
X82822581Y-182299477D01*
X83424983Y-182549000D01*
X84077017Y-182549000D01*
X84679419Y-182299477D01*
X85140477Y-181838419D01*
X85142366Y-181833859D01*
X85929741Y-182160000D01*
X86932259Y-182160000D01*
X87858465Y-181776353D01*
X88567353Y-181067465D01*
X88951000Y-180141259D01*
X88951000Y-179138741D01*
X88567353Y-178212535D01*
X87858465Y-177503647D01*
X87654110Y-177419000D01*
X94184973Y-177419000D01*
X94377217Y-178385477D01*
X94924683Y-179204817D01*
X95744023Y-179752283D01*
X96466538Y-179896000D01*
X96954462Y-179896000D01*
X97676977Y-179752283D01*
X98496317Y-179204817D01*
X99043783Y-178385477D01*
X99236027Y-177419000D01*
X99043783Y-176452523D01*
X98496317Y-175633183D01*
X97676977Y-175085717D01*
X96954462Y-174942000D01*
X96466538Y-174942000D01*
X95744023Y-175085717D01*
X94924683Y-175633183D01*
X94377217Y-176452523D01*
X94184973Y-177419000D01*
X87654110Y-177419000D01*
X86932259Y-177120000D01*
X85929741Y-177120000D01*
X85142366Y-177446141D01*
X85140477Y-177441581D01*
X84679419Y-176980523D01*
X84521518Y-176915118D01*
X84551608Y-176810213D01*
X83751000Y-176009605D01*
X82950392Y-176810213D01*
X82980482Y-176915118D01*
X82822581Y-176980523D01*
X82361523Y-177441581D01*
X82112000Y-178043983D01*
X14680000Y-178043983D01*
X14680000Y-175622302D01*
X82341856Y-175622302D01*
X82369638Y-176177368D01*
X82528603Y-176561143D01*
X82770787Y-176630608D01*
X83571395Y-175830000D01*
X82770787Y-175029392D01*
X82528603Y-175098857D01*
X82341856Y-175622302D01*
X14680000Y-175622302D01*
X14680000Y-174270213D01*
X82950392Y-174270213D01*
X83019857Y-174512397D01*
X83143344Y-174556453D01*
X83019857Y-174607603D01*
X82950392Y-174849787D01*
X83751000Y-175650395D01*
X83765143Y-175636253D01*
X83944748Y-175815858D01*
X83930605Y-175830000D01*
X84731213Y-176630608D01*
X84973397Y-176561143D01*
X85063345Y-176309023D01*
X85170581Y-176510884D01*
X86013096Y-176844723D01*
X86919232Y-176830734D01*
X87691419Y-176510884D01*
X87868653Y-176177259D01*
X86431000Y-174739605D01*
X86416858Y-174753748D01*
X86237253Y-174574143D01*
X86251395Y-174560000D01*
X86610605Y-174560000D01*
X88048259Y-175997653D01*
X88381884Y-175820419D01*
X88715723Y-174977904D01*
X88701734Y-174071768D01*
X88381884Y-173299581D01*
X88048259Y-173122347D01*
X86610605Y-174560000D01*
X86251395Y-174560000D01*
X86237252Y-174545858D01*
X86416858Y-174366252D01*
X86431000Y-174380395D01*
X87868653Y-172942741D01*
X87691419Y-172609116D01*
X86848904Y-172275277D01*
X85942768Y-172289266D01*
X85170581Y-172609116D01*
X85071483Y-172795658D01*
X84973397Y-172558857D01*
X84731213Y-172489392D01*
X83930605Y-173290000D01*
X83944748Y-173304143D01*
X83765143Y-173483748D01*
X83751000Y-173469605D01*
X82950392Y-174270213D01*
X14680000Y-174270213D01*
X14680000Y-173082302D01*
X82341856Y-173082302D01*
X82369638Y-173637368D01*
X82528603Y-174021143D01*
X82770787Y-174090608D01*
X83571395Y-173290000D01*
X82770787Y-172489392D01*
X82528603Y-172558857D01*
X82341856Y-173082302D01*
X14680000Y-173082302D01*
X14680000Y-172309787D01*
X82950392Y-172309787D01*
X83751000Y-173110395D01*
X84551608Y-172309787D01*
X84482143Y-172067603D01*
X83958698Y-171880856D01*
X83403632Y-171908638D01*
X83019857Y-172067603D01*
X82950392Y-172309787D01*
X14680000Y-172309787D01*
X14680000Y-167932119D01*
X84894000Y-167932119D01*
X84894000Y-168487881D01*
X85106680Y-169001337D01*
X85499663Y-169394320D01*
X85706513Y-169480000D01*
X85499663Y-169565680D01*
X85106680Y-169958663D01*
X84894000Y-170472119D01*
X84894000Y-171027881D01*
X85106680Y-171541337D01*
X85499663Y-171934320D01*
X86013119Y-172147000D01*
X86568881Y-172147000D01*
X87082337Y-171934320D01*
X87475320Y-171541337D01*
X87688000Y-171027881D01*
X87688000Y-170472119D01*
X87521100Y-170069185D01*
X104804000Y-170069185D01*
X104804000Y-171014815D01*
X105165877Y-171888462D01*
X105834538Y-172557123D01*
X106708185Y-172919000D01*
X107653815Y-172919000D01*
X108527462Y-172557123D01*
X109028615Y-172055970D01*
X113346635Y-172055970D01*
X113506418Y-172374739D01*
X114297187Y-172684723D01*
X115146387Y-172668497D01*
X115855582Y-172374739D01*
X116015365Y-172055970D01*
X114681000Y-170721605D01*
X113346635Y-172055970D01*
X109028615Y-172055970D01*
X109196123Y-171888462D01*
X109558000Y-171014815D01*
X109558000Y-170158187D01*
X112538277Y-170158187D01*
X112554503Y-171007387D01*
X112848261Y-171716582D01*
X113167030Y-171876365D01*
X114501395Y-170542000D01*
X114860605Y-170542000D01*
X116194970Y-171876365D01*
X116513739Y-171716582D01*
X116823723Y-170925813D01*
X116807497Y-170076613D01*
X116513739Y-169367418D01*
X116194970Y-169207635D01*
X114860605Y-170542000D01*
X114501395Y-170542000D01*
X113167030Y-169207635D01*
X112848261Y-169367418D01*
X112538277Y-170158187D01*
X109558000Y-170158187D01*
X109558000Y-170069185D01*
X109196123Y-169195538D01*
X109028615Y-169028030D01*
X113346635Y-169028030D01*
X114681000Y-170362395D01*
X116015365Y-169028030D01*
X115855582Y-168709261D01*
X115064813Y-168399277D01*
X114215613Y-168415503D01*
X113506418Y-168709261D01*
X113346635Y-169028030D01*
X109028615Y-169028030D01*
X108527462Y-168526877D01*
X107653815Y-168165000D01*
X106708185Y-168165000D01*
X105834538Y-168526877D01*
X105165877Y-169195538D01*
X104804000Y-170069185D01*
X87521100Y-170069185D01*
X87475320Y-169958663D01*
X87082337Y-169565680D01*
X86875487Y-169480000D01*
X87082337Y-169394320D01*
X87475320Y-169001337D01*
X87688000Y-168487881D01*
X87688000Y-167932119D01*
X87475320Y-167418663D01*
X87082337Y-167025680D01*
X86891353Y-166946572D01*
X87022143Y-166892397D01*
X87091608Y-166650213D01*
X86291000Y-165849605D01*
X85490392Y-166650213D01*
X85559857Y-166892397D01*
X85700393Y-166942535D01*
X85499663Y-167025680D01*
X85106680Y-167418663D01*
X84894000Y-167932119D01*
X14680000Y-167932119D01*
X14680000Y-160018368D01*
X22065000Y-160018368D01*
X22065000Y-161981632D01*
X22816309Y-163795453D01*
X24204547Y-165183691D01*
X26018368Y-165935000D01*
X27981632Y-165935000D01*
X29122826Y-165462302D01*
X84881856Y-165462302D01*
X84909638Y-166017368D01*
X85068603Y-166401143D01*
X85310787Y-166470608D01*
X86111395Y-165670000D01*
X86470605Y-165670000D01*
X87271213Y-166470608D01*
X87513397Y-166401143D01*
X87700144Y-165877698D01*
X87672362Y-165322632D01*
X87567381Y-165069185D01*
X104804000Y-165069185D01*
X104804000Y-166014815D01*
X105165877Y-166888462D01*
X105834538Y-167557123D01*
X106708185Y-167919000D01*
X107653815Y-167919000D01*
X108527462Y-167557123D01*
X109028615Y-167055970D01*
X113346635Y-167055970D01*
X113506418Y-167374739D01*
X114297187Y-167684723D01*
X115146387Y-167668497D01*
X115855582Y-167374739D01*
X116015365Y-167055970D01*
X114681000Y-165721605D01*
X113346635Y-167055970D01*
X109028615Y-167055970D01*
X109196123Y-166888462D01*
X109558000Y-166014815D01*
X109558000Y-165158187D01*
X112538277Y-165158187D01*
X112554503Y-166007387D01*
X112848261Y-166716582D01*
X113167030Y-166876365D01*
X114501395Y-165542000D01*
X114860605Y-165542000D01*
X116194970Y-166876365D01*
X116513739Y-166716582D01*
X116823723Y-165925813D01*
X116807497Y-165076613D01*
X116513739Y-164367418D01*
X116194970Y-164207635D01*
X114860605Y-165542000D01*
X114501395Y-165542000D01*
X113167030Y-164207635D01*
X112848261Y-164367418D01*
X112538277Y-165158187D01*
X109558000Y-165158187D01*
X109558000Y-165069185D01*
X109196123Y-164195538D01*
X109028615Y-164028030D01*
X113346635Y-164028030D01*
X114681000Y-165362395D01*
X116015365Y-164028030D01*
X115855582Y-163709261D01*
X115064813Y-163399277D01*
X114215613Y-163415503D01*
X113506418Y-163709261D01*
X113346635Y-164028030D01*
X109028615Y-164028030D01*
X108527462Y-163526877D01*
X107653815Y-163165000D01*
X106708185Y-163165000D01*
X105834538Y-163526877D01*
X105165877Y-164195538D01*
X104804000Y-165069185D01*
X87567381Y-165069185D01*
X87513397Y-164938857D01*
X87271213Y-164869392D01*
X86470605Y-165670000D01*
X86111395Y-165670000D01*
X85310787Y-164869392D01*
X85068603Y-164938857D01*
X84881856Y-165462302D01*
X29122826Y-165462302D01*
X29795453Y-165183691D01*
X30868931Y-164110213D01*
X85490392Y-164110213D01*
X85559857Y-164352397D01*
X85683344Y-164396453D01*
X85559857Y-164447603D01*
X85490392Y-164689787D01*
X86291000Y-165490395D01*
X87091608Y-164689787D01*
X87022143Y-164447603D01*
X86898656Y-164403547D01*
X87022143Y-164352397D01*
X87091608Y-164110213D01*
X86291000Y-163309605D01*
X85490392Y-164110213D01*
X30868931Y-164110213D01*
X31183691Y-163795453D01*
X31545361Y-162922302D01*
X84881856Y-162922302D01*
X84909638Y-163477368D01*
X85068603Y-163861143D01*
X85310787Y-163930608D01*
X86111395Y-163130000D01*
X86470605Y-163130000D01*
X87271213Y-163930608D01*
X87513397Y-163861143D01*
X87700144Y-163337698D01*
X87672362Y-162782632D01*
X87513397Y-162398857D01*
X87271213Y-162329392D01*
X86470605Y-163130000D01*
X86111395Y-163130000D01*
X85310787Y-162329392D01*
X85068603Y-162398857D01*
X84881856Y-162922302D01*
X31545361Y-162922302D01*
X31935000Y-161981632D01*
X31935000Y-160312119D01*
X84894000Y-160312119D01*
X84894000Y-160867881D01*
X85106680Y-161381337D01*
X85499663Y-161774320D01*
X85690647Y-161853428D01*
X85559857Y-161907603D01*
X85490392Y-162149787D01*
X86291000Y-162950395D01*
X87091608Y-162149787D01*
X87022143Y-161907603D01*
X86881607Y-161857465D01*
X87082337Y-161774320D01*
X87475320Y-161381337D01*
X87688000Y-160867881D01*
X87688000Y-160579000D01*
X94216319Y-160579000D01*
X94216319Y-163779000D01*
X94284384Y-164121188D01*
X94478219Y-164411281D01*
X94768312Y-164605116D01*
X95110500Y-164673181D01*
X98310500Y-164673181D01*
X98652688Y-164605116D01*
X98942781Y-164411281D01*
X99136616Y-164121188D01*
X99204681Y-163779000D01*
X99204681Y-160579000D01*
X99136616Y-160236812D01*
X99024611Y-160069185D01*
X104804000Y-160069185D01*
X104804000Y-161014815D01*
X105165877Y-161888462D01*
X105834538Y-162557123D01*
X106708185Y-162919000D01*
X107653815Y-162919000D01*
X108527462Y-162557123D01*
X109028615Y-162055970D01*
X113346635Y-162055970D01*
X113506418Y-162374739D01*
X114297187Y-162684723D01*
X115146387Y-162668497D01*
X115855582Y-162374739D01*
X116015365Y-162055970D01*
X114681000Y-160721605D01*
X113346635Y-162055970D01*
X109028615Y-162055970D01*
X109196123Y-161888462D01*
X109558000Y-161014815D01*
X109558000Y-160158187D01*
X112538277Y-160158187D01*
X112554503Y-161007387D01*
X112848261Y-161716582D01*
X113167030Y-161876365D01*
X114501395Y-160542000D01*
X114860605Y-160542000D01*
X116194970Y-161876365D01*
X116513739Y-161716582D01*
X116823723Y-160925813D01*
X116807497Y-160076613D01*
X116513739Y-159367418D01*
X116194970Y-159207635D01*
X114860605Y-160542000D01*
X114501395Y-160542000D01*
X113167030Y-159207635D01*
X112848261Y-159367418D01*
X112538277Y-160158187D01*
X109558000Y-160158187D01*
X109558000Y-160069185D01*
X109196123Y-159195538D01*
X109028615Y-159028030D01*
X113346635Y-159028030D01*
X114681000Y-160362395D01*
X116015365Y-159028030D01*
X115855582Y-158709261D01*
X115064813Y-158399277D01*
X114215613Y-158415503D01*
X113506418Y-158709261D01*
X113346635Y-159028030D01*
X109028615Y-159028030D01*
X108527462Y-158526877D01*
X107653815Y-158165000D01*
X106708185Y-158165000D01*
X105834538Y-158526877D01*
X105165877Y-159195538D01*
X104804000Y-160069185D01*
X99024611Y-160069185D01*
X98942781Y-159946719D01*
X98652688Y-159752884D01*
X98310500Y-159684819D01*
X95110500Y-159684819D01*
X94768312Y-159752884D01*
X94478219Y-159946719D01*
X94284384Y-160236812D01*
X94216319Y-160579000D01*
X87688000Y-160579000D01*
X87688000Y-160312119D01*
X87475320Y-159798663D01*
X87082337Y-159405680D01*
X86568881Y-159193000D01*
X86013119Y-159193000D01*
X85499663Y-159405680D01*
X85106680Y-159798663D01*
X84894000Y-160312119D01*
X31935000Y-160312119D01*
X31935000Y-160018368D01*
X31525693Y-159030213D01*
X82950392Y-159030213D01*
X83019857Y-159272397D01*
X83543302Y-159459144D01*
X84098368Y-159431362D01*
X84482143Y-159272397D01*
X84551608Y-159030213D01*
X83751000Y-158229605D01*
X82950392Y-159030213D01*
X31525693Y-159030213D01*
X31183691Y-158204547D01*
X30821446Y-157842302D01*
X82341856Y-157842302D01*
X82369638Y-158397368D01*
X82528603Y-158781143D01*
X82770787Y-158850608D01*
X83571395Y-158050000D01*
X82770787Y-157249392D01*
X82528603Y-157318857D01*
X82341856Y-157842302D01*
X30821446Y-157842302D01*
X29795453Y-156816309D01*
X29008188Y-156490213D01*
X82950392Y-156490213D01*
X83019857Y-156732397D01*
X83143344Y-156776453D01*
X83019857Y-156827603D01*
X82950392Y-157069787D01*
X83751000Y-157870395D01*
X83765143Y-157856253D01*
X83944748Y-158035858D01*
X83930605Y-158050000D01*
X84731213Y-158850608D01*
X84973397Y-158781143D01*
X85010714Y-158676545D01*
X85039581Y-158730884D01*
X85882096Y-159064723D01*
X86788232Y-159050734D01*
X87560419Y-158730884D01*
X87737653Y-158397259D01*
X86300000Y-156959605D01*
X86285858Y-156973748D01*
X86106252Y-156794142D01*
X86120395Y-156780000D01*
X86479605Y-156780000D01*
X87917259Y-158217653D01*
X88250884Y-158040419D01*
X88584723Y-157197904D01*
X88570734Y-156291768D01*
X88250884Y-155519581D01*
X87917259Y-155342347D01*
X86479605Y-156780000D01*
X86120395Y-156780000D01*
X86106252Y-156765858D01*
X86285858Y-156586252D01*
X86300000Y-156600395D01*
X87737653Y-155162741D01*
X87560419Y-154829116D01*
X87007433Y-154610000D01*
X94343319Y-154610000D01*
X94343319Y-157810000D01*
X94411384Y-158152188D01*
X94605219Y-158442281D01*
X94895312Y-158636116D01*
X95237500Y-158704181D01*
X98437500Y-158704181D01*
X98779688Y-158636116D01*
X99069781Y-158442281D01*
X99263616Y-158152188D01*
X99331681Y-157810000D01*
X99331681Y-154610000D01*
X99263616Y-154267812D01*
X99069781Y-153977719D01*
X98779688Y-153783884D01*
X98437500Y-153715819D01*
X95237500Y-153715819D01*
X94895312Y-153783884D01*
X94605219Y-153977719D01*
X94411384Y-154267812D01*
X94343319Y-154610000D01*
X87007433Y-154610000D01*
X86717904Y-154495277D01*
X85811768Y-154509266D01*
X85039581Y-154829116D01*
X85014090Y-154877099D01*
X84973397Y-154778857D01*
X84731213Y-154709392D01*
X83930605Y-155510000D01*
X83944748Y-155524143D01*
X83765143Y-155703748D01*
X83751000Y-155689605D01*
X82950392Y-156490213D01*
X29008188Y-156490213D01*
X27981632Y-156065000D01*
X26018368Y-156065000D01*
X24204547Y-156816309D01*
X22816309Y-158204547D01*
X22065000Y-160018368D01*
X14680000Y-160018368D01*
X14680000Y-155302302D01*
X82341856Y-155302302D01*
X82369638Y-155857368D01*
X82528603Y-156241143D01*
X82770787Y-156310608D01*
X83571395Y-155510000D01*
X82770787Y-154709392D01*
X82528603Y-154778857D01*
X82341856Y-155302302D01*
X14680000Y-155302302D01*
X14680000Y-150103983D01*
X82112000Y-150103983D01*
X82112000Y-150756017D01*
X82112101Y-150756260D01*
X82112100Y-152643741D01*
X82112000Y-152643983D01*
X82112000Y-153296017D01*
X82175184Y-153448557D01*
X82207191Y-153609466D01*
X82298338Y-153745878D01*
X82361523Y-153898419D01*
X82478273Y-154015169D01*
X82569420Y-154151580D01*
X82705831Y-154242727D01*
X82822581Y-154359477D01*
X82975120Y-154422661D01*
X82980154Y-154426024D01*
X82950392Y-154529787D01*
X83751000Y-155330395D01*
X84551608Y-154529787D01*
X84521846Y-154426024D01*
X84526878Y-154422662D01*
X84679419Y-154359477D01*
X84796169Y-154242727D01*
X84932580Y-154151580D01*
X85023727Y-154015169D01*
X85105886Y-153933010D01*
X85798741Y-154220000D01*
X86801259Y-154220000D01*
X87727465Y-153836353D01*
X88436353Y-153127465D01*
X88820000Y-152201259D01*
X88820000Y-151198741D01*
X88436353Y-150272535D01*
X87727465Y-149563647D01*
X86801259Y-149180000D01*
X85798741Y-149180000D01*
X85105886Y-149466990D01*
X85023727Y-149384831D01*
X84932580Y-149248420D01*
X84796169Y-149157273D01*
X84679419Y-149040523D01*
X84526880Y-148977339D01*
X84390467Y-148886191D01*
X84229556Y-148854184D01*
X84077017Y-148791000D01*
X83911910Y-148791000D01*
X83751000Y-148758993D01*
X83590090Y-148791000D01*
X83424983Y-148791000D01*
X83272443Y-148854184D01*
X83111534Y-148886191D01*
X82975123Y-148977338D01*
X82822581Y-149040523D01*
X82705829Y-149157275D01*
X82569421Y-149248420D01*
X82478276Y-149384828D01*
X82361523Y-149501581D01*
X82298337Y-149654124D01*
X82207192Y-149790533D01*
X82175186Y-149951439D01*
X82112000Y-150103983D01*
X14680000Y-150103983D01*
X14680000Y-147055970D01*
X105846635Y-147055970D01*
X106006418Y-147374739D01*
X106797187Y-147684723D01*
X107646387Y-147668497D01*
X108355582Y-147374739D01*
X108515365Y-147055970D01*
X107181000Y-145721605D01*
X105846635Y-147055970D01*
X14680000Y-147055970D01*
X14680000Y-145158187D01*
X105038277Y-145158187D01*
X105054503Y-146007387D01*
X105348261Y-146716582D01*
X105667030Y-146876365D01*
X107001395Y-145542000D01*
X107360605Y-145542000D01*
X108694970Y-146876365D01*
X109013739Y-146716582D01*
X109323723Y-145925813D01*
X109307497Y-145076613D01*
X109013739Y-144367418D01*
X108694970Y-144207635D01*
X107360605Y-145542000D01*
X107001395Y-145542000D01*
X105667030Y-144207635D01*
X105348261Y-144367418D01*
X105038277Y-145158187D01*
X14680000Y-145158187D01*
X14680000Y-144028030D01*
X105846635Y-144028030D01*
X107181000Y-145362395D01*
X108515365Y-144028030D01*
X108355582Y-143709261D01*
X107564813Y-143399277D01*
X106715613Y-143415503D01*
X106006418Y-143709261D01*
X105846635Y-144028030D01*
X14680000Y-144028030D01*
X14680000Y-135090332D01*
X20418000Y-135090332D01*
X20418000Y-136089668D01*
X20800429Y-137012934D01*
X21507066Y-137719571D01*
X22430332Y-138102000D01*
X22433968Y-138102000D01*
X24913255Y-140581288D01*
X25031919Y-140758881D01*
X25209512Y-140877545D01*
X25209514Y-140877547D01*
X25499311Y-141071183D01*
X25735486Y-141228990D01*
X26355911Y-141352400D01*
X26355915Y-141352400D01*
X26565400Y-141394069D01*
X26774884Y-141352400D01*
X64502716Y-141352400D01*
X64712200Y-141394069D01*
X64921684Y-141352400D01*
X64921689Y-141352400D01*
X65542114Y-141228990D01*
X65929719Y-140970000D01*
X94311973Y-140970000D01*
X94504217Y-141936477D01*
X95051683Y-142755817D01*
X95871023Y-143303283D01*
X96593538Y-143447000D01*
X97081462Y-143447000D01*
X97803977Y-143303283D01*
X98623317Y-142755817D01*
X99170783Y-141936477D01*
X99363027Y-140970000D01*
X99170783Y-140003523D01*
X99020175Y-139778122D01*
X104164825Y-139778122D01*
X104379466Y-140296332D01*
X104841608Y-140791012D01*
X105457877Y-141071183D01*
X105727000Y-140953604D01*
X105727000Y-139509000D01*
X105981000Y-139509000D01*
X105981000Y-140953604D01*
X106250123Y-141071183D01*
X106866392Y-140791012D01*
X107328534Y-140296332D01*
X107543175Y-139778122D01*
X107425125Y-139509000D01*
X105981000Y-139509000D01*
X105727000Y-139509000D01*
X104282875Y-139509000D01*
X104164825Y-139778122D01*
X99020175Y-139778122D01*
X98623317Y-139184183D01*
X97803977Y-138636717D01*
X97081462Y-138493000D01*
X96593538Y-138493000D01*
X95871023Y-138636717D01*
X95051683Y-139184183D01*
X94504217Y-140003523D01*
X94311973Y-140970000D01*
X65929719Y-140970000D01*
X66245681Y-140758881D01*
X66364347Y-140581285D01*
X68536932Y-138408700D01*
X104434555Y-138408700D01*
X104379466Y-138467668D01*
X104164825Y-138985878D01*
X104282875Y-139255000D01*
X105727000Y-139255000D01*
X105727000Y-139235000D01*
X105981000Y-139235000D01*
X105981000Y-139255000D01*
X107425125Y-139255000D01*
X107543175Y-138985878D01*
X107328534Y-138467668D01*
X107273445Y-138408700D01*
X108932368Y-138408700D01*
X111261553Y-140737885D01*
X111380219Y-140915481D01*
X112083786Y-141385590D01*
X112704211Y-141509000D01*
X112704215Y-141509000D01*
X112913699Y-141550669D01*
X113123184Y-141509000D01*
X113887000Y-141509000D01*
X113887000Y-141601269D01*
X113325116Y-142163153D01*
X113147519Y-142281819D01*
X112677410Y-142985387D01*
X112599794Y-143375592D01*
X112548719Y-143409719D01*
X112354884Y-143699812D01*
X112286819Y-144042000D01*
X112286819Y-147042000D01*
X112354884Y-147384188D01*
X112548719Y-147674281D01*
X112554000Y-147677810D01*
X112554000Y-148832816D01*
X112512331Y-149042300D01*
X112554000Y-149251784D01*
X112554000Y-149251789D01*
X112616033Y-149563647D01*
X112677411Y-149872214D01*
X113028853Y-150398185D01*
X113028856Y-150398188D01*
X113147520Y-150575781D01*
X113325113Y-150694445D01*
X131528700Y-168898033D01*
X131528701Y-178633189D01*
X131652111Y-179253614D01*
X132122220Y-179957181D01*
X132825787Y-180427290D01*
X133402337Y-180541973D01*
X133416056Y-180555692D01*
X133572119Y-180620335D01*
X133711706Y-180713605D01*
X133876361Y-180746357D01*
X134032424Y-180811000D01*
X134201348Y-180811000D01*
X134366000Y-180843751D01*
X134530652Y-180811000D01*
X134699576Y-180811000D01*
X134855640Y-180746356D01*
X135020293Y-180713605D01*
X135159880Y-180620336D01*
X135315944Y-180555692D01*
X135435390Y-180436246D01*
X135574977Y-180342977D01*
X135668246Y-180203390D01*
X135787692Y-180083944D01*
X135798094Y-180058832D01*
X135871423Y-180168577D01*
X135896001Y-180184999D01*
X135896001Y-180584525D01*
X135876214Y-180684000D01*
X135896001Y-180783476D01*
X135914642Y-180877190D01*
X135954602Y-181078082D01*
X135983000Y-181120583D01*
X135983001Y-185376866D01*
X135935344Y-185408709D01*
X135881327Y-185278301D01*
X135702698Y-185099673D01*
X135469309Y-185003000D01*
X134778750Y-185003000D01*
X134620000Y-185161750D01*
X134620000Y-186436000D01*
X134640000Y-186436000D01*
X134640000Y-186690000D01*
X134620000Y-186690000D01*
X134620000Y-187964250D01*
X134778750Y-188123000D01*
X135469309Y-188123000D01*
X135702698Y-188026327D01*
X135881327Y-187847699D01*
X135935344Y-187717291D01*
X136413583Y-188036839D01*
X136993000Y-188152092D01*
X137572418Y-188036839D01*
X138063625Y-187708625D01*
X138391839Y-187217417D01*
X138465569Y-186846750D01*
X146538000Y-186846750D01*
X146538000Y-187612310D01*
X146634673Y-187845699D01*
X146813302Y-188024327D01*
X147046691Y-188121000D01*
X147737250Y-188121000D01*
X147896000Y-187962250D01*
X147896000Y-186688000D01*
X146696750Y-186688000D01*
X146538000Y-186846750D01*
X138465569Y-186846750D01*
X138478000Y-186784255D01*
X138478000Y-186341744D01*
X138391839Y-185908582D01*
X138125308Y-185509690D01*
X146538000Y-185509690D01*
X146538000Y-186275250D01*
X146696750Y-186434000D01*
X147896000Y-186434000D01*
X147896000Y-185159750D01*
X147737250Y-185001000D01*
X147046691Y-185001000D01*
X146813302Y-185097673D01*
X146634673Y-185276301D01*
X146538000Y-185509690D01*
X138125308Y-185509690D01*
X138063625Y-185417375D01*
X138003000Y-185376867D01*
X138003000Y-180870472D01*
X138022786Y-180771000D01*
X138003000Y-180671528D01*
X138003000Y-180671524D01*
X137944399Y-180376918D01*
X137916000Y-180334416D01*
X137916000Y-180184999D01*
X137940577Y-180168577D01*
X138257740Y-179693909D01*
X138369113Y-179134000D01*
X138257740Y-178574091D01*
X137940577Y-178099423D01*
X137465909Y-177782260D01*
X137047333Y-177699000D01*
X136764667Y-177699000D01*
X136346091Y-177782260D01*
X135871423Y-178099423D01*
X135798094Y-178209168D01*
X135787692Y-178184056D01*
X135782700Y-178179064D01*
X135782700Y-168226484D01*
X135824369Y-168016999D01*
X135782700Y-167807515D01*
X135782700Y-167807511D01*
X135659290Y-167187086D01*
X135451673Y-166876365D01*
X135307847Y-166661114D01*
X135307845Y-166661112D01*
X135189181Y-166483519D01*
X135011588Y-166364856D01*
X116808000Y-148161268D01*
X116808000Y-147677810D01*
X116813281Y-147674281D01*
X117007116Y-147384188D01*
X117075181Y-147042000D01*
X117075181Y-144429150D01*
X117369883Y-144134449D01*
X117547481Y-144015781D01*
X117841182Y-143576227D01*
X118017590Y-143312215D01*
X118128264Y-142755817D01*
X118141000Y-142691789D01*
X118141000Y-142691786D01*
X118182669Y-142482300D01*
X118141000Y-142272814D01*
X118141000Y-139591489D01*
X118182670Y-139382000D01*
X118017590Y-138552086D01*
X118008181Y-138538004D01*
X118008181Y-138282000D01*
X117940116Y-137939812D01*
X117746281Y-137649719D01*
X117456188Y-137455884D01*
X117114000Y-137387819D01*
X116857996Y-137387819D01*
X116843914Y-137378410D01*
X116223489Y-137255000D01*
X116014000Y-137213330D01*
X115804511Y-137255000D01*
X113794732Y-137255000D01*
X111940400Y-135400668D01*
X111940400Y-126255400D01*
X145525931Y-126255400D01*
X145567600Y-126464884D01*
X145567601Y-179083089D01*
X145691011Y-179703514D01*
X146161120Y-180407081D01*
X146864687Y-180877190D01*
X147694600Y-181042270D01*
X148524514Y-180877190D01*
X149228081Y-180407081D01*
X149423934Y-180113967D01*
X149460423Y-180168577D01*
X149485001Y-180184999D01*
X149485001Y-180584525D01*
X149465214Y-180684000D01*
X149485001Y-180783476D01*
X149503642Y-180877190D01*
X149513000Y-180924236D01*
X149513001Y-185374866D01*
X149465344Y-185406709D01*
X149411327Y-185276301D01*
X149232698Y-185097673D01*
X148999309Y-185001000D01*
X148308750Y-185001000D01*
X148150000Y-185159750D01*
X148150000Y-186434000D01*
X148170000Y-186434000D01*
X148170000Y-186688000D01*
X148150000Y-186688000D01*
X148150000Y-187962250D01*
X148308750Y-188121000D01*
X148999309Y-188121000D01*
X149232698Y-188024327D01*
X149411327Y-187845699D01*
X149465344Y-187715291D01*
X149943583Y-188034839D01*
X150523000Y-188150092D01*
X151102418Y-188034839D01*
X151593625Y-187706625D01*
X151921839Y-187215417D01*
X151994773Y-186848750D01*
X160186000Y-186848750D01*
X160186000Y-187614310D01*
X160282673Y-187847699D01*
X160461302Y-188026327D01*
X160694691Y-188123000D01*
X161385250Y-188123000D01*
X161544000Y-187964250D01*
X161544000Y-186690000D01*
X160344750Y-186690000D01*
X160186000Y-186848750D01*
X151994773Y-186848750D01*
X152008000Y-186782255D01*
X152008000Y-186339744D01*
X151921839Y-185906582D01*
X151657981Y-185511690D01*
X160186000Y-185511690D01*
X160186000Y-186277250D01*
X160344750Y-186436000D01*
X161544000Y-186436000D01*
X161544000Y-185161750D01*
X161385250Y-185003000D01*
X160694691Y-185003000D01*
X160461302Y-185099673D01*
X160282673Y-185278301D01*
X160186000Y-185511690D01*
X151657981Y-185511690D01*
X151593625Y-185415375D01*
X151533000Y-185374867D01*
X151533000Y-180811471D01*
X151552786Y-180712000D01*
X151533000Y-180612529D01*
X151533000Y-180612524D01*
X151505000Y-180471759D01*
X151505000Y-180184999D01*
X151529577Y-180168577D01*
X151846740Y-179693909D01*
X151958113Y-179134000D01*
X151891761Y-178800424D01*
X159931000Y-178800424D01*
X159931000Y-179467576D01*
X160186308Y-180083944D01*
X160658056Y-180555692D01*
X161274424Y-180811000D01*
X161941576Y-180811000D01*
X162557944Y-180555692D01*
X163029692Y-180083944D01*
X163040094Y-180058832D01*
X163113423Y-180168577D01*
X163138001Y-180184999D01*
X163138001Y-180584525D01*
X163118214Y-180684000D01*
X163138001Y-180783476D01*
X163156642Y-180877190D01*
X163161000Y-180899099D01*
X163161001Y-185376866D01*
X163113344Y-185408709D01*
X163059327Y-185278301D01*
X162880698Y-185099673D01*
X162647309Y-185003000D01*
X161956750Y-185003000D01*
X161798000Y-185161750D01*
X161798000Y-186436000D01*
X161818000Y-186436000D01*
X161818000Y-186690000D01*
X161798000Y-186690000D01*
X161798000Y-187964250D01*
X161956750Y-188123000D01*
X162647309Y-188123000D01*
X162880698Y-188026327D01*
X163059327Y-187847699D01*
X163113344Y-187717291D01*
X163591583Y-188036839D01*
X164171000Y-188152092D01*
X164750418Y-188036839D01*
X165241625Y-187708625D01*
X165569839Y-187217417D01*
X165656000Y-186784255D01*
X165656000Y-186341744D01*
X165569839Y-185908582D01*
X165241625Y-185417375D01*
X165181000Y-185376867D01*
X165181000Y-180806471D01*
X165200786Y-180707000D01*
X165181000Y-180607529D01*
X165181000Y-180607524D01*
X165158000Y-180491896D01*
X165158000Y-180184999D01*
X165182577Y-180168577D01*
X165499740Y-179693909D01*
X165611113Y-179134000D01*
X165499740Y-178574091D01*
X165182577Y-178099423D01*
X164707909Y-177782260D01*
X164289333Y-177699000D01*
X164006667Y-177699000D01*
X163588091Y-177782260D01*
X163113423Y-178099423D01*
X163040094Y-178209168D01*
X163029692Y-178184056D01*
X162557944Y-177712308D01*
X161941576Y-177457000D01*
X161274424Y-177457000D01*
X160658056Y-177712308D01*
X160186308Y-178184056D01*
X159931000Y-178800424D01*
X151891761Y-178800424D01*
X151846740Y-178574091D01*
X151529577Y-178099423D01*
X151054909Y-177782260D01*
X150636333Y-177699000D01*
X150353667Y-177699000D01*
X149935091Y-177782260D01*
X149821600Y-177858092D01*
X149821600Y-160018368D01*
X177065000Y-160018368D01*
X177065000Y-161981632D01*
X177816309Y-163795453D01*
X179204547Y-165183691D01*
X181018368Y-165935000D01*
X182981632Y-165935000D01*
X184795453Y-165183691D01*
X186183691Y-163795453D01*
X186935000Y-161981632D01*
X186935000Y-160018368D01*
X186183691Y-158204547D01*
X184795453Y-156816309D01*
X182981632Y-156065000D01*
X181018368Y-156065000D01*
X179204547Y-156816309D01*
X177816309Y-158204547D01*
X177065000Y-160018368D01*
X149821600Y-160018368D01*
X149821600Y-148348000D01*
X164365819Y-148348000D01*
X164365819Y-149848000D01*
X164452915Y-150285859D01*
X164700942Y-150657058D01*
X165072141Y-150905085D01*
X165510000Y-150992181D01*
X167610000Y-150992181D01*
X168047859Y-150905085D01*
X168419058Y-150657058D01*
X168667085Y-150285859D01*
X168754181Y-149848000D01*
X168754181Y-148348000D01*
X168667085Y-147910141D01*
X168419058Y-147538942D01*
X168047859Y-147290915D01*
X167610000Y-147203819D01*
X167090873Y-147203819D01*
X167603020Y-147059942D01*
X168105922Y-146664317D01*
X168419144Y-146106355D01*
X168450124Y-145978434D01*
X168330777Y-145725000D01*
X166687000Y-145725000D01*
X166687000Y-145745000D01*
X166433000Y-145745000D01*
X166433000Y-145725000D01*
X164789223Y-145725000D01*
X164669876Y-145978434D01*
X164700856Y-146106355D01*
X165014078Y-146664317D01*
X165516980Y-147059942D01*
X166029127Y-147203819D01*
X165510000Y-147203819D01*
X165072141Y-147290915D01*
X164700942Y-147538942D01*
X164452915Y-147910141D01*
X164365819Y-148348000D01*
X149821600Y-148348000D01*
X149821600Y-145217566D01*
X164669876Y-145217566D01*
X164789223Y-145471000D01*
X166433000Y-145471000D01*
X166433000Y-143963000D01*
X166687000Y-143963000D01*
X166687000Y-145471000D01*
X168330777Y-145471000D01*
X168450124Y-145217566D01*
X168419144Y-145089645D01*
X168105922Y-144531683D01*
X167603020Y-144136058D01*
X166987000Y-143963000D01*
X166687000Y-143963000D01*
X166433000Y-143963000D01*
X166133000Y-143963000D01*
X165516980Y-144136058D01*
X165014078Y-144531683D01*
X164700856Y-145089645D01*
X164669876Y-145217566D01*
X149821600Y-145217566D01*
X149821600Y-131755566D01*
X164669876Y-131755566D01*
X164789223Y-132009000D01*
X166433000Y-132009000D01*
X166433000Y-130501000D01*
X166133000Y-130501000D01*
X165516980Y-130674058D01*
X165014078Y-131069683D01*
X164700856Y-131627645D01*
X164669876Y-131755566D01*
X149821600Y-131755566D01*
X149821600Y-127136432D01*
X153866032Y-123092000D01*
X153869668Y-123092000D01*
X154792934Y-122709571D01*
X155499571Y-122002934D01*
X155882000Y-121079668D01*
X155882000Y-121076032D01*
X157966466Y-118991566D01*
X164797876Y-118991566D01*
X164917223Y-119245000D01*
X166561000Y-119245000D01*
X166561000Y-117737000D01*
X166261000Y-117737000D01*
X165644980Y-117910058D01*
X165142078Y-118305683D01*
X164828856Y-118863645D01*
X164797876Y-118991566D01*
X157966466Y-118991566D01*
X162919585Y-114038447D01*
X163097181Y-113919781D01*
X163267086Y-113665500D01*
X163500950Y-113315500D01*
X163888799Y-113315500D01*
X164197523Y-113521783D01*
X164920038Y-113665500D01*
X165407962Y-113665500D01*
X166130477Y-113521783D01*
X166949817Y-112974317D01*
X167497283Y-112154977D01*
X167689527Y-111188500D01*
X167497283Y-110222023D01*
X166949817Y-109402683D01*
X166130477Y-108855217D01*
X165407962Y-108711500D01*
X164920038Y-108711500D01*
X164197523Y-108855217D01*
X163888799Y-109061500D01*
X161773189Y-109061500D01*
X161563700Y-109019830D01*
X160733786Y-109184910D01*
X160030219Y-109655019D01*
X159560110Y-110358586D01*
X159395030Y-111188500D01*
X159436700Y-111397989D01*
X159436700Y-111505268D01*
X155643690Y-115298278D01*
X155632666Y-114593046D01*
X155314275Y-113824382D01*
X154981481Y-113648124D01*
X153549605Y-115080000D01*
X153563748Y-115094143D01*
X153384143Y-115273748D01*
X153370000Y-115259605D01*
X151938124Y-116691481D01*
X152114382Y-117024275D01*
X152954002Y-117356781D01*
X153595210Y-117346758D01*
X152873968Y-118068000D01*
X152870332Y-118068000D01*
X151947066Y-118450429D01*
X151240429Y-119157066D01*
X150858000Y-120080332D01*
X150858000Y-120083968D01*
X146338715Y-124603253D01*
X146161119Y-124721919D01*
X145691010Y-125425487D01*
X145567600Y-126045912D01*
X145567600Y-126045916D01*
X145525931Y-126255400D01*
X111940400Y-126255400D01*
X111940400Y-119603032D01*
X116879430Y-114664002D01*
X151093219Y-114664002D01*
X151107334Y-115566954D01*
X151425725Y-116335618D01*
X151758519Y-116511876D01*
X153190395Y-115080000D01*
X151758519Y-113648124D01*
X151425725Y-113824382D01*
X151093219Y-114664002D01*
X116879430Y-114664002D01*
X118074913Y-113468519D01*
X151938124Y-113468519D01*
X153370000Y-114900395D01*
X154801876Y-113468519D01*
X154625618Y-113135725D01*
X153785998Y-112803219D01*
X152883046Y-112817334D01*
X152114382Y-113135725D01*
X151938124Y-113468519D01*
X118074913Y-113468519D01*
X137194932Y-94348500D01*
X162669819Y-94348500D01*
X162669819Y-97548500D01*
X162737884Y-97890688D01*
X162931719Y-98180781D01*
X163221812Y-98374616D01*
X163564000Y-98442681D01*
X166704600Y-98442681D01*
X166704601Y-108036411D01*
X166662931Y-108245900D01*
X166828011Y-109075814D01*
X167179453Y-109601785D01*
X167179456Y-109601788D01*
X167298120Y-109779381D01*
X167475714Y-109898045D01*
X167872900Y-110295232D01*
X167872900Y-118021673D01*
X167731020Y-117910058D01*
X167115000Y-117737000D01*
X166815000Y-117737000D01*
X166815000Y-119245000D01*
X166835000Y-119245000D01*
X166835000Y-119499000D01*
X166815000Y-119499000D01*
X166815000Y-119519000D01*
X166561000Y-119519000D01*
X166561000Y-119499000D01*
X164917223Y-119499000D01*
X164797876Y-119752434D01*
X164828856Y-119880355D01*
X165142078Y-120438317D01*
X165644980Y-120833942D01*
X166157127Y-120977819D01*
X165638000Y-120977819D01*
X165200141Y-121064915D01*
X164828942Y-121312942D01*
X164580915Y-121684141D01*
X164493819Y-122122000D01*
X164493819Y-123622000D01*
X164580915Y-124059859D01*
X164828942Y-124431058D01*
X165200141Y-124679085D01*
X165638000Y-124766181D01*
X167738000Y-124766181D01*
X167872901Y-124739347D01*
X167872901Y-130886369D01*
X167603020Y-130674058D01*
X166987000Y-130501000D01*
X166687000Y-130501000D01*
X166687000Y-132009000D01*
X166707000Y-132009000D01*
X166707000Y-132263000D01*
X166687000Y-132263000D01*
X166687000Y-132283000D01*
X166433000Y-132283000D01*
X166433000Y-132263000D01*
X164789223Y-132263000D01*
X164669876Y-132516434D01*
X164700856Y-132644355D01*
X165014078Y-133202317D01*
X165516980Y-133597942D01*
X165703324Y-133650292D01*
X165566344Y-133741819D01*
X165510000Y-133741819D01*
X165072141Y-133828915D01*
X164700942Y-134076942D01*
X164452915Y-134448141D01*
X164365819Y-134886000D01*
X164365819Y-136386000D01*
X164452915Y-136823859D01*
X164700942Y-137195058D01*
X165072141Y-137443085D01*
X165510000Y-137530181D01*
X165566344Y-137530181D01*
X165730086Y-137639590D01*
X166350511Y-137763000D01*
X167433816Y-137763000D01*
X167643300Y-137804669D01*
X167852784Y-137763000D01*
X167852789Y-137763000D01*
X168473214Y-137639590D01*
X169176781Y-137169481D01*
X169295447Y-136991885D01*
X171355785Y-134931547D01*
X171533381Y-134812881D01*
X171777093Y-134448141D01*
X172003490Y-134109315D01*
X172059265Y-133828915D01*
X172126900Y-133488889D01*
X172126900Y-133488886D01*
X172168569Y-133279400D01*
X172126900Y-133069914D01*
X172126900Y-109623686D01*
X172168569Y-109414200D01*
X172126900Y-109204712D01*
X172126900Y-109204711D01*
X172003490Y-108584286D01*
X172003490Y-108584285D01*
X171777387Y-108245900D01*
X171533381Y-107880719D01*
X171355783Y-107762052D01*
X170958600Y-107364869D01*
X170958600Y-97854185D01*
X170985538Y-97881123D01*
X171859185Y-98243000D01*
X172804815Y-98243000D01*
X173678462Y-97881123D01*
X174179615Y-97379970D01*
X178497635Y-97379970D01*
X178657418Y-97698739D01*
X179448187Y-98008723D01*
X180297387Y-97992497D01*
X181006582Y-97698739D01*
X181166365Y-97379970D01*
X179832000Y-96045605D01*
X178497635Y-97379970D01*
X174179615Y-97379970D01*
X174347123Y-97212462D01*
X174709000Y-96338815D01*
X174709000Y-95482187D01*
X177689277Y-95482187D01*
X177705503Y-96331387D01*
X177999261Y-97040582D01*
X178318030Y-97200365D01*
X179652395Y-95866000D01*
X180011605Y-95866000D01*
X181345970Y-97200365D01*
X181664739Y-97040582D01*
X181974723Y-96249813D01*
X181958497Y-95400613D01*
X181664739Y-94691418D01*
X181345970Y-94531635D01*
X180011605Y-95866000D01*
X179652395Y-95866000D01*
X178318030Y-94531635D01*
X177999261Y-94691418D01*
X177689277Y-95482187D01*
X174709000Y-95482187D01*
X174709000Y-95393185D01*
X174347123Y-94519538D01*
X174179615Y-94352030D01*
X178497635Y-94352030D01*
X179832000Y-95686395D01*
X181166365Y-94352030D01*
X181006582Y-94033261D01*
X180215813Y-93723277D01*
X179366613Y-93739503D01*
X178657418Y-94033261D01*
X178497635Y-94352030D01*
X174179615Y-94352030D01*
X173678462Y-93850877D01*
X172804815Y-93489000D01*
X172717033Y-93489000D01*
X173074910Y-93131123D01*
X173678462Y-92881123D01*
X174179615Y-92379970D01*
X178497635Y-92379970D01*
X178657418Y-92698739D01*
X179448187Y-93008723D01*
X180297387Y-92992497D01*
X181006582Y-92698739D01*
X181166365Y-92379970D01*
X179832000Y-91045605D01*
X178497635Y-92379970D01*
X174179615Y-92379970D01*
X174347123Y-92212462D01*
X174709000Y-91338815D01*
X174709000Y-90482187D01*
X177689277Y-90482187D01*
X177705503Y-91331387D01*
X177999261Y-92040582D01*
X178318030Y-92200365D01*
X179652395Y-90866000D01*
X180011605Y-90866000D01*
X181345970Y-92200365D01*
X181664739Y-92040582D01*
X181974723Y-91249813D01*
X181958497Y-90400613D01*
X181664739Y-89691418D01*
X181345970Y-89531635D01*
X180011605Y-90866000D01*
X179652395Y-90866000D01*
X178318030Y-89531635D01*
X177999261Y-89691418D01*
X177689277Y-90482187D01*
X174709000Y-90482187D01*
X174709000Y-90393185D01*
X174347123Y-89519538D01*
X174179615Y-89352030D01*
X178497635Y-89352030D01*
X179832000Y-90686395D01*
X181166365Y-89352030D01*
X181006582Y-89033261D01*
X180215813Y-88723277D01*
X179366613Y-88739503D01*
X178657418Y-89033261D01*
X178497635Y-89352030D01*
X174179615Y-89352030D01*
X173678462Y-88850877D01*
X172804815Y-88489000D01*
X171859185Y-88489000D01*
X170985538Y-88850877D01*
X170316877Y-89519538D01*
X170066877Y-90123090D01*
X167475715Y-92714253D01*
X167298119Y-92832919D01*
X166868963Y-93475197D01*
X166764000Y-93454319D01*
X163564000Y-93454319D01*
X163221812Y-93522384D01*
X162931719Y-93716219D01*
X162737884Y-94006312D01*
X162669819Y-94348500D01*
X137194932Y-94348500D01*
X147227932Y-84315500D01*
X162224819Y-84315500D01*
X162224819Y-87515500D01*
X162292884Y-87857688D01*
X162486719Y-88147781D01*
X162776812Y-88341616D01*
X163119000Y-88409681D01*
X166319000Y-88409681D01*
X166661188Y-88341616D01*
X166951281Y-88147781D01*
X167145116Y-87857688D01*
X167213181Y-87515500D01*
X167213181Y-85393185D01*
X169955000Y-85393185D01*
X169955000Y-86338815D01*
X170316877Y-87212462D01*
X170985538Y-87881123D01*
X171859185Y-88243000D01*
X172804815Y-88243000D01*
X173678462Y-87881123D01*
X174179615Y-87379970D01*
X178497635Y-87379970D01*
X178657418Y-87698739D01*
X179448187Y-88008723D01*
X180297387Y-87992497D01*
X181006582Y-87698739D01*
X181166365Y-87379970D01*
X179832000Y-86045605D01*
X178497635Y-87379970D01*
X174179615Y-87379970D01*
X174347123Y-87212462D01*
X174709000Y-86338815D01*
X174709000Y-85482187D01*
X177689277Y-85482187D01*
X177705503Y-86331387D01*
X177999261Y-87040582D01*
X178318030Y-87200365D01*
X179652395Y-85866000D01*
X180011605Y-85866000D01*
X181345970Y-87200365D01*
X181664739Y-87040582D01*
X181974723Y-86249813D01*
X181958497Y-85400613D01*
X181664739Y-84691418D01*
X181345970Y-84531635D01*
X180011605Y-85866000D01*
X179652395Y-85866000D01*
X178318030Y-84531635D01*
X177999261Y-84691418D01*
X177689277Y-85482187D01*
X174709000Y-85482187D01*
X174709000Y-85393185D01*
X174347123Y-84519538D01*
X174179615Y-84352030D01*
X178497635Y-84352030D01*
X179832000Y-85686395D01*
X181166365Y-84352030D01*
X181006582Y-84033261D01*
X180215813Y-83723277D01*
X179366613Y-83739503D01*
X178657418Y-84033261D01*
X178497635Y-84352030D01*
X174179615Y-84352030D01*
X173678462Y-83850877D01*
X172804815Y-83489000D01*
X171859185Y-83489000D01*
X170985538Y-83850877D01*
X170316877Y-84519538D01*
X169955000Y-85393185D01*
X167213181Y-85393185D01*
X167213181Y-84315500D01*
X167145116Y-83973312D01*
X166951281Y-83683219D01*
X166661188Y-83489384D01*
X166319000Y-83421319D01*
X163119000Y-83421319D01*
X162776812Y-83489384D01*
X162486719Y-83683219D01*
X162292884Y-83973312D01*
X162224819Y-84315500D01*
X147227932Y-84315500D01*
X155050132Y-76493300D01*
X173606516Y-76493300D01*
X173816000Y-76534969D01*
X174025484Y-76493300D01*
X174025489Y-76493300D01*
X174645914Y-76369890D01*
X175349481Y-75899781D01*
X175468147Y-75722185D01*
X177687588Y-73502745D01*
X177865181Y-73384081D01*
X177983845Y-73206488D01*
X177983847Y-73206486D01*
X177993022Y-73192755D01*
X178332000Y-73260181D01*
X181332000Y-73260181D01*
X181674188Y-73192116D01*
X181964281Y-72998281D01*
X182158116Y-72708188D01*
X182226181Y-72366000D01*
X182226181Y-69639000D01*
X185521819Y-69639000D01*
X185521819Y-71839000D01*
X185589884Y-72181188D01*
X185783719Y-72471281D01*
X186073812Y-72665116D01*
X186416000Y-72733181D01*
X188616000Y-72733181D01*
X188958188Y-72665116D01*
X189248281Y-72471281D01*
X189442116Y-72181188D01*
X189510181Y-71839000D01*
X189510181Y-69639000D01*
X189442116Y-69296812D01*
X189248281Y-69006719D01*
X188958188Y-68812884D01*
X188616000Y-68744819D01*
X186416000Y-68744819D01*
X186073812Y-68812884D01*
X185783719Y-69006719D01*
X185589884Y-69296812D01*
X185521819Y-69639000D01*
X182226181Y-69639000D01*
X182226181Y-69366000D01*
X182158116Y-69023812D01*
X181964281Y-68733719D01*
X181674188Y-68539884D01*
X181332000Y-68471819D01*
X178332000Y-68471819D01*
X177989812Y-68539884D01*
X177699719Y-68733719D01*
X177696190Y-68739000D01*
X176541189Y-68739000D01*
X176331700Y-68697330D01*
X176122211Y-68739000D01*
X175501786Y-68862410D01*
X174798219Y-69332519D01*
X174328110Y-70036086D01*
X174321425Y-70069692D01*
X174164739Y-69691418D01*
X173845970Y-69531635D01*
X172511605Y-70866000D01*
X172525748Y-70880143D01*
X172346143Y-71059748D01*
X172332000Y-71045605D01*
X172317858Y-71059748D01*
X172138253Y-70880143D01*
X172152395Y-70866000D01*
X170818030Y-69531635D01*
X170499261Y-69691418D01*
X170189277Y-70482187D01*
X170205503Y-71331387D01*
X170499261Y-72040582D01*
X170818028Y-72200364D01*
X170779092Y-72239300D01*
X166653164Y-72239300D01*
X167052283Y-71641977D01*
X167244527Y-70675500D01*
X167052283Y-69709023D01*
X166846000Y-69400299D01*
X166846000Y-69352030D01*
X170997635Y-69352030D01*
X172332000Y-70686395D01*
X173666365Y-69352030D01*
X173506582Y-69033261D01*
X172715813Y-68723277D01*
X171866613Y-68739503D01*
X171157418Y-69033261D01*
X170997635Y-69352030D01*
X166846000Y-69352030D01*
X166846000Y-60975123D01*
X185826817Y-60975123D01*
X186106988Y-61591392D01*
X186601668Y-62053534D01*
X187119878Y-62268175D01*
X187389000Y-62150125D01*
X187389000Y-60706000D01*
X187643000Y-60706000D01*
X187643000Y-62150125D01*
X187912122Y-62268175D01*
X188430332Y-62053534D01*
X188925012Y-61591392D01*
X189205183Y-60975123D01*
X189087604Y-60706000D01*
X187643000Y-60706000D01*
X187389000Y-60706000D01*
X185944396Y-60706000D01*
X185826817Y-60975123D01*
X166846000Y-60975123D01*
X166846000Y-60182877D01*
X185826817Y-60182877D01*
X185944396Y-60452000D01*
X187389000Y-60452000D01*
X187389000Y-59007875D01*
X187643000Y-59007875D01*
X187643000Y-60452000D01*
X189087604Y-60452000D01*
X189205183Y-60182877D01*
X188925012Y-59566608D01*
X188430332Y-59104466D01*
X187912122Y-58889825D01*
X187643000Y-59007875D01*
X187389000Y-59007875D01*
X187119878Y-58889825D01*
X186601668Y-59104466D01*
X186106988Y-59566608D01*
X185826817Y-60182877D01*
X166846000Y-60182877D01*
X166846000Y-51860000D01*
X177482330Y-51860000D01*
X177647410Y-52689914D01*
X178012000Y-53235561D01*
X178012000Y-53456017D01*
X178075185Y-53608559D01*
X178107192Y-53769467D01*
X178198337Y-53905876D01*
X178261523Y-54058419D01*
X178378276Y-54175172D01*
X178469421Y-54311580D01*
X178605829Y-54402725D01*
X178722581Y-54519477D01*
X178875123Y-54582662D01*
X179011534Y-54673809D01*
X179172443Y-54705816D01*
X179324983Y-54769000D01*
X179490090Y-54769000D01*
X179651000Y-54801007D01*
X179811910Y-54769000D01*
X179977017Y-54769000D01*
X180129556Y-54705816D01*
X180290467Y-54673809D01*
X180426880Y-54582661D01*
X180579419Y-54519477D01*
X180696169Y-54402727D01*
X180832580Y-54311580D01*
X180923727Y-54175169D01*
X181040477Y-54058419D01*
X181042366Y-54053859D01*
X181829741Y-54380000D01*
X182832259Y-54380000D01*
X183758465Y-53996353D01*
X184467353Y-53287465D01*
X184851000Y-52361259D01*
X184851000Y-51358741D01*
X184467353Y-50432535D01*
X183758465Y-49723647D01*
X182832259Y-49340000D01*
X181829741Y-49340000D01*
X181042366Y-49666141D01*
X181040477Y-49661581D01*
X180923727Y-49544831D01*
X180832580Y-49408420D01*
X180696169Y-49317273D01*
X180579419Y-49200523D01*
X180426878Y-49137338D01*
X180421846Y-49133976D01*
X180451608Y-49030213D01*
X179651000Y-48229605D01*
X178850392Y-49030213D01*
X178880154Y-49133976D01*
X178875120Y-49137339D01*
X178722581Y-49200523D01*
X178605831Y-49317273D01*
X178469420Y-49408420D01*
X178378273Y-49544831D01*
X178261523Y-49661581D01*
X178198338Y-49814122D01*
X178107191Y-49950534D01*
X178075184Y-50111443D01*
X178012000Y-50263983D01*
X178012000Y-50484439D01*
X177647410Y-51030086D01*
X177482330Y-51860000D01*
X166846000Y-51860000D01*
X166846000Y-47842302D01*
X178241856Y-47842302D01*
X178269638Y-48397368D01*
X178428603Y-48781143D01*
X178670787Y-48850608D01*
X179471395Y-48050000D01*
X178670787Y-47249392D01*
X178428603Y-47318857D01*
X178241856Y-47842302D01*
X166846000Y-47842302D01*
X166846000Y-46490213D01*
X178850392Y-46490213D01*
X178919857Y-46732397D01*
X179043344Y-46776453D01*
X178919857Y-46827603D01*
X178850392Y-47069787D01*
X179651000Y-47870395D01*
X179665143Y-47856253D01*
X179844748Y-48035858D01*
X179830605Y-48050000D01*
X180631213Y-48850608D01*
X180873397Y-48781143D01*
X180963345Y-48529023D01*
X181070581Y-48730884D01*
X181913096Y-49064723D01*
X182819232Y-49050734D01*
X183591419Y-48730884D01*
X183768653Y-48397259D01*
X182331000Y-46959605D01*
X182316858Y-46973748D01*
X182137253Y-46794143D01*
X182151395Y-46780000D01*
X182510605Y-46780000D01*
X183948259Y-48217653D01*
X184281884Y-48040419D01*
X184615723Y-47197904D01*
X184601734Y-46291768D01*
X184281884Y-45519581D01*
X183948259Y-45342347D01*
X182510605Y-46780000D01*
X182151395Y-46780000D01*
X182137252Y-46765858D01*
X182316858Y-46586252D01*
X182331000Y-46600395D01*
X183768653Y-45162741D01*
X183591419Y-44829116D01*
X182748904Y-44495277D01*
X181842768Y-44509266D01*
X181070581Y-44829116D01*
X180971483Y-45015658D01*
X180873397Y-44778857D01*
X180631213Y-44709392D01*
X179830605Y-45510000D01*
X179844748Y-45524143D01*
X179665143Y-45703748D01*
X179651000Y-45689605D01*
X178850392Y-46490213D01*
X166846000Y-46490213D01*
X166846000Y-45302302D01*
X178241856Y-45302302D01*
X178269638Y-45857368D01*
X178428603Y-46241143D01*
X178670787Y-46310608D01*
X179471395Y-45510000D01*
X178670787Y-44709392D01*
X178428603Y-44778857D01*
X178241856Y-45302302D01*
X166846000Y-45302302D01*
X166846000Y-44529787D01*
X178850392Y-44529787D01*
X179651000Y-45330395D01*
X180451608Y-44529787D01*
X180382143Y-44287603D01*
X179858698Y-44100856D01*
X179303632Y-44128638D01*
X178919857Y-44287603D01*
X178850392Y-44529787D01*
X166846000Y-44529787D01*
X166846000Y-40152119D01*
X180794000Y-40152119D01*
X180794000Y-40707881D01*
X181006680Y-41221337D01*
X181399663Y-41614320D01*
X181606513Y-41700000D01*
X181399663Y-41785680D01*
X181006680Y-42178663D01*
X180794000Y-42692119D01*
X180794000Y-43247881D01*
X181006680Y-43761337D01*
X181399663Y-44154320D01*
X181913119Y-44367000D01*
X182468881Y-44367000D01*
X182982337Y-44154320D01*
X183375320Y-43761337D01*
X183588000Y-43247881D01*
X183588000Y-42692119D01*
X183375320Y-42178663D01*
X182982337Y-41785680D01*
X182775487Y-41700000D01*
X182982337Y-41614320D01*
X183375320Y-41221337D01*
X183588000Y-40707881D01*
X183588000Y-40152119D01*
X183375320Y-39638663D01*
X182982337Y-39245680D01*
X182791353Y-39166572D01*
X182922143Y-39112397D01*
X182991608Y-38870213D01*
X182191000Y-38069605D01*
X181390392Y-38870213D01*
X181459857Y-39112397D01*
X181600393Y-39162535D01*
X181399663Y-39245680D01*
X181006680Y-39638663D01*
X180794000Y-40152119D01*
X166846000Y-40152119D01*
X166846000Y-39636132D01*
X168799830Y-37682302D01*
X180781856Y-37682302D01*
X180809638Y-38237368D01*
X180968603Y-38621143D01*
X181210787Y-38690608D01*
X182011395Y-37890000D01*
X182370605Y-37890000D01*
X183171213Y-38690608D01*
X183413397Y-38621143D01*
X183600144Y-38097698D01*
X183572362Y-37542632D01*
X183413397Y-37158857D01*
X183171213Y-37089392D01*
X182370605Y-37890000D01*
X182011395Y-37890000D01*
X181210787Y-37089392D01*
X180968603Y-37158857D01*
X180781856Y-37682302D01*
X168799830Y-37682302D01*
X170151919Y-36330213D01*
X181390392Y-36330213D01*
X181459857Y-36572397D01*
X181583344Y-36616453D01*
X181459857Y-36667603D01*
X181390392Y-36909787D01*
X182191000Y-37710395D01*
X182991608Y-36909787D01*
X182922143Y-36667603D01*
X182798656Y-36623547D01*
X182922143Y-36572397D01*
X182991608Y-36330213D01*
X182191000Y-35529605D01*
X181390392Y-36330213D01*
X170151919Y-36330213D01*
X171339830Y-35142302D01*
X180781856Y-35142302D01*
X180809638Y-35697368D01*
X180968603Y-36081143D01*
X181210787Y-36150608D01*
X182011395Y-35350000D01*
X182370605Y-35350000D01*
X183171213Y-36150608D01*
X183413397Y-36081143D01*
X183600144Y-35557698D01*
X183572362Y-35002632D01*
X183413397Y-34618857D01*
X183171213Y-34549392D01*
X182370605Y-35350000D01*
X182011395Y-35350000D01*
X181210787Y-34549392D01*
X180968603Y-34618857D01*
X180781856Y-35142302D01*
X171339830Y-35142302D01*
X173950013Y-32532119D01*
X180794000Y-32532119D01*
X180794000Y-33087881D01*
X181006680Y-33601337D01*
X181399663Y-33994320D01*
X181590647Y-34073428D01*
X181459857Y-34127603D01*
X181390392Y-34369787D01*
X182191000Y-35170395D01*
X182991608Y-34369787D01*
X182922143Y-34127603D01*
X182781607Y-34077465D01*
X182982337Y-33994320D01*
X183375320Y-33601337D01*
X183588000Y-33087881D01*
X183588000Y-32532119D01*
X183375320Y-32018663D01*
X182982337Y-31625680D01*
X182468881Y-31413000D01*
X181913119Y-31413000D01*
X181399663Y-31625680D01*
X181006680Y-32018663D01*
X180794000Y-32532119D01*
X173950013Y-32532119D01*
X175231919Y-31250213D01*
X178850392Y-31250213D01*
X178919857Y-31492397D01*
X179443302Y-31679144D01*
X179998368Y-31651362D01*
X180382143Y-31492397D01*
X180451608Y-31250213D01*
X179651000Y-30449605D01*
X178850392Y-31250213D01*
X175231919Y-31250213D01*
X176419830Y-30062302D01*
X178241856Y-30062302D01*
X178269638Y-30617368D01*
X178428603Y-31001143D01*
X178670787Y-31070608D01*
X179471395Y-30270000D01*
X178670787Y-29469392D01*
X178428603Y-29538857D01*
X178241856Y-30062302D01*
X176419830Y-30062302D01*
X178309216Y-28172916D01*
X178428603Y-28461143D01*
X178670787Y-28530608D01*
X179471395Y-27730000D01*
X179457253Y-27715858D01*
X179636858Y-27536253D01*
X179651000Y-27550395D01*
X179665143Y-27536253D01*
X179844748Y-27715858D01*
X179830605Y-27730000D01*
X179844748Y-27744143D01*
X179665143Y-27923748D01*
X179651000Y-27909605D01*
X178850392Y-28710213D01*
X178919857Y-28952397D01*
X179043344Y-28996453D01*
X178919857Y-29047603D01*
X178850392Y-29289787D01*
X179651000Y-30090395D01*
X179665143Y-30076253D01*
X179844748Y-30255858D01*
X179830605Y-30270000D01*
X180631213Y-31070608D01*
X180873397Y-31001143D01*
X180910714Y-30896545D01*
X180939581Y-30950884D01*
X181782096Y-31284723D01*
X182688232Y-31270734D01*
X183460419Y-30950884D01*
X183637653Y-30617259D01*
X182200000Y-29179605D01*
X182185858Y-29193748D01*
X182006252Y-29014142D01*
X182020395Y-29000000D01*
X182379605Y-29000000D01*
X183817259Y-30437653D01*
X184150884Y-30260419D01*
X184484723Y-29417904D01*
X184470734Y-28511768D01*
X184150884Y-27739581D01*
X183817259Y-27562347D01*
X182379605Y-29000000D01*
X182020395Y-29000000D01*
X182006252Y-28985858D01*
X182185858Y-28806252D01*
X182200000Y-28820395D01*
X183637653Y-27382741D01*
X183460419Y-27049116D01*
X182617904Y-26715277D01*
X181711768Y-26729266D01*
X180939581Y-27049116D01*
X180914090Y-27097099D01*
X180873397Y-26998857D01*
X180631215Y-26929393D01*
X180746226Y-26814382D01*
X180721008Y-26789164D01*
X181184481Y-26479481D01*
X181316620Y-26281721D01*
X181698741Y-26440000D01*
X182701259Y-26440000D01*
X183627465Y-26056353D01*
X184336353Y-25347465D01*
X184720000Y-24421259D01*
X184720000Y-23418741D01*
X184336353Y-22492535D01*
X183627465Y-21783647D01*
X182701259Y-21400000D01*
X181698741Y-21400000D01*
X181005886Y-21686990D01*
X180579419Y-21260523D01*
X179977017Y-21011000D01*
X179324983Y-21011000D01*
X178722581Y-21260523D01*
X178261523Y-21721581D01*
X178012000Y-22323983D01*
X178012000Y-22879989D01*
X177698186Y-22942410D01*
X176994619Y-23412519D01*
X176875953Y-23590115D01*
X163363115Y-37102953D01*
X163185519Y-37221619D01*
X162715410Y-37925187D01*
X162592000Y-38545612D01*
X162592000Y-38545616D01*
X162550331Y-38755100D01*
X162592000Y-38964584D01*
X162592001Y-69400298D01*
X162385717Y-69709023D01*
X162193473Y-70675500D01*
X162385717Y-71641977D01*
X162784836Y-72239300D01*
X156136151Y-72239300D01*
X155821247Y-71768015D01*
X155821246Y-71768014D01*
X155702581Y-71590419D01*
X155524985Y-71471753D01*
X144748000Y-60694768D01*
X144748000Y-59250701D01*
X144954283Y-58941977D01*
X145146527Y-57975500D01*
X144954283Y-57009023D01*
X144748000Y-56700299D01*
X144748000Y-41174783D01*
X144789669Y-40965299D01*
X144748000Y-40755815D01*
X144748000Y-40755811D01*
X144624590Y-40135386D01*
X144154481Y-39431819D01*
X143976885Y-39313153D01*
X133953000Y-29289268D01*
X133953000Y-28805810D01*
X133958281Y-28802281D01*
X134152116Y-28512188D01*
X134220181Y-28170000D01*
X134220181Y-25170000D01*
X134152116Y-24827812D01*
X133958281Y-24537719D01*
X133953000Y-24534190D01*
X133953000Y-24453292D01*
X134629481Y-24001281D01*
X135099590Y-23297714D01*
X135197617Y-22804900D01*
X135264670Y-22467800D01*
X135223000Y-22258311D01*
X135223000Y-19158011D01*
X135099590Y-18537586D01*
X135090181Y-18523504D01*
X135090181Y-18267500D01*
X135022116Y-17925312D01*
X134828281Y-17635219D01*
X134538188Y-17441384D01*
X134196000Y-17373319D01*
X133939995Y-17373319D01*
X133925913Y-17363910D01*
X133096000Y-17198830D01*
X132266086Y-17363910D01*
X132252004Y-17373319D01*
X131996000Y-17373319D01*
X131653812Y-17441384D01*
X131363719Y-17635219D01*
X131169884Y-17925312D01*
X131101819Y-18267500D01*
X131101819Y-18523505D01*
X131092410Y-18537587D01*
X130969000Y-19158012D01*
X130969000Y-20972361D01*
X130875752Y-21111917D01*
X130470114Y-21517554D01*
X130292520Y-21636219D01*
X130173856Y-21813812D01*
X130173853Y-21813815D01*
X129846334Y-22303983D01*
X129822411Y-22339786D01*
X129699000Y-22960211D01*
X129699000Y-22960216D01*
X129657331Y-23169700D01*
X129699000Y-23379184D01*
X129699000Y-24534190D01*
X129693719Y-24537719D01*
X129499884Y-24827812D01*
X129431819Y-25170000D01*
X129431819Y-28170000D01*
X129499884Y-28512188D01*
X129693719Y-28802281D01*
X129699000Y-28805810D01*
X129699000Y-29960816D01*
X129657331Y-30170300D01*
X129699000Y-30379784D01*
X129699000Y-30379789D01*
X129746258Y-30617368D01*
X129822411Y-31000214D01*
X130173853Y-31526185D01*
X130173856Y-31526188D01*
X130292520Y-31703781D01*
X130470113Y-31822445D01*
X140494001Y-41846333D01*
X140494000Y-56700299D01*
X140287717Y-57009023D01*
X140095473Y-57975500D01*
X140287717Y-58941977D01*
X140494000Y-59250702D01*
X140494001Y-61366311D01*
X140452331Y-61575800D01*
X140617411Y-62405714D01*
X140968853Y-62931685D01*
X140968856Y-62931688D01*
X141087520Y-63109281D01*
X141265113Y-63227945D01*
X151782268Y-73745100D01*
X108457513Y-117069855D01*
X108279920Y-117188519D01*
X108161256Y-117366112D01*
X108161253Y-117366115D01*
X107809811Y-117892086D01*
X107644731Y-118722000D01*
X107686401Y-118931489D01*
X107686400Y-134154700D01*
X105643469Y-134154700D01*
X105762289Y-134105483D01*
X106925483Y-132942289D01*
X107555000Y-131422503D01*
X107555000Y-129777497D01*
X106925483Y-128257711D01*
X105762289Y-127094517D01*
X104242503Y-126465000D01*
X102597497Y-126465000D01*
X101077711Y-127094517D01*
X99914517Y-128257711D01*
X99285000Y-129777497D01*
X99285000Y-131422503D01*
X99914517Y-132942289D01*
X101077711Y-134105483D01*
X101196531Y-134154700D01*
X67865383Y-134154700D01*
X67655899Y-134113031D01*
X67446415Y-134154700D01*
X67446411Y-134154700D01*
X66825986Y-134278110D01*
X66122419Y-134748219D01*
X66003753Y-134925815D01*
X63831168Y-137098400D01*
X30118008Y-137098400D01*
X30041483Y-137021875D01*
X30374275Y-136845618D01*
X30706781Y-136005998D01*
X30692666Y-135103046D01*
X30374275Y-134334382D01*
X30041481Y-134158124D01*
X28609605Y-135590000D01*
X28623748Y-135604143D01*
X28444143Y-135783748D01*
X28430000Y-135769605D01*
X28415858Y-135783748D01*
X28236253Y-135604143D01*
X28250395Y-135590000D01*
X26818519Y-134158124D01*
X26485725Y-134334382D01*
X26153219Y-135174002D01*
X26163242Y-135815210D01*
X25442000Y-135093968D01*
X25442000Y-135090332D01*
X25059571Y-134167066D01*
X24871024Y-133978519D01*
X26998124Y-133978519D01*
X28430000Y-135410395D01*
X29861876Y-133978519D01*
X29685618Y-133645725D01*
X28845998Y-133313219D01*
X27943046Y-133327334D01*
X27174382Y-133645725D01*
X26998124Y-133978519D01*
X24871024Y-133978519D01*
X24352934Y-133460429D01*
X23429668Y-133078000D01*
X22430332Y-133078000D01*
X21507066Y-133460429D01*
X20800429Y-134167066D01*
X20418000Y-135090332D01*
X14680000Y-135090332D01*
X14680000Y-101727000D01*
X95250000Y-101727000D01*
X95298601Y-101717333D01*
X95339803Y-101689803D01*
X95367333Y-101648601D01*
X95377000Y-101600000D01*
X95377000Y-76200000D01*
X95367333Y-76151399D01*
X95339803Y-76110197D01*
X89007103Y-69777497D01*
X99285000Y-69777497D01*
X99285000Y-71422503D01*
X99914517Y-72942289D01*
X101077711Y-74105483D01*
X102597497Y-74735000D01*
X104242503Y-74735000D01*
X105762289Y-74105483D01*
X106925483Y-72942289D01*
X107555000Y-71422503D01*
X107555000Y-69777497D01*
X106925483Y-68257711D01*
X105762289Y-67094517D01*
X104242503Y-66465000D01*
X102597497Y-66465000D01*
X101077711Y-67094517D01*
X99914517Y-68257711D01*
X99285000Y-69777497D01*
X89007103Y-69777497D01*
X82475606Y-63246000D01*
X103392473Y-63246000D01*
X103584717Y-64212477D01*
X104132183Y-65031817D01*
X104951523Y-65579283D01*
X105674038Y-65723000D01*
X106161962Y-65723000D01*
X106884477Y-65579283D01*
X107703817Y-65031817D01*
X108251283Y-64212477D01*
X108443527Y-63246000D01*
X108251283Y-62279523D01*
X108045000Y-61970799D01*
X108045000Y-51840000D01*
X111582330Y-51840000D01*
X111747410Y-52669914D01*
X112112000Y-53215561D01*
X112112000Y-53436017D01*
X112175185Y-53588559D01*
X112207192Y-53749467D01*
X112298337Y-53885876D01*
X112361523Y-54038419D01*
X112478276Y-54155172D01*
X112569421Y-54291580D01*
X112705829Y-54382725D01*
X112822581Y-54499477D01*
X112975123Y-54562662D01*
X113111534Y-54653809D01*
X113272443Y-54685816D01*
X113424983Y-54749000D01*
X113590090Y-54749000D01*
X113751000Y-54781007D01*
X113911910Y-54749000D01*
X114077017Y-54749000D01*
X114229556Y-54685816D01*
X114390467Y-54653809D01*
X114526880Y-54562661D01*
X114679419Y-54499477D01*
X114796169Y-54382727D01*
X114932580Y-54291580D01*
X115023727Y-54155169D01*
X115140477Y-54038419D01*
X115142366Y-54033859D01*
X115929741Y-54360000D01*
X116887668Y-54360000D01*
X116156915Y-55090753D01*
X115979319Y-55209419D01*
X115509210Y-55912987D01*
X115385800Y-56533412D01*
X115385800Y-56533416D01*
X115344131Y-56742900D01*
X115385800Y-56952385D01*
X115385801Y-65456411D01*
X115344131Y-65665900D01*
X115509211Y-66495814D01*
X115860653Y-67021785D01*
X115860656Y-67021788D01*
X115979320Y-67199381D01*
X116156913Y-67318045D01*
X124289053Y-75450185D01*
X124407719Y-75627781D01*
X125111286Y-76097890D01*
X125731711Y-76221300D01*
X125731714Y-76221300D01*
X125941200Y-76262969D01*
X126150686Y-76221300D01*
X139569189Y-76221300D01*
X140189614Y-76097890D01*
X140893181Y-75627781D01*
X141363290Y-74924214D01*
X141528370Y-74094300D01*
X141363290Y-73264386D01*
X140893181Y-72560819D01*
X140189614Y-72090710D01*
X139569189Y-71967300D01*
X126822232Y-71967300D01*
X120595113Y-65740181D01*
X122758000Y-65740181D01*
X123100188Y-65672116D01*
X123390281Y-65478281D01*
X123584116Y-65188188D01*
X123652181Y-64846000D01*
X123652181Y-61646000D01*
X123584116Y-61303812D01*
X123390281Y-61013719D01*
X123100188Y-60819884D01*
X122758000Y-60751819D01*
X119639800Y-60751819D01*
X119639800Y-57623932D01*
X122164085Y-55099647D01*
X122341681Y-54980981D01*
X122811790Y-54277414D01*
X122935200Y-53656989D01*
X122935200Y-53656985D01*
X122937888Y-53643473D01*
X122979538Y-53685123D01*
X123583091Y-53935123D01*
X125254001Y-55606033D01*
X125254001Y-55672872D01*
X125148719Y-55743219D01*
X124954884Y-56033312D01*
X124886819Y-56375500D01*
X124886819Y-59575500D01*
X124954884Y-59917688D01*
X125148719Y-60207781D01*
X125438812Y-60401616D01*
X125781000Y-60469681D01*
X128981000Y-60469681D01*
X129323188Y-60401616D01*
X129613281Y-60207781D01*
X129807116Y-59917688D01*
X129875181Y-59575500D01*
X129875181Y-56375500D01*
X129807116Y-56033312D01*
X129613281Y-55743219D01*
X129508000Y-55672872D01*
X129508000Y-54584689D01*
X129549670Y-54375200D01*
X129384590Y-53545286D01*
X129143167Y-53183970D01*
X130491635Y-53183970D01*
X130651418Y-53502739D01*
X131442187Y-53812723D01*
X132291387Y-53796497D01*
X133000582Y-53502739D01*
X133160365Y-53183970D01*
X131826000Y-51849605D01*
X130491635Y-53183970D01*
X129143167Y-53183970D01*
X128914481Y-52841719D01*
X128210914Y-52371610D01*
X127992122Y-52328090D01*
X126950219Y-51286187D01*
X129683277Y-51286187D01*
X129699503Y-52135387D01*
X129993261Y-52844582D01*
X130312030Y-53004365D01*
X131646395Y-51670000D01*
X132005605Y-51670000D01*
X133339970Y-53004365D01*
X133658739Y-52844582D01*
X133968723Y-52053813D01*
X133952497Y-51204613D01*
X133658739Y-50495418D01*
X133339970Y-50335635D01*
X132005605Y-51670000D01*
X131646395Y-51670000D01*
X130312030Y-50335635D01*
X129993261Y-50495418D01*
X129683277Y-51286187D01*
X126950219Y-51286187D01*
X126591123Y-50927091D01*
X126341123Y-50323538D01*
X126173615Y-50156030D01*
X130491635Y-50156030D01*
X131826000Y-51490395D01*
X133160365Y-50156030D01*
X133000582Y-49837261D01*
X132209813Y-49527277D01*
X131360613Y-49543503D01*
X130651418Y-49837261D01*
X130491635Y-50156030D01*
X126173615Y-50156030D01*
X125672462Y-49654877D01*
X124798815Y-49293000D01*
X124711032Y-49293000D01*
X125068909Y-48935123D01*
X125672462Y-48685123D01*
X126173615Y-48183970D01*
X130491635Y-48183970D01*
X130651418Y-48502739D01*
X131442187Y-48812723D01*
X132291387Y-48796497D01*
X133000582Y-48502739D01*
X133160365Y-48183970D01*
X131826000Y-46849605D01*
X130491635Y-48183970D01*
X126173615Y-48183970D01*
X126341123Y-48016462D01*
X126703000Y-47142815D01*
X126703000Y-46286187D01*
X129683277Y-46286187D01*
X129699503Y-47135387D01*
X129993261Y-47844582D01*
X130312030Y-48004365D01*
X131646395Y-46670000D01*
X132005605Y-46670000D01*
X133339970Y-48004365D01*
X133658739Y-47844582D01*
X133968723Y-47053813D01*
X133952497Y-46204613D01*
X133658739Y-45495418D01*
X133339970Y-45335635D01*
X132005605Y-46670000D01*
X131646395Y-46670000D01*
X130312030Y-45335635D01*
X129993261Y-45495418D01*
X129683277Y-46286187D01*
X126703000Y-46286187D01*
X126703000Y-46197185D01*
X126341123Y-45323538D01*
X126173615Y-45156030D01*
X130491635Y-45156030D01*
X131826000Y-46490395D01*
X133160365Y-45156030D01*
X133000582Y-44837261D01*
X132209813Y-44527277D01*
X131360613Y-44543503D01*
X130651418Y-44837261D01*
X130491635Y-45156030D01*
X126173615Y-45156030D01*
X125672462Y-44654877D01*
X124798815Y-44293000D01*
X123853185Y-44293000D01*
X122979538Y-44654877D01*
X122310877Y-45323538D01*
X122060877Y-45927091D01*
X119452315Y-48535653D01*
X119274719Y-48654319D01*
X119156054Y-48831914D01*
X119156053Y-48831915D01*
X119089847Y-48931000D01*
X118804610Y-49357887D01*
X118681200Y-49978312D01*
X118681200Y-49978316D01*
X118639531Y-50187800D01*
X118681200Y-50397284D01*
X118681200Y-50687386D01*
X118567353Y-50412535D01*
X117858465Y-49703647D01*
X116932259Y-49320000D01*
X115929741Y-49320000D01*
X115142366Y-49646141D01*
X115140477Y-49641581D01*
X115023727Y-49524831D01*
X114932580Y-49388420D01*
X114796169Y-49297273D01*
X114679419Y-49180523D01*
X114526878Y-49117338D01*
X114521846Y-49113976D01*
X114551608Y-49010213D01*
X113751000Y-48209605D01*
X112950392Y-49010213D01*
X112980154Y-49113976D01*
X112975120Y-49117339D01*
X112822581Y-49180523D01*
X112705831Y-49297273D01*
X112569420Y-49388420D01*
X112478273Y-49524831D01*
X112361523Y-49641581D01*
X112298338Y-49794122D01*
X112207191Y-49930534D01*
X112175184Y-50091443D01*
X112112000Y-50243983D01*
X112112000Y-50464439D01*
X111747410Y-51010086D01*
X111582330Y-51840000D01*
X108045000Y-51840000D01*
X108045000Y-47822302D01*
X112341856Y-47822302D01*
X112369638Y-48377368D01*
X112528603Y-48761143D01*
X112770787Y-48830608D01*
X113571395Y-48030000D01*
X112770787Y-47229392D01*
X112528603Y-47298857D01*
X112341856Y-47822302D01*
X108045000Y-47822302D01*
X108045000Y-46470213D01*
X112950392Y-46470213D01*
X113019857Y-46712397D01*
X113143344Y-46756453D01*
X113019857Y-46807603D01*
X112950392Y-47049787D01*
X113751000Y-47850395D01*
X113765143Y-47836253D01*
X113944748Y-48015858D01*
X113930605Y-48030000D01*
X114731213Y-48830608D01*
X114973397Y-48761143D01*
X115063345Y-48509023D01*
X115170581Y-48710884D01*
X116013096Y-49044723D01*
X116919232Y-49030734D01*
X117691419Y-48710884D01*
X117868653Y-48377259D01*
X116431000Y-46939605D01*
X116416858Y-46953748D01*
X116237253Y-46774143D01*
X116251395Y-46760000D01*
X116610605Y-46760000D01*
X118048259Y-48197653D01*
X118381884Y-48020419D01*
X118715723Y-47177904D01*
X118701734Y-46271768D01*
X118381884Y-45499581D01*
X118048259Y-45322347D01*
X116610605Y-46760000D01*
X116251395Y-46760000D01*
X116237252Y-46745858D01*
X116416858Y-46566252D01*
X116431000Y-46580395D01*
X117868653Y-45142741D01*
X117691419Y-44809116D01*
X116848904Y-44475277D01*
X115942768Y-44489266D01*
X115170581Y-44809116D01*
X115071483Y-44995658D01*
X114973397Y-44758857D01*
X114731213Y-44689392D01*
X113930605Y-45490000D01*
X113944748Y-45504143D01*
X113765143Y-45683748D01*
X113751000Y-45669605D01*
X112950392Y-46470213D01*
X108045000Y-46470213D01*
X108045000Y-45282302D01*
X112341856Y-45282302D01*
X112369638Y-45837368D01*
X112528603Y-46221143D01*
X112770787Y-46290608D01*
X113571395Y-45490000D01*
X112770787Y-44689392D01*
X112528603Y-44758857D01*
X112341856Y-45282302D01*
X108045000Y-45282302D01*
X108045000Y-44509787D01*
X112950392Y-44509787D01*
X113751000Y-45310395D01*
X114551608Y-44509787D01*
X114482143Y-44267603D01*
X113958698Y-44080856D01*
X113403632Y-44108638D01*
X113019857Y-44267603D01*
X112950392Y-44509787D01*
X108045000Y-44509787D01*
X108045000Y-40132119D01*
X114894000Y-40132119D01*
X114894000Y-40687881D01*
X115106680Y-41201337D01*
X115499663Y-41594320D01*
X115706513Y-41680000D01*
X115499663Y-41765680D01*
X115106680Y-42158663D01*
X114894000Y-42672119D01*
X114894000Y-43227881D01*
X115106680Y-43741337D01*
X115499663Y-44134320D01*
X116013119Y-44347000D01*
X116568881Y-44347000D01*
X117082337Y-44134320D01*
X117475320Y-43741337D01*
X117688000Y-43227881D01*
X117688000Y-42672119D01*
X117475320Y-42158663D01*
X117082337Y-41765680D01*
X116875487Y-41680000D01*
X117082337Y-41594320D01*
X117475320Y-41201337D01*
X117477039Y-41197185D01*
X121949000Y-41197185D01*
X121949000Y-42142815D01*
X122310877Y-43016462D01*
X122979538Y-43685123D01*
X123853185Y-44047000D01*
X124798815Y-44047000D01*
X125672462Y-43685123D01*
X126173615Y-43183970D01*
X130491635Y-43183970D01*
X130651418Y-43502739D01*
X131442187Y-43812723D01*
X132291387Y-43796497D01*
X133000582Y-43502739D01*
X133160365Y-43183970D01*
X131826000Y-41849605D01*
X130491635Y-43183970D01*
X126173615Y-43183970D01*
X126341123Y-43016462D01*
X126703000Y-42142815D01*
X126703000Y-41286187D01*
X129683277Y-41286187D01*
X129699503Y-42135387D01*
X129993261Y-42844582D01*
X130312030Y-43004365D01*
X131646395Y-41670000D01*
X132005605Y-41670000D01*
X133339970Y-43004365D01*
X133658739Y-42844582D01*
X133968723Y-42053813D01*
X133952497Y-41204613D01*
X133658739Y-40495418D01*
X133339970Y-40335635D01*
X132005605Y-41670000D01*
X131646395Y-41670000D01*
X130312030Y-40335635D01*
X129993261Y-40495418D01*
X129683277Y-41286187D01*
X126703000Y-41286187D01*
X126703000Y-41197185D01*
X126341123Y-40323538D01*
X126173615Y-40156030D01*
X130491635Y-40156030D01*
X131826000Y-41490395D01*
X133160365Y-40156030D01*
X133000582Y-39837261D01*
X132209813Y-39527277D01*
X131360613Y-39543503D01*
X130651418Y-39837261D01*
X130491635Y-40156030D01*
X126173615Y-40156030D01*
X125672462Y-39654877D01*
X124798815Y-39293000D01*
X123853185Y-39293000D01*
X122979538Y-39654877D01*
X122310877Y-40323538D01*
X121949000Y-41197185D01*
X117477039Y-41197185D01*
X117688000Y-40687881D01*
X117688000Y-40132119D01*
X117475320Y-39618663D01*
X117082337Y-39225680D01*
X116891353Y-39146572D01*
X117022143Y-39092397D01*
X117091608Y-38850213D01*
X116291000Y-38049605D01*
X115490392Y-38850213D01*
X115559857Y-39092397D01*
X115700393Y-39142535D01*
X115499663Y-39225680D01*
X115106680Y-39618663D01*
X114894000Y-40132119D01*
X108045000Y-40132119D01*
X108045000Y-37662302D01*
X114881856Y-37662302D01*
X114909638Y-38217368D01*
X115068603Y-38601143D01*
X115310787Y-38670608D01*
X116111395Y-37870000D01*
X116470605Y-37870000D01*
X117271213Y-38670608D01*
X117513397Y-38601143D01*
X117700144Y-38077698D01*
X117672362Y-37522632D01*
X117513397Y-37138857D01*
X117271213Y-37069392D01*
X116470605Y-37870000D01*
X116111395Y-37870000D01*
X115310787Y-37069392D01*
X115068603Y-37138857D01*
X114881856Y-37662302D01*
X108045000Y-37662302D01*
X108045000Y-36310213D01*
X115490392Y-36310213D01*
X115559857Y-36552397D01*
X115683344Y-36596453D01*
X115559857Y-36647603D01*
X115490392Y-36889787D01*
X116291000Y-37690395D01*
X117091608Y-36889787D01*
X117022143Y-36647603D01*
X116898656Y-36603547D01*
X117022143Y-36552397D01*
X117091608Y-36310213D01*
X116291000Y-35509605D01*
X115490392Y-36310213D01*
X108045000Y-36310213D01*
X108045000Y-35122302D01*
X114881856Y-35122302D01*
X114909638Y-35677368D01*
X115068603Y-36061143D01*
X115310787Y-36130608D01*
X116111395Y-35330000D01*
X116470605Y-35330000D01*
X117271213Y-36130608D01*
X117513397Y-36061143D01*
X117700144Y-35537698D01*
X117672362Y-34982632D01*
X117513397Y-34598857D01*
X117271213Y-34529392D01*
X116470605Y-35330000D01*
X116111395Y-35330000D01*
X115310787Y-34529392D01*
X115068603Y-34598857D01*
X114881856Y-35122302D01*
X108045000Y-35122302D01*
X108045000Y-32512119D01*
X114894000Y-32512119D01*
X114894000Y-33067881D01*
X115106680Y-33581337D01*
X115499663Y-33974320D01*
X115690647Y-34053428D01*
X115559857Y-34107603D01*
X115490392Y-34349787D01*
X116291000Y-35150395D01*
X117091608Y-34349787D01*
X117022143Y-34107603D01*
X116881607Y-34057465D01*
X117082337Y-33974320D01*
X117475320Y-33581337D01*
X117688000Y-33067881D01*
X117688000Y-32512119D01*
X117475320Y-31998663D01*
X117082337Y-31605680D01*
X116568881Y-31393000D01*
X116013119Y-31393000D01*
X115499663Y-31605680D01*
X115106680Y-31998663D01*
X114894000Y-32512119D01*
X108045000Y-32512119D01*
X108045000Y-32509432D01*
X109324219Y-31230213D01*
X112950392Y-31230213D01*
X113019857Y-31472397D01*
X113543302Y-31659144D01*
X114098368Y-31631362D01*
X114482143Y-31472397D01*
X114551608Y-31230213D01*
X113751000Y-30429605D01*
X112950392Y-31230213D01*
X109324219Y-31230213D01*
X110512130Y-30042302D01*
X112341856Y-30042302D01*
X112369638Y-30597368D01*
X112528603Y-30981143D01*
X112770787Y-31050608D01*
X113571395Y-30250000D01*
X112770787Y-29449392D01*
X112528603Y-29518857D01*
X112341856Y-30042302D01*
X110512130Y-30042302D01*
X112406960Y-28147472D01*
X112528603Y-28441143D01*
X112770787Y-28510608D01*
X113571395Y-27710000D01*
X113557253Y-27695858D01*
X113736858Y-27516253D01*
X113751000Y-27530395D01*
X113765143Y-27516253D01*
X113944748Y-27695858D01*
X113930605Y-27710000D01*
X113944748Y-27724143D01*
X113765143Y-27903748D01*
X113751000Y-27889605D01*
X112950392Y-28690213D01*
X113019857Y-28932397D01*
X113143344Y-28976453D01*
X113019857Y-29027603D01*
X112950392Y-29269787D01*
X113751000Y-30070395D01*
X113765143Y-30056253D01*
X113944748Y-30235858D01*
X113930605Y-30250000D01*
X114731213Y-31050608D01*
X114973397Y-30981143D01*
X115010714Y-30876545D01*
X115039581Y-30930884D01*
X115882096Y-31264723D01*
X116788232Y-31250734D01*
X117560419Y-30930884D01*
X117737653Y-30597259D01*
X116300000Y-29159605D01*
X116285858Y-29173748D01*
X116106252Y-28994142D01*
X116120395Y-28980000D01*
X116479605Y-28980000D01*
X117917259Y-30417653D01*
X118250884Y-30240419D01*
X118584723Y-29397904D01*
X118570734Y-28491768D01*
X118443241Y-28183970D01*
X122991635Y-28183970D01*
X123151418Y-28502739D01*
X123942187Y-28812723D01*
X124791387Y-28796497D01*
X125500582Y-28502739D01*
X125660365Y-28183970D01*
X124326000Y-26849605D01*
X122991635Y-28183970D01*
X118443241Y-28183970D01*
X118250884Y-27719581D01*
X117917259Y-27542347D01*
X116479605Y-28980000D01*
X116120395Y-28980000D01*
X116106252Y-28965858D01*
X116285858Y-28786252D01*
X116300000Y-28800395D01*
X117737653Y-27362741D01*
X117560419Y-27029116D01*
X116717904Y-26695277D01*
X115811768Y-26709266D01*
X115039581Y-27029116D01*
X115014090Y-27077099D01*
X114973397Y-26978857D01*
X114731215Y-26909393D01*
X114846226Y-26794382D01*
X114824545Y-26772701D01*
X115284481Y-26465381D01*
X115419708Y-26262999D01*
X115798741Y-26420000D01*
X116801259Y-26420000D01*
X117124312Y-26286187D01*
X122183277Y-26286187D01*
X122199503Y-27135387D01*
X122493261Y-27844582D01*
X122812030Y-28004365D01*
X124146395Y-26670000D01*
X124505605Y-26670000D01*
X125839970Y-28004365D01*
X126158739Y-27844582D01*
X126468723Y-27053813D01*
X126452497Y-26204613D01*
X126158739Y-25495418D01*
X125839970Y-25335635D01*
X124505605Y-26670000D01*
X124146395Y-26670000D01*
X122812030Y-25335635D01*
X122493261Y-25495418D01*
X122183277Y-26286187D01*
X117124312Y-26286187D01*
X117727465Y-26036353D01*
X118436353Y-25327465D01*
X118507363Y-25156030D01*
X122991635Y-25156030D01*
X124326000Y-26490395D01*
X125660365Y-25156030D01*
X125500582Y-24837261D01*
X124709813Y-24527277D01*
X123860613Y-24543503D01*
X123151418Y-24837261D01*
X122991635Y-25156030D01*
X118507363Y-25156030D01*
X118820000Y-24401259D01*
X118820000Y-23398741D01*
X118436353Y-22472535D01*
X117727465Y-21763647D01*
X116801259Y-21380000D01*
X115798741Y-21380000D01*
X115105886Y-21666990D01*
X115023727Y-21584831D01*
X114932580Y-21448420D01*
X114796169Y-21357273D01*
X114679419Y-21240523D01*
X114526880Y-21177339D01*
X114390467Y-21086191D01*
X114229556Y-21054184D01*
X114077017Y-20991000D01*
X113911910Y-20991000D01*
X113751000Y-20958993D01*
X113590090Y-20991000D01*
X113424983Y-20991000D01*
X113272443Y-21054184D01*
X113111534Y-21086191D01*
X112975123Y-21177338D01*
X112822581Y-21240523D01*
X112705829Y-21357275D01*
X112569421Y-21448420D01*
X112478276Y-21584828D01*
X112361523Y-21701581D01*
X112298337Y-21854124D01*
X112207192Y-21990533D01*
X112175185Y-22151441D01*
X112112000Y-22303983D01*
X112112000Y-22524439D01*
X111850964Y-22915107D01*
X111784586Y-22928310D01*
X111784584Y-22928311D01*
X111784585Y-22928311D01*
X111258614Y-23279753D01*
X111258612Y-23279755D01*
X111081019Y-23398419D01*
X110962355Y-23576012D01*
X104562115Y-29976253D01*
X104384519Y-30094919D01*
X103914410Y-30798487D01*
X103791000Y-31418912D01*
X103791000Y-31418916D01*
X103749331Y-31628400D01*
X103791000Y-31837884D01*
X103791001Y-61970798D01*
X103584717Y-62279523D01*
X103392473Y-63246000D01*
X82475606Y-63246000D01*
X63627000Y-44397394D01*
X63627000Y-39710634D01*
X65235000Y-39710634D01*
X65235000Y-40680365D01*
X65343905Y-41227868D01*
X65758759Y-41848741D01*
X66379631Y-42263595D01*
X67112000Y-42409272D01*
X67844368Y-42263595D01*
X68465241Y-41848741D01*
X68880095Y-41227869D01*
X68977000Y-40740694D01*
X68977000Y-41621810D01*
X69073673Y-41855199D01*
X69252302Y-42033827D01*
X69485691Y-42130500D01*
X70326250Y-42130500D01*
X70485000Y-41971750D01*
X70485000Y-40322500D01*
X70739000Y-40322500D01*
X70739000Y-41971750D01*
X70897750Y-42130500D01*
X71738309Y-42130500D01*
X71971698Y-42033827D01*
X72150327Y-41855199D01*
X72247000Y-41621810D01*
X72247000Y-40481250D01*
X72088250Y-40322500D01*
X70739000Y-40322500D01*
X70485000Y-40322500D01*
X70465000Y-40322500D01*
X70465000Y-40068500D01*
X70485000Y-40068500D01*
X70485000Y-38419250D01*
X70739000Y-38419250D01*
X70739000Y-40068500D01*
X72088250Y-40068500D01*
X72247000Y-39909750D01*
X72247000Y-38769190D01*
X72150327Y-38535801D01*
X71971698Y-38357173D01*
X71738309Y-38260500D01*
X70897750Y-38260500D01*
X70739000Y-38419250D01*
X70485000Y-38419250D01*
X70326250Y-38260500D01*
X69485691Y-38260500D01*
X69252302Y-38357173D01*
X69073673Y-38535801D01*
X68977000Y-38769190D01*
X68977000Y-39650307D01*
X68880095Y-39163131D01*
X68465241Y-38542259D01*
X67844369Y-38127405D01*
X67112000Y-37981728D01*
X66379632Y-38127405D01*
X65758760Y-38542259D01*
X65343905Y-39163131D01*
X65235000Y-39710634D01*
X63627000Y-39710634D01*
X63627000Y-19763622D01*
X121246825Y-19763622D01*
X121461466Y-20281832D01*
X121923608Y-20776512D01*
X122539877Y-21056683D01*
X122809000Y-20939104D01*
X122809000Y-19494500D01*
X123063000Y-19494500D01*
X123063000Y-20939104D01*
X123332123Y-21056683D01*
X123948392Y-20776512D01*
X124410534Y-20281832D01*
X124625175Y-19763622D01*
X124507125Y-19494500D01*
X123063000Y-19494500D01*
X122809000Y-19494500D01*
X121364875Y-19494500D01*
X121246825Y-19763622D01*
X63627000Y-19763622D01*
X63627000Y-18971378D01*
X121246825Y-18971378D01*
X121364875Y-19240500D01*
X122809000Y-19240500D01*
X122809000Y-17795896D01*
X123063000Y-17795896D01*
X123063000Y-19240500D01*
X124507125Y-19240500D01*
X124625175Y-18971378D01*
X124410534Y-18453168D01*
X123948392Y-17958488D01*
X123332123Y-17678317D01*
X123063000Y-17795896D01*
X122809000Y-17795896D01*
X122539877Y-17678317D01*
X121923608Y-17958488D01*
X121461466Y-18453168D01*
X121246825Y-18971378D01*
X63627000Y-18971378D01*
X63627000Y-13410000D01*
X191707881Y-13410000D01*
X191957787Y-13454065D01*
G04 #@! TD*
M02*
