M48
;DRILL file {KiCad (5.0.2)-1} date 14.01.2020 22:43:00
;FORMAT={-:-/ absolute / inch / decimal}
FMAT,2
INCH,TZ
T1C0.0197
T2C0.0236
T3C0.0472
T4C0.0630
T5C0.1378
T6C0.1693
%
G90
G05
T1
X3.9683Y-2.7795
X3.9986Y-2.7065
X3.9986Y-2.8526
X4.0717Y-2.6762
X4.0717Y-2.8829
X4.1447Y-2.7065
X4.1447Y-2.8526
X4.175Y-2.7795
X3.9683Y-5.1417
X3.9986Y-5.0687
X3.9986Y-5.2148
X4.0717Y-5.0384
X4.0717Y-5.2451
X4.1447Y-5.0687
X4.1447Y-5.2148
X4.175Y-5.1417
T2
X5.628Y-6.7472
X5.6651Y-6.6575
X5.6651Y-6.837
X5.7549Y-6.6203
X5.7549Y-6.8742
X5.8447Y-6.6575
X5.8447Y-6.837
X5.8819Y-6.7472
X0.936Y-7.4803
X0.9732Y-7.3905
X0.9732Y-7.5701
X1.063Y-7.3533
X1.063Y-7.6073
X1.1528Y-7.3905
X1.1528Y-7.5701
X1.19Y-7.4803
X3.6988Y-6.7472
X3.736Y-6.6575
X3.736Y-6.837
X3.8258Y-6.6203
X3.8258Y-6.8742
X3.9156Y-6.6575
X3.9156Y-6.837
X3.9528Y-6.7472
X5.628Y-4.4638
X5.6651Y-4.374
X5.6651Y-4.5536
X5.7549Y-4.3368
X5.7549Y-4.5907
X5.8447Y-4.374
X5.8447Y-4.5536
X5.8819Y-4.4638
X1.1398Y-6.7472
X1.177Y-6.6575
X1.177Y-6.837
X1.2667Y-6.6203
X1.2667Y-6.8742
X1.3565Y-6.6575
X1.3565Y-6.837
X1.3937Y-6.7472
X7.0384Y-6.3386
X7.0756Y-6.2488
X7.0756Y-6.4284
X7.1654Y-6.2116
X7.1654Y-6.4656
X7.2551Y-6.2488
X7.2551Y-6.4284
X7.2923Y-6.3386
X6.8091Y-5.8024
X6.8462Y-5.7126
X6.8462Y-5.8921
X6.936Y-5.6754
X6.936Y-5.9293
X7.0258Y-5.7126
X7.0258Y-5.8921
X7.063Y-5.8024
X3.0689Y-4.4638
X3.1061Y-4.374
X3.1061Y-4.5536
X3.1959Y-4.3368
X3.1959Y-4.5907
X3.2856Y-4.374
X3.2856Y-4.5536
X3.3228Y-4.4638
X3.7098Y-4.4638
X3.747Y-4.374
X3.747Y-4.5536
X3.8368Y-4.3368
X3.8368Y-4.5907
X3.9266Y-4.374
X3.9266Y-4.5536
X3.9638Y-4.4638
X7.0384Y-7.4803
X7.0756Y-7.3905
X7.0756Y-7.5701
X7.1654Y-7.3533
X7.1654Y-7.6073
X7.2551Y-7.3905
X7.2551Y-7.5701
X7.2923Y-7.4803
X3.0689Y-6.7472
X3.1061Y-6.6575
X3.1061Y-6.837
X3.1959Y-6.6203
X3.1959Y-6.8742
X3.2856Y-6.6575
X3.2856Y-6.837
X3.3228Y-6.7472
X1.1398Y-4.4638
X1.177Y-4.374
X1.177Y-4.5536
X1.2667Y-4.3368
X1.2667Y-4.5907
X1.3565Y-4.374
X1.3565Y-4.5536
X1.3937Y-4.4638
T3
X1.75Y-3.75
X1.75Y-3.9469
X1.9469Y-3.8484
X1.9469Y-4.0453
X7.0047Y-1.3469
X7.1031Y-1.15
X7.2016Y-1.3469
X7.3Y-1.15
X4.6031Y-3.6912
X4.6031Y-3.8881
X4.8Y-3.7896
X4.8Y-3.9865
X4.Y-3.75
X4.Y-3.9469
X4.1969Y-3.8484
X4.1969Y-4.0453
X6.9031Y-2.25
X7.1Y-2.25
X4.8531Y-1.3
X5.05Y-1.3
X3.2031Y-2.2
X3.4Y-2.2
X6.0047Y-1.3469
X6.1031Y-1.15
X6.2016Y-1.3469
X6.3Y-1.15
X2.65Y-0.9
X2.65Y-2.5
X1.05Y-1.2
X1.05Y-1.3969
X6.5047Y-1.3485
X6.6031Y-1.1517
X6.7016Y-1.3485
X6.8Y-1.1517
X1.05Y-3.
X1.05Y-3.1969
X4.8531Y-2.15
X5.05Y-2.15
X3.2031Y-1.3
X3.4Y-1.3
X1.95Y-1.2
X1.95Y-1.3969
X1.05Y-2.1
X1.05Y-2.2969
X6.9031Y-3.1
X7.1Y-3.1
X5.65Y-3.75
X7.25Y-3.75
X2.3531Y-3.6907
X2.3531Y-3.8876
X2.55Y-3.7891
X2.55Y-3.986
X1.95Y-2.1
X1.95Y-2.2969
X5.6Y-0.9
X5.6Y-2.5
X3.95Y-0.9
X3.95Y-2.5
X1.95Y-3.
X1.95Y-3.1969
T4
X5.9Y-3.35
X6.5Y-3.35
X4.35Y-1.7
X4.35Y-2.3
X2.95Y-2.8
X2.95Y-3.4
X2.65Y-2.8
X2.65Y-3.4
X5.95Y-1.95
X6.55Y-1.95
X3.25Y-2.8
X3.25Y-3.4
X4.35Y-0.9
X4.35Y-1.5
X5.95Y-2.2
X5.95Y-2.8
X5.65Y-2.8
X5.65Y-3.4
X4.35Y-2.7
X4.95Y-2.7
X5.9Y-3.05
X6.5Y-3.05
X6.25Y-2.2
X6.25Y-2.8
T5
X4.0717Y-2.7795
X4.0717Y-5.1417
T6
X7.1654Y-7.4803
X3.1959Y-6.7472
X1.2667Y-4.4638
X5.7549Y-6.7472
X1.063Y-7.4803
X3.8258Y-6.7472
X5.7549Y-4.4638
X1.2667Y-6.7472
X7.1654Y-6.3386
X6.936Y-5.8024
X3.1959Y-4.4638
X3.8368Y-4.4638
T0
M30
