G04 #@! TF.GenerationSoftware,KiCad,Pcbnew,(5.0.2)-1*
G04 #@! TF.CreationDate,2020-01-14T22:42:55+01:00*
G04 #@! TF.ProjectId,WW-Board-Master V2,57572d42-6f61-4726-942d-4d6173746572,rev?*
G04 #@! TF.SameCoordinates,Original*
G04 #@! TF.FileFunction,Soldermask,Top*
G04 #@! TF.FilePolarity,Negative*
%FSLAX46Y46*%
G04 Gerber Fmt 4.6, Leading zero omitted, Abs format (unit mm)*
G04 Created by KiCad (PCBNEW (5.0.2)-1) date 14.01.2020 22:42:55*
%MOMM*%
%LPD*%
G01*
G04 APERTURE LIST*
%ADD10C,0.100000*%
G04 APERTURE END LIST*
D10*
G36*
X182548156Y-185672794D02*
X183269140Y-185816206D01*
X184060972Y-186144193D01*
X184773601Y-186620357D01*
X185379643Y-187226399D01*
X185855807Y-187939028D01*
X186183794Y-188730860D01*
X186351000Y-189571464D01*
X186351000Y-190428536D01*
X186183794Y-191269140D01*
X185855807Y-192060972D01*
X185379643Y-192773601D01*
X184773601Y-193379643D01*
X184060972Y-193855807D01*
X183269140Y-194183794D01*
X182548156Y-194327206D01*
X182428537Y-194351000D01*
X181571463Y-194351000D01*
X181451844Y-194327206D01*
X180730860Y-194183794D01*
X179939028Y-193855807D01*
X179226399Y-193379643D01*
X178620357Y-192773601D01*
X178144193Y-192060972D01*
X177816206Y-191269140D01*
X177649000Y-190428536D01*
X177649000Y-189571464D01*
X177816206Y-188730860D01*
X178144193Y-187939028D01*
X178620357Y-187226399D01*
X179226399Y-186620357D01*
X179939028Y-186144193D01*
X180730860Y-185816206D01*
X181451844Y-185672794D01*
X181571463Y-185649000D01*
X182428537Y-185649000D01*
X182548156Y-185672794D01*
X182548156Y-185672794D01*
G37*
G36*
X27548156Y-185672794D02*
X28269140Y-185816206D01*
X29060972Y-186144193D01*
X29773601Y-186620357D01*
X30379643Y-187226399D01*
X30855807Y-187939028D01*
X31183794Y-188730860D01*
X31351000Y-189571464D01*
X31351000Y-190428536D01*
X31183794Y-191269140D01*
X30855807Y-192060972D01*
X30379643Y-192773601D01*
X29773601Y-193379643D01*
X29060972Y-193855807D01*
X28269140Y-194183794D01*
X27548156Y-194327206D01*
X27428537Y-194351000D01*
X26571463Y-194351000D01*
X26451844Y-194327206D01*
X25730860Y-194183794D01*
X24939028Y-193855807D01*
X24226399Y-193379643D01*
X23620357Y-192773601D01*
X23144193Y-192060972D01*
X22816206Y-191269140D01*
X22649000Y-190428536D01*
X22649000Y-189571464D01*
X22816206Y-188730860D01*
X23144193Y-187939028D01*
X23620357Y-187226399D01*
X24226399Y-186620357D01*
X24939028Y-186144193D01*
X25730860Y-185816206D01*
X26451844Y-185672794D01*
X26571463Y-185649000D01*
X27428537Y-185649000D01*
X27548156Y-185672794D01*
X27548156Y-185672794D01*
G37*
G36*
X81723156Y-167052794D02*
X82444140Y-167196206D01*
X83235972Y-167524193D01*
X83948601Y-168000357D01*
X84554643Y-168606399D01*
X85030807Y-169319028D01*
X85358794Y-170110860D01*
X85526000Y-170951464D01*
X85526000Y-171808536D01*
X85358794Y-172649140D01*
X85030807Y-173440972D01*
X84554643Y-174153601D01*
X83948601Y-174759643D01*
X83235972Y-175235807D01*
X82444140Y-175563794D01*
X81723156Y-175707206D01*
X81603537Y-175731000D01*
X80746463Y-175731000D01*
X80626844Y-175707206D01*
X79905860Y-175563794D01*
X79114028Y-175235807D01*
X78401399Y-174759643D01*
X77795357Y-174153601D01*
X77319193Y-173440972D01*
X76991206Y-172649140D01*
X76824000Y-171808536D01*
X76824000Y-170951464D01*
X76991206Y-170110860D01*
X77319193Y-169319028D01*
X77795357Y-168606399D01*
X78401399Y-168000357D01*
X79114028Y-167524193D01*
X79905860Y-167196206D01*
X80626844Y-167052794D01*
X80746463Y-167029000D01*
X81603537Y-167029000D01*
X81723156Y-167052794D01*
X81723156Y-167052794D01*
G37*
G36*
X97723156Y-167052794D02*
X98444140Y-167196206D01*
X99235972Y-167524193D01*
X99948601Y-168000357D01*
X100554643Y-168606399D01*
X101030807Y-169319028D01*
X101358794Y-170110860D01*
X101526000Y-170951464D01*
X101526000Y-171808536D01*
X101358794Y-172649140D01*
X101030807Y-173440972D01*
X100554643Y-174153601D01*
X99948601Y-174759643D01*
X99235972Y-175235807D01*
X98444140Y-175563794D01*
X97723156Y-175707206D01*
X97603537Y-175731000D01*
X96746463Y-175731000D01*
X96626844Y-175707206D01*
X95905860Y-175563794D01*
X95114028Y-175235807D01*
X94401399Y-174759643D01*
X93795357Y-174153601D01*
X93319193Y-173440972D01*
X92991206Y-172649140D01*
X92824000Y-171808536D01*
X92824000Y-170951464D01*
X92991206Y-170110860D01*
X93319193Y-169319028D01*
X93795357Y-168606399D01*
X94401399Y-168000357D01*
X95114028Y-167524193D01*
X95905860Y-167196206D01*
X96626844Y-167052794D01*
X96746463Y-167029000D01*
X97603537Y-167029000D01*
X97723156Y-167052794D01*
X97723156Y-167052794D01*
G37*
G36*
X32723156Y-167052794D02*
X33444140Y-167196206D01*
X34235972Y-167524193D01*
X34948601Y-168000357D01*
X35554643Y-168606399D01*
X36030807Y-169319028D01*
X36358794Y-170110860D01*
X36526000Y-170951464D01*
X36526000Y-171808536D01*
X36358794Y-172649140D01*
X36030807Y-173440972D01*
X35554643Y-174153601D01*
X34948601Y-174759643D01*
X34235972Y-175235807D01*
X33444140Y-175563794D01*
X32723156Y-175707206D01*
X32603537Y-175731000D01*
X31746463Y-175731000D01*
X31626844Y-175707206D01*
X30905860Y-175563794D01*
X30114028Y-175235807D01*
X29401399Y-174759643D01*
X28795357Y-174153601D01*
X28319193Y-173440972D01*
X27991206Y-172649140D01*
X27824000Y-171808536D01*
X27824000Y-170951464D01*
X27991206Y-170110860D01*
X28319193Y-169319028D01*
X28795357Y-168606399D01*
X29401399Y-168000357D01*
X30114028Y-167524193D01*
X30905860Y-167196206D01*
X31626844Y-167052794D01*
X31746463Y-167029000D01*
X32603537Y-167029000D01*
X32723156Y-167052794D01*
X32723156Y-167052794D01*
G37*
G36*
X146723156Y-167052794D02*
X147444140Y-167196206D01*
X148235972Y-167524193D01*
X148948601Y-168000357D01*
X149554643Y-168606399D01*
X150030807Y-169319028D01*
X150358794Y-170110860D01*
X150526000Y-170951464D01*
X150526000Y-171808536D01*
X150358794Y-172649140D01*
X150030807Y-173440972D01*
X149554643Y-174153601D01*
X148948601Y-174759643D01*
X148235972Y-175235807D01*
X147444140Y-175563794D01*
X146723156Y-175707206D01*
X146603537Y-175731000D01*
X145746463Y-175731000D01*
X145626844Y-175707206D01*
X144905860Y-175563794D01*
X144114028Y-175235807D01*
X143401399Y-174759643D01*
X142795357Y-174153601D01*
X142319193Y-173440972D01*
X141991206Y-172649140D01*
X141824000Y-171808536D01*
X141824000Y-170951464D01*
X141991206Y-170110860D01*
X142319193Y-169319028D01*
X142795357Y-168606399D01*
X143401399Y-168000357D01*
X144114028Y-167524193D01*
X144905860Y-167196206D01*
X145626844Y-167052794D01*
X145746463Y-167029000D01*
X146603537Y-167029000D01*
X146723156Y-167052794D01*
X146723156Y-167052794D01*
G37*
G36*
X182548156Y-156672794D02*
X183269140Y-156816206D01*
X184060972Y-157144193D01*
X184773601Y-157620357D01*
X185379643Y-158226399D01*
X185855807Y-158939028D01*
X186183794Y-159730860D01*
X186351000Y-160571464D01*
X186351000Y-161428536D01*
X186183794Y-162269140D01*
X185855807Y-163060972D01*
X185379643Y-163773601D01*
X184773601Y-164379643D01*
X184060972Y-164855807D01*
X183269140Y-165183794D01*
X182548156Y-165327206D01*
X182428537Y-165351000D01*
X181571463Y-165351000D01*
X181451844Y-165327206D01*
X180730860Y-165183794D01*
X179939028Y-164855807D01*
X179226399Y-164379643D01*
X178620357Y-163773601D01*
X178144193Y-163060972D01*
X177816206Y-162269140D01*
X177649000Y-161428536D01*
X177649000Y-160571464D01*
X177816206Y-159730860D01*
X178144193Y-158939028D01*
X178620357Y-158226399D01*
X179226399Y-157620357D01*
X179939028Y-157144193D01*
X180730860Y-156816206D01*
X181451844Y-156672794D01*
X181571463Y-156649000D01*
X182428537Y-156649000D01*
X182548156Y-156672794D01*
X182548156Y-156672794D01*
G37*
G36*
X176723156Y-143052794D02*
X177444140Y-143196206D01*
X178235972Y-143524193D01*
X178948601Y-144000357D01*
X179554643Y-144606399D01*
X180030807Y-145319028D01*
X180358794Y-146110860D01*
X180526000Y-146951464D01*
X180526000Y-147808536D01*
X180358794Y-148649140D01*
X180030807Y-149440972D01*
X179554643Y-150153601D01*
X178948601Y-150759643D01*
X178235972Y-151235807D01*
X177444140Y-151563794D01*
X176723156Y-151707206D01*
X176603537Y-151731000D01*
X175746463Y-151731000D01*
X175626844Y-151707206D01*
X174905860Y-151563794D01*
X174114028Y-151235807D01*
X173401399Y-150759643D01*
X172795357Y-150153601D01*
X172319193Y-149440972D01*
X171991206Y-148649140D01*
X171824000Y-147808536D01*
X171824000Y-146951464D01*
X171991206Y-146110860D01*
X172319193Y-145319028D01*
X172795357Y-144606399D01*
X173401399Y-144000357D01*
X174114028Y-143524193D01*
X174905860Y-143196206D01*
X175626844Y-143052794D01*
X175746463Y-143029000D01*
X176603537Y-143029000D01*
X176723156Y-143052794D01*
X176723156Y-143052794D01*
G37*
G36*
X104455786Y-127185462D02*
X104455788Y-127185463D01*
X104455789Y-127185463D01*
X105102029Y-127453144D01*
X105563323Y-127761371D01*
X105683634Y-127841760D01*
X106178240Y-128336366D01*
X106178242Y-128336369D01*
X106566856Y-128917971D01*
X106834537Y-129564211D01*
X106834538Y-129564214D01*
X106971000Y-130250256D01*
X106971000Y-130949744D01*
X106954307Y-131033668D01*
X106834537Y-131635789D01*
X106566856Y-132282029D01*
X106226551Y-132791332D01*
X106178240Y-132863634D01*
X105683634Y-133358240D01*
X105683631Y-133358242D01*
X105102029Y-133746856D01*
X104455789Y-134014537D01*
X104455788Y-134014537D01*
X104455786Y-134014538D01*
X103769744Y-134151000D01*
X103070256Y-134151000D01*
X102384214Y-134014538D01*
X102384212Y-134014537D01*
X102384211Y-134014537D01*
X101737971Y-133746856D01*
X101156369Y-133358242D01*
X101156366Y-133358240D01*
X100661760Y-132863634D01*
X100613449Y-132791332D01*
X100273144Y-132282029D01*
X100005463Y-131635789D01*
X99885694Y-131033668D01*
X99869000Y-130949744D01*
X99869000Y-130250256D01*
X100005462Y-129564214D01*
X100005463Y-129564211D01*
X100273144Y-128917971D01*
X100661758Y-128336369D01*
X100661760Y-128336366D01*
X101156366Y-127841760D01*
X101276677Y-127761371D01*
X101737971Y-127453144D01*
X102384211Y-127185463D01*
X102384212Y-127185463D01*
X102384214Y-127185462D01*
X103070256Y-127049000D01*
X103769744Y-127049000D01*
X104455786Y-127185462D01*
X104455786Y-127185462D01*
G37*
G36*
X81723156Y-109052794D02*
X82444140Y-109196206D01*
X83235972Y-109524193D01*
X83948601Y-110000357D01*
X84554643Y-110606399D01*
X85030807Y-111319028D01*
X85358794Y-112110860D01*
X85526000Y-112951464D01*
X85526000Y-113808536D01*
X85358794Y-114649140D01*
X85030807Y-115440972D01*
X84554643Y-116153601D01*
X83948601Y-116759643D01*
X83235972Y-117235807D01*
X82444140Y-117563794D01*
X81723156Y-117707206D01*
X81603537Y-117731000D01*
X80746463Y-117731000D01*
X80626844Y-117707206D01*
X79905860Y-117563794D01*
X79114028Y-117235807D01*
X78401399Y-116759643D01*
X77795357Y-116153601D01*
X77319193Y-115440972D01*
X76991206Y-114649140D01*
X76824000Y-113808536D01*
X76824000Y-112951464D01*
X76991206Y-112110860D01*
X77319193Y-111319028D01*
X77795357Y-110606399D01*
X78401399Y-110000357D01*
X79114028Y-109524193D01*
X79905860Y-109196206D01*
X80626844Y-109052794D01*
X80746463Y-109029000D01*
X81603537Y-109029000D01*
X81723156Y-109052794D01*
X81723156Y-109052794D01*
G37*
G36*
X32723156Y-109052794D02*
X33444140Y-109196206D01*
X34235972Y-109524193D01*
X34948601Y-110000357D01*
X35554643Y-110606399D01*
X36030807Y-111319028D01*
X36358794Y-112110860D01*
X36526000Y-112951464D01*
X36526000Y-113808536D01*
X36358794Y-114649140D01*
X36030807Y-115440972D01*
X35554643Y-116153601D01*
X34948601Y-116759643D01*
X34235972Y-117235807D01*
X33444140Y-117563794D01*
X32723156Y-117707206D01*
X32603537Y-117731000D01*
X31746463Y-117731000D01*
X31626844Y-117707206D01*
X30905860Y-117563794D01*
X30114028Y-117235807D01*
X29401399Y-116759643D01*
X28795357Y-116153601D01*
X28319193Y-115440972D01*
X27991206Y-114649140D01*
X27824000Y-113808536D01*
X27824000Y-112951464D01*
X27991206Y-112110860D01*
X28319193Y-111319028D01*
X28795357Y-110606399D01*
X29401399Y-110000357D01*
X30114028Y-109524193D01*
X30905860Y-109196206D01*
X31626844Y-109052794D01*
X31746463Y-109029000D01*
X32603537Y-109029000D01*
X32723156Y-109052794D01*
X32723156Y-109052794D01*
G37*
G36*
X98003156Y-109052794D02*
X98724140Y-109196206D01*
X99515972Y-109524193D01*
X100228601Y-110000357D01*
X100834643Y-110606399D01*
X101310807Y-111319028D01*
X101638794Y-112110860D01*
X101806000Y-112951464D01*
X101806000Y-113808536D01*
X101638794Y-114649140D01*
X101310807Y-115440972D01*
X100834643Y-116153601D01*
X100228601Y-116759643D01*
X99515972Y-117235807D01*
X98724140Y-117563794D01*
X98003156Y-117707206D01*
X97883537Y-117731000D01*
X97026463Y-117731000D01*
X96906844Y-117707206D01*
X96185860Y-117563794D01*
X95394028Y-117235807D01*
X94681399Y-116759643D01*
X94075357Y-116153601D01*
X93599193Y-115440972D01*
X93271206Y-114649140D01*
X93104000Y-113808536D01*
X93104000Y-112951464D01*
X93271206Y-112110860D01*
X93599193Y-111319028D01*
X94075357Y-110606399D01*
X94681399Y-110000357D01*
X95394028Y-109524193D01*
X96185860Y-109196206D01*
X96906844Y-109052794D01*
X97026463Y-109029000D01*
X97883537Y-109029000D01*
X98003156Y-109052794D01*
X98003156Y-109052794D01*
G37*
G36*
X146723156Y-109052794D02*
X147444140Y-109196206D01*
X148235972Y-109524193D01*
X148948601Y-110000357D01*
X149554643Y-110606399D01*
X150030807Y-111319028D01*
X150358794Y-112110860D01*
X150526000Y-112951464D01*
X150526000Y-113808536D01*
X150358794Y-114649140D01*
X150030807Y-115440972D01*
X149554643Y-116153601D01*
X148948601Y-116759643D01*
X148235972Y-117235807D01*
X147444140Y-117563794D01*
X146723156Y-117707206D01*
X146603537Y-117731000D01*
X145746463Y-117731000D01*
X145626844Y-117707206D01*
X144905860Y-117563794D01*
X144114028Y-117235807D01*
X143401399Y-116759643D01*
X142795357Y-116153601D01*
X142319193Y-115440972D01*
X141991206Y-114649140D01*
X141824000Y-113808536D01*
X141824000Y-112951464D01*
X141991206Y-112110860D01*
X142319193Y-111319028D01*
X142795357Y-110606399D01*
X143401399Y-110000357D01*
X144114028Y-109524193D01*
X144905860Y-109196206D01*
X145626844Y-109052794D01*
X145746463Y-109029000D01*
X146603537Y-109029000D01*
X146723156Y-109052794D01*
X146723156Y-109052794D01*
G37*
G36*
X50032510Y-101702041D02*
X50156032Y-101714207D01*
X50354146Y-101774305D01*
X50536729Y-101871897D01*
X50696765Y-102003235D01*
X50828103Y-102163271D01*
X50925695Y-102345854D01*
X50985793Y-102543968D01*
X51006085Y-102750000D01*
X50985793Y-102956032D01*
X50925695Y-103154146D01*
X50828103Y-103336729D01*
X50696765Y-103496765D01*
X50536729Y-103628103D01*
X50354146Y-103725695D01*
X50156032Y-103785793D01*
X50032510Y-103797959D01*
X50001631Y-103801000D01*
X48898369Y-103801000D01*
X48867490Y-103797959D01*
X48743968Y-103785793D01*
X48545854Y-103725695D01*
X48363271Y-103628103D01*
X48203235Y-103496765D01*
X48071897Y-103336729D01*
X47974305Y-103154146D01*
X47914207Y-102956032D01*
X47893915Y-102750000D01*
X47914207Y-102543968D01*
X47974305Y-102345854D01*
X48071897Y-102163271D01*
X48203235Y-102003235D01*
X48363271Y-101871897D01*
X48545854Y-101774305D01*
X48743968Y-101714207D01*
X48867490Y-101702041D01*
X48898369Y-101699000D01*
X50001631Y-101699000D01*
X50032510Y-101702041D01*
X50032510Y-101702041D01*
G37*
G36*
X107182510Y-101702041D02*
X107306032Y-101714207D01*
X107504146Y-101774305D01*
X107686729Y-101871897D01*
X107846765Y-102003235D01*
X107978103Y-102163271D01*
X108075695Y-102345854D01*
X108135793Y-102543968D01*
X108156085Y-102750000D01*
X108135793Y-102956032D01*
X108075695Y-103154146D01*
X107978103Y-103336729D01*
X107846765Y-103496765D01*
X107686729Y-103628103D01*
X107504146Y-103725695D01*
X107306032Y-103785793D01*
X107182510Y-103797959D01*
X107151631Y-103801000D01*
X106048369Y-103801000D01*
X106017490Y-103797959D01*
X105893968Y-103785793D01*
X105695854Y-103725695D01*
X105513271Y-103628103D01*
X105353235Y-103496765D01*
X105221897Y-103336729D01*
X105124305Y-103154146D01*
X105064207Y-102956032D01*
X105043915Y-102750000D01*
X105064207Y-102543968D01*
X105124305Y-102345854D01*
X105221897Y-102163271D01*
X105353235Y-102003235D01*
X105513271Y-101871897D01*
X105695854Y-101774305D01*
X105893968Y-101714207D01*
X106017490Y-101702041D01*
X106048369Y-101699000D01*
X107151631Y-101699000D01*
X107182510Y-101702041D01*
X107182510Y-101702041D01*
G37*
G36*
X123471000Y-102308000D02*
X120369000Y-102308000D01*
X120369000Y-100206000D01*
X123471000Y-100206000D01*
X123471000Y-102308000D01*
X123471000Y-102308000D01*
G37*
G36*
X66321000Y-102295000D02*
X63219000Y-102295000D01*
X63219000Y-100193000D01*
X66321000Y-100193000D01*
X66321000Y-102295000D01*
X66321000Y-102295000D01*
G37*
G36*
X102182510Y-99202041D02*
X102306032Y-99214207D01*
X102504146Y-99274305D01*
X102686729Y-99371897D01*
X102846765Y-99503235D01*
X102978103Y-99663271D01*
X103075695Y-99845854D01*
X103135793Y-100043968D01*
X103156085Y-100250000D01*
X103135793Y-100456032D01*
X103075695Y-100654146D01*
X102978103Y-100836729D01*
X102846765Y-100996765D01*
X102686729Y-101128103D01*
X102504146Y-101225695D01*
X102306032Y-101285793D01*
X102182510Y-101297959D01*
X102151631Y-101301000D01*
X101048369Y-101301000D01*
X101017490Y-101297959D01*
X100893968Y-101285793D01*
X100695854Y-101225695D01*
X100513271Y-101128103D01*
X100353235Y-100996765D01*
X100221897Y-100836729D01*
X100124305Y-100654146D01*
X100064207Y-100456032D01*
X100043915Y-100250000D01*
X100064207Y-100043968D01*
X100124305Y-99845854D01*
X100221897Y-99663271D01*
X100353235Y-99503235D01*
X100513271Y-99371897D01*
X100695854Y-99274305D01*
X100893968Y-99214207D01*
X101017490Y-99202041D01*
X101048369Y-99199000D01*
X102151631Y-99199000D01*
X102182510Y-99202041D01*
X102182510Y-99202041D01*
G37*
G36*
X45032510Y-99202041D02*
X45156032Y-99214207D01*
X45354146Y-99274305D01*
X45536729Y-99371897D01*
X45696765Y-99503235D01*
X45828103Y-99663271D01*
X45925695Y-99845854D01*
X45985793Y-100043968D01*
X46006085Y-100250000D01*
X45985793Y-100456032D01*
X45925695Y-100654146D01*
X45828103Y-100836729D01*
X45696765Y-100996765D01*
X45536729Y-101128103D01*
X45354146Y-101225695D01*
X45156032Y-101285793D01*
X45032510Y-101297959D01*
X45001631Y-101301000D01*
X43898369Y-101301000D01*
X43867490Y-101297959D01*
X43743968Y-101285793D01*
X43545854Y-101225695D01*
X43363271Y-101128103D01*
X43203235Y-100996765D01*
X43071897Y-100836729D01*
X42974305Y-100654146D01*
X42914207Y-100456032D01*
X42893915Y-100250000D01*
X42914207Y-100043968D01*
X42974305Y-99845854D01*
X43071897Y-99663271D01*
X43203235Y-99503235D01*
X43363271Y-99371897D01*
X43545854Y-99274305D01*
X43743968Y-99214207D01*
X43867490Y-99202041D01*
X43898369Y-99199000D01*
X45001631Y-99199000D01*
X45032510Y-99202041D01*
X45032510Y-99202041D01*
G37*
G36*
X118471000Y-99808000D02*
X115369000Y-99808000D01*
X115369000Y-97706000D01*
X118471000Y-97706000D01*
X118471000Y-99808000D01*
X118471000Y-99808000D01*
G37*
G36*
X61321000Y-99795000D02*
X58219000Y-99795000D01*
X58219000Y-97693000D01*
X61321000Y-97693000D01*
X61321000Y-99795000D01*
X61321000Y-99795000D01*
G37*
G36*
X108151000Y-98801000D02*
X105049000Y-98801000D01*
X105049000Y-96699000D01*
X108151000Y-96699000D01*
X108151000Y-98801000D01*
X108151000Y-98801000D01*
G37*
G36*
X51001000Y-98801000D02*
X47899000Y-98801000D01*
X47899000Y-96699000D01*
X51001000Y-96699000D01*
X51001000Y-98801000D01*
X51001000Y-98801000D01*
G37*
G36*
X122502510Y-95209041D02*
X122626032Y-95221207D01*
X122824146Y-95281305D01*
X123006729Y-95378897D01*
X123166765Y-95510235D01*
X123298103Y-95670271D01*
X123395695Y-95852854D01*
X123455793Y-96050968D01*
X123476085Y-96257000D01*
X123455793Y-96463032D01*
X123395695Y-96661146D01*
X123298103Y-96843729D01*
X123166765Y-97003765D01*
X123006729Y-97135103D01*
X122824146Y-97232695D01*
X122626032Y-97292793D01*
X122502510Y-97304959D01*
X122471631Y-97308000D01*
X121368369Y-97308000D01*
X121337490Y-97304959D01*
X121213968Y-97292793D01*
X121015854Y-97232695D01*
X120833271Y-97135103D01*
X120673235Y-97003765D01*
X120541897Y-96843729D01*
X120444305Y-96661146D01*
X120384207Y-96463032D01*
X120363915Y-96257000D01*
X120384207Y-96050968D01*
X120444305Y-95852854D01*
X120541897Y-95670271D01*
X120673235Y-95510235D01*
X120833271Y-95378897D01*
X121015854Y-95281305D01*
X121213968Y-95221207D01*
X121337490Y-95209041D01*
X121368369Y-95206000D01*
X122471631Y-95206000D01*
X122502510Y-95209041D01*
X122502510Y-95209041D01*
G37*
G36*
X65352510Y-95196041D02*
X65476032Y-95208207D01*
X65674146Y-95268305D01*
X65856729Y-95365897D01*
X66016765Y-95497235D01*
X66148103Y-95657271D01*
X66245695Y-95839854D01*
X66305793Y-96037968D01*
X66326085Y-96244000D01*
X66305793Y-96450032D01*
X66245695Y-96648146D01*
X66148103Y-96830729D01*
X66016765Y-96990765D01*
X65856729Y-97122103D01*
X65674146Y-97219695D01*
X65476032Y-97279793D01*
X65352510Y-97291959D01*
X65321631Y-97295000D01*
X64218369Y-97295000D01*
X64187490Y-97291959D01*
X64063968Y-97279793D01*
X63865854Y-97219695D01*
X63683271Y-97122103D01*
X63523235Y-96990765D01*
X63391897Y-96830729D01*
X63294305Y-96648146D01*
X63234207Y-96450032D01*
X63213915Y-96244000D01*
X63234207Y-96037968D01*
X63294305Y-95839854D01*
X63391897Y-95657271D01*
X63523235Y-95497235D01*
X63683271Y-95365897D01*
X63865854Y-95268305D01*
X64063968Y-95208207D01*
X64187490Y-95196041D01*
X64218369Y-95193000D01*
X65321631Y-95193000D01*
X65352510Y-95196041D01*
X65352510Y-95196041D01*
G37*
G36*
X143693635Y-94011019D02*
X143874903Y-94047075D01*
X144102571Y-94141378D01*
X144197488Y-94204800D01*
X144307469Y-94278287D01*
X144481713Y-94452531D01*
X144481715Y-94452534D01*
X144618622Y-94657429D01*
X144712925Y-94885097D01*
X144736728Y-95004765D01*
X144761000Y-95126786D01*
X144761000Y-95373214D01*
X144759869Y-95378899D01*
X144712925Y-95614903D01*
X144618622Y-95842571D01*
X144547921Y-95948382D01*
X144481713Y-96047469D01*
X144307469Y-96221713D01*
X144307466Y-96221715D01*
X144102571Y-96358622D01*
X143874903Y-96452925D01*
X143724213Y-96482899D01*
X143633214Y-96501000D01*
X143386786Y-96501000D01*
X143295787Y-96482899D01*
X143145097Y-96452925D01*
X142917429Y-96358622D01*
X142712534Y-96221715D01*
X142712531Y-96221713D01*
X142538287Y-96047469D01*
X142472079Y-95948382D01*
X142401378Y-95842571D01*
X142307075Y-95614903D01*
X142260131Y-95378899D01*
X142259000Y-95373214D01*
X142259000Y-95126786D01*
X142283272Y-95004765D01*
X142307075Y-94885097D01*
X142401378Y-94657429D01*
X142538285Y-94452534D01*
X142538287Y-94452531D01*
X142712531Y-94278287D01*
X142822512Y-94204800D01*
X142917429Y-94141378D01*
X143145097Y-94047075D01*
X143326365Y-94011019D01*
X143386786Y-93999000D01*
X143633214Y-93999000D01*
X143693635Y-94011019D01*
X143693635Y-94011019D01*
G37*
G36*
X184395239Y-94017101D02*
X184631053Y-94088634D01*
X184848381Y-94204799D01*
X185038871Y-94361129D01*
X185195201Y-94551619D01*
X185311366Y-94768947D01*
X185382899Y-95004761D01*
X185407053Y-95250000D01*
X185382899Y-95495239D01*
X185311366Y-95731053D01*
X185195201Y-95948381D01*
X185038871Y-96138871D01*
X184848381Y-96295201D01*
X184631053Y-96411366D01*
X184395239Y-96482899D01*
X184211457Y-96501000D01*
X184088543Y-96501000D01*
X183904761Y-96482899D01*
X183668947Y-96411366D01*
X183451619Y-96295201D01*
X183261129Y-96138871D01*
X183104799Y-95948381D01*
X182988634Y-95731053D01*
X182917101Y-95495239D01*
X182892947Y-95250000D01*
X182917101Y-95004761D01*
X182988634Y-94768947D01*
X183104799Y-94551619D01*
X183261129Y-94361129D01*
X183451619Y-94204799D01*
X183668947Y-94088634D01*
X183904761Y-94017101D01*
X184088543Y-93999000D01*
X184211457Y-93999000D01*
X184395239Y-94017101D01*
X184395239Y-94017101D01*
G37*
G36*
X46001000Y-96301000D02*
X42899000Y-96301000D01*
X42899000Y-94199000D01*
X46001000Y-94199000D01*
X46001000Y-96301000D01*
X46001000Y-96301000D01*
G37*
G36*
X103151000Y-96301000D02*
X100049000Y-96301000D01*
X100049000Y-94199000D01*
X103151000Y-94199000D01*
X103151000Y-96301000D01*
X103151000Y-96301000D01*
G37*
G36*
X117502510Y-92709041D02*
X117626032Y-92721207D01*
X117824146Y-92781305D01*
X118006729Y-92878897D01*
X118166765Y-93010235D01*
X118298103Y-93170271D01*
X118395695Y-93352854D01*
X118455793Y-93550968D01*
X118476085Y-93757000D01*
X118455793Y-93963032D01*
X118395695Y-94161146D01*
X118298103Y-94343729D01*
X118166765Y-94503765D01*
X118006729Y-94635103D01*
X117824146Y-94732695D01*
X117626032Y-94792793D01*
X117502510Y-94804959D01*
X117471631Y-94808000D01*
X116368369Y-94808000D01*
X116337490Y-94804959D01*
X116213968Y-94792793D01*
X116015854Y-94732695D01*
X115833271Y-94635103D01*
X115673235Y-94503765D01*
X115541897Y-94343729D01*
X115444305Y-94161146D01*
X115384207Y-93963032D01*
X115363915Y-93757000D01*
X115384207Y-93550968D01*
X115444305Y-93352854D01*
X115541897Y-93170271D01*
X115673235Y-93010235D01*
X115833271Y-92878897D01*
X116015854Y-92781305D01*
X116213968Y-92721207D01*
X116337490Y-92709041D01*
X116368369Y-92706000D01*
X117471631Y-92706000D01*
X117502510Y-92709041D01*
X117502510Y-92709041D01*
G37*
G36*
X60352510Y-92696041D02*
X60476032Y-92708207D01*
X60674146Y-92768305D01*
X60856729Y-92865897D01*
X61016765Y-92997235D01*
X61148103Y-93157271D01*
X61245695Y-93339854D01*
X61305793Y-93537968D01*
X61326085Y-93744000D01*
X61305793Y-93950032D01*
X61245695Y-94148146D01*
X61148103Y-94330729D01*
X61016765Y-94490765D01*
X60856729Y-94622103D01*
X60674146Y-94719695D01*
X60476032Y-94779793D01*
X60352510Y-94791959D01*
X60321631Y-94795000D01*
X59218369Y-94795000D01*
X59187490Y-94791959D01*
X59063968Y-94779793D01*
X58865854Y-94719695D01*
X58683271Y-94622103D01*
X58523235Y-94490765D01*
X58391897Y-94330729D01*
X58294305Y-94148146D01*
X58234207Y-93950032D01*
X58213915Y-93744000D01*
X58234207Y-93537968D01*
X58294305Y-93339854D01*
X58391897Y-93157271D01*
X58523235Y-92997235D01*
X58683271Y-92865897D01*
X58865854Y-92768305D01*
X59063968Y-92708207D01*
X59187490Y-92696041D01*
X59218369Y-92693000D01*
X60321631Y-92693000D01*
X60352510Y-92696041D01*
X60352510Y-92696041D01*
G37*
G36*
X84201000Y-88011000D02*
X80899000Y-88011000D01*
X80899000Y-84709000D01*
X84201000Y-84709000D01*
X84201000Y-88011000D01*
X84201000Y-88011000D01*
G37*
G36*
X67633654Y-84732888D02*
X67944865Y-84827294D01*
X68231686Y-84980603D01*
X68483082Y-85186918D01*
X68689397Y-85438314D01*
X68842706Y-85725135D01*
X68937112Y-86036346D01*
X68968988Y-86360000D01*
X68937112Y-86683654D01*
X68842706Y-86994865D01*
X68689397Y-87281686D01*
X68483082Y-87533082D01*
X68231686Y-87739397D01*
X67944865Y-87892706D01*
X67633654Y-87987112D01*
X67391107Y-88011000D01*
X67228893Y-88011000D01*
X66986346Y-87987112D01*
X66675135Y-87892706D01*
X66388314Y-87739397D01*
X66136918Y-87533082D01*
X65930603Y-87281686D01*
X65777294Y-86994865D01*
X65682888Y-86683654D01*
X65651012Y-86360000D01*
X65682888Y-86036346D01*
X65777294Y-85725135D01*
X65930603Y-85438314D01*
X66136918Y-85186918D01*
X66388314Y-84980603D01*
X66675135Y-84827294D01*
X66986346Y-84732888D01*
X67228893Y-84709000D01*
X67391107Y-84709000D01*
X67633654Y-84732888D01*
X67633654Y-84732888D01*
G37*
G36*
X76581000Y-88011000D02*
X73279000Y-88011000D01*
X73279000Y-84709000D01*
X76581000Y-84709000D01*
X76581000Y-88011000D01*
X76581000Y-88011000D01*
G37*
G36*
X145161000Y-88011000D02*
X141859000Y-88011000D01*
X141859000Y-84709000D01*
X145161000Y-84709000D01*
X145161000Y-88011000D01*
X145161000Y-88011000D01*
G37*
G36*
X165423654Y-83462888D02*
X165734865Y-83557294D01*
X166021686Y-83710603D01*
X166273082Y-83916918D01*
X166479397Y-84168314D01*
X166632706Y-84455135D01*
X166727112Y-84766346D01*
X166758988Y-85090000D01*
X166727112Y-85413654D01*
X166632706Y-85724865D01*
X166479397Y-86011686D01*
X166273082Y-86263082D01*
X166021686Y-86469397D01*
X165734865Y-86622706D01*
X165423654Y-86717112D01*
X165181107Y-86741000D01*
X165018893Y-86741000D01*
X164776346Y-86717112D01*
X164465135Y-86622706D01*
X164178314Y-86469397D01*
X163926918Y-86263082D01*
X163720603Y-86011686D01*
X163567294Y-85724865D01*
X163472888Y-85413654D01*
X163441012Y-85090000D01*
X163472888Y-84766346D01*
X163567294Y-84455135D01*
X163720603Y-84168314D01*
X163926918Y-83916918D01*
X164178314Y-83710603D01*
X164465135Y-83557294D01*
X164776346Y-83462888D01*
X165018893Y-83439000D01*
X165181107Y-83439000D01*
X165423654Y-83462888D01*
X165423654Y-83462888D01*
G37*
G36*
X151511000Y-86741000D02*
X148209000Y-86741000D01*
X148209000Y-83439000D01*
X151511000Y-83439000D01*
X151511000Y-86741000D01*
X151511000Y-86741000D01*
G37*
G36*
X26853636Y-79961019D02*
X27034903Y-79997075D01*
X27262571Y-80091378D01*
X27466542Y-80227668D01*
X27467469Y-80228287D01*
X27641713Y-80402531D01*
X27641715Y-80402534D01*
X27778622Y-80607429D01*
X27872925Y-80835097D01*
X27921000Y-81076787D01*
X27921000Y-81323213D01*
X27872925Y-81564903D01*
X27778622Y-81792571D01*
X27642332Y-81996542D01*
X27641713Y-81997469D01*
X27467469Y-82171713D01*
X27467466Y-82171715D01*
X27262571Y-82308622D01*
X27034903Y-82402925D01*
X26853636Y-82438981D01*
X26793214Y-82451000D01*
X26546786Y-82451000D01*
X26486364Y-82438981D01*
X26305097Y-82402925D01*
X26077429Y-82308622D01*
X25872534Y-82171715D01*
X25872531Y-82171713D01*
X25698287Y-81997469D01*
X25697668Y-81996542D01*
X25561378Y-81792571D01*
X25467075Y-81564903D01*
X25419000Y-81323213D01*
X25419000Y-81076787D01*
X25467075Y-80835097D01*
X25561378Y-80607429D01*
X25698285Y-80402534D01*
X25698287Y-80402531D01*
X25872531Y-80228287D01*
X25873458Y-80227668D01*
X26077429Y-80091378D01*
X26305097Y-79997075D01*
X26486364Y-79961019D01*
X26546786Y-79949000D01*
X26793214Y-79949000D01*
X26853636Y-79961019D01*
X26853636Y-79961019D01*
G37*
G36*
X49713636Y-79961019D02*
X49894903Y-79997075D01*
X50122571Y-80091378D01*
X50326542Y-80227668D01*
X50327469Y-80228287D01*
X50501713Y-80402531D01*
X50501715Y-80402534D01*
X50638622Y-80607429D01*
X50732925Y-80835097D01*
X50781000Y-81076787D01*
X50781000Y-81323213D01*
X50732925Y-81564903D01*
X50638622Y-81792571D01*
X50502332Y-81996542D01*
X50501713Y-81997469D01*
X50327469Y-82171713D01*
X50327466Y-82171715D01*
X50122571Y-82308622D01*
X49894903Y-82402925D01*
X49713636Y-82438981D01*
X49653214Y-82451000D01*
X49406786Y-82451000D01*
X49346364Y-82438981D01*
X49165097Y-82402925D01*
X48937429Y-82308622D01*
X48732534Y-82171715D01*
X48732531Y-82171713D01*
X48558287Y-81997469D01*
X48557668Y-81996542D01*
X48421378Y-81792571D01*
X48327075Y-81564903D01*
X48279000Y-81323213D01*
X48279000Y-81076787D01*
X48327075Y-80835097D01*
X48421378Y-80607429D01*
X48558285Y-80402534D01*
X48558287Y-80402531D01*
X48732531Y-80228287D01*
X48733458Y-80227668D01*
X48937429Y-80091378D01*
X49165097Y-79997075D01*
X49346364Y-79961019D01*
X49406786Y-79949000D01*
X49653214Y-79949000D01*
X49713636Y-79961019D01*
X49713636Y-79961019D01*
G37*
G36*
X181591000Y-79991000D02*
X179089000Y-79991000D01*
X179089000Y-77489000D01*
X181591000Y-77489000D01*
X181591000Y-79991000D01*
X181591000Y-79991000D01*
G37*
G36*
X175523635Y-77501019D02*
X175704903Y-77537075D01*
X175932571Y-77631378D01*
X176136542Y-77767668D01*
X176137469Y-77768287D01*
X176311713Y-77942531D01*
X176311715Y-77942534D01*
X176448622Y-78147429D01*
X176542925Y-78375097D01*
X176591000Y-78616787D01*
X176591000Y-78863213D01*
X176542925Y-79104903D01*
X176448622Y-79332571D01*
X176312332Y-79536542D01*
X176311713Y-79537469D01*
X176137469Y-79711713D01*
X176137466Y-79711715D01*
X175932571Y-79848622D01*
X175704903Y-79942925D01*
X175523635Y-79978981D01*
X175463214Y-79991000D01*
X175216786Y-79991000D01*
X175156365Y-79978981D01*
X174975097Y-79942925D01*
X174747429Y-79848622D01*
X174542534Y-79711715D01*
X174542531Y-79711713D01*
X174368287Y-79537469D01*
X174367668Y-79536542D01*
X174231378Y-79332571D01*
X174137075Y-79104903D01*
X174089000Y-78863213D01*
X174089000Y-78616787D01*
X174137075Y-78375097D01*
X174231378Y-78147429D01*
X174368285Y-77942534D01*
X174368287Y-77942531D01*
X174542531Y-77768287D01*
X174543458Y-77767668D01*
X174747429Y-77631378D01*
X174975097Y-77537075D01*
X175156365Y-77501019D01*
X175216786Y-77489000D01*
X175463214Y-77489000D01*
X175523635Y-77501019D01*
X175523635Y-77501019D01*
G37*
G36*
X165423654Y-75842888D02*
X165734865Y-75937294D01*
X166021686Y-76090603D01*
X166273082Y-76296918D01*
X166479397Y-76548314D01*
X166632706Y-76835135D01*
X166727112Y-77146346D01*
X166758988Y-77470000D01*
X166727112Y-77793654D01*
X166632706Y-78104865D01*
X166479397Y-78391686D01*
X166273082Y-78643082D01*
X166021686Y-78849397D01*
X165734865Y-79002706D01*
X165423654Y-79097112D01*
X165181107Y-79121000D01*
X165018893Y-79121000D01*
X164776346Y-79097112D01*
X164465135Y-79002706D01*
X164178314Y-78849397D01*
X163926918Y-78643082D01*
X163720603Y-78391686D01*
X163567294Y-78104865D01*
X163472888Y-77793654D01*
X163441012Y-77470000D01*
X163472888Y-77146346D01*
X163567294Y-76835135D01*
X163720603Y-76548314D01*
X163926918Y-76296918D01*
X164178314Y-76090603D01*
X164465135Y-75937294D01*
X164776346Y-75842888D01*
X165018893Y-75819000D01*
X165181107Y-75819000D01*
X165423654Y-75842888D01*
X165423654Y-75842888D01*
G37*
G36*
X151511000Y-79121000D02*
X148209000Y-79121000D01*
X148209000Y-75819000D01*
X151511000Y-75819000D01*
X151511000Y-79121000D01*
X151511000Y-79121000D01*
G37*
G36*
X50781000Y-77451000D02*
X48279000Y-77451000D01*
X48279000Y-74949000D01*
X50781000Y-74949000D01*
X50781000Y-77451000D01*
X50781000Y-77451000D01*
G37*
G36*
X27921000Y-77451000D02*
X25419000Y-77451000D01*
X25419000Y-74949000D01*
X27921000Y-74949000D01*
X27921000Y-77451000D01*
X27921000Y-77451000D01*
G37*
G36*
X104455786Y-67185462D02*
X104455788Y-67185463D01*
X104455789Y-67185463D01*
X105102029Y-67453144D01*
X105563323Y-67761371D01*
X105683634Y-67841760D01*
X106178240Y-68336366D01*
X106178242Y-68336369D01*
X106566856Y-68917971D01*
X106808638Y-69501686D01*
X106834538Y-69564214D01*
X106971000Y-70250256D01*
X106971000Y-70949744D01*
X106872756Y-71443653D01*
X106834537Y-71635789D01*
X106566856Y-72282029D01*
X106226551Y-72791332D01*
X106178240Y-72863634D01*
X105683634Y-73358240D01*
X105683631Y-73358242D01*
X105102029Y-73746856D01*
X104455789Y-74014537D01*
X104455788Y-74014537D01*
X104455786Y-74014538D01*
X103769744Y-74151000D01*
X103070256Y-74151000D01*
X102384214Y-74014538D01*
X102384212Y-74014537D01*
X102384211Y-74014537D01*
X101737971Y-73746856D01*
X101156369Y-73358242D01*
X101156366Y-73358240D01*
X100661760Y-72863634D01*
X100613449Y-72791332D01*
X100273144Y-72282029D01*
X100005463Y-71635789D01*
X99967245Y-71443653D01*
X99869000Y-70949744D01*
X99869000Y-70250256D01*
X100005462Y-69564214D01*
X100031362Y-69501686D01*
X100273144Y-68917971D01*
X100661758Y-68336369D01*
X100661760Y-68336366D01*
X101156366Y-67841760D01*
X101276677Y-67761371D01*
X101737971Y-67453144D01*
X102384211Y-67185463D01*
X102384212Y-67185463D01*
X102384214Y-67185462D01*
X103070256Y-67049000D01*
X103769744Y-67049000D01*
X104455786Y-67185462D01*
X104455786Y-67185462D01*
G37*
G36*
X82873654Y-69492888D02*
X83184865Y-69587294D01*
X83471686Y-69740603D01*
X83723082Y-69946918D01*
X83929397Y-70198314D01*
X84082706Y-70485135D01*
X84177112Y-70796346D01*
X84208988Y-71120000D01*
X84177112Y-71443654D01*
X84082706Y-71754865D01*
X83929397Y-72041686D01*
X83723082Y-72293082D01*
X83471686Y-72499397D01*
X83184865Y-72652706D01*
X82873654Y-72747112D01*
X82631107Y-72771000D01*
X82468893Y-72771000D01*
X82226346Y-72747112D01*
X81915135Y-72652706D01*
X81628314Y-72499397D01*
X81376918Y-72293082D01*
X81170603Y-72041686D01*
X81017294Y-71754865D01*
X80922888Y-71443654D01*
X80891012Y-71120000D01*
X80922888Y-70796346D01*
X81017294Y-70485135D01*
X81170603Y-70198314D01*
X81376918Y-69946918D01*
X81628314Y-69740603D01*
X81915135Y-69587294D01*
X82226346Y-69492888D01*
X82468893Y-69469000D01*
X82631107Y-69469000D01*
X82873654Y-69492888D01*
X82873654Y-69492888D01*
G37*
G36*
X75253654Y-69492888D02*
X75564865Y-69587294D01*
X75851686Y-69740603D01*
X76103082Y-69946918D01*
X76309397Y-70198314D01*
X76462706Y-70485135D01*
X76557112Y-70796346D01*
X76588988Y-71120000D01*
X76557112Y-71443654D01*
X76462706Y-71754865D01*
X76309397Y-72041686D01*
X76103082Y-72293082D01*
X75851686Y-72499397D01*
X75564865Y-72652706D01*
X75253654Y-72747112D01*
X75011107Y-72771000D01*
X74848893Y-72771000D01*
X74606346Y-72747112D01*
X74295135Y-72652706D01*
X74008314Y-72499397D01*
X73756918Y-72293082D01*
X73550603Y-72041686D01*
X73397294Y-71754865D01*
X73302888Y-71443654D01*
X73271012Y-71120000D01*
X73302888Y-70796346D01*
X73397294Y-70485135D01*
X73550603Y-70198314D01*
X73756918Y-69946918D01*
X74008314Y-69740603D01*
X74295135Y-69587294D01*
X74606346Y-69492888D01*
X74848893Y-69469000D01*
X75011107Y-69469000D01*
X75253654Y-69492888D01*
X75253654Y-69492888D01*
G37*
G36*
X68961000Y-72771000D02*
X65659000Y-72771000D01*
X65659000Y-69469000D01*
X68961000Y-69469000D01*
X68961000Y-72771000D01*
X68961000Y-72771000D01*
G37*
G36*
X151453654Y-69492888D02*
X151764865Y-69587294D01*
X152051686Y-69740603D01*
X152303082Y-69946918D01*
X152509397Y-70198314D01*
X152662706Y-70485135D01*
X152757112Y-70796346D01*
X152788988Y-71120000D01*
X152757112Y-71443654D01*
X152662706Y-71754865D01*
X152509397Y-72041686D01*
X152303082Y-72293082D01*
X152051686Y-72499397D01*
X151764865Y-72652706D01*
X151453654Y-72747112D01*
X151211107Y-72771000D01*
X151048893Y-72771000D01*
X150806346Y-72747112D01*
X150495135Y-72652706D01*
X150208314Y-72499397D01*
X149956918Y-72293082D01*
X149750603Y-72041686D01*
X149597294Y-71754865D01*
X149502888Y-71443654D01*
X149471012Y-71120000D01*
X149502888Y-70796346D01*
X149597294Y-70485135D01*
X149750603Y-70198314D01*
X149956918Y-69946918D01*
X150208314Y-69740603D01*
X150495135Y-69587294D01*
X150806346Y-69492888D01*
X151048893Y-69469000D01*
X151211107Y-69469000D01*
X151453654Y-69492888D01*
X151453654Y-69492888D01*
G37*
G36*
X159073654Y-69492888D02*
X159384865Y-69587294D01*
X159671686Y-69740603D01*
X159923082Y-69946918D01*
X160129397Y-70198314D01*
X160282706Y-70485135D01*
X160377112Y-70796346D01*
X160408988Y-71120000D01*
X160377112Y-71443654D01*
X160282706Y-71754865D01*
X160129397Y-72041686D01*
X159923082Y-72293082D01*
X159671686Y-72499397D01*
X159384865Y-72652706D01*
X159073654Y-72747112D01*
X158831107Y-72771000D01*
X158668893Y-72771000D01*
X158426346Y-72747112D01*
X158115135Y-72652706D01*
X157828314Y-72499397D01*
X157576918Y-72293082D01*
X157370603Y-72041686D01*
X157217294Y-71754865D01*
X157122888Y-71443654D01*
X157091012Y-71120000D01*
X157122888Y-70796346D01*
X157217294Y-70485135D01*
X157370603Y-70198314D01*
X157576918Y-69946918D01*
X157828314Y-69740603D01*
X158115135Y-69587294D01*
X158426346Y-69492888D01*
X158668893Y-69469000D01*
X158831107Y-69469000D01*
X159073654Y-69492888D01*
X159073654Y-69492888D01*
G37*
G36*
X143833654Y-69492888D02*
X144144865Y-69587294D01*
X144431686Y-69740603D01*
X144683082Y-69946918D01*
X144889397Y-70198314D01*
X145042706Y-70485135D01*
X145137112Y-70796346D01*
X145168988Y-71120000D01*
X145137112Y-71443654D01*
X145042706Y-71754865D01*
X144889397Y-72041686D01*
X144683082Y-72293082D01*
X144431686Y-72499397D01*
X144144865Y-72652706D01*
X143833654Y-72747112D01*
X143591107Y-72771000D01*
X143428893Y-72771000D01*
X143186346Y-72747112D01*
X142875135Y-72652706D01*
X142588314Y-72499397D01*
X142336918Y-72293082D01*
X142130603Y-72041686D01*
X141977294Y-71754865D01*
X141882888Y-71443654D01*
X141851012Y-71120000D01*
X141882888Y-70796346D01*
X141977294Y-70485135D01*
X142130603Y-70198314D01*
X142336918Y-69946918D01*
X142588314Y-69740603D01*
X142875135Y-69587294D01*
X143186346Y-69492888D01*
X143428893Y-69469000D01*
X143591107Y-69469000D01*
X143833654Y-69492888D01*
X143833654Y-69492888D01*
G37*
G36*
X126053654Y-66952888D02*
X126364865Y-67047294D01*
X126651686Y-67200603D01*
X126903082Y-67406918D01*
X127109397Y-67658314D01*
X127262706Y-67945135D01*
X127357112Y-68256346D01*
X127388988Y-68580000D01*
X127357112Y-68903654D01*
X127262706Y-69214865D01*
X127109397Y-69501686D01*
X126903082Y-69753082D01*
X126651686Y-69959397D01*
X126364865Y-70112706D01*
X126053654Y-70207112D01*
X125811107Y-70231000D01*
X125648893Y-70231000D01*
X125406346Y-70207112D01*
X125095135Y-70112706D01*
X124808314Y-69959397D01*
X124556918Y-69753082D01*
X124350603Y-69501686D01*
X124197294Y-69214865D01*
X124102888Y-68903654D01*
X124071012Y-68580000D01*
X124102888Y-68256346D01*
X124197294Y-67945135D01*
X124350603Y-67658314D01*
X124556918Y-67406918D01*
X124808314Y-67200603D01*
X125095135Y-67047294D01*
X125406346Y-66952888D01*
X125648893Y-66929000D01*
X125811107Y-66929000D01*
X126053654Y-66952888D01*
X126053654Y-66952888D01*
G37*
G36*
X112141000Y-70231000D02*
X108839000Y-70231000D01*
X108839000Y-66929000D01*
X112141000Y-66929000D01*
X112141000Y-70231000D01*
X112141000Y-70231000D01*
G37*
G36*
X67493635Y-62261019D02*
X67674903Y-62297075D01*
X67902571Y-62391378D01*
X67997488Y-62454800D01*
X68107469Y-62528287D01*
X68281713Y-62702531D01*
X68281715Y-62702534D01*
X68418622Y-62907429D01*
X68512925Y-63135097D01*
X68561000Y-63376787D01*
X68561000Y-63623213D01*
X68512925Y-63864903D01*
X68418622Y-64092571D01*
X68347921Y-64198382D01*
X68281713Y-64297469D01*
X68107469Y-64471713D01*
X68107466Y-64471715D01*
X67902571Y-64608622D01*
X67674903Y-64702925D01*
X67524213Y-64732899D01*
X67433214Y-64751000D01*
X67186786Y-64751000D01*
X67095787Y-64732899D01*
X66945097Y-64702925D01*
X66717429Y-64608622D01*
X66512534Y-64471715D01*
X66512531Y-64471713D01*
X66338287Y-64297469D01*
X66272079Y-64198382D01*
X66201378Y-64092571D01*
X66107075Y-63864903D01*
X66059000Y-63623213D01*
X66059000Y-63376787D01*
X66107075Y-63135097D01*
X66201378Y-62907429D01*
X66338285Y-62702534D01*
X66338287Y-62702531D01*
X66512531Y-62528287D01*
X66622512Y-62454800D01*
X66717429Y-62391378D01*
X66945097Y-62297075D01*
X67126365Y-62261019D01*
X67186786Y-62249000D01*
X67433214Y-62249000D01*
X67493635Y-62261019D01*
X67493635Y-62261019D01*
G37*
G36*
X100575239Y-62267101D02*
X100811053Y-62338634D01*
X101028381Y-62454799D01*
X101218871Y-62611129D01*
X101375201Y-62801619D01*
X101491366Y-63018947D01*
X101562899Y-63254761D01*
X101587053Y-63500000D01*
X101562899Y-63745239D01*
X101491366Y-63981053D01*
X101375201Y-64198381D01*
X101218871Y-64388871D01*
X101028381Y-64545201D01*
X100811053Y-64661366D01*
X100575239Y-64732899D01*
X100391457Y-64751000D01*
X100268543Y-64751000D01*
X100084761Y-64732899D01*
X99848947Y-64661366D01*
X99631619Y-64545201D01*
X99441129Y-64388871D01*
X99284799Y-64198381D01*
X99168634Y-63981053D01*
X99097101Y-63745239D01*
X99072947Y-63500000D01*
X99097101Y-63254761D01*
X99168634Y-63018947D01*
X99284799Y-62801619D01*
X99441129Y-62611129D01*
X99631619Y-62454799D01*
X99848947Y-62338634D01*
X100084761Y-62267101D01*
X100268543Y-62249000D01*
X100391457Y-62249000D01*
X100575239Y-62267101D01*
X100575239Y-62267101D01*
G37*
G36*
X142485239Y-62267101D02*
X142721053Y-62338634D01*
X142938381Y-62454799D01*
X143128871Y-62611129D01*
X143285201Y-62801619D01*
X143401366Y-63018947D01*
X143472899Y-63254761D01*
X143497053Y-63500000D01*
X143472899Y-63745239D01*
X143401366Y-63981053D01*
X143285201Y-64198381D01*
X143128871Y-64388871D01*
X142938381Y-64545201D01*
X142721053Y-64661366D01*
X142485239Y-64732899D01*
X142301457Y-64751000D01*
X142178543Y-64751000D01*
X141994761Y-64732899D01*
X141758947Y-64661366D01*
X141541619Y-64545201D01*
X141351129Y-64388871D01*
X141194799Y-64198381D01*
X141078634Y-63981053D01*
X141007101Y-63745239D01*
X140982947Y-63500000D01*
X141007101Y-63254761D01*
X141078634Y-63018947D01*
X141194799Y-62801619D01*
X141351129Y-62611129D01*
X141541619Y-62454799D01*
X141758947Y-62338634D01*
X141994761Y-62267101D01*
X142178543Y-62249000D01*
X142301457Y-62249000D01*
X142485239Y-62267101D01*
X142485239Y-62267101D01*
G37*
G36*
X110813654Y-56792888D02*
X111124865Y-56887294D01*
X111411686Y-57040603D01*
X111663082Y-57246918D01*
X111869397Y-57498314D01*
X112022706Y-57785135D01*
X112117112Y-58096346D01*
X112148988Y-58420000D01*
X112117112Y-58743654D01*
X112022706Y-59054865D01*
X111869397Y-59341686D01*
X111663082Y-59593082D01*
X111411686Y-59799397D01*
X111124865Y-59952706D01*
X110813654Y-60047112D01*
X110571107Y-60071000D01*
X110408893Y-60071000D01*
X110166346Y-60047112D01*
X109855135Y-59952706D01*
X109568314Y-59799397D01*
X109316918Y-59593082D01*
X109110603Y-59341686D01*
X108957294Y-59054865D01*
X108862888Y-58743654D01*
X108831012Y-58420000D01*
X108862888Y-58096346D01*
X108957294Y-57785135D01*
X109110603Y-57498314D01*
X109316918Y-57246918D01*
X109568314Y-57040603D01*
X109855135Y-56887294D01*
X110166346Y-56792888D01*
X110408893Y-56769000D01*
X110571107Y-56769000D01*
X110813654Y-56792888D01*
X110813654Y-56792888D01*
G37*
G36*
X49713636Y-57101019D02*
X49894903Y-57137075D01*
X50122571Y-57231378D01*
X50326542Y-57367668D01*
X50327469Y-57368287D01*
X50501713Y-57542531D01*
X50501715Y-57542534D01*
X50638622Y-57747429D01*
X50732925Y-57975097D01*
X50781000Y-58216787D01*
X50781000Y-58463213D01*
X50732925Y-58704903D01*
X50638622Y-58932571D01*
X50556907Y-59054865D01*
X50501713Y-59137469D01*
X50327469Y-59311713D01*
X50327466Y-59311715D01*
X50122571Y-59448622D01*
X49894903Y-59542925D01*
X49713636Y-59578981D01*
X49653214Y-59591000D01*
X49406786Y-59591000D01*
X49346364Y-59578981D01*
X49165097Y-59542925D01*
X48937429Y-59448622D01*
X48732534Y-59311715D01*
X48732531Y-59311713D01*
X48558287Y-59137469D01*
X48503093Y-59054865D01*
X48421378Y-58932571D01*
X48327075Y-58704903D01*
X48279000Y-58463213D01*
X48279000Y-58216787D01*
X48327075Y-57975097D01*
X48421378Y-57747429D01*
X48558285Y-57542534D01*
X48558287Y-57542531D01*
X48732531Y-57368287D01*
X48733458Y-57367668D01*
X48937429Y-57231378D01*
X49165097Y-57137075D01*
X49346364Y-57101019D01*
X49406786Y-57089000D01*
X49653214Y-57089000D01*
X49713636Y-57101019D01*
X49713636Y-57101019D01*
G37*
G36*
X26853636Y-57101019D02*
X27034903Y-57137075D01*
X27262571Y-57231378D01*
X27466542Y-57367668D01*
X27467469Y-57368287D01*
X27641713Y-57542531D01*
X27641715Y-57542534D01*
X27778622Y-57747429D01*
X27872925Y-57975097D01*
X27921000Y-58216787D01*
X27921000Y-58463213D01*
X27872925Y-58704903D01*
X27778622Y-58932571D01*
X27696907Y-59054865D01*
X27641713Y-59137469D01*
X27467469Y-59311713D01*
X27467466Y-59311715D01*
X27262571Y-59448622D01*
X27034903Y-59542925D01*
X26853636Y-59578981D01*
X26793214Y-59591000D01*
X26546786Y-59591000D01*
X26486364Y-59578981D01*
X26305097Y-59542925D01*
X26077429Y-59448622D01*
X25872534Y-59311715D01*
X25872531Y-59311713D01*
X25698287Y-59137469D01*
X25643093Y-59054865D01*
X25561378Y-58932571D01*
X25467075Y-58704903D01*
X25419000Y-58463213D01*
X25419000Y-58216787D01*
X25467075Y-57975097D01*
X25561378Y-57747429D01*
X25698285Y-57542534D01*
X25698287Y-57542531D01*
X25872531Y-57368287D01*
X25873458Y-57367668D01*
X26077429Y-57231378D01*
X26305097Y-57137075D01*
X26486364Y-57101019D01*
X26546786Y-57089000D01*
X26793214Y-57089000D01*
X26853636Y-57101019D01*
X26853636Y-57101019D01*
G37*
G36*
X175523635Y-55911019D02*
X175704903Y-55947075D01*
X175932571Y-56041378D01*
X176136542Y-56177668D01*
X176137469Y-56178287D01*
X176311713Y-56352531D01*
X176311715Y-56352534D01*
X176448622Y-56557429D01*
X176542925Y-56785097D01*
X176591000Y-57026787D01*
X176591000Y-57273213D01*
X176542925Y-57514903D01*
X176448622Y-57742571D01*
X176312332Y-57946542D01*
X176311713Y-57947469D01*
X176137469Y-58121713D01*
X176137466Y-58121715D01*
X175932571Y-58258622D01*
X175704903Y-58352925D01*
X175523635Y-58388981D01*
X175463214Y-58401000D01*
X175216786Y-58401000D01*
X175156365Y-58388981D01*
X174975097Y-58352925D01*
X174747429Y-58258622D01*
X174542534Y-58121715D01*
X174542531Y-58121713D01*
X174368287Y-57947469D01*
X174367668Y-57946542D01*
X174231378Y-57742571D01*
X174137075Y-57514903D01*
X174089000Y-57273213D01*
X174089000Y-57026787D01*
X174137075Y-56785097D01*
X174231378Y-56557429D01*
X174368285Y-56352534D01*
X174368287Y-56352531D01*
X174542531Y-56178287D01*
X174543458Y-56177668D01*
X174747429Y-56041378D01*
X174975097Y-55947075D01*
X175156365Y-55911019D01*
X175216786Y-55899000D01*
X175463214Y-55899000D01*
X175523635Y-55911019D01*
X175523635Y-55911019D01*
G37*
G36*
X181591000Y-58401000D02*
X179089000Y-58401000D01*
X179089000Y-55899000D01*
X181591000Y-55899000D01*
X181591000Y-58401000D01*
X181591000Y-58401000D01*
G37*
G36*
X160401000Y-57531000D02*
X157099000Y-57531000D01*
X157099000Y-54229000D01*
X160401000Y-54229000D01*
X160401000Y-57531000D01*
X160401000Y-57531000D01*
G37*
G36*
X152781000Y-57531000D02*
X149479000Y-57531000D01*
X149479000Y-54229000D01*
X152781000Y-54229000D01*
X152781000Y-57531000D01*
X152781000Y-57531000D01*
G37*
G36*
X87611000Y-57131000D02*
X85109000Y-57131000D01*
X85109000Y-54629000D01*
X87611000Y-54629000D01*
X87611000Y-57131000D01*
X87611000Y-57131000D01*
G37*
G36*
X81543635Y-54641019D02*
X81724903Y-54677075D01*
X81952571Y-54771378D01*
X82156542Y-54907668D01*
X82157469Y-54908287D01*
X82331713Y-55082531D01*
X82331715Y-55082534D01*
X82468622Y-55287429D01*
X82562925Y-55515097D01*
X82611000Y-55756787D01*
X82611000Y-56003213D01*
X82562925Y-56244903D01*
X82468622Y-56472571D01*
X82411921Y-56557429D01*
X82331713Y-56677469D01*
X82157469Y-56851713D01*
X82157466Y-56851715D01*
X81952571Y-56988622D01*
X81724903Y-57082925D01*
X81543635Y-57118981D01*
X81483214Y-57131000D01*
X81236786Y-57131000D01*
X81176365Y-57118981D01*
X80995097Y-57082925D01*
X80767429Y-56988622D01*
X80562534Y-56851715D01*
X80562531Y-56851713D01*
X80388287Y-56677469D01*
X80308079Y-56557429D01*
X80251378Y-56472571D01*
X80157075Y-56244903D01*
X80109000Y-56003213D01*
X80109000Y-55756787D01*
X80157075Y-55515097D01*
X80251378Y-55287429D01*
X80388285Y-55082534D01*
X80388287Y-55082531D01*
X80562531Y-54908287D01*
X80563458Y-54907668D01*
X80767429Y-54771378D01*
X80995097Y-54677075D01*
X81176365Y-54641019D01*
X81236786Y-54629000D01*
X81483214Y-54629000D01*
X81543635Y-54641019D01*
X81543635Y-54641019D01*
G37*
G36*
X123453635Y-53371019D02*
X123634903Y-53407075D01*
X123862571Y-53501378D01*
X124066542Y-53637668D01*
X124067469Y-53638287D01*
X124241713Y-53812531D01*
X124241715Y-53812534D01*
X124378622Y-54017429D01*
X124472925Y-54245097D01*
X124521000Y-54486787D01*
X124521000Y-54733213D01*
X124472925Y-54974903D01*
X124378622Y-55202571D01*
X124321921Y-55287429D01*
X124241713Y-55407469D01*
X124067469Y-55581713D01*
X124067466Y-55581715D01*
X123862571Y-55718622D01*
X123634903Y-55812925D01*
X123453635Y-55848981D01*
X123393214Y-55861000D01*
X123146786Y-55861000D01*
X123086365Y-55848981D01*
X122905097Y-55812925D01*
X122677429Y-55718622D01*
X122472534Y-55581715D01*
X122472531Y-55581713D01*
X122298287Y-55407469D01*
X122218079Y-55287429D01*
X122161378Y-55202571D01*
X122067075Y-54974903D01*
X122019000Y-54733213D01*
X122019000Y-54486787D01*
X122067075Y-54245097D01*
X122161378Y-54017429D01*
X122298285Y-53812534D01*
X122298287Y-53812531D01*
X122472531Y-53638287D01*
X122473458Y-53637668D01*
X122677429Y-53501378D01*
X122905097Y-53407075D01*
X123086365Y-53371019D01*
X123146786Y-53359000D01*
X123393214Y-53359000D01*
X123453635Y-53371019D01*
X123453635Y-53371019D01*
G37*
G36*
X129521000Y-55861000D02*
X127019000Y-55861000D01*
X127019000Y-53359000D01*
X129521000Y-53359000D01*
X129521000Y-55861000D01*
X129521000Y-55861000D01*
G37*
G36*
X27921000Y-54591000D02*
X25419000Y-54591000D01*
X25419000Y-52089000D01*
X27921000Y-52089000D01*
X27921000Y-54591000D01*
X27921000Y-54591000D01*
G37*
G36*
X50781000Y-54591000D02*
X48279000Y-54591000D01*
X48279000Y-52089000D01*
X50781000Y-52089000D01*
X50781000Y-54591000D01*
X50781000Y-54591000D01*
G37*
G36*
X168021000Y-51181000D02*
X164719000Y-51181000D01*
X164719000Y-47879000D01*
X168021000Y-47879000D01*
X168021000Y-51181000D01*
X168021000Y-51181000D01*
G37*
G36*
X151453654Y-47902888D02*
X151764865Y-47997294D01*
X152051686Y-48150603D01*
X152303082Y-48356918D01*
X152509397Y-48608314D01*
X152662706Y-48895135D01*
X152757112Y-49206346D01*
X152788988Y-49530000D01*
X152757112Y-49853654D01*
X152662706Y-50164865D01*
X152509397Y-50451686D01*
X152303082Y-50703082D01*
X152051686Y-50909397D01*
X151764865Y-51062706D01*
X151453654Y-51157112D01*
X151211107Y-51181000D01*
X151048893Y-51181000D01*
X150806346Y-51157112D01*
X150495135Y-51062706D01*
X150208314Y-50909397D01*
X149956918Y-50703082D01*
X149750603Y-50451686D01*
X149597294Y-50164865D01*
X149502888Y-49853654D01*
X149471012Y-49530000D01*
X149502888Y-49206346D01*
X149597294Y-48895135D01*
X149750603Y-48608314D01*
X149956918Y-48356918D01*
X150208314Y-48150603D01*
X150495135Y-47997294D01*
X150806346Y-47902888D01*
X151048893Y-47879000D01*
X151211107Y-47879000D01*
X151453654Y-47902888D01*
X151453654Y-47902888D01*
G37*
G36*
X112141000Y-44831000D02*
X108839000Y-44831000D01*
X108839000Y-41529000D01*
X112141000Y-41529000D01*
X112141000Y-44831000D01*
X112141000Y-44831000D01*
G37*
G36*
X110813654Y-36472888D02*
X111124865Y-36567294D01*
X111411686Y-36720603D01*
X111663082Y-36926918D01*
X111869397Y-37178314D01*
X112022706Y-37465135D01*
X112117112Y-37776346D01*
X112148988Y-38100000D01*
X112117112Y-38423654D01*
X112022706Y-38734865D01*
X111869397Y-39021686D01*
X111663082Y-39273082D01*
X111411686Y-39479397D01*
X111124865Y-39632706D01*
X110813654Y-39727112D01*
X110571107Y-39751000D01*
X110408893Y-39751000D01*
X110166346Y-39727112D01*
X109855135Y-39632706D01*
X109568314Y-39479397D01*
X109316918Y-39273082D01*
X109110603Y-39021686D01*
X108957294Y-38734865D01*
X108862888Y-38423654D01*
X108831012Y-38100000D01*
X108862888Y-37776346D01*
X108957294Y-37465135D01*
X109110603Y-37178314D01*
X109316918Y-36926918D01*
X109568314Y-36720603D01*
X109855135Y-36567294D01*
X110166346Y-36472888D01*
X110408893Y-36449000D01*
X110571107Y-36449000D01*
X110813654Y-36472888D01*
X110813654Y-36472888D01*
G37*
G36*
X49713636Y-34241019D02*
X49894903Y-34277075D01*
X50122571Y-34371378D01*
X50326542Y-34507668D01*
X50327469Y-34508287D01*
X50501713Y-34682531D01*
X50501715Y-34682534D01*
X50638622Y-34887429D01*
X50732925Y-35115097D01*
X50781000Y-35356787D01*
X50781000Y-35603213D01*
X50732925Y-35844903D01*
X50638622Y-36072571D01*
X50502332Y-36276542D01*
X50501713Y-36277469D01*
X50327469Y-36451713D01*
X50327466Y-36451715D01*
X50122571Y-36588622D01*
X49894903Y-36682925D01*
X49713635Y-36718981D01*
X49653214Y-36731000D01*
X49406786Y-36731000D01*
X49346365Y-36718981D01*
X49165097Y-36682925D01*
X48937429Y-36588622D01*
X48732534Y-36451715D01*
X48732531Y-36451713D01*
X48558287Y-36277469D01*
X48557668Y-36276542D01*
X48421378Y-36072571D01*
X48327075Y-35844903D01*
X48279000Y-35603213D01*
X48279000Y-35356787D01*
X48327075Y-35115097D01*
X48421378Y-34887429D01*
X48558285Y-34682534D01*
X48558287Y-34682531D01*
X48732531Y-34508287D01*
X48733458Y-34507668D01*
X48937429Y-34371378D01*
X49165097Y-34277075D01*
X49346364Y-34241019D01*
X49406786Y-34229000D01*
X49653214Y-34229000D01*
X49713636Y-34241019D01*
X49713636Y-34241019D01*
G37*
G36*
X26853636Y-34241019D02*
X27034903Y-34277075D01*
X27262571Y-34371378D01*
X27466542Y-34507668D01*
X27467469Y-34508287D01*
X27641713Y-34682531D01*
X27641715Y-34682534D01*
X27778622Y-34887429D01*
X27872925Y-35115097D01*
X27921000Y-35356787D01*
X27921000Y-35603213D01*
X27872925Y-35844903D01*
X27778622Y-36072571D01*
X27642332Y-36276542D01*
X27641713Y-36277469D01*
X27467469Y-36451713D01*
X27467466Y-36451715D01*
X27262571Y-36588622D01*
X27034903Y-36682925D01*
X26853635Y-36718981D01*
X26793214Y-36731000D01*
X26546786Y-36731000D01*
X26486365Y-36718981D01*
X26305097Y-36682925D01*
X26077429Y-36588622D01*
X25872534Y-36451715D01*
X25872531Y-36451713D01*
X25698287Y-36277469D01*
X25697668Y-36276542D01*
X25561378Y-36072571D01*
X25467075Y-35844903D01*
X25419000Y-35603213D01*
X25419000Y-35356787D01*
X25467075Y-35115097D01*
X25561378Y-34887429D01*
X25698285Y-34682534D01*
X25698287Y-34682531D01*
X25872531Y-34508287D01*
X25873458Y-34507668D01*
X26077429Y-34371378D01*
X26305097Y-34277075D01*
X26486364Y-34241019D01*
X26546786Y-34229000D01*
X26793214Y-34229000D01*
X26853636Y-34241019D01*
X26853636Y-34241019D01*
G37*
G36*
X165426032Y-32716707D02*
X165624146Y-32776805D01*
X165806729Y-32874397D01*
X165966765Y-33005735D01*
X166098103Y-33165771D01*
X166195695Y-33348354D01*
X166255793Y-33546468D01*
X166271000Y-33700870D01*
X166271000Y-34804130D01*
X166255793Y-34958532D01*
X166195695Y-35156646D01*
X166098103Y-35339229D01*
X166045568Y-35403243D01*
X165966768Y-35499262D01*
X165966766Y-35499263D01*
X165966765Y-35499265D01*
X165806729Y-35630603D01*
X165624145Y-35728195D01*
X165426031Y-35788293D01*
X165220000Y-35808585D01*
X165013968Y-35788293D01*
X164815854Y-35728195D01*
X164633271Y-35630603D01*
X164569257Y-35578068D01*
X164473238Y-35499268D01*
X164473237Y-35499266D01*
X164473235Y-35499265D01*
X164341897Y-35339229D01*
X164244305Y-35156645D01*
X164184207Y-34958531D01*
X164169000Y-34804129D01*
X164169000Y-33700870D01*
X164177697Y-33612571D01*
X164184207Y-33546472D01*
X164244306Y-33348352D01*
X164341899Y-33165769D01*
X164473236Y-33005735D01*
X164633272Y-32874397D01*
X164815855Y-32776805D01*
X165013969Y-32716707D01*
X165220000Y-32696415D01*
X165426032Y-32716707D01*
X165426032Y-32716707D01*
G37*
G36*
X171271000Y-35803500D02*
X169169000Y-35803500D01*
X169169000Y-32701500D01*
X171271000Y-32701500D01*
X171271000Y-35803500D01*
X171271000Y-35803500D01*
G37*
G36*
X178126032Y-32674207D02*
X178324146Y-32734305D01*
X178506729Y-32831897D01*
X178666765Y-32963235D01*
X178798103Y-33123271D01*
X178895695Y-33305854D01*
X178955793Y-33503968D01*
X178971000Y-33658370D01*
X178971000Y-34761630D01*
X178955793Y-34916032D01*
X178895695Y-35114146D01*
X178798103Y-35296729D01*
X178748816Y-35356786D01*
X178666768Y-35456762D01*
X178666766Y-35456763D01*
X178666765Y-35456765D01*
X178506729Y-35588103D01*
X178324145Y-35685695D01*
X178126031Y-35745793D01*
X177920000Y-35766085D01*
X177713968Y-35745793D01*
X177515854Y-35685695D01*
X177333271Y-35588103D01*
X177225018Y-35499262D01*
X177173238Y-35456768D01*
X177173237Y-35456766D01*
X177173235Y-35456765D01*
X177041897Y-35296729D01*
X176944305Y-35114145D01*
X176884207Y-34916031D01*
X176869000Y-34761629D01*
X176869000Y-33658370D01*
X176873511Y-33612571D01*
X176884207Y-33503972D01*
X176944306Y-33305852D01*
X177041899Y-33123269D01*
X177173236Y-32963235D01*
X177254203Y-32896787D01*
X177333272Y-32831897D01*
X177515855Y-32734305D01*
X177713969Y-32674207D01*
X177920000Y-32653915D01*
X178126032Y-32674207D01*
X178126032Y-32674207D01*
G37*
G36*
X152726032Y-32674207D02*
X152924146Y-32734305D01*
X153106729Y-32831897D01*
X153266765Y-32963235D01*
X153398103Y-33123271D01*
X153495695Y-33305854D01*
X153555793Y-33503968D01*
X153571000Y-33658370D01*
X153571000Y-34761630D01*
X153555793Y-34916032D01*
X153495695Y-35114146D01*
X153398103Y-35296729D01*
X153348816Y-35356786D01*
X153266768Y-35456762D01*
X153266766Y-35456763D01*
X153266765Y-35456765D01*
X153106729Y-35588103D01*
X152924145Y-35685695D01*
X152726031Y-35745793D01*
X152520000Y-35766085D01*
X152313968Y-35745793D01*
X152115854Y-35685695D01*
X151933271Y-35588103D01*
X151825018Y-35499262D01*
X151773238Y-35456768D01*
X151773237Y-35456766D01*
X151773235Y-35456765D01*
X151641897Y-35296729D01*
X151544305Y-35114145D01*
X151484207Y-34916031D01*
X151469000Y-34761629D01*
X151469000Y-33658370D01*
X151473511Y-33612571D01*
X151484207Y-33503972D01*
X151544306Y-33305852D01*
X151641899Y-33123269D01*
X151773236Y-32963235D01*
X151854203Y-32896787D01*
X151933272Y-32831897D01*
X152115855Y-32734305D01*
X152313969Y-32674207D01*
X152520000Y-32653915D01*
X152726032Y-32674207D01*
X152726032Y-32674207D01*
G37*
G36*
X158571000Y-35761000D02*
X156469000Y-35761000D01*
X156469000Y-32659000D01*
X158571000Y-32659000D01*
X158571000Y-35761000D01*
X158571000Y-35761000D01*
G37*
G36*
X183971000Y-35761000D02*
X181869000Y-35761000D01*
X181869000Y-32659000D01*
X183971000Y-32659000D01*
X183971000Y-35761000D01*
X183971000Y-35761000D01*
G37*
G36*
X129521000Y-34271000D02*
X127019000Y-34271000D01*
X127019000Y-31769000D01*
X129521000Y-31769000D01*
X129521000Y-34271000D01*
X129521000Y-34271000D01*
G37*
G36*
X81543636Y-31781019D02*
X81724903Y-31817075D01*
X81952571Y-31911378D01*
X82156542Y-32047668D01*
X82157469Y-32048287D01*
X82331713Y-32222531D01*
X82331715Y-32222534D01*
X82468622Y-32427429D01*
X82562925Y-32655097D01*
X82611000Y-32896787D01*
X82611000Y-33143213D01*
X82562925Y-33384903D01*
X82468622Y-33612571D01*
X82409622Y-33700870D01*
X82331713Y-33817469D01*
X82157469Y-33991713D01*
X82157466Y-33991715D01*
X81952571Y-34128622D01*
X81724903Y-34222925D01*
X81543636Y-34258981D01*
X81483214Y-34271000D01*
X81236786Y-34271000D01*
X81176364Y-34258981D01*
X80995097Y-34222925D01*
X80767429Y-34128622D01*
X80562534Y-33991715D01*
X80562531Y-33991713D01*
X80388287Y-33817469D01*
X80310378Y-33700870D01*
X80251378Y-33612571D01*
X80157075Y-33384903D01*
X80109000Y-33143213D01*
X80109000Y-32896787D01*
X80157075Y-32655097D01*
X80251378Y-32427429D01*
X80388285Y-32222534D01*
X80388287Y-32222531D01*
X80562531Y-32048287D01*
X80563458Y-32047668D01*
X80767429Y-31911378D01*
X80995097Y-31817075D01*
X81176364Y-31781019D01*
X81236786Y-31769000D01*
X81483214Y-31769000D01*
X81543636Y-31781019D01*
X81543636Y-31781019D01*
G37*
G36*
X87611000Y-34271000D02*
X85109000Y-34271000D01*
X85109000Y-31769000D01*
X87611000Y-31769000D01*
X87611000Y-34271000D01*
X87611000Y-34271000D01*
G37*
G36*
X123453636Y-31781019D02*
X123634903Y-31817075D01*
X123862571Y-31911378D01*
X124066542Y-32047668D01*
X124067469Y-32048287D01*
X124241713Y-32222531D01*
X124241715Y-32222534D01*
X124378622Y-32427429D01*
X124472925Y-32655097D01*
X124521000Y-32896787D01*
X124521000Y-33143213D01*
X124472925Y-33384903D01*
X124378622Y-33612571D01*
X124319622Y-33700870D01*
X124241713Y-33817469D01*
X124067469Y-33991713D01*
X124067466Y-33991715D01*
X123862571Y-34128622D01*
X123634903Y-34222925D01*
X123453636Y-34258981D01*
X123393214Y-34271000D01*
X123146786Y-34271000D01*
X123086364Y-34258981D01*
X122905097Y-34222925D01*
X122677429Y-34128622D01*
X122472534Y-33991715D01*
X122472531Y-33991713D01*
X122298287Y-33817469D01*
X122220378Y-33700870D01*
X122161378Y-33612571D01*
X122067075Y-33384903D01*
X122019000Y-33143213D01*
X122019000Y-32896787D01*
X122067075Y-32655097D01*
X122161378Y-32427429D01*
X122298285Y-32222534D01*
X122298287Y-32222531D01*
X122472531Y-32048287D01*
X122473458Y-32047668D01*
X122677429Y-31911378D01*
X122905097Y-31817075D01*
X123086364Y-31781019D01*
X123146786Y-31769000D01*
X123393214Y-31769000D01*
X123453636Y-31781019D01*
X123453636Y-31781019D01*
G37*
G36*
X27921000Y-31731000D02*
X25419000Y-31731000D01*
X25419000Y-29229000D01*
X27921000Y-29229000D01*
X27921000Y-31731000D01*
X27921000Y-31731000D01*
G37*
G36*
X50781000Y-31731000D02*
X48279000Y-31731000D01*
X48279000Y-29229000D01*
X50781000Y-29229000D01*
X50781000Y-31731000D01*
X50781000Y-31731000D01*
G37*
G36*
X167926032Y-27716707D02*
X168124146Y-27776805D01*
X168306729Y-27874397D01*
X168466765Y-28005735D01*
X168598103Y-28165771D01*
X168695695Y-28348354D01*
X168755793Y-28546468D01*
X168771000Y-28700870D01*
X168771000Y-29804130D01*
X168755793Y-29958532D01*
X168695695Y-30156646D01*
X168598103Y-30339229D01*
X168598101Y-30339231D01*
X168466768Y-30499262D01*
X168466766Y-30499263D01*
X168466765Y-30499265D01*
X168306729Y-30630603D01*
X168124145Y-30728195D01*
X167926031Y-30788293D01*
X167720000Y-30808585D01*
X167513968Y-30788293D01*
X167315854Y-30728195D01*
X167133271Y-30630603D01*
X167069257Y-30578068D01*
X166973238Y-30499268D01*
X166973237Y-30499266D01*
X166973235Y-30499265D01*
X166841897Y-30339229D01*
X166744305Y-30156645D01*
X166684207Y-29958531D01*
X166669000Y-29804129D01*
X166669000Y-28700870D01*
X166673186Y-28658369D01*
X166684207Y-28546472D01*
X166744306Y-28348352D01*
X166841899Y-28165769D01*
X166973236Y-28005735D01*
X167133272Y-27874397D01*
X167315855Y-27776805D01*
X167513969Y-27716707D01*
X167720000Y-27696415D01*
X167926032Y-27716707D01*
X167926032Y-27716707D01*
G37*
G36*
X173771000Y-30803500D02*
X171669000Y-30803500D01*
X171669000Y-27701500D01*
X173771000Y-27701500D01*
X173771000Y-30803500D01*
X173771000Y-30803500D01*
G37*
G36*
X155226032Y-27674207D02*
X155424146Y-27734305D01*
X155606729Y-27831897D01*
X155766765Y-27963235D01*
X155898103Y-28123271D01*
X155995695Y-28305854D01*
X156055793Y-28503968D01*
X156071000Y-28658370D01*
X156071000Y-29761630D01*
X156055793Y-29916032D01*
X155995695Y-30114146D01*
X155898103Y-30296729D01*
X155845568Y-30360743D01*
X155766768Y-30456762D01*
X155766766Y-30456763D01*
X155766765Y-30456765D01*
X155606729Y-30588103D01*
X155424145Y-30685695D01*
X155226031Y-30745793D01*
X155020000Y-30766085D01*
X154813968Y-30745793D01*
X154615854Y-30685695D01*
X154433271Y-30588103D01*
X154325018Y-30499262D01*
X154273238Y-30456768D01*
X154273237Y-30456766D01*
X154273235Y-30456765D01*
X154141897Y-30296729D01*
X154044305Y-30114145D01*
X153984207Y-29916031D01*
X153969000Y-29761629D01*
X153969000Y-28658369D01*
X153984207Y-28503972D01*
X154044306Y-28305852D01*
X154141899Y-28123269D01*
X154273236Y-27963235D01*
X154433270Y-27831899D01*
X154433272Y-27831897D01*
X154615855Y-27734305D01*
X154813969Y-27674207D01*
X155020000Y-27653915D01*
X155226032Y-27674207D01*
X155226032Y-27674207D01*
G37*
G36*
X180626032Y-27674207D02*
X180824146Y-27734305D01*
X181006729Y-27831897D01*
X181166765Y-27963235D01*
X181298103Y-28123271D01*
X181395695Y-28305854D01*
X181455793Y-28503968D01*
X181471000Y-28658370D01*
X181471000Y-29761630D01*
X181455793Y-29916032D01*
X181395695Y-30114146D01*
X181298103Y-30296729D01*
X181245568Y-30360743D01*
X181166768Y-30456762D01*
X181166766Y-30456763D01*
X181166765Y-30456765D01*
X181006729Y-30588103D01*
X180824145Y-30685695D01*
X180626031Y-30745793D01*
X180420000Y-30766085D01*
X180213968Y-30745793D01*
X180015854Y-30685695D01*
X179833271Y-30588103D01*
X179725018Y-30499262D01*
X179673238Y-30456768D01*
X179673237Y-30456766D01*
X179673235Y-30456765D01*
X179541897Y-30296729D01*
X179444305Y-30114145D01*
X179384207Y-29916031D01*
X179369000Y-29761629D01*
X179369000Y-28658369D01*
X179384207Y-28503972D01*
X179444306Y-28305852D01*
X179541899Y-28123269D01*
X179673236Y-27963235D01*
X179833270Y-27831899D01*
X179833272Y-27831897D01*
X180015855Y-27734305D01*
X180213969Y-27674207D01*
X180420000Y-27653915D01*
X180626032Y-27674207D01*
X180626032Y-27674207D01*
G37*
G36*
X186471000Y-30761000D02*
X184369000Y-30761000D01*
X184369000Y-27659000D01*
X186471000Y-27659000D01*
X186471000Y-30761000D01*
X186471000Y-30761000D01*
G37*
G36*
X161071000Y-30761000D02*
X158969000Y-30761000D01*
X158969000Y-27659000D01*
X161071000Y-27659000D01*
X161071000Y-30761000D01*
X161071000Y-30761000D01*
G37*
G36*
X112141000Y-24511000D02*
X108839000Y-24511000D01*
X108839000Y-21209000D01*
X112141000Y-21209000D01*
X112141000Y-24511000D01*
X112141000Y-24511000D01*
G37*
G36*
X142423635Y-21621019D02*
X142604903Y-21657075D01*
X142832571Y-21751378D01*
X142927488Y-21814800D01*
X143037469Y-21888287D01*
X143211713Y-22062531D01*
X143211715Y-22062534D01*
X143348622Y-22267429D01*
X143442925Y-22495097D01*
X143491000Y-22736787D01*
X143491000Y-22983213D01*
X143442925Y-23224903D01*
X143348622Y-23452571D01*
X143277921Y-23558382D01*
X143211713Y-23657469D01*
X143037469Y-23831713D01*
X143037466Y-23831715D01*
X142832571Y-23968622D01*
X142604903Y-24062925D01*
X142454213Y-24092899D01*
X142363214Y-24111000D01*
X142116786Y-24111000D01*
X142025787Y-24092899D01*
X141875097Y-24062925D01*
X141647429Y-23968622D01*
X141442534Y-23831715D01*
X141442531Y-23831713D01*
X141268287Y-23657469D01*
X141202079Y-23558382D01*
X141131378Y-23452571D01*
X141037075Y-23224903D01*
X140989000Y-22983213D01*
X140989000Y-22736787D01*
X141037075Y-22495097D01*
X141131378Y-22267429D01*
X141268285Y-22062534D01*
X141268287Y-22062531D01*
X141442531Y-21888287D01*
X141552512Y-21814800D01*
X141647429Y-21751378D01*
X141875097Y-21657075D01*
X142056365Y-21621019D01*
X142116786Y-21609000D01*
X142363214Y-21609000D01*
X142423635Y-21621019D01*
X142423635Y-21621019D01*
G37*
G36*
X100513635Y-21621019D02*
X100694903Y-21657075D01*
X100922571Y-21751378D01*
X101017488Y-21814800D01*
X101127469Y-21888287D01*
X101301713Y-22062531D01*
X101301715Y-22062534D01*
X101438622Y-22267429D01*
X101532925Y-22495097D01*
X101581000Y-22736787D01*
X101581000Y-22983213D01*
X101532925Y-23224903D01*
X101438622Y-23452571D01*
X101367921Y-23558382D01*
X101301713Y-23657469D01*
X101127469Y-23831713D01*
X101127466Y-23831715D01*
X100922571Y-23968622D01*
X100694903Y-24062925D01*
X100544213Y-24092899D01*
X100453214Y-24111000D01*
X100206786Y-24111000D01*
X100115787Y-24092899D01*
X99965097Y-24062925D01*
X99737429Y-23968622D01*
X99532534Y-23831715D01*
X99532531Y-23831713D01*
X99358287Y-23657469D01*
X99292079Y-23558382D01*
X99221378Y-23452571D01*
X99127075Y-23224903D01*
X99079000Y-22983213D01*
X99079000Y-22736787D01*
X99127075Y-22495097D01*
X99221378Y-22267429D01*
X99358285Y-22062534D01*
X99358287Y-22062531D01*
X99532531Y-21888287D01*
X99642512Y-21814800D01*
X99737429Y-21751378D01*
X99965097Y-21657075D01*
X100146365Y-21621019D01*
X100206786Y-21609000D01*
X100453214Y-21609000D01*
X100513635Y-21621019D01*
X100513635Y-21621019D01*
G37*
G36*
X67555239Y-21627101D02*
X67791053Y-21698634D01*
X68008381Y-21814799D01*
X68198871Y-21971129D01*
X68355201Y-22161619D01*
X68471366Y-22378947D01*
X68542899Y-22614761D01*
X68567053Y-22860000D01*
X68542899Y-23105239D01*
X68471366Y-23341053D01*
X68355201Y-23558381D01*
X68198871Y-23748871D01*
X68008381Y-23905201D01*
X67791053Y-24021366D01*
X67555239Y-24092899D01*
X67371457Y-24111000D01*
X67248543Y-24111000D01*
X67064761Y-24092899D01*
X66828947Y-24021366D01*
X66611619Y-23905201D01*
X66421129Y-23748871D01*
X66264799Y-23558381D01*
X66148634Y-23341053D01*
X66077101Y-23105239D01*
X66052947Y-22860000D01*
X66077101Y-22614761D01*
X66148634Y-22378947D01*
X66264799Y-22161619D01*
X66421129Y-21971129D01*
X66611619Y-21814799D01*
X66828947Y-21698634D01*
X67064761Y-21627101D01*
X67248543Y-21609000D01*
X67371457Y-21609000D01*
X67555239Y-21627101D01*
X67555239Y-21627101D01*
G37*
M02*
