G04 #@! TF.GenerationSoftware,KiCad,Pcbnew,(5.0.2)-1*
G04 #@! TF.CreationDate,2020-01-14T22:42:55+01:00*
G04 #@! TF.ProjectId,WW-Board-Master V2,57572d42-6f61-4726-942d-4d6173746572,rev?*
G04 #@! TF.SameCoordinates,Original*
G04 #@! TF.FileFunction,Copper,L1,Top*
G04 #@! TF.FilePolarity,Positive*
%FSLAX46Y46*%
G04 Gerber Fmt 4.6, Leading zero omitted, Abs format (unit mm)*
G04 Created by KiCad (PCBNEW (5.0.2)-1) date 14.01.2020 22:42:55*
%MOMM*%
%LPD*%
G01*
G04 APERTURE LIST*
G04 #@! TA.AperFunction,ComponentPad*
%ADD10C,0.900000*%
G04 #@! TD*
G04 #@! TA.AperFunction,ComponentPad*
%ADD11C,8.600000*%
G04 #@! TD*
G04 #@! TA.AperFunction,ComponentPad*
%ADD12C,7.000000*%
G04 #@! TD*
G04 #@! TA.AperFunction,ComponentPad*
%ADD13C,0.800000*%
G04 #@! TD*
G04 #@! TA.AperFunction,ComponentPad*
%ADD14C,2.400000*%
G04 #@! TD*
G04 #@! TA.AperFunction,ComponentPad*
%ADD15R,2.400000X2.400000*%
G04 #@! TD*
G04 #@! TA.AperFunction,ComponentPad*
%ADD16O,3.200000X3.200000*%
G04 #@! TD*
G04 #@! TA.AperFunction,ComponentPad*
%ADD17R,3.200000X3.200000*%
G04 #@! TD*
G04 #@! TA.AperFunction,ComponentPad*
%ADD18R,3.000000X2.000000*%
G04 #@! TD*
G04 #@! TA.AperFunction,ComponentPad*
%ADD19O,3.000000X2.000000*%
G04 #@! TD*
G04 #@! TA.AperFunction,ComponentPad*
%ADD20R,2.000000X3.000000*%
G04 #@! TD*
G04 #@! TA.AperFunction,ComponentPad*
%ADD21O,2.000000X3.000000*%
G04 #@! TD*
G04 #@! TA.AperFunction,ComponentPad*
%ADD22O,2.400000X2.400000*%
G04 #@! TD*
G04 #@! TA.AperFunction,Conductor*
%ADD23C,1.750000*%
G04 #@! TD*
G04 #@! TA.AperFunction,Conductor*
%ADD24C,0.750000*%
G04 #@! TD*
G04 #@! TA.AperFunction,Conductor*
%ADD25C,0.254000*%
G04 #@! TD*
G04 APERTURE END LIST*
D10*
G04 #@! TO.P,REF_09_1,1*
G04 #@! TO.N,N/C*
X29280419Y-187719581D03*
X27000000Y-186775000D03*
X24719581Y-187719581D03*
X23775000Y-190000000D03*
X24719581Y-192280419D03*
X27000000Y-193225000D03*
X29280419Y-192280419D03*
X30225000Y-190000000D03*
D11*
X27000000Y-190000000D03*
G04 #@! TD*
G04 #@! TO.P,REF_09_3,1*
G04 #@! TO.N,N/C*
X182000000Y-161000000D03*
D10*
X185225000Y-161000000D03*
X184280419Y-163280419D03*
X182000000Y-164225000D03*
X179719581Y-163280419D03*
X178775000Y-161000000D03*
X179719581Y-158719581D03*
X182000000Y-157775000D03*
X184280419Y-158719581D03*
G04 #@! TD*
D11*
G04 #@! TO.P,REF_09_2,1*
G04 #@! TO.N,N/C*
X182000000Y-190000000D03*
D10*
X185225000Y-190000000D03*
X184280419Y-192280419D03*
X182000000Y-193225000D03*
X179719581Y-192280419D03*
X178775000Y-190000000D03*
X179719581Y-187719581D03*
X182000000Y-186775000D03*
X184280419Y-187719581D03*
G04 #@! TD*
D12*
G04 #@! TO.P,REF_S2,1*
G04 #@! TO.N,N/C*
X103420000Y-130600000D03*
D13*
X106045000Y-130600000D03*
X105276155Y-132456155D03*
X103420000Y-133225000D03*
X101563845Y-132456155D03*
X100795000Y-130600000D03*
X101563845Y-128743845D03*
X103420000Y-127975000D03*
X105276155Y-128743845D03*
G04 #@! TD*
D12*
G04 #@! TO.P,REF_S1,1*
G04 #@! TO.N,N/C*
X103420000Y-70600000D03*
D13*
X106045000Y-70600000D03*
X105276155Y-72456155D03*
X103420000Y-73225000D03*
X101563845Y-72456155D03*
X100795000Y-70600000D03*
X101563845Y-68743845D03*
X103420000Y-67975000D03*
X105276155Y-68743845D03*
G04 #@! TD*
D10*
G04 #@! TO.P,REF05,1*
G04 #@! TO.N,N/C*
X178455419Y-145099581D03*
X176175000Y-144155000D03*
X173894581Y-145099581D03*
X172950000Y-147380000D03*
X173894581Y-149660419D03*
X176175000Y-150605000D03*
X178455419Y-149660419D03*
X179400000Y-147380000D03*
D11*
X176175000Y-147380000D03*
G04 #@! TD*
D10*
G04 #@! TO.P,REF_04,1*
G04 #@! TO.N,N/C*
X148455419Y-111099581D03*
X146175000Y-110155000D03*
X143894581Y-111099581D03*
X142950000Y-113380000D03*
X143894581Y-115660419D03*
X146175000Y-116605000D03*
X148455419Y-115660419D03*
X149400000Y-113380000D03*
D11*
X146175000Y-113380000D03*
G04 #@! TD*
D10*
G04 #@! TO.P,REF_09_4,1*
G04 #@! TO.N,N/C*
X148455419Y-169099581D03*
X146175000Y-168155000D03*
X143894581Y-169099581D03*
X142950000Y-171380000D03*
X143894581Y-173660419D03*
X146175000Y-174605000D03*
X148455419Y-173660419D03*
X149400000Y-171380000D03*
D11*
X146175000Y-171380000D03*
G04 #@! TD*
D10*
G04 #@! TO.P,REF_08,1*
G04 #@! TO.N,N/C*
X99455419Y-169099581D03*
X97175000Y-168155000D03*
X94894581Y-169099581D03*
X93950000Y-171380000D03*
X94894581Y-173660419D03*
X97175000Y-174605000D03*
X99455419Y-173660419D03*
X100400000Y-171380000D03*
D11*
X97175000Y-171380000D03*
G04 #@! TD*
D10*
G04 #@! TO.P,REF_03,1*
G04 #@! TO.N,N/C*
X99735419Y-111099581D03*
X97455000Y-110155000D03*
X95174581Y-111099581D03*
X94230000Y-113380000D03*
X95174581Y-115660419D03*
X97455000Y-116605000D03*
X99735419Y-115660419D03*
X100680000Y-113380000D03*
D11*
X97455000Y-113380000D03*
G04 #@! TD*
G04 #@! TO.P,REF_01,1*
G04 #@! TO.N,N/C*
X32175000Y-113380000D03*
D10*
X35400000Y-113380000D03*
X34455419Y-115660419D03*
X32175000Y-116605000D03*
X29894581Y-115660419D03*
X28950000Y-113380000D03*
X29894581Y-111099581D03*
X32175000Y-110155000D03*
X34455419Y-111099581D03*
G04 #@! TD*
D11*
G04 #@! TO.P,REF_02,1*
G04 #@! TO.N,N/C*
X81175000Y-113380000D03*
D10*
X84400000Y-113380000D03*
X83455419Y-115660419D03*
X81175000Y-116605000D03*
X78894581Y-115660419D03*
X77950000Y-113380000D03*
X78894581Y-111099581D03*
X81175000Y-110155000D03*
X83455419Y-111099581D03*
G04 #@! TD*
D11*
G04 #@! TO.P,REF_07,1*
G04 #@! TO.N,N/C*
X81175000Y-171380000D03*
D10*
X84400000Y-171380000D03*
X83455419Y-173660419D03*
X81175000Y-174605000D03*
X78894581Y-173660419D03*
X77950000Y-171380000D03*
X78894581Y-169099581D03*
X81175000Y-168155000D03*
X83455419Y-169099581D03*
G04 #@! TD*
G04 #@! TO.P,REF_06,1*
G04 #@! TO.N,N/C*
X34455419Y-169099581D03*
X32175000Y-168155000D03*
X29894581Y-169099581D03*
X28950000Y-171380000D03*
X29894581Y-173660419D03*
X32175000Y-174605000D03*
X34455419Y-173660419D03*
X35400000Y-171380000D03*
D11*
X32175000Y-171380000D03*
G04 #@! TD*
D14*
G04 #@! TO.P,C7,2*
G04 #@! TO.N,GND*
X81360000Y-33020000D03*
D15*
G04 #@! TO.P,C7,1*
G04 #@! TO.N,Net-(C7-Pad1)*
X86360000Y-33020000D03*
G04 #@! TD*
G04 #@! TO.P,C8,1*
G04 #@! TO.N,Net-(C7-Pad1)*
X86360000Y-55880000D03*
D14*
G04 #@! TO.P,C8,2*
G04 #@! TO.N,GND*
X81360000Y-55880000D03*
G04 #@! TD*
G04 #@! TO.P,C9,2*
G04 #@! TO.N,GND*
X123270000Y-33020000D03*
D15*
G04 #@! TO.P,C9,1*
G04 #@! TO.N,Net-(C10-Pad1)*
X128270000Y-33020000D03*
G04 #@! TD*
G04 #@! TO.P,C10,1*
G04 #@! TO.N,Net-(C10-Pad1)*
X128270000Y-54610000D03*
D14*
G04 #@! TO.P,C10,2*
G04 #@! TO.N,GND*
X123270000Y-54610000D03*
G04 #@! TD*
G04 #@! TO.P,C11,2*
G04 #@! TO.N,GND*
X175340000Y-57150000D03*
D15*
G04 #@! TO.P,C11,1*
G04 #@! TO.N,Net-(C11-Pad1)*
X180340000Y-57150000D03*
G04 #@! TD*
G04 #@! TO.P,C12,1*
G04 #@! TO.N,Net-(C11-Pad1)*
X180340000Y-78740000D03*
D14*
G04 #@! TO.P,C12,2*
G04 #@! TO.N,GND*
X175340000Y-78740000D03*
G04 #@! TD*
D16*
G04 #@! TO.P,D1,2*
G04 #@! TO.N,Net-(D1-Pad2)*
X82550000Y-71120000D03*
D17*
G04 #@! TO.P,D1,1*
G04 #@! TO.N,Net-(D1-Pad1)*
X82550000Y-86360000D03*
G04 #@! TD*
G04 #@! TO.P,D2,1*
G04 #@! TO.N,Net-(D1-Pad1)*
X74930000Y-86360000D03*
D16*
G04 #@! TO.P,D2,2*
G04 #@! TO.N,Net-(C1-Pad1)*
X74930000Y-71120000D03*
G04 #@! TD*
G04 #@! TO.P,D3,2*
G04 #@! TO.N,Net-(D1-Pad1)*
X67310000Y-86360000D03*
D17*
G04 #@! TO.P,D3,1*
G04 #@! TO.N,Net-(D3-Pad1)*
X67310000Y-71120000D03*
G04 #@! TD*
G04 #@! TO.P,D4,1*
G04 #@! TO.N,Net-(D4-Pad1)*
X110490000Y-68580000D03*
D16*
G04 #@! TO.P,D4,2*
G04 #@! TO.N,Net-(D4-Pad2)*
X125730000Y-68580000D03*
G04 #@! TD*
G04 #@! TO.P,D5,2*
G04 #@! TO.N,Net-(C7-Pad1)*
X110490000Y-58420000D03*
D17*
G04 #@! TO.P,D5,1*
G04 #@! TO.N,Net-(D4-Pad1)*
X110490000Y-43180000D03*
G04 #@! TD*
G04 #@! TO.P,D6,1*
G04 #@! TO.N,Net-(D6-Pad1)*
X110490000Y-22860000D03*
D16*
G04 #@! TO.P,D6,2*
G04 #@! TO.N,Net-(D4-Pad1)*
X110490000Y-38100000D03*
G04 #@! TD*
D17*
G04 #@! TO.P,D7,1*
G04 #@! TO.N,Net-(D7-Pad1)*
X158750000Y-55880000D03*
D16*
G04 #@! TO.P,D7,2*
G04 #@! TO.N,Net-(D4-Pad2)*
X158750000Y-71120000D03*
G04 #@! TD*
D17*
G04 #@! TO.P,D8,1*
G04 #@! TO.N,Net-(D7-Pad1)*
X151130000Y-55880000D03*
D16*
G04 #@! TO.P,D8,2*
G04 #@! TO.N,Net-(C10-Pad1)*
X151130000Y-71120000D03*
G04 #@! TD*
G04 #@! TO.P,D9,2*
G04 #@! TO.N,Net-(D7-Pad1)*
X151130000Y-49530000D03*
D17*
G04 #@! TO.P,D9,1*
G04 #@! TO.N,Net-(D9-Pad1)*
X166370000Y-49530000D03*
G04 #@! TD*
D16*
G04 #@! TO.P,D10,2*
G04 #@! TO.N,Net-(D10-Pad2)*
X165100000Y-77470000D03*
D17*
G04 #@! TO.P,D10,1*
G04 #@! TO.N,Net-(D10-Pad1)*
X149860000Y-77470000D03*
G04 #@! TD*
G04 #@! TO.P,D11,1*
G04 #@! TO.N,Net-(D10-Pad1)*
X149860000Y-85090000D03*
D16*
G04 #@! TO.P,D11,2*
G04 #@! TO.N,Net-(C11-Pad1)*
X165100000Y-85090000D03*
G04 #@! TD*
G04 #@! TO.P,D12,2*
G04 #@! TO.N,Net-(D10-Pad1)*
X143510000Y-71120000D03*
D17*
G04 #@! TO.P,D12,1*
G04 #@! TO.N,Net-(D12-Pad1)*
X143510000Y-86360000D03*
G04 #@! TD*
D18*
G04 #@! TO.P,J10,1*
G04 #@! TO.N,Net-(D10-Pad1)*
X44450000Y-95250000D03*
X49450000Y-97750000D03*
D19*
G04 #@! TO.P,J10,2*
G04 #@! TO.N,GND*
X44450000Y-100250000D03*
X49450000Y-102750000D03*
G04 #@! TD*
D18*
G04 #@! TO.P,J20,1*
G04 #@! TO.N,Net-(D7-Pad1)*
X64770000Y-101244000D03*
X59770000Y-98744000D03*
D19*
G04 #@! TO.P,J20,2*
G04 #@! TO.N,GND*
X64770000Y-96244000D03*
X59770000Y-93744000D03*
G04 #@! TD*
D18*
G04 #@! TO.P,J21,1*
G04 #@! TO.N,Net-(D4-Pad1)*
X121920000Y-101257000D03*
X116920000Y-98757000D03*
D19*
G04 #@! TO.P,J21,2*
G04 #@! TO.N,GND*
X121920000Y-96257000D03*
X116920000Y-93757000D03*
G04 #@! TD*
G04 #@! TO.P,J22,2*
G04 #@! TO.N,GND*
X106600000Y-102750000D03*
X101600000Y-100250000D03*
D18*
G04 #@! TO.P,J22,1*
G04 #@! TO.N,Net-(D1-Pad1)*
X106600000Y-97750000D03*
X101600000Y-95250000D03*
G04 #@! TD*
D20*
G04 #@! TO.P,J30,1*
G04 #@! TO.N,Net-(D1-Pad2)*
X160020000Y-29210000D03*
X157520000Y-34210000D03*
D21*
G04 #@! TO.P,J30,2*
G04 #@! TO.N,GND*
X155020000Y-29210000D03*
X152520000Y-34210000D03*
G04 #@! TD*
G04 #@! TO.P,J31,2*
G04 #@! TO.N,GND*
X165220000Y-34252500D03*
X167720000Y-29252500D03*
D20*
G04 #@! TO.P,J31,1*
G04 #@! TO.N,Net-(D4-Pad2)*
X170220000Y-34252500D03*
X172720000Y-29252500D03*
G04 #@! TD*
D21*
G04 #@! TO.P,J32,2*
G04 #@! TO.N,GND*
X177920000Y-34210000D03*
X180420000Y-29210000D03*
D20*
G04 #@! TO.P,J32,1*
G04 #@! TO.N,Net-(D10-Pad2)*
X182920000Y-34210000D03*
X185420000Y-29210000D03*
G04 #@! TD*
D22*
G04 #@! TO.P,R1,2*
G04 #@! TO.N,Net-(C1-Pad1)*
X67310000Y-22860000D03*
D14*
G04 #@! TO.P,R1,1*
G04 #@! TO.N,Net-(D3-Pad1)*
X67310000Y-63500000D03*
G04 #@! TD*
G04 #@! TO.P,R2,1*
G04 #@! TO.N,Net-(D6-Pad1)*
X100330000Y-22860000D03*
D22*
G04 #@! TO.P,R2,2*
G04 #@! TO.N,Net-(C7-Pad1)*
X100330000Y-63500000D03*
G04 #@! TD*
G04 #@! TO.P,R3,2*
G04 #@! TO.N,Net-(C10-Pad1)*
X142240000Y-63500000D03*
D14*
G04 #@! TO.P,R3,1*
G04 #@! TO.N,Net-(D9-Pad1)*
X142240000Y-22860000D03*
G04 #@! TD*
G04 #@! TO.P,R4,1*
G04 #@! TO.N,Net-(D12-Pad1)*
X143510000Y-95250000D03*
D22*
G04 #@! TO.P,R4,2*
G04 #@! TO.N,Net-(C11-Pad1)*
X184150000Y-95250000D03*
G04 #@! TD*
D15*
G04 #@! TO.P,C2,1*
G04 #@! TO.N,Net-(C1-Pad1)*
X49530000Y-30480000D03*
D14*
G04 #@! TO.P,C2,2*
G04 #@! TO.N,Net-(C2-Pad2)*
X49530000Y-35480000D03*
G04 #@! TD*
D15*
G04 #@! TO.P,C3,1*
G04 #@! TO.N,Net-(C1-Pad2)*
X26670000Y-53340000D03*
D14*
G04 #@! TO.P,C3,2*
G04 #@! TO.N,Net-(C3-Pad2)*
X26670000Y-58340000D03*
G04 #@! TD*
D15*
G04 #@! TO.P,C4,1*
G04 #@! TO.N,Net-(C2-Pad2)*
X49530000Y-53340000D03*
D14*
G04 #@! TO.P,C4,2*
G04 #@! TO.N,Net-(C4-Pad2)*
X49530000Y-58340000D03*
G04 #@! TD*
G04 #@! TO.P,C5,2*
G04 #@! TO.N,GND*
X26670000Y-81200000D03*
D15*
G04 #@! TO.P,C5,1*
G04 #@! TO.N,Net-(C3-Pad2)*
X26670000Y-76200000D03*
G04 #@! TD*
D14*
G04 #@! TO.P,C6,2*
G04 #@! TO.N,GND*
X49530000Y-81200000D03*
D15*
G04 #@! TO.P,C6,1*
G04 #@! TO.N,Net-(C4-Pad2)*
X49530000Y-76200000D03*
G04 #@! TD*
G04 #@! TO.P,C1,1*
G04 #@! TO.N,Net-(C1-Pad1)*
X26670000Y-30480000D03*
D14*
G04 #@! TO.P,C1,2*
G04 #@! TO.N,Net-(C1-Pad2)*
X26670000Y-35480000D03*
G04 #@! TD*
D23*
G04 #@! TO.N,Net-(C1-Pad2)*
X26670000Y-35480000D02*
X26670000Y-53340000D01*
G04 #@! TO.N,Net-(D1-Pad2)*
X157520000Y-34210000D02*
X157520000Y-31434700D01*
X157520000Y-31434700D02*
X157795300Y-31434700D01*
X157795300Y-31434700D02*
X160020000Y-29210000D01*
G04 #@! TO.N,Net-(D4-Pad2)*
X170220000Y-34252500D02*
X170220000Y-56774700D01*
X170220000Y-56774700D02*
X158750000Y-68244700D01*
X172720000Y-32027800D02*
X172444700Y-32027800D01*
X172444700Y-32027800D02*
X170220000Y-34252500D01*
X158750000Y-71120000D02*
X158750000Y-68244700D01*
X172720000Y-29252500D02*
X172720000Y-32027800D01*
G04 #@! TO.N,Net-(C2-Pad2)*
X49530000Y-53340000D02*
X49530000Y-35480000D01*
G04 #@! TO.N,Net-(C3-Pad2)*
X26670000Y-76200000D02*
X26670000Y-58340000D01*
G04 #@! TO.N,Net-(C4-Pad2)*
X49530000Y-76200000D02*
X49530000Y-58340000D01*
D24*
G04 #@! TO.N,GND*
X64770000Y-96244000D02*
X62520000Y-96244000D01*
X60193700Y-93744000D02*
X62520000Y-96070300D01*
X62520000Y-96070300D02*
X62520000Y-96244000D01*
X59981900Y-93744000D02*
X60193700Y-93744000D01*
X59770000Y-93744000D02*
X59981900Y-93744000D01*
X175340000Y-57150000D02*
X175340000Y-78740000D01*
X177920000Y-34210000D02*
X177920000Y-54570000D01*
X177920000Y-54570000D02*
X175340000Y-57150000D01*
X60193700Y-82602900D02*
X60193700Y-93744000D01*
X60193700Y-82602900D02*
X50932900Y-82602900D01*
X50932900Y-82602900D02*
X49530000Y-81200000D01*
X81360000Y-55880000D02*
X71676600Y-65563400D01*
X71676600Y-65563400D02*
X71676600Y-71120000D01*
X71676600Y-71120000D02*
X60193700Y-82602900D01*
X123270000Y-54610000D02*
X123270000Y-89657000D01*
X123270000Y-89657000D02*
X119170000Y-93757000D01*
X123270000Y-33020000D02*
X123270000Y-54610000D01*
X116920000Y-93757000D02*
X119170000Y-93757000D01*
X121920000Y-96257000D02*
X119670000Y-96257000D01*
X119170000Y-93757000D02*
X119170000Y-95757000D01*
X119170000Y-95757000D02*
X119670000Y-96257000D01*
X81360000Y-55880000D02*
X81360000Y-33020000D01*
X49450000Y-102750000D02*
X47200000Y-102750000D01*
X44450000Y-100250000D02*
X46700000Y-100250000D01*
X47200000Y-102750000D02*
X47200000Y-100750000D01*
X47200000Y-100750000D02*
X46700000Y-100250000D01*
D23*
G04 #@! TO.N,Net-(C7-Pad1)*
X87597700Y-55880000D02*
X86360000Y-54642300D01*
X86360000Y-54642300D02*
X86360000Y-33020000D01*
X87597700Y-55880000D02*
X88835300Y-55880000D01*
X86360000Y-55880000D02*
X87597700Y-55880000D01*
X100330000Y-63500000D02*
X96455300Y-63500000D01*
X96455300Y-63500000D02*
X88835300Y-55880000D01*
G04 #@! TO.N,Net-(C10-Pad1)*
X128270000Y-54610000D02*
X128270000Y-33020000D01*
X151130000Y-71120000D02*
X151130000Y-68244700D01*
X142240000Y-63500000D02*
X144715300Y-63500000D01*
X144715300Y-63500000D02*
X149460000Y-68244700D01*
X149460000Y-68244700D02*
X151130000Y-68244700D01*
G04 #@! TO.N,Net-(C11-Pad1)*
X180340000Y-85090000D02*
X180340000Y-78740000D01*
X184150000Y-92774700D02*
X180340000Y-88964700D01*
X180340000Y-88964700D02*
X180340000Y-85090000D01*
X180340000Y-85090000D02*
X167975300Y-85090000D01*
X165100000Y-85090000D02*
X167975300Y-85090000D01*
X184150000Y-95250000D02*
X184150000Y-92774700D01*
G04 #@! TO.N,Net-(D3-Pad1)*
X67310000Y-63500000D02*
X67310000Y-71120000D01*
G04 #@! TO.N,Net-(D4-Pad1)*
X110490000Y-43180000D02*
X110490000Y-46055300D01*
X110490000Y-46055300D02*
X107614700Y-48930600D01*
X107614700Y-48930600D02*
X107614700Y-62829400D01*
X107614700Y-62829400D02*
X110490000Y-65704700D01*
X110490000Y-38100000D02*
X110490000Y-43180000D01*
X110490000Y-68580000D02*
X110490000Y-65704700D01*
X110490000Y-68580000D02*
X110490000Y-71455300D01*
X116920000Y-98757000D02*
X114144700Y-98757000D01*
X114144700Y-98757000D02*
X114144700Y-75110000D01*
X114144700Y-75110000D02*
X110490000Y-71455300D01*
G04 #@! TO.N,Net-(D7-Pad1)*
X151130000Y-55880000D02*
X146340400Y-55880000D01*
X146340400Y-55880000D02*
X130739600Y-71480800D01*
X130739600Y-71480800D02*
X130739600Y-96745600D01*
X130739600Y-96745600D02*
X122451300Y-105033900D01*
X122451300Y-105033900D02*
X71335200Y-105033900D01*
X71335200Y-105033900D02*
X67545300Y-101244000D01*
X64770000Y-101244000D02*
X67545300Y-101244000D01*
X151130000Y-55880000D02*
X151130000Y-49530000D01*
G04 #@! TO.N,Net-(D9-Pad1)*
X166370000Y-49530000D02*
X163494700Y-49530000D01*
X142240000Y-22860000D02*
X142240000Y-28275300D01*
X142240000Y-28275300D02*
X163494700Y-49530000D01*
G04 #@! TO.N,Net-(D10-Pad2)*
X185420000Y-31985300D02*
X185144700Y-31985300D01*
X185144700Y-31985300D02*
X182920000Y-34210000D01*
X185420000Y-29210000D02*
X185420000Y-31985300D01*
G04 #@! TO.N,Net-(D10-Pad1)*
X49450000Y-97750000D02*
X46674700Y-97750000D01*
X46674700Y-97750000D02*
X46674700Y-97474700D01*
X46674700Y-97474700D02*
X44450000Y-95250000D01*
X143510000Y-71120000D02*
X143510000Y-73995300D01*
X149860000Y-77470000D02*
X146984700Y-77470000D01*
X146984700Y-77470000D02*
X143510000Y-73995300D01*
X149860000Y-85090000D02*
X149860000Y-77470000D01*
G04 #@! TO.N,Net-(D12-Pad1)*
X143510000Y-95250000D02*
X143510000Y-86360000D01*
G04 #@! TD*
D25*
G04 #@! TO.N,GND*
G36*
X191957787Y-13454065D02*
X192122920Y-13549405D01*
X192245488Y-13695477D01*
X192321555Y-13904465D01*
X192330000Y-14000996D01*
X192330001Y-193667875D01*
X192285935Y-193917787D01*
X192190596Y-194082919D01*
X192044524Y-194205488D01*
X191835532Y-194281555D01*
X191739004Y-194290000D01*
X184538800Y-194290000D01*
X184795453Y-194183691D01*
X186183691Y-192795453D01*
X186935000Y-190981632D01*
X186935000Y-189018368D01*
X186183691Y-187204547D01*
X184795453Y-185816309D01*
X182981632Y-185065000D01*
X181018368Y-185065000D01*
X179204547Y-185816309D01*
X177816309Y-187204547D01*
X177065000Y-189018368D01*
X177065000Y-190981632D01*
X177816309Y-192795453D01*
X179204547Y-194183691D01*
X179461200Y-194290000D01*
X29538800Y-194290000D01*
X29795453Y-194183691D01*
X31183691Y-192795453D01*
X31935000Y-190981632D01*
X31935000Y-189018368D01*
X31183691Y-187204547D01*
X29795453Y-185816309D01*
X27981632Y-185065000D01*
X26018368Y-185065000D01*
X24204547Y-185816309D01*
X22816309Y-187204547D01*
X22065000Y-189018368D01*
X22065000Y-190981632D01*
X22816309Y-192795453D01*
X24204547Y-194183691D01*
X24461200Y-194290000D01*
X15302119Y-194290000D01*
X15052213Y-194245935D01*
X14887081Y-194150596D01*
X14764512Y-194004524D01*
X14688445Y-193795532D01*
X14680000Y-193699004D01*
X14680000Y-170398368D01*
X27240000Y-170398368D01*
X27240000Y-172361632D01*
X27991309Y-174175453D01*
X29379547Y-175563691D01*
X31193368Y-176315000D01*
X33156632Y-176315000D01*
X34970453Y-175563691D01*
X36358691Y-174175453D01*
X37110000Y-172361632D01*
X37110000Y-170398368D01*
X76240000Y-170398368D01*
X76240000Y-172361632D01*
X76991309Y-174175453D01*
X78379547Y-175563691D01*
X80193368Y-176315000D01*
X82156632Y-176315000D01*
X83970453Y-175563691D01*
X85358691Y-174175453D01*
X86110000Y-172361632D01*
X86110000Y-170398368D01*
X92240000Y-170398368D01*
X92240000Y-172361632D01*
X92991309Y-174175453D01*
X94379547Y-175563691D01*
X96193368Y-176315000D01*
X98156632Y-176315000D01*
X99970453Y-175563691D01*
X101358691Y-174175453D01*
X102110000Y-172361632D01*
X102110000Y-170398368D01*
X141240000Y-170398368D01*
X141240000Y-172361632D01*
X141991309Y-174175453D01*
X143379547Y-175563691D01*
X145193368Y-176315000D01*
X147156632Y-176315000D01*
X148970453Y-175563691D01*
X150358691Y-174175453D01*
X151110000Y-172361632D01*
X151110000Y-170398368D01*
X150358691Y-168584547D01*
X148970453Y-167196309D01*
X147156632Y-166445000D01*
X145193368Y-166445000D01*
X143379547Y-167196309D01*
X141991309Y-168584547D01*
X141240000Y-170398368D01*
X102110000Y-170398368D01*
X101358691Y-168584547D01*
X99970453Y-167196309D01*
X98156632Y-166445000D01*
X96193368Y-166445000D01*
X94379547Y-167196309D01*
X92991309Y-168584547D01*
X92240000Y-170398368D01*
X86110000Y-170398368D01*
X85358691Y-168584547D01*
X83970453Y-167196309D01*
X82156632Y-166445000D01*
X80193368Y-166445000D01*
X78379547Y-167196309D01*
X76991309Y-168584547D01*
X76240000Y-170398368D01*
X37110000Y-170398368D01*
X36358691Y-168584547D01*
X34970453Y-167196309D01*
X33156632Y-166445000D01*
X31193368Y-166445000D01*
X29379547Y-167196309D01*
X27991309Y-168584547D01*
X27240000Y-170398368D01*
X14680000Y-170398368D01*
X14680000Y-160018368D01*
X177065000Y-160018368D01*
X177065000Y-161981632D01*
X177816309Y-163795453D01*
X179204547Y-165183691D01*
X181018368Y-165935000D01*
X182981632Y-165935000D01*
X184795453Y-165183691D01*
X186183691Y-163795453D01*
X186935000Y-161981632D01*
X186935000Y-160018368D01*
X186183691Y-158204547D01*
X184795453Y-156816309D01*
X182981632Y-156065000D01*
X181018368Y-156065000D01*
X179204547Y-156816309D01*
X177816309Y-158204547D01*
X177065000Y-160018368D01*
X14680000Y-160018368D01*
X14680000Y-146398368D01*
X171240000Y-146398368D01*
X171240000Y-148361632D01*
X171991309Y-150175453D01*
X173379547Y-151563691D01*
X175193368Y-152315000D01*
X177156632Y-152315000D01*
X178970453Y-151563691D01*
X180358691Y-150175453D01*
X181110000Y-148361632D01*
X181110000Y-146398368D01*
X180358691Y-144584547D01*
X178970453Y-143196309D01*
X177156632Y-142445000D01*
X175193368Y-142445000D01*
X173379547Y-143196309D01*
X171991309Y-144584547D01*
X171240000Y-146398368D01*
X14680000Y-146398368D01*
X14680000Y-129777497D01*
X99285000Y-129777497D01*
X99285000Y-131422503D01*
X99914517Y-132942289D01*
X101077711Y-134105483D01*
X102597497Y-134735000D01*
X104242503Y-134735000D01*
X105762289Y-134105483D01*
X106925483Y-132942289D01*
X107555000Y-131422503D01*
X107555000Y-129777497D01*
X106925483Y-128257711D01*
X105762289Y-127094517D01*
X104242503Y-126465000D01*
X102597497Y-126465000D01*
X101077711Y-127094517D01*
X99914517Y-128257711D01*
X99285000Y-129777497D01*
X14680000Y-129777497D01*
X14680000Y-112398368D01*
X27240000Y-112398368D01*
X27240000Y-114361632D01*
X27991309Y-116175453D01*
X29379547Y-117563691D01*
X31193368Y-118315000D01*
X33156632Y-118315000D01*
X34970453Y-117563691D01*
X36358691Y-116175453D01*
X37110000Y-114361632D01*
X37110000Y-112398368D01*
X76240000Y-112398368D01*
X76240000Y-114361632D01*
X76991309Y-116175453D01*
X78379547Y-117563691D01*
X80193368Y-118315000D01*
X82156632Y-118315000D01*
X83970453Y-117563691D01*
X85358691Y-116175453D01*
X86110000Y-114361632D01*
X86110000Y-112398368D01*
X92520000Y-112398368D01*
X92520000Y-114361632D01*
X93271309Y-116175453D01*
X94659547Y-117563691D01*
X96473368Y-118315000D01*
X98436632Y-118315000D01*
X100250453Y-117563691D01*
X101638691Y-116175453D01*
X102390000Y-114361632D01*
X102390000Y-112398368D01*
X141240000Y-112398368D01*
X141240000Y-114361632D01*
X141991309Y-116175453D01*
X143379547Y-117563691D01*
X145193368Y-118315000D01*
X147156632Y-118315000D01*
X148970453Y-117563691D01*
X150358691Y-116175453D01*
X151110000Y-114361632D01*
X151110000Y-112398368D01*
X150358691Y-110584547D01*
X148970453Y-109196309D01*
X147156632Y-108445000D01*
X145193368Y-108445000D01*
X143379547Y-109196309D01*
X141991309Y-110584547D01*
X141240000Y-112398368D01*
X102390000Y-112398368D01*
X101638691Y-110584547D01*
X100250453Y-109196309D01*
X98436632Y-108445000D01*
X96473368Y-108445000D01*
X94659547Y-109196309D01*
X93271309Y-110584547D01*
X92520000Y-112398368D01*
X86110000Y-112398368D01*
X85358691Y-110584547D01*
X83970453Y-109196309D01*
X82156632Y-108445000D01*
X80193368Y-108445000D01*
X78379547Y-109196309D01*
X76991309Y-110584547D01*
X76240000Y-112398368D01*
X37110000Y-112398368D01*
X36358691Y-110584547D01*
X34970453Y-109196309D01*
X33156632Y-108445000D01*
X31193368Y-108445000D01*
X29379547Y-109196309D01*
X27991309Y-110584547D01*
X27240000Y-112398368D01*
X14680000Y-112398368D01*
X14680000Y-103130434D01*
X47359876Y-103130434D01*
X47390856Y-103258355D01*
X47704078Y-103816317D01*
X48206980Y-104211942D01*
X48823000Y-104385000D01*
X49323000Y-104385000D01*
X49323000Y-102877000D01*
X49577000Y-102877000D01*
X49577000Y-104385000D01*
X50077000Y-104385000D01*
X50693020Y-104211942D01*
X51195922Y-103816317D01*
X51509144Y-103258355D01*
X51540124Y-103130434D01*
X51420777Y-102877000D01*
X49577000Y-102877000D01*
X49323000Y-102877000D01*
X47479223Y-102877000D01*
X47359876Y-103130434D01*
X14680000Y-103130434D01*
X14680000Y-102369566D01*
X47359876Y-102369566D01*
X47479223Y-102623000D01*
X49323000Y-102623000D01*
X49323000Y-101115000D01*
X49577000Y-101115000D01*
X49577000Y-102623000D01*
X51420777Y-102623000D01*
X51540124Y-102369566D01*
X51509144Y-102241645D01*
X51195922Y-101683683D01*
X50693020Y-101288058D01*
X50077000Y-101115000D01*
X49577000Y-101115000D01*
X49323000Y-101115000D01*
X48823000Y-101115000D01*
X48206980Y-101288058D01*
X47704078Y-101683683D01*
X47390856Y-102241645D01*
X47359876Y-102369566D01*
X14680000Y-102369566D01*
X14680000Y-100630434D01*
X42359876Y-100630434D01*
X42390856Y-100758355D01*
X42704078Y-101316317D01*
X43206980Y-101711942D01*
X43823000Y-101885000D01*
X44323000Y-101885000D01*
X44323000Y-100377000D01*
X44577000Y-100377000D01*
X44577000Y-101885000D01*
X45077000Y-101885000D01*
X45693020Y-101711942D01*
X46195922Y-101316317D01*
X46509144Y-100758355D01*
X46540124Y-100630434D01*
X46420777Y-100377000D01*
X44577000Y-100377000D01*
X44323000Y-100377000D01*
X42479223Y-100377000D01*
X42359876Y-100630434D01*
X14680000Y-100630434D01*
X14680000Y-99869566D01*
X42359876Y-99869566D01*
X42479223Y-100123000D01*
X44323000Y-100123000D01*
X44323000Y-98615000D01*
X43823000Y-98615000D01*
X43206980Y-98788058D01*
X42704078Y-99183683D01*
X42390856Y-99741645D01*
X42359876Y-99869566D01*
X14680000Y-99869566D01*
X14680000Y-94250000D01*
X42302560Y-94250000D01*
X42302560Y-96250000D01*
X42351843Y-96497765D01*
X42492191Y-96707809D01*
X42702235Y-96848157D01*
X42950000Y-96897440D01*
X43961979Y-96897440D01*
X45214719Y-98150181D01*
X45252312Y-98339173D01*
X45402101Y-98563348D01*
X45519716Y-98739372D01*
X45077000Y-98615000D01*
X44577000Y-98615000D01*
X44577000Y-100123000D01*
X46420777Y-100123000D01*
X46540124Y-99869566D01*
X46509144Y-99741645D01*
X46202661Y-99195687D01*
X46674700Y-99289582D01*
X46823418Y-99260000D01*
X47570300Y-99260000D01*
X47702235Y-99348157D01*
X47950000Y-99397440D01*
X50950000Y-99397440D01*
X51197765Y-99348157D01*
X51407809Y-99207809D01*
X51548157Y-98997765D01*
X51597440Y-98750000D01*
X51597440Y-97744000D01*
X57622560Y-97744000D01*
X57622560Y-99744000D01*
X57671843Y-99991765D01*
X57812191Y-100201809D01*
X58022235Y-100342157D01*
X58270000Y-100391440D01*
X61270000Y-100391440D01*
X61517765Y-100342157D01*
X61664666Y-100244000D01*
X62622560Y-100244000D01*
X62622560Y-102244000D01*
X62671843Y-102491765D01*
X62812191Y-102701809D01*
X63022235Y-102842157D01*
X63270000Y-102891440D01*
X66270000Y-102891440D01*
X66517765Y-102842157D01*
X66649700Y-102754000D01*
X66919839Y-102754000D01*
X70162307Y-105996469D01*
X70246551Y-106122549D01*
X70746027Y-106456288D01*
X71186482Y-106543900D01*
X71335200Y-106573482D01*
X71483918Y-106543900D01*
X122302582Y-106543900D01*
X122451300Y-106573482D01*
X122600018Y-106543900D01*
X123040473Y-106456288D01*
X123539949Y-106122549D01*
X123624195Y-105996466D01*
X131702169Y-97918493D01*
X131828249Y-97834249D01*
X132161988Y-97334773D01*
X132249600Y-96894318D01*
X132249600Y-96894315D01*
X132279181Y-96745601D01*
X132249600Y-96596887D01*
X132249600Y-84760000D01*
X141262560Y-84760000D01*
X141262560Y-87960000D01*
X141311843Y-88207765D01*
X141452191Y-88417809D01*
X141662235Y-88558157D01*
X141910000Y-88607440D01*
X142000001Y-88607440D01*
X142000000Y-94164918D01*
X141954362Y-94210556D01*
X141675000Y-94884996D01*
X141675000Y-95615004D01*
X141954362Y-96289444D01*
X142470556Y-96805638D01*
X143144996Y-97085000D01*
X143875004Y-97085000D01*
X144549444Y-96805638D01*
X145065638Y-96289444D01*
X145345000Y-95615004D01*
X145345000Y-94884996D01*
X145065638Y-94210556D01*
X145020000Y-94164918D01*
X145020000Y-88607440D01*
X145110000Y-88607440D01*
X145357765Y-88558157D01*
X145567809Y-88417809D01*
X145708157Y-88207765D01*
X145757440Y-87960000D01*
X145757440Y-84760000D01*
X145708157Y-84512235D01*
X145567809Y-84302191D01*
X145357765Y-84161843D01*
X145110000Y-84112560D01*
X141910000Y-84112560D01*
X141662235Y-84161843D01*
X141452191Y-84302191D01*
X141311843Y-84512235D01*
X141262560Y-84760000D01*
X132249600Y-84760000D01*
X132249600Y-72106261D01*
X133235861Y-71120000D01*
X141231214Y-71120000D01*
X141404676Y-71992054D01*
X141898655Y-72731345D01*
X142000001Y-72799062D01*
X142000001Y-73846577D01*
X141970418Y-73995300D01*
X142087612Y-74584471D01*
X142087613Y-74584472D01*
X142087613Y-74584473D01*
X142421352Y-75083949D01*
X142547432Y-75168193D01*
X145811807Y-78432569D01*
X145896051Y-78558649D01*
X146395527Y-78892388D01*
X146835982Y-78980000D01*
X146984700Y-79009582D01*
X147133418Y-78980000D01*
X147612560Y-78980000D01*
X147612560Y-79070000D01*
X147661843Y-79317765D01*
X147802191Y-79527809D01*
X148012235Y-79668157D01*
X148260000Y-79717440D01*
X148350001Y-79717440D01*
X148350000Y-82842560D01*
X148260000Y-82842560D01*
X148012235Y-82891843D01*
X147802191Y-83032191D01*
X147661843Y-83242235D01*
X147612560Y-83490000D01*
X147612560Y-86690000D01*
X147661843Y-86937765D01*
X147802191Y-87147809D01*
X148012235Y-87288157D01*
X148260000Y-87337440D01*
X151460000Y-87337440D01*
X151707765Y-87288157D01*
X151917809Y-87147809D01*
X152058157Y-86937765D01*
X152107440Y-86690000D01*
X152107440Y-85090000D01*
X162821214Y-85090000D01*
X162994676Y-85962054D01*
X163488655Y-86701345D01*
X164227946Y-87195324D01*
X164879872Y-87325000D01*
X165320128Y-87325000D01*
X165972054Y-87195324D01*
X166711345Y-86701345D01*
X166779062Y-86600000D01*
X178830001Y-86600000D01*
X178830000Y-88815982D01*
X178800418Y-88964700D01*
X178830000Y-89113417D01*
X178917612Y-89553872D01*
X179251351Y-90053349D01*
X179377434Y-90137595D01*
X182640001Y-93400163D01*
X182640000Y-94206963D01*
X182421469Y-94534019D01*
X182279051Y-95250000D01*
X182421469Y-95965981D01*
X182827039Y-96572961D01*
X183434019Y-96978531D01*
X183969273Y-97085000D01*
X184330727Y-97085000D01*
X184865981Y-96978531D01*
X185472961Y-96572961D01*
X185878531Y-95965981D01*
X186020949Y-95250000D01*
X185878531Y-94534019D01*
X185660000Y-94206963D01*
X185660000Y-92923418D01*
X185689582Y-92774700D01*
X185572388Y-92185528D01*
X185572388Y-92185527D01*
X185238649Y-91686051D01*
X185112569Y-91601807D01*
X181850000Y-88339239D01*
X181850000Y-85238717D01*
X181879582Y-85090000D01*
X181850000Y-84941282D01*
X181850000Y-80496573D01*
X181997809Y-80397809D01*
X182138157Y-80187765D01*
X182187440Y-79940000D01*
X182187440Y-77540000D01*
X182138157Y-77292235D01*
X181997809Y-77082191D01*
X181787765Y-76941843D01*
X181540000Y-76892560D01*
X179140000Y-76892560D01*
X178892235Y-76941843D01*
X178682191Y-77082191D01*
X178541843Y-77292235D01*
X178492560Y-77540000D01*
X178492560Y-79940000D01*
X178541843Y-80187765D01*
X178682191Y-80397809D01*
X178830001Y-80496573D01*
X178830000Y-83580000D01*
X166779062Y-83580000D01*
X166711345Y-83478655D01*
X165972054Y-82984676D01*
X165320128Y-82855000D01*
X164879872Y-82855000D01*
X164227946Y-82984676D01*
X163488655Y-83478655D01*
X162994676Y-84217946D01*
X162821214Y-85090000D01*
X152107440Y-85090000D01*
X152107440Y-83490000D01*
X152058157Y-83242235D01*
X151917809Y-83032191D01*
X151707765Y-82891843D01*
X151460000Y-82842560D01*
X151370000Y-82842560D01*
X151370000Y-80037175D01*
X174222430Y-80037175D01*
X174345565Y-80324788D01*
X175027734Y-80584707D01*
X175757443Y-80563786D01*
X176334435Y-80324788D01*
X176457570Y-80037175D01*
X175340000Y-78919605D01*
X174222430Y-80037175D01*
X151370000Y-80037175D01*
X151370000Y-79717440D01*
X151460000Y-79717440D01*
X151707765Y-79668157D01*
X151917809Y-79527809D01*
X152058157Y-79317765D01*
X152107440Y-79070000D01*
X152107440Y-77470000D01*
X162821214Y-77470000D01*
X162994676Y-78342054D01*
X163488655Y-79081345D01*
X164227946Y-79575324D01*
X164879872Y-79705000D01*
X165320128Y-79705000D01*
X165972054Y-79575324D01*
X166711345Y-79081345D01*
X167148074Y-78427734D01*
X173495293Y-78427734D01*
X173516214Y-79157443D01*
X173755212Y-79734435D01*
X174042825Y-79857570D01*
X175160395Y-78740000D01*
X175519605Y-78740000D01*
X176637175Y-79857570D01*
X176924788Y-79734435D01*
X177184707Y-79052266D01*
X177163786Y-78322557D01*
X176924788Y-77745565D01*
X176637175Y-77622430D01*
X175519605Y-78740000D01*
X175160395Y-78740000D01*
X174042825Y-77622430D01*
X173755212Y-77745565D01*
X173495293Y-78427734D01*
X167148074Y-78427734D01*
X167205324Y-78342054D01*
X167378786Y-77470000D01*
X167373381Y-77442825D01*
X174222430Y-77442825D01*
X175340000Y-78560395D01*
X176457570Y-77442825D01*
X176334435Y-77155212D01*
X175652266Y-76895293D01*
X174922557Y-76916214D01*
X174345565Y-77155212D01*
X174222430Y-77442825D01*
X167373381Y-77442825D01*
X167205324Y-76597946D01*
X166711345Y-75858655D01*
X165972054Y-75364676D01*
X165320128Y-75235000D01*
X164879872Y-75235000D01*
X164227946Y-75364676D01*
X163488655Y-75858655D01*
X162994676Y-76597946D01*
X162821214Y-77470000D01*
X152107440Y-77470000D01*
X152107440Y-75870000D01*
X152058157Y-75622235D01*
X151917809Y-75412191D01*
X151707765Y-75271843D01*
X151460000Y-75222560D01*
X148260000Y-75222560D01*
X148012235Y-75271843D01*
X147802191Y-75412191D01*
X147661843Y-75622235D01*
X147612560Y-75870000D01*
X147612560Y-75960000D01*
X147610162Y-75960000D01*
X145020000Y-73369839D01*
X145020000Y-72799062D01*
X145121345Y-72731345D01*
X145615324Y-71992054D01*
X145788786Y-71120000D01*
X145615324Y-70247946D01*
X145121345Y-69508655D01*
X144382054Y-69014676D01*
X143730128Y-68885000D01*
X143289872Y-68885000D01*
X142637946Y-69014676D01*
X141898655Y-69508655D01*
X141404676Y-70247946D01*
X141231214Y-71120000D01*
X133235861Y-71120000D01*
X140449818Y-63906043D01*
X140511469Y-64215981D01*
X140917039Y-64822961D01*
X141524019Y-65228531D01*
X142059273Y-65335000D01*
X142420727Y-65335000D01*
X142955981Y-65228531D01*
X143283037Y-65010000D01*
X144089839Y-65010000D01*
X148287107Y-69207269D01*
X148371351Y-69333349D01*
X148870827Y-69667088D01*
X149349211Y-69762245D01*
X149024676Y-70247946D01*
X148851214Y-71120000D01*
X149024676Y-71992054D01*
X149518655Y-72731345D01*
X150257946Y-73225324D01*
X150909872Y-73355000D01*
X151350128Y-73355000D01*
X152002054Y-73225324D01*
X152741345Y-72731345D01*
X153235324Y-71992054D01*
X153408786Y-71120000D01*
X156471214Y-71120000D01*
X156644676Y-71992054D01*
X157138655Y-72731345D01*
X157877946Y-73225324D01*
X158529872Y-73355000D01*
X158970128Y-73355000D01*
X159622054Y-73225324D01*
X160361345Y-72731345D01*
X160855324Y-71992054D01*
X161028786Y-71120000D01*
X160855324Y-70247946D01*
X160361345Y-69508655D01*
X160260000Y-69440938D01*
X160260000Y-68870161D01*
X170682987Y-58447175D01*
X174222430Y-58447175D01*
X174345565Y-58734788D01*
X175027734Y-58994707D01*
X175757443Y-58973786D01*
X176334435Y-58734788D01*
X176457570Y-58447175D01*
X175340000Y-57329605D01*
X174222430Y-58447175D01*
X170682987Y-58447175D01*
X171182572Y-57947591D01*
X171308649Y-57863349D01*
X171399461Y-57727440D01*
X171519394Y-57547946D01*
X171642388Y-57363873D01*
X171730000Y-56923418D01*
X171747043Y-56837734D01*
X173495293Y-56837734D01*
X173516214Y-57567443D01*
X173755212Y-58144435D01*
X174042825Y-58267570D01*
X175160395Y-57150000D01*
X175519605Y-57150000D01*
X176637175Y-58267570D01*
X176924788Y-58144435D01*
X177184707Y-57462266D01*
X177163786Y-56732557D01*
X176924788Y-56155565D01*
X176637175Y-56032430D01*
X175519605Y-57150000D01*
X175160395Y-57150000D01*
X174042825Y-56032430D01*
X173755212Y-56155565D01*
X173495293Y-56837734D01*
X171747043Y-56837734D01*
X171759582Y-56774700D01*
X171730000Y-56625982D01*
X171730000Y-55852825D01*
X174222430Y-55852825D01*
X175340000Y-56970395D01*
X176360395Y-55950000D01*
X178492560Y-55950000D01*
X178492560Y-58350000D01*
X178541843Y-58597765D01*
X178682191Y-58807809D01*
X178892235Y-58948157D01*
X179140000Y-58997440D01*
X181540000Y-58997440D01*
X181787765Y-58948157D01*
X181997809Y-58807809D01*
X182138157Y-58597765D01*
X182187440Y-58350000D01*
X182187440Y-55950000D01*
X182138157Y-55702235D01*
X181997809Y-55492191D01*
X181787765Y-55351843D01*
X181540000Y-55302560D01*
X179140000Y-55302560D01*
X178892235Y-55351843D01*
X178682191Y-55492191D01*
X178541843Y-55702235D01*
X178492560Y-55950000D01*
X176360395Y-55950000D01*
X176457570Y-55852825D01*
X176334435Y-55565212D01*
X175652266Y-55305293D01*
X174922557Y-55326214D01*
X174345565Y-55565212D01*
X174222430Y-55852825D01*
X171730000Y-55852825D01*
X171730000Y-36132200D01*
X171818157Y-36000265D01*
X171867440Y-35752500D01*
X171867440Y-34740521D01*
X172270961Y-34337000D01*
X176285000Y-34337000D01*
X176285000Y-34837000D01*
X176458058Y-35453020D01*
X176853683Y-35955922D01*
X177411645Y-36269144D01*
X177539566Y-36300124D01*
X177793000Y-36180777D01*
X177793000Y-34337000D01*
X178047000Y-34337000D01*
X178047000Y-36180777D01*
X178300434Y-36300124D01*
X178428355Y-36269144D01*
X178986317Y-35955922D01*
X179381942Y-35453020D01*
X179555000Y-34837000D01*
X179555000Y-34337000D01*
X178047000Y-34337000D01*
X177793000Y-34337000D01*
X176285000Y-34337000D01*
X172270961Y-34337000D01*
X173024961Y-33583000D01*
X176285000Y-33583000D01*
X176285000Y-34083000D01*
X177793000Y-34083000D01*
X177793000Y-32239223D01*
X178047000Y-32239223D01*
X178047000Y-34083000D01*
X179555000Y-34083000D01*
X179555000Y-33583000D01*
X179381942Y-32966980D01*
X179179780Y-32710000D01*
X181272560Y-32710000D01*
X181272560Y-35710000D01*
X181321843Y-35957765D01*
X181462191Y-36167809D01*
X181672235Y-36308157D01*
X181920000Y-36357440D01*
X183920000Y-36357440D01*
X184167765Y-36308157D01*
X184377809Y-36167809D01*
X184518157Y-35957765D01*
X184567440Y-35710000D01*
X184567440Y-34698021D01*
X185820181Y-33445281D01*
X186009173Y-33407688D01*
X186508649Y-33073949D01*
X186842388Y-32574473D01*
X186959582Y-31985300D01*
X186930000Y-31836582D01*
X186930000Y-31089700D01*
X187018157Y-30957765D01*
X187067440Y-30710000D01*
X187067440Y-27710000D01*
X187018157Y-27462235D01*
X186877809Y-27252191D01*
X186667765Y-27111843D01*
X186420000Y-27062560D01*
X184420000Y-27062560D01*
X184172235Y-27111843D01*
X183962191Y-27252191D01*
X183821843Y-27462235D01*
X183772560Y-27710000D01*
X183772560Y-30710000D01*
X183821843Y-30957765D01*
X183907932Y-31086606D01*
X182931979Y-32062560D01*
X181920000Y-32062560D01*
X181672235Y-32111843D01*
X181462191Y-32252191D01*
X181321843Y-32462235D01*
X181272560Y-32710000D01*
X179179780Y-32710000D01*
X178986317Y-32464078D01*
X178428355Y-32150856D01*
X178300434Y-32119876D01*
X178047000Y-32239223D01*
X177793000Y-32239223D01*
X177539566Y-32119876D01*
X177411645Y-32150856D01*
X176853683Y-32464078D01*
X176458058Y-32966980D01*
X176285000Y-33583000D01*
X173024961Y-33583000D01*
X173120181Y-33487781D01*
X173309173Y-33450188D01*
X173808649Y-33116449D01*
X174142388Y-32616973D01*
X174230000Y-32176518D01*
X174259582Y-32027800D01*
X174230000Y-31879082D01*
X174230000Y-31132200D01*
X174318157Y-31000265D01*
X174367440Y-30752500D01*
X174367440Y-29337000D01*
X178785000Y-29337000D01*
X178785000Y-29837000D01*
X178958058Y-30453020D01*
X179353683Y-30955922D01*
X179911645Y-31269144D01*
X180039566Y-31300124D01*
X180293000Y-31180777D01*
X180293000Y-29337000D01*
X180547000Y-29337000D01*
X180547000Y-31180777D01*
X180800434Y-31300124D01*
X180928355Y-31269144D01*
X181486317Y-30955922D01*
X181881942Y-30453020D01*
X182055000Y-29837000D01*
X182055000Y-29337000D01*
X180547000Y-29337000D01*
X180293000Y-29337000D01*
X178785000Y-29337000D01*
X174367440Y-29337000D01*
X174367440Y-28583000D01*
X178785000Y-28583000D01*
X178785000Y-29083000D01*
X180293000Y-29083000D01*
X180293000Y-27239223D01*
X180547000Y-27239223D01*
X180547000Y-29083000D01*
X182055000Y-29083000D01*
X182055000Y-28583000D01*
X181881942Y-27966980D01*
X181486317Y-27464078D01*
X180928355Y-27150856D01*
X180800434Y-27119876D01*
X180547000Y-27239223D01*
X180293000Y-27239223D01*
X180039566Y-27119876D01*
X179911645Y-27150856D01*
X179353683Y-27464078D01*
X178958058Y-27966980D01*
X178785000Y-28583000D01*
X174367440Y-28583000D01*
X174367440Y-27752500D01*
X174318157Y-27504735D01*
X174177809Y-27294691D01*
X173967765Y-27154343D01*
X173720000Y-27105060D01*
X171720000Y-27105060D01*
X171472235Y-27154343D01*
X171262191Y-27294691D01*
X171121843Y-27504735D01*
X171072560Y-27752500D01*
X171072560Y-30752500D01*
X171121843Y-31000265D01*
X171207932Y-31129106D01*
X170231979Y-32105060D01*
X169220000Y-32105060D01*
X168972235Y-32154343D01*
X168762191Y-32294691D01*
X168621843Y-32504735D01*
X168572560Y-32752500D01*
X168572560Y-35752500D01*
X168621843Y-36000265D01*
X168710000Y-36132200D01*
X168710001Y-56149236D01*
X157787432Y-67071807D01*
X157661352Y-67156051D01*
X157505888Y-67388720D01*
X157327612Y-67655529D01*
X157210418Y-68244700D01*
X157240001Y-68393423D01*
X157240001Y-69440938D01*
X157138655Y-69508655D01*
X156644676Y-70247946D01*
X156471214Y-71120000D01*
X153408786Y-71120000D01*
X153235324Y-70247946D01*
X152741345Y-69508655D01*
X152640000Y-69440938D01*
X152640000Y-68393418D01*
X152669582Y-68244700D01*
X152552388Y-67655527D01*
X152218649Y-67156051D01*
X151719173Y-66822312D01*
X151278718Y-66734700D01*
X151130000Y-66705118D01*
X150981282Y-66734700D01*
X150085462Y-66734700D01*
X145888195Y-62537434D01*
X145803949Y-62411351D01*
X145304473Y-62077612D01*
X144864018Y-61990000D01*
X144715300Y-61960418D01*
X144566582Y-61990000D01*
X143283037Y-61990000D01*
X142955981Y-61771469D01*
X142646043Y-61709818D01*
X146965862Y-57390000D01*
X148882560Y-57390000D01*
X148882560Y-57480000D01*
X148931843Y-57727765D01*
X149072191Y-57937809D01*
X149282235Y-58078157D01*
X149530000Y-58127440D01*
X152730000Y-58127440D01*
X152977765Y-58078157D01*
X153187809Y-57937809D01*
X153328157Y-57727765D01*
X153377440Y-57480000D01*
X153377440Y-54280000D01*
X156502560Y-54280000D01*
X156502560Y-57480000D01*
X156551843Y-57727765D01*
X156692191Y-57937809D01*
X156902235Y-58078157D01*
X157150000Y-58127440D01*
X160350000Y-58127440D01*
X160597765Y-58078157D01*
X160807809Y-57937809D01*
X160948157Y-57727765D01*
X160997440Y-57480000D01*
X160997440Y-54280000D01*
X160948157Y-54032235D01*
X160807809Y-53822191D01*
X160597765Y-53681843D01*
X160350000Y-53632560D01*
X157150000Y-53632560D01*
X156902235Y-53681843D01*
X156692191Y-53822191D01*
X156551843Y-54032235D01*
X156502560Y-54280000D01*
X153377440Y-54280000D01*
X153328157Y-54032235D01*
X153187809Y-53822191D01*
X152977765Y-53681843D01*
X152730000Y-53632560D01*
X152640000Y-53632560D01*
X152640000Y-51209062D01*
X152741345Y-51141345D01*
X153235324Y-50402054D01*
X153408786Y-49530000D01*
X153235324Y-48657946D01*
X152741345Y-47918655D01*
X152002054Y-47424676D01*
X151350128Y-47295000D01*
X150909872Y-47295000D01*
X150257946Y-47424676D01*
X149518655Y-47918655D01*
X149024676Y-48657946D01*
X148851214Y-49530000D01*
X149024676Y-50402054D01*
X149518655Y-51141345D01*
X149620001Y-51209062D01*
X149620000Y-53632560D01*
X149530000Y-53632560D01*
X149282235Y-53681843D01*
X149072191Y-53822191D01*
X148931843Y-54032235D01*
X148882560Y-54280000D01*
X148882560Y-54370000D01*
X146489118Y-54370000D01*
X146340400Y-54340418D01*
X146191682Y-54370000D01*
X145751227Y-54457612D01*
X145251751Y-54791351D01*
X145167507Y-54917431D01*
X129777034Y-70307905D01*
X129650951Y-70392151D01*
X129317212Y-70891628D01*
X129317212Y-70891629D01*
X129200018Y-71480800D01*
X129229600Y-71629518D01*
X129229601Y-96120137D01*
X124067440Y-101282299D01*
X124067440Y-100257000D01*
X124018157Y-100009235D01*
X123877809Y-99799191D01*
X123667765Y-99658843D01*
X123420000Y-99609560D01*
X120420000Y-99609560D01*
X120172235Y-99658843D01*
X119962191Y-99799191D01*
X119821843Y-100009235D01*
X119772560Y-100257000D01*
X119772560Y-102257000D01*
X119821843Y-102504765D01*
X119962191Y-102714809D01*
X120172235Y-102855157D01*
X120420000Y-102904440D01*
X122445299Y-102904440D01*
X121825839Y-103523900D01*
X108510076Y-103523900D01*
X108659144Y-103258355D01*
X108690124Y-103130434D01*
X108570777Y-102877000D01*
X106727000Y-102877000D01*
X106727000Y-102897000D01*
X106473000Y-102897000D01*
X106473000Y-102877000D01*
X104629223Y-102877000D01*
X104509876Y-103130434D01*
X104540856Y-103258355D01*
X104689924Y-103523900D01*
X71960662Y-103523900D01*
X70806328Y-102369566D01*
X104509876Y-102369566D01*
X104629223Y-102623000D01*
X106473000Y-102623000D01*
X106473000Y-101115000D01*
X106727000Y-101115000D01*
X106727000Y-102623000D01*
X108570777Y-102623000D01*
X108690124Y-102369566D01*
X108659144Y-102241645D01*
X108345922Y-101683683D01*
X107843020Y-101288058D01*
X107227000Y-101115000D01*
X106727000Y-101115000D01*
X106473000Y-101115000D01*
X105973000Y-101115000D01*
X105356980Y-101288058D01*
X104854078Y-101683683D01*
X104540856Y-102241645D01*
X104509876Y-102369566D01*
X70806328Y-102369566D01*
X69067196Y-100630434D01*
X99509876Y-100630434D01*
X99540856Y-100758355D01*
X99854078Y-101316317D01*
X100356980Y-101711942D01*
X100973000Y-101885000D01*
X101473000Y-101885000D01*
X101473000Y-100377000D01*
X101727000Y-100377000D01*
X101727000Y-101885000D01*
X102227000Y-101885000D01*
X102843020Y-101711942D01*
X103345922Y-101316317D01*
X103659144Y-100758355D01*
X103690124Y-100630434D01*
X103570777Y-100377000D01*
X101727000Y-100377000D01*
X101473000Y-100377000D01*
X99629223Y-100377000D01*
X99509876Y-100630434D01*
X69067196Y-100630434D01*
X68718195Y-100281434D01*
X68633949Y-100155351D01*
X68206242Y-99869566D01*
X99509876Y-99869566D01*
X99629223Y-100123000D01*
X101473000Y-100123000D01*
X101473000Y-98615000D01*
X101727000Y-98615000D01*
X101727000Y-100123000D01*
X103570777Y-100123000D01*
X103690124Y-99869566D01*
X103659144Y-99741645D01*
X103345922Y-99183683D01*
X102843020Y-98788058D01*
X102227000Y-98615000D01*
X101727000Y-98615000D01*
X101473000Y-98615000D01*
X100973000Y-98615000D01*
X100356980Y-98788058D01*
X99854078Y-99183683D01*
X99540856Y-99741645D01*
X99509876Y-99869566D01*
X68206242Y-99869566D01*
X68134473Y-99821612D01*
X67694018Y-99734000D01*
X67545300Y-99704418D01*
X67396582Y-99734000D01*
X66649700Y-99734000D01*
X66517765Y-99645843D01*
X66270000Y-99596560D01*
X63270000Y-99596560D01*
X63022235Y-99645843D01*
X62812191Y-99786191D01*
X62671843Y-99996235D01*
X62622560Y-100244000D01*
X61664666Y-100244000D01*
X61727809Y-100201809D01*
X61868157Y-99991765D01*
X61917440Y-99744000D01*
X61917440Y-97744000D01*
X61868157Y-97496235D01*
X61727809Y-97286191D01*
X61517765Y-97145843D01*
X61270000Y-97096560D01*
X58270000Y-97096560D01*
X58022235Y-97145843D01*
X57812191Y-97286191D01*
X57671843Y-97496235D01*
X57622560Y-97744000D01*
X51597440Y-97744000D01*
X51597440Y-96750000D01*
X51572464Y-96624434D01*
X62679876Y-96624434D01*
X62710856Y-96752355D01*
X63024078Y-97310317D01*
X63526980Y-97705942D01*
X64143000Y-97879000D01*
X64643000Y-97879000D01*
X64643000Y-96371000D01*
X64897000Y-96371000D01*
X64897000Y-97879000D01*
X65397000Y-97879000D01*
X66013020Y-97705942D01*
X66515922Y-97310317D01*
X66829144Y-96752355D01*
X66860124Y-96624434D01*
X66740777Y-96371000D01*
X64897000Y-96371000D01*
X64643000Y-96371000D01*
X62799223Y-96371000D01*
X62679876Y-96624434D01*
X51572464Y-96624434D01*
X51548157Y-96502235D01*
X51407809Y-96292191D01*
X51197765Y-96151843D01*
X50950000Y-96102560D01*
X47950000Y-96102560D01*
X47702235Y-96151843D01*
X47573394Y-96237932D01*
X47199028Y-95863566D01*
X62679876Y-95863566D01*
X62799223Y-96117000D01*
X64643000Y-96117000D01*
X64643000Y-94609000D01*
X64897000Y-94609000D01*
X64897000Y-96117000D01*
X66740777Y-96117000D01*
X66860124Y-95863566D01*
X66829144Y-95735645D01*
X66515922Y-95177683D01*
X66013020Y-94782058D01*
X65397000Y-94609000D01*
X64897000Y-94609000D01*
X64643000Y-94609000D01*
X64143000Y-94609000D01*
X63526980Y-94782058D01*
X63024078Y-95177683D01*
X62710856Y-95735645D01*
X62679876Y-95863566D01*
X47199028Y-95863566D01*
X46597440Y-95261979D01*
X46597440Y-94250000D01*
X46572464Y-94124434D01*
X57679876Y-94124434D01*
X57710856Y-94252355D01*
X58024078Y-94810317D01*
X58526980Y-95205942D01*
X59143000Y-95379000D01*
X59643000Y-95379000D01*
X59643000Y-93871000D01*
X59897000Y-93871000D01*
X59897000Y-95379000D01*
X60397000Y-95379000D01*
X61013020Y-95205942D01*
X61515922Y-94810317D01*
X61829144Y-94252355D01*
X61829714Y-94250000D01*
X99452560Y-94250000D01*
X99452560Y-96250000D01*
X99501843Y-96497765D01*
X99642191Y-96707809D01*
X99852235Y-96848157D01*
X100100000Y-96897440D01*
X103100000Y-96897440D01*
X103347765Y-96848157D01*
X103494666Y-96750000D01*
X104452560Y-96750000D01*
X104452560Y-98750000D01*
X104501843Y-98997765D01*
X104642191Y-99207809D01*
X104852235Y-99348157D01*
X105100000Y-99397440D01*
X108100000Y-99397440D01*
X108347765Y-99348157D01*
X108557809Y-99207809D01*
X108698157Y-98997765D01*
X108747440Y-98750000D01*
X108747440Y-96750000D01*
X108698157Y-96502235D01*
X108557809Y-96292191D01*
X108347765Y-96151843D01*
X108100000Y-96102560D01*
X105100000Y-96102560D01*
X104852235Y-96151843D01*
X104642191Y-96292191D01*
X104501843Y-96502235D01*
X104452560Y-96750000D01*
X103494666Y-96750000D01*
X103557809Y-96707809D01*
X103698157Y-96497765D01*
X103747440Y-96250000D01*
X103747440Y-94250000D01*
X103698157Y-94002235D01*
X103557809Y-93792191D01*
X103347765Y-93651843D01*
X103100000Y-93602560D01*
X100100000Y-93602560D01*
X99852235Y-93651843D01*
X99642191Y-93792191D01*
X99501843Y-94002235D01*
X99452560Y-94250000D01*
X61829714Y-94250000D01*
X61860124Y-94124434D01*
X61740777Y-93871000D01*
X59897000Y-93871000D01*
X59643000Y-93871000D01*
X57799223Y-93871000D01*
X57679876Y-94124434D01*
X46572464Y-94124434D01*
X46548157Y-94002235D01*
X46407809Y-93792191D01*
X46197765Y-93651843D01*
X45950000Y-93602560D01*
X42950000Y-93602560D01*
X42702235Y-93651843D01*
X42492191Y-93792191D01*
X42351843Y-94002235D01*
X42302560Y-94250000D01*
X14680000Y-94250000D01*
X14680000Y-93363566D01*
X57679876Y-93363566D01*
X57799223Y-93617000D01*
X59643000Y-93617000D01*
X59643000Y-92109000D01*
X59897000Y-92109000D01*
X59897000Y-93617000D01*
X61740777Y-93617000D01*
X61860124Y-93363566D01*
X61829144Y-93235645D01*
X61515922Y-92677683D01*
X61013020Y-92282058D01*
X60397000Y-92109000D01*
X59897000Y-92109000D01*
X59643000Y-92109000D01*
X59143000Y-92109000D01*
X58526980Y-92282058D01*
X58024078Y-92677683D01*
X57710856Y-93235645D01*
X57679876Y-93363566D01*
X14680000Y-93363566D01*
X14680000Y-86360000D01*
X65031214Y-86360000D01*
X65204676Y-87232054D01*
X65698655Y-87971345D01*
X66437946Y-88465324D01*
X67089872Y-88595000D01*
X67530128Y-88595000D01*
X68182054Y-88465324D01*
X68921345Y-87971345D01*
X69415324Y-87232054D01*
X69588786Y-86360000D01*
X69415324Y-85487946D01*
X68928926Y-84760000D01*
X72682560Y-84760000D01*
X72682560Y-87960000D01*
X72731843Y-88207765D01*
X72872191Y-88417809D01*
X73082235Y-88558157D01*
X73330000Y-88607440D01*
X76530000Y-88607440D01*
X76777765Y-88558157D01*
X76987809Y-88417809D01*
X77128157Y-88207765D01*
X77177440Y-87960000D01*
X77177440Y-84760000D01*
X80302560Y-84760000D01*
X80302560Y-87960000D01*
X80351843Y-88207765D01*
X80492191Y-88417809D01*
X80702235Y-88558157D01*
X80950000Y-88607440D01*
X84150000Y-88607440D01*
X84397765Y-88558157D01*
X84607809Y-88417809D01*
X84748157Y-88207765D01*
X84797440Y-87960000D01*
X84797440Y-84760000D01*
X84748157Y-84512235D01*
X84607809Y-84302191D01*
X84397765Y-84161843D01*
X84150000Y-84112560D01*
X80950000Y-84112560D01*
X80702235Y-84161843D01*
X80492191Y-84302191D01*
X80351843Y-84512235D01*
X80302560Y-84760000D01*
X77177440Y-84760000D01*
X77128157Y-84512235D01*
X76987809Y-84302191D01*
X76777765Y-84161843D01*
X76530000Y-84112560D01*
X73330000Y-84112560D01*
X73082235Y-84161843D01*
X72872191Y-84302191D01*
X72731843Y-84512235D01*
X72682560Y-84760000D01*
X68928926Y-84760000D01*
X68921345Y-84748655D01*
X68182054Y-84254676D01*
X67530128Y-84125000D01*
X67089872Y-84125000D01*
X66437946Y-84254676D01*
X65698655Y-84748655D01*
X65204676Y-85487946D01*
X65031214Y-86360000D01*
X14680000Y-86360000D01*
X14680000Y-82497175D01*
X25552430Y-82497175D01*
X25675565Y-82784788D01*
X26357734Y-83044707D01*
X27087443Y-83023786D01*
X27664435Y-82784788D01*
X27787570Y-82497175D01*
X48412430Y-82497175D01*
X48535565Y-82784788D01*
X49217734Y-83044707D01*
X49947443Y-83023786D01*
X50524435Y-82784788D01*
X50647570Y-82497175D01*
X49530000Y-81379605D01*
X48412430Y-82497175D01*
X27787570Y-82497175D01*
X26670000Y-81379605D01*
X25552430Y-82497175D01*
X14680000Y-82497175D01*
X14680000Y-80887734D01*
X24825293Y-80887734D01*
X24846214Y-81617443D01*
X25085212Y-82194435D01*
X25372825Y-82317570D01*
X26490395Y-81200000D01*
X26849605Y-81200000D01*
X27967175Y-82317570D01*
X28254788Y-82194435D01*
X28514707Y-81512266D01*
X28496802Y-80887734D01*
X47685293Y-80887734D01*
X47706214Y-81617443D01*
X47945212Y-82194435D01*
X48232825Y-82317570D01*
X49350395Y-81200000D01*
X49709605Y-81200000D01*
X50827175Y-82317570D01*
X51114788Y-82194435D01*
X51374707Y-81512266D01*
X51353786Y-80782557D01*
X51114788Y-80205565D01*
X50827175Y-80082430D01*
X49709605Y-81200000D01*
X49350395Y-81200000D01*
X48232825Y-80082430D01*
X47945212Y-80205565D01*
X47685293Y-80887734D01*
X28496802Y-80887734D01*
X28493786Y-80782557D01*
X28254788Y-80205565D01*
X27967175Y-80082430D01*
X26849605Y-81200000D01*
X26490395Y-81200000D01*
X25372825Y-80082430D01*
X25085212Y-80205565D01*
X24825293Y-80887734D01*
X14680000Y-80887734D01*
X14680000Y-79902825D01*
X25552430Y-79902825D01*
X26670000Y-81020395D01*
X27787570Y-79902825D01*
X48412430Y-79902825D01*
X49530000Y-81020395D01*
X50647570Y-79902825D01*
X50524435Y-79615212D01*
X49842266Y-79355293D01*
X49112557Y-79376214D01*
X48535565Y-79615212D01*
X48412430Y-79902825D01*
X27787570Y-79902825D01*
X27664435Y-79615212D01*
X26982266Y-79355293D01*
X26252557Y-79376214D01*
X25675565Y-79615212D01*
X25552430Y-79902825D01*
X14680000Y-79902825D01*
X14680000Y-75000000D01*
X24822560Y-75000000D01*
X24822560Y-77400000D01*
X24871843Y-77647765D01*
X25012191Y-77857809D01*
X25222235Y-77998157D01*
X25470000Y-78047440D01*
X27870000Y-78047440D01*
X28117765Y-77998157D01*
X28327809Y-77857809D01*
X28468157Y-77647765D01*
X28517440Y-77400000D01*
X28517440Y-75000000D01*
X47682560Y-75000000D01*
X47682560Y-77400000D01*
X47731843Y-77647765D01*
X47872191Y-77857809D01*
X48082235Y-77998157D01*
X48330000Y-78047440D01*
X50730000Y-78047440D01*
X50977765Y-77998157D01*
X51187809Y-77857809D01*
X51328157Y-77647765D01*
X51377440Y-77400000D01*
X51377440Y-75000000D01*
X51328157Y-74752235D01*
X51187809Y-74542191D01*
X51040000Y-74443427D01*
X51040000Y-69520000D01*
X65062560Y-69520000D01*
X65062560Y-72720000D01*
X65111843Y-72967765D01*
X65252191Y-73177809D01*
X65462235Y-73318157D01*
X65710000Y-73367440D01*
X68910000Y-73367440D01*
X69157765Y-73318157D01*
X69367809Y-73177809D01*
X69508157Y-72967765D01*
X69557440Y-72720000D01*
X69557440Y-71120000D01*
X72651214Y-71120000D01*
X72824676Y-71992054D01*
X73318655Y-72731345D01*
X74057946Y-73225324D01*
X74709872Y-73355000D01*
X75150128Y-73355000D01*
X75802054Y-73225324D01*
X76541345Y-72731345D01*
X77035324Y-71992054D01*
X77208786Y-71120000D01*
X80271214Y-71120000D01*
X80444676Y-71992054D01*
X80938655Y-72731345D01*
X81677946Y-73225324D01*
X82329872Y-73355000D01*
X82770128Y-73355000D01*
X83422054Y-73225324D01*
X84161345Y-72731345D01*
X84655324Y-71992054D01*
X84828786Y-71120000D01*
X84655324Y-70247946D01*
X84340980Y-69777497D01*
X99285000Y-69777497D01*
X99285000Y-71422503D01*
X99914517Y-72942289D01*
X101077711Y-74105483D01*
X102597497Y-74735000D01*
X104242503Y-74735000D01*
X105762289Y-74105483D01*
X106925483Y-72942289D01*
X107555000Y-71422503D01*
X107555000Y-69777497D01*
X106925483Y-68257711D01*
X105762289Y-67094517D01*
X104242503Y-66465000D01*
X102597497Y-66465000D01*
X101077711Y-67094517D01*
X99914517Y-68257711D01*
X99285000Y-69777497D01*
X84340980Y-69777497D01*
X84161345Y-69508655D01*
X83422054Y-69014676D01*
X82770128Y-68885000D01*
X82329872Y-68885000D01*
X81677946Y-69014676D01*
X80938655Y-69508655D01*
X80444676Y-70247946D01*
X80271214Y-71120000D01*
X77208786Y-71120000D01*
X77035324Y-70247946D01*
X76541345Y-69508655D01*
X75802054Y-69014676D01*
X75150128Y-68885000D01*
X74709872Y-68885000D01*
X74057946Y-69014676D01*
X73318655Y-69508655D01*
X72824676Y-70247946D01*
X72651214Y-71120000D01*
X69557440Y-71120000D01*
X69557440Y-69520000D01*
X69508157Y-69272235D01*
X69367809Y-69062191D01*
X69157765Y-68921843D01*
X68910000Y-68872560D01*
X68820000Y-68872560D01*
X68820000Y-64585082D01*
X68865638Y-64539444D01*
X69145000Y-63865004D01*
X69145000Y-63134996D01*
X68865638Y-62460556D01*
X68349444Y-61944362D01*
X67675004Y-61665000D01*
X66944996Y-61665000D01*
X66270556Y-61944362D01*
X65754362Y-62460556D01*
X65475000Y-63134996D01*
X65475000Y-63865004D01*
X65754362Y-64539444D01*
X65800000Y-64585082D01*
X65800001Y-68872560D01*
X65710000Y-68872560D01*
X65462235Y-68921843D01*
X65252191Y-69062191D01*
X65111843Y-69272235D01*
X65062560Y-69520000D01*
X51040000Y-69520000D01*
X51040000Y-59425082D01*
X51085638Y-59379444D01*
X51365000Y-58705004D01*
X51365000Y-57974996D01*
X51085638Y-57300556D01*
X50962257Y-57177175D01*
X80242430Y-57177175D01*
X80365565Y-57464788D01*
X81047734Y-57724707D01*
X81777443Y-57703786D01*
X82354435Y-57464788D01*
X82477570Y-57177175D01*
X81360000Y-56059605D01*
X80242430Y-57177175D01*
X50962257Y-57177175D01*
X50569444Y-56784362D01*
X49895004Y-56505000D01*
X49164996Y-56505000D01*
X48490556Y-56784362D01*
X47974362Y-57300556D01*
X47695000Y-57974996D01*
X47695000Y-58705004D01*
X47974362Y-59379444D01*
X48020001Y-59425083D01*
X48020000Y-74443427D01*
X47872191Y-74542191D01*
X47731843Y-74752235D01*
X47682560Y-75000000D01*
X28517440Y-75000000D01*
X28468157Y-74752235D01*
X28327809Y-74542191D01*
X28180000Y-74443427D01*
X28180000Y-59425082D01*
X28225638Y-59379444D01*
X28505000Y-58705004D01*
X28505000Y-57974996D01*
X28225638Y-57300556D01*
X27709444Y-56784362D01*
X27035004Y-56505000D01*
X26304996Y-56505000D01*
X25630556Y-56784362D01*
X25114362Y-57300556D01*
X24835000Y-57974996D01*
X24835000Y-58705004D01*
X25114362Y-59379444D01*
X25160001Y-59425083D01*
X25160000Y-74443427D01*
X25012191Y-74542191D01*
X24871843Y-74752235D01*
X24822560Y-75000000D01*
X14680000Y-75000000D01*
X14680000Y-55567734D01*
X79515293Y-55567734D01*
X79536214Y-56297443D01*
X79775212Y-56874435D01*
X80062825Y-56997570D01*
X81180395Y-55880000D01*
X81539605Y-55880000D01*
X82657175Y-56997570D01*
X82944788Y-56874435D01*
X83204707Y-56192266D01*
X83183786Y-55462557D01*
X82944788Y-54885565D01*
X82657175Y-54762430D01*
X81539605Y-55880000D01*
X81180395Y-55880000D01*
X80062825Y-54762430D01*
X79775212Y-54885565D01*
X79515293Y-55567734D01*
X14680000Y-55567734D01*
X14680000Y-52140000D01*
X24822560Y-52140000D01*
X24822560Y-54540000D01*
X24871843Y-54787765D01*
X25012191Y-54997809D01*
X25222235Y-55138157D01*
X25470000Y-55187440D01*
X27870000Y-55187440D01*
X28117765Y-55138157D01*
X28327809Y-54997809D01*
X28468157Y-54787765D01*
X28517440Y-54540000D01*
X28517440Y-52140000D01*
X47682560Y-52140000D01*
X47682560Y-54540000D01*
X47731843Y-54787765D01*
X47872191Y-54997809D01*
X48082235Y-55138157D01*
X48330000Y-55187440D01*
X50730000Y-55187440D01*
X50977765Y-55138157D01*
X51187809Y-54997809D01*
X51328157Y-54787765D01*
X51368921Y-54582825D01*
X80242430Y-54582825D01*
X81360000Y-55700395D01*
X82477570Y-54582825D01*
X82354435Y-54295212D01*
X81672266Y-54035293D01*
X80942557Y-54056214D01*
X80365565Y-54295212D01*
X80242430Y-54582825D01*
X51368921Y-54582825D01*
X51377440Y-54540000D01*
X51377440Y-52140000D01*
X51328157Y-51892235D01*
X51187809Y-51682191D01*
X51040000Y-51583427D01*
X51040000Y-36565082D01*
X51085638Y-36519444D01*
X51365000Y-35845004D01*
X51365000Y-35114996D01*
X51085638Y-34440556D01*
X50962257Y-34317175D01*
X80242430Y-34317175D01*
X80365565Y-34604788D01*
X81047734Y-34864707D01*
X81777443Y-34843786D01*
X82354435Y-34604788D01*
X82477570Y-34317175D01*
X81360000Y-33199605D01*
X80242430Y-34317175D01*
X50962257Y-34317175D01*
X50569444Y-33924362D01*
X49895004Y-33645000D01*
X49164996Y-33645000D01*
X48490556Y-33924362D01*
X47974362Y-34440556D01*
X47695000Y-35114996D01*
X47695000Y-35845004D01*
X47974362Y-36519444D01*
X48020001Y-36565083D01*
X48020000Y-51583427D01*
X47872191Y-51682191D01*
X47731843Y-51892235D01*
X47682560Y-52140000D01*
X28517440Y-52140000D01*
X28468157Y-51892235D01*
X28327809Y-51682191D01*
X28180000Y-51583427D01*
X28180000Y-36565082D01*
X28225638Y-36519444D01*
X28505000Y-35845004D01*
X28505000Y-35114996D01*
X28225638Y-34440556D01*
X27709444Y-33924362D01*
X27035004Y-33645000D01*
X26304996Y-33645000D01*
X25630556Y-33924362D01*
X25114362Y-34440556D01*
X24835000Y-35114996D01*
X24835000Y-35845004D01*
X25114362Y-36519444D01*
X25160000Y-36565082D01*
X25160001Y-51583427D01*
X25012191Y-51682191D01*
X24871843Y-51892235D01*
X24822560Y-52140000D01*
X14680000Y-52140000D01*
X14680000Y-32707734D01*
X79515293Y-32707734D01*
X79536214Y-33437443D01*
X79775212Y-34014435D01*
X80062825Y-34137570D01*
X81180395Y-33020000D01*
X81539605Y-33020000D01*
X82657175Y-34137570D01*
X82944788Y-34014435D01*
X83204707Y-33332266D01*
X83183786Y-32602557D01*
X82944788Y-32025565D01*
X82657175Y-31902430D01*
X81539605Y-33020000D01*
X81180395Y-33020000D01*
X80062825Y-31902430D01*
X79775212Y-32025565D01*
X79515293Y-32707734D01*
X14680000Y-32707734D01*
X14680000Y-29280000D01*
X24822560Y-29280000D01*
X24822560Y-31680000D01*
X24871843Y-31927765D01*
X25012191Y-32137809D01*
X25222235Y-32278157D01*
X25470000Y-32327440D01*
X27870000Y-32327440D01*
X28117765Y-32278157D01*
X28327809Y-32137809D01*
X28468157Y-31927765D01*
X28517440Y-31680000D01*
X28517440Y-29280000D01*
X47682560Y-29280000D01*
X47682560Y-31680000D01*
X47731843Y-31927765D01*
X47872191Y-32137809D01*
X48082235Y-32278157D01*
X48330000Y-32327440D01*
X50730000Y-32327440D01*
X50977765Y-32278157D01*
X51187809Y-32137809D01*
X51328157Y-31927765D01*
X51368921Y-31722825D01*
X80242430Y-31722825D01*
X81360000Y-32840395D01*
X82380395Y-31820000D01*
X84512560Y-31820000D01*
X84512560Y-34220000D01*
X84561843Y-34467765D01*
X84702191Y-34677809D01*
X84850001Y-34776573D01*
X84850000Y-54123427D01*
X84702191Y-54222191D01*
X84561843Y-54432235D01*
X84512560Y-54680000D01*
X84512560Y-57080000D01*
X84561843Y-57327765D01*
X84702191Y-57537809D01*
X84912235Y-57678157D01*
X85160000Y-57727440D01*
X87560000Y-57727440D01*
X87807765Y-57678157D01*
X88017809Y-57537809D01*
X88116573Y-57390000D01*
X88209839Y-57390000D01*
X95282407Y-64462569D01*
X95366651Y-64588649D01*
X95866127Y-64922388D01*
X96306582Y-65010000D01*
X96306585Y-65010000D01*
X96455299Y-65039581D01*
X96604013Y-65010000D01*
X99286963Y-65010000D01*
X99614019Y-65228531D01*
X100149273Y-65335000D01*
X100510727Y-65335000D01*
X101045981Y-65228531D01*
X101652961Y-64822961D01*
X102058531Y-64215981D01*
X102200949Y-63500000D01*
X102058531Y-62784019D01*
X101652961Y-62177039D01*
X101045981Y-61771469D01*
X100510727Y-61665000D01*
X100149273Y-61665000D01*
X99614019Y-61771469D01*
X99286963Y-61990000D01*
X97080762Y-61990000D01*
X90008195Y-54917434D01*
X89923949Y-54791351D01*
X89424473Y-54457612D01*
X88984018Y-54370000D01*
X88835300Y-54340418D01*
X88686582Y-54370000D01*
X88223162Y-54370000D01*
X87870000Y-54016839D01*
X87870000Y-48930600D01*
X106075118Y-48930600D01*
X106104700Y-49079318D01*
X106104701Y-62680677D01*
X106075118Y-62829400D01*
X106192312Y-63418571D01*
X106192313Y-63418572D01*
X106192313Y-63418573D01*
X106526052Y-63918049D01*
X106652132Y-64002293D01*
X108980001Y-66330163D01*
X108980001Y-66332560D01*
X108890000Y-66332560D01*
X108642235Y-66381843D01*
X108432191Y-66522191D01*
X108291843Y-66732235D01*
X108242560Y-66980000D01*
X108242560Y-70180000D01*
X108291843Y-70427765D01*
X108432191Y-70637809D01*
X108642235Y-70778157D01*
X108890000Y-70827440D01*
X108980001Y-70827440D01*
X108980001Y-71306577D01*
X108950418Y-71455300D01*
X109067612Y-72044471D01*
X109067613Y-72044472D01*
X109067613Y-72044473D01*
X109401352Y-72543949D01*
X109527432Y-72628193D01*
X112634701Y-75735463D01*
X112634700Y-98608281D01*
X112605118Y-98757000D01*
X112722312Y-99346173D01*
X113025009Y-99799191D01*
X113056051Y-99845649D01*
X113555527Y-100179388D01*
X114144700Y-100296582D01*
X114293418Y-100267000D01*
X115040300Y-100267000D01*
X115172235Y-100355157D01*
X115420000Y-100404440D01*
X118420000Y-100404440D01*
X118667765Y-100355157D01*
X118877809Y-100214809D01*
X119018157Y-100004765D01*
X119067440Y-99757000D01*
X119067440Y-97757000D01*
X119018157Y-97509235D01*
X118877809Y-97299191D01*
X118667765Y-97158843D01*
X118420000Y-97109560D01*
X115654700Y-97109560D01*
X115654700Y-96637434D01*
X119829876Y-96637434D01*
X119860856Y-96765355D01*
X120174078Y-97323317D01*
X120676980Y-97718942D01*
X121293000Y-97892000D01*
X121793000Y-97892000D01*
X121793000Y-96384000D01*
X122047000Y-96384000D01*
X122047000Y-97892000D01*
X122547000Y-97892000D01*
X123163020Y-97718942D01*
X123665922Y-97323317D01*
X123979144Y-96765355D01*
X124010124Y-96637434D01*
X123890777Y-96384000D01*
X122047000Y-96384000D01*
X121793000Y-96384000D01*
X119949223Y-96384000D01*
X119829876Y-96637434D01*
X115654700Y-96637434D01*
X115654700Y-95876566D01*
X119829876Y-95876566D01*
X119949223Y-96130000D01*
X121793000Y-96130000D01*
X121793000Y-94622000D01*
X122047000Y-94622000D01*
X122047000Y-96130000D01*
X123890777Y-96130000D01*
X124010124Y-95876566D01*
X123979144Y-95748645D01*
X123665922Y-95190683D01*
X123163020Y-94795058D01*
X122547000Y-94622000D01*
X122047000Y-94622000D01*
X121793000Y-94622000D01*
X121293000Y-94622000D01*
X120676980Y-94795058D01*
X120174078Y-95190683D01*
X119860856Y-95748645D01*
X119829876Y-95876566D01*
X115654700Y-95876566D01*
X115654700Y-95201415D01*
X115676980Y-95218942D01*
X116293000Y-95392000D01*
X116793000Y-95392000D01*
X116793000Y-93884000D01*
X117047000Y-93884000D01*
X117047000Y-95392000D01*
X117547000Y-95392000D01*
X118163020Y-95218942D01*
X118665922Y-94823317D01*
X118979144Y-94265355D01*
X119010124Y-94137434D01*
X118890777Y-93884000D01*
X117047000Y-93884000D01*
X116793000Y-93884000D01*
X116773000Y-93884000D01*
X116773000Y-93630000D01*
X116793000Y-93630000D01*
X116793000Y-92122000D01*
X117047000Y-92122000D01*
X117047000Y-93630000D01*
X118890777Y-93630000D01*
X119010124Y-93376566D01*
X118979144Y-93248645D01*
X118665922Y-92690683D01*
X118163020Y-92295058D01*
X117547000Y-92122000D01*
X117047000Y-92122000D01*
X116793000Y-92122000D01*
X116293000Y-92122000D01*
X115676980Y-92295058D01*
X115654700Y-92312585D01*
X115654700Y-75258713D01*
X115684281Y-75109999D01*
X115654022Y-74957871D01*
X115567088Y-74520827D01*
X115233349Y-74021351D01*
X115107269Y-73937107D01*
X112000000Y-70829839D01*
X112000000Y-70827440D01*
X112090000Y-70827440D01*
X112337765Y-70778157D01*
X112547809Y-70637809D01*
X112688157Y-70427765D01*
X112737440Y-70180000D01*
X112737440Y-68580000D01*
X123451214Y-68580000D01*
X123624676Y-69452054D01*
X124118655Y-70191345D01*
X124857946Y-70685324D01*
X125509872Y-70815000D01*
X125950128Y-70815000D01*
X126602054Y-70685324D01*
X127341345Y-70191345D01*
X127835324Y-69452054D01*
X128008786Y-68580000D01*
X127835324Y-67707946D01*
X127341345Y-66968655D01*
X126602054Y-66474676D01*
X125950128Y-66345000D01*
X125509872Y-66345000D01*
X124857946Y-66474676D01*
X124118655Y-66968655D01*
X123624676Y-67707946D01*
X123451214Y-68580000D01*
X112737440Y-68580000D01*
X112737440Y-66980000D01*
X112688157Y-66732235D01*
X112547809Y-66522191D01*
X112337765Y-66381843D01*
X112090000Y-66332560D01*
X112000000Y-66332560D01*
X112000000Y-65853413D01*
X112029581Y-65704699D01*
X111912388Y-65115527D01*
X111872371Y-65055638D01*
X111578649Y-64616051D01*
X111452569Y-64531807D01*
X109124700Y-62203939D01*
X109124700Y-60195747D01*
X109617946Y-60525324D01*
X110269872Y-60655000D01*
X110710128Y-60655000D01*
X111362054Y-60525324D01*
X112101345Y-60031345D01*
X112595324Y-59292054D01*
X112768786Y-58420000D01*
X112595324Y-57547946D01*
X112101345Y-56808655D01*
X111362054Y-56314676D01*
X110710128Y-56185000D01*
X110269872Y-56185000D01*
X109617946Y-56314676D01*
X109124700Y-56644253D01*
X109124700Y-55907175D01*
X122152430Y-55907175D01*
X122275565Y-56194788D01*
X122957734Y-56454707D01*
X123687443Y-56433786D01*
X124264435Y-56194788D01*
X124387570Y-55907175D01*
X123270000Y-54789605D01*
X122152430Y-55907175D01*
X109124700Y-55907175D01*
X109124700Y-54297734D01*
X121425293Y-54297734D01*
X121446214Y-55027443D01*
X121685212Y-55604435D01*
X121972825Y-55727570D01*
X123090395Y-54610000D01*
X123449605Y-54610000D01*
X124567175Y-55727570D01*
X124854788Y-55604435D01*
X125114707Y-54922266D01*
X125093786Y-54192557D01*
X124854788Y-53615565D01*
X124567175Y-53492430D01*
X123449605Y-54610000D01*
X123090395Y-54610000D01*
X121972825Y-53492430D01*
X121685212Y-53615565D01*
X121425293Y-54297734D01*
X109124700Y-54297734D01*
X109124700Y-53312825D01*
X122152430Y-53312825D01*
X123270000Y-54430395D01*
X124387570Y-53312825D01*
X124264435Y-53025212D01*
X123582266Y-52765293D01*
X122852557Y-52786214D01*
X122275565Y-53025212D01*
X122152430Y-53312825D01*
X109124700Y-53312825D01*
X109124700Y-49556061D01*
X111452569Y-47228193D01*
X111578649Y-47143949D01*
X111912388Y-46644473D01*
X112000000Y-46204018D01*
X112000000Y-46204015D01*
X112029581Y-46055301D01*
X112000000Y-45906587D01*
X112000000Y-45427440D01*
X112090000Y-45427440D01*
X112337765Y-45378157D01*
X112547809Y-45237809D01*
X112688157Y-45027765D01*
X112737440Y-44780000D01*
X112737440Y-41580000D01*
X112688157Y-41332235D01*
X112547809Y-41122191D01*
X112337765Y-40981843D01*
X112090000Y-40932560D01*
X112000000Y-40932560D01*
X112000000Y-39779062D01*
X112101345Y-39711345D01*
X112595324Y-38972054D01*
X112768786Y-38100000D01*
X112595324Y-37227946D01*
X112101345Y-36488655D01*
X111362054Y-35994676D01*
X110710128Y-35865000D01*
X110269872Y-35865000D01*
X109617946Y-35994676D01*
X108878655Y-36488655D01*
X108384676Y-37227946D01*
X108211214Y-38100000D01*
X108384676Y-38972054D01*
X108878655Y-39711345D01*
X108980000Y-39779062D01*
X108980001Y-40932560D01*
X108890000Y-40932560D01*
X108642235Y-40981843D01*
X108432191Y-41122191D01*
X108291843Y-41332235D01*
X108242560Y-41580000D01*
X108242560Y-44780000D01*
X108291843Y-45027765D01*
X108432191Y-45237809D01*
X108642235Y-45378157D01*
X108890000Y-45427440D01*
X108980001Y-45427440D01*
X108980001Y-45429837D01*
X106652134Y-47757705D01*
X106526051Y-47841951D01*
X106192312Y-48341428D01*
X106192312Y-48341429D01*
X106075118Y-48930600D01*
X87870000Y-48930600D01*
X87870000Y-34776573D01*
X88017809Y-34677809D01*
X88158157Y-34467765D01*
X88188110Y-34317175D01*
X122152430Y-34317175D01*
X122275565Y-34604788D01*
X122957734Y-34864707D01*
X123687443Y-34843786D01*
X124264435Y-34604788D01*
X124387570Y-34317175D01*
X123270000Y-33199605D01*
X122152430Y-34317175D01*
X88188110Y-34317175D01*
X88207440Y-34220000D01*
X88207440Y-32707734D01*
X121425293Y-32707734D01*
X121446214Y-33437443D01*
X121685212Y-34014435D01*
X121972825Y-34137570D01*
X123090395Y-33020000D01*
X123449605Y-33020000D01*
X124567175Y-34137570D01*
X124854788Y-34014435D01*
X125114707Y-33332266D01*
X125093786Y-32602557D01*
X124854788Y-32025565D01*
X124567175Y-31902430D01*
X123449605Y-33020000D01*
X123090395Y-33020000D01*
X121972825Y-31902430D01*
X121685212Y-32025565D01*
X121425293Y-32707734D01*
X88207440Y-32707734D01*
X88207440Y-31820000D01*
X88188111Y-31722825D01*
X122152430Y-31722825D01*
X123270000Y-32840395D01*
X124290395Y-31820000D01*
X126422560Y-31820000D01*
X126422560Y-34220000D01*
X126471843Y-34467765D01*
X126612191Y-34677809D01*
X126760001Y-34776573D01*
X126760000Y-52853427D01*
X126612191Y-52952191D01*
X126471843Y-53162235D01*
X126422560Y-53410000D01*
X126422560Y-55810000D01*
X126471843Y-56057765D01*
X126612191Y-56267809D01*
X126822235Y-56408157D01*
X127070000Y-56457440D01*
X129470000Y-56457440D01*
X129717765Y-56408157D01*
X129927809Y-56267809D01*
X130068157Y-56057765D01*
X130117440Y-55810000D01*
X130117440Y-53410000D01*
X130068157Y-53162235D01*
X129927809Y-52952191D01*
X129780000Y-52853427D01*
X129780000Y-34776573D01*
X129927809Y-34677809D01*
X130068157Y-34467765D01*
X130117440Y-34220000D01*
X130117440Y-31820000D01*
X130068157Y-31572235D01*
X129927809Y-31362191D01*
X129717765Y-31221843D01*
X129470000Y-31172560D01*
X127070000Y-31172560D01*
X126822235Y-31221843D01*
X126612191Y-31362191D01*
X126471843Y-31572235D01*
X126422560Y-31820000D01*
X124290395Y-31820000D01*
X124387570Y-31722825D01*
X124264435Y-31435212D01*
X123582266Y-31175293D01*
X122852557Y-31196214D01*
X122275565Y-31435212D01*
X122152430Y-31722825D01*
X88188111Y-31722825D01*
X88158157Y-31572235D01*
X88017809Y-31362191D01*
X87807765Y-31221843D01*
X87560000Y-31172560D01*
X85160000Y-31172560D01*
X84912235Y-31221843D01*
X84702191Y-31362191D01*
X84561843Y-31572235D01*
X84512560Y-31820000D01*
X82380395Y-31820000D01*
X82477570Y-31722825D01*
X82354435Y-31435212D01*
X81672266Y-31175293D01*
X80942557Y-31196214D01*
X80365565Y-31435212D01*
X80242430Y-31722825D01*
X51368921Y-31722825D01*
X51377440Y-31680000D01*
X51377440Y-29280000D01*
X51328157Y-29032235D01*
X51187809Y-28822191D01*
X50977765Y-28681843D01*
X50730000Y-28632560D01*
X48330000Y-28632560D01*
X48082235Y-28681843D01*
X47872191Y-28822191D01*
X47731843Y-29032235D01*
X47682560Y-29280000D01*
X28517440Y-29280000D01*
X28468157Y-29032235D01*
X28327809Y-28822191D01*
X28117765Y-28681843D01*
X27870000Y-28632560D01*
X25470000Y-28632560D01*
X25222235Y-28681843D01*
X25012191Y-28822191D01*
X24871843Y-29032235D01*
X24822560Y-29280000D01*
X14680000Y-29280000D01*
X14680000Y-22860000D01*
X65439051Y-22860000D01*
X65581469Y-23575981D01*
X65987039Y-24182961D01*
X66594019Y-24588531D01*
X67129273Y-24695000D01*
X67490727Y-24695000D01*
X68025981Y-24588531D01*
X68632961Y-24182961D01*
X69038531Y-23575981D01*
X69180949Y-22860000D01*
X69108345Y-22494996D01*
X98495000Y-22494996D01*
X98495000Y-23225004D01*
X98774362Y-23899444D01*
X99290556Y-24415638D01*
X99964996Y-24695000D01*
X100695004Y-24695000D01*
X101369444Y-24415638D01*
X101885638Y-23899444D01*
X102165000Y-23225004D01*
X102165000Y-22494996D01*
X101885638Y-21820556D01*
X101369444Y-21304362D01*
X101262345Y-21260000D01*
X108242560Y-21260000D01*
X108242560Y-24460000D01*
X108291843Y-24707765D01*
X108432191Y-24917809D01*
X108642235Y-25058157D01*
X108890000Y-25107440D01*
X112090000Y-25107440D01*
X112337765Y-25058157D01*
X112547809Y-24917809D01*
X112688157Y-24707765D01*
X112737440Y-24460000D01*
X112737440Y-22494996D01*
X140405000Y-22494996D01*
X140405000Y-23225004D01*
X140684362Y-23899444D01*
X140730000Y-23945082D01*
X140730001Y-28126577D01*
X140700418Y-28275300D01*
X140817612Y-28864471D01*
X140817613Y-28864472D01*
X140817613Y-28864473D01*
X141151352Y-29363949D01*
X141277432Y-29448193D01*
X162321807Y-50492569D01*
X162406051Y-50618649D01*
X162905527Y-50952388D01*
X163126480Y-50996338D01*
X163494699Y-51069582D01*
X163643417Y-51040000D01*
X164122560Y-51040000D01*
X164122560Y-51130000D01*
X164171843Y-51377765D01*
X164312191Y-51587809D01*
X164522235Y-51728157D01*
X164770000Y-51777440D01*
X167970000Y-51777440D01*
X168217765Y-51728157D01*
X168427809Y-51587809D01*
X168568157Y-51377765D01*
X168617440Y-51130000D01*
X168617440Y-47930000D01*
X168568157Y-47682235D01*
X168427809Y-47472191D01*
X168217765Y-47331843D01*
X167970000Y-47282560D01*
X164770000Y-47282560D01*
X164522235Y-47331843D01*
X164312191Y-47472191D01*
X164171843Y-47682235D01*
X164122560Y-47930000D01*
X164122560Y-48020000D01*
X164120162Y-48020000D01*
X152316815Y-36216654D01*
X152393000Y-36180777D01*
X152393000Y-34337000D01*
X152647000Y-34337000D01*
X152647000Y-36180777D01*
X152900434Y-36300124D01*
X153028355Y-36269144D01*
X153586317Y-35955922D01*
X153981942Y-35453020D01*
X154155000Y-34837000D01*
X154155000Y-34337000D01*
X152647000Y-34337000D01*
X152393000Y-34337000D01*
X150885000Y-34337000D01*
X150885000Y-34784839D01*
X149683161Y-33583000D01*
X150885000Y-33583000D01*
X150885000Y-34083000D01*
X152393000Y-34083000D01*
X152393000Y-32239223D01*
X152647000Y-32239223D01*
X152647000Y-34083000D01*
X154155000Y-34083000D01*
X154155000Y-33583000D01*
X153981942Y-32966980D01*
X153586317Y-32464078D01*
X153028355Y-32150856D01*
X152900434Y-32119876D01*
X152647000Y-32239223D01*
X152393000Y-32239223D01*
X152139566Y-32119876D01*
X152011645Y-32150856D01*
X151453683Y-32464078D01*
X151058058Y-32966980D01*
X150885000Y-33583000D01*
X149683161Y-33583000D01*
X145437161Y-29337000D01*
X153385000Y-29337000D01*
X153385000Y-29837000D01*
X153558058Y-30453020D01*
X153953683Y-30955922D01*
X154511645Y-31269144D01*
X154639566Y-31300124D01*
X154893000Y-31180777D01*
X154893000Y-29337000D01*
X155147000Y-29337000D01*
X155147000Y-31180777D01*
X155400434Y-31300124D01*
X155528355Y-31269144D01*
X156074313Y-30962661D01*
X155980418Y-31434700D01*
X156010001Y-31583423D01*
X156010001Y-32330299D01*
X155921843Y-32462235D01*
X155872560Y-32710000D01*
X155872560Y-35710000D01*
X155921843Y-35957765D01*
X156062191Y-36167809D01*
X156272235Y-36308157D01*
X156520000Y-36357440D01*
X158520000Y-36357440D01*
X158767765Y-36308157D01*
X158977809Y-36167809D01*
X159118157Y-35957765D01*
X159167440Y-35710000D01*
X159167440Y-34379500D01*
X163585000Y-34379500D01*
X163585000Y-34879500D01*
X163758058Y-35495520D01*
X164153683Y-35998422D01*
X164711645Y-36311644D01*
X164839566Y-36342624D01*
X165093000Y-36223277D01*
X165093000Y-34379500D01*
X165347000Y-34379500D01*
X165347000Y-36223277D01*
X165600434Y-36342624D01*
X165728355Y-36311644D01*
X166286317Y-35998422D01*
X166681942Y-35495520D01*
X166855000Y-34879500D01*
X166855000Y-34379500D01*
X165347000Y-34379500D01*
X165093000Y-34379500D01*
X163585000Y-34379500D01*
X159167440Y-34379500D01*
X159167440Y-33625500D01*
X163585000Y-33625500D01*
X163585000Y-34125500D01*
X165093000Y-34125500D01*
X165093000Y-32281723D01*
X165347000Y-32281723D01*
X165347000Y-34125500D01*
X166855000Y-34125500D01*
X166855000Y-33625500D01*
X166681942Y-33009480D01*
X166286317Y-32506578D01*
X165728355Y-32193356D01*
X165600434Y-32162376D01*
X165347000Y-32281723D01*
X165093000Y-32281723D01*
X164839566Y-32162376D01*
X164711645Y-32193356D01*
X164153683Y-32506578D01*
X163758058Y-33009480D01*
X163585000Y-33625500D01*
X159167440Y-33625500D01*
X159167440Y-32710000D01*
X159118157Y-32462235D01*
X159032067Y-32333394D01*
X160008022Y-31357440D01*
X161020000Y-31357440D01*
X161267765Y-31308157D01*
X161477809Y-31167809D01*
X161618157Y-30957765D01*
X161667440Y-30710000D01*
X161667440Y-29379500D01*
X166085000Y-29379500D01*
X166085000Y-29879500D01*
X166258058Y-30495520D01*
X166653683Y-30998422D01*
X167211645Y-31311644D01*
X167339566Y-31342624D01*
X167593000Y-31223277D01*
X167593000Y-29379500D01*
X167847000Y-29379500D01*
X167847000Y-31223277D01*
X168100434Y-31342624D01*
X168228355Y-31311644D01*
X168786317Y-30998422D01*
X169181942Y-30495520D01*
X169355000Y-29879500D01*
X169355000Y-29379500D01*
X167847000Y-29379500D01*
X167593000Y-29379500D01*
X166085000Y-29379500D01*
X161667440Y-29379500D01*
X161667440Y-28625500D01*
X166085000Y-28625500D01*
X166085000Y-29125500D01*
X167593000Y-29125500D01*
X167593000Y-27281723D01*
X167847000Y-27281723D01*
X167847000Y-29125500D01*
X169355000Y-29125500D01*
X169355000Y-28625500D01*
X169181942Y-28009480D01*
X168786317Y-27506578D01*
X168228355Y-27193356D01*
X168100434Y-27162376D01*
X167847000Y-27281723D01*
X167593000Y-27281723D01*
X167339566Y-27162376D01*
X167211645Y-27193356D01*
X166653683Y-27506578D01*
X166258058Y-28009480D01*
X166085000Y-28625500D01*
X161667440Y-28625500D01*
X161667440Y-27710000D01*
X161618157Y-27462235D01*
X161477809Y-27252191D01*
X161267765Y-27111843D01*
X161020000Y-27062560D01*
X159020000Y-27062560D01*
X158772235Y-27111843D01*
X158562191Y-27252191D01*
X158421843Y-27462235D01*
X158372560Y-27710000D01*
X158372560Y-28721978D01*
X157119820Y-29974719D01*
X156930827Y-30012312D01*
X156530628Y-30279716D01*
X156655000Y-29837000D01*
X156655000Y-29337000D01*
X155147000Y-29337000D01*
X154893000Y-29337000D01*
X153385000Y-29337000D01*
X145437161Y-29337000D01*
X144683161Y-28583000D01*
X153385000Y-28583000D01*
X153385000Y-29083000D01*
X154893000Y-29083000D01*
X154893000Y-27239223D01*
X155147000Y-27239223D01*
X155147000Y-29083000D01*
X156655000Y-29083000D01*
X156655000Y-28583000D01*
X156481942Y-27966980D01*
X156086317Y-27464078D01*
X155528355Y-27150856D01*
X155400434Y-27119876D01*
X155147000Y-27239223D01*
X154893000Y-27239223D01*
X154639566Y-27119876D01*
X154511645Y-27150856D01*
X153953683Y-27464078D01*
X153558058Y-27966980D01*
X153385000Y-28583000D01*
X144683161Y-28583000D01*
X143750000Y-27649839D01*
X143750000Y-23945082D01*
X143795638Y-23899444D01*
X144075000Y-23225004D01*
X144075000Y-22494996D01*
X143795638Y-21820556D01*
X143279444Y-21304362D01*
X142605004Y-21025000D01*
X141874996Y-21025000D01*
X141200556Y-21304362D01*
X140684362Y-21820556D01*
X140405000Y-22494996D01*
X112737440Y-22494996D01*
X112737440Y-21260000D01*
X112688157Y-21012235D01*
X112547809Y-20802191D01*
X112337765Y-20661843D01*
X112090000Y-20612560D01*
X108890000Y-20612560D01*
X108642235Y-20661843D01*
X108432191Y-20802191D01*
X108291843Y-21012235D01*
X108242560Y-21260000D01*
X101262345Y-21260000D01*
X100695004Y-21025000D01*
X99964996Y-21025000D01*
X99290556Y-21304362D01*
X98774362Y-21820556D01*
X98495000Y-22494996D01*
X69108345Y-22494996D01*
X69038531Y-22144019D01*
X68632961Y-21537039D01*
X68025981Y-21131469D01*
X67490727Y-21025000D01*
X67129273Y-21025000D01*
X66594019Y-21131469D01*
X65987039Y-21537039D01*
X65581469Y-22144019D01*
X65439051Y-22860000D01*
X14680000Y-22860000D01*
X14680000Y-14032119D01*
X14724065Y-13782213D01*
X14819405Y-13617080D01*
X14965477Y-13494512D01*
X15174465Y-13418445D01*
X15270996Y-13410000D01*
X191707881Y-13410000D01*
X191957787Y-13454065D01*
X191957787Y-13454065D01*
G37*
X191957787Y-13454065D02*
X192122920Y-13549405D01*
X192245488Y-13695477D01*
X192321555Y-13904465D01*
X192330000Y-14000996D01*
X192330001Y-193667875D01*
X192285935Y-193917787D01*
X192190596Y-194082919D01*
X192044524Y-194205488D01*
X191835532Y-194281555D01*
X191739004Y-194290000D01*
X184538800Y-194290000D01*
X184795453Y-194183691D01*
X186183691Y-192795453D01*
X186935000Y-190981632D01*
X186935000Y-189018368D01*
X186183691Y-187204547D01*
X184795453Y-185816309D01*
X182981632Y-185065000D01*
X181018368Y-185065000D01*
X179204547Y-185816309D01*
X177816309Y-187204547D01*
X177065000Y-189018368D01*
X177065000Y-190981632D01*
X177816309Y-192795453D01*
X179204547Y-194183691D01*
X179461200Y-194290000D01*
X29538800Y-194290000D01*
X29795453Y-194183691D01*
X31183691Y-192795453D01*
X31935000Y-190981632D01*
X31935000Y-189018368D01*
X31183691Y-187204547D01*
X29795453Y-185816309D01*
X27981632Y-185065000D01*
X26018368Y-185065000D01*
X24204547Y-185816309D01*
X22816309Y-187204547D01*
X22065000Y-189018368D01*
X22065000Y-190981632D01*
X22816309Y-192795453D01*
X24204547Y-194183691D01*
X24461200Y-194290000D01*
X15302119Y-194290000D01*
X15052213Y-194245935D01*
X14887081Y-194150596D01*
X14764512Y-194004524D01*
X14688445Y-193795532D01*
X14680000Y-193699004D01*
X14680000Y-170398368D01*
X27240000Y-170398368D01*
X27240000Y-172361632D01*
X27991309Y-174175453D01*
X29379547Y-175563691D01*
X31193368Y-176315000D01*
X33156632Y-176315000D01*
X34970453Y-175563691D01*
X36358691Y-174175453D01*
X37110000Y-172361632D01*
X37110000Y-170398368D01*
X76240000Y-170398368D01*
X76240000Y-172361632D01*
X76991309Y-174175453D01*
X78379547Y-175563691D01*
X80193368Y-176315000D01*
X82156632Y-176315000D01*
X83970453Y-175563691D01*
X85358691Y-174175453D01*
X86110000Y-172361632D01*
X86110000Y-170398368D01*
X92240000Y-170398368D01*
X92240000Y-172361632D01*
X92991309Y-174175453D01*
X94379547Y-175563691D01*
X96193368Y-176315000D01*
X98156632Y-176315000D01*
X99970453Y-175563691D01*
X101358691Y-174175453D01*
X102110000Y-172361632D01*
X102110000Y-170398368D01*
X141240000Y-170398368D01*
X141240000Y-172361632D01*
X141991309Y-174175453D01*
X143379547Y-175563691D01*
X145193368Y-176315000D01*
X147156632Y-176315000D01*
X148970453Y-175563691D01*
X150358691Y-174175453D01*
X151110000Y-172361632D01*
X151110000Y-170398368D01*
X150358691Y-168584547D01*
X148970453Y-167196309D01*
X147156632Y-166445000D01*
X145193368Y-166445000D01*
X143379547Y-167196309D01*
X141991309Y-168584547D01*
X141240000Y-170398368D01*
X102110000Y-170398368D01*
X101358691Y-168584547D01*
X99970453Y-167196309D01*
X98156632Y-166445000D01*
X96193368Y-166445000D01*
X94379547Y-167196309D01*
X92991309Y-168584547D01*
X92240000Y-170398368D01*
X86110000Y-170398368D01*
X85358691Y-168584547D01*
X83970453Y-167196309D01*
X82156632Y-166445000D01*
X80193368Y-166445000D01*
X78379547Y-167196309D01*
X76991309Y-168584547D01*
X76240000Y-170398368D01*
X37110000Y-170398368D01*
X36358691Y-168584547D01*
X34970453Y-167196309D01*
X33156632Y-166445000D01*
X31193368Y-166445000D01*
X29379547Y-167196309D01*
X27991309Y-168584547D01*
X27240000Y-170398368D01*
X14680000Y-170398368D01*
X14680000Y-160018368D01*
X177065000Y-160018368D01*
X177065000Y-161981632D01*
X177816309Y-163795453D01*
X179204547Y-165183691D01*
X181018368Y-165935000D01*
X182981632Y-165935000D01*
X184795453Y-165183691D01*
X186183691Y-163795453D01*
X186935000Y-161981632D01*
X186935000Y-160018368D01*
X186183691Y-158204547D01*
X184795453Y-156816309D01*
X182981632Y-156065000D01*
X181018368Y-156065000D01*
X179204547Y-156816309D01*
X177816309Y-158204547D01*
X177065000Y-160018368D01*
X14680000Y-160018368D01*
X14680000Y-146398368D01*
X171240000Y-146398368D01*
X171240000Y-148361632D01*
X171991309Y-150175453D01*
X173379547Y-151563691D01*
X175193368Y-152315000D01*
X177156632Y-152315000D01*
X178970453Y-151563691D01*
X180358691Y-150175453D01*
X181110000Y-148361632D01*
X181110000Y-146398368D01*
X180358691Y-144584547D01*
X178970453Y-143196309D01*
X177156632Y-142445000D01*
X175193368Y-142445000D01*
X173379547Y-143196309D01*
X171991309Y-144584547D01*
X171240000Y-146398368D01*
X14680000Y-146398368D01*
X14680000Y-129777497D01*
X99285000Y-129777497D01*
X99285000Y-131422503D01*
X99914517Y-132942289D01*
X101077711Y-134105483D01*
X102597497Y-134735000D01*
X104242503Y-134735000D01*
X105762289Y-134105483D01*
X106925483Y-132942289D01*
X107555000Y-131422503D01*
X107555000Y-129777497D01*
X106925483Y-128257711D01*
X105762289Y-127094517D01*
X104242503Y-126465000D01*
X102597497Y-126465000D01*
X101077711Y-127094517D01*
X99914517Y-128257711D01*
X99285000Y-129777497D01*
X14680000Y-129777497D01*
X14680000Y-112398368D01*
X27240000Y-112398368D01*
X27240000Y-114361632D01*
X27991309Y-116175453D01*
X29379547Y-117563691D01*
X31193368Y-118315000D01*
X33156632Y-118315000D01*
X34970453Y-117563691D01*
X36358691Y-116175453D01*
X37110000Y-114361632D01*
X37110000Y-112398368D01*
X76240000Y-112398368D01*
X76240000Y-114361632D01*
X76991309Y-116175453D01*
X78379547Y-117563691D01*
X80193368Y-118315000D01*
X82156632Y-118315000D01*
X83970453Y-117563691D01*
X85358691Y-116175453D01*
X86110000Y-114361632D01*
X86110000Y-112398368D01*
X92520000Y-112398368D01*
X92520000Y-114361632D01*
X93271309Y-116175453D01*
X94659547Y-117563691D01*
X96473368Y-118315000D01*
X98436632Y-118315000D01*
X100250453Y-117563691D01*
X101638691Y-116175453D01*
X102390000Y-114361632D01*
X102390000Y-112398368D01*
X141240000Y-112398368D01*
X141240000Y-114361632D01*
X141991309Y-116175453D01*
X143379547Y-117563691D01*
X145193368Y-118315000D01*
X147156632Y-118315000D01*
X148970453Y-117563691D01*
X150358691Y-116175453D01*
X151110000Y-114361632D01*
X151110000Y-112398368D01*
X150358691Y-110584547D01*
X148970453Y-109196309D01*
X147156632Y-108445000D01*
X145193368Y-108445000D01*
X143379547Y-109196309D01*
X141991309Y-110584547D01*
X141240000Y-112398368D01*
X102390000Y-112398368D01*
X101638691Y-110584547D01*
X100250453Y-109196309D01*
X98436632Y-108445000D01*
X96473368Y-108445000D01*
X94659547Y-109196309D01*
X93271309Y-110584547D01*
X92520000Y-112398368D01*
X86110000Y-112398368D01*
X85358691Y-110584547D01*
X83970453Y-109196309D01*
X82156632Y-108445000D01*
X80193368Y-108445000D01*
X78379547Y-109196309D01*
X76991309Y-110584547D01*
X76240000Y-112398368D01*
X37110000Y-112398368D01*
X36358691Y-110584547D01*
X34970453Y-109196309D01*
X33156632Y-108445000D01*
X31193368Y-108445000D01*
X29379547Y-109196309D01*
X27991309Y-110584547D01*
X27240000Y-112398368D01*
X14680000Y-112398368D01*
X14680000Y-103130434D01*
X47359876Y-103130434D01*
X47390856Y-103258355D01*
X47704078Y-103816317D01*
X48206980Y-104211942D01*
X48823000Y-104385000D01*
X49323000Y-104385000D01*
X49323000Y-102877000D01*
X49577000Y-102877000D01*
X49577000Y-104385000D01*
X50077000Y-104385000D01*
X50693020Y-104211942D01*
X51195922Y-103816317D01*
X51509144Y-103258355D01*
X51540124Y-103130434D01*
X51420777Y-102877000D01*
X49577000Y-102877000D01*
X49323000Y-102877000D01*
X47479223Y-102877000D01*
X47359876Y-103130434D01*
X14680000Y-103130434D01*
X14680000Y-102369566D01*
X47359876Y-102369566D01*
X47479223Y-102623000D01*
X49323000Y-102623000D01*
X49323000Y-101115000D01*
X49577000Y-101115000D01*
X49577000Y-102623000D01*
X51420777Y-102623000D01*
X51540124Y-102369566D01*
X51509144Y-102241645D01*
X51195922Y-101683683D01*
X50693020Y-101288058D01*
X50077000Y-101115000D01*
X49577000Y-101115000D01*
X49323000Y-101115000D01*
X48823000Y-101115000D01*
X48206980Y-101288058D01*
X47704078Y-101683683D01*
X47390856Y-102241645D01*
X47359876Y-102369566D01*
X14680000Y-102369566D01*
X14680000Y-100630434D01*
X42359876Y-100630434D01*
X42390856Y-100758355D01*
X42704078Y-101316317D01*
X43206980Y-101711942D01*
X43823000Y-101885000D01*
X44323000Y-101885000D01*
X44323000Y-100377000D01*
X44577000Y-100377000D01*
X44577000Y-101885000D01*
X45077000Y-101885000D01*
X45693020Y-101711942D01*
X46195922Y-101316317D01*
X46509144Y-100758355D01*
X46540124Y-100630434D01*
X46420777Y-100377000D01*
X44577000Y-100377000D01*
X44323000Y-100377000D01*
X42479223Y-100377000D01*
X42359876Y-100630434D01*
X14680000Y-100630434D01*
X14680000Y-99869566D01*
X42359876Y-99869566D01*
X42479223Y-100123000D01*
X44323000Y-100123000D01*
X44323000Y-98615000D01*
X43823000Y-98615000D01*
X43206980Y-98788058D01*
X42704078Y-99183683D01*
X42390856Y-99741645D01*
X42359876Y-99869566D01*
X14680000Y-99869566D01*
X14680000Y-94250000D01*
X42302560Y-94250000D01*
X42302560Y-96250000D01*
X42351843Y-96497765D01*
X42492191Y-96707809D01*
X42702235Y-96848157D01*
X42950000Y-96897440D01*
X43961979Y-96897440D01*
X45214719Y-98150181D01*
X45252312Y-98339173D01*
X45402101Y-98563348D01*
X45519716Y-98739372D01*
X45077000Y-98615000D01*
X44577000Y-98615000D01*
X44577000Y-100123000D01*
X46420777Y-100123000D01*
X46540124Y-99869566D01*
X46509144Y-99741645D01*
X46202661Y-99195687D01*
X46674700Y-99289582D01*
X46823418Y-99260000D01*
X47570300Y-99260000D01*
X47702235Y-99348157D01*
X47950000Y-99397440D01*
X50950000Y-99397440D01*
X51197765Y-99348157D01*
X51407809Y-99207809D01*
X51548157Y-98997765D01*
X51597440Y-98750000D01*
X51597440Y-97744000D01*
X57622560Y-97744000D01*
X57622560Y-99744000D01*
X57671843Y-99991765D01*
X57812191Y-100201809D01*
X58022235Y-100342157D01*
X58270000Y-100391440D01*
X61270000Y-100391440D01*
X61517765Y-100342157D01*
X61664666Y-100244000D01*
X62622560Y-100244000D01*
X62622560Y-102244000D01*
X62671843Y-102491765D01*
X62812191Y-102701809D01*
X63022235Y-102842157D01*
X63270000Y-102891440D01*
X66270000Y-102891440D01*
X66517765Y-102842157D01*
X66649700Y-102754000D01*
X66919839Y-102754000D01*
X70162307Y-105996469D01*
X70246551Y-106122549D01*
X70746027Y-106456288D01*
X71186482Y-106543900D01*
X71335200Y-106573482D01*
X71483918Y-106543900D01*
X122302582Y-106543900D01*
X122451300Y-106573482D01*
X122600018Y-106543900D01*
X123040473Y-106456288D01*
X123539949Y-106122549D01*
X123624195Y-105996466D01*
X131702169Y-97918493D01*
X131828249Y-97834249D01*
X132161988Y-97334773D01*
X132249600Y-96894318D01*
X132249600Y-96894315D01*
X132279181Y-96745601D01*
X132249600Y-96596887D01*
X132249600Y-84760000D01*
X141262560Y-84760000D01*
X141262560Y-87960000D01*
X141311843Y-88207765D01*
X141452191Y-88417809D01*
X141662235Y-88558157D01*
X141910000Y-88607440D01*
X142000001Y-88607440D01*
X142000000Y-94164918D01*
X141954362Y-94210556D01*
X141675000Y-94884996D01*
X141675000Y-95615004D01*
X141954362Y-96289444D01*
X142470556Y-96805638D01*
X143144996Y-97085000D01*
X143875004Y-97085000D01*
X144549444Y-96805638D01*
X145065638Y-96289444D01*
X145345000Y-95615004D01*
X145345000Y-94884996D01*
X145065638Y-94210556D01*
X145020000Y-94164918D01*
X145020000Y-88607440D01*
X145110000Y-88607440D01*
X145357765Y-88558157D01*
X145567809Y-88417809D01*
X145708157Y-88207765D01*
X145757440Y-87960000D01*
X145757440Y-84760000D01*
X145708157Y-84512235D01*
X145567809Y-84302191D01*
X145357765Y-84161843D01*
X145110000Y-84112560D01*
X141910000Y-84112560D01*
X141662235Y-84161843D01*
X141452191Y-84302191D01*
X141311843Y-84512235D01*
X141262560Y-84760000D01*
X132249600Y-84760000D01*
X132249600Y-72106261D01*
X133235861Y-71120000D01*
X141231214Y-71120000D01*
X141404676Y-71992054D01*
X141898655Y-72731345D01*
X142000001Y-72799062D01*
X142000001Y-73846577D01*
X141970418Y-73995300D01*
X142087612Y-74584471D01*
X142087613Y-74584472D01*
X142087613Y-74584473D01*
X142421352Y-75083949D01*
X142547432Y-75168193D01*
X145811807Y-78432569D01*
X145896051Y-78558649D01*
X146395527Y-78892388D01*
X146835982Y-78980000D01*
X146984700Y-79009582D01*
X147133418Y-78980000D01*
X147612560Y-78980000D01*
X147612560Y-79070000D01*
X147661843Y-79317765D01*
X147802191Y-79527809D01*
X148012235Y-79668157D01*
X148260000Y-79717440D01*
X148350001Y-79717440D01*
X148350000Y-82842560D01*
X148260000Y-82842560D01*
X148012235Y-82891843D01*
X147802191Y-83032191D01*
X147661843Y-83242235D01*
X147612560Y-83490000D01*
X147612560Y-86690000D01*
X147661843Y-86937765D01*
X147802191Y-87147809D01*
X148012235Y-87288157D01*
X148260000Y-87337440D01*
X151460000Y-87337440D01*
X151707765Y-87288157D01*
X151917809Y-87147809D01*
X152058157Y-86937765D01*
X152107440Y-86690000D01*
X152107440Y-85090000D01*
X162821214Y-85090000D01*
X162994676Y-85962054D01*
X163488655Y-86701345D01*
X164227946Y-87195324D01*
X164879872Y-87325000D01*
X165320128Y-87325000D01*
X165972054Y-87195324D01*
X166711345Y-86701345D01*
X166779062Y-86600000D01*
X178830001Y-86600000D01*
X178830000Y-88815982D01*
X178800418Y-88964700D01*
X178830000Y-89113417D01*
X178917612Y-89553872D01*
X179251351Y-90053349D01*
X179377434Y-90137595D01*
X182640001Y-93400163D01*
X182640000Y-94206963D01*
X182421469Y-94534019D01*
X182279051Y-95250000D01*
X182421469Y-95965981D01*
X182827039Y-96572961D01*
X183434019Y-96978531D01*
X183969273Y-97085000D01*
X184330727Y-97085000D01*
X184865981Y-96978531D01*
X185472961Y-96572961D01*
X185878531Y-95965981D01*
X186020949Y-95250000D01*
X185878531Y-94534019D01*
X185660000Y-94206963D01*
X185660000Y-92923418D01*
X185689582Y-92774700D01*
X185572388Y-92185528D01*
X185572388Y-92185527D01*
X185238649Y-91686051D01*
X185112569Y-91601807D01*
X181850000Y-88339239D01*
X181850000Y-85238717D01*
X181879582Y-85090000D01*
X181850000Y-84941282D01*
X181850000Y-80496573D01*
X181997809Y-80397809D01*
X182138157Y-80187765D01*
X182187440Y-79940000D01*
X182187440Y-77540000D01*
X182138157Y-77292235D01*
X181997809Y-77082191D01*
X181787765Y-76941843D01*
X181540000Y-76892560D01*
X179140000Y-76892560D01*
X178892235Y-76941843D01*
X178682191Y-77082191D01*
X178541843Y-77292235D01*
X178492560Y-77540000D01*
X178492560Y-79940000D01*
X178541843Y-80187765D01*
X178682191Y-80397809D01*
X178830001Y-80496573D01*
X178830000Y-83580000D01*
X166779062Y-83580000D01*
X166711345Y-83478655D01*
X165972054Y-82984676D01*
X165320128Y-82855000D01*
X164879872Y-82855000D01*
X164227946Y-82984676D01*
X163488655Y-83478655D01*
X162994676Y-84217946D01*
X162821214Y-85090000D01*
X152107440Y-85090000D01*
X152107440Y-83490000D01*
X152058157Y-83242235D01*
X151917809Y-83032191D01*
X151707765Y-82891843D01*
X151460000Y-82842560D01*
X151370000Y-82842560D01*
X151370000Y-80037175D01*
X174222430Y-80037175D01*
X174345565Y-80324788D01*
X175027734Y-80584707D01*
X175757443Y-80563786D01*
X176334435Y-80324788D01*
X176457570Y-80037175D01*
X175340000Y-78919605D01*
X174222430Y-80037175D01*
X151370000Y-80037175D01*
X151370000Y-79717440D01*
X151460000Y-79717440D01*
X151707765Y-79668157D01*
X151917809Y-79527809D01*
X152058157Y-79317765D01*
X152107440Y-79070000D01*
X152107440Y-77470000D01*
X162821214Y-77470000D01*
X162994676Y-78342054D01*
X163488655Y-79081345D01*
X164227946Y-79575324D01*
X164879872Y-79705000D01*
X165320128Y-79705000D01*
X165972054Y-79575324D01*
X166711345Y-79081345D01*
X167148074Y-78427734D01*
X173495293Y-78427734D01*
X173516214Y-79157443D01*
X173755212Y-79734435D01*
X174042825Y-79857570D01*
X175160395Y-78740000D01*
X175519605Y-78740000D01*
X176637175Y-79857570D01*
X176924788Y-79734435D01*
X177184707Y-79052266D01*
X177163786Y-78322557D01*
X176924788Y-77745565D01*
X176637175Y-77622430D01*
X175519605Y-78740000D01*
X175160395Y-78740000D01*
X174042825Y-77622430D01*
X173755212Y-77745565D01*
X173495293Y-78427734D01*
X167148074Y-78427734D01*
X167205324Y-78342054D01*
X167378786Y-77470000D01*
X167373381Y-77442825D01*
X174222430Y-77442825D01*
X175340000Y-78560395D01*
X176457570Y-77442825D01*
X176334435Y-77155212D01*
X175652266Y-76895293D01*
X174922557Y-76916214D01*
X174345565Y-77155212D01*
X174222430Y-77442825D01*
X167373381Y-77442825D01*
X167205324Y-76597946D01*
X166711345Y-75858655D01*
X165972054Y-75364676D01*
X165320128Y-75235000D01*
X164879872Y-75235000D01*
X164227946Y-75364676D01*
X163488655Y-75858655D01*
X162994676Y-76597946D01*
X162821214Y-77470000D01*
X152107440Y-77470000D01*
X152107440Y-75870000D01*
X152058157Y-75622235D01*
X151917809Y-75412191D01*
X151707765Y-75271843D01*
X151460000Y-75222560D01*
X148260000Y-75222560D01*
X148012235Y-75271843D01*
X147802191Y-75412191D01*
X147661843Y-75622235D01*
X147612560Y-75870000D01*
X147612560Y-75960000D01*
X147610162Y-75960000D01*
X145020000Y-73369839D01*
X145020000Y-72799062D01*
X145121345Y-72731345D01*
X145615324Y-71992054D01*
X145788786Y-71120000D01*
X145615324Y-70247946D01*
X145121345Y-69508655D01*
X144382054Y-69014676D01*
X143730128Y-68885000D01*
X143289872Y-68885000D01*
X142637946Y-69014676D01*
X141898655Y-69508655D01*
X141404676Y-70247946D01*
X141231214Y-71120000D01*
X133235861Y-71120000D01*
X140449818Y-63906043D01*
X140511469Y-64215981D01*
X140917039Y-64822961D01*
X141524019Y-65228531D01*
X142059273Y-65335000D01*
X142420727Y-65335000D01*
X142955981Y-65228531D01*
X143283037Y-65010000D01*
X144089839Y-65010000D01*
X148287107Y-69207269D01*
X148371351Y-69333349D01*
X148870827Y-69667088D01*
X149349211Y-69762245D01*
X149024676Y-70247946D01*
X148851214Y-71120000D01*
X149024676Y-71992054D01*
X149518655Y-72731345D01*
X150257946Y-73225324D01*
X150909872Y-73355000D01*
X151350128Y-73355000D01*
X152002054Y-73225324D01*
X152741345Y-72731345D01*
X153235324Y-71992054D01*
X153408786Y-71120000D01*
X156471214Y-71120000D01*
X156644676Y-71992054D01*
X157138655Y-72731345D01*
X157877946Y-73225324D01*
X158529872Y-73355000D01*
X158970128Y-73355000D01*
X159622054Y-73225324D01*
X160361345Y-72731345D01*
X160855324Y-71992054D01*
X161028786Y-71120000D01*
X160855324Y-70247946D01*
X160361345Y-69508655D01*
X160260000Y-69440938D01*
X160260000Y-68870161D01*
X170682987Y-58447175D01*
X174222430Y-58447175D01*
X174345565Y-58734788D01*
X175027734Y-58994707D01*
X175757443Y-58973786D01*
X176334435Y-58734788D01*
X176457570Y-58447175D01*
X175340000Y-57329605D01*
X174222430Y-58447175D01*
X170682987Y-58447175D01*
X171182572Y-57947591D01*
X171308649Y-57863349D01*
X171399461Y-57727440D01*
X171519394Y-57547946D01*
X171642388Y-57363873D01*
X171730000Y-56923418D01*
X171747043Y-56837734D01*
X173495293Y-56837734D01*
X173516214Y-57567443D01*
X173755212Y-58144435D01*
X174042825Y-58267570D01*
X175160395Y-57150000D01*
X175519605Y-57150000D01*
X176637175Y-58267570D01*
X176924788Y-58144435D01*
X177184707Y-57462266D01*
X177163786Y-56732557D01*
X176924788Y-56155565D01*
X176637175Y-56032430D01*
X175519605Y-57150000D01*
X175160395Y-57150000D01*
X174042825Y-56032430D01*
X173755212Y-56155565D01*
X173495293Y-56837734D01*
X171747043Y-56837734D01*
X171759582Y-56774700D01*
X171730000Y-56625982D01*
X171730000Y-55852825D01*
X174222430Y-55852825D01*
X175340000Y-56970395D01*
X176360395Y-55950000D01*
X178492560Y-55950000D01*
X178492560Y-58350000D01*
X178541843Y-58597765D01*
X178682191Y-58807809D01*
X178892235Y-58948157D01*
X179140000Y-58997440D01*
X181540000Y-58997440D01*
X181787765Y-58948157D01*
X181997809Y-58807809D01*
X182138157Y-58597765D01*
X182187440Y-58350000D01*
X182187440Y-55950000D01*
X182138157Y-55702235D01*
X181997809Y-55492191D01*
X181787765Y-55351843D01*
X181540000Y-55302560D01*
X179140000Y-55302560D01*
X178892235Y-55351843D01*
X178682191Y-55492191D01*
X178541843Y-55702235D01*
X178492560Y-55950000D01*
X176360395Y-55950000D01*
X176457570Y-55852825D01*
X176334435Y-55565212D01*
X175652266Y-55305293D01*
X174922557Y-55326214D01*
X174345565Y-55565212D01*
X174222430Y-55852825D01*
X171730000Y-55852825D01*
X171730000Y-36132200D01*
X171818157Y-36000265D01*
X171867440Y-35752500D01*
X171867440Y-34740521D01*
X172270961Y-34337000D01*
X176285000Y-34337000D01*
X176285000Y-34837000D01*
X176458058Y-35453020D01*
X176853683Y-35955922D01*
X177411645Y-36269144D01*
X177539566Y-36300124D01*
X177793000Y-36180777D01*
X177793000Y-34337000D01*
X178047000Y-34337000D01*
X178047000Y-36180777D01*
X178300434Y-36300124D01*
X178428355Y-36269144D01*
X178986317Y-35955922D01*
X179381942Y-35453020D01*
X179555000Y-34837000D01*
X179555000Y-34337000D01*
X178047000Y-34337000D01*
X177793000Y-34337000D01*
X176285000Y-34337000D01*
X172270961Y-34337000D01*
X173024961Y-33583000D01*
X176285000Y-33583000D01*
X176285000Y-34083000D01*
X177793000Y-34083000D01*
X177793000Y-32239223D01*
X178047000Y-32239223D01*
X178047000Y-34083000D01*
X179555000Y-34083000D01*
X179555000Y-33583000D01*
X179381942Y-32966980D01*
X179179780Y-32710000D01*
X181272560Y-32710000D01*
X181272560Y-35710000D01*
X181321843Y-35957765D01*
X181462191Y-36167809D01*
X181672235Y-36308157D01*
X181920000Y-36357440D01*
X183920000Y-36357440D01*
X184167765Y-36308157D01*
X184377809Y-36167809D01*
X184518157Y-35957765D01*
X184567440Y-35710000D01*
X184567440Y-34698021D01*
X185820181Y-33445281D01*
X186009173Y-33407688D01*
X186508649Y-33073949D01*
X186842388Y-32574473D01*
X186959582Y-31985300D01*
X186930000Y-31836582D01*
X186930000Y-31089700D01*
X187018157Y-30957765D01*
X187067440Y-30710000D01*
X187067440Y-27710000D01*
X187018157Y-27462235D01*
X186877809Y-27252191D01*
X186667765Y-27111843D01*
X186420000Y-27062560D01*
X184420000Y-27062560D01*
X184172235Y-27111843D01*
X183962191Y-27252191D01*
X183821843Y-27462235D01*
X183772560Y-27710000D01*
X183772560Y-30710000D01*
X183821843Y-30957765D01*
X183907932Y-31086606D01*
X182931979Y-32062560D01*
X181920000Y-32062560D01*
X181672235Y-32111843D01*
X181462191Y-32252191D01*
X181321843Y-32462235D01*
X181272560Y-32710000D01*
X179179780Y-32710000D01*
X178986317Y-32464078D01*
X178428355Y-32150856D01*
X178300434Y-32119876D01*
X178047000Y-32239223D01*
X177793000Y-32239223D01*
X177539566Y-32119876D01*
X177411645Y-32150856D01*
X176853683Y-32464078D01*
X176458058Y-32966980D01*
X176285000Y-33583000D01*
X173024961Y-33583000D01*
X173120181Y-33487781D01*
X173309173Y-33450188D01*
X173808649Y-33116449D01*
X174142388Y-32616973D01*
X174230000Y-32176518D01*
X174259582Y-32027800D01*
X174230000Y-31879082D01*
X174230000Y-31132200D01*
X174318157Y-31000265D01*
X174367440Y-30752500D01*
X174367440Y-29337000D01*
X178785000Y-29337000D01*
X178785000Y-29837000D01*
X178958058Y-30453020D01*
X179353683Y-30955922D01*
X179911645Y-31269144D01*
X180039566Y-31300124D01*
X180293000Y-31180777D01*
X180293000Y-29337000D01*
X180547000Y-29337000D01*
X180547000Y-31180777D01*
X180800434Y-31300124D01*
X180928355Y-31269144D01*
X181486317Y-30955922D01*
X181881942Y-30453020D01*
X182055000Y-29837000D01*
X182055000Y-29337000D01*
X180547000Y-29337000D01*
X180293000Y-29337000D01*
X178785000Y-29337000D01*
X174367440Y-29337000D01*
X174367440Y-28583000D01*
X178785000Y-28583000D01*
X178785000Y-29083000D01*
X180293000Y-29083000D01*
X180293000Y-27239223D01*
X180547000Y-27239223D01*
X180547000Y-29083000D01*
X182055000Y-29083000D01*
X182055000Y-28583000D01*
X181881942Y-27966980D01*
X181486317Y-27464078D01*
X180928355Y-27150856D01*
X180800434Y-27119876D01*
X180547000Y-27239223D01*
X180293000Y-27239223D01*
X180039566Y-27119876D01*
X179911645Y-27150856D01*
X179353683Y-27464078D01*
X178958058Y-27966980D01*
X178785000Y-28583000D01*
X174367440Y-28583000D01*
X174367440Y-27752500D01*
X174318157Y-27504735D01*
X174177809Y-27294691D01*
X173967765Y-27154343D01*
X173720000Y-27105060D01*
X171720000Y-27105060D01*
X171472235Y-27154343D01*
X171262191Y-27294691D01*
X171121843Y-27504735D01*
X171072560Y-27752500D01*
X171072560Y-30752500D01*
X171121843Y-31000265D01*
X171207932Y-31129106D01*
X170231979Y-32105060D01*
X169220000Y-32105060D01*
X168972235Y-32154343D01*
X168762191Y-32294691D01*
X168621843Y-32504735D01*
X168572560Y-32752500D01*
X168572560Y-35752500D01*
X168621843Y-36000265D01*
X168710000Y-36132200D01*
X168710001Y-56149236D01*
X157787432Y-67071807D01*
X157661352Y-67156051D01*
X157505888Y-67388720D01*
X157327612Y-67655529D01*
X157210418Y-68244700D01*
X157240001Y-68393423D01*
X157240001Y-69440938D01*
X157138655Y-69508655D01*
X156644676Y-70247946D01*
X156471214Y-71120000D01*
X153408786Y-71120000D01*
X153235324Y-70247946D01*
X152741345Y-69508655D01*
X152640000Y-69440938D01*
X152640000Y-68393418D01*
X152669582Y-68244700D01*
X152552388Y-67655527D01*
X152218649Y-67156051D01*
X151719173Y-66822312D01*
X151278718Y-66734700D01*
X151130000Y-66705118D01*
X150981282Y-66734700D01*
X150085462Y-66734700D01*
X145888195Y-62537434D01*
X145803949Y-62411351D01*
X145304473Y-62077612D01*
X144864018Y-61990000D01*
X144715300Y-61960418D01*
X144566582Y-61990000D01*
X143283037Y-61990000D01*
X142955981Y-61771469D01*
X142646043Y-61709818D01*
X146965862Y-57390000D01*
X148882560Y-57390000D01*
X148882560Y-57480000D01*
X148931843Y-57727765D01*
X149072191Y-57937809D01*
X149282235Y-58078157D01*
X149530000Y-58127440D01*
X152730000Y-58127440D01*
X152977765Y-58078157D01*
X153187809Y-57937809D01*
X153328157Y-57727765D01*
X153377440Y-57480000D01*
X153377440Y-54280000D01*
X156502560Y-54280000D01*
X156502560Y-57480000D01*
X156551843Y-57727765D01*
X156692191Y-57937809D01*
X156902235Y-58078157D01*
X157150000Y-58127440D01*
X160350000Y-58127440D01*
X160597765Y-58078157D01*
X160807809Y-57937809D01*
X160948157Y-57727765D01*
X160997440Y-57480000D01*
X160997440Y-54280000D01*
X160948157Y-54032235D01*
X160807809Y-53822191D01*
X160597765Y-53681843D01*
X160350000Y-53632560D01*
X157150000Y-53632560D01*
X156902235Y-53681843D01*
X156692191Y-53822191D01*
X156551843Y-54032235D01*
X156502560Y-54280000D01*
X153377440Y-54280000D01*
X153328157Y-54032235D01*
X153187809Y-53822191D01*
X152977765Y-53681843D01*
X152730000Y-53632560D01*
X152640000Y-53632560D01*
X152640000Y-51209062D01*
X152741345Y-51141345D01*
X153235324Y-50402054D01*
X153408786Y-49530000D01*
X153235324Y-48657946D01*
X152741345Y-47918655D01*
X152002054Y-47424676D01*
X151350128Y-47295000D01*
X150909872Y-47295000D01*
X150257946Y-47424676D01*
X149518655Y-47918655D01*
X149024676Y-48657946D01*
X148851214Y-49530000D01*
X149024676Y-50402054D01*
X149518655Y-51141345D01*
X149620001Y-51209062D01*
X149620000Y-53632560D01*
X149530000Y-53632560D01*
X149282235Y-53681843D01*
X149072191Y-53822191D01*
X148931843Y-54032235D01*
X148882560Y-54280000D01*
X148882560Y-54370000D01*
X146489118Y-54370000D01*
X146340400Y-54340418D01*
X146191682Y-54370000D01*
X145751227Y-54457612D01*
X145251751Y-54791351D01*
X145167507Y-54917431D01*
X129777034Y-70307905D01*
X129650951Y-70392151D01*
X129317212Y-70891628D01*
X129317212Y-70891629D01*
X129200018Y-71480800D01*
X129229600Y-71629518D01*
X129229601Y-96120137D01*
X124067440Y-101282299D01*
X124067440Y-100257000D01*
X124018157Y-100009235D01*
X123877809Y-99799191D01*
X123667765Y-99658843D01*
X123420000Y-99609560D01*
X120420000Y-99609560D01*
X120172235Y-99658843D01*
X119962191Y-99799191D01*
X119821843Y-100009235D01*
X119772560Y-100257000D01*
X119772560Y-102257000D01*
X119821843Y-102504765D01*
X119962191Y-102714809D01*
X120172235Y-102855157D01*
X120420000Y-102904440D01*
X122445299Y-102904440D01*
X121825839Y-103523900D01*
X108510076Y-103523900D01*
X108659144Y-103258355D01*
X108690124Y-103130434D01*
X108570777Y-102877000D01*
X106727000Y-102877000D01*
X106727000Y-102897000D01*
X106473000Y-102897000D01*
X106473000Y-102877000D01*
X104629223Y-102877000D01*
X104509876Y-103130434D01*
X104540856Y-103258355D01*
X104689924Y-103523900D01*
X71960662Y-103523900D01*
X70806328Y-102369566D01*
X104509876Y-102369566D01*
X104629223Y-102623000D01*
X106473000Y-102623000D01*
X106473000Y-101115000D01*
X106727000Y-101115000D01*
X106727000Y-102623000D01*
X108570777Y-102623000D01*
X108690124Y-102369566D01*
X108659144Y-102241645D01*
X108345922Y-101683683D01*
X107843020Y-101288058D01*
X107227000Y-101115000D01*
X106727000Y-101115000D01*
X106473000Y-101115000D01*
X105973000Y-101115000D01*
X105356980Y-101288058D01*
X104854078Y-101683683D01*
X104540856Y-102241645D01*
X104509876Y-102369566D01*
X70806328Y-102369566D01*
X69067196Y-100630434D01*
X99509876Y-100630434D01*
X99540856Y-100758355D01*
X99854078Y-101316317D01*
X100356980Y-101711942D01*
X100973000Y-101885000D01*
X101473000Y-101885000D01*
X101473000Y-100377000D01*
X101727000Y-100377000D01*
X101727000Y-101885000D01*
X102227000Y-101885000D01*
X102843020Y-101711942D01*
X103345922Y-101316317D01*
X103659144Y-100758355D01*
X103690124Y-100630434D01*
X103570777Y-100377000D01*
X101727000Y-100377000D01*
X101473000Y-100377000D01*
X99629223Y-100377000D01*
X99509876Y-100630434D01*
X69067196Y-100630434D01*
X68718195Y-100281434D01*
X68633949Y-100155351D01*
X68206242Y-99869566D01*
X99509876Y-99869566D01*
X99629223Y-100123000D01*
X101473000Y-100123000D01*
X101473000Y-98615000D01*
X101727000Y-98615000D01*
X101727000Y-100123000D01*
X103570777Y-100123000D01*
X103690124Y-99869566D01*
X103659144Y-99741645D01*
X103345922Y-99183683D01*
X102843020Y-98788058D01*
X102227000Y-98615000D01*
X101727000Y-98615000D01*
X101473000Y-98615000D01*
X100973000Y-98615000D01*
X100356980Y-98788058D01*
X99854078Y-99183683D01*
X99540856Y-99741645D01*
X99509876Y-99869566D01*
X68206242Y-99869566D01*
X68134473Y-99821612D01*
X67694018Y-99734000D01*
X67545300Y-99704418D01*
X67396582Y-99734000D01*
X66649700Y-99734000D01*
X66517765Y-99645843D01*
X66270000Y-99596560D01*
X63270000Y-99596560D01*
X63022235Y-99645843D01*
X62812191Y-99786191D01*
X62671843Y-99996235D01*
X62622560Y-100244000D01*
X61664666Y-100244000D01*
X61727809Y-100201809D01*
X61868157Y-99991765D01*
X61917440Y-99744000D01*
X61917440Y-97744000D01*
X61868157Y-97496235D01*
X61727809Y-97286191D01*
X61517765Y-97145843D01*
X61270000Y-97096560D01*
X58270000Y-97096560D01*
X58022235Y-97145843D01*
X57812191Y-97286191D01*
X57671843Y-97496235D01*
X57622560Y-97744000D01*
X51597440Y-97744000D01*
X51597440Y-96750000D01*
X51572464Y-96624434D01*
X62679876Y-96624434D01*
X62710856Y-96752355D01*
X63024078Y-97310317D01*
X63526980Y-97705942D01*
X64143000Y-97879000D01*
X64643000Y-97879000D01*
X64643000Y-96371000D01*
X64897000Y-96371000D01*
X64897000Y-97879000D01*
X65397000Y-97879000D01*
X66013020Y-97705942D01*
X66515922Y-97310317D01*
X66829144Y-96752355D01*
X66860124Y-96624434D01*
X66740777Y-96371000D01*
X64897000Y-96371000D01*
X64643000Y-96371000D01*
X62799223Y-96371000D01*
X62679876Y-96624434D01*
X51572464Y-96624434D01*
X51548157Y-96502235D01*
X51407809Y-96292191D01*
X51197765Y-96151843D01*
X50950000Y-96102560D01*
X47950000Y-96102560D01*
X47702235Y-96151843D01*
X47573394Y-96237932D01*
X47199028Y-95863566D01*
X62679876Y-95863566D01*
X62799223Y-96117000D01*
X64643000Y-96117000D01*
X64643000Y-94609000D01*
X64897000Y-94609000D01*
X64897000Y-96117000D01*
X66740777Y-96117000D01*
X66860124Y-95863566D01*
X66829144Y-95735645D01*
X66515922Y-95177683D01*
X66013020Y-94782058D01*
X65397000Y-94609000D01*
X64897000Y-94609000D01*
X64643000Y-94609000D01*
X64143000Y-94609000D01*
X63526980Y-94782058D01*
X63024078Y-95177683D01*
X62710856Y-95735645D01*
X62679876Y-95863566D01*
X47199028Y-95863566D01*
X46597440Y-95261979D01*
X46597440Y-94250000D01*
X46572464Y-94124434D01*
X57679876Y-94124434D01*
X57710856Y-94252355D01*
X58024078Y-94810317D01*
X58526980Y-95205942D01*
X59143000Y-95379000D01*
X59643000Y-95379000D01*
X59643000Y-93871000D01*
X59897000Y-93871000D01*
X59897000Y-95379000D01*
X60397000Y-95379000D01*
X61013020Y-95205942D01*
X61515922Y-94810317D01*
X61829144Y-94252355D01*
X61829714Y-94250000D01*
X99452560Y-94250000D01*
X99452560Y-96250000D01*
X99501843Y-96497765D01*
X99642191Y-96707809D01*
X99852235Y-96848157D01*
X100100000Y-96897440D01*
X103100000Y-96897440D01*
X103347765Y-96848157D01*
X103494666Y-96750000D01*
X104452560Y-96750000D01*
X104452560Y-98750000D01*
X104501843Y-98997765D01*
X104642191Y-99207809D01*
X104852235Y-99348157D01*
X105100000Y-99397440D01*
X108100000Y-99397440D01*
X108347765Y-99348157D01*
X108557809Y-99207809D01*
X108698157Y-98997765D01*
X108747440Y-98750000D01*
X108747440Y-96750000D01*
X108698157Y-96502235D01*
X108557809Y-96292191D01*
X108347765Y-96151843D01*
X108100000Y-96102560D01*
X105100000Y-96102560D01*
X104852235Y-96151843D01*
X104642191Y-96292191D01*
X104501843Y-96502235D01*
X104452560Y-96750000D01*
X103494666Y-96750000D01*
X103557809Y-96707809D01*
X103698157Y-96497765D01*
X103747440Y-96250000D01*
X103747440Y-94250000D01*
X103698157Y-94002235D01*
X103557809Y-93792191D01*
X103347765Y-93651843D01*
X103100000Y-93602560D01*
X100100000Y-93602560D01*
X99852235Y-93651843D01*
X99642191Y-93792191D01*
X99501843Y-94002235D01*
X99452560Y-94250000D01*
X61829714Y-94250000D01*
X61860124Y-94124434D01*
X61740777Y-93871000D01*
X59897000Y-93871000D01*
X59643000Y-93871000D01*
X57799223Y-93871000D01*
X57679876Y-94124434D01*
X46572464Y-94124434D01*
X46548157Y-94002235D01*
X46407809Y-93792191D01*
X46197765Y-93651843D01*
X45950000Y-93602560D01*
X42950000Y-93602560D01*
X42702235Y-93651843D01*
X42492191Y-93792191D01*
X42351843Y-94002235D01*
X42302560Y-94250000D01*
X14680000Y-94250000D01*
X14680000Y-93363566D01*
X57679876Y-93363566D01*
X57799223Y-93617000D01*
X59643000Y-93617000D01*
X59643000Y-92109000D01*
X59897000Y-92109000D01*
X59897000Y-93617000D01*
X61740777Y-93617000D01*
X61860124Y-93363566D01*
X61829144Y-93235645D01*
X61515922Y-92677683D01*
X61013020Y-92282058D01*
X60397000Y-92109000D01*
X59897000Y-92109000D01*
X59643000Y-92109000D01*
X59143000Y-92109000D01*
X58526980Y-92282058D01*
X58024078Y-92677683D01*
X57710856Y-93235645D01*
X57679876Y-93363566D01*
X14680000Y-93363566D01*
X14680000Y-86360000D01*
X65031214Y-86360000D01*
X65204676Y-87232054D01*
X65698655Y-87971345D01*
X66437946Y-88465324D01*
X67089872Y-88595000D01*
X67530128Y-88595000D01*
X68182054Y-88465324D01*
X68921345Y-87971345D01*
X69415324Y-87232054D01*
X69588786Y-86360000D01*
X69415324Y-85487946D01*
X68928926Y-84760000D01*
X72682560Y-84760000D01*
X72682560Y-87960000D01*
X72731843Y-88207765D01*
X72872191Y-88417809D01*
X73082235Y-88558157D01*
X73330000Y-88607440D01*
X76530000Y-88607440D01*
X76777765Y-88558157D01*
X76987809Y-88417809D01*
X77128157Y-88207765D01*
X77177440Y-87960000D01*
X77177440Y-84760000D01*
X80302560Y-84760000D01*
X80302560Y-87960000D01*
X80351843Y-88207765D01*
X80492191Y-88417809D01*
X80702235Y-88558157D01*
X80950000Y-88607440D01*
X84150000Y-88607440D01*
X84397765Y-88558157D01*
X84607809Y-88417809D01*
X84748157Y-88207765D01*
X84797440Y-87960000D01*
X84797440Y-84760000D01*
X84748157Y-84512235D01*
X84607809Y-84302191D01*
X84397765Y-84161843D01*
X84150000Y-84112560D01*
X80950000Y-84112560D01*
X80702235Y-84161843D01*
X80492191Y-84302191D01*
X80351843Y-84512235D01*
X80302560Y-84760000D01*
X77177440Y-84760000D01*
X77128157Y-84512235D01*
X76987809Y-84302191D01*
X76777765Y-84161843D01*
X76530000Y-84112560D01*
X73330000Y-84112560D01*
X73082235Y-84161843D01*
X72872191Y-84302191D01*
X72731843Y-84512235D01*
X72682560Y-84760000D01*
X68928926Y-84760000D01*
X68921345Y-84748655D01*
X68182054Y-84254676D01*
X67530128Y-84125000D01*
X67089872Y-84125000D01*
X66437946Y-84254676D01*
X65698655Y-84748655D01*
X65204676Y-85487946D01*
X65031214Y-86360000D01*
X14680000Y-86360000D01*
X14680000Y-82497175D01*
X25552430Y-82497175D01*
X25675565Y-82784788D01*
X26357734Y-83044707D01*
X27087443Y-83023786D01*
X27664435Y-82784788D01*
X27787570Y-82497175D01*
X48412430Y-82497175D01*
X48535565Y-82784788D01*
X49217734Y-83044707D01*
X49947443Y-83023786D01*
X50524435Y-82784788D01*
X50647570Y-82497175D01*
X49530000Y-81379605D01*
X48412430Y-82497175D01*
X27787570Y-82497175D01*
X26670000Y-81379605D01*
X25552430Y-82497175D01*
X14680000Y-82497175D01*
X14680000Y-80887734D01*
X24825293Y-80887734D01*
X24846214Y-81617443D01*
X25085212Y-82194435D01*
X25372825Y-82317570D01*
X26490395Y-81200000D01*
X26849605Y-81200000D01*
X27967175Y-82317570D01*
X28254788Y-82194435D01*
X28514707Y-81512266D01*
X28496802Y-80887734D01*
X47685293Y-80887734D01*
X47706214Y-81617443D01*
X47945212Y-82194435D01*
X48232825Y-82317570D01*
X49350395Y-81200000D01*
X49709605Y-81200000D01*
X50827175Y-82317570D01*
X51114788Y-82194435D01*
X51374707Y-81512266D01*
X51353786Y-80782557D01*
X51114788Y-80205565D01*
X50827175Y-80082430D01*
X49709605Y-81200000D01*
X49350395Y-81200000D01*
X48232825Y-80082430D01*
X47945212Y-80205565D01*
X47685293Y-80887734D01*
X28496802Y-80887734D01*
X28493786Y-80782557D01*
X28254788Y-80205565D01*
X27967175Y-80082430D01*
X26849605Y-81200000D01*
X26490395Y-81200000D01*
X25372825Y-80082430D01*
X25085212Y-80205565D01*
X24825293Y-80887734D01*
X14680000Y-80887734D01*
X14680000Y-79902825D01*
X25552430Y-79902825D01*
X26670000Y-81020395D01*
X27787570Y-79902825D01*
X48412430Y-79902825D01*
X49530000Y-81020395D01*
X50647570Y-79902825D01*
X50524435Y-79615212D01*
X49842266Y-79355293D01*
X49112557Y-79376214D01*
X48535565Y-79615212D01*
X48412430Y-79902825D01*
X27787570Y-79902825D01*
X27664435Y-79615212D01*
X26982266Y-79355293D01*
X26252557Y-79376214D01*
X25675565Y-79615212D01*
X25552430Y-79902825D01*
X14680000Y-79902825D01*
X14680000Y-75000000D01*
X24822560Y-75000000D01*
X24822560Y-77400000D01*
X24871843Y-77647765D01*
X25012191Y-77857809D01*
X25222235Y-77998157D01*
X25470000Y-78047440D01*
X27870000Y-78047440D01*
X28117765Y-77998157D01*
X28327809Y-77857809D01*
X28468157Y-77647765D01*
X28517440Y-77400000D01*
X28517440Y-75000000D01*
X47682560Y-75000000D01*
X47682560Y-77400000D01*
X47731843Y-77647765D01*
X47872191Y-77857809D01*
X48082235Y-77998157D01*
X48330000Y-78047440D01*
X50730000Y-78047440D01*
X50977765Y-77998157D01*
X51187809Y-77857809D01*
X51328157Y-77647765D01*
X51377440Y-77400000D01*
X51377440Y-75000000D01*
X51328157Y-74752235D01*
X51187809Y-74542191D01*
X51040000Y-74443427D01*
X51040000Y-69520000D01*
X65062560Y-69520000D01*
X65062560Y-72720000D01*
X65111843Y-72967765D01*
X65252191Y-73177809D01*
X65462235Y-73318157D01*
X65710000Y-73367440D01*
X68910000Y-73367440D01*
X69157765Y-73318157D01*
X69367809Y-73177809D01*
X69508157Y-72967765D01*
X69557440Y-72720000D01*
X69557440Y-71120000D01*
X72651214Y-71120000D01*
X72824676Y-71992054D01*
X73318655Y-72731345D01*
X74057946Y-73225324D01*
X74709872Y-73355000D01*
X75150128Y-73355000D01*
X75802054Y-73225324D01*
X76541345Y-72731345D01*
X77035324Y-71992054D01*
X77208786Y-71120000D01*
X80271214Y-71120000D01*
X80444676Y-71992054D01*
X80938655Y-72731345D01*
X81677946Y-73225324D01*
X82329872Y-73355000D01*
X82770128Y-73355000D01*
X83422054Y-73225324D01*
X84161345Y-72731345D01*
X84655324Y-71992054D01*
X84828786Y-71120000D01*
X84655324Y-70247946D01*
X84340980Y-69777497D01*
X99285000Y-69777497D01*
X99285000Y-71422503D01*
X99914517Y-72942289D01*
X101077711Y-74105483D01*
X102597497Y-74735000D01*
X104242503Y-74735000D01*
X105762289Y-74105483D01*
X106925483Y-72942289D01*
X107555000Y-71422503D01*
X107555000Y-69777497D01*
X106925483Y-68257711D01*
X105762289Y-67094517D01*
X104242503Y-66465000D01*
X102597497Y-66465000D01*
X101077711Y-67094517D01*
X99914517Y-68257711D01*
X99285000Y-69777497D01*
X84340980Y-69777497D01*
X84161345Y-69508655D01*
X83422054Y-69014676D01*
X82770128Y-68885000D01*
X82329872Y-68885000D01*
X81677946Y-69014676D01*
X80938655Y-69508655D01*
X80444676Y-70247946D01*
X80271214Y-71120000D01*
X77208786Y-71120000D01*
X77035324Y-70247946D01*
X76541345Y-69508655D01*
X75802054Y-69014676D01*
X75150128Y-68885000D01*
X74709872Y-68885000D01*
X74057946Y-69014676D01*
X73318655Y-69508655D01*
X72824676Y-70247946D01*
X72651214Y-71120000D01*
X69557440Y-71120000D01*
X69557440Y-69520000D01*
X69508157Y-69272235D01*
X69367809Y-69062191D01*
X69157765Y-68921843D01*
X68910000Y-68872560D01*
X68820000Y-68872560D01*
X68820000Y-64585082D01*
X68865638Y-64539444D01*
X69145000Y-63865004D01*
X69145000Y-63134996D01*
X68865638Y-62460556D01*
X68349444Y-61944362D01*
X67675004Y-61665000D01*
X66944996Y-61665000D01*
X66270556Y-61944362D01*
X65754362Y-62460556D01*
X65475000Y-63134996D01*
X65475000Y-63865004D01*
X65754362Y-64539444D01*
X65800000Y-64585082D01*
X65800001Y-68872560D01*
X65710000Y-68872560D01*
X65462235Y-68921843D01*
X65252191Y-69062191D01*
X65111843Y-69272235D01*
X65062560Y-69520000D01*
X51040000Y-69520000D01*
X51040000Y-59425082D01*
X51085638Y-59379444D01*
X51365000Y-58705004D01*
X51365000Y-57974996D01*
X51085638Y-57300556D01*
X50962257Y-57177175D01*
X80242430Y-57177175D01*
X80365565Y-57464788D01*
X81047734Y-57724707D01*
X81777443Y-57703786D01*
X82354435Y-57464788D01*
X82477570Y-57177175D01*
X81360000Y-56059605D01*
X80242430Y-57177175D01*
X50962257Y-57177175D01*
X50569444Y-56784362D01*
X49895004Y-56505000D01*
X49164996Y-56505000D01*
X48490556Y-56784362D01*
X47974362Y-57300556D01*
X47695000Y-57974996D01*
X47695000Y-58705004D01*
X47974362Y-59379444D01*
X48020001Y-59425083D01*
X48020000Y-74443427D01*
X47872191Y-74542191D01*
X47731843Y-74752235D01*
X47682560Y-75000000D01*
X28517440Y-75000000D01*
X28468157Y-74752235D01*
X28327809Y-74542191D01*
X28180000Y-74443427D01*
X28180000Y-59425082D01*
X28225638Y-59379444D01*
X28505000Y-58705004D01*
X28505000Y-57974996D01*
X28225638Y-57300556D01*
X27709444Y-56784362D01*
X27035004Y-56505000D01*
X26304996Y-56505000D01*
X25630556Y-56784362D01*
X25114362Y-57300556D01*
X24835000Y-57974996D01*
X24835000Y-58705004D01*
X25114362Y-59379444D01*
X25160001Y-59425083D01*
X25160000Y-74443427D01*
X25012191Y-74542191D01*
X24871843Y-74752235D01*
X24822560Y-75000000D01*
X14680000Y-75000000D01*
X14680000Y-55567734D01*
X79515293Y-55567734D01*
X79536214Y-56297443D01*
X79775212Y-56874435D01*
X80062825Y-56997570D01*
X81180395Y-55880000D01*
X81539605Y-55880000D01*
X82657175Y-56997570D01*
X82944788Y-56874435D01*
X83204707Y-56192266D01*
X83183786Y-55462557D01*
X82944788Y-54885565D01*
X82657175Y-54762430D01*
X81539605Y-55880000D01*
X81180395Y-55880000D01*
X80062825Y-54762430D01*
X79775212Y-54885565D01*
X79515293Y-55567734D01*
X14680000Y-55567734D01*
X14680000Y-52140000D01*
X24822560Y-52140000D01*
X24822560Y-54540000D01*
X24871843Y-54787765D01*
X25012191Y-54997809D01*
X25222235Y-55138157D01*
X25470000Y-55187440D01*
X27870000Y-55187440D01*
X28117765Y-55138157D01*
X28327809Y-54997809D01*
X28468157Y-54787765D01*
X28517440Y-54540000D01*
X28517440Y-52140000D01*
X47682560Y-52140000D01*
X47682560Y-54540000D01*
X47731843Y-54787765D01*
X47872191Y-54997809D01*
X48082235Y-55138157D01*
X48330000Y-55187440D01*
X50730000Y-55187440D01*
X50977765Y-55138157D01*
X51187809Y-54997809D01*
X51328157Y-54787765D01*
X51368921Y-54582825D01*
X80242430Y-54582825D01*
X81360000Y-55700395D01*
X82477570Y-54582825D01*
X82354435Y-54295212D01*
X81672266Y-54035293D01*
X80942557Y-54056214D01*
X80365565Y-54295212D01*
X80242430Y-54582825D01*
X51368921Y-54582825D01*
X51377440Y-54540000D01*
X51377440Y-52140000D01*
X51328157Y-51892235D01*
X51187809Y-51682191D01*
X51040000Y-51583427D01*
X51040000Y-36565082D01*
X51085638Y-36519444D01*
X51365000Y-35845004D01*
X51365000Y-35114996D01*
X51085638Y-34440556D01*
X50962257Y-34317175D01*
X80242430Y-34317175D01*
X80365565Y-34604788D01*
X81047734Y-34864707D01*
X81777443Y-34843786D01*
X82354435Y-34604788D01*
X82477570Y-34317175D01*
X81360000Y-33199605D01*
X80242430Y-34317175D01*
X50962257Y-34317175D01*
X50569444Y-33924362D01*
X49895004Y-33645000D01*
X49164996Y-33645000D01*
X48490556Y-33924362D01*
X47974362Y-34440556D01*
X47695000Y-35114996D01*
X47695000Y-35845004D01*
X47974362Y-36519444D01*
X48020001Y-36565083D01*
X48020000Y-51583427D01*
X47872191Y-51682191D01*
X47731843Y-51892235D01*
X47682560Y-52140000D01*
X28517440Y-52140000D01*
X28468157Y-51892235D01*
X28327809Y-51682191D01*
X28180000Y-51583427D01*
X28180000Y-36565082D01*
X28225638Y-36519444D01*
X28505000Y-35845004D01*
X28505000Y-35114996D01*
X28225638Y-34440556D01*
X27709444Y-33924362D01*
X27035004Y-33645000D01*
X26304996Y-33645000D01*
X25630556Y-33924362D01*
X25114362Y-34440556D01*
X24835000Y-35114996D01*
X24835000Y-35845004D01*
X25114362Y-36519444D01*
X25160000Y-36565082D01*
X25160001Y-51583427D01*
X25012191Y-51682191D01*
X24871843Y-51892235D01*
X24822560Y-52140000D01*
X14680000Y-52140000D01*
X14680000Y-32707734D01*
X79515293Y-32707734D01*
X79536214Y-33437443D01*
X79775212Y-34014435D01*
X80062825Y-34137570D01*
X81180395Y-33020000D01*
X81539605Y-33020000D01*
X82657175Y-34137570D01*
X82944788Y-34014435D01*
X83204707Y-33332266D01*
X83183786Y-32602557D01*
X82944788Y-32025565D01*
X82657175Y-31902430D01*
X81539605Y-33020000D01*
X81180395Y-33020000D01*
X80062825Y-31902430D01*
X79775212Y-32025565D01*
X79515293Y-32707734D01*
X14680000Y-32707734D01*
X14680000Y-29280000D01*
X24822560Y-29280000D01*
X24822560Y-31680000D01*
X24871843Y-31927765D01*
X25012191Y-32137809D01*
X25222235Y-32278157D01*
X25470000Y-32327440D01*
X27870000Y-32327440D01*
X28117765Y-32278157D01*
X28327809Y-32137809D01*
X28468157Y-31927765D01*
X28517440Y-31680000D01*
X28517440Y-29280000D01*
X47682560Y-29280000D01*
X47682560Y-31680000D01*
X47731843Y-31927765D01*
X47872191Y-32137809D01*
X48082235Y-32278157D01*
X48330000Y-32327440D01*
X50730000Y-32327440D01*
X50977765Y-32278157D01*
X51187809Y-32137809D01*
X51328157Y-31927765D01*
X51368921Y-31722825D01*
X80242430Y-31722825D01*
X81360000Y-32840395D01*
X82380395Y-31820000D01*
X84512560Y-31820000D01*
X84512560Y-34220000D01*
X84561843Y-34467765D01*
X84702191Y-34677809D01*
X84850001Y-34776573D01*
X84850000Y-54123427D01*
X84702191Y-54222191D01*
X84561843Y-54432235D01*
X84512560Y-54680000D01*
X84512560Y-57080000D01*
X84561843Y-57327765D01*
X84702191Y-57537809D01*
X84912235Y-57678157D01*
X85160000Y-57727440D01*
X87560000Y-57727440D01*
X87807765Y-57678157D01*
X88017809Y-57537809D01*
X88116573Y-57390000D01*
X88209839Y-57390000D01*
X95282407Y-64462569D01*
X95366651Y-64588649D01*
X95866127Y-64922388D01*
X96306582Y-65010000D01*
X96306585Y-65010000D01*
X96455299Y-65039581D01*
X96604013Y-65010000D01*
X99286963Y-65010000D01*
X99614019Y-65228531D01*
X100149273Y-65335000D01*
X100510727Y-65335000D01*
X101045981Y-65228531D01*
X101652961Y-64822961D01*
X102058531Y-64215981D01*
X102200949Y-63500000D01*
X102058531Y-62784019D01*
X101652961Y-62177039D01*
X101045981Y-61771469D01*
X100510727Y-61665000D01*
X100149273Y-61665000D01*
X99614019Y-61771469D01*
X99286963Y-61990000D01*
X97080762Y-61990000D01*
X90008195Y-54917434D01*
X89923949Y-54791351D01*
X89424473Y-54457612D01*
X88984018Y-54370000D01*
X88835300Y-54340418D01*
X88686582Y-54370000D01*
X88223162Y-54370000D01*
X87870000Y-54016839D01*
X87870000Y-48930600D01*
X106075118Y-48930600D01*
X106104700Y-49079318D01*
X106104701Y-62680677D01*
X106075118Y-62829400D01*
X106192312Y-63418571D01*
X106192313Y-63418572D01*
X106192313Y-63418573D01*
X106526052Y-63918049D01*
X106652132Y-64002293D01*
X108980001Y-66330163D01*
X108980001Y-66332560D01*
X108890000Y-66332560D01*
X108642235Y-66381843D01*
X108432191Y-66522191D01*
X108291843Y-66732235D01*
X108242560Y-66980000D01*
X108242560Y-70180000D01*
X108291843Y-70427765D01*
X108432191Y-70637809D01*
X108642235Y-70778157D01*
X108890000Y-70827440D01*
X108980001Y-70827440D01*
X108980001Y-71306577D01*
X108950418Y-71455300D01*
X109067612Y-72044471D01*
X109067613Y-72044472D01*
X109067613Y-72044473D01*
X109401352Y-72543949D01*
X109527432Y-72628193D01*
X112634701Y-75735463D01*
X112634700Y-98608281D01*
X112605118Y-98757000D01*
X112722312Y-99346173D01*
X113025009Y-99799191D01*
X113056051Y-99845649D01*
X113555527Y-100179388D01*
X114144700Y-100296582D01*
X114293418Y-100267000D01*
X115040300Y-100267000D01*
X115172235Y-100355157D01*
X115420000Y-100404440D01*
X118420000Y-100404440D01*
X118667765Y-100355157D01*
X118877809Y-100214809D01*
X119018157Y-100004765D01*
X119067440Y-99757000D01*
X119067440Y-97757000D01*
X119018157Y-97509235D01*
X118877809Y-97299191D01*
X118667765Y-97158843D01*
X118420000Y-97109560D01*
X115654700Y-97109560D01*
X115654700Y-96637434D01*
X119829876Y-96637434D01*
X119860856Y-96765355D01*
X120174078Y-97323317D01*
X120676980Y-97718942D01*
X121293000Y-97892000D01*
X121793000Y-97892000D01*
X121793000Y-96384000D01*
X122047000Y-96384000D01*
X122047000Y-97892000D01*
X122547000Y-97892000D01*
X123163020Y-97718942D01*
X123665922Y-97323317D01*
X123979144Y-96765355D01*
X124010124Y-96637434D01*
X123890777Y-96384000D01*
X122047000Y-96384000D01*
X121793000Y-96384000D01*
X119949223Y-96384000D01*
X119829876Y-96637434D01*
X115654700Y-96637434D01*
X115654700Y-95876566D01*
X119829876Y-95876566D01*
X119949223Y-96130000D01*
X121793000Y-96130000D01*
X121793000Y-94622000D01*
X122047000Y-94622000D01*
X122047000Y-96130000D01*
X123890777Y-96130000D01*
X124010124Y-95876566D01*
X123979144Y-95748645D01*
X123665922Y-95190683D01*
X123163020Y-94795058D01*
X122547000Y-94622000D01*
X122047000Y-94622000D01*
X121793000Y-94622000D01*
X121293000Y-94622000D01*
X120676980Y-94795058D01*
X120174078Y-95190683D01*
X119860856Y-95748645D01*
X119829876Y-95876566D01*
X115654700Y-95876566D01*
X115654700Y-95201415D01*
X115676980Y-95218942D01*
X116293000Y-95392000D01*
X116793000Y-95392000D01*
X116793000Y-93884000D01*
X117047000Y-93884000D01*
X117047000Y-95392000D01*
X117547000Y-95392000D01*
X118163020Y-95218942D01*
X118665922Y-94823317D01*
X118979144Y-94265355D01*
X119010124Y-94137434D01*
X118890777Y-93884000D01*
X117047000Y-93884000D01*
X116793000Y-93884000D01*
X116773000Y-93884000D01*
X116773000Y-93630000D01*
X116793000Y-93630000D01*
X116793000Y-92122000D01*
X117047000Y-92122000D01*
X117047000Y-93630000D01*
X118890777Y-93630000D01*
X119010124Y-93376566D01*
X118979144Y-93248645D01*
X118665922Y-92690683D01*
X118163020Y-92295058D01*
X117547000Y-92122000D01*
X117047000Y-92122000D01*
X116793000Y-92122000D01*
X116293000Y-92122000D01*
X115676980Y-92295058D01*
X115654700Y-92312585D01*
X115654700Y-75258713D01*
X115684281Y-75109999D01*
X115654022Y-74957871D01*
X115567088Y-74520827D01*
X115233349Y-74021351D01*
X115107269Y-73937107D01*
X112000000Y-70829839D01*
X112000000Y-70827440D01*
X112090000Y-70827440D01*
X112337765Y-70778157D01*
X112547809Y-70637809D01*
X112688157Y-70427765D01*
X112737440Y-70180000D01*
X112737440Y-68580000D01*
X123451214Y-68580000D01*
X123624676Y-69452054D01*
X124118655Y-70191345D01*
X124857946Y-70685324D01*
X125509872Y-70815000D01*
X125950128Y-70815000D01*
X126602054Y-70685324D01*
X127341345Y-70191345D01*
X127835324Y-69452054D01*
X128008786Y-68580000D01*
X127835324Y-67707946D01*
X127341345Y-66968655D01*
X126602054Y-66474676D01*
X125950128Y-66345000D01*
X125509872Y-66345000D01*
X124857946Y-66474676D01*
X124118655Y-66968655D01*
X123624676Y-67707946D01*
X123451214Y-68580000D01*
X112737440Y-68580000D01*
X112737440Y-66980000D01*
X112688157Y-66732235D01*
X112547809Y-66522191D01*
X112337765Y-66381843D01*
X112090000Y-66332560D01*
X112000000Y-66332560D01*
X112000000Y-65853413D01*
X112029581Y-65704699D01*
X111912388Y-65115527D01*
X111872371Y-65055638D01*
X111578649Y-64616051D01*
X111452569Y-64531807D01*
X109124700Y-62203939D01*
X109124700Y-60195747D01*
X109617946Y-60525324D01*
X110269872Y-60655000D01*
X110710128Y-60655000D01*
X111362054Y-60525324D01*
X112101345Y-60031345D01*
X112595324Y-59292054D01*
X112768786Y-58420000D01*
X112595324Y-57547946D01*
X112101345Y-56808655D01*
X111362054Y-56314676D01*
X110710128Y-56185000D01*
X110269872Y-56185000D01*
X109617946Y-56314676D01*
X109124700Y-56644253D01*
X109124700Y-55907175D01*
X122152430Y-55907175D01*
X122275565Y-56194788D01*
X122957734Y-56454707D01*
X123687443Y-56433786D01*
X124264435Y-56194788D01*
X124387570Y-55907175D01*
X123270000Y-54789605D01*
X122152430Y-55907175D01*
X109124700Y-55907175D01*
X109124700Y-54297734D01*
X121425293Y-54297734D01*
X121446214Y-55027443D01*
X121685212Y-55604435D01*
X121972825Y-55727570D01*
X123090395Y-54610000D01*
X123449605Y-54610000D01*
X124567175Y-55727570D01*
X124854788Y-55604435D01*
X125114707Y-54922266D01*
X125093786Y-54192557D01*
X124854788Y-53615565D01*
X124567175Y-53492430D01*
X123449605Y-54610000D01*
X123090395Y-54610000D01*
X121972825Y-53492430D01*
X121685212Y-53615565D01*
X121425293Y-54297734D01*
X109124700Y-54297734D01*
X109124700Y-53312825D01*
X122152430Y-53312825D01*
X123270000Y-54430395D01*
X124387570Y-53312825D01*
X124264435Y-53025212D01*
X123582266Y-52765293D01*
X122852557Y-52786214D01*
X122275565Y-53025212D01*
X122152430Y-53312825D01*
X109124700Y-53312825D01*
X109124700Y-49556061D01*
X111452569Y-47228193D01*
X111578649Y-47143949D01*
X111912388Y-46644473D01*
X112000000Y-46204018D01*
X112000000Y-46204015D01*
X112029581Y-46055301D01*
X112000000Y-45906587D01*
X112000000Y-45427440D01*
X112090000Y-45427440D01*
X112337765Y-45378157D01*
X112547809Y-45237809D01*
X112688157Y-45027765D01*
X112737440Y-44780000D01*
X112737440Y-41580000D01*
X112688157Y-41332235D01*
X112547809Y-41122191D01*
X112337765Y-40981843D01*
X112090000Y-40932560D01*
X112000000Y-40932560D01*
X112000000Y-39779062D01*
X112101345Y-39711345D01*
X112595324Y-38972054D01*
X112768786Y-38100000D01*
X112595324Y-37227946D01*
X112101345Y-36488655D01*
X111362054Y-35994676D01*
X110710128Y-35865000D01*
X110269872Y-35865000D01*
X109617946Y-35994676D01*
X108878655Y-36488655D01*
X108384676Y-37227946D01*
X108211214Y-38100000D01*
X108384676Y-38972054D01*
X108878655Y-39711345D01*
X108980000Y-39779062D01*
X108980001Y-40932560D01*
X108890000Y-40932560D01*
X108642235Y-40981843D01*
X108432191Y-41122191D01*
X108291843Y-41332235D01*
X108242560Y-41580000D01*
X108242560Y-44780000D01*
X108291843Y-45027765D01*
X108432191Y-45237809D01*
X108642235Y-45378157D01*
X108890000Y-45427440D01*
X108980001Y-45427440D01*
X108980001Y-45429837D01*
X106652134Y-47757705D01*
X106526051Y-47841951D01*
X106192312Y-48341428D01*
X106192312Y-48341429D01*
X106075118Y-48930600D01*
X87870000Y-48930600D01*
X87870000Y-34776573D01*
X88017809Y-34677809D01*
X88158157Y-34467765D01*
X88188110Y-34317175D01*
X122152430Y-34317175D01*
X122275565Y-34604788D01*
X122957734Y-34864707D01*
X123687443Y-34843786D01*
X124264435Y-34604788D01*
X124387570Y-34317175D01*
X123270000Y-33199605D01*
X122152430Y-34317175D01*
X88188110Y-34317175D01*
X88207440Y-34220000D01*
X88207440Y-32707734D01*
X121425293Y-32707734D01*
X121446214Y-33437443D01*
X121685212Y-34014435D01*
X121972825Y-34137570D01*
X123090395Y-33020000D01*
X123449605Y-33020000D01*
X124567175Y-34137570D01*
X124854788Y-34014435D01*
X125114707Y-33332266D01*
X125093786Y-32602557D01*
X124854788Y-32025565D01*
X124567175Y-31902430D01*
X123449605Y-33020000D01*
X123090395Y-33020000D01*
X121972825Y-31902430D01*
X121685212Y-32025565D01*
X121425293Y-32707734D01*
X88207440Y-32707734D01*
X88207440Y-31820000D01*
X88188111Y-31722825D01*
X122152430Y-31722825D01*
X123270000Y-32840395D01*
X124290395Y-31820000D01*
X126422560Y-31820000D01*
X126422560Y-34220000D01*
X126471843Y-34467765D01*
X126612191Y-34677809D01*
X126760001Y-34776573D01*
X126760000Y-52853427D01*
X126612191Y-52952191D01*
X126471843Y-53162235D01*
X126422560Y-53410000D01*
X126422560Y-55810000D01*
X126471843Y-56057765D01*
X126612191Y-56267809D01*
X126822235Y-56408157D01*
X127070000Y-56457440D01*
X129470000Y-56457440D01*
X129717765Y-56408157D01*
X129927809Y-56267809D01*
X130068157Y-56057765D01*
X130117440Y-55810000D01*
X130117440Y-53410000D01*
X130068157Y-53162235D01*
X129927809Y-52952191D01*
X129780000Y-52853427D01*
X129780000Y-34776573D01*
X129927809Y-34677809D01*
X130068157Y-34467765D01*
X130117440Y-34220000D01*
X130117440Y-31820000D01*
X130068157Y-31572235D01*
X129927809Y-31362191D01*
X129717765Y-31221843D01*
X129470000Y-31172560D01*
X127070000Y-31172560D01*
X126822235Y-31221843D01*
X126612191Y-31362191D01*
X126471843Y-31572235D01*
X126422560Y-31820000D01*
X124290395Y-31820000D01*
X124387570Y-31722825D01*
X124264435Y-31435212D01*
X123582266Y-31175293D01*
X122852557Y-31196214D01*
X122275565Y-31435212D01*
X122152430Y-31722825D01*
X88188111Y-31722825D01*
X88158157Y-31572235D01*
X88017809Y-31362191D01*
X87807765Y-31221843D01*
X87560000Y-31172560D01*
X85160000Y-31172560D01*
X84912235Y-31221843D01*
X84702191Y-31362191D01*
X84561843Y-31572235D01*
X84512560Y-31820000D01*
X82380395Y-31820000D01*
X82477570Y-31722825D01*
X82354435Y-31435212D01*
X81672266Y-31175293D01*
X80942557Y-31196214D01*
X80365565Y-31435212D01*
X80242430Y-31722825D01*
X51368921Y-31722825D01*
X51377440Y-31680000D01*
X51377440Y-29280000D01*
X51328157Y-29032235D01*
X51187809Y-28822191D01*
X50977765Y-28681843D01*
X50730000Y-28632560D01*
X48330000Y-28632560D01*
X48082235Y-28681843D01*
X47872191Y-28822191D01*
X47731843Y-29032235D01*
X47682560Y-29280000D01*
X28517440Y-29280000D01*
X28468157Y-29032235D01*
X28327809Y-28822191D01*
X28117765Y-28681843D01*
X27870000Y-28632560D01*
X25470000Y-28632560D01*
X25222235Y-28681843D01*
X25012191Y-28822191D01*
X24871843Y-29032235D01*
X24822560Y-29280000D01*
X14680000Y-29280000D01*
X14680000Y-22860000D01*
X65439051Y-22860000D01*
X65581469Y-23575981D01*
X65987039Y-24182961D01*
X66594019Y-24588531D01*
X67129273Y-24695000D01*
X67490727Y-24695000D01*
X68025981Y-24588531D01*
X68632961Y-24182961D01*
X69038531Y-23575981D01*
X69180949Y-22860000D01*
X69108345Y-22494996D01*
X98495000Y-22494996D01*
X98495000Y-23225004D01*
X98774362Y-23899444D01*
X99290556Y-24415638D01*
X99964996Y-24695000D01*
X100695004Y-24695000D01*
X101369444Y-24415638D01*
X101885638Y-23899444D01*
X102165000Y-23225004D01*
X102165000Y-22494996D01*
X101885638Y-21820556D01*
X101369444Y-21304362D01*
X101262345Y-21260000D01*
X108242560Y-21260000D01*
X108242560Y-24460000D01*
X108291843Y-24707765D01*
X108432191Y-24917809D01*
X108642235Y-25058157D01*
X108890000Y-25107440D01*
X112090000Y-25107440D01*
X112337765Y-25058157D01*
X112547809Y-24917809D01*
X112688157Y-24707765D01*
X112737440Y-24460000D01*
X112737440Y-22494996D01*
X140405000Y-22494996D01*
X140405000Y-23225004D01*
X140684362Y-23899444D01*
X140730000Y-23945082D01*
X140730001Y-28126577D01*
X140700418Y-28275300D01*
X140817612Y-28864471D01*
X140817613Y-28864472D01*
X140817613Y-28864473D01*
X141151352Y-29363949D01*
X141277432Y-29448193D01*
X162321807Y-50492569D01*
X162406051Y-50618649D01*
X162905527Y-50952388D01*
X163126480Y-50996338D01*
X163494699Y-51069582D01*
X163643417Y-51040000D01*
X164122560Y-51040000D01*
X164122560Y-51130000D01*
X164171843Y-51377765D01*
X164312191Y-51587809D01*
X164522235Y-51728157D01*
X164770000Y-51777440D01*
X167970000Y-51777440D01*
X168217765Y-51728157D01*
X168427809Y-51587809D01*
X168568157Y-51377765D01*
X168617440Y-51130000D01*
X168617440Y-47930000D01*
X168568157Y-47682235D01*
X168427809Y-47472191D01*
X168217765Y-47331843D01*
X167970000Y-47282560D01*
X164770000Y-47282560D01*
X164522235Y-47331843D01*
X164312191Y-47472191D01*
X164171843Y-47682235D01*
X164122560Y-47930000D01*
X164122560Y-48020000D01*
X164120162Y-48020000D01*
X152316815Y-36216654D01*
X152393000Y-36180777D01*
X152393000Y-34337000D01*
X152647000Y-34337000D01*
X152647000Y-36180777D01*
X152900434Y-36300124D01*
X153028355Y-36269144D01*
X153586317Y-35955922D01*
X153981942Y-35453020D01*
X154155000Y-34837000D01*
X154155000Y-34337000D01*
X152647000Y-34337000D01*
X152393000Y-34337000D01*
X150885000Y-34337000D01*
X150885000Y-34784839D01*
X149683161Y-33583000D01*
X150885000Y-33583000D01*
X150885000Y-34083000D01*
X152393000Y-34083000D01*
X152393000Y-32239223D01*
X152647000Y-32239223D01*
X152647000Y-34083000D01*
X154155000Y-34083000D01*
X154155000Y-33583000D01*
X153981942Y-32966980D01*
X153586317Y-32464078D01*
X153028355Y-32150856D01*
X152900434Y-32119876D01*
X152647000Y-32239223D01*
X152393000Y-32239223D01*
X152139566Y-32119876D01*
X152011645Y-32150856D01*
X151453683Y-32464078D01*
X151058058Y-32966980D01*
X150885000Y-33583000D01*
X149683161Y-33583000D01*
X145437161Y-29337000D01*
X153385000Y-29337000D01*
X153385000Y-29837000D01*
X153558058Y-30453020D01*
X153953683Y-30955922D01*
X154511645Y-31269144D01*
X154639566Y-31300124D01*
X154893000Y-31180777D01*
X154893000Y-29337000D01*
X155147000Y-29337000D01*
X155147000Y-31180777D01*
X155400434Y-31300124D01*
X155528355Y-31269144D01*
X156074313Y-30962661D01*
X155980418Y-31434700D01*
X156010001Y-31583423D01*
X156010001Y-32330299D01*
X155921843Y-32462235D01*
X155872560Y-32710000D01*
X155872560Y-35710000D01*
X155921843Y-35957765D01*
X156062191Y-36167809D01*
X156272235Y-36308157D01*
X156520000Y-36357440D01*
X158520000Y-36357440D01*
X158767765Y-36308157D01*
X158977809Y-36167809D01*
X159118157Y-35957765D01*
X159167440Y-35710000D01*
X159167440Y-34379500D01*
X163585000Y-34379500D01*
X163585000Y-34879500D01*
X163758058Y-35495520D01*
X164153683Y-35998422D01*
X164711645Y-36311644D01*
X164839566Y-36342624D01*
X165093000Y-36223277D01*
X165093000Y-34379500D01*
X165347000Y-34379500D01*
X165347000Y-36223277D01*
X165600434Y-36342624D01*
X165728355Y-36311644D01*
X166286317Y-35998422D01*
X166681942Y-35495520D01*
X166855000Y-34879500D01*
X166855000Y-34379500D01*
X165347000Y-34379500D01*
X165093000Y-34379500D01*
X163585000Y-34379500D01*
X159167440Y-34379500D01*
X159167440Y-33625500D01*
X163585000Y-33625500D01*
X163585000Y-34125500D01*
X165093000Y-34125500D01*
X165093000Y-32281723D01*
X165347000Y-32281723D01*
X165347000Y-34125500D01*
X166855000Y-34125500D01*
X166855000Y-33625500D01*
X166681942Y-33009480D01*
X166286317Y-32506578D01*
X165728355Y-32193356D01*
X165600434Y-32162376D01*
X165347000Y-32281723D01*
X165093000Y-32281723D01*
X164839566Y-32162376D01*
X164711645Y-32193356D01*
X164153683Y-32506578D01*
X163758058Y-33009480D01*
X163585000Y-33625500D01*
X159167440Y-33625500D01*
X159167440Y-32710000D01*
X159118157Y-32462235D01*
X159032067Y-32333394D01*
X160008022Y-31357440D01*
X161020000Y-31357440D01*
X161267765Y-31308157D01*
X161477809Y-31167809D01*
X161618157Y-30957765D01*
X161667440Y-30710000D01*
X161667440Y-29379500D01*
X166085000Y-29379500D01*
X166085000Y-29879500D01*
X166258058Y-30495520D01*
X166653683Y-30998422D01*
X167211645Y-31311644D01*
X167339566Y-31342624D01*
X167593000Y-31223277D01*
X167593000Y-29379500D01*
X167847000Y-29379500D01*
X167847000Y-31223277D01*
X168100434Y-31342624D01*
X168228355Y-31311644D01*
X168786317Y-30998422D01*
X169181942Y-30495520D01*
X169355000Y-29879500D01*
X169355000Y-29379500D01*
X167847000Y-29379500D01*
X167593000Y-29379500D01*
X166085000Y-29379500D01*
X161667440Y-29379500D01*
X161667440Y-28625500D01*
X166085000Y-28625500D01*
X166085000Y-29125500D01*
X167593000Y-29125500D01*
X167593000Y-27281723D01*
X167847000Y-27281723D01*
X167847000Y-29125500D01*
X169355000Y-29125500D01*
X169355000Y-28625500D01*
X169181942Y-28009480D01*
X168786317Y-27506578D01*
X168228355Y-27193356D01*
X168100434Y-27162376D01*
X167847000Y-27281723D01*
X167593000Y-27281723D01*
X167339566Y-27162376D01*
X167211645Y-27193356D01*
X166653683Y-27506578D01*
X166258058Y-28009480D01*
X166085000Y-28625500D01*
X161667440Y-28625500D01*
X161667440Y-27710000D01*
X161618157Y-27462235D01*
X161477809Y-27252191D01*
X161267765Y-27111843D01*
X161020000Y-27062560D01*
X159020000Y-27062560D01*
X158772235Y-27111843D01*
X158562191Y-27252191D01*
X158421843Y-27462235D01*
X158372560Y-27710000D01*
X158372560Y-28721978D01*
X157119820Y-29974719D01*
X156930827Y-30012312D01*
X156530628Y-30279716D01*
X156655000Y-29837000D01*
X156655000Y-29337000D01*
X155147000Y-29337000D01*
X154893000Y-29337000D01*
X153385000Y-29337000D01*
X145437161Y-29337000D01*
X144683161Y-28583000D01*
X153385000Y-28583000D01*
X153385000Y-29083000D01*
X154893000Y-29083000D01*
X154893000Y-27239223D01*
X155147000Y-27239223D01*
X155147000Y-29083000D01*
X156655000Y-29083000D01*
X156655000Y-28583000D01*
X156481942Y-27966980D01*
X156086317Y-27464078D01*
X155528355Y-27150856D01*
X155400434Y-27119876D01*
X155147000Y-27239223D01*
X154893000Y-27239223D01*
X154639566Y-27119876D01*
X154511645Y-27150856D01*
X153953683Y-27464078D01*
X153558058Y-27966980D01*
X153385000Y-28583000D01*
X144683161Y-28583000D01*
X143750000Y-27649839D01*
X143750000Y-23945082D01*
X143795638Y-23899444D01*
X144075000Y-23225004D01*
X144075000Y-22494996D01*
X143795638Y-21820556D01*
X143279444Y-21304362D01*
X142605004Y-21025000D01*
X141874996Y-21025000D01*
X141200556Y-21304362D01*
X140684362Y-21820556D01*
X140405000Y-22494996D01*
X112737440Y-22494996D01*
X112737440Y-21260000D01*
X112688157Y-21012235D01*
X112547809Y-20802191D01*
X112337765Y-20661843D01*
X112090000Y-20612560D01*
X108890000Y-20612560D01*
X108642235Y-20661843D01*
X108432191Y-20802191D01*
X108291843Y-21012235D01*
X108242560Y-21260000D01*
X101262345Y-21260000D01*
X100695004Y-21025000D01*
X99964996Y-21025000D01*
X99290556Y-21304362D01*
X98774362Y-21820556D01*
X98495000Y-22494996D01*
X69108345Y-22494996D01*
X69038531Y-22144019D01*
X68632961Y-21537039D01*
X68025981Y-21131469D01*
X67490727Y-21025000D01*
X67129273Y-21025000D01*
X66594019Y-21131469D01*
X65987039Y-21537039D01*
X65581469Y-22144019D01*
X65439051Y-22860000D01*
X14680000Y-22860000D01*
X14680000Y-14032119D01*
X14724065Y-13782213D01*
X14819405Y-13617080D01*
X14965477Y-13494512D01*
X15174465Y-13418445D01*
X15270996Y-13410000D01*
X191707881Y-13410000D01*
X191957787Y-13454065D01*
G04 #@! TD*
M02*
